<svg xmlns="http://www.w3.org/2000/svg" xmlns:xlink="http://www.w3.org/1999/xlink" width="273.931" height="322.963" viewBox="0 0 273.931 322.963">
  <defs>
    <clipPath id="clip-path">
      <rect id="Rectángulo_291369" data-name="Rectángulo 291369" width="252.116" height="258.24" fill="#fff"/>
    </clipPath>
    <clipPath id="clip-path-2">
      <rect id="Rectángulo_291752" data-name="Rectángulo 291752" width="263.188" height="269.379" fill="none"/>
    </clipPath>
    <clipPath id="clip-path-4">
      <rect id="Rectángulo_291738" data-name="Rectángulo 291738" width="45.27" height="25.74" fill="none"/>
    </clipPath>
    <clipPath id="clip-path-5">
      <rect id="Rectángulo_291740" data-name="Rectángulo 291740" width="42.611" height="38.077" fill="#636363"/>
    </clipPath>
    <clipPath id="clip-path-6">
      <rect id="Rectángulo_291742" data-name="Rectángulo 291742" width="42.611" height="38.078" fill="#636363"/>
    </clipPath>
    <clipPath id="clip-path-9">
      <rect id="Rectángulo_291747" data-name="Rectángulo 291747" width="3.564" height="12.836" fill="none"/>
    </clipPath>
    <clipPath id="clip-path-10">
      <rect id="Rectángulo_291748" data-name="Rectángulo 291748" width="11.095" height="14.735" fill="none"/>
    </clipPath>
    <clipPath id="clip-path-11">
      <rect id="Rectángulo_291749" data-name="Rectángulo 291749" width="3.066" height="33.257" fill="none"/>
    </clipPath>
    <clipPath id="clip-path-12">
      <rect id="Rectángulo_291750" data-name="Rectángulo 291750" width="2.077" height="2.195" fill="none"/>
    </clipPath>
  </defs>
  <g id="Grupo_872346" data-name="Grupo 872346" transform="translate(2077.588 5680.94)">
    <path id="Trazado_266393" data-name="Trazado 266393" d="M97.118,16.609H92.891L92.153,19h-3.3L93.55,6.2h2.9L101.179,19H97.866Zm-3.489-2.382H96.38L95,9.789Zm14.1-2.057-.976-.07a1.752,1.752,0,0,0-1.793.879V19H102V9.49h2.777l.1,1.222a2.294,2.294,0,0,1,2.083-1.4,2.888,2.888,0,0,1,.826.105Zm4.922,4.72a1.317,1.317,0,0,0,.967-.338,1.241,1.241,0,0,0,.334-.945h2.777a3.288,3.288,0,0,1-1.121,2.566,4.168,4.168,0,0,1-2.887,1,4.22,4.22,0,0,1-3.27-1.3,5.125,5.125,0,0,1-1.2-3.6v-.123a5.792,5.792,0,0,1,.532-2.544,3.872,3.872,0,0,1,1.534-1.7,4.573,4.573,0,0,1,2.373-.593,4.116,4.116,0,0,1,2.944,1.028,3.647,3.647,0,0,1,1.09,2.786H113.95a1.626,1.626,0,0,0-.36-1.134,1.244,1.244,0,0,0-.967-.4q-1.151,0-1.345,1.468a10.357,10.357,0,0,0-.062,1.283,4.068,4.068,0,0,0,.343,1.986A1.187,1.187,0,0,0,112.649,16.891Zm8.227-6.381a3.251,3.251,0,0,1,4.8-.264A4.186,4.186,0,0,1,126.492,13v6h-2.971V13.067a1.674,1.674,0,0,0-.308-1.112,1.322,1.322,0,0,0-1.046-.356,1.424,1.424,0,0,0-1.292.58V19h-2.962V5.5h2.962ZM131.264,19h-2.971V9.49h2.971ZM128.117,7.038A1.322,1.322,0,0,1,128.575,6a1.943,1.943,0,0,1,2.373,0,1.322,1.322,0,0,1,.457,1.037,1.322,1.322,0,0,1-.457,1.037,1.943,1.943,0,0,1-2.373,0A1.322,1.322,0,0,1,128.117,7.038Zm8.763,8.438,1.5-5.985h3.12L138.4,19h-3.023l-3.1-9.51H135.4Zm5-1.318a5.613,5.613,0,0,1,.554-2.536,3.96,3.96,0,0,1,1.591-1.709,4.791,4.791,0,0,1,2.435-.6,4.373,4.373,0,0,1,3.366,1.323,5.076,5.076,0,0,1,1.23,3.6v.105a4.925,4.925,0,0,1-1.235,3.529,4.384,4.384,0,0,1-3.344,1.305,4.434,4.434,0,0,1-3.261-1.217,4.761,4.761,0,0,1-1.327-3.3Zm2.962.185a3.538,3.538,0,0,0,.413,1.934,1.376,1.376,0,0,0,1.222.615q1.582,0,1.617-2.435v-.3q0-2.558-1.635-2.558-1.485,0-1.608,2.206Zm14.9-3.832a3.251,3.251,0,0,1,4.8-.264A4.186,4.186,0,0,1,165.357,13v6h-2.971V13.067a1.674,1.674,0,0,0-.308-1.112,1.322,1.322,0,0,0-1.046-.356,1.424,1.424,0,0,0-1.292.58V19h-2.962V5.5h2.962ZM170.129,19h-2.971V9.49h2.971ZM166.983,7.038A1.322,1.322,0,0,1,167.44,6a1.943,1.943,0,0,1,2.373,0,1.322,1.322,0,0,1,.457,1.037,1.322,1.322,0,0,1-.457,1.037,1.943,1.943,0,0,1-2.373,0A1.322,1.322,0,0,1,166.983,7.038Zm9.949,9.29a.684.684,0,0,0-.4-.606,6.016,6.016,0,0,0-1.5-.475,6.853,6.853,0,0,1-1.828-.646,3.062,3.062,0,0,1-1.1-.971,2.319,2.319,0,0,1-.378-1.31,2.628,2.628,0,0,1,1.081-2.158,4.453,4.453,0,0,1,2.83-.848,4.934,4.934,0,0,1,3.023.853,2.666,2.666,0,0,1,1.143,2.241h-2.971q0-1.143-1.2-1.143a1.194,1.194,0,0,0-.782.259.8.8,0,0,0-.316.646.737.737,0,0,0,.387.642,3.654,3.654,0,0,0,1.235.4,10.671,10.671,0,0,1,1.49.378,2.706,2.706,0,0,1,2.145,2.646,2.491,2.491,0,0,1-1.156,2.118,5.068,5.068,0,0,1-2.993.817,5.172,5.172,0,0,1-2.18-.439,3.645,3.645,0,0,1-1.494-1.2,2.707,2.707,0,0,1-.536-1.591H174.2a1.145,1.145,0,0,0,.439.962,1.808,1.808,0,0,0,1.081.3,1.422,1.422,0,0,0,.91-.246A.787.787,0,0,0,176.932,16.328Zm7.69-9.2V9.49h1.564v2.057h-1.564V15.9a1.111,1.111,0,0,0,.193.747,1.037,1.037,0,0,0,.765.211,4.345,4.345,0,0,0,.738-.053v2.118a5.466,5.466,0,0,1-1.67.255,3.1,3.1,0,0,1-2.259-.721,2.954,2.954,0,0,1-.729-2.188v-4.72h-1.213V9.49h1.213V7.126Zm2.355,7.031a5.613,5.613,0,0,1,.554-2.536,3.96,3.96,0,0,1,1.591-1.709,4.791,4.791,0,0,1,2.435-.6,4.373,4.373,0,0,1,3.366,1.323,5.076,5.076,0,0,1,1.23,3.6v.105a4.925,4.925,0,0,1-1.235,3.529,4.384,4.384,0,0,1-3.344,1.305,4.434,4.434,0,0,1-3.261-1.217,4.761,4.761,0,0,1-1.327-3.3Zm2.962.185a3.538,3.538,0,0,0,.413,1.934,1.376,1.376,0,0,0,1.222.615q1.582,0,1.617-2.435v-.3q0-2.558-1.635-2.558-1.485,0-1.608,2.206ZM191.961,5.5h3.129l-2.443,2.76-2.417,0Zm11.25,6.671-.976-.07a1.752,1.752,0,0,0-1.793.879V19h-2.962V9.49h2.777l.1,1.222a2.294,2.294,0,0,1,2.083-1.4,2.888,2.888,0,0,1,.826.105ZM207.4,19h-2.971V9.49H207.4ZM204.257,7.038A1.322,1.322,0,0,1,204.714,6a1.943,1.943,0,0,1,2.373,0,1.322,1.322,0,0,1,.457,1.037,1.322,1.322,0,0,1-.457,1.037,1.943,1.943,0,0,1-2.373,0A1.322,1.322,0,0,1,204.257,7.038Zm8.991,9.853a1.317,1.317,0,0,0,.967-.338,1.241,1.241,0,0,0,.334-.945h2.777a3.288,3.288,0,0,1-1.121,2.566,4.168,4.168,0,0,1-2.887,1,4.22,4.22,0,0,1-3.27-1.3,5.125,5.125,0,0,1-1.2-3.6v-.123a5.792,5.792,0,0,1,.532-2.544,3.872,3.872,0,0,1,1.534-1.7,4.573,4.573,0,0,1,2.373-.593,4.116,4.116,0,0,1,2.944,1.028,3.647,3.647,0,0,1,1.09,2.786h-2.777a1.626,1.626,0,0,0-.36-1.134,1.244,1.244,0,0,0-.967-.4q-1.151,0-1.345,1.468a10.357,10.357,0,0,0-.062,1.283,4.068,4.068,0,0,0,.343,1.986A1.187,1.187,0,0,0,213.248,16.891Zm4.957-2.733a5.613,5.613,0,0,1,.554-2.536,3.96,3.96,0,0,1,1.591-1.709,4.791,4.791,0,0,1,2.435-.6,4.373,4.373,0,0,1,3.366,1.323,5.076,5.076,0,0,1,1.23,3.6v.105a4.925,4.925,0,0,1-1.235,3.529,4.384,4.384,0,0,1-3.344,1.305,4.434,4.434,0,0,1-3.261-1.217,4.761,4.761,0,0,1-1.327-3.3Zm2.962.185a3.538,3.538,0,0,0,.413,1.934,1.376,1.376,0,0,0,1.222.615q1.582,0,1.617-2.435v-.3q0-2.558-1.635-2.558-1.485,0-1.608,2.206Z" transform="translate(-2104.831 -5377.153)" fill="#12263f"/>
    <g id="Grupo_871461" data-name="Grupo 871461" transform="translate(-2506.058 -7825.602)">
      <g id="Grupo_870715" data-name="Grupo 870715" transform="translate(428.469 2150.231)">
        <g id="Grupo_870714" data-name="Grupo 870714" clip-path="url(#clip-path)">
          <path id="Trazado_215321" data-name="Trazado 215321" d="M19.194,125.641C50.705,99.911-3.863,58.389,8.219,17.32s51.953,1.154,73.407,21.387,46.595-15.966,63.261-16.938,7.287,14.849,14.8,35.343,62.926,3.474,85.14,23.269-13.176,61.918-16.155,87.037,35.281,53.541,10.768,90.822L117.665,257.5c-12.253-3.857-20.248-6.914-20.248-6.914C-16.59,200.163-12.317,151.371,19.194,125.641" transform="translate(0 0)" fill="#fff"/>
        </g>
      </g>
      <path id="Trazado_266092" data-name="Trazado 266092" d="M250.215,583.558c0,3.871-49.95,7.01-111.568,7.01S27.08,587.429,27.08,583.558s49.979-4.323,111.6-4.323,111.539.452,111.539,4.323" transform="translate(428.299 1828.516)" fill="#003b73" opacity="0.496"/>
    </g>
    <g id="Grupo_871560" data-name="Grupo 871560" transform="translate(-2066.846 -5680.94)">
      <g id="Grupo_871559" data-name="Grupo 871559" clip-path="url(#clip-path-2)">
        <path id="Trazado_266093" data-name="Trazado 266093" d="M0,0H222.262V195.465H0Z" transform="translate(40.282 0.174)" fill="#e8e8e8"/>
        <g id="Grupo_871544" data-name="Grupo 871544">
          <g id="Grupo_871543" data-name="Grupo 871543" clip-path="url(#clip-path-2)">
            <path id="Trazado_265961" data-name="Trazado 265961" d="M282.316,195.64c0-1.242-.059-77.817-.147-195.465l.147.148L60.073.349h-.02l.175-.175c-.008,71.039-.015,137.93-.021,195.465l-.154-.154,222.262.154-222.262.154H59.9v-.154C59.893,138.1,59.886,71.213,59.879.174V0h.194L282.316.027h.147V.174c-.088,117.648-.147,194.224-.147,195.465" transform="translate(-19.772)" fill="#263238"/>
            <path id="Trazado_265962" data-name="Trazado 265962" d="M131.428,73.4V108.46h42.611V73.4a3.021,3.021,0,0,0-3.021-3.021H134.45a3.021,3.021,0,0,0-3.022,3.021" transform="translate(-43.396 -23.24)" fill="#636363"/>
            <path id="Trazado_265963" data-name="Trazado 265963" d="M118.645,151.554l9.518-26.179,41.649,1.243L163.6,150.5a2.112,2.112,0,0,1-2.088,1.579l-10.788-.229-1.77,2.515a2.378,2.378,0,0,1-2.045,1.007l-26.069-1.1a2.344,2.344,0,0,1-2.2-2.713" transform="translate(-39.169 -41.398)" fill="#636363"/>
            <path id="Trazado_265964" data-name="Trazado 265964" d="M134.836,79.592v27.435l37.452,2.062-.165-29.5Z" transform="translate(-44.522 -26.281)" fill="#f5f5f5"/>
            <path id="Trazado_265965" data-name="Trazado 265965" d="M134.766,79.514a1.022,1.022,0,0,1,.167-.009l.51-.009,2.005-.019,7.615-.042,26.99-.078h.156v.157c.053,8.552.113,18.286.177,28.573,0,.311,0,.622.005.924v.186l-.185-.011-37.45-2.094-.134-.008v-.133c.025-8.321.046-15.175.061-19.966.017-2.383.031-4.251.041-5.541q.015-.934.023-1.447c.007-.324.017-.482.017-.482s.01.179.017.509.013.825.023,1.449c.009,1.282.023,3.141.041,5.511.015,4.79.035,11.645.061,19.966l-.133-.141,37.454,2.029-.184.175c0-.3,0-.613,0-.924-.052-10.286-.1-20.021-.143-28.573l.157.156-26.887-.078-7.651-.042-2.036-.019-.528-.009a1.523,1.523,0,0,1-.185-.009" transform="translate(-44.452 -26.203)" fill="#263238"/>
            <path id="Trazado_265966" data-name="Trazado 265966" d="M137.76,87.42c.033-.914,0-4.837,0-4.837,10.47-.033,22.2.042,32.668.009.293,5.18.354,12.177.648,17.357" transform="translate(-45.487 -27.266)" fill="#ebebeb"/>
            <path id="Trazado_265967" data-name="Trazado 265967" d="M171.026,99.872a1.5,1.5,0,0,1-.044-.327c-.019-.244-.044-.559-.074-.951-.058-.831-.122-2.047-.188-3.581-.143-3.066-.228-7.411-.5-12.489l.162.153-10.066.009c-9.387,0-17.672-.035-22.6-.082l.1-.1c-.019,1.5-.035,2.7-.046,3.567-.01.39-.019.7-.025.946a1.522,1.522,0,0,1-.027.325,1.5,1.5,0,0,1-.027-.327c-.007-.242-.015-.556-.026-.946-.011-.861-.027-2.061-.046-3.563v-.1h.1c4.93-.044,13.215-.072,22.6-.07l10.066.015h.155l.008.153c.251,5.091.291,9.433.378,12.5.04,1.507.072,2.715.1,3.582.009.393.017.708.022.953a1.519,1.519,0,0,1-.009.33" transform="translate(-45.438 -27.187)" fill="#e0e0e0"/>
            <path id="Trazado_265968" data-name="Trazado 265968" d="M126.291,89.932l7.728,22.531h35.448l-5.3-22.653Z" transform="translate(-41.7 -29.654)" fill="#fff"/>
            <path id="Trazado_265969" data-name="Trazado 265969" d="M126.291,89.852a1.27,1.27,0,0,1,.17-.009l.524-.009,2.059-.024,7.791-.068,27.335-.174h.129l.029.126c1.568,6.691,3.29,14.039,5.094,21.734.072.308.144.616.214.916l.05.215h-.22l-35.448-.035h-.1l-.031-.094-5.575-16.5c-.65-1.942-1.159-3.462-1.512-4.515q-.249-.755-.388-1.172c-.086-.263-.121-.393-.121-.393s.058.145.155.416l.423,1.192,1.589,4.529,5.69,16.349-.131-.094,35.448-.036-.169.214c-.07-.3-.142-.608-.214-.916-1.8-7.7-3.509-15.046-5.07-21.739l.158.125H136.964l-7.837-.017-2.1-.011-.546-.006a1.832,1.832,0,0,1-.192-.007" transform="translate(-41.7 -29.574)" fill="#263238"/>
            <g id="Grupo_871533" data-name="Grupo 871533" transform="translate(82.634 83.137)" opacity="0.3">
              <g id="Grupo_871532" data-name="Grupo 871532">
                <g id="Grupo_871531" data-name="Grupo 871531" clip-path="url(#clip-path-4)">
                  <path id="Trazado_265970" data-name="Trazado 265970" d="M168.459,124.263a.951.951,0,0,0-.884-.066,139.579,139.579,0,0,0-39.231,17.087l-4.974,5.755c.629.989,1.975,1.164,3.145,1.24l16.7,1.088c3.884.253,7.771.506,11.663.493,2.309-.007,4.836-.2,6.519-1.777a9.275,9.275,0,0,0,2.042-3.482,86.941,86.941,0,0,0,5.172-19.493.946.946,0,0,0-.153-.846" transform="translate(-123.37 -124.121)"/>
                </g>
              </g>
            </g>
            <path id="Trazado_265971" data-name="Trazado 265971" d="M132.942,125.409l-9.91,21.429,37.2.744,8.159-23.952Z" transform="translate(-40.624 -40.822)" fill="#f5f5f5"/>
            <path id="Trazado_265972" data-name="Trazado 265972" d="M132.836,125.325a.867.867,0,0,1,.161-.019l.489-.035,1.916-.119,7.26-.408,25.615-1.357.233-.012-.076.222-8.143,23.958-.04.121-.129,0h-.007l-37.192-.78-.212,0,.089-.191,7.3-15.627,2.015-4.271.531-1.107c.121-.248.189-.366.189-.366s-.052.141-.165.4l-.507,1.138-1.958,4.32-7.155,15.628-.122-.2,37.194.707h.007l-.169.118c2.926-8.574,5.7-16.709,8.173-23.947l.158.209-25.548,1.212-7.289.322-1.941.076-.5.014a1.135,1.135,0,0,1-.176,0" transform="translate(-40.518 -40.737)" fill="#263238"/>
            <path id="Trazado_265973" data-name="Trazado 265973" d="M132.282,123.63l-10.75,11.837,36.955.279,9.243-12.116Z" transform="translate(-40.129 -40.821)" fill="#fafafa"/>
            <path id="Trazado_265974" data-name="Trazado 265974" d="M132.143,123.548a.745.745,0,0,1,.165-.013l.5-.013,1.949-.025,7.335-.048,25.5-.067h.335l-.2.267-9.237,12.121-.053.07h-.087l-1.127-.009-35.828-.319-.283,0,.19-.208,7.924-8.637,2.158-2.328.565-.6a1.673,1.673,0,0,1,.2-.192,1.942,1.942,0,0,1-.182.225l-.548.629-2.119,2.382-7.808,8.685-.092-.21,35.829.222,1.127.009-.14.068,9.251-12.11.131.266-25.438-.067L134.8,123.6l-1.969-.025-.51-.013a.952.952,0,0,1-.177-.013" transform="translate(-39.989 -40.74)" fill="#263238"/>
            <path id="Trazado_265975" data-name="Trazado 265975" d="M134.276,103.352l-3.175-9.89h32.94l4.616,18.083" transform="translate(-43.289 -30.86)" fill="#f5f5f5"/>
            <path id="Trazado_265976" data-name="Trazado 265976" d="M168.569,111.46a1.8,1.8,0,0,1-.113-.334c-.07-.249-.161-.573-.277-.982l-.993-3.709L163.8,93.416l.155.121-12.33.015-20.61-.045.124-.169c.948,3.035,1.721,5.506,2.267,7.249l.6,1.981c.06.21.108.38.147.518a.718.718,0,0,1,.038.181.636.636,0,0,1-.074-.169l-.182-.507-.666-1.96c-.571-1.735-1.381-4.194-2.376-7.214l-.056-.169h.18l20.61-.044,12.33.014h.125l.03.12c1.328,5.31,2.459,9.827,3.265,13.05l.906,3.732c.1.414.17.743.228.994a1.8,1.8,0,0,1,.062.347" transform="translate(-43.2 -30.775)" fill="#263238"/>
            <path id="Trazado_265977" data-name="Trazado 265977" d="M161.047,104.893a5.117,5.117,0,0,0-1.679-1.041,3.991,3.991,0,0,0-3.559,1.067c-.991.828-1.791,1.877-2.845,2.624l11.551.188-3.469-2.838" transform="translate(-50.508 -34.254)" fill="#fff"/>
            <path id="Trazado_265978" data-name="Trazado 265978" d="M172.169,99.785c-.417-.621-1.792-1.393-2.7-.818h0a1.771,1.771,0,0,0-1.145,1.356,2.113,2.113,0,0,0,3.689,1.547,1.79,1.79,0,0,0,.149-2.085" transform="translate(-55.577 -32.611)" fill="#fff"/>
            <path id="Trazado_265979" data-name="Trazado 265979" d="M132.118,118.544l-11.084-10.316,36.277.294,10.42,10.022Z" transform="translate(-39.964 -35.736)" fill="#fafafa"/>
            <path id="Trazado_265980" data-name="Trazado 265980" d="M131.96,118.482a.888.888,0,0,1,.178-.013l.514-.013,1.983-.025,7.4-.048,25.536-.066-.115.287-10.425-10.017.119.049-.673-.005-35.6-.339.086-.215,8.057,7.579,2.188,2.08.566.55a1.77,1.77,0,0,1,.189.2,1.526,1.526,0,0,1-.2-.165l-.58-.518-2.222-2.023-8.164-7.519-.236-.217.322,0,35.606.238.672.005h.07l.05.048,10.413,10.028.3.287h-.414l-25.591-.066-7.385-.048-1.965-.025-.5-.013a.765.765,0,0,1-.167-.013" transform="translate(-39.806 -35.674)" fill="#263238"/>
            <line id="Línea_208" data-name="Línea 208" x2="23.78" transform="translate(90.568 76.458)" fill="#fafafa"/>
            <path id="Trazado_265981" data-name="Trazado 265981" d="M158.994,114.063c0,.1-5.324.174-11.889.174s-11.89-.078-11.89-.174,5.322-.174,11.89-.174,11.889.078,11.889.174" transform="translate(-44.647 -37.605)" fill="#263238"/>
            <line id="Línea_209" data-name="Línea 209" x2="23.78" transform="translate(93.198 78.911)" fill="#fafafa"/>
            <path id="Trazado_265982" data-name="Trazado 265982" d="M162.921,117.725c0,.1-5.324.174-11.889.174s-11.89-.078-11.89-.174,5.322-.174,11.89-.174,11.889.078,11.889.174" transform="translate(-45.943 -38.814)" fill="#263238"/>
            <line id="Línea_210" data-name="Línea 210" x2="23.78" transform="translate(95.561 81.274)" fill="#fafafa"/>
            <path id="Trazado_265983" data-name="Trazado 265983" d="M166.449,121.253c0,.1-5.324.174-11.889.174s-11.89-.078-11.89-.174,5.322-.174,11.89-.174,11.889.078,11.889.174" transform="translate(-47.108 -39.979)" fill="#263238"/>
            <line id="Línea_211" data-name="Línea 211" x2="24.542" transform="translate(91.833 90.75)" fill="#fafafa"/>
            <path id="Trazado_265984" data-name="Trazado 265984" d="M161.646,135.4c0,.1-5.494.174-12.27.174S137.1,135.5,137.1,135.4s5.493-.174,12.272-.174,12.27.078,12.27.174" transform="translate(-45.271 -44.65)" fill="#263238"/>
            <line id="Línea_212" data-name="Línea 212" x2="24.542" transform="translate(94.627 87.957)" fill="#fafafa"/>
            <path id="Trazado_265985" data-name="Trazado 265985" d="M165.816,131.23c0,.1-5.494.174-12.27.174s-12.272-.078-12.272-.174,5.493-.174,12.272-.174,12.27.078,12.27.174" transform="translate(-46.647 -43.274)" fill="#263238"/>
            <path id="Trazado_265986" data-name="Trazado 265986" d="M284.269,30.105c0,.1-49.348.174-110.208.174-60.881,0-110.218-.078-110.218-.174s49.337-.174,110.218-.174c60.86,0,110.208.078,110.208.174" transform="translate(-21.08 -9.883)" fill="#263238"/>
            <path id="Trazado_265987" data-name="Trazado 265987" d="M80.473,15.4a2.281,2.281,0,1,1-2.281-2.281A2.281,2.281,0,0,1,80.473,15.4" transform="translate(-25.065 -4.333)" fill="#ff725e"/>
            <path id="Trazado_265988" data-name="Trazado 265988" d="M91.653,15.4a2.281,2.281,0,1,1-2.281-2.281A2.281,2.281,0,0,1,91.653,15.4" transform="translate(-28.757 -4.333)" fill="#ff725e"/>
            <path id="Trazado_265989" data-name="Trazado 265989" d="M102.833,15.4a2.281,2.281,0,1,1-2.281-2.281,2.281,2.281,0,0,1,2.281,2.281" transform="translate(-32.448 -4.333)" fill="#ff725e"/>
            <path id="Trazado_265990" data-name="Trazado 265990" d="M206.82,19.674l-.008-3.473-1.7,2.861h-.6l-1.695-2.786v3.4h-1.257V13.886h1.108l2.166,3.6,2.133-3.6h1.1l.017,5.788Z" transform="translate(-66.551 -4.585)" fill="#263238"/>
            <path id="Trazado_265991" data-name="Trazado 265991" d="M217.288,15.886l-2.009,4.721a1.837,1.837,0,0,1-1.844,1.4,1.973,1.973,0,0,1-1.24-.405l.472-.918a1.144,1.144,0,0,0,.727.281c.356,0,.554-.157.728-.554l.016-.042-1.926-4.481h1.331l1.249,3.017,1.256-3.017Z" transform="translate(-70.065 -5.245)" fill="#263238"/>
            <path id="Trazado_265992" data-name="Trazado 265992" d="M229.053,14.961v1.53h2.679v1.074h-2.679v2.109h-1.34V13.886h4.374v1.075Z" transform="translate(-75.189 -4.585)" fill="#263238"/>
            <path id="Trazado_265993" data-name="Trazado 265993" d="M235.109,13.531a.737.737,0,0,1,.8-.719.724.724,0,0,1,.8.695.805.805,0,0,1-1.6.025m.157,1.34h1.29v4.448h-1.29Z" transform="translate(-77.631 -4.23)" fill="#263238"/>
            <rect id="Rectángulo_291739" data-name="Rectángulo 291739" width="1.29" height="6.135" transform="translate(160.124 8.953)" fill="#263238"/>
            <path id="Trazado_265994" data-name="Trazado 265994" d="M246.946,18.441H243.58a1.186,1.186,0,0,0,1.274.892,1.5,1.5,0,0,0,1.116-.43l.686.745a2.6,2.6,0,0,1-4.373-1.571,2.264,2.264,0,0,1,2.372-2.29,2.2,2.2,0,0,1,2.316,2.307c0,.1-.017.24-.025.348m-3.382-.753h2.191a1.111,1.111,0,0,0-2.191,0" transform="translate(-80 -5.213)" fill="#263238"/>
            <path id="Trazado_265995" data-name="Trazado 265995" d="M249.924,19.888l.43-.926a3.041,3.041,0,0,0,1.546.43c.6,0,.819-.157.819-.405,0-.727-2.687.017-2.687-1.761,0-.843.761-1.439,2.059-1.439a3.649,3.649,0,0,1,1.711.389l-.429.918a2.553,2.553,0,0,0-1.282-.331c-.579,0-.827.182-.827.413,0,.761,2.687.025,2.687,1.778,0,.827-.77,1.414-2.1,1.414a3.821,3.821,0,0,1-1.926-.48" transform="translate(-82.523 -5.213)" fill="#263238"/>
            <path id="Trazado_265996" data-name="Trazado 265996" d="M344.959,50.795a2.693,2.693,0,0,0,.373-.074,1.284,1.284,0,0,0,.779-.731,1.913,1.913,0,0,0,.086-.8q0-.46-.009-1c0-.726-.01-1.561-.016-2.5s-.009-1.987-.015-3.13c0-.283,0-.586-.009-.869a1.2,1.2,0,0,0-.362-.749,1.176,1.176,0,0,0-.794-.33h-.982l-9.077.026-52.557.051a1.114,1.114,0,0,0-1.107,1.023q0,.949,0,1.894,0,1.9,0,3.776,0,.936,0,1.867a1.431,1.431,0,0,0,.144.814,1.1,1.1,0,0,0,.6.5,1.194,1.194,0,0,0,.4.063h3.2l13.955.01,23.628.038,15.93.056,4.331.033,1.126.017c.254.006.384.018.384.018s-.13.012-.384.018l-1.126.017-4.331.032-15.93.056-23.628.038-13.955.01h-3.2a1.546,1.546,0,0,1-.51-.081,1.45,1.45,0,0,1-.788-.657,1.783,1.783,0,0,1-.19-.985V47.377q0-1.875,0-3.776,0-.956.005-1.92a1.464,1.464,0,0,1,1.454-1.346l52.557.052,9.077.025.987.005a1.359,1.359,0,0,1,.915.388,1.378,1.378,0,0,1,.409.864c.011.313,0,.595,0,.884-.005,1.143-.011,2.188-.015,3.13s-.011,1.774-.016,2.5c0,.361-.006.7-.008,1a1.965,1.965,0,0,1-.109.831,1.307,1.307,0,0,1-.833.739,1,1,0,0,1-.384.04" transform="translate(-92.756 -13.318)" fill="#e0e0e0"/>
            <path id="Trazado_265997" data-name="Trazado 265997" d="M287.231,48.792l.174-.365a1.687,1.687,0,0,0,1.081.379c.567,0,.81-.22.81-.506,0-.8-1.985-.295-1.985-1.512,0-.506.393-.936,1.255-.936a1.929,1.929,0,0,1,1.053.29l-.154.374a1.7,1.7,0,0,0-.9-.267c-.557,0-.8.234-.8.52,0,.8,1.985.3,1.985,1.5,0,.5-.4.932-1.269.932a1.948,1.948,0,0,1-1.255-.412" transform="translate(-94.841 -15.14)" fill="#e0e0e0"/>
            <path id="Trazado_265998" data-name="Trazado 265998" d="M294.04,48.475h-2.012a.839.839,0,0,0,.9.725.926.926,0,0,0,.716-.3l.248.29a1.352,1.352,0,0,1-2.312-.866,1.214,1.214,0,0,1,1.245-1.263,1.2,1.2,0,0,1,1.227,1.277,1.245,1.245,0,0,1-.009.136m-2.012-.323h1.591a.8.8,0,0,0-1.591,0" transform="translate(-96.277 -15.539)" fill="#e0e0e0"/>
            <path id="Trazado_265999" data-name="Trazado 265999" d="M297.965,48.068v1.5h-.427v-.328a.921.921,0,0,1-.815.356c-.562,0-.917-.3-.917-.73,0-.4.257-.725,1-.725h.711v-.089c0-.379-.22-.6-.665-.6a1.258,1.258,0,0,0-.786.267l-.187-.337a1.65,1.65,0,0,1,1.025-.318c.679,0,1.063.328,1.063,1.006m-.449.739v-.346h-.693c-.444,0-.571.173-.571.384,0,.248.206.4.549.4a.72.72,0,0,0,.716-.44" transform="translate(-97.673 -15.539)" fill="#e0e0e0"/>
            <path id="Trazado_266000" data-name="Trazado 266000" d="M301.607,47.061V47.5a.8.8,0,0,0-.1,0,.74.74,0,0,0-.782.838v1.236h-.449V47.084h.43V47.5a.949.949,0,0,1,.9-.44" transform="translate(-99.148 -15.539)" fill="#e0e0e0"/>
            <path id="Trazado_266001" data-name="Trazado 266001" d="M302.711,48.325a1.24,1.24,0,0,1,1.311-1.264,1.108,1.108,0,0,1,1.011.529l-.342.22a.773.773,0,0,0-.674-.356.873.873,0,0,0,0,1.746.773.773,0,0,0,.674-.356l.342.215a1.111,1.111,0,0,1-1.011.534,1.243,1.243,0,0,1-1.311-1.269" transform="translate(-99.953 -15.539)" fill="#e0e0e0"/>
            <path id="Trazado_266002" data-name="Trazado 266002" d="M309.351,47.661v1.427H308.9V47.712c0-.487-.243-.725-.67-.725a.737.737,0,0,0-.786.824v1.277H307V45.615h.449v1.344a1.075,1.075,0,0,1,.875-.374.961.961,0,0,1,1.03,1.076" transform="translate(-101.368 -15.062)" fill="#e0e0e0"/>
            <path id="Trazado_266003" data-name="Trazado 266003" d="M311.442,50.2a.313.313,0,0,1,.319-.318.308.308,0,0,1,.308.318.311.311,0,0,1-.308.323.317.317,0,0,1-.319-.323" transform="translate(-102.836 -16.471)" fill="#e0e0e0"/>
            <path id="Trazado_266004" data-name="Trazado 266004" d="M313.028,50.2a.313.313,0,0,1,.319-.318.308.308,0,0,1,.309.318.312.312,0,0,1-.309.323.317.317,0,0,1-.319-.323" transform="translate(-103.359 -16.471)" fill="#e0e0e0"/>
            <path id="Trazado_266005" data-name="Trazado 266005" d="M314.615,50.2a.313.313,0,0,1,.319-.318.308.308,0,0,1,.309.318.312.312,0,0,1-.309.323.317.317,0,0,1-.319-.323" transform="translate(-103.883 -16.471)" fill="#e0e0e0"/>
            <path id="Trazado_266006" data-name="Trazado 266006" d="M109.647,127.8a2.345,2.345,0,0,1-.191-.425c-.111-.284-.284-.7-.478-1.246-.4-1.087-.941-2.677-1.5-4.675a47.382,47.382,0,0,1-1.8-16.051,34.547,34.547,0,0,1,1.824-8.737,29.187,29.187,0,0,1,3.236-6.531,24.366,24.366,0,0,1,3.105-3.808c.4-.422.756-.7.978-.91a2.275,2.275,0,0,1,.362-.293,2.4,2.4,0,0,1-.313.345c-.207.224-.547.518-.928.952a26.693,26.693,0,0,0-3,3.849,29.953,29.953,0,0,0-3.139,6.5,35.047,35.047,0,0,0-1.78,8.657,49.151,49.151,0,0,0,1.691,15.96c.526,2,1.029,3.6,1.39,4.695.171.522.309.943.416,1.266a2.36,2.36,0,0,1,.125.449" transform="translate(-34.859 -28.107)" fill="#263238"/>
            <path id="Trazado_266007" data-name="Trazado 266007" d="M265.709,79.358v35.056H308.32V79.358a3.021,3.021,0,0,0-3.021-3.022H268.73a3.022,3.022,0,0,0-3.022,3.022" transform="translate(-87.735 -25.206)" fill="#ff725e"/>
            <g id="Grupo_871536" data-name="Grupo 871536" transform="translate(177.974 51.13)">
              <g id="Grupo_871535" data-name="Grupo 871535">
                <g id="Grupo_871534" data-name="Grupo 871534" clip-path="url(#clip-path-5)">
                  <path id="Trazado_266008" data-name="Trazado 266008" d="M265.709,79.358v35.056H308.32V79.358a3.021,3.021,0,0,0-3.021-3.022H268.73a3.022,3.022,0,0,0-3.022,3.022" transform="translate(-265.709 -76.336)" fill="#636363"/>
                </g>
              </g>
            </g>
            <path id="Trazado_266009" data-name="Trazado 266009" d="M268.7,98.416l.283-12.87h37.288v7.343" transform="translate(-88.721 -28.247)" fill="#f5f5f5"/>
            <path id="Trazado_266010" data-name="Trazado 266010" d="M306.254,92.8a2.868,2.868,0,0,1-.033-.5c-.007-.359-.017-.84-.03-1.446-.013-1.294-.031-3.122-.053-5.4l.116.116-21.407.058-15.881-.029.145-.143c-.11,3.857-.2,7.064-.267,9.344-.041,1.1-.074,1.972-.1,2.6-.015.279-.027.5-.037.684a.925.925,0,0,1-.027.234.958.958,0,0,1-.017-.235c0-.18,0-.406-.006-.685,0-.633.01-1.507.017-2.606.035-2.281.084-5.489.143-9.347l0-.142h.143l15.881-.029,21.407.059h.117v.116c-.022,2.275-.04,4.1-.053,5.4-.013.606-.023,1.087-.031,1.446a2.848,2.848,0,0,1-.032.5" transform="translate(-88.709 -28.16)" fill="#263238"/>
            <rect id="Rectángulo_291741" data-name="Rectángulo 291741" width="32.577" height="3.479" transform="translate(182.684 53.82)" fill="#f5f5f5"/>
            <path id="Trazado_266011" data-name="Trazado 266011" d="M272.7,80.266a.655.655,0,0,1,.153-.012l.473-.012,1.847-.023,6.888-.052,23.216-.074h.174v.174c0,1.109,0,2.286,0,3.477-.349.352-.1.1-.184.176h-5.307l-5.074-.005-9.2-.021L272.7,83.819h-.075v-.074q.027-1.681.041-2.61c.007-.273.013-.488.017-.657a1.119,1.119,0,0,1,.015-.212,1.747,1.747,0,0,1,.015.238c0,.172.01.394.017.673q.014.912.042,2.567l-.074-.074L285.7,83.6l9.2-.021,5.074-.005h5.307c-.075.077.183-.172-.165.173,0-1.191,0-2.368,0-3.477l.173.173-23.09-.074-6.928-.052-1.887-.024-.495-.011a1.113,1.113,0,0,1-.177-.012" transform="translate(-90.02 -26.446)" fill="#263238"/>
            <path id="Trazado_266012" data-name="Trazado 266012" d="M309.109,146.2c0,.1-8.142.174-18.183.174s-18.185-.078-18.185-.174,8.14-.174,18.185-.174,18.183.078,18.183.174" transform="translate(-90.057 -48.215)" fill="#263238"/>
            <path id="Trazado_266013" data-name="Trazado 266013" d="M260.807,94.08l3.277,25.366h42.611V94.881H287.343l-3.754-3.3H263.005a2.216,2.216,0,0,0-2.2,2.5" transform="translate(-86.11 -30.239)" fill="#636363"/>
            <path id="Trazado_266014" data-name="Trazado 266014" d="M301.543,111.255c0,.1-4.667.174-10.422.174s-10.422-.078-10.422-.174,4.666-.174,10.422-.174,10.422.078,10.422.174" transform="translate(-92.684 -36.678)" fill="#263238"/>
            <path id="Trazado_266015" data-name="Trazado 266015" d="M301.543,114.981c0,.1-4.667.174-10.422.174s-10.422-.078-10.422-.174,4.666-.174,10.422-.174,10.422.078,10.422.174" transform="translate(-92.684 -37.908)" fill="#263238"/>
            <path id="Trazado_266016" data-name="Trazado 266016" d="M121.532,193.036v35.056h42.611V193.036a3.021,3.021,0,0,0-3.021-3.021H124.554a3.022,3.022,0,0,0-3.022,3.021" transform="translate(-40.129 -62.741)" fill="#ff725e"/>
            <g id="Grupo_871539" data-name="Grupo 871539" transform="translate(81.403 127.273)">
              <g id="Grupo_871538" data-name="Grupo 871538">
                <g id="Grupo_871537" data-name="Grupo 871537" clip-path="url(#clip-path-6)">
                  <path id="Trazado_266017" data-name="Trazado 266017" d="M121.532,193.036v35.056h42.611V193.036a3.021,3.021,0,0,0-3.021-3.021H124.554a3.022,3.022,0,0,0-3.022,3.021" transform="translate(-121.532 -190.014)" fill="#636363"/>
                </g>
              </g>
            </g>
            <path id="Trazado_266018" data-name="Trazado 266018" d="M124.518,212.094l.283-12.87h37.288v7.343" transform="translate(-41.115 -65.782)" fill="#f5f5f5"/>
            <path id="Trazado_266019" data-name="Trazado 266019" d="M162.077,206.482a2.877,2.877,0,0,1-.033-.5c-.007-.359-.017-.84-.03-1.446-.013-1.294-.031-3.122-.053-5.4l.116.116-21.407.058-15.88-.029.145-.143c-.11,3.857-.2,7.064-.267,9.344-.041,1.1-.074,1.972-.1,2.6-.015.279-.027.5-.037.684a.926.926,0,0,1-.027.234.959.959,0,0,1-.017-.235c0-.18,0-.406-.006-.685,0-.633.01-1.507.017-2.606.035-2.281.084-5.489.143-9.347l0-.142h.143l15.88-.029,21.407.059h.117v.116c-.022,2.275-.04,4.1-.053,5.4-.013.606-.023,1.087-.031,1.446a2.839,2.839,0,0,1-.032.5" transform="translate(-41.103 -65.696)" fill="#263238"/>
            <rect id="Rectángulo_291743" data-name="Rectángulo 291743" width="32.577" height="3.479" transform="translate(86.113 129.963)" fill="#f5f5f5"/>
            <path id="Trazado_266020" data-name="Trazado 266020" d="M128.527,193.945a.657.657,0,0,1,.153-.012l.473-.012L131,193.9l6.888-.052,23.216-.074h.173v.174c0,1.109,0,2.286,0,3.477-.349.352-.1.1-.184.176h-5.307l-5.075-.005-9.194-.021-12.992-.072h-.075v-.074q.027-1.681.042-2.61c.007-.273.013-.488.018-.657a1.087,1.087,0,0,1,.014-.212,1.753,1.753,0,0,1,.015.238c0,.172.01.394.017.673q.014.912.041,2.567l-.074-.074,12.992-.072,9.194-.021,5.075-.005H161.1c-.075.077.183-.172-.165.173,0-1.191,0-2.368,0-3.477l.173.173-23.09-.074-6.928-.052-1.887-.024-.5-.011a1.111,1.111,0,0,1-.177-.012" transform="translate(-42.414 -63.982)" fill="#263238"/>
            <path id="Trazado_266021" data-name="Trazado 266021" d="M164.932,259.875c0,.1-8.142.174-18.183.174s-18.185-.078-18.185-.174,8.14-.174,18.185-.174,18.183.078,18.183.174" transform="translate(-42.451 -85.751)" fill="#263238"/>
            <path id="Trazado_266022" data-name="Trazado 266022" d="M116.63,207.759l3.277,25.366h42.611V208.561H143.166l-3.754-3.3H118.828a2.217,2.217,0,0,0-2.2,2.5" transform="translate(-38.504 -67.775)" fill="#636363"/>
            <path id="Trazado_266023" data-name="Trazado 266023" d="M157.366,224.934c0,.1-4.667.174-10.422.174s-10.422-.078-10.422-.174,4.666-.174,10.422-.174,10.422.078,10.422.174" transform="translate(-45.078 -74.214)" fill="#263238"/>
            <path id="Trazado_266024" data-name="Trazado 266024" d="M157.366,228.659c0,.1-4.667.174-10.422.174s-10.422-.078-10.422-.174,4.666-.174,10.422-.174,10.422.078,10.422.174" transform="translate(-45.078 -75.444)" fill="#263238"/>
            <path id="Trazado_266025" data-name="Trazado 266025" d="M273.616,193.069v35.056h42.61V193.069a3.021,3.021,0,0,0-3.021-3.021H276.638a3.022,3.022,0,0,0-3.021,3.021" transform="translate(-90.346 -62.752)" fill="#ff725e"/>
            <g id="Grupo_871542" data-name="Grupo 871542" transform="translate(183.27 127.295)">
              <g id="Grupo_871541" data-name="Grupo 871541">
                <g id="Grupo_871540" data-name="Grupo 871540" clip-path="url(#clip-path-5)">
                  <path id="Trazado_266026" data-name="Trazado 266026" d="M273.616,193.069v35.056h42.61V193.069a3.021,3.021,0,0,0-3.021-3.021H276.638a3.022,3.022,0,0,0-3.021,3.021" transform="translate(-273.616 -190.047)" fill="#636363"/>
                </g>
              </g>
            </g>
            <path id="Trazado_266027" data-name="Trazado 266027" d="M276.6,212.127l.283-12.87h37.288V206.6" transform="translate(-91.332 -65.793)" fill="#f5f5f5"/>
            <path id="Trazado_266028" data-name="Trazado 266028" d="M314.161,206.514a2.868,2.868,0,0,1-.033-.5c-.007-.359-.017-.84-.03-1.446-.013-1.294-.031-3.122-.053-5.4l.116.116-21.407.058-15.881-.029.145-.143c-.11,3.857-.2,7.064-.267,9.344-.041,1.1-.074,1.972-.1,2.6-.015.279-.027.5-.037.684a.916.916,0,0,1-.028.234.959.959,0,0,1-.017-.235c0-.18,0-.406-.006-.685,0-.633.01-1.507.017-2.606.035-2.281.084-5.489.143-9.347l0-.142h.143L292.754,199l21.407.059h.117v.116c-.022,2.275-.04,4.1-.053,5.4-.013.606-.023,1.087-.031,1.446a2.842,2.842,0,0,1-.032.5" transform="translate(-91.32 -65.707)" fill="#263238"/>
            <rect id="Rectángulo_291745" data-name="Rectángulo 291745" width="32.577" height="3.479" transform="translate(187.98 129.985)" fill="#f5f5f5"/>
            <path id="Trazado_266029" data-name="Trazado 266029" d="M280.611,193.977a.655.655,0,0,1,.153-.012l.473-.011,1.847-.024,6.888-.052,23.216-.074h.174v.174c0,1.109,0,2.286,0,3.477-.349.352-.1.1-.184.176h-5.307l-5.074-.005-9.2-.021-12.992-.072h-.075v-.074q.027-1.681.042-2.61c.007-.273.013-.488.018-.657a1.088,1.088,0,0,1,.014-.212,1.753,1.753,0,0,1,.015.238c0,.172.01.394.017.673q.014.912.042,2.567l-.074-.074,12.992-.072,9.2-.021,5.074-.005h5.307c-.075.077.183-.172-.165.173,0-1.191,0-2.368,0-3.477l.174.173-23.09-.074-6.928-.052L281.283,194l-.5-.011a1.114,1.114,0,0,1-.177-.012" transform="translate(-92.631 -63.992)" fill="#263238"/>
            <path id="Trazado_266030" data-name="Trazado 266030" d="M317.016,259.907c0,.1-8.142.174-18.183.174s-18.185-.078-18.185-.174,8.14-.174,18.185-.174,18.183.078,18.183.174" transform="translate(-92.668 -85.762)" fill="#263238"/>
            <path id="Trazado_266031" data-name="Trazado 266031" d="M268.714,207.791l3.277,25.366H314.6V208.593H295.25l-3.754-3.3H270.912a2.217,2.217,0,0,0-2.2,2.5" transform="translate(-88.721 -67.785)" fill="#636363"/>
            <path id="Trazado_266032" data-name="Trazado 266032" d="M309.45,224.966c0,.1-4.667.174-10.422.174s-10.422-.078-10.422-.174,4.666-.174,10.422-.174,10.422.078,10.422.174" transform="translate(-95.295 -74.224)" fill="#263238"/>
            <path id="Trazado_266033" data-name="Trazado 266033" d="M309.45,228.692c0,.1-4.667.174-10.422.174s-10.422-.078-10.422-.174,4.666-.174,10.422-.174,10.422.078,10.422.174" transform="translate(-95.295 -75.455)" fill="#263238"/>
            <path id="Trazado_266034" data-name="Trazado 266034" d="M101.724,102.368a2.836,2.836,0,0,1-.031-.72,17.814,17.814,0,0,1,.131-1.959,25.056,25.056,0,0,1,4.715-11.944,17.962,17.962,0,0,1,1.243-1.52,2.864,2.864,0,0,1,.514-.5c.046.04-.624.814-1.556,2.168a28.2,28.2,0,0,0-4.672,11.834c-.244,1.626-.284,2.648-.345,2.646" transform="translate(-33.578 -28.304)" fill="#263238"/>
            <path id="Trazado_266035" data-name="Trazado 266035" d="M103.147,106.511c.038.03-.161.349-.513.84L102,108.2l-.383.495-.2.261-.105.133-.054.066-.027.034-.013.017-.007.008,0,0v0l-.266.008h0a5.8,5.8,0,0,1-1.22-2.067,1.983,1.983,0,0,1-.166-.978,10.493,10.493,0,0,0,1.643,2.809h0l-.264.009v0l0,0,.007-.009.013-.017.027-.033.054-.066.106-.132.209-.257c.134-.163.266-.323.4-.482l.691-.8c.4-.451.668-.716.706-.686" transform="translate(-32.865 -35.061)" fill="#263238"/>
            <path id="Trazado_266036" data-name="Trazado 266036" d="M302.46,153.275c0,.1-5.107.174-11.4.174s-11.4-.078-11.4-.174,5.1-.174,11.4-.174,11.4.078,11.4.174" transform="translate(-92.339 -50.553)" fill="#e0e0e0"/>
            <path id="Trazado_266037" data-name="Trazado 266037" d="M311.206,265.924c0,.1-5.106.174-11.4.174s-11.4-.078-11.4-.174,5.1-.174,11.4-.174,11.4.078,11.4.174" transform="translate(-95.227 -87.748)" fill="#e0e0e0"/>
            <path id="Trazado_266038" data-name="Trazado 266038" d="M152.007,267.735c0,.1-5.106.174-11.4.174s-11.4-.078-11.4-.174,5.1-.174,11.4-.174,11.4.078,11.4.174" transform="translate(-42.661 -88.346)" fill="#e0e0e0"/>
          </g>
        </g>
        <g id="Grupo_871558" data-name="Grupo 871558">
          <g id="Grupo_871557" data-name="Grupo 871557" clip-path="url(#clip-path-2)">
            <path id="Trazado_266039" data-name="Trazado 266039" d="M19.893,178.035c-.666,2.953-4.019,4.5-6.08,6.713s-5.1,4.036-8.006,3.172a7.116,7.116,0,0,1-4.172-4.027c-1.929-4.218-1.013-9.171.431-13.58s3.4-8.771,3.486-13.409l9.718,3.26,2.4-2.951s2.713,18.672,2.227,20.822" transform="translate(-0.178 -51.809)" fill="#ffbe9d"/>
            <path id="Trazado_266040" data-name="Trazado 266040" d="M85.959,150.506s5.876,23.546,11.494,27c7.1,4.368,11.254-.826,11.254-.826l11.123-20.355-7.588-1.9-7.394,9.312-5.158-14.1Z" transform="translate(-28.383 -49.408)" fill="#ffbe9d"/>
            <path id="Trazado_266041" data-name="Trazado 266041" d="M72.657,295.438c0,.79.934,12.43.934,12.43a44.843,44.843,0,0,0-1.869,11.266c-.255,10.862-.157,34.249-.157,34.249H83.159l.006-1.317s6.111-40.814,5.9-44.812l-.813-15.17Z" transform="translate(-23.624 -96.443)" fill="#ffbe9d"/>
            <path id="Trazado_266042" data-name="Trazado 266042" d="M49.6,270.088l-19.3,3.263s1.946,5.281,2.086,5.8a30.565,30.565,0,0,1,.967,11.347c-.833,5.831-1.567,12.913-1.2,16.245s3.987,38.411,3.987,38.411l11.5.359,2.792-64.589Z" transform="translate(-10.007 -89.181)" fill="#ffbe9d"/>
            <path id="Trazado_266043" data-name="Trazado 266043" d="M47.022,60.171l-.106,34.751,14.909.711.431-8.452s5.3,1.051,6.662-3.867c.873-3.141.654-27.42.654-27.42Z" transform="translate(-15.491 -18.456)" fill="#ffbe9d"/>
            <path id="Trazado_266044" data-name="Trazado 266044" d="M69.081,55.947c-2.348.672-2.859,4.51-2.859,4.51l-3.683,8.135c-1.876-1.469-4.4-1.384-4.873,1.913-.344,2.383,2.618,2.864,2.618,2.864-1.725,2.935-2.894,5.309-5.405,8.1-2.717,3.021-4.24,3.326-7.188,3.375h-3.25S42.851,79.681,39.9,66.765C36.636,52.437,53.579,54.283,56.72,50.626c5.115-5.957,19.764,3.2,12.361,5.32" transform="translate(-13.039 -16.062)" fill="#263238"/>
            <path id="Trazado_266045" data-name="Trazado 266045" d="M39.4,66.254c-2.746-1.845-2.994-7.006-1.392-10.1a9.947,9.947,0,0,1,8.459-5.26,4.01,4.01,0,0,0,1.382-.155A3.83,3.83,0,0,0,49.33,49.33C51.784,46.138,54.2,43,58.771,43a5.206,5.206,0,0,1,2.876.713A4.519,4.519,0,0,1,63.374,46a9.8,9.8,0,0,1,2.676-.963,3.3,3.3,0,0,1,2.685.655,2.02,2.02,0,0,1,.421,2.571,3.253,3.253,0,0,1,3.247,2.7c.242,1.526-1.944,2.6-2.172,2.717a3.021,3.021,0,0,1-1.661,4.018,3.43,3.43,0,0,1-2.821-.212" transform="translate(-12.221 -14.2)" fill="#263238"/>
            <path id="Trazado_266046" data-name="Trazado 266046" d="M56.256,82.7a7.016,7.016,0,0,1-1.139,5.059c-.1-.05.378-1.115.685-2.5s.342-2.553.454-2.555" transform="translate(-18.195 -27.308)" fill="#455a64"/>
            <path id="Trazado_266047" data-name="Trazado 266047" d="M59.049,80.159A6.34,6.34,0,0,1,58.91,82.7a6.325,6.325,0,0,1-.787,2.419,13.6,13.6,0,0,1,.416-2.489,13.543,13.543,0,0,1,.51-2.471" transform="translate(-19.184 -26.468)" fill="#455a64"/>
            <path id="Trazado_266048" data-name="Trazado 266048" d="M65.346,71.594c.036.05-.386.358-.922.986a9.526,9.526,0,0,0-1.607,2.773,23.268,23.268,0,0,0-.891,3.125,5.261,5.261,0,0,1-.369,1.314,4.677,4.677,0,0,1,.106-1.364,15.326,15.326,0,0,1,.8-3.212A8.1,8.1,0,0,1,64.228,72.4a2.831,2.831,0,0,1,1.119-.8" transform="translate(-20.318 -23.639)" fill="#455a64"/>
            <path id="Trazado_266049" data-name="Trazado 266049" d="M69.578,65.767a1.939,1.939,0,0,1,.289.94,6.253,6.253,0,0,1-1.135,4.526c-.367.489-.666.724-.7.693a12.991,12.991,0,0,0,1.338-2.938,13.016,13.016,0,0,0,.206-3.221" transform="translate(-22.462 -21.716)" fill="#455a64"/>
            <path id="Trazado_266050" data-name="Trazado 266050" d="M42.86,78.2c-.051.091-.507-.067-1.019-.353s-.886-.592-.836-.683.508.067,1.02.353.886.592.835.683" transform="translate(-13.538 -25.471)" fill="#455a64"/>
            <path id="Trazado_266051" data-name="Trazado 266051" d="M53.756,73.185c.1.015.038.751-.426,1.512s-1.082,1.161-1.14,1.08.4-.573.817-1.276.642-1.34.749-1.316" transform="translate(-17.23 -24.165)" fill="#455a64"/>
            <path id="Trazado_266052" data-name="Trazado 266052" d="M56.815,71.41a2.986,2.986,0,0,1-.663,1.806c-.6.907-1.35,1.394-1.407,1.313s.532-.67,1.092-1.522a15.343,15.343,0,0,1,.978-1.6" transform="translate(-18.074 -23.579)" fill="#455a64"/>
            <path id="Trazado_266053" data-name="Trazado 266053" d="M64.476,48.97c-.026.03-.279-.212-.817-.518a5.515,5.515,0,0,0-2.5-.646,6.7,6.7,0,0,0-3.665.985,9.081,9.081,0,0,0-3.122,3.477,15.621,15.621,0,0,0-1.267,3.259l-.06.218-.2-.105a7.431,7.431,0,0,0-3.326-.851,7.859,7.859,0,0,0-2.707.409A11.6,11.6,0,0,0,44.6,56.3a2.3,2.3,0,0,1,.5-.441,6.859,6.859,0,0,1,1.636-.878,7.727,7.727,0,0,1,2.788-.5,7.573,7.573,0,0,1,3.492.841l-.26.114a15.38,15.38,0,0,1,1.285-3.345,9.218,9.218,0,0,1,3.274-3.6,6.806,6.806,0,0,1,3.856-.954,5.306,5.306,0,0,1,2.562.787,3.882,3.882,0,0,1,.573.454c.121.116.178.181.169.19" transform="translate(-14.727 -15.693)" fill="#455a64"/>
            <path id="Trazado_266054" data-name="Trazado 266054" d="M77.18,52.263c-.027-.007.414-.112.855.388a1.483,1.483,0,0,1,.344,1.088,1.693,1.693,0,0,1-.867,1.238,2.459,2.459,0,0,1-1.81.249,5.244,5.244,0,0,1-1.869-.906A18.331,18.331,0,0,0,72,53.068a7.608,7.608,0,0,0-2.2-.775,9.316,9.316,0,0,0-4.5.308,12.289,12.289,0,0,0-3.322,1.689,34.007,34.007,0,0,0-2.652,2.245,3.77,3.77,0,0,1,.589-.735,14.413,14.413,0,0,1,1.906-1.726,11.959,11.959,0,0,1,3.372-1.8,9.436,9.436,0,0,1,4.673-.348,7.833,7.833,0,0,1,2.311.821,17.52,17.52,0,0,1,1.851,1.293,5.05,5.05,0,0,0,1.737.884,2.2,2.2,0,0,0,1.609-.175,1.482,1.482,0,0,0,.79-1.032,1.353,1.353,0,0,0-.249-.971,1.307,1.307,0,0,0-.739-.479" transform="translate(-19.59 -17.095)" fill="#455a64"/>
            <path id="Trazado_266055" data-name="Trazado 266055" d="M27.7,224.007s-.543,14.322,0,18.681-.242,30.675-.242,30.675,20.21,5.884,25.659-1.091c0,0-2.206-31.981-2.424-32.853s-2-22.668-2-22.668Z" transform="translate(-9.067 -71.569)" fill="#263238"/>
            <path id="Trazado_266056" data-name="Trazado 266056" d="M84.266,214.709c1.189,3.7,3.705,17.655,3.705,17.655v36.977s-17.51,6.326-24.485,3.193l-4.324-37.119V216.179l14.4-5.611Z" transform="translate(-19.535 -69.528)" fill="#263238"/>
            <path id="Trazado_266057" data-name="Trazado 266057" d="M69.887,254.2a3.9,3.9,0,0,1-.816-.014c-.523-.03-1.279-.086-2.212-.163l-7.286-.665-7.284-.664-2.208-.2a3.86,3.86,0,0,1-.807-.116,3.939,3.939,0,0,1,.816-.011c.524.013,1.281.048,2.216.1,1.871.106,4.452.3,7.3.569s5.417.548,7.277.76l2.2.267a3.884,3.884,0,0,1,.8.141" transform="translate(-16.27 -83.326)" fill="#455a64"/>
            <path id="Trazado_266058" data-name="Trazado 266058" d="M60.459,253.369c.09-.009.936,7.438,1.89,16.632S64,286.659,63.912,286.669s-.936-7.436-1.889-16.633-1.654-16.657-1.564-16.666" transform="translate(-19.961 -83.66)" fill="#455a64"/>
            <path id="Trazado_266059" data-name="Trazado 266059" d="M58.719,253.067a11.571,11.571,0,0,1-2.049,1.825,11.627,11.627,0,0,1-2.251,1.567,11.543,11.543,0,0,1,2.049-1.825,11.606,11.606,0,0,1,2.251-1.567" transform="translate(-17.968 -83.559)" fill="#455a64"/>
            <path id="Trazado_266060" data-name="Trazado 266060" d="M97.62,235.846a5.819,5.819,0,0,1-1.4-.745,19.392,19.392,0,0,1-5.468-5.291,5.844,5.844,0,0,1-.79-1.372,10.756,10.756,0,0,1,.977,1.235,25.716,25.716,0,0,0,5.411,5.236,10.849,10.849,0,0,1,1.267.936" transform="translate(-29.705 -75.428)" fill="#455a64"/>
            <path id="Trazado_266061" data-name="Trazado 266061" d="M58.132,241.312a1.86,1.86,0,0,1-.3-.476,15.213,15.213,0,0,1-.652-1.38,22.61,22.61,0,0,1-1.717-9.857c.036-.644.088-1.163.147-1.518a1.864,1.864,0,0,1,.119-.549c.054.006-.021.8-.034,2.074a26.921,26.921,0,0,0,1.7,9.764c.444,1.2.782,1.917.733,1.941" transform="translate(-18.304 -75.129)" fill="#455a64"/>
            <path id="Trazado_266062" data-name="Trazado 266062" d="M61.756,151.041c-.177-.531-2.125-11.684-2.125-11.684L73.971,139s-6.294-24.6-9.726-26.411c-5.318-2.813-17.006-3.154-17.006-3.154H32.191S15.55,114.041,12.54,119L1.918,139.423l13.809,5.068,2.395-2.951,2.385,20.831s-1.416,18.765-1.416,21.6.177,4.6.177,4.6,31.283-8.492,38.9-6.014,8.748,4.8,8.748,4.8.687-8.346-1.083-11.533Z" transform="translate(-0.633 -36.136)" fill="#033f71"/>
            <path id="Trazado_266063" data-name="Trazado 266063" d="M23.741,153.433c-.053.007-.194-.993-.514-2.587a47.2,47.2,0,0,0-1.67-6.119,51.556,51.556,0,0,0-2.476-5.843l-.871-1.72a2.975,2.975,0,0,1-.295-.646,2.966,2.966,0,0,1,.405.584c.245.386.577.957.967,1.676a40.662,40.662,0,0,1,2.579,5.842,37.853,37.853,0,0,1,1.589,6.185c.131.807.218,1.463.255,1.918a3,3,0,0,1,.031.711" transform="translate(-5.914 -45.077)" fill="#263238"/>
            <path id="Trazado_266064" data-name="Trazado 266064" d="M62.026,173.485a1.191,1.191,0,0,1-.08.309l-.29.866c-.126.376-.289.833-.5,1.355s-.433,1.125-.729,1.771c-.557,1.305-1.3,2.827-2.191,4.478a60.72,60.72,0,0,1-3.221,5.187,60.425,60.425,0,0,1-3.77,4.8c-1.244,1.406-2.42,2.622-3.456,3.593-.506.5-.995.915-1.414,1.291s-.792.688-1.1.936l-.714.569a1.158,1.158,0,0,1-.263.181c-.007-.009.069-.088.221-.232l.673-.614c.3-.262.657-.585,1.062-.975s.883-.814,1.376-1.322c1.011-.988,2.164-2.215,3.389-3.624s2.489-3.032,3.73-4.794,2.305-3.52,3.225-5.145c.9-1.634,1.662-3.137,2.244-4.425.307-.637.545-1.23.77-1.746s.407-.963.551-1.332l.347-.843a1.192,1.192,0,0,1,.142-.287" transform="translate(-14.626 -57.283)" fill="#263238"/>
            <path id="Trazado_266065" data-name="Trazado 266065" d="M87.837,128.619c.06.015-.165.987-.332,2.587a52.121,52.121,0,0,0-.186,6.282c.059,2.458.212,4.681.344,6.289q.092,1.122.157,1.9a3.121,3.121,0,0,1,.026.7,2.751,2.751,0,0,1-.153-.688c-.075-.446-.166-1.094-.261-1.9-.191-1.605-.382-3.834-.441-6.3a40.845,40.845,0,0,1,.282-6.317,18.292,18.292,0,0,1,.358-1.886,2.9,2.9,0,0,1,.2-.674" transform="translate(-28.718 -42.469)" fill="#263238"/>
            <g id="Grupo_871547" data-name="Grupo 871547" transform="translate(13.924 95.52)" opacity="0.3">
              <g id="Grupo_871546" data-name="Grupo 871546">
                <g id="Grupo_871545" data-name="Grupo 871545" clip-path="url(#clip-path-9)">
                  <path id="Trazado_266066" data-name="Trazado 266066" d="M20.788,142.608s.893,8.563,1.169,12.836l2.395-2.95S22,143.68,20.788,142.608" transform="translate(-20.788 -142.608)"/>
                </g>
              </g>
            </g>
            <g id="Grupo_871550" data-name="Grupo 871550" transform="translate(31.759 119.727)" opacity="0.3">
              <g id="Grupo_871549" data-name="Grupo 871549">
                <g id="Grupo_871548" data-name="Grupo 871548" clip-path="url(#clip-path-10)">
                  <path id="Trazado_266067" data-name="Trazado 266067" d="M51.677,184.778a47.557,47.557,0,0,0-4.262,8.706,38.615,38.615,0,0,0,11.094-14.735,14.566,14.566,0,0,0-6.832,6.03" transform="translate(-47.415 -178.748)"/>
                </g>
              </g>
            </g>
            <path id="Trazado_266068" data-name="Trazado 266068" d="M4.427,195.58a1.134,1.134,0,0,1-1.414-.977L.02,166.3A3.5,3.5,0,0,1,2.6,162.55l14.942-4.015,2.494,21.785-1.111,11.472Z" transform="translate(0 -52.347)" fill="#636363"/>
            <g id="Grupo_871553" data-name="Grupo 871553" transform="translate(16.971 106.188)" opacity="0.3">
              <g id="Grupo_871552" data-name="Grupo 871552">
                <g id="Grupo_871551" data-name="Grupo 871551" clip-path="url(#clip-path-11)">
                  <path id="Trazado_266069" data-name="Trazado 266069" d="M27.292,191.792c-.922-1.794-.565-3.912-.356-5.918.965-9.255-3.035-18.252-1.028-27.339,0,0,2.049,17.317,2.494,21.785Z" transform="translate(-25.337 -158.535)"/>
                </g>
              </g>
            </g>
            <path id="Trazado_266070" data-name="Trazado 266070" d="M18.793,162.341a2.323,2.323,0,0,1-.435.148l-1.266.357L12.419,164.1l-3.23.849-1.8.47a5.28,5.28,0,0,0-1.788.673A4.61,4.61,0,0,0,4.207,167.5a3.274,3.274,0,0,0-.538,1.955c.083,1.467.168,2.985.256,4.54.325,6.205.62,11.821.835,15.935.089,2.009.161,3.649.213,4.832.017.542.03.979.041,1.315a2.243,2.243,0,0,1-.01.459,2.28,2.28,0,0,1-.06-.455c-.027-.335-.062-.77-.106-1.311-.079-1.181-.189-2.819-.324-4.826-.242-4.114-.572-9.73-.937-15.935-.085-1.555-.169-3.074-.249-4.542a3.611,3.611,0,0,1,.6-2.143,4.926,4.926,0,0,1,1.5-1.508,4.161,4.161,0,0,1,.934-.448c.334-.109.638-.168.951-.252l1.8-.453,3.241-.807,4.7-1.145,1.282-.294a2.293,2.293,0,0,1,.453-.08" transform="translate(-1.097 -53.603)" fill="#263238"/>
            <path id="Trazado_266071" data-name="Trazado 266071" d="M23.628,179.818a6.664,6.664,0,0,1-1.466.55c-.92.292-2.2.659-3.632,1.016s-2.735.634-3.685.808a6.7,6.7,0,0,1-1.553.2,7.341,7.341,0,0,1,1.5-.444l3.652-.906,3.649-.916a7.354,7.354,0,0,1,1.533-.312" transform="translate(-4.389 -59.371)" fill="#263238"/>
            <path id="Trazado_266072" data-name="Trazado 266072" d="M25.978,183.491a11.591,11.591,0,0,1-3.093,1.087,11.549,11.549,0,0,1-3.238.517,23.412,23.412,0,0,1,3.152-.855,23.227,23.227,0,0,1,3.178-.749" transform="translate(-6.488 -60.583)" fill="#263238"/>
            <path id="Trazado_266073" data-name="Trazado 266073" d="M116.78,179.853a30.083,30.083,0,0,0-1.025-4.637c-.858-2.48-1.845-4.4-1.735-4.448a5.267,5.267,0,0,1,.725,1.209,22.813,22.813,0,0,1,1.34,3.128,14.381,14.381,0,0,1,.716,3.334,4.237,4.237,0,0,1-.021,1.413" transform="translate(-37.645 -56.386)" fill="#eb996e"/>
            <path id="Trazado_266074" data-name="Trazado 266074" d="M124.749,148.037s-1.45-8.985-.7-10.4l5.908-7.344a3.337,3.337,0,0,1,.585,2.627,14.172,14.172,0,0,1-1.737,2.96s3.353-.087,4.324,1.121a6.052,6.052,0,0,1,.638,2.445,1.431,1.431,0,0,1-.319,1.027l-.842,1.04c1.644,6.947-.443,8.617-.443,8.617Z" transform="translate(-40.889 -43.02)" fill="#ffbe9d"/>
            <path id="Trazado_266075" data-name="Trazado 266075" d="M134.208,139c.025.042-.157.2-.431.455a3.017,3.017,0,0,0-.831,1.134,8.349,8.349,0,0,0-.4,1.405c-.074.368-.037.587-.084.606s-.177-.224-.162-.629a4.677,4.677,0,0,1,.319-1.508,2.558,2.558,0,0,1,1-1.2c.328-.221.563-.3.586-.263" transform="translate(-43.684 -45.894)" fill="#eb996e"/>
            <path id="Trazado_266076" data-name="Trazado 266076" d="M123.207,143.658c.012-.249-.208-.039-.429.078a1.833,1.833,0,0,0-.577.767,5.436,5.436,0,0,0-.074,3.115c.3,1.384,1.126,2.173,1.834,3.4" transform="translate(-40.262 -47.396)" fill="#ffbe9d"/>
            <path id="Trazado_266077" data-name="Trazado 266077" d="M130.656,138.47c.087.085-.605.7-1.195,1.577a3.355,3.355,0,0,0-.486,1.242c-.055.341-.032.565-.084.576s-.156-.206-.162-.593a2.651,2.651,0,0,1,.437-1.411,4.648,4.648,0,0,1,.977-1.076c.285-.232.481-.349.513-.315" transform="translate(-42.505 -45.72)" fill="#eb996e"/>
            <path id="Trazado_266078" data-name="Trazado 266078" d="M124.522,148.968a3.773,3.773,0,0,1-.3-1.066c-.142-.664-.332-1.587-.461-2.624a8.987,8.987,0,0,1,.092-3.769c.093.013-.034,1.681.255,3.726a22.511,22.511,0,0,1,.412,3.733" transform="translate(-40.823 -46.725)" fill="#eb996e"/>
            <path id="Trazado_266079" data-name="Trazado 266079" d="M137.181,140.508a2.422,2.422,0,0,1,.419.97,8.145,8.145,0,0,1,.255,1.121,2.419,2.419,0,0,1-.161,1.451,1.6,1.6,0,0,1-.5.622,1.264,1.264,0,0,1-.354.178.506.506,0,0,1-.243.018.347.347,0,0,1-.234-.17,5.039,5.039,0,0,1-.3-1.145,2.208,2.208,0,0,1,0-1.059,5.881,5.881,0,0,1,.242,1.011,7.124,7.124,0,0,0,.332,1.027c.017.021.009.02.1,0a1,1,0,0,0,.25-.135,1.3,1.3,0,0,0,.383-.494,2.23,2.23,0,0,0,.159-1.263c-.045-.414-.115-.789-.175-1.1a4.752,4.752,0,0,1-.18-1.029" transform="translate(-44.911 -46.394)" fill="#eb996e"/>
            <path id="Trazado_266080" data-name="Trazado 266080" d="M71.5,381.974v13.295l26.67-.4c-.195-2.7-14.769-7.8-14.769-7.8l.292-5.09Z" transform="translate(-23.608 -126.125)" fill="#ff725e"/>
            <g id="Grupo_871556" data-name="Grupo 871556" transform="translate(51.466 259.685)" opacity="0.6">
              <g id="Grupo_871555" data-name="Grupo 871555">
                <g id="Grupo_871554" data-name="Grupo 871554" clip-path="url(#clip-path-12)">
                  <path id="Trazado_266081" data-name="Trazado 266081" d="M77.6,387.752a1.162,1.162,0,0,0-.734,1.328,1.044,1.044,0,0,0,1.237.783,1.226,1.226,0,0,0,.77-1.41,1.07,1.07,0,0,0-1.372-.664" transform="translate(-76.837 -387.701)" fill="#fff"/>
                </g>
              </g>
            </g>
            <path id="Trazado_266082" data-name="Trazado 266082" d="M71.5,400.694l.041-2.29,25.556.47s1.195.529,1.074,1.417Z" transform="translate(-23.608 -131.55)" fill="#263238"/>
            <path id="Trazado_266083" data-name="Trazado 266083" d="M88.078,389.9c0,.138-.652.21-1.287.664-.646.435-.968,1.038-1.088.985-.121-.025.062-.853.839-1.387s1.563-.389,1.536-.262" transform="translate(-28.287 -128.701)" fill="#263238"/>
            <path id="Trazado_266084" data-name="Trazado 266084" d="M93.651,391.768c.031.133-.529.376-.963.967-.45.576-.553,1.209-.683,1.2-.122.023-.224-.783.329-1.506s1.312-.8,1.317-.666" transform="translate(-30.348 -129.341)" fill="#263238"/>
            <path id="Trazado_266085" data-name="Trazado 266085" d="M96.788,395.672c-.118.031-.309-.655.015-1.415s.928-1.07.985-.957c.076.112-.314.523-.571,1.152s-.3,1.2-.429,1.22" transform="translate(-31.904 -129.857)" fill="#263238"/>
            <path id="Trazado_266086" data-name="Trazado 266086" d="M87.511,384.078c-.053.127-.653-.055-1.388.009-.737.048-1.305.319-1.375.2-.077-.1.475-.618,1.342-.681s1.484.36,1.421.47" transform="translate(-27.981 -126.662)" fill="#263238"/>
            <path id="Trazado_266087" data-name="Trazado 266087" d="M87.548,387.837a1.968,1.968,0,0,0,.058-.812,4.5,4.5,0,0,0-.71-2.1,4.146,4.146,0,0,0-1.049-1.1.909.909,0,0,0-.9-.158,1.02,1.02,0,0,0-.528.875,3.514,3.514,0,0,0,2.356,3.11,3.359,3.359,0,0,0,3.621-1.075,2.432,2.432,0,0,0,.481-.82.893.893,0,0,0,0-.532.63.63,0,0,0-.365-.384,1.136,1.136,0,0,0-.835.082,4.906,4.906,0,0,0-.624.356,5.58,5.58,0,0,0-1.533,1.516,2.115,2.115,0,0,0-.37.713,7.74,7.74,0,0,1,2.042-1.984c.358-.206.829-.5,1.208-.37.167.068.232.263.153.5a2.15,2.15,0,0,1-.422.677,3.044,3.044,0,0,1-3.242.94,3.193,3.193,0,0,1-2.123-2.7.665.665,0,0,1,.316-.575.612.612,0,0,1,.6.119,3.951,3.951,0,0,1,1,.987,4.7,4.7,0,0,1,.782,1.948c.074.5.058.792.09.794" transform="translate(-27.873 -126.662)" fill="#263238"/>
            <path id="Trazado_266088" data-name="Trazado 266088" d="M49.983,381.624l.549,4.136-.367,9.332-12.155.3-.433-9.628.512-4.136Z" transform="translate(-12.408 -126.009)" fill="#ff725e"/>
            <path id="Trazado_266089" data-name="Trazado 266089" d="M47.391,394.389c-.074,0,.1-2.851.391-6.375s.585-6.385.658-6.389-.1,2.85-.391,6.375-.585,6.385-.658,6.389" transform="translate(-15.642 -126.009)" fill="#263238"/>
            <path id="Trazado_266090" data-name="Trazado 266090" d="M50.367,399.411l-12.158.257.01,1.593,12.155-.3Z" transform="translate(-12.616 -131.882)" fill="#263238"/>
            <path id="Trazado_266091" data-name="Trazado 266091" d="M38.153,389.614a1.626,1.626,0,0,1,.311-.492,8.485,8.485,0,0,1,1.084-1.159,8.25,8.25,0,0,1,1.963-1.318,6.474,6.474,0,0,1,7.575,1.4,5.57,5.57,0,0,1,.89,1.322,1.59,1.59,0,0,1,.194.551,12.665,12.665,0,0,0-1.273-1.693,6.471,6.471,0,0,0-4.556-1.869,7.44,7.44,0,0,0-4.624,1.805c-1.017.83-1.512,1.5-1.563,1.454" transform="translate(-12.597 -127.45)" fill="#263238"/>
          </g>
        </g>
      </g>
    </g>
  </g>
</svg>
