<svg xmlns="http://www.w3.org/2000/svg" xmlns:xlink="http://www.w3.org/1999/xlink" width="217.061" height="231.469" viewBox="0 0 217.061 231.469">
  <defs>
    <clipPath id="clip-path">
      <rect id="Rectángulo_291369" data-name="Rectángulo 291369" width="217.061" height="222.333" fill="#fff"/>
    </clipPath>
    <clipPath id="clip-path-2">
      <rect id="Rectángulo_291678" data-name="Rectángulo 291678" width="170.298" height="181.884" fill="none"/>
    </clipPath>
    <clipPath id="clip-path-4">
      <rect id="Rectángulo_291673" data-name="Rectángulo 291673" width="53.751" height="47.138" fill="none"/>
    </clipPath>
    <clipPath id="clip-path-5">
      <rect id="Rectángulo_291674" data-name="Rectángulo 291674" width="20.554" height="13.966" fill="none"/>
    </clipPath>
    <clipPath id="clip-path-6">
      <rect id="Rectángulo_291675" data-name="Rectángulo 291675" width="5.556" height="19.786" fill="none"/>
    </clipPath>
    <clipPath id="clip-path-7">
      <rect id="Rectángulo_291676" data-name="Rectángulo 291676" width="30.787" height="2.663" fill="none"/>
    </clipPath>
  </defs>
  <g id="Grupo_871432" data-name="Grupo 871432" transform="translate(-428.469 -2150.231)">
    <g id="Grupo_870715" data-name="Grupo 870715" transform="translate(428.469 2150.231)">
      <g id="Grupo_870714" data-name="Grupo 870714" clip-path="url(#clip-path)">
        <path id="Trazado_215321" data-name="Trazado 215321" d="M16.525,108.171C43.655,86.019-3.326,50.27,7.076,14.912s44.729.993,63.2,18.413,40.116-13.746,54.465-14.583,6.274,12.785,12.746,30.429,54.177,2.991,73.3,20.033-11.344,53.309-13.909,74.935,30.376,46.1,9.271,78.194L101.3,221.7c-10.55-3.321-17.432-5.953-17.432-5.953C-14.283,172.331-10.6,130.323,16.525,108.171" transform="translate(0 0)" fill="#fff"/>
      </g>
    </g>
    <g id="Grupo_871431" data-name="Grupo 871431">
      <path id="Trazado_265580" data-name="Trazado 265580" d="M219.189,582.957c0,3.333-43.005,6.035-96.055,6.035s-96.054-2.7-96.054-6.035,43.03-3.722,96.079-3.722,96.03.389,96.03,3.722" transform="translate(424.558 1792.709)" fill="#92bfb1" opacity="0.779"/>
      <g id="Grupo_871430" data-name="Grupo 871430" transform="translate(467.441 2190.061)">
        <g id="Grupo_871429" data-name="Grupo 871429" clip-path="url(#clip-path-2)">
          <g id="Grupo_871428" data-name="Grupo 871428">
            <g id="Grupo_871427" data-name="Grupo 871427" clip-path="url(#clip-path-2)">
              <path id="Trazado_265581" data-name="Trazado 265581" d="M61.483,8.8l.933.036A18.038,18.038,0,0,1,79.735,26.109c.363,8.732.653,18.381.414,23.049-.5,9.666-10.227,10.794-10.227,10.794L69.886,63.9c-.058,6.516-1.058,13.672-7.574,13.58l-4.346-1.931A11.755,11.755,0,0,1,46.375,63.781l.033-36.037C45.933,17.669,51.4,8.995,61.483,8.8" transform="translate(-20.6 -3.908)" fill="#ffc09d"/>
              <path id="Trazado_265582" data-name="Trazado 265582" d="M78.872,97.457a23.478,23.478,0,0,1-12.527-4.2s2.71,7.075,12.393,6.58Z" transform="translate(-29.471 -41.424)" fill="#ff9b6c"/>
              <path id="Trazado_265583" data-name="Trazado 265583" d="M97.791,54.512a1.382,1.382,0,0,1-1.386,1.342,1.321,1.321,0,0,1-1.375-1.3,1.383,1.383,0,0,1,1.384-1.342,1.322,1.322,0,0,1,1.377,1.3" transform="translate(-42.212 -23.636)" fill="#263238"/>
              <path id="Trazado_265584" data-name="Trazado 265584" d="M97.963,47.055c-.178.173-1.194-.642-2.681-.7-1.484-.075-2.6.647-2.758.459-.076-.083.111-.4.6-.729a3.793,3.793,0,0,1,2.217-.59,3.642,3.642,0,0,1,2.125.778c.444.368.586.7.5.778" transform="translate(-41.092 -20.209)" fill="#263238"/>
              <path id="Trazado_265585" data-name="Trazado 265585" d="M74.638,53.923a1.382,1.382,0,0,1-1.386,1.341,1.322,1.322,0,0,1-1.376-1.3,1.384,1.384,0,0,1,1.385-1.342,1.323,1.323,0,0,1,1.376,1.3" transform="translate(-31.928 -23.374)" fill="#263238"/>
              <path id="Trazado_265586" data-name="Trazado 265586" d="M71.662,46.531c-.178.173-1.2-.641-2.681-.7-1.483-.074-2.6.648-2.758.459-.076-.084.109-.4.6-.729a3.794,3.794,0,0,1,2.217-.59,3.644,3.644,0,0,1,2.125.779c.442.368.585.7.5.777" transform="translate(-29.409 -19.977)" fill="#263238"/>
              <path id="Trazado_265587" data-name="Trazado 265587" d="M84.781,58.067a9.8,9.8,0,0,1,2.431-.342c.381-.024.743-.086.817-.342a1.935,1.935,0,0,0-.21-1.135q-.482-1.4-1.01-2.934c-1.4-4.175-2.395-7.6-2.227-7.656s1.44,3.285,2.837,7.459q.5,1.544.962,2.949a2.2,2.2,0,0,1,.139,1.5.952.952,0,0,1-.645.53,2.539,2.539,0,0,1-.648.064,9.726,9.726,0,0,1-2.447-.091" transform="translate(-37.563 -20.281)" fill="#263238"/>
              <path id="Trazado_265588" data-name="Trazado 265588" d="M71.678,36.343c-.162.4-1.639.149-3.39.291-1.755.107-3.18.563-3.4.192-.1-.177.163-.548.747-.917a5.915,5.915,0,0,1,5.172-.368c.63.283.94.612.869.8" transform="translate(-28.816 -15.597)" fill="#263238"/>
              <path id="Trazado_265589" data-name="Trazado 265589" d="M97.605,39.211c-.275.327-1.284-.063-2.515-.127-1.228-.108-2.283.138-2.508-.225-.1-.175.078-.507.546-.808a3.644,3.644,0,0,1,4.048.283c.421.364.551.716.429.876" transform="translate(-41.113 -16.688)" fill="#263238"/>
              <path id="Trazado_265590" data-name="Trazado 265590" d="M77.137,20.723s-2.315-6.155-5.18-7.682c-3.47-1.848-5.143,1.973-8.474.9s-6.644-2.846-10.188-.375c-3.879,2.7-2.192,4.773-2.591,9.055-1.62,17.36-4.988,22.156-5.574,13.926-.064-.9-2.528-1.712-2.75-5.52-.287-4.937-.245-10.916.989-14.363,1.04-2.906,2.8-4.873,5.891-7,4.885-3.353,11.411-3.175,15.822-2.557s12.753,6.047,12.055,13.614" transform="translate(-18.76 -2.999)" fill="#263238"/>
              <path id="Trazado_265591" data-name="Trazado 265591" d="M43.28,57.816a2.626,2.626,0,0,0-2.736-2.639c-1.81.1-3.857,1.047-3.883,4.779-.046,6.62,6.61,5.3,6.622,5.111.009-.129,0-4.48,0-7.25" transform="translate(-16.285 -24.508)" fill="#ffc09d"/>
              <path id="Trazado_265592" data-name="Trazado 265592" d="M43.669,64.281c-.029-.021-.116.08-.312.168a1.152,1.152,0,0,1-.862.012,2.852,2.852,0,0,1-1.3-2.569,3.808,3.808,0,0,1,.334-1.649,1.333,1.333,0,0,1,.874-.879.587.587,0,0,1,.679.321c.087.186.044.317.079.329.018.017.142-.11.091-.384a.735.735,0,0,0-.257-.416.87.87,0,0,0-.637-.173,1.621,1.621,0,0,0-1.212,1.018,3.915,3.915,0,0,0-.412,1.842,2.994,2.994,0,0,0,1.662,2.871A1.237,1.237,0,0,0,43.45,64.6c.206-.162.242-.31.219-.322" transform="translate(-18.093 -26.223)" fill="#ff9b6c"/>
              <path id="Trazado_265593" data-name="Trazado 265593" d="M79.024,10.743c-.937-.858-2.316-1.1-3.245-1.966C74.087,7.2,74.317,4.011,72.253,2.971c-1.223-.616-2.712-.147-4.055-.419-2.172-.44-2.86-2.18-6.193-2.511A6.077,6.077,0,0,0,55.975,2.7a5.013,5.013,0,0,0-5.03-.012,5.576,5.576,0,0,0-2.473,3.779s-.653-.411-2.89,1.029a10.9,10.9,0,0,0-3.356,4.634c-.948,2.337-.148,4.978.655,7.368.435,1.294.99,2.726,2.235,3.284,1.52.68,3.365-.38,4.127-1.86s1.882-2.934,2.77-4.342c1.541-2.443,3.1-4.711,2.168-6.461a7.528,7.528,0,0,1,4.628.419c1.458.645,2.681,1.739,4.126,2.413s3.346.826,4.483-.293a3.239,3.239,0,0,0,4.831,1.547,4.522,4.522,0,0,0,5.73,2.23c2.053-.983,2.725-4.16,1.045-5.7" transform="translate(-18.565 0)" fill="#263238"/>
              <path id="Trazado_265594" data-name="Trazado 265594" d="M42.827,32.2a8.032,8.032,0,0,1,.616,1.577,3.242,3.242,0,0,0,.954,1.434,2.886,2.886,0,0,0,2.014.432A4.964,4.964,0,0,0,48.461,35a7.9,7.9,0,0,0,1.4-1.114,10.064,10.064,0,0,1,1.222-1.173,5.722,5.722,0,0,1-1.022,1.366,7.031,7.031,0,0,1-1.417,1.231,5.021,5.021,0,0,1-2.2.723,3.148,3.148,0,0,1-2.273-.539,3.331,3.331,0,0,1-.993-1.626,6.67,6.67,0,0,1-.353-1.67" transform="translate(-19.02 -14.301)" fill="#455a64"/>
              <path id="Trazado_265595" data-name="Trazado 265595" d="M42.394,39.043a5.441,5.441,0,0,0,1.23.845,3.709,3.709,0,0,0,1.556.287,4.508,4.508,0,0,0,1.872-.514A9.059,9.059,0,0,0,49.777,37.3a7.232,7.232,0,0,1,1.015-1.158,5.219,5.219,0,0,1-.8,1.328,8.016,8.016,0,0,1-2.766,2.546,4.58,4.58,0,0,1-2.045.525,3.68,3.68,0,0,1-1.681-.4c-.894-.471-1.149-1.09-1.111-1.1" transform="translate(-18.83 -16.052)" fill="#455a64"/>
              <path id="Trazado_265596" data-name="Trazado 265596" d="M42.171,45.729a6.183,6.183,0,0,0,1.236.663,4.023,4.023,0,0,0,3.211-.409,9.3,9.3,0,0,0,2.528-2.256,6.157,6.157,0,0,1,.963-1.078,4.72,4.72,0,0,1-.743,1.248,8.03,8.03,0,0,1-2.558,2.431,4.575,4.575,0,0,1-1.9.58,3.645,3.645,0,0,1-1.6-.255c-.871-.367-1.177-.91-1.139-.924" transform="translate(-18.731 -18.944)" fill="#455a64"/>
              <path id="Trazado_265597" data-name="Trazado 265597" d="M76.476,71.606a8.387,8.387,0,0,0-.586,2.175,2.527,2.527,0,0,0,.53,2.008,2.776,2.776,0,0,0,2.034,1.189l.024,0a3.085,3.085,0,0,0,3.281-2.32l.417-1.605c-1.5-.567-5.6-1.332-5.7-1.45" transform="translate(-33.689 -31.808)" fill="#ff9b6c"/>
              <path id="Trazado_265598" data-name="Trazado 265598" d="M79.926,76.477c-.006-.032-.195-.01-.531,0a4.526,4.526,0,0,1-1.39-.124,2.72,2.72,0,0,1-1.6-1.151,3.577,3.577,0,0,1,.04-3.673l-.213.082c1.456.365,2.731.668,3.645.868a6.385,6.385,0,0,0,1.479.25,6.4,6.4,0,0,0-1.416-.5c-.9-.267-2.159-.619-3.61-1L76.2,71.2l-.078.118a3.845,3.845,0,0,0-.019,4.1,2.935,2.935,0,0,0,1.837,1.219,3.851,3.851,0,0,0,1.474,0,1.175,1.175,0,0,0,.513-.16" transform="translate(-33.545 -31.626)" fill="#263238"/>
              <path id="Trazado_265599" data-name="Trazado 265599" d="M228.732,36.388c2.2-1.349,2.77-4.548,1.623-6.857a8.408,8.408,0,0,0-6.168-4.187,11.868,11.868,0,0,0-10.274,3.239c-1.426,1.426-2.592,3.3-4.506,3.932-1.682.559-3.527.005-5.288.207a7.978,7.978,0,0,0-5.645,3.944,17.233,17.233,0,0,0-2.085,6.765c-.288,2.162-.492,4.536-2.018,6.1-1.488,1.52-3.808,1.812-5.646,2.882a7.67,7.67,0,0,0-2.431,10.441c.706,1.063,1.727,2.043,1.792,3.318.059,1.163-.707,2.187-1.075,3.293a5.177,5.177,0,0,0,4.335,6.492c1.51.108,3.139-.457,4.483.238s1.814,2.322,2.656,3.568a6.475,6.475,0,0,0,7.862,2.154c1.12-.529,2.183-1.414,3.417-1.313s2.187,1.169,3.4,1.421c1.584.33,3.109-.818,4.073-2.117s1.644-2.837,2.868-3.9c1.6-1.384,3.832-1.7,5.845-2.36a16.388,16.388,0,0,0,9.589-22.819" transform="translate(-82.253 -11.183)" fill="#263238"/>
              <path id="Trazado_265600" data-name="Trazado 265600" d="M216.918,94.888a4.442,4.442,0,0,0-1.75-1.188l.135-.006a2.653,2.653,0,0,0-.377-.07,1.759,1.759,0,0,0-1.383.151h.013a3.271,3.271,0,0,0-1.81,1.53,3.868,3.868,0,0,0,.4,3.992,2.957,2.957,0,0,0,5.44-.936,3.669,3.669,0,0,0-.665-3.472" transform="translate(-93.887 -41.555)" fill="#455a64"/>
              <path id="Trazado_265601" data-name="Trazado 265601" d="M247.419,98.093l2.934-42.43a3.6,3.6,0,0,0-3.065-3.792l-18.905-5.654c-6.093-.911-10.488,6.451-11.139,12.578-.724,6.806-1.34,15.145-.75,20.273,1.185,10.31,9.593,11.991,9.593,11.991,0-.034-.091,10.48-.208,14.2l-2.508,11.509Z" transform="translate(-96.062 -20.496)" fill="#ae7461"/>
              <path id="Trazado_265602" data-name="Trazado 265602" d="M221.639,81.7a1.314,1.314,0,0,0,1.209,1.379,1.257,1.257,0,0,0,1.4-1.126,1.315,1.315,0,0,0-1.208-1.38,1.258,1.258,0,0,0-1.406,1.127" transform="translate(-98.451 -35.786)" fill="#263238"/>
              <path id="Trazado_265603" data-name="Trazado 265603" d="M221.044,74.6c.155.178,1.182-.515,2.6-.451,1.412.044,2.418.816,2.579.65.079-.073-.074-.39-.511-.738a3.606,3.606,0,0,0-2.055-.731,3.461,3.461,0,0,0-2.075.572c-.449.315-.61.618-.532.7" transform="translate(-98.18 -32.572)" fill="#263238"/>
              <path id="Trazado_265604" data-name="Trazado 265604" d="M244.582,83.474a1.314,1.314,0,0,0,1.209,1.379,1.258,1.258,0,0,0,1.4-1.126,1.315,1.315,0,0,0-1.208-1.38,1.258,1.258,0,0,0-1.406,1.127" transform="translate(-108.642 -36.576)" fill="#263238"/>
              <path id="Trazado_265605" data-name="Trazado 265605" d="M246.017,76.15c.156.178,1.184-.515,2.6-.45,1.412.044,2.418.815,2.579.649.078-.073-.072-.39-.511-.738a3.61,3.61,0,0,0-2.055-.732,3.469,3.469,0,0,0-2.075.572c-.448.315-.609.619-.533.7" transform="translate(-109.273 -33.26)" fill="#263238"/>
              <path id="Trazado_265606" data-name="Trazado 265606" d="M233.149,86.238a9.375,9.375,0,0,0-2.277-.513c-.36-.053-.7-.139-.748-.388a1.838,1.838,0,0,1,.287-1.059l1.186-2.7c1.65-3.848,2.862-7.019,2.706-7.084s-1.62,3-3.27,6.85q-.6,1.424-1.142,2.72a2.091,2.091,0,0,0-.248,1.408.908.908,0,0,0,.571.553,2.425,2.425,0,0,0,.609.112,9.2,9.2,0,0,0,2.327.1" transform="translate(-101.985 -33.089)" fill="#263238"/>
              <path id="Trazado_265607" data-name="Trazado 265607" d="M233.814,124.442a24.606,24.606,0,0,0,13.256-3.108s-3.077,7.576-13.285,6.177Z" transform="translate(-103.848 -53.897)" fill="#6f4439"/>
              <path id="Trazado_265608" data-name="Trazado 265608" d="M235.93,100.567a3.479,3.479,0,0,1,2.928-1.4,2.264,2.264,0,0,1,1.816,1.092,2.076,2.076,0,0,1-2.461,3.009,5.159,5.159,0,0,1-2.026-1.377,1.605,1.605,0,0,1-.424-.548.72.72,0,0,1,.086-.714" transform="translate(-104.702 -44.048)" fill="#6f4439"/>
              <path id="Trazado_265609" data-name="Trazado 265609" d="M239.67,97.708c-.229-.023-.3,1.511-1.658,2.543s-2.985.793-3.006,1.007c-.026.1.351.314,1.04.362a3.82,3.82,0,0,0,2.506-.754,3.327,3.327,0,0,0,1.292-2.136c.086-.639-.069-1.026-.174-1.022" transform="translate(-104.389 -43.402)" fill="#263238"/>
              <path id="Trazado_265610" data-name="Trazado 265610" d="M245.355,65.895c.123.39,1.541.269,3.191.54,1.655.238,2.971.781,3.206.446.105-.161-.112-.532-.637-.928a5.622,5.622,0,0,0-4.873-.751c-.619.219-.939.507-.887.693" transform="translate(-108.984 -28.85)" fill="#263238"/>
              <path id="Trazado_265611" data-name="Trazado 265611" d="M222.306,65.818c.235.332,1.223.041,2.394.075,1.172-.006,2.153.309,2.4-.017.107-.158-.036-.487-.455-.809a3.468,3.468,0,0,0-3.859-.047c-.428.312-.578.637-.475.8" transform="translate(-98.735 -28.632)" fill="#263238"/>
              <path id="Trazado_265612" data-name="Trazado 265612" d="M205.146,51.235A7.036,7.036,0,0,1,207.9,47.4a26.1,26.1,0,0,0,2.3-1.294c1.5-1.173,1.871-3.249,2.81-4.9a7.738,7.738,0,0,1,5.952-3.824c2.033-.178,4.116.462,6.1-.008,1.468-.347,2.76-1.278,4.246-1.538,2.893-.506,5.546,1.6,7.608,3.7-.023,2.066-1.688,3.423-3.292,4.725a7.164,7.164,0,0,1-5.823,1.446c-1.572-.311-3.289-1.133-4.665-.313-1.448.863-1.54,3.025-2.828,4.112-1.842,1.552-4.713.028-7.033.68-1.791.5-2.93,2.191-4.136,3.608s-3,2.754-4.776,2.2a20.913,20.913,0,0,1,.777-4.748" transform="translate(-90.781 -15.882)" fill="#263238"/>
              <path id="Trazado_265613" data-name="Trazado 265613" d="M244.949,43.571c1.3-.351,3.958-1.151,4.669-2.262a7.91,7.91,0,0,1,6.936-3.852,6.528,6.528,0,0,1,5.8,5.245,9.385,9.385,0,0,1,7.99,5.311,9.736,9.736,0,0,1,.495,1.211,7.139,7.139,0,0,1,.39,6c-.465,1.162-1.246,2.451-.661,3.557.6,1.125,2.141,1.183,3.339,1.616a4.742,4.742,0,0,1,2.909,5.339,5.783,5.783,0,0,0-.411,2.327A5.076,5.076,0,0,0,277.77,70.1a5.9,5.9,0,0,1-3.6,9.553,7.6,7.6,0,0,0-2.723.58c-.922.549-1.338,1.642-1.995,2.49a5.09,5.09,0,0,1-5.54,1.646,4.636,4.636,0,0,1-1.1-.574,3.655,3.655,0,0,1-3.259,1.387l.7-21.6a1.787,1.787,0,0,1-1.324,1.007c-3.478.734-3.881-6.418-3.079-8.343a20.179,20.179,0,0,1-3.425-3.709,14.539,14.539,0,0,1-1.493-7.033c-1.251.055-6.548-1.78-5.978-1.935" transform="translate(-108.788 -16.632)" fill="#263238"/>
              <path id="Trazado_265614" data-name="Trazado 265614" d="M270.653,85.934c.142-2.194,2.835-2.624,4.723-1.5,1.035.619,1.817,1.845,1.687,4.175-.347,6.212-6.512,4.583-6.513,4.4,0-.111-.063-4.514.1-7.083" transform="translate(-120.173 -37.24)" fill="#ae7461"/>
              <path id="Trazado_265615" data-name="Trazado 265615" d="M274.2,92.434c.028-.018.1.082.282.176a1.085,1.085,0,0,0,.808.062,2.681,2.681,0,0,0,1.373-2.333,3.586,3.586,0,0,0-.216-1.566,1.253,1.253,0,0,0-.768-.876.552.552,0,0,0-.655.261c-.093.169-.061.3-.094.3-.018.014-.127-.112-.063-.365a.693.693,0,0,1,.266-.376.818.818,0,0,1,.607-.125,1.524,1.524,0,0,1,1.077,1.027,3.678,3.678,0,0,1,.278,1.752,2.814,2.814,0,0,1-1.729,2.594,1.16,1.16,0,0,1-.98-.22c-.184-.165-.209-.305-.187-.315" transform="translate(-121.799 -38.904)" fill="#6f4439"/>
              <path id="Trazado_265616" data-name="Trazado 265616" d="M260.424,45.673a3.717,3.717,0,0,1,1.225,1.057,5.732,5.732,0,0,1,.394,4.305l-.036.156.153.041a6.011,6.011,0,0,1,3.953,3.587,4.682,4.682,0,0,1,.3,1.521,9.159,9.159,0,0,1-.218,1.64,12.323,12.323,0,0,0-.263,1.765,2.924,2.924,0,0,0,.466,1.841,7.542,7.542,0,0,0,3.05,2.362,10.439,10.439,0,0,1,2.858,1.933,7.767,7.767,0,0,1,2.245,5.242,8.112,8.112,0,0,1-.875,3.829c-.426.843-.778,1.242-.744,1.268.012.01.1-.085.27-.275a6.657,6.657,0,0,0,.624-.913,7.887,7.887,0,0,0,1.035-3.913A7.992,7.992,0,0,0,272.6,65.6a10.7,10.7,0,0,0-2.946-2.03,7.23,7.23,0,0,1-2.88-2.216c-.675-.953-.349-2.181-.152-3.292a9.382,9.382,0,0,0,.217-1.722,5.047,5.047,0,0,0-.339-1.664,6.3,6.3,0,0,0-4.254-3.757l.117.2a5.774,5.774,0,0,0-.561-4.488,2.615,2.615,0,0,0-.961-.807,1.516,1.516,0,0,0-.412-.146" transform="translate(-115.68 -20.287)" fill="#455a64"/>
              <path id="Trazado_265617" data-name="Trazado 265617" d="M273.886,99.49a4.442,4.442,0,0,0-1.75-1.188l.135-.006a2.576,2.576,0,0,0-.377-.07,1.755,1.755,0,0,0-1.383.151h.013a3.268,3.268,0,0,0-1.81,1.53,3.868,3.868,0,0,0,.4,3.992,2.957,2.957,0,0,0,5.44-.936,3.67,3.67,0,0,0-.665-3.472" transform="translate(-119.193 -43.599)" fill="#455a64"/>
              <path id="Trazado_265618" data-name="Trazado 265618" d="M145.691,200.777a5.553,5.553,0,0,1,3.195-.546c1.5.328,6.939,3.876,6.939,3.876l7.568,2.51-3.3,14.143-5.316-2.376-9.083,4.386Z" transform="translate(-64.716 -88.91)" fill="#ae7461"/>
              <path id="Trazado_265619" data-name="Trazado 265619" d="M119.425,203.171a26.59,26.59,0,0,0,5.632-1.271c1.5-.749,5.069-3.917,5.818-3.859s5.119,1.177,5.119,1.177l-2.758,2.683s5.415,3.283,7.028,4.493,6.682,6.624,6.912,7.949a4.1,4.1,0,0,1-.806,3.4c-.634.519-2.938-.518-2.938-.518a2.88,2.88,0,0,1-.518,2.362c-.864,1.152-2.88.749-2.88.749s-.173,1.9-1.094,2.247-3-.691-3-.691-.626,1.613-1.378,1.786-2.884-1.094-2.884-1.094-9.216-6.624-11.29-7.6a10.613,10.613,0,0,0-2.707-1.037Z" transform="translate(-52.275 -87.97)" fill="#ffc09d"/>
              <path id="Trazado_265620" data-name="Trazado 265620" d="M149.46,238.837c-.042,0-.067-.163-.166-.4a7.266,7.266,0,0,0-.462-.92,5.909,5.909,0,0,1-.714-1.313,3.228,3.228,0,0,1,.953,1.175,3.385,3.385,0,0,1,.411,1c.056.281.012.462-.023.459" transform="translate(-65.791 -104.919)" fill="#ff9b6c"/>
              <path id="Trazado_265621" data-name="Trazado 265621" d="M155.492,236.211a14.732,14.732,0,0,1-1.162-1.74c-.63-.959-1.305-1.6-1.257-1.659a4.062,4.062,0,0,1,1.486,1.5,5.568,5.568,0,0,1,.933,1.9" transform="translate(-67.994 -103.413)" fill="#ff9b6c"/>
              <path id="Trazado_265622" data-name="Trazado 265622" d="M162.25,229.826c-.082.021-.338-.977-.975-2.051s-1.37-1.793-1.312-1.854a5.654,5.654,0,0,1,2.288,3.906" transform="translate(-71.054 -100.353)" fill="#ff9b6c"/>
              <path id="Trazado_265623" data-name="Trazado 265623" d="M159.2,220.015a5.194,5.194,0,0,1,.138,3.11,31.558,31.558,0,0,1-.138-3.11" transform="translate(-70.7 -97.731)" fill="#ff9b6c"/>
              <path id="Trazado_265624" data-name="Trazado 265624" d="M135.1,206.009s1.44-4.608,1.959-5.184,6.674-.667,6.674-.667l.154,2.683-1.068,1.13-2.3-.151a3.946,3.946,0,0,1-5.415,2.189" transform="translate(-60.009 -88.911)" fill="#ae7461"/>
              <path id="Trazado_265625" data-name="Trazado 265625" d="M122.594,228.436s-.6.459,0,1.554,2.213.313,2.734,0c0,0-.782,1.825.209,2.4a3.89,3.89,0,0,0,2.19.417,2.13,2.13,0,0,0,1.356,1.825c1.408.73,1.773,0,1.773,0s.159,1.8,1.773,1.981a2.88,2.88,0,0,0,1.735-.175l-.619-.357s1.282-2.858.552-3.692a2.5,2.5,0,0,0-1.929-.73s.319-1.694-.611-2.166a1.711,1.711,0,0,0-2.466.758s-.1-1.856-1.46-1.815a3.017,3.017,0,0,0-2.086.876Z" transform="translate(-54.339 -101.472)" fill="#ae7461"/>
              <path id="Trazado_265626" data-name="Trazado 265626" d="M133.623,231.7a6.863,6.863,0,0,1-1.535,2.609,14.042,14.042,0,0,1,1.535-2.609" transform="translate(-58.671 -102.921)" fill="#6f4439"/>
              <path id="Trazado_265627" data-name="Trazado 265627" d="M139.2,234.32a5.681,5.681,0,0,1-1.579,2.765,54.487,54.487,0,0,1,1.579-2.765" transform="translate(-61.129 -104.085)" fill="#6f4439"/>
              <path id="Trazado_265628" data-name="Trazado 265628" d="M99.161,272.184H90.423l-2.144,30.459,8.926-.172c1.491-4.839,3.712-29.284,3.712-29.284Z" transform="translate(-39.214 -120.905)" fill="#263238"/>
              <path id="Trazado_265629" data-name="Trazado 265629" d="M14.769,272.184S9.177,285.3,9.737,290.6a56.464,56.464,0,0,0,3.21,12.039l44.111-.071a82.274,82.274,0,0,0,1.794-9.6c.932-6.556,3.449-20.784,3.449-20.784Z" transform="translate(-4.308 -120.905)" fill="#263238"/>
              <path id="Trazado_265630" data-name="Trazado 265630" d="M53.122,111.951s5.36,21.853,6.122,26.937c1.4,9.327,6.648,48.6,5.932,52.063s-1.191,7.063-1.191,7.063-43.972-2.768-48.7-2.353-6.732.277-7.878-5.122.034-33.455-.968-40.237-1.011-10.07-1.4-20.147c-.336-8.734,1.651-15.739,5.8-20.795S24.195,99.194,24.195,99.194l3.261-4.757,23.631,11.811.4-3.644.979,5.587Z" transform="translate(-2.223 -41.949)" fill="#455a64"/>
              <g id="Grupo_871417" data-name="Grupo 871417" transform="translate(7.954 88.403)" opacity="0.3">
                <g id="Grupo_871416" data-name="Grupo 871416">
                  <g id="Grupo_871415" data-name="Grupo 871415" clip-path="url(#clip-path-4)">
                    <path id="Trazado_265631" data-name="Trazado 265631" d="M67.961,201.158c-.385-.98-1.631-1.226-2.677-1.342-9.779-1.085-19.958-3.525-27.1-10.293a50.688,50.688,0,0,1-7.121-9.057c-4.641-7.018-9.005-14.215-13.367-21.41l-3.387,1.281a136.888,136.888,0,0,0,7.5,25.841c3.387,8.337,6.01,16.407,14.585,19.134,5.543,1.762,16.07.411,21.868-.043a33.955,33.955,0,0,0,7.184-1.125,4.683,4.683,0,0,0,1.944-.989,1.916,1.916,0,0,0,.565-2" transform="translate(-14.31 -159.056)"/>
                  </g>
                </g>
              </g>
              <path id="Trazado_265632" data-name="Trazado 265632" d="M13.3,117.392C5.676,118.562.154,129.488.991,136.065c.064.512-3.632,46.29,4.49,49.941,6.427,2.89,29.9.707,40.782.083a24.82,24.82,0,0,0,8.7-2.117l6.827-3.048c-.026.04,5.775-1.259,5.775-1.259s1.955-4.624-.413-13.077l-11.1.47-27.7-.021a3.075,3.075,0,0,0-3.474-1.318l2.963-30.561" transform="translate(-0.092 -52.146)" fill="#455a64"/>
              <path id="Trazado_265633" data-name="Trazado 265633" d="M27.755,135.157s-.008.181-.037.532-.078.88-.138,1.565c-.128,1.383-.316,3.414-.559,6.04-.5,5.265-1.225,12.9-2.13,22.434l-.118-.106a3.79,3.79,0,0,1,1.954.057,3.174,3.174,0,0,1,1.626,1.3l-.086-.046,17.974,0c3.252-.007,6.623.016,10.1-.016l10.72-.46.107,0,.029.1a31.111,31.111,0,0,1,1.125,6.415,17.6,17.6,0,0,1-.713,6.754l-.022.066-.077.017-3.046.679-1.54.338-.775.166-.4.079-.027,0a.148.148,0,0,1-.138-.218s-.014.006-.021.008l-.046.021-.091.041-.183.083a28.288,28.288,0,0,0-2.924,1.456,10.95,10.95,0,0,1-1.344.726l-1.44.653a25.644,25.644,0,0,1-6.263,2.025,25.353,25.353,0,0,1-3.324.387l-3.349.212c-7.766.519-15.355,1.058-22.7,1.14a74.028,74.028,0,0,1-10.806-.513,18.819,18.819,0,0,1-2.6-.542,8.611,8.611,0,0,1-1.245-.459,3.693,3.693,0,0,1-1.065-.815,8.177,8.177,0,0,1-1.367-2.222,18.622,18.622,0,0,1-.841-2.419,54.957,54.957,0,0,1-1.531-9.748c-.258-3.189-.371-6.293-.42-9.294-.091-6,.07-11.592.3-16.689.115-2.548.253-4.974.4-7.268.026-.567.1-1.152.078-1.68a11.575,11.575,0,0,1-.061-1.658,16.051,16.051,0,0,1,.423-3.126A22.293,22.293,0,0,1,5.8,121.933a13.769,13.769,0,0,1,5.2-3.943,9.708,9.708,0,0,1,1.635-.5c.38-.069.574-.1.574-.1s-.192.048-.568.126a10.412,10.412,0,0,0-1.618.526,13.854,13.854,0,0,0-5.139,3.962,22.269,22.269,0,0,0-4.564,9.2,15.9,15.9,0,0,0-.407,3.1,11.379,11.379,0,0,0,.064,1.633c.021.586-.048,1.132-.072,1.711-.137,2.294-.268,4.718-.376,7.266C.313,150,.165,155.589.266,161.584c.054,3,.172,6.1.433,9.277a54.856,54.856,0,0,0,1.534,9.7,11.605,11.605,0,0,0,2.151,4.528,3.44,3.44,0,0,0,.985.755,8.459,8.459,0,0,0,1.2.441,18.594,18.594,0,0,0,2.558.532,73.916,73.916,0,0,0,10.762.5c7.336-.086,14.92-.627,22.687-1.146a61.7,61.7,0,0,0,6.64-.594,25.411,25.411,0,0,0,6.213-2.01l1.525-.671a13.479,13.479,0,0,1,1.6-.59,26.116,26.116,0,0,0,2.923-1.155l.181-.079.09-.039.045-.02.011,0,.006,0c-.047-.033.114.071-.105-.076.031.018.1.04.121-.058a.117.117,0,0,0-.122-.089c-.022,0,0,0,0,0l.38-.075.773-.165,1.54-.337,3.046-.676-.1.082a17.388,17.388,0,0,0,.7-6.627,30.864,30.864,0,0,0-1.11-6.358l.136.1-10.725.448c-3.477.028-6.849,0-10.1,0l-17.977-.032h-.056l-.031-.046a2.965,2.965,0,0,0-1.518-1.223,3.593,3.593,0,0,0-1.85-.057l-.132.027.013-.133c.943-9.526,1.7-17.163,2.219-22.426l.611-6.035q.108-1.024.165-1.562c.039-.351.066-.53.066-.53" transform="translate(0 -52.146)" fill="#263238"/>
              <path id="Trazado_265634" data-name="Trazado 265634" d="M67.581,112.341a3.507,3.507,0,0,1-.526-.272l-1.456-.833.1-.045c-.288,1.456-.566,3.6-1.055,6.164l-.032.17-.149-.093c-2.143-1.35-4.713-2.894-7.455-4.551-2.045-1.224-3.957-2.459-5.717-3.528s-3.386-1.976-4.748-2.74l-3.231-1.8-.876-.494a1.73,1.73,0,0,1-.3-.187,1.546,1.546,0,0,1,.323.137l.9.447c.779.4,1.9.98,3.275,1.721s3,1.642,4.785,2.692l5.73,3.51c2.741,1.657,5.308,3.215,7.44,4.586l-.181.077c.51-2.547.825-4.69,1.154-6.143l.022-.094.081.05,1.423.888a3.723,3.723,0,0,1,.489.334" transform="translate(-18.718 -46.257)" fill="#263238"/>
              <g id="Grupo_871420" data-name="Grupo 871420" transform="translate(26.665 59.603)" opacity="0.3">
                <g id="Grupo_871419" data-name="Grupo 871419">
                  <g id="Grupo_871418" data-name="Grupo 871418" clip-path="url(#clip-path-5)">
                    <path id="Trazado_265635" data-name="Trazado 265635" d="M47.976,107.238l12.044,8.974c2.65,1.975,5.363,3.982,8.51,4.992q-.087-4.184-.174-8.37l-1.233,5.875Z" transform="translate(-47.976 -107.238)"/>
                  </g>
                </g>
              </g>
              <path id="Trazado_265636" data-name="Trazado 265636" d="M108.947,220.992a2.126,2.126,0,0,1-.057-.564q-.023-.642-.054-1.537c-.042-1.3-.1-3.089-.26-5.058s-.417-3.743-.651-5.017-.427-2.054-.382-2.066a2.184,2.184,0,0,1,.193.533c.112.347.24.858.389,1.492a37.587,37.587,0,0,1,.739,5.034c.166,1.981.186,3.781.176,5.08-.007.65-.021,1.176-.038,1.54a2.144,2.144,0,0,1-.056.564" transform="translate(-47.768 -91.838)" fill="#263238"/>
              <path id="Trazado_265637" data-name="Trazado 265637" d="M34.32,131.369c-.049.014-.259-.689-.738-1.764a17.538,17.538,0,0,0-5.71-7.051c-.952-.692-1.6-1.044-1.571-1.088a1.783,1.783,0,0,1,.475.2,11.176,11.176,0,0,1,1.213.716,15.635,15.635,0,0,1,5.781,7.14,11.009,11.009,0,0,1,.449,1.336,1.775,1.775,0,0,1,.1.507" transform="translate(-11.682 -53.954)" fill="#263238"/>
              <path id="Trazado_265638" data-name="Trazado 265638" d="M174.829,209.43c-2.294-.5,28,7.485,28.254,7.528l14.385-4.611L205.112,237.9l-34.247-11.4Z" transform="translate(-75.899 -93.019)" fill="#195f9a"/>
              <g id="Grupo_871423" data-name="Grupo 871423" transform="translate(106.985 119.399)" opacity="0.3">
                <g id="Grupo_871422" data-name="Grupo 871422">
                  <g id="Grupo_871421" data-name="Grupo 871421" clip-path="url(#clip-path-6)">
                    <path id="Trazado_265639" data-name="Trazado 265639" d="M198.045,215.512l-2.591-.687L192.489,232.9l5.142,1.712Z" transform="translate(-192.489 -214.825)"/>
                  </g>
                </g>
              </g>
              <path id="Trazado_265640" data-name="Trazado 265640" d="M230.2,144.342l.934-11.758,23.449-8.931.833,4.387-15.974,7.42Z" transform="translate(-102.257 -54.927)" fill="#e0e0e0"/>
              <path id="Trazado_265641" data-name="Trazado 265641" d="M236.608,131.54s5.983,9.38,7.823,16.433c1.981,7.6.266,21.02.266,21.02l-6.753,30.317a9.048,9.048,0,0,1,1.735,4.021c.267,2.193-2.135,4.629-2.135,4.629s-1.045-.627,2.959,6.561,4.2,23.583,4.2,23.583H185.133c2.837-13.9,8.635-35.991,8.635-36.357s.032-15.317.032-15.317-.261-14.494,1.073-19.732,13.795-24.448,19.788-29.322c6.372-5.182,20.737-10.487,20.737-10.487l1.209,4.652" transform="translate(-82.236 -56.364)" fill="#195f9a"/>
              <path id="Trazado_265642" data-name="Trazado 265642" d="M206.557,281.224c-.184-.631,4.436-8.117,4.436-8.117l26.48,4.058,1.843,6.792Z" transform="translate(-91.75 -121.315)" fill="#195f9a"/>
              <path id="Trazado_265643" data-name="Trazado 265643" d="M206.554,281.158a1.4,1.4,0,0,1,.171.006l.49.032,1.874.14,6.924.545,23.311,1.9-.129.138c-.447-1.646-.917-3.373-1.393-5.13l-.451-1.662.1.084-26.473-4.1.085-.037c-1.532,2.478-2.714,4.48-3.486,5.872-.385.7-.667,1.242-.834,1.619a2.922,2.922,0,0,0-.165.435.719.719,0,0,0-.023.154,1.063,1.063,0,0,1,.145-.6c.154-.384.424-.936.8-1.64.748-1.406,1.908-3.419,3.423-5.91l.028-.046.057.008,26.487,4.022.079.012.019.072c.147.541.3,1.1.451,1.662l1.391,5.13.041.152L239.3,284l-23.37-1.995-6.9-.609-1.85-.171-.475-.048a1,1,0,0,1-.157-.022" transform="translate(-91.748 -121.249)" fill="#263238"/>
              <path id="Trazado_265644" data-name="Trazado 265644" d="M244.166,135.257a1,1,0,0,1-.164.046l-.486.117c-.427.1-1.057.252-1.864.462-1.611.42-3.945,1.044-6.726,2.059-.695.255-1.416.536-2.152.859-.369.16-.744.325-1.115.511-.185.093-.379.179-.563.279s-.364.2-.536.326a28.268,28.268,0,0,0-3.965,3.608c-2.592,2.735-5.236,5.9-7.946,9.267s-5.209,6.63-7.45,9.617c-1.119,1.494-2.173,2.921-3.144,4.264a33.978,33.978,0,0,0-2.513,3.832,41.131,41.131,0,0,0-2.634,6.006c-.257.728-.441,1.3-.565,1.685-.059.185-.105.33-.139.44a.954.954,0,0,1-.054.149.65.65,0,0,1,.029-.155l.116-.447c.108-.391.278-.965.521-1.7a38.753,38.753,0,0,1,2.569-6.051,33.541,33.541,0,0,1,2.5-3.863c.965-1.349,2.012-2.78,3.127-4.278,2.232-3,4.731-6.261,7.439-9.634s5.365-6.534,7.974-9.27a28.226,28.226,0,0,1,4.015-3.623c.177-.124.373-.223.557-.335s.382-.186.571-.278c.375-.187.754-.351,1.126-.509.743-.32,1.469-.6,2.168-.849a66.137,66.137,0,0,1,6.766-2c.811-.2,1.446-.332,1.878-.422l.492-.1a.96.96,0,0,1,.17-.024" transform="translate(-89.795 -60.081)" fill="#263238"/>
              <path id="Trazado_265645" data-name="Trazado 265645" d="M259.056,257.19a5.617,5.617,0,0,1-.732-.377c-.465-.252-1.121-.644-1.914-1.151a44.282,44.282,0,0,1-5.791-4.435,42.3,42.3,0,0,1-4.89-5.263c-.559-.721-.991-1.318-1.27-1.741a4.818,4.818,0,0,1-.417-.666,5.116,5.116,0,0,1,.5.619c.3.407.756.989,1.331,1.7a48.43,48.43,0,0,0,4.923,5.2,50.545,50.545,0,0,0,5.719,4.465c.777.521,1.416.932,1.865,1.206a5.455,5.455,0,0,1,.68.451" transform="translate(-108.403 -108.188)" fill="#263238"/>
              <g id="Grupo_871426" data-name="Grupo 871426" transform="translate(115.656 159.98)" opacity="0.3">
                <g id="Grupo_871425" data-name="Grupo 871425">
                  <g id="Grupo_871424" data-name="Grupo 871424" clip-path="url(#clip-path-7)">
                    <path id="Trazado_265646" data-name="Trazado 265646" d="M208.09,287.839l.8,2.663,29.986-.094Z" transform="translate(-208.09 -287.839)"/>
                  </g>
                </g>
              </g>
              <path id="Trazado_265647" data-name="Trazado 265647" d="M227.746,165.587l.574,43.363L220.966,250.1h19.327s8.531-30.987,10.549-37.726c1.96-6.543,4.9-39.481,5.157-41.1.1-.634,2.169-12.009-3.917-17.375" transform="translate(-98.154 -68.365)" fill="#195f9a"/>
              <path id="Trazado_265648" data-name="Trazado 265648" d="M251.945,153.9s.127.116.366.353l.444.444c.087.091.188.181.282.291l.277.372a12.9,12.9,0,0,1,2.4,5.195,26.769,26.769,0,0,1,.456,9.075c-.086.888-.263,1.792-.345,2.733s-.192,1.917-.292,2.92q-.3,3.009-.631,6.354c-.45,4.455-.957,9.336-1.569,14.574-.308,2.618-.64,5.326-1.034,8.111-.191,1.393-.411,2.8-.649,4.231-.121.714-.27,1.428-.4,2.15-.164.715-.338,1.443-.539,2.157L240.3,250.143l-.03.106h-2.781l-16.655,0h-.171l.03-.168c2.72-15.169,5.229-29.167,7.378-41.15l0,.022c-.153-13.132-.279-23.97-.367-31.534-.036-3.774-.064-6.729-.083-8.749-.006-1-.01-1.769-.013-2.3s.008-.786.008-.786.016.267.028.786.027,1.293.048,2.295c.034,2.02.084,4.974.148,8.748.112,7.564.273,18.4.468,31.533v.011l0,.011-7.329,41.158-.141-.168,16.655,0h2.672l-.139.106c3.709-13.249,7.234-25.84,10.436-37.276.2-.715.371-1.423.536-2.135.135-.718.283-1.428.405-2.14.24-1.425.461-2.831.654-4.223.4-2.78.735-5.486,1.048-8.1.622-5.234,1.141-10.113,1.6-14.566q.343-3.34.651-6.352.157-1.5.3-2.92c.087-.95.267-1.853.356-2.733a26.825,26.825,0,0,0-.406-9.031,13,13,0,0,0-2.335-5.186l-.271-.375c-.091-.111-.191-.2-.275-.294l-.432-.452c-.232-.244-.346-.375-.346-.375" transform="translate(-98.017 -68.365)" fill="#263238"/>
              <path id="Trazado_265649" data-name="Trazado 265649" d="M256.491,151.329c-.009.055-.92-.168-2.412-.176a12.885,12.885,0,0,0-10.152,4.79c-.942,1.157-1.349,2-1.4,1.974a2.509,2.509,0,0,1,.267-.6,10.84,10.84,0,0,1,.97-1.5,12.377,12.377,0,0,1,10.317-4.868,10.907,10.907,0,0,1,1.776.206,2.5,2.5,0,0,1,.632.175" transform="translate(-107.731 -67.046)" fill="#263238"/>
            </g>
          </g>
        </g>
      </g>
    </g>
  </g>
</svg>
