<svg xmlns="http://www.w3.org/2000/svg" xmlns:xlink="http://www.w3.org/1999/xlink" width="263.531" height="231.469" viewBox="0 0 263.531 231.469">
  <defs>
    <clipPath id="clip-path">
      <rect id="Rectángulo_291369" data-name="Rectángulo 291369" width="217.061" height="222.333" fill="#fff"/>
    </clipPath>
    <clipPath id="clip-path-2">
      <rect id="Rectángulo_291691" data-name="Rectángulo 291691" width="242.701" height="174.516" fill="none"/>
    </clipPath>
    <clipPath id="clip-path-4">
      <rect id="Rectángulo_291685" data-name="Rectángulo 291685" width="96.609" height="95.728" fill="#9f9d9d"/>
    </clipPath>
  </defs>
  <g id="Grupo_871321" data-name="Grupo 871321" transform="translate(-336 -842.998)">
    <g id="Grupo_870715" data-name="Grupo 870715" transform="translate(336 842.998)">
      <g id="Grupo_870714" data-name="Grupo 870714" clip-path="url(#clip-path)">
        <path id="Trazado_215321" data-name="Trazado 215321" d="M16.525,108.171C43.655,86.019-3.326,50.27,7.076,14.912s44.729.993,63.2,18.413,40.116-13.746,54.465-14.583,6.274,12.785,12.746,30.429,54.177,2.991,73.3,20.033-11.344,53.309-13.909,74.935,30.376,46.1,9.271,78.194L101.3,221.7c-10.55-3.321-17.432-5.953-17.432-5.953C-14.283,172.331-10.6,130.323,16.525,108.171" transform="translate(0 0)" fill="#fff"/>
      </g>
    </g>
    <path id="Trazado_265650" data-name="Trazado 265650" d="M219.189,582.957c0,3.333-43.005,6.035-96.055,6.035s-96.054-2.7-96.054-6.035,43.03-3.722,96.079-3.722,96.03.389,96.03,3.722" transform="translate(331.088 485.476)" fill="#c8dfd8" opacity="0.915"/>
    <g id="Grupo_871445" data-name="Grupo 871445" transform="translate(356.829 890.814)">
      <g id="Grupo_871444" data-name="Grupo 871444" clip-path="url(#clip-path-2)">
        <g id="Grupo_871437" data-name="Grupo 871437">
          <g id="Grupo_871436" data-name="Grupo 871436" clip-path="url(#clip-path-2)">
            <path id="Trazado_265651" data-name="Trazado 265651" d="M187.116,240.143H31.009a13.435,13.435,0,0,1-13.435-13.435v-97.1a10.467,10.467,0,0,1,10.467-10.467H190.524a10.027,10.027,0,0,1,10.027,10.027v97.539a13.436,13.436,0,0,1-13.435,13.435" transform="translate(-9.922 -67.265)" fill="#263238"/>
            <path id="Trazado_265652" data-name="Trazado 265652" d="M192.268,387.07H5.974A5.974,5.974,0,0,1,0,381.1v-4.613H198.242V381.1a5.974,5.974,0,0,1-5.974,5.974" transform="translate(0 -212.554)" fill="#263238"/>
            <path id="Trazado_265653" data-name="Trazado 265653" d="M194.806,232.366H35.545a6.691,6.691,0,0,1-6.691-6.691v-88.8a6.691,6.691,0,0,1,6.691-6.691H194.806a6.691,6.691,0,0,1,6.691,6.691v88.8a6.691,6.691,0,0,1-6.691,6.691" transform="translate(-16.29 -73.498)" fill="#fff"/>
            <path id="Trazado_265654" data-name="Trazado 265654" d="M186.263,376.483l2.46,3.913h34.615l2.285-3.913Z" transform="translate(-105.16 -212.554)" fill="#455a64"/>
            <rect id="Rectángulo_291679" data-name="Rectángulo 291679" width="182.978" height="0.583" transform="translate(7.681 163.893)" fill="#455a64"/>
            <rect id="Rectángulo_291680" data-name="Rectángulo 291680" width="15.626" height="32.082" transform="translate(27.164 126.785)" fill="#ebebeb"/>
            <rect id="Rectángulo_291681" data-name="Rectángulo 291681" width="15.626" height="48.181" transform="translate(51.787 110.687)" fill="#ebebeb"/>
            <rect id="Rectángulo_291682" data-name="Rectángulo 291682" width="15.626" height="48.181" transform="translate(77.278 110.687)" fill="#ebebeb"/>
            <rect id="Rectángulo_291683" data-name="Rectángulo 291683" width="15.626" height="71.607" transform="translate(129.542 87.261)" fill="#ebebeb"/>
            <rect id="Rectángulo_291684" data-name="Rectángulo 291684" width="15.626" height="87.043" transform="translate(153.451 71.824)" fill="#ebebeb"/>
            <path id="Trazado_265655" data-name="Trazado 265655" d="M137.046,215.432l18.236-26.256,34.266-26.717,18.475,48.992s-20.943,13.409-26.391,14.756-9.424,1.206-15.456,10.028Z" transform="translate(-77.373 -91.721)" fill="#ffc09d"/>
            <path id="Trazado_265656" data-name="Trazado 265656" d="M291.267,144.03c.514-.027,6.787,4.5,3.253,8.187-3.755,3.918-17.152,15.357-17.152,15.357s-6.792-.635-5.328-4.547c1.48-3.953,19.226-19,19.226-19" transform="translate(-153.472 -81.316)" fill="#ffc09d"/>
            <path id="Trazado_265657" data-name="Trazado 265657" d="M274.982,173.846a39.633,39.633,0,0,1-9.737-.7,39.315,39.315,0,0,1-14.9-70.825l34.636-24.149L295.63,93.445,261,117.594a20.7,20.7,0,0,0,23.471,34.091l34.383-26.138,11.268,14.823-34.723,26.4-.168.117a39.018,39.018,0,0,1-20.244,6.962" transform="translate(-131.834 -44.134)" fill="#ff725e"/>
            <path id="Trazado_265658" data-name="Trazado 265658" d="M415.028,222.2l3.445,4.449L432.6,215.911l-3-3.938Z" transform="translate(-234.316 -119.676)" fill="#e0e0e0"/>
            <path id="Trazado_265659" data-name="Trazado 265659" d="M336.143,114.262l2.865,3.941,14.567-10.157-2.866-4.012Z" transform="translate(-189.779 -58.736)" fill="#e0e0e0"/>
            <g id="Grupo_871435" data-name="Grupo 871435" transform="translate(101.708 34.084)">
              <g id="Grupo_871434" data-name="Grupo 871434">
                <g id="Grupo_871433" data-name="Grupo 871433" clip-path="url(#clip-path-4)">
                  <path id="Trazado_265660" data-name="Trazado 265660" d="M275.058,173.953a39.612,39.612,0,0,1-9.737-.7,39.314,39.314,0,0,1-14.9-70.825l34.635-24.149,10.649,15.273L261.071,117.7a20.7,20.7,0,0,0,23.471,34.091l34.383-26.138,11.268,14.823-34.723,26.4-.168.117a39.017,39.017,0,0,1-20.244,6.962" transform="translate(-233.584 -78.279)" fill="#9f9d9d"/>
                </g>
              </g>
            </g>
            <path id="Trazado_265661" data-name="Trazado 265661" d="M268.337,164.732a39.633,39.633,0,0,1-9.737-.7,39.315,39.315,0,0,1-14.9-70.825l34.636-24.149,10.649,15.273L254.35,108.48a20.7,20.7,0,0,0,23.471,34.091L312.2,116.433l11.277,15-34.732,26.223-.168.117a39.018,39.018,0,0,1-20.244,6.962" transform="translate(-128.082 -38.989)" fill="#afafaf"/>
            <path id="Trazado_265662" data-name="Trazado 265662" d="M262.03,203.114l1.115-.854c2.523-2.763,2.074-5.42-.507-7.138a3.408,3.408,0,0,0-1.614-.61c-2.812-.214-9.958.884-12.954,2.247s-4.416,4.813-2.421,7.24,4.574,1.93,8.716,1.471a23.686,23.686,0,0,0,7.665-2.356" transform="translate(-138.165 -109.802)" fill="#ffc09d"/>
            <path id="Trazado_265663" data-name="Trazado 265663" d="M259.008,219.593s-4.165,2.994-2.463,6.362,3.717,3.1,7.374,2.509,9.284-6.071,9.284-6.071,2.277-3.415.437-5.811c-2.491-3.245-4.541-1.9-6.681-1.145a81.543,81.543,0,0,0-7.952,4.156" transform="translate(-144.609 -121.106)" fill="#ffc09d"/>
            <path id="Trazado_265664" data-name="Trazado 265664" d="M281.844,237.729s-3,5.449.9,7.335c3.46,1.674,6.532-1.62,8.395-4.252s3.509-4.873.866-6.9c-2.5-1.917-3.855-2.12-5.479-.965a25.51,25.51,0,0,0-4.684,4.781" transform="translate(-158.502 -131.116)" fill="#ffc09d"/>
            <path id="Trazado_265665" data-name="Trazado 265665" d="M160.884,185.464s7.611-20.774,10.1-26S188.538,142.2,188.538,142.2l15.752-7.194s5.88,6.907-1.283,11.952a132.894,132.894,0,0,1-13.66,8.415l-1.483,9.962s4.622,23.772-14.15,38.128Z" transform="translate(-90.832 -76.223)" fill="#ffc09d"/>
            <path id="Trazado_265666" data-name="Trazado 265666" d="M213.51,181.725a.478.478,0,0,1-.032.114l-.115.326c-.11.283-.252.708-.427,1.256a27.542,27.542,0,0,0-.993,4.766,51.5,51.5,0,0,0-.284,7.222c.049,2.724.238,5.72.225,8.874a35.008,35.008,0,0,1-1.006,8.823,20.281,20.281,0,0,1-3.043,6.571,14.426,14.426,0,0,1-3.462,3.445l-.646.417c-.19.116-.361.2-.494.271l-.307.159a.481.481,0,0,1-.108.047.448.448,0,0,1,.1-.068l.3-.179c.129-.08.3-.167.48-.289l.631-.431a14.864,14.864,0,0,0,3.383-3.466,20.423,20.423,0,0,0,2.971-6.532,35.387,35.387,0,0,0,.982-8.77c.013-3.143-.169-6.138-.208-8.869a49.7,49.7,0,0,1,.334-7.247,25.911,25.911,0,0,1,1.069-4.773c.189-.547.344-.968.468-1.246l.136-.318a.473.473,0,0,1,.054-.105" transform="translate(-114.507 -102.598)" fill="#ff9b6c"/>
            <path id="Trazado_265667" data-name="Trazado 265667" d="M310.88,79.317l11,15.02L336.447,84.11l-10.6-15.367Z" transform="translate(-175.516 -38.811)" fill="#e0e0e0"/>
            <path id="Trazado_265668" data-name="Trazado 265668" d="M389.216,188.872l11.724,14.615,14.2-10.679-11.21-15.035Z" transform="translate(-219.743 -100.366)" fill="#e0e0e0"/>
            <path id="Trazado_265669" data-name="Trazado 265669" d="M275.27,194.465a2.73,2.73,0,0,1,.529-.048l.287-.014.343.022.4.028.441.084a4.726,4.726,0,0,1,3.6,3.277l0,.006v.011a4.7,4.7,0,0,1-.36,2.185,6.668,6.668,0,0,1-2.266,2.788,11.139,11.139,0,0,1-2.608,1.351c-.782.293-1.432.476-1.88.6a4.309,4.309,0,0,1-.7.165,4.649,4.649,0,0,1,.679-.25c.44-.151,1.08-.357,1.848-.666a11.55,11.55,0,0,0,2.543-1.37,6.575,6.575,0,0,0,2.18-2.7,4.534,4.534,0,0,0,.35-2.08l0,.016a4.642,4.642,0,0,0-1.483-2.239,4.76,4.76,0,0,0-1.938-.953l-.428-.1-.388-.043-.337-.039-.284,0a2.757,2.757,0,0,1-.529-.028" transform="translate(-154.16 -109.756)" fill="#ff9b6c"/>
            <path id="Trazado_265670" data-name="Trazado 265670" d="M286.986,229.944a1.376,1.376,0,0,1-.208.344c-.145.213-.367.513-.654.873a21.567,21.567,0,0,1-2.468,2.623,15.2,15.2,0,0,1-2.939,2.087,8.541,8.541,0,0,1-.992.462,1.357,1.357,0,0,1-.383.121c-.015-.036.508-.26,1.3-.722a18.248,18.248,0,0,0,2.866-2.116,28.55,28.55,0,0,0,2.5-2.557,13.691,13.691,0,0,1,.984-1.115" transform="translate(-157.711 -129.821)" fill="#ff9b6c"/>
            <path id="Trazado_265671" data-name="Trazado 265671" d="M47.2,313.65l38.637-39.495,34.667,28.069-8.924,11.485Z" transform="translate(-26.65 -154.782)" fill="#033f71"/>
            <path id="Trazado_265672" data-name="Trazado 265672" d="M80.077,144.868a13.5,13.5,0,0,1,3.294-1.431l.678-3.261,5.509-.1.792,3.234a13.508,13.508,0,0,1,3.343,1.315l2.784-1.825,3.964,3.827-1.726,2.846a13.5,13.5,0,0,1,1.432,3.295l3.26.678.1,5.509-3.234.793a13.5,13.5,0,0,1-1.315,3.342l1.824,2.784-3.826,3.964-2.846-1.726a13.485,13.485,0,0,1-3.294,1.431l-.679,3.26-5.509.1-.792-3.234a13.51,13.51,0,0,1-3.342-1.315l-2.784,1.825-3.964-3.827,1.726-2.846a13.487,13.487,0,0,1-1.432-3.294l-3.26-.678-.1-5.509,3.235-.793a13.5,13.5,0,0,1,1.315-3.342L73.4,147.106l3.826-3.964Zm2.936,7.339a5.91,5.91,0,1,0,8.357-.147,5.91,5.91,0,0,0-8.357.147" transform="translate(-39.904 -79.086)" fill="#e0e0e0"/>
            <path id="Trazado_265673" data-name="Trazado 265673" d="M59.443,220.861a9.847,9.847,0,0,1,2.4-1.042l.494-2.373,4.009-.07.577,2.354a9.841,9.841,0,0,1,2.433.957l2.026-1.328,2.885,2.785-1.256,2.072a9.8,9.8,0,0,1,1.042,2.4l2.373.494.071,4.009-2.354.577a9.831,9.831,0,0,1-.957,2.433l1.328,2.026-2.785,2.885-2.072-1.256a9.817,9.817,0,0,1-2.4,1.042l-.494,2.373-4.01.071-.577-2.354a9.834,9.834,0,0,1-2.433-.957l-2.026,1.328L54.832,236.5l1.256-2.072a9.809,9.809,0,0,1-1.042-2.4l-2.373-.494-.07-4.01,2.354-.577a9.821,9.821,0,0,1,.957-2.432l-1.328-2.027,2.785-2.885Zm2.137,5.341a4.3,4.3,0,1,0,6.083-.107,4.3,4.3,0,0,0-6.083.107" transform="translate(-29.698 -122.725)" fill="#ebebeb"/>
            <path id="Trazado_265674" data-name="Trazado 265674" d="M156.111,146.294a6.64,6.64,0,0,1,1.618-.7l.334-1.6,2.706-.047.39,1.589a6.644,6.644,0,0,1,1.642.646l1.368-.9,1.947,1.88-.848,1.4a6.633,6.633,0,0,1,.7,1.618l1.6.334.047,2.706-1.589.39a6.645,6.645,0,0,1-.646,1.642l.9,1.368-1.88,1.947-1.4-.848a6.651,6.651,0,0,1-1.618.7l-.334,1.6-2.706.047-.39-1.589a6.644,6.644,0,0,1-1.642-.646l-1.368.9L153,156.849l.848-1.4a6.634,6.634,0,0,1-.7-1.618l-1.6-.334-.047-2.706,1.589-.39a6.645,6.645,0,0,1,.646-1.642l-.9-1.368,1.88-1.947Zm1.443,3.605a2.9,2.9,0,1,0,4.106-.072,2.9,2.9,0,0,0-4.106.072" transform="translate(-85.53 -81.266)" fill="#ebebeb"/>
            <rect id="Rectángulo_291686" data-name="Rectángulo 291686" width="15.626" height="21.831" transform="translate(102.962 137.036)" fill="#ebebeb"/>
          </g>
        </g>
        <g id="Grupo_871439" data-name="Grupo 871439">
          <g id="Grupo_871438" data-name="Grupo 871438" clip-path="url(#clip-path-2)">
            <path id="Trazado_265675" data-name="Trazado 265675" d="M503.23,20.638A15.515,15.515,0,1,1,493.5.973a15.515,15.515,0,0,1,9.733,19.665" transform="translate(-267.052 -0.086)" fill="#fff"/>
            <path id="Trazado_265676" data-name="Trazado 265676" d="M506.527,19.076a4.173,4.173,0,0,0-1.365-2.92,5.265,5.265,0,0,0-3.348-1.228,11.147,11.147,0,0,0-3.576.579,5.461,5.461,0,0,0-1.844.848,7.77,7.77,0,0,0-2.442,3.338,13.721,13.721,0,0,0-.287,4.477,2.255,2.255,0,0,0,.737,1.065,8.539,8.539,0,0,0,1.217,2.755l1.142-1.807Z" transform="translate(-278.665 -8.425)" fill="#263238"/>
            <path id="Trazado_265677" data-name="Trazado 265677" d="M519.471,20.358l-1.842-.8c.461,2.752-.6,8.546-.626,11.336.951-.862,3.337-3.607,3.542-4.874s1.262-5.338-1.074-5.664" transform="translate(-291.889 -11.044)" fill="#263238"/>
            <path id="Trazado_265678" data-name="Trazado 265678" d="M496.067,22.75a3.375,3.375,0,0,1,3.185-2.443l4.7-.086c1.963.244,2.687,2.9,2.359,4.851a31.3,31.3,0,0,1-1.434,5.975c-1.257,3.086-3.809,2.921-3.809,2.921s-.36,1.524-.582,2.459L498.664,40.4l-5.223-4.037,2.605-13.576c.012-.055,0,.036.02-.036" transform="translate(-278.586 -11.416)" fill="#ffc09d"/>
            <path id="Trazado_265679" data-name="Trazado 265679" d="M518.081,36.233a.422.422,0,0,1-.493.322.4.4,0,0,1-.337-.469.422.422,0,0,1,.492-.323.4.4,0,0,1,.338.47" transform="translate(-292.024 -20.187)" fill="#263238"/>
            <path id="Trazado_265680" data-name="Trazado 265680" d="M519.1,33.142c-.064.042-.321-.261-.764-.364s-.819.044-.854-.022c-.018-.03.057-.114.222-.184a1.153,1.153,0,0,1,.7-.049,1.109,1.109,0,0,1,.592.356c.112.136.135.243.1.262" transform="translate(-292.16 -18.344)" fill="#263238"/>
            <path id="Trazado_265681" data-name="Trazado 265681" d="M509.005,33.819a.422.422,0,0,1-.493.322.4.4,0,0,1-.337-.469.422.422,0,0,1,.493-.323.4.4,0,0,1,.337.47" transform="translate(-286.9 -18.824)" fill="#263238"/>
            <path id="Trazado_265682" data-name="Trazado 265682" d="M509.462,30.87c-.064.042-.322-.261-.764-.363s-.819.044-.854-.022c-.018-.03.056-.114.222-.184a1.158,1.158,0,0,1,.7-.049,1.117,1.117,0,0,1,.592.356c.111.136.135.244.1.262" transform="translate(-286.716 -17.061)" fill="#263238"/>
            <path id="Trazado_265683" data-name="Trazado 265683" d="M512.857,35.595a3.021,3.021,0,0,1,.748.038c.116.015.228.017.265-.055a.59.59,0,0,0,0-.352q-.064-.447-.133-.938a15.235,15.235,0,0,1-.226-2.424,15.163,15.163,0,0,1,.42,2.4q.062.492.118.94a.672.672,0,0,1-.045.457.291.291,0,0,1-.224.122.79.79,0,0,1-.2-.018,2.943,2.943,0,0,1-.728-.169" transform="translate(-289.548 -17.989)" fill="#263238"/>
            <path id="Trazado_265684" data-name="Trazado 265684" d="M501.808,46.876s.524,2.446,3.8,2.894l.179-.753a8.3,8.3,0,0,1-3.98-2.141" transform="translate(-283.31 -26.465)" fill="#ff9b6c"/>
            <path id="Trazado_265685" data-name="Trazado 265685" d="M509.431,27.217c-.071.11-.5-.05-1.033-.108s-.986-.015-1.03-.139c-.019-.059.081-.155.277-.232a1.807,1.807,0,0,1,1.572.189c.172.121.246.238.214.291" transform="translate(-286.447 -15.039)" fill="#263238"/>
            <path id="Trazado_265686" data-name="Trazado 265686" d="M519.674,29.934c-.1.082-.381-.093-.747-.183s-.692-.091-.739-.212c-.02-.058.053-.147.211-.211a1.113,1.113,0,0,1,1.2.319c.105.133.124.247.078.288" transform="translate(-292.556 -16.523)" fill="#263238"/>
            <path id="Trazado_265687" data-name="Trazado 265687" d="M507.919,19.828a1.448,1.448,0,0,0-1.056-1.091,2.814,2.814,0,0,0-1.579.083c-2.168.653-3.776,3.085-5.93,3.782-.53.171-1.073-.228-1.554.051a1.4,1.4,0,0,0-.777,1.36,4.621,4.621,0,0,1-.393-1.261,1.556,1.556,0,0,1,.347-1.236c.23-.244.569-.392.722-.69a4.4,4.4,0,0,0,.174-.863,1.915,1.915,0,0,1,.486-.748,8.54,8.54,0,0,1,3.821-2.5,5.566,5.566,0,0,1,2.983-.064,4.26,4.26,0,0,1,2.425,1.692c.329.492.676,1,.332,1.486" transform="translate(-280.379 -9.303)" fill="#263238"/>
            <path id="Trazado_265688" data-name="Trazado 265688" d="M496.569,31.117a1.148,1.148,0,0,0-1.982.674A1.332,1.332,0,0,0,496,33.534c.015-.049.573-2.417.573-2.417" transform="translate(-279.197 -17.359)" fill="#ffc09d"/>
            <path id="Trazado_265689" data-name="Trazado 265689" d="M496.222,33.467c-.006-.007-.035.014-.091.024a.31.31,0,0,1-.226-.051.765.765,0,0,1-.18-.75,1.024,1.024,0,0,1,.189-.408.358.358,0,0,1,.282-.175.157.157,0,0,1,.157.126c.011.054-.008.085,0,.091s.044-.02.047-.094a.2.2,0,0,0-.041-.125.233.233,0,0,0-.155-.085.436.436,0,0,0-.379.19,1.051,1.051,0,0,0-.222.454.8.8,0,0,0,.255.851.333.333,0,0,0,.286.022c.064-.03.082-.066.077-.071" transform="translate(-279.794 -18.076)" fill="#ff9b6c"/>
            <path id="Trazado_265690" data-name="Trazado 265690" d="M498.127,23.69a.727.727,0,0,0,.118-.034c.076-.027.191-.058.333-.116a6.091,6.091,0,0,0,1.131-.628A17.12,17.12,0,0,0,501.2,21.7a13.96,13.96,0,0,1,1.842-1.437,5.538,5.538,0,0,1,1.09-.509,4.584,4.584,0,0,1,1.1-.216,5.042,5.042,0,0,1,1.881.206,4.842,4.842,0,0,1,1.168.529c.132.077.226.149.292.194a.714.714,0,0,0,.1.067.684.684,0,0,0-.094-.08,3.077,3.077,0,0,0-.285-.207,4.6,4.6,0,0,0-1.167-.556,5.01,5.01,0,0,0-1.9-.226,4.587,4.587,0,0,0-1.117.216,5.576,5.576,0,0,0-1.108.516,13.547,13.547,0,0,0-1.849,1.451,18.28,18.28,0,0,1-1.472,1.22,6.594,6.594,0,0,1-1.11.646c-.139.061-.252.1-.326.129a.716.716,0,0,0-.113.049" transform="translate(-281.232 -10.981)" fill="#fff"/>
            <path id="Trazado_265691" data-name="Trazado 265691" d="M498.6,28.054a2.734,2.734,0,0,0-.158,1.427.94.94,0,0,0,1.066.747c.379-.112.58-.516.727-.884.422-1.061.759-2.154,1.191-3.21Z" transform="translate(-281.382 -14.755)" fill="#263238"/>
            <path id="Trazado_265692" data-name="Trazado 265692" d="M508.916,21.678c0,.01-.146-.064-.42-.138a3.033,3.033,0,0,0-1.191-.061,3.834,3.834,0,0,0-.8.2,7.921,7.921,0,0,0-.871.389,9.141,9.141,0,0,0-1.812,1.217c-.291.256-.56.527-.839.77a4.5,4.5,0,0,1-.875.615,7.9,7.9,0,0,1-1.688.632c-.5.129-.9.206-1.185.259l-.325.056a.534.534,0,0,1-.115.013.5.5,0,0,1,.111-.033l.321-.074c.278-.064.683-.152,1.174-.289a8.165,8.165,0,0,0,1.663-.645,4.5,4.5,0,0,0,.854-.607c.275-.241.543-.512.838-.772a8.93,8.93,0,0,1,1.836-1.224,7.741,7.741,0,0,1,.885-.386,3.836,3.836,0,0,1,.821-.192,2.932,2.932,0,0,1,1.211.093,2.054,2.054,0,0,1,.309.12.512.512,0,0,1,.1.056" transform="translate(-281.608 -12.073)" fill="#455a64"/>
            <path id="Trazado_265693" data-name="Trazado 265693" d="M496.965,24.949a.8.8,0,0,1-.177.067l-.5.153-.167.05a.473.473,0,0,1-.2.018.188.188,0,0,1-.11-.055.154.154,0,0,1-.038-.129.4.4,0,0,1,.133-.2l.7-.692.054.08a1.856,1.856,0,0,1-1.254.073.53.53,0,0,1-.15-.064.217.217,0,0,1-.106-.148.193.193,0,0,1,.07-.168.776.776,0,0,1,.124-.084,3.734,3.734,0,0,0,.762-.6,6.381,6.381,0,0,0,.561-.706.942.942,0,0,1-.109.219,3.311,3.311,0,0,1-.4.535,3.589,3.589,0,0,1-.766.633c-.079.046-.159.1-.147.161s.1.109.19.131a1.789,1.789,0,0,0,1.188-.069l.242-.1-.188.182-.708.684a.338.338,0,0,0-.113.151c-.01.05.026.088.082.1a.909.909,0,0,0,.34-.055l.506-.125a.8.8,0,0,1,.186-.034" transform="translate(-279.548 -12.726)" fill="#fff"/>
            <path id="Trazado_265694" data-name="Trazado 265694" d="M508.483,40.975a.592.592,0,0,1,.7-.3.619.619,0,0,1,.386.439.762.762,0,0,1-.11.583l-.019.039a.675.675,0,0,1-.776-.017.631.631,0,0,1-.18-.747" transform="translate(-287.047 -22.95)" fill="#ff9b6c"/>
            <path id="Trazado_265695" data-name="Trazado 265695" d="M510.143,41.359c.017-.067-.436-.151-.685-.6s-.112-.918-.175-.934c-.027-.012-.108.091-.15.293a1.145,1.145,0,0,0,.12.775.994.994,0,0,0,.58.472c.186.052.307.022.31-.009" transform="translate(-287.433 -22.486)" fill="#263238"/>
            <path id="Trazado_265696" data-name="Trazado 265696" d="M496.678,56.276a9.2,9.2,0,0,0-1.928-1.735l-2.967-1.488a3.48,3.48,0,0,1-3.892,1.115,4.509,4.509,0,0,1-2.883-3.044s-4.2-.547-7.275,1.083a15.576,15.576,0,0,0,20.315,6.151,18.268,18.268,0,0,0-1.371-2.082" transform="translate(-269.718 -28.813)" fill="#455a64"/>
            <path id="Trazado_265697" data-name="Trazado 265697" d="M473.718,19.514s.033.08.085.239l.229.706.165.52c.07.189.164.388.256.607a11.332,11.332,0,0,0,.71,1.48,14.873,14.873,0,0,0,2.69,3.585,15.586,15.586,0,0,0,11.948,4.5,14.445,14.445,0,0,0,1.956-.262c.327-.071.661-.122.989-.21l.981-.3c.164-.054.332-.1.493-.16l.482-.2c.32-.14.651-.266.969-.42a16.382,16.382,0,0,0,1.854-1.1,16.142,16.142,0,0,0,1.741-1.357c.273-.252.527-.529.793-.8a7.885,7.885,0,0,0,.748-.854,17.5,17.5,0,0,0,1.337-1.879,17.522,17.522,0,0,0,1.031-2.113,14.988,14.988,0,0,0,1.1-4.679,16.551,16.551,0,0,0-.424-4.933,16.554,16.554,0,0,0-1.972-4.542l-.689-1.009-.778-.93A3.815,3.815,0,0,0,500,4.968l-.428-.421-.427-.418-.462-.375a17.539,17.539,0,0,0-1.912-1.369,17.34,17.34,0,0,0-2.07-1.017,7.833,7.833,0,0,0-1.065-.4c-.361-.107-.716-.23-1.076-.322a16.175,16.175,0,0,0-2.177-.366A16.474,16.474,0,0,0,488.235.2c-.354.016-.7.063-1.052.091l-.52.05c-.172.02-.341.064-.51.094l-1.008.2c-.33.078-.649.192-.97.285a14.419,14.419,0,0,0-1.845.7,15.584,15.584,0,0,0-8.367,9.644A14.889,14.889,0,0,0,473.3,15.7a11.3,11.3,0,0,0,.079,1.639c.023.237.035.457.064.656s.071.376.1.536l.135.729c.029.165.038.251.038.251s-.024-.082-.061-.246l-.157-.726q-.05-.241-.113-.536c-.032-.2-.047-.42-.074-.657a11.1,11.1,0,0,1-.1-1.646,14.8,14.8,0,0,1,.628-4.469,15.68,15.68,0,0,1,8.41-9.779A14.558,14.558,0,0,1,484.116.74c.325-.095.647-.211.981-.291l1.02-.206c.172-.031.342-.076.516-.1l.527-.052c.353-.03.708-.078,1.066-.095a16.535,16.535,0,0,1,2.181.078,16.336,16.336,0,0,1,2.208.367c.366.092.726.217,1.092.325a8.072,8.072,0,0,1,1.08.4,17.559,17.559,0,0,1,2.1,1.029,17.663,17.663,0,0,1,1.941,1.386l.469.38.434.423.435.427a3.964,3.964,0,0,1,.415.448l.79.943.7,1.024a16.762,16.762,0,0,1,2,4.609,16.756,16.756,0,0,1,.429,5,15.189,15.189,0,0,1-1.119,4.746,17.749,17.749,0,0,1-1.048,2.141,17.629,17.629,0,0,1-1.358,1.9,8.091,8.091,0,0,1-.76.864c-.271.269-.529.55-.806.805a16.279,16.279,0,0,1-1.767,1.372,16.578,16.578,0,0,1-1.881,1.105c-.323.156-.658.283-.983.424l-.488.205c-.163.065-.334.107-.5.161l-.995.3c-.332.089-.671.14-1,.21a14.522,14.522,0,0,1-1.981.259,15.679,15.679,0,0,1-12.049-4.6,14.778,14.778,0,0,1-2.678-3.633,11.159,11.159,0,0,1-.695-1.5c-.089-.222-.181-.423-.247-.614l-.156-.526-.208-.714c-.045-.161-.063-.245-.063-.245" transform="translate(-267.162)" fill="#263238"/>
          </g>
        </g>
        <g id="Grupo_871441" data-name="Grupo 871441">
          <g id="Grupo_871440" data-name="Grupo 871440" clip-path="url(#clip-path-2)">
            <path id="Trazado_265698" data-name="Trazado 265698" d="M498.727,122.739A22.585,22.585,0,1,1,474.6,101.8a22.585,22.585,0,0,1,24.122,20.936" transform="translate(-256.099 -57.443)" fill="#fff"/>
            <path id="Trazado_265699" data-name="Trazado 265699" d="M518.552,132.7c-.125-2.139.06-4.292-.172-6.422a8.866,8.866,0,0,0-2.55-5.741c-1.6-1.426-4.227-1.828-5.883-.469l-.229,1.844q1.9,12.286,3.807,24.573a8.466,8.466,0,0,0,.9,3.116,2.882,2.882,0,0,0,2.684,1.52c1.412-.188,2.241-1.691,2.587-3.074,1.252-5.01-.846-10.192-1.148-15.347" transform="translate(-287.775 -67.314)" fill="#263238"/>
            <path id="Trazado_265700" data-name="Trazado 265700" d="M511.79,123.1a5.975,5.975,0,0,0-1.19-1.4,2.043,2.043,0,0,0-1.722-.443.846.846,0,0,0-.632.534c-.076.279.153.628.439.584l.065.048q1.02.781,2.07,1.521a1.681,1.681,0,0,0,.569.3.581.581,0,0,0,.588-.169c.217-.283.015-.685-.187-.978" transform="translate(-286.936 -68.431)" fill="#ff725e"/>
            <path id="Trazado_265701" data-name="Trazado 265701" d="M496.7,125.523a10.808,10.808,0,0,0-8.646-3.566,11.6,11.6,0,0,0-4,1.018,6,6,0,0,0-3.254,2.5,10.066,10.066,0,0,0-1.64,4.722,28.216,28.216,0,0,0,.118,5.183,9.456,9.456,0,0,0,1.954,4.739l4.434.452a27.634,27.634,0,0,0,7.2-.9,9.308,9.308,0,0,0,5.634-4.3c1.551-2.994.508-7.39-1.806-9.842" transform="translate(-270.492 -68.845)" fill="#263238"/>
            <path id="Trazado_265702" data-name="Trazado 265702" d="M487.259,150.838c-.079-1.539-.164-3.47-.163-3.463s-3.6-.141-4.91-4.649a49.525,49.525,0,0,1-1.2-9.1c-.174-2.782,1.926-6.735,5.357-6.99l1.513-.285,6,1.908a1.631,1.631,0,0,1,1.655,1.459l1.645,20.116-3.3,6.514-7.062-4.713Z" transform="translate(-271.546 -71.336)" fill="#cc6760"/>
            <path id="Trazado_265703" data-name="Trazado 265703" d="M496.709,159.376a.977.977,0,0,0-.38-.577,1,1,0,0,0-1.213.017,1.338,1.338,0,0,0-.418,1.288,1.216,1.216,0,0,0,.9.442,1.454,1.454,0,0,0,.163-.007,1.092,1.092,0,0,0,.714-.342.974.974,0,0,0,.23-.821" transform="translate(-279.279 -89.543)" fill="#9d4941"/>
            <path id="Trazado_265704" data-name="Trazado 265704" d="M485.8,150.167a.594.594,0,0,0,.644.523.569.569,0,0,0,.541-.608.6.6,0,0,0-.644-.524.568.568,0,0,0-.541.609" transform="translate(-274.272 -84.436)" fill="#263238"/>
            <path id="Trazado_265705" data-name="Trazado 265705" d="M483.632,145.428c.083.068.488-.319,1.123-.4s1.14.181,1.2.094c.03-.039-.063-.168-.284-.29a1.633,1.633,0,0,0-.972-.171,1.57,1.57,0,0,0-.882.413c-.176.174-.225.322-.185.352" transform="translate(-273.041 -81.666)" fill="#263238"/>
            <path id="Trazado_265706" data-name="Trazado 265706" d="M491.688,150.346a4.233,4.233,0,0,0-1.055-.056c-.164,0-.322-.009-.363-.116a.834.834,0,0,1,.048-.494l.323-1.295a21.371,21.371,0,0,0,.67-3.365,21.4,21.4,0,0,0-.939,3.3q-.158.68-.3,1.3a.946.946,0,0,0,0,.647.41.41,0,0,0,.3.2,1.105,1.105,0,0,0,.28,0,4.137,4.137,0,0,0,1.045-.13" transform="translate(-276.647 -81.875)" fill="#263238"/>
            <path id="Trazado_265707" data-name="Trazado 265707" d="M495.036,171.494a11.8,11.8,0,0,0,5.954-2.42s-1.239,3.4-5.9,3.546Z" transform="translate(-279.486 -95.455)" fill="#9d4941"/>
            <path id="Trazado_265708" data-name="Trazado 265708" d="M495.937,157.718c-.1.007-.018.7-.546,1.26s-1.271.58-1.264.677c0,.045.18.114.492.083a1.728,1.728,0,0,0,1.06-.526,1.505,1.505,0,0,0,.414-1.051c-.01-.291-.108-.452-.155-.442" transform="translate(-278.973 -89.044)" fill="#263238"/>
            <path id="Trazado_265709" data-name="Trazado 265709" d="M483.76,140.369c.126.142.6-.023,1.173-.048.573-.043,1.063.066,1.17-.089.047-.075-.034-.219-.25-.35a1.82,1.82,0,0,0-1.889.111c-.2.155-.26.307-.2.376" transform="translate(-273.109 -78.854)" fill="#263238"/>
            <path id="Trazado_265710" data-name="Trazado 265710" d="M500.907,148.793a.594.594,0,0,1-.519.648.568.568,0,0,1-.657-.48.594.594,0,0,1,.518-.648.569.569,0,0,1,.658.48" transform="translate(-282.134 -83.731)" fill="#263238"/>
            <path id="Trazado_265711" data-name="Trazado 265711" d="M500.378,143.787c-.067.084-.545-.209-1.182-.151s-1.076.418-1.152.346c-.037-.031.026-.178.216-.344a1.633,1.633,0,0,1,.914-.372,1.565,1.565,0,0,1,.95.216c.209.133.288.267.255.3" transform="translate(-281.179 -80.881)" fill="#263238"/>
            <path id="Trazado_265712" data-name="Trazado 265712" d="M499.04,139.119c-.113.156-.618.049-1.21.094-.593.027-1.084.194-1.212.052-.057-.069.009-.221.216-.377a1.828,1.828,0,0,1,.962-.324,1.809,1.809,0,0,1,.99.206c.222.13.3.273.255.349" transform="translate(-280.369 -78.228)" fill="#263238"/>
            <path id="Trazado_265713" data-name="Trazado 265713" d="M513.8,150.183c-.042-.343.252-1.2.583-1.3.886-.255,2.523-.388,2.828,1.9.416,3.134-2.816,2.906-2.833,2.816-.014-.07-.431-2.242-.578-3.425" transform="translate(-290.076 -83.982)" fill="#cc6760"/>
            <path id="Trazado_265714" data-name="Trazado 265714" d="M516.661,153.689c.013-.012.06.031.158.061a.552.552,0,0,0,.409-.046,1.362,1.362,0,0,0,.464-1.295,1.814,1.814,0,0,0-.256-.762.636.636,0,0,0-.466-.364.281.281,0,0,0-.3.192c-.03.093,0,.153-.018.161s-.074-.044-.066-.176a.353.353,0,0,1,.1-.213.417.417,0,0,1,.291-.12.775.775,0,0,1,.635.41,1.871,1.871,0,0,1,.305.848,1.431,1.431,0,0,1-.617,1.46.591.591,0,0,1-.51-.017c-.108-.064-.133-.132-.123-.139" transform="translate(-291.651 -85.323)" fill="#9d4941"/>
            <path id="Trazado_265715" data-name="Trazado 265715" d="M500.7,135.538l-.741.886c-3.687-3.061-11.022-10.861-10.61-10.394a10.083,10.083,0,0,1,4.9-.884c2.6.256,7.56,1.2,7.7,4.231a15.839,15.839,0,0,1-1.244,6.162" transform="translate(-276.265 -70.633)" fill="#263238"/>
            <path id="Trazado_265716" data-name="Trazado 265716" d="M505.9,134.724a.81.81,0,0,0-.061-.179,3.217,3.217,0,0,0-.25-.481,4.586,4.586,0,0,0-1.42-1.387,8.634,8.634,0,0,0-2.739-1.087c-1.077-.268-2.283-.451-3.483-.869a15.438,15.438,0,0,1-3.233-1.522,16.147,16.147,0,0,1-2.331-1.763,17.153,17.153,0,0,1-1.375-1.416l-.347-.412a.837.837,0,0,0-.129-.138.825.825,0,0,0,.1.158c.073.1.177.249.324.432a14.519,14.519,0,0,0,1.347,1.46,15.4,15.4,0,0,0,2.329,1.806,15.13,15.13,0,0,0,3.26,1.549,34.755,34.755,0,0,0,3.5.86,8.751,8.751,0,0,1,2.712,1.038,4.747,4.747,0,0,1,1.429,1.325c.26.386.348.633.364.625" transform="translate(-276.945 -70.837)" fill="#455a64"/>
            <path id="Trazado_265717" data-name="Trazado 265717" d="M505.267,136.145a1.662,1.662,0,0,0-.171-.679,3.224,3.224,0,0,0-1.288-1.4,7.146,7.146,0,0,0-2.7-.844,15.565,15.565,0,0,1-3.337-.8,13.869,13.869,0,0,1-3.037-1.591,14.252,14.252,0,0,1-2.134-1.82,15.114,15.114,0,0,1-1.22-1.45l-.3-.422a.793.793,0,0,0-.113-.142.743.743,0,0,0,.086.159l.274.441a12.853,12.853,0,0,0,1.189,1.492,13.584,13.584,0,0,0,5.2,3.483,15.205,15.205,0,0,0,3.371.8,7.209,7.209,0,0,1,2.663.795,3.258,3.258,0,0,1,1.29,1.327,3.718,3.718,0,0,1,.228.653" transform="translate(-277.191 -71.698)" fill="#455a64"/>
            <path id="Trazado_265718" data-name="Trazado 265718" d="M515.174,141.45c0-.021.263-.075.72-.23a4.52,4.52,0,0,0,1.692-1.109,6.354,6.354,0,0,0,1.459-2.619,11.05,11.05,0,0,0,.425-3.679,8.535,8.535,0,0,0-.93-3.567,9.145,9.145,0,0,0-1.81-2.424,14.864,14.864,0,0,0-2.243-1.692.706.706,0,0,1,.181.078c.114.061.288.139.5.267a9.67,9.67,0,0,1,1.666,1.24,8.992,8.992,0,0,1,1.88,2.443,8.576,8.576,0,0,1,.967,3.645,10.956,10.956,0,0,1-.451,3.746,6.358,6.358,0,0,1-1.537,2.666,4.374,4.374,0,0,1-1.77,1.082,3.927,3.927,0,0,1-.551.128.707.707,0,0,1-.2.025" transform="translate(-290.468 -71.209)" fill="#455a64"/>
            <path id="Trazado_265719" data-name="Trazado 265719" d="M502.146,180.671a9.913,9.913,0,0,0-3.981-.887l-4.821-.331s-2.37,3.83-5.967,3.815-4.157-2.39-4.157-2.39-6.008,1.421-9.217,5.336a22.675,22.675,0,0,0,30.737-3.16,8.338,8.338,0,0,0-2.594-2.383" transform="translate(-267.612 -101.315)" fill="#ff725e"/>
            <path id="Trazado_265720" data-name="Trazado 265720" d="M498.6,122.632s-.023-.123-.056-.363L498.4,121.2q-.045-.352-.1-.785c-.05-.287-.133-.595-.208-.931l-.25-1.085a3.829,3.829,0,0,0-.171-.59l-.209-.618a21.518,21.518,0,0,0-2.915-5.806,22.453,22.453,0,0,0-6.158-5.968l-1.021-.655c-.357-.2-.731-.379-1.1-.573s-.738-.407-1.139-.556l-1.2-.477c-.2-.079-.406-.164-.613-.239l-.638-.183-1.295-.371c-.439-.111-.894-.171-1.347-.26a11.482,11.482,0,0,0-1.379-.212,20.907,20.907,0,0,0-2.859-.128c-.485.017-.976,0-1.466.047l-1.479.182c-.248.035-.5.051-.746.1l-.74.168c-.493.118-1,.212-1.492.351a23.832,23.832,0,0,0-2.928,1.089l-.725.325c-.121.056-.244.106-.363.166l-.347.2-1.4.8c-.455.29-.888.621-1.337.933-.219.163-.455.305-.662.487l-.625.541a25.392,25.392,0,0,0-2.39,2.341l-1.051,1.335-.264.336-.233.359-.465.723-.467.726-.4.769-.4.775-.2.388c-.059.133-.109.27-.164.406q-.324.814-.65,1.635-.245.848-.491,1.7a22.277,22.277,0,0,0,1,14.148l.726,1.618.873,1.528.219.379.253.356.5.711.5.706.564.654.562.651.281.323.309.3,1.229,1.175a25.267,25.267,0,0,0,2.7,1.982l.695.448c.23.151.484.258.724.389.489.245.964.512,1.456.735l1.5.6.372.148c.126.043.255.075.382.113l.763.22a23.814,23.814,0,0,0,3.053.666c.509.068,1.021.091,1.526.138l.756.062c.252.015.5,0,.753,0l1.49-.029c.492-.027.976-.109,1.458-.16a20.9,20.9,0,0,0,2.814-.529,11.4,11.4,0,0,0,1.336-.4c.435-.152.878-.275,1.3-.448l1.23-.55.607-.271.573-.323,1.125-.641c.376-.2.7-.479,1.05-.711s.684-.474,1.009-.722l.919-.792a22.446,22.446,0,0,0,5.256-6.776,21.523,21.523,0,0,0,2.068-6.158l.12-.642a3.882,3.882,0,0,0,.086-.608q.051-.593.095-1.109c.026-.344.065-.661.074-.951s-.007-.555-.01-.791q-.007-.7-.01-1.074c0-.242,0-.367,0-.367s.01.124.019.365.018.607.033,1.075q.01.356.021.793c-.006.292-.041.61-.064.954s-.055.717-.085,1.114a3.837,3.837,0,0,1-.081.611q-.055.313-.115.645a21.436,21.436,0,0,1-2.042,6.2,22.5,22.5,0,0,1-5.264,6.839l-.924.8c-.326.251-.673.484-1.014.731s-.678.512-1.055.719l-1.133.65-.577.327-.61.275-1.239.557c-.422.175-.868.3-1.306.455a11.685,11.685,0,0,1-1.346.41,21.09,21.09,0,0,1-2.836.54c-.486.053-.974.135-1.47.164l-1.5.032c-.253,0-.506.02-.76.006l-.763-.061c-.509-.047-1.026-.069-1.541-.137a24.034,24.034,0,0,1-3.082-.667l-.771-.222c-.128-.038-.259-.071-.386-.114l-.375-.149-1.514-.6c-.5-.225-.977-.493-1.47-.74-.242-.131-.5-.24-.731-.392l-.7-.451a25.531,25.531,0,0,1-2.725-2l-1.241-1.185-.312-.3-.285-.326-.568-.657-.57-.66-.509-.712-.509-.718-.255-.36-.222-.382-.883-1.543-.734-1.634a22.473,22.473,0,0,1-1.009-14.289l.5-1.72.657-1.651c.056-.136.107-.275.166-.409l.2-.392.4-.782.4-.777.472-.734.469-.73.236-.362.267-.339,1.062-1.348a25.556,25.556,0,0,1,2.416-2.362l.632-.545c.209-.183.448-.327.669-.491.454-.314.891-.647,1.351-.94l1.414-.807.351-.2c.12-.06.245-.111.366-.167l.732-.327a23.909,23.909,0,0,1,2.957-1.094c.5-.14,1.008-.234,1.506-.353l.747-.168c.249-.051.5-.067.753-.1l1.492-.18c.5-.042.99-.028,1.479-.045a21.179,21.179,0,0,1,2.883.135,11.586,11.586,0,0,1,1.391.217c.456.091.915.152,1.357.266l1.3.377.643.186c.209.076.412.162.617.243l1.213.484c.4.151.767.38,1.146.563s.749.378,1.107.58l1.027.663a22.51,22.51,0,0,1,6.174,6.03,21.436,21.436,0,0,1,2.895,5.851l.205.622a3.955,3.955,0,0,1,.166.593q.129.583.241,1.091c.071.339.151.648.2.936l.09.788.119,1.069c.025.241.033.364.033.364" transform="translate(-255.974 -57.336)" fill="#263238"/>
          </g>
        </g>
        <g id="Grupo_871443" data-name="Grupo 871443">
          <g id="Grupo_871442" data-name="Grupo 871442" clip-path="url(#clip-path-2)">
            <path id="Trazado_265721" data-name="Trazado 265721" d="M413.226,42.359a14.537,14.537,0,1,1-13.562-15.451,14.538,14.538,0,0,1,13.563,15.451" transform="translate(-216.9 -15.174)" fill="#fff"/>
            <path id="Trazado_265722" data-name="Trazado 265722" d="M406.214,54.214c0-.906,0-1.662-.005-1.754a3.649,3.649,0,0,1-3.283-3.322c-.106-1.465-.079-4.5-.023-7.248a5.664,5.664,0,0,1,5.324-5.533l.293-.017c3.168-.005,4.942,2.683,4.86,5.85l-.111,11.887-5.125,4.116-.371-.033Z" transform="translate(-227.442 -20.516)" fill="#ffc09d"/>
            <path id="Trazado_265723" data-name="Trazado 265723" d="M410.56,71.54a7.342,7.342,0,0,0,3.881-1.406,3.8,3.8,0,0,1-3.875,2.183Z" transform="translate(-231.793 -39.596)" fill="#ff9b6c"/>
            <path id="Trazado_265724" data-name="Trazado 265724" d="M414.814,51.413c.059.062.413-.215.92-.222s.883.247.937.182c.027-.029-.034-.142-.2-.26a1.268,1.268,0,0,0-.752-.224,1.223,1.223,0,0,0-.732.256c-.154.125-.206.24-.176.268" transform="translate(-234.19 -28.731)" fill="#263238"/>
            <path id="Trazado_265725" data-name="Trazado 265725" d="M415.685,54.765a.41.41,0,0,0,.42.39.393.393,0,0,0,.4-.395.411.411,0,0,0-.42-.39.393.393,0,0,0-.4.4" transform="translate(-234.686 -30.696)" fill="#263238"/>
            <path id="Trazado_265726" data-name="Trazado 265726" d="M410.232,55.108a3.1,3.1,0,0,0-.765-.091c-.12-.005-.234-.022-.259-.1a.61.61,0,0,1,.058-.357l.3-.928a15.641,15.641,0,0,0,.648-2.419,15.647,15.647,0,0,0-.842,2.361l-.283.932a.691.691,0,0,0-.034.471.3.3,0,0,0,.206.162.813.813,0,0,0,.2.016,3.037,3.037,0,0,0,.768-.045" transform="translate(-230.925 -28.912)" fill="#263238"/>
            <path id="Trazado_265727" data-name="Trazado 265727" d="M415.4,47.873c.047.113.455.034.941.065s.885.144.943.036c.025-.051-.049-.156-.213-.259a1.539,1.539,0,0,0-.71-.209,1.521,1.521,0,0,0-.725.133c-.172.084-.256.18-.236.234" transform="translate(-234.524 -26.82)" fill="#263238"/>
            <path id="Trazado_265728" data-name="Trazado 265728" d="M404.466,48.521c.052.092.449,0,.93-.013s.877.058.929-.037c.023-.046-.055-.129-.222-.2a1.671,1.671,0,0,0-.708-.127,1.731,1.731,0,0,0-.708.165c-.166.084-.244.171-.221.216" transform="translate(-228.35 -27.179)" fill="#263238"/>
            <path id="Trazado_265729" data-name="Trazado 265729" d="M426.77,54.788c.051-.025,2.048-.742,2.106,1.337a1.563,1.563,0,0,1-2.046,1.649c-.005-.06-.061-2.986-.061-2.986" transform="translate(-240.945 -30.853)" fill="#ffc09d"/>
            <path id="Trazado_265730" data-name="Trazado 265730" d="M428.314,57.829c.009-.007.037.024.1.051a.364.364,0,0,0,.271,0,.9.9,0,0,0,.392-.816,1.2,1.2,0,0,0-.116-.516.42.42,0,0,0-.28-.27.185.185,0,0,0-.211.105c-.026.059-.012.1-.023.1s-.045-.034-.031-.12a.229.229,0,0,1,.078-.132.273.273,0,0,1,.2-.059.51.51,0,0,1,.388.312,1.225,1.225,0,0,1,.142.576.94.94,0,0,1-.5.913.387.387,0,0,1-.333-.046c-.066-.05-.078-.1-.071-.1" transform="translate(-241.816 -31.714)" fill="#ff9b6c"/>
            <path id="Trazado_265731" data-name="Trazado 265731" d="M413.279,62.5c-.022-.053.387-.169.678-.548a2.333,2.333,0,0,0,.295-.539c.062-.15.11-.244.132-.237s.014.109-.021.273a1.538,1.538,0,0,1-.275.6,1.243,1.243,0,0,1-.536.4c-.159.062-.267.065-.272.047" transform="translate(-233.328 -34.54)" fill="#263238"/>
            <path id="Trazado_265732" data-name="Trazado 265732" d="M414.006,38.754a10.148,10.148,0,0,1-.739-2.434A2.748,2.748,0,0,0,411.8,34.35l-.018.007a2.186,2.186,0,0,0-2.2.178,2.843,2.843,0,0,0-2.118-2.239,7.04,7.04,0,0,0-3.759.247,7.719,7.719,0,0,0-2.48,1.874,10.16,10.16,0,0,0-1.076,1.271l-.953,2.818L399.959,40c.046.1.093.2.151.3V40.3l.668,3.136c.056-.852.032-3.82.088-4.672a4.759,4.759,0,0,0,3.41-1.522,5.592,5.592,0,0,1,1.474-1.452,3.444,3.444,0,0,1,2.6.219l-.035-.033a3.793,3.793,0,0,1,1.162.862,11.822,11.822,0,0,0,.448,5.01c.076.243.287.744.523.839.464.186.6-.287.88-.536a1.234,1.234,0,0,1,.851-.2,18.639,18.639,0,0,0,.6-2.148,1.9,1.9,0,0,0,.871.07q-.129-.323-.26-.646a1,1,0,0,0,.371.174.338.338,0,0,0,.356-.15c.081-.158-.024-.343-.112-.5" transform="translate(-225.376 -18.147)" fill="#263238"/>
            <path id="Trazado_265733" data-name="Trazado 265733" d="M420.847,38.408a2.647,2.647,0,0,1,.3.282A2.176,2.176,0,0,1,421.6,39.7a3.8,3.8,0,0,1,.067.771c0,.279-.029.578-.054.892a8.011,8.011,0,0,0-.036.994,3.535,3.535,0,0,0,.061.525,1.1,1.1,0,0,0,.207.511.458.458,0,0,0,.426.149.681.681,0,0,0,.388-.212,1.572,1.572,0,0,0,.3-.767l-.064.007a2.529,2.529,0,0,0,.36.639.9.9,0,0,0,.585.329.582.582,0,0,0,.313-.051.5.5,0,0,0,.215-.206.519.519,0,0,0,.068-.268.374.374,0,0,0-.094-.237l-.032.028a1.95,1.95,0,0,0,.644.5,1.665,1.665,0,0,0,.2.081.342.342,0,0,0,.072.019.353.353,0,0,0-.068-.03c-.045-.019-.111-.047-.194-.091a2.01,2.01,0,0,1-.622-.5l-.033.028a.389.389,0,0,1,.014.451.455.455,0,0,1-.194.182.531.531,0,0,1-.284.043.847.847,0,0,1-.543-.312,2.493,2.493,0,0,1-.347-.626l-.042-.1-.022.1a1.523,1.523,0,0,1-.287.732.611.611,0,0,1-.347.19.386.386,0,0,1-.362-.126,1.038,1.038,0,0,1-.191-.479,3.468,3.468,0,0,1-.061-.514,8.185,8.185,0,0,1,.031-.985c.024-.314.048-.614.048-.9a3.811,3.811,0,0,0-.077-.782,2.141,2.141,0,0,0-.481-1.02,1.225,1.225,0,0,0-.321-.264" transform="translate(-237.601 -21.684)" fill="#455a64"/>
            <path id="Trazado_265734" data-name="Trazado 265734" d="M399.233,39s.007.008.024.021l.075.056a1,1,0,0,0,.128.084,1.639,1.639,0,0,0,.183.1,2.693,2.693,0,0,0,1.294.25,3.437,3.437,0,0,0,1.837-.652,5.944,5.944,0,0,0,1.594-1.79c.225-.364.41-.738.612-1.082a4.013,4.013,0,0,1,.689-.914,2.076,2.076,0,0,1,.88-.519,1.493,1.493,0,0,1,.461-.047,1.625,1.625,0,0,1,.421.087,1.753,1.753,0,0,1,.963.836,2.066,2.066,0,0,1,.151.456.1.1,0,0,0,0-.032l-.013-.093a1.5,1.5,0,0,0-.111-.344,1.718,1.718,0,0,0-.333-.464,1.778,1.778,0,0,0-.637-.408,1.675,1.675,0,0,0-.434-.094,1.526,1.526,0,0,0-.479.045,2.118,2.118,0,0,0-.91.528,4.069,4.069,0,0,0-.7.926c-.2.347-.389.72-.612,1.081a5.948,5.948,0,0,1-1.572,1.774,3.416,3.416,0,0,1-1.8.655,2.73,2.73,0,0,1-1.28-.225,4.34,4.34,0,0,1-.421-.236" transform="translate(-225.398 -19.45)" fill="#455a64"/>
            <path id="Trazado_265735" data-name="Trazado 265735" d="M404.183,51.715c.059.062.413-.215.92-.222s.883.247.937.182c.027-.029-.034-.142-.2-.26a1.268,1.268,0,0,0-.752-.224,1.223,1.223,0,0,0-.732.256c-.155.125-.206.24-.176.268" transform="translate(-228.188 -28.901)" fill="#263238"/>
            <path id="Trazado_265736" data-name="Trazado 265736" d="M405.975,54.905a.411.411,0,0,0,.42.39.393.393,0,0,0,.4-.395.411.411,0,0,0-.42-.39.393.393,0,0,0-.4.4" transform="translate(-229.204 -30.775)" fill="#263238"/>
            <path id="Trazado_265737" data-name="Trazado 265737" d="M398.465,39.491a1.3,1.3,0,0,1-1.079.6,3.177,3.177,0,0,1-.452-.133c-.148.09-.114.6-.012.738a2.717,2.717,0,0,0,.318.33,1.681,1.681,0,0,1-1.483-.059,2.6,2.6,0,0,0,1.546,2.089.913.913,0,0,0,.837.017,1.052,1.052,0,0,0,.368-.652,11.393,11.393,0,0,0,.373-2.786Z" transform="translate(-223.436 -22.296)" fill="#263238"/>
            <path id="Trazado_265738" data-name="Trazado 265738" d="M414.013,77.817a6.928,6.928,0,0,0-2.67-.99l-3.3-.684s-2,2.426-4.487,2.076-2.65-2.045-2.65-2.045-4.7.777-7.288,3.182a14.978,14.978,0,0,0,9.486,4.38c3.668.449,8.615-1.382,11.891-4.941,0,0,.077-.169-.979-.978" transform="translate(-222.226 -42.989)" fill="#455a64"/>
            <path id="Trazado_265739" data-name="Trazado 265739" d="M413.092,42.244s-.007-.081-.008-.236,0-.394,0-.691q0-.229,0-.509c-.008-.187-.035-.391-.053-.612a10.635,10.635,0,0,0-.206-1.515,13.88,13.88,0,0,0-1.359-3.949,14.52,14.52,0,0,0-9.3-7.416,13.5,13.5,0,0,0-1.809-.329c-.31-.031-.621-.081-.937-.1l-.957-.012c-.16,0-.322-.011-.483,0l-.485.043c-.324.032-.653.049-.979.094a15.337,15.337,0,0,0-1.957.439,15.135,15.135,0,0,0-1.932.7c-.315.145-.619.318-.931.478a7.312,7.312,0,0,0-.908.542,16.2,16.2,0,0,0-1.723,1.282,16.378,16.378,0,0,0-1.519,1.577,13.969,13.969,0,0,0-2.316,3.832,14.3,14.3,0,0,0-.592,9.084,13.974,13.974,0,0,0,1.8,4.1,13.207,13.207,0,0,0,2.845,3.256,7.371,7.371,0,0,0,.83.656c.29.2.569.409.862.594a15.075,15.075,0,0,0,1.825.948,15.257,15.257,0,0,0,1.884.689c.318.088.642.147.959.221l.476.105c.159.031.32.041.479.062l.95.112c.315.025.63.016.942.025a13.456,13.456,0,0,0,1.836-.092,14.522,14.522,0,0,0,10.183-6.148,13.868,13.868,0,0,0,1.858-3.739,10.528,10.528,0,0,0,.4-1.476c.047-.217.1-.415.132-.6s.045-.353.064-.5q.058-.441.091-.685c.022-.155.039-.233.039-.233s0,.08-.016.235-.039.393-.068.689l-.054.508c-.028.186-.078.386-.122.6a10.351,10.351,0,0,1-.383,1.489,13.788,13.788,0,0,1-1.837,3.784,14.616,14.616,0,0,1-10.265,6.263,13.6,13.6,0,0,1-1.86.1c-.315-.009-.635,0-.954-.023l-.964-.11c-.162-.021-.325-.031-.486-.062l-.482-.105c-.322-.074-.65-.133-.973-.222a15.438,15.438,0,0,1-1.913-.694,15.265,15.265,0,0,1-1.853-.959c-.3-.187-.582-.4-.876-.6a7.5,7.5,0,0,1-.843-.664,16.376,16.376,0,0,1-1.568-1.516,16.568,16.568,0,0,1-1.324-1.786,14.181,14.181,0,0,1-1.831-4.164,14.505,14.505,0,0,1,.6-9.227,14.181,14.181,0,0,1,2.355-3.89,16.567,16.567,0,0,1,1.544-1.6,16.352,16.352,0,0,1,1.751-1.3,7.524,7.524,0,0,1,.922-.549c.317-.161.626-.336.946-.482a15.153,15.153,0,0,1,1.961-.71,15.493,15.493,0,0,1,1.986-.441c.331-.046.665-.061.994-.094l.492-.042c.163-.01.327,0,.49,0l.97.015c.32.017.635.069.949.1a13.557,13.557,0,0,1,1.831.339,14.614,14.614,0,0,1,9.367,7.54,13.774,13.774,0,0,1,1.332,3.991,10.354,10.354,0,0,1,.186,1.527c.015.222.038.427.043.615l-.013.511c-.009.3-.016.527-.021.692s-.015.235-.015.235" transform="translate(-216.767 -15.058)" fill="#263238"/>
          </g>
        </g>
      </g>
    </g>
  </g>
</svg>
