<svg xmlns="http://www.w3.org/2000/svg" xmlns:xlink="http://www.w3.org/1999/xlink" width="249.125" height="291.798" viewBox="0 0 249.125 291.798">
  <defs>
    <clipPath id="clip-path">
      <rect id="Rectángulo_291533" data-name="Rectángulo 291533" width="87.173" height="94.501" fill="none"/>
    </clipPath>
    <clipPath id="clip-path-3">
      <rect id="Rectángulo_291529" data-name="Rectángulo 291529" width="16.276" height="19.855" fill="none"/>
    </clipPath>
  </defs>
  <g id="Grupo_871051" data-name="Grupo 871051" transform="translate(-700.414 -3260.438)">
    <g id="Grupo_870998" data-name="Grupo 870998" transform="translate(296.93 -566.025)">
      <path id="Trazado_208683" data-name="Trazado 208683" d="M943.014,570.281l-1.556,63.307c-.265,10.766-2.853,26.526-19.855,25.331-14.673-2.149-18.065-16.24-17.808-26.286.122-4.765.214-8.74.194-9.23,0,0-16.078-1.912-16.85-17.892-.373-7.722.154-23.69.8-38.13a29.8,29.8,0,0,1,28.709-28.434l1.542-.056c16.668.374,25.661,14.739,24.826,31.39" transform="translate(-374.301 3366.679)" fill="#ffc09d"/>
      <path id="Trazado_208684" data-name="Trazado 208684" d="M903.989,623.4a38.648,38.648,0,0,0,20.594-6.9s-4.658,11.859-20.662,10.992Z" transform="translate(-374.301 3366.679)" fill="#ff9b6c"/>
      <path id="Trazado_208685" data-name="Trazado 208685" d="M914.929,574.917c.3.334,2.2-1.079,4.871-1.051,2.668-.013,4.615,1.41,4.908,1.077.144-.148-.164-.749-1.011-1.392a6.683,6.683,0,0,0-3.926-1.273,6.457,6.457,0,0,0-3.881,1.252c-.827.639-1.111,1.238-.961,1.387" transform="translate(-374.301 3366.679)" fill="#263238"/>
      <path id="Trazado_208686" data-name="Trazado 208686" d="M914.407,581a2.161,2.161,0,0,0,2.161,2.1,2.067,2.067,0,0,0,2.156-2.027,2.161,2.161,0,0,0-2.159-2.105A2.067,2.067,0,0,0,914.407,581" transform="translate(-374.301 3366.679)" fill="#263238"/>
      <path id="Trazado_208687" data-name="Trazado 208687" d="M907.557,593.234c.007-.14-1.53-.349-4.016-.577-.63-.042-1.228-.145-1.349-.569a3.2,3.2,0,0,1,.352-1.875q.8-2.309,1.684-4.844c2.332-6.893,4-12.553,3.718-12.644s-2.395,5.422-4.727,12.316q-.84,2.548-1.6,4.869a3.638,3.638,0,0,0-.237,2.474,1.577,1.577,0,0,0,1.064.88,4.3,4.3,0,0,0,1.072.11c2.495.044,4.04,0,4.044-.14" transform="translate(-374.301 3366.679)" fill="#263238"/>
      <path id="Trazado_208688" data-name="Trazado 208688" d="M916.436,564.925c.236.6,2.389.235,4.942.461,2.558.172,4.636.868,4.954.31.14-.267-.237-.827-1.087-1.387a8.083,8.083,0,0,0-3.707-1.193,7.986,7.986,0,0,0-3.832.606c-.92.422-1.372.917-1.27,1.2" transform="translate(-374.301 3366.679)" fill="#263238"/>
      <path id="Trazado_208689" data-name="Trazado 208689" d="M890.554,565.454c.262.493,2.364.034,4.891.05,2.528-.03,4.609.416,4.9-.079.125-.236-.275-.684-1.14-1.1a8.835,8.835,0,0,0-3.711-.754,9.112,9.112,0,0,0-3.744.776c-.885.421-1.306.872-1.191,1.107" transform="translate(-374.301 3366.679)" fill="#263238"/>
      <path id="Trazado_208690" data-name="Trazado 208690" d="M942.134,582.165c.269-.128,10.868-3.643,10.911,7.3s-10.951,8.728-10.971,8.414.06-15.713.06-15.713" transform="translate(-374.301 3366.679)" fill="#ffc09d"/>
      <path id="Trazado_208691" data-name="Trazado 208691" d="M945.4,593.72c.048-.035.191.133.514.279a1.9,1.9,0,0,0,1.425.024c1.154-.429,2.12-2.268,2.166-4.24a6.29,6.29,0,0,0-.545-2.727,2.2,2.2,0,0,0-1.439-1.458.971.971,0,0,0-1.123.527c-.146.306-.075.524-.133.544-.031.027-.236-.182-.149-.635a1.214,1.214,0,0,1,.427-.687,1.439,1.439,0,0,1,1.053-.283,2.678,2.678,0,0,1,2,1.689,6.466,6.466,0,0,1,.673,3.047c-.061,2.205-1.182,4.273-2.762,4.736a2.039,2.039,0,0,1-1.744-.283c-.34-.268-.4-.513-.361-.533" transform="translate(-374.301 3366.679)" fill="#ff9b6c"/>
      <path id="Trazado_208692" data-name="Trazado 208692" d="M957.315,565.015c-2.134-3.937-2.494-8.555-3.579-12.9s-4.271-9.861-8.431-11.52a10.6,10.6,0,0,0-11.814.35c-.561-5.707-4.3-9.071-9.788-10.731s-14.41-1.121-19.8.823c-4.171,1.5-8.269,4.743-13.282,9.543a53.569,53.569,0,0,0-5.825,6.55l-5.37,14.7,3.84,7.957c.227.54.463,1.08.752,1.617l.005-.036,3.114,16.585c.4-4.476.652-20.09,1.054-24.567a25.03,25.03,0,0,0,18.13-7.574c2.55-2.622,4.6-5.95,7.938-7.45,4.3-1.934,9.281-.227,13.676,1.485l-.183-.177a19.958,19.958,0,0,1,6.006,4.682,62.209,62.209,0,0,0,1.718,26.415c.371,1.288,1.414,3.95,2.645,4.479,2.418,1.039,3.171-1.435,4.7-2.708,1.123-.936,2.74-1,4.5-.933a97.923,97.923,0,0,0,3.418-11.226,9.977,9.977,0,0,0,4.575.476q-.644-1.716-1.286-3.43a5.227,5.227,0,0,0,1.93.961,1.779,1.779,0,0,0,1.891-.742c.447-.823-.083-1.809-.529-2.633" transform="translate(-374.301 3366.679)" fill="#263238"/>
      <path id="Trazado_208693" data-name="Trazado 208693" d="M929.481,543.905a13.7,13.7,0,0,1,1.544,1.521,11.428,11.428,0,0,1,2.25,5.381,20.085,20.085,0,0,1,.258,4.065c-.048,1.467-.224,3.034-.4,4.686a41.864,41.864,0,0,0-.313,5.221,18.507,18.507,0,0,0,.257,2.77,5.738,5.738,0,0,0,1.026,2.715,2.4,2.4,0,0,0,2.221.84,3.582,3.582,0,0,0,2.065-1.068,8.265,8.265,0,0,0,1.686-3.995l-.336.028a13.375,13.375,0,0,0,1.815,3.41,4.752,4.752,0,0,0,3.037,1.8,3.078,3.078,0,0,0,1.654-.227A2.658,2.658,0,0,0,947.4,570a2.728,2.728,0,0,0,.39-1.4,1.982,1.982,0,0,0-.465-1.259l-.175.145a10.284,10.284,0,0,0,3.328,2.7,9.29,9.29,0,0,0,1.045.451,1.712,1.712,0,0,0,.377.108,1.986,1.986,0,0,0-.354-.166c-.233-.106-.58-.261-1.011-.5a10.6,10.6,0,0,1-3.207-2.728l-.175.145a2.043,2.043,0,0,1,.018,2.371,2.389,2.389,0,0,1-1.045.936,2.782,2.782,0,0,1-1.5.187,4.452,4.452,0,0,1-2.818-1.71,13.154,13.154,0,0,1-1.746-3.336l-.21-.52-.126.548a8.008,8.008,0,0,1-1.6,3.817,3.23,3.23,0,0,1-1.849.956,2.03,2.03,0,0,1-1.888-.712,5.44,5.44,0,0,1-.946-2.54,18.324,18.324,0,0,1-.257-2.713,42.787,42.787,0,0,1,.29-5.178c.164-1.652.33-3.226.364-4.713a20.034,20.034,0,0,0-.306-4.119,11.283,11.283,0,0,0-2.4-5.428,6.481,6.481,0,0,0-1.656-1.428" transform="translate(-374.301 3366.679)" fill="#455a64"/>
      <path id="Trazado_208694" data-name="Trazado 208694" d="M890.562,575.022c.3.334,2.2-1.079,4.871-1.052,2.669-.012,4.615,1.411,4.908,1.078.144-.148-.164-.749-1.011-1.392a6.683,6.683,0,0,0-3.926-1.273,6.445,6.445,0,0,0-3.88,1.252c-.828.639-1.112,1.238-.962,1.387" transform="translate(-374.301 3366.679)" fill="#263238"/>
      <path id="Trazado_208695" data-name="Trazado 208695" d="M892.164,580.193a2.162,2.162,0,0,0,2.161,2.1,2.066,2.066,0,0,0,2.155-2.027,2.162,2.162,0,0,0-2.158-2.106,2.069,2.069,0,0,0-2.158,2.029" transform="translate(-374.301 3366.679)" fill="#263238"/>
      <path id="Trazado_208696" data-name="Trazado 208696" d="M886.194,545.344c-1.4,1.758-3.527,3.34-5.756,3.046a16.74,16.74,0,0,1-2.361-.756c-.791.453-.673,3.131-.153,3.88a14.2,14.2,0,0,0,1.632,1.774c-2.655,1.345-5.025.593-7.794-.5a13.713,13.713,0,0,0,7.869,11.186c1.394.628,3.1.992,4.4.193a5.532,5.532,0,0,0,2.019-3.385,60.1,60.1,0,0,0,2.317-14.608Z" transform="translate(-374.301 3366.679)" fill="#263238"/>
      <path id="Trazado_208697" data-name="Trazado 208697" d="M929.6,543.81a10.337,10.337,0,0,0-1.626-2.044,10.641,10.641,0,0,0-6.415-2.753,13.247,13.247,0,0,0-4.843.573,19.334,19.334,0,0,0-5.058,2.462c-3.337,2.206-6.284,5.519-9.51,8.831a42.739,42.739,0,0,1-5.055,4.51,20.241,20.241,0,0,1-5.571,2.979,18.346,18.346,0,0,1-10.582.172,18.031,18.031,0,0,1-6.4-3.243l-.855-.74c-.244-.218-.425-.429-.583-.587l-.349-.371a.647.647,0,0,1-.109-.134c0-.005.051.032.136.109l.372.344c.166.149.354.351.6.56l.87.709a18.436,18.436,0,0,0,6.377,3.109,18.233,18.233,0,0,0,10.411-.241,20.052,20.052,0,0,0,5.467-2.948,42.948,42.948,0,0,0,5.008-4.479c3.214-3.3,6.188-6.631,9.582-8.855a19.478,19.478,0,0,1,5.155-2.471,13.381,13.381,0,0,1,4.952-.541,10.63,10.63,0,0,1,6.489,2.905,8.174,8.174,0,0,1,1.218,1.536l.24.45a.576.576,0,0,1,.071.158" transform="translate(-374.301 3366.679)" fill="#455a64"/>
      <path id="Trazado_208698" data-name="Trazado 208698" d="M897.858,628.7l6.063-1.208,37.494-2.313,7.99,2.175-1.046,19.468-18.07,11.523L912.766,658l-11.021-10.039-2.444-9.951Z" transform="translate(-374.301 3366.679)" fill="#ffc09d"/>
      <path id="Trazado_208699" data-name="Trazado 208699" d="M1000.107,659.348a117.945,117.945,0,0,0-7.207-12.879,32.076,32.076,0,0,0-18.484-13.458l-28.888-7.83s-1.5,28.863-21.367,28.863-23.738-27.053-23.738-27.053L866.99,640.325c-1.148.446-8.9,3.128-17.922,22.473-8.592,18.424-12.352,27.85-12.352,27.85l34.44,9.943,2.151,30.973-.731,17.685,104.519-.23-.583-20.222.441-31,1.307,2.112,34.786-13.954s-4.48-9.19-12.939-26.609" transform="translate(-374.301 3366.679)" fill="#033f71"/>
      <path id="Trazado_208700" data-name="Trazado 208700" d="M977.484,678.065c.153,0,.059,11.2-.209,25.012s-.61,25.006-.763,25-.059-11.2.209-25.014.61-25,.763-25" transform="translate(-374.301 3366.679)" fill="#263238"/>
      <path id="Trazado_208701" data-name="Trazado 208701" d="M865.945,671.733a5.131,5.131,0,0,1,.382,1.15c.212.748.492,1.838.818,3.19.653,2.7,1.467,6.459,2.219,10.636s1.3,7.982,1.627,10.744c.166,1.38.283,2.5.345,3.275a5.071,5.071,0,0,1,.043,1.21,5.123,5.123,0,0,1-.257-1.183l-.518-3.249c-.429-2.743-1.036-6.53-1.785-10.7s-1.5-7.928-2.056-10.649c-.255-1.27-.47-2.348-.646-3.226a5.115,5.115,0,0,1-.172-1.2" transform="translate(-374.301 3366.679)" fill="#263238"/>
      <path id="Trazado_208702" data-name="Trazado 208702" d="M839.7,691.509l-14.006,28.115a20.489,20.489,0,0,0,18.34,29.626l40.163-2.327,1.756-18.324-30.562-7.368,11.586-21.9Z" transform="translate(-374.301 3366.679)" fill="#ffc09d"/>
      <path id="Trazado_208703" data-name="Trazado 208703" d="M855.386,721.231c-.021.125-1.391-.1-3.606-.09a27.843,27.843,0,0,0-8.47,1.495,25.825,25.825,0,0,0-7.588,4.027c-1.737,1.372-2.555,2.5-2.654,2.424-.039-.028.141-.325.506-.846a13.775,13.775,0,0,1,1.834-1.954,22.86,22.86,0,0,1,7.678-4.308,24.354,24.354,0,0,1,8.7-1.328,16.874,16.874,0,0,1,2.655.313c.619.127.954.22.945.267" transform="translate(-374.301 3366.679)" fill="#ff9b6c"/>
      <path id="Trazado_208704" data-name="Trazado 208704" d="M867.459,699.114a7.934,7.934,0,0,1-.659,2.146,41.51,41.51,0,0,1-5.228,9.453,7.9,7.9,0,0,1-1.467,1.7c-.133-.1,1.884-2.851,3.905-6.523,2.036-3.663,3.293-6.834,3.449-6.775" transform="translate(-374.301 3366.679)" fill="#ff9b6c"/>
      <path id="Trazado_208705" data-name="Trazado 208705" d="M1011.618,749.157H964.457v-17.8l27.311-11.575L981.64,698.556l27.338-10.967,13.344,29.685c3.1,8.628,6.266,12.724,3.568,20.569-1.405,4.087-7.2,11.314-14.272,11.314" transform="translate(-374.301 3366.679)" fill="#ffc09d"/>
      <path id="Trazado_208706" data-name="Trazado 208706" d="M878.085,727.535h7.863s17.742-6.411,21.39-5.8c3.285.552,15.314,8.543,17.671,10.125a1.5,1.5,0,0,1,.571.726,2.579,2.579,0,0,1-1.435,3.278l-.249.1.108.359a4.257,4.257,0,0,1,.181,1.435,1.734,1.734,0,0,1-3.223.749l.454.806a1.985,1.985,0,0,1,.251,1.077l-.041.732a1.973,1.973,0,0,1-3.424,1.225c-1.526-1.678-4.822-5.039-7.051-5.411a52.455,52.455,0,0,0-7.282-.365,2.468,2.468,0,0,0-2.289,1.576c1.323.1,10.542,4.9,13.8,6.623a3.49,3.49,0,0,1,1.9,2.626c.119,1.021-.4,2.091-2.416,1.619-4.335-1.012-12.135-4.6-12.135-4.6s-4.024-1.149-6.631.69c-3.666,2.587-5.346,3.536-8.495,2.491a26.663,26.663,0,0,1-5.47-2.541l-6.2-.62s-5.866-14.659,2.154-16.906" transform="translate(-374.301 3366.679)" fill="#ffc09d"/>
      <path id="Trazado_208707" data-name="Trazado 208707" d="M901.513,730.531c.015.067,1.259-.331,3.333-.462a17.205,17.205,0,0,1,14.34,6.119c1.341,1.589,1.913,2.762,1.972,2.727a4,4,0,0,0-.394-.821,15.042,15.042,0,0,0-1.395-2.056,16.679,16.679,0,0,0-14.541-6.205,14.9,14.9,0,0,0-2.449.415,4.061,4.061,0,0,0-.866.283" transform="translate(-374.301 3366.679)" fill="#ff9b6c"/>
      <path id="Trazado_208708" data-name="Trazado 208708" d="M903.392,726.222a14.594,14.594,0,0,1,3.47-.6,15.129,15.129,0,0,1,8.069,2.285,32.5,32.5,0,0,1,6.5,5.5l1.782,1.894a5.258,5.258,0,0,0,.68.672,5.132,5.132,0,0,0-.583-.758c-.392-.474-.968-1.151-1.706-1.969a29.867,29.867,0,0,0-6.5-5.627,14.76,14.76,0,0,0-8.251-2.234,9.863,9.863,0,0,0-2.575.471,6.113,6.113,0,0,0-.665.255c-.148.065-.224.1-.22.115" transform="translate(-374.301 3366.679)" fill="#ff9b6c"/>
      <path id="Trazado_208709" data-name="Trazado 208709" d="M975.973,728.09H968.11s-17.742-6.411-21.39-5.8c-3.285.552-15.314,8.543-17.671,10.125a1.492,1.492,0,0,0-.571.727,2.579,2.579,0,0,0,1.435,3.277l.249.1-.108.359a4.259,4.259,0,0,0-.181,1.435,1.734,1.734,0,0,0,3.223.749l-.454.806a1.984,1.984,0,0,0-.251,1.077l.041.732a1.973,1.973,0,0,0,3.424,1.225c1.526-1.678,4.822-5.039,7.051-5.411a52.455,52.455,0,0,1,7.282-.365,2.468,2.468,0,0,1,2.289,1.576c-1.323.1-10.542,4.9-13.8,6.623a3.49,3.49,0,0,0-1.9,2.626c-.119,1.021.4,2.091,2.416,1.619,4.335-1.012,12.135-4.6,12.135-4.6s4.024-1.149,6.631.69c3.666,2.587,5.346,3.536,8.495,2.492a26.7,26.7,0,0,0,5.47-2.542l6.2-.62s5.866-14.659-2.154-16.906" transform="translate(-374.301 3366.679)" fill="#ffc09d"/>
      <path id="Trazado_208710" data-name="Trazado 208710" d="M952.545,731.086c-.015.067-1.259-.331-3.333-.462a17.208,17.208,0,0,0-14.34,6.119c-1.341,1.589-1.913,2.762-1.972,2.727a4.007,4.007,0,0,1,.395-.821,14.93,14.93,0,0,1,1.394-2.056,16.679,16.679,0,0,1,14.541-6.205,14.9,14.9,0,0,1,2.449.415,4.059,4.059,0,0,1,.866.283" transform="translate(-374.301 3366.679)" fill="#ff9b6c"/>
      <path id="Trazado_208711" data-name="Trazado 208711" d="M950.666,726.777a14.58,14.58,0,0,0-3.47-.6,15.131,15.131,0,0,0-8.069,2.285,32.529,32.529,0,0,0-6.5,5.5l-1.782,1.894a5.178,5.178,0,0,1-.68.672,5.235,5.235,0,0,1,.583-.758c.392-.474.969-1.152,1.706-1.969a29.891,29.891,0,0,1,6.5-5.627,14.769,14.769,0,0,1,8.251-2.235,9.888,9.888,0,0,1,2.575.472,6.113,6.113,0,0,1,.665.255c.149.065.224.1.22.115" transform="translate(-374.301 3366.679)" fill="#ff9b6c"/>
      <path id="Trazado_208712" data-name="Trazado 208712" d="M1012.834,721.053c-.042.064-1.07-.69-2.92-1.54a16.313,16.313,0,0,0-1.54-.626c-.556-.222-1.174-.385-1.817-.575a21.649,21.649,0,0,0-8.663-.5c-.661.115-1.294.206-1.871.363a16.177,16.177,0,0,0-1.6.445c-1.935.632-3.043,1.263-3.077,1.2a4.24,4.24,0,0,1,.765-.459,8.19,8.19,0,0,1,.942-.459,13.4,13.4,0,0,1,1.289-.516,14.925,14.925,0,0,1,1.611-.494c.583-.171,1.223-.275,1.894-.4a20.66,20.66,0,0,1,8.8.507c.652.2,1.276.378,1.835.615a15.127,15.127,0,0,1,1.544.675,13.286,13.286,0,0,1,1.221.662,7.925,7.925,0,0,1,.883.564,4.279,4.279,0,0,1,.708.543" transform="translate(-374.301 3366.679)" fill="#ff9b6c"/>
      <path id="Trazado_208713" data-name="Trazado 208713" d="M972.831,751.424h-98.2a5.212,5.212,0,0,1-5.207-4.986l-2.948-67.593a5.213,5.213,0,0,1,5.208-5.44H975.585a5.214,5.214,0,0,1,5.209,5.425l-2.755,67.593a5.212,5.212,0,0,1-5.208,5" transform="translate(-374.301 3366.679)" fill="#e0e0e0"/>
      <path id="Trazado_208714" data-name="Trazado 208714" d="M972.831,751.424a9.2,9.2,0,0,0,.947-.108,5.162,5.162,0,0,0,2.469-1.223A5.248,5.248,0,0,0,978,746.074c.069-1.8.148-3.881.237-6.22.368-9.364.9-22.9,1.558-39.634q.25-6.274.524-13.132.137-3.426.279-6.986c.017-.59.067-1.2.045-1.775a5.19,5.19,0,0,0-.4-1.7,5.084,5.084,0,0,0-4.1-3.043c-.593-.049-1.231-.023-1.853-.029l-3.785,0-7.75,0-16.178.008-72.034.014h-2.392a5.687,5.687,0,0,0-2.277.343,5.038,5.038,0,0,0-3.006,3.248,5.466,5.466,0,0,0-.2,1.12c-.012.376,0,.765.021,1.161q.051,1.178.1,2.352.1,2.349.2,4.68.405,9.326.8,18.362c.522,12.038,1.025,23.65,1.5,34.712q.089,2.074.178,4.123.043,1.023.088,2.041a7.174,7.174,0,0,0,.251,1.965,5.068,5.068,0,0,0,2.4,2.947,4.981,4.981,0,0,0,1.823.587c.628.067,1.3.032,1.953.042l15.261.009,27.391.021,39.663.057,10.783.034,2.8.018c.631.006.955.018.955.018s-.324.012-.955.018l-2.8.018-10.783.034-39.663.057-27.391.021-15.261.009c-.658-.01-1.3.029-1.991-.041a5.361,5.361,0,0,1-4.488-3.754,7.469,7.469,0,0,1-.267-2.046q-.045-1.017-.09-2.041-.09-2.047-.182-4.122c-.485-11.062-.995-22.674-1.524-34.712q-.395-9.028-.8-18.362-.1-2.331-.205-4.679-.051-1.174-.1-2.353c-.021-.389-.034-.786-.021-1.2a5.75,5.75,0,0,1,.219-1.2,5.394,5.394,0,0,1,3.219-3.48,6.067,6.067,0,0,1,2.406-.367h2.392l72.034.014,16.178.007,7.75.005,3.785,0c.629.008,1.24-.02,1.885.033a5.394,5.394,0,0,1,1.818.542,5.335,5.335,0,0,1,2.524,2.684,5.494,5.494,0,0,1,.423,1.8c.022.623-.03,1.205-.047,1.8q-.148,3.56-.29,6.986-.285,6.849-.547,13.131c-.7,16.728-1.276,30.267-1.671,39.63-.1,2.339-.192,4.416-.27,6.218a5.325,5.325,0,0,1-1.812,4.07,5.153,5.153,0,0,1-2.51,1.2,4.272,4.272,0,0,1-.713.069c-.16.005-.241,0-.241,0" transform="translate(-374.301 3366.679)" fill="#263238"/>
      <path id="Trazado_208715" data-name="Trazado 208715" d="M929,713.607a5.379,5.379,0,1,1-5.379-5.378A5.378,5.378,0,0,1,929,713.607" transform="translate(-374.301 3366.679)" fill="#fff"/>
      <path id="Trazado_208716" data-name="Trazado 208716" d="M916.352,600.249c-.323-.146-1.174,2.06-3.664,2.9s-4.749-.3-4.884,0c-.084.127.359.629,1.343,1.037a5.888,5.888,0,0,0,4.028.125,5.136,5.136,0,0,0,2.932-2.489c.438-.892.4-1.533.245-1.578" transform="translate(-374.301 3366.679)" fill="#263238"/>
    </g>
    <g id="Grupo_870997" data-name="Grupo 870997" transform="translate(700.414 3260.438)">
      <g id="Grupo_870996" data-name="Grupo 870996" clip-path="url(#clip-path)">
        <g id="Grupo_870995" data-name="Grupo 870995">
          <g id="Grupo_870994" data-name="Grupo 870994" transform="translate(0)" clip-path="url(#clip-path)">
            <path id="Trazado_264702" data-name="Trazado 264702" d="M92.947,32.449H42.984a4.57,4.57,0,0,0-4.57,4.57V86.982a4.57,4.57,0,0,0,4.57,4.571H77.55L91.454,103V91.552h1.493a4.57,4.57,0,0,0,4.57-4.571V37.019a4.57,4.57,0,0,0-4.57-4.57" transform="translate(-10.504 -8.873)" fill="#fff"/>
            <path id="Trazado_264703" data-name="Trazado 264703" d="M97.35,51.11H38.58a.167.167,0,0,1-.167-.166V37.567a5.118,5.118,0,0,1,5.118-5.118H93.153a4.364,4.364,0,0,1,4.364,4.364v14.13a.166.166,0,0,1-.166.166" transform="translate(-10.504 -8.873)" fill="#ff725e"/>
            <path id="Trazado_264704" data-name="Trazado 264704" d="M70.235,70.253V90.345h-4.65V73.985H61.566V70.253Z" transform="translate(-16.835 -19.211)" fill="#263238"/>
            <path id="Trazado_264705" data-name="Trazado 264705" d="M93.907,70.253v3.014L86.444,90.345H81.393l7.2-16.3H81.938v3.272H77.8V70.253Z" transform="translate(-21.276 -19.211)" fill="#263238"/>
            <path id="Trazado_264706" data-name="Trazado 264706" d="M83.622,46.948c0,.1-4.061.189-9.07.189s-9.07-.084-9.07-.189,4.06-.189,9.07-.189,9.07.084,9.07.189" transform="translate(-17.906 -12.786)" fill="#263238"/>
            <path id="Trazado_264707" data-name="Trazado 264707" d="M92.876,32.391s.1,0,.309,0a3.872,3.872,0,0,1,.9.138,4.533,4.533,0,0,1,2.781,2.107,4.686,4.686,0,0,1,.643,2.512q.005,1.432.012,3.118c.007,2.249.014,4.831.023,7.717.011,5.779.024,12.779.039,20.784.005,4,.01,8.259.016,12.739q0,1.681,0,3.4,0,.861,0,1.731a5.244,5.244,0,0,1-.243,1.777,4.728,4.728,0,0,1-4.139,3.224c-.63.035-1.223.01-1.84.019l.168-.168c0,3.61.005,7.478.008,11.449v.373l-.288-.237L77.362,91.637l.117.042-26.782,0H44.415l-1.56,0a4.764,4.764,0,0,1-4.013-2.3,4.787,4.787,0,0,1-.586-1.479,7.542,7.542,0,0,1-.1-1.563q0-1.527,0-3.043,0-3.031,0-6.011c0-7.946.008-15.612.012-22.914q0-5.476.008-10.67,0-2.595,0-5.112a17.194,17.194,0,0,1,.089-2.521,4.747,4.747,0,0,1,3.183-3.6,7.24,7.24,0,0,1,2.4-.23l4.611.006,8.668.012,26.157.06,7.111.036,1.85.018c.416.007.63.02.63.02s-.214.013-.63.02l-1.85.018-7.111.036-26.157.06-8.668.012-4.611.006a6.953,6.953,0,0,0-2.3.219,4.435,4.435,0,0,0-2.965,3.362,17.238,17.238,0,0,0-.079,2.462q0,2.516,0,5.112,0,5.189.008,10.67c0,7.3.007,14.968.012,22.914q0,2.98,0,6.011,0,1.516,0,3.043a7.236,7.236,0,0,0,.093,1.486,4.423,4.423,0,0,0,.541,1.362A4.338,4.338,0,0,0,41.4,91.033a8.464,8.464,0,0,0,3.012.272H50.7l26.782.005h.066l.052.042,13.9,11.456-.288.136c0-3.971.006-7.839.009-11.449v-.166l.168,0c.607-.007,1.234.017,1.816-.015a4.4,4.4,0,0,0,3.858-2.994,4.917,4.917,0,0,0,.23-1.675l0-1.731q0-1.721,0-3.4c.005-4.479.011-8.735.016-12.739.015-8.005.028-15.005.039-20.784.008-2.887.015-5.468.023-7.717-.062-2.225.292-4.237-.592-5.578a4.51,4.51,0,0,0-2.7-2.108,6.592,6.592,0,0,0-1.2-.192" transform="translate(-10.433 -8.815)" fill="#263238"/>
            <path id="Trazado_264708" data-name="Trazado 264708" d="M90.478,37.825H90.35a1.86,1.86,0,0,1-1.859-1.859v-9.63a1.86,1.86,0,0,1,1.859-1.859h.128a1.86,1.86,0,0,1,1.859,1.859v9.63a1.86,1.86,0,0,1-1.859,1.859" transform="translate(-24.198 -6.693)" fill="#e0e0e0"/>
            <path id="Trazado_264709" data-name="Trazado 264709" d="M90.406,37.753A2.377,2.377,0,0,0,91.5,37.3a1.794,1.794,0,0,0,.642-1.17c.027-.53-.009-1.191-.009-1.889-.012-1.432-.025-3.108-.041-4.958,0-.935-.007-1.914-.011-2.927a1.686,1.686,0,0,0-1.8-1.767,1.683,1.683,0,0,0-1.263.578,1.765,1.765,0,0,0-.411,1.315c0,1.014-.007,1.993-.011,2.929-.015,1.85-.029,3.526-.041,4.958,0,.35-.009.687-.013,1.006a4.841,4.841,0,0,0,.023.874,1.818,1.818,0,0,0,.722,1.123,2.452,2.452,0,0,0,1.122.376.815.815,0,0,1-.32.028A1.834,1.834,0,0,1,89.2,37.5a1.947,1.947,0,0,1-.847-1.2,4.831,4.831,0,0,1-.056-.917c0-.32-.009-.656-.014-1.006-.012-1.432-.025-3.108-.041-4.958,0-.936-.007-1.914-.011-2.929a2.139,2.139,0,0,1,.5-1.561,2.055,2.055,0,0,1,1.548-.71,2.054,2.054,0,0,1,2.172,2.145c0,1.014-.007,1.992-.011,2.927-.015,1.85-.029,3.526-.041,4.958-.017.711,0,1.33-.049,1.918a1.927,1.927,0,0,1-.761,1.257,1.791,1.791,0,0,1-.862.341.706.706,0,0,1-.322-.009" transform="translate(-24.126 -6.621)" fill="#263238"/>
            <path id="Trazado_264710" data-name="Trazado 264710" d="M65.645,37.825h-.128a1.86,1.86,0,0,1-1.859-1.859v-9.63a1.86,1.86,0,0,1,1.859-1.859h.128A1.86,1.86,0,0,1,67.5,26.335v9.63a1.86,1.86,0,0,1-1.859,1.859" transform="translate(-17.407 -6.693)" fill="#e0e0e0"/>
            <path id="Trazado_264711" data-name="Trazado 264711" d="M65.573,37.753a2.377,2.377,0,0,0,1.093-.449,1.794,1.794,0,0,0,.642-1.17c.027-.53-.009-1.191-.009-1.889-.012-1.432-.025-3.108-.041-4.958,0-.935-.007-1.914-.011-2.927a1.686,1.686,0,0,0-1.8-1.767,1.684,1.684,0,0,0-1.264.578,1.765,1.765,0,0,0-.411,1.315c0,1.014-.007,1.993-.011,2.929-.015,1.85-.029,3.526-.041,4.958,0,.35-.009.687-.013,1.006a4.842,4.842,0,0,0,.023.874,1.818,1.818,0,0,0,.722,1.123,2.454,2.454,0,0,0,1.122.376.815.815,0,0,1-.32.028,1.834,1.834,0,0,1-.883-.283,1.947,1.947,0,0,1-.847-1.2,4.831,4.831,0,0,1-.056-.917c0-.32-.009-.656-.014-1.006-.012-1.432-.025-3.108-.041-4.958,0-.936-.007-1.914-.011-2.929a2.139,2.139,0,0,1,.5-1.561,2.055,2.055,0,0,1,1.548-.71,2.054,2.054,0,0,1,2.171,2.145c0,1.014-.007,1.992-.011,2.927-.015,1.85-.029,3.526-.041,4.958-.017.711,0,1.33-.048,1.918a1.931,1.931,0,0,1-.761,1.257,1.791,1.791,0,0,1-.862.341.706.706,0,0,1-.322-.009" transform="translate(-17.335 -6.621)" fill="#263238"/>
            <g id="Grupo_870993" data-name="Grupo 870993" transform="translate(27.869 24.134)" opacity="0.3">
              <g id="Grupo_870992" data-name="Grupo 870992" transform="translate(0)">
                <g id="Grupo_870991" data-name="Grupo 870991" clip-path="url(#clip-path-3)">
                  <path id="Trazado_264712" data-name="Trazado 264712" d="M54.543,33.217A18.111,18.111,0,0,1,38.358,53.072l.729-9.928,9-9.787Z" transform="translate(-38.358 -33.217)"/>
                </g>
              </g>
            </g>
            <path id="Trazado_264713" data-name="Trazado 264713" d="M43.52,23.5A16.94,16.94,0,1,1,24.366,9.112,16.939,16.939,0,0,1,43.52,23.5" transform="translate(-2.682 -2.445)" fill="#fff"/>
            <path id="Trazado_264714" data-name="Trazado 264714" d="M26.048,43.964a18.771,18.771,0,1,1,2.653-.187,18.794,18.794,0,0,1-2.653.187m.044-33.883a15.349,15.349,0,0,0-2.159.153,15.052,15.052,0,1,0,2.159-.153" transform="translate(-1.993 -1.757)" fill="#455a64"/>
            <path id="Trazado_264715" data-name="Trazado 264715" d="M27.407,11.449a1.155,1.155,0,0,1,.246-.015c.162,0,.4-.007.721.01a14.312,14.312,0,0,1,2.744.4,14.932,14.932,0,0,1,4.061,1.66,15.351,15.351,0,0,1,4.347,3.85,15.1,15.1,0,0,1,2.86,6.42,19.214,19.214,0,0,1,.23,1.931,8.1,8.1,0,0,1,.019,1c-.012.334.015.674-.029,1.011a16.186,16.186,0,0,1-.873,4.091,16.627,16.627,0,0,1-2.084,3.873A16.631,16.631,0,0,1,36.4,38.91a15.3,15.3,0,0,1-18.1-.041,16.65,16.65,0,0,1-3.243-3.245,16.811,16.811,0,0,1-2.068-3.883,16.684,16.684,0,0,1-.852-4.1,15.009,15.009,0,0,1,.233-3.938A15.1,15.1,0,0,1,23.694,11.832a15.858,15.858,0,0,1,1.577-.286l1.172-.065.719-.033a1.157,1.157,0,0,1,.245,0,1.219,1.219,0,0,1-.244.037l-.716.069-1.161.1c-.455.07-.977.171-1.556.318a15.412,15.412,0,0,0-4,1.668,15.167,15.167,0,0,0-4.248,3.823,14.946,14.946,0,0,0-2.8,6.3,14.773,14.773,0,0,0-.21,3.855,16.428,16.428,0,0,0,.849,4,16.528,16.528,0,0,0,2.031,3.787,16.326,16.326,0,0,0,3.173,3.16,14.964,14.964,0,0,0,17.658.041,16.3,16.3,0,0,0,3.177-3.154A16.322,16.322,0,0,0,41.4,31.68a15.9,15.9,0,0,0,.868-4c.045-.33.02-.662.033-.99a7.912,7.912,0,0,0-.015-.974,18.957,18.957,0,0,0-.215-1.893,14.893,14.893,0,0,0-2.764-6.315,15.231,15.231,0,0,0-8.231-5.529,15.8,15.8,0,0,0-2.713-.461c-.628-.054-.961-.052-.961-.072" transform="translate(-3.308 -3.126)" fill="#263238"/>
            <path id="Trazado_264716" data-name="Trazado 264716" d="M25.988,43.894a1.929,1.929,0,0,1,.3-.022l.89-.054c.391-.031.873-.08,1.439-.166l1.935-.4a20.444,20.444,0,0,0,4.971-2.087,19.24,19.24,0,0,0,5.283-4.758,18.861,18.861,0,0,0,3.463-7.847,7.983,7.983,0,0,0,.174-1.162c.041-.393.092-.788.125-1.188q.005-.6.01-1.215l0-.614-.057-.615a17.781,17.781,0,0,0-1.047-4.98A18.632,18.632,0,0,0,26.015,6.547,18.593,18.593,0,0,0,8.52,18.767a18.926,18.926,0,0,0,.533,14.059,18.674,18.674,0,0,0,.992,1.875l.537.876.6.807a18.68,18.68,0,0,0,5.275,4.765,19.312,19.312,0,0,0,4.97,2.086,15.32,15.32,0,0,0,1.933.4,11.455,11.455,0,0,0,1.438.169l.89.06a1.884,1.884,0,0,1,.3.033,1.86,1.86,0,0,1-.3.006l-.894-.023a10.819,10.819,0,0,1-1.449-.134,14.762,14.762,0,0,1-1.953-.365,19.115,19.115,0,0,1-5.042-2.047,18.753,18.753,0,0,1-5.379-4.784l-.612-.815L9.8,34.846a19.13,19.13,0,0,1-1.017-1.9,19.175,19.175,0,0,1-.594-14.3A18.919,18.919,0,0,1,26.015,6.169a18.956,18.956,0,0,1,17.8,12.5,18.077,18.077,0,0,1,1.051,5.074l.056.627-.006.625q-.008.622-.016,1.235c-.034.407-.088.809-.131,1.209a8.134,8.134,0,0,1-.182,1.181,19.057,19.057,0,0,1-3.559,7.951,19.334,19.334,0,0,1-5.387,4.778A20.245,20.245,0,0,1,30.593,43.4l-1.955.367c-.571.074-1.057.111-1.45.13s-.693.02-.9.017a2.881,2.881,0,0,1-.3-.017" transform="translate(-1.933 -1.687)" fill="#263238"/>
            <rect id="Rectángulo_291530" data-name="Rectángulo 291530" width="2.923" height="11.711" transform="matrix(0.53, -0.848, 0.848, 0.53, 31.128, 2.645)" fill="#455a64"/>
            <path id="Trazado_264717" data-name="Trazado 264717" d="M52.678,8.853a6.864,6.864,0,0,1,.382-.706l1.072-1.833.036.155C51.913,5.115,48.277,2.877,44.2.327c.116-.027-.261.06.26-.061h0v0l0,.005-.007.01-.012.02-.025.04-.049.079-.1.159-.2.315-.392.624L42.9,2.743l-.059-.256c2.8,1.758,5.232,3.326,6.991,4.469l2.076,1.36a7.856,7.856,0,0,1,.766.536,5.37,5.37,0,0,1-.743-.408L49.839,7.2c-1.789-1.075-4.319-2.61-7.189-4.4l-.158-.1.1-.158.761-1.223L43.742.7l.2-.315.1-.159.049-.079L44.112.1l.012-.02.006-.01,0-.005v0h0c.522-.12.145-.033.262-.06,4.08,2.55,7.684,4.839,9.89,6.272l.1.062-.06.093c-.517.8-.934,1.414-1.213,1.824a4.481,4.481,0,0,1-.432.6" transform="translate(-11.619 0)" fill="#263238"/>
            <rect id="Rectángulo_291531" data-name="Rectángulo 291531" width="12.326" height="2.923" transform="matrix(0.66, -0.751, 0.751, 0.66, 0.6, 13.422)" fill="#455a64"/>
            <path id="Trazado_264718" data-name="Trazado 264718" d="M2.963,16.866a8.535,8.535,0,0,1,.612-.769l1.683-2c1.43-1.683,3.414-4,5.7-6.615l.017.262-2.2-1.927c.533-.036.146-.009.264-.016l0,0-.005.006-.009.012-.02.022-.039.045-.078.089-.157.178-.311.354-.615.7-1.2,1.356L4.381,11.077.85,15.01.84,14.853,2.394,16.3a7.041,7.041,0,0,1,.569.565,4.646,4.646,0,0,1-.585-.448c-.384-.312-.959-.782-1.684-1.4L.61,14.949l.073-.086,3.445-4.008,2.2-2.532L7.523,6.962l.613-.7.311-.355L8.6,5.73l.078-.089L8.722,5.6l.02-.023.009-.012.005-.005,0,0c.12-.008-.264.014.27-.019l2.193,1.931.139.124-.123.139c-2.35,2.664-4.433,4.975-5.913,6.6l-1.736,1.9a6.073,6.073,0,0,1-.627.639" transform="translate(-0.167 -1.514)" fill="#263238"/>
            <path id="Trazado_264719" data-name="Trazado 264719" d="M22.961,30.335,24.4,27.583l5.166,2.335L35.13,19.8l2.6,1.491-7.2,12.764Z" transform="translate(-6.279 -5.415)" fill="#455a64"/>
            <path id="Trazado_264720" data-name="Trazado 264720" d="M30.53,34.072l-.015-.007-7.588-3.73.009-.017,1.452-2.766.015.007,5.151,2.328,5.56-10.118.016.009,2.618,1.5-.009.015Zm-7.554-3.754,7.539,3.707L37.7,21.29l-2.569-1.472L29.569,29.932l-.015-.007L24.4,27.6Z" transform="translate(-6.269 -5.406)" fill="#263238"/>
            <path id="Trazado_264721" data-name="Trazado 264721" d="M14.739,54.63a3.694,3.694,0,0,1-.79-.332,8.364,8.364,0,0,1-.889-.469c-.336-.2-.733-.41-1.133-.7a20.345,20.345,0,0,1-2.71-2.169A21.354,21.354,0,0,1,4.36,44.028,20.3,20.3,0,0,1,3.247,40.74c-.136-.476-.2-.92-.271-1.3a8.26,8.26,0,0,1-.137-1,3.748,3.748,0,0,1-.043-.855c.075-.009.187,1.206.71,3.088a22.593,22.593,0,0,0,1.173,3.214A24.769,24.769,0,0,0,6.752,47.52a24.789,24.789,0,0,0,2.707,3.189,22.653,22.653,0,0,0,2.621,2.2c1.59,1.134,2.694,1.654,2.66,1.721" transform="translate(-0.761 -10.277)" fill="#263238"/>
            <path id="Trazado_264722" data-name="Trazado 264722" d="M5.407,51.485a6.987,6.987,0,0,1-1.213-1.4A23.856,23.856,0,0,1,.343,42.058a6.978,6.978,0,0,1-.332-1.822A12.54,12.54,0,0,1,.6,41.983a32.069,32.069,0,0,0,3.814,7.95,12.6,12.6,0,0,1,.994,1.553" transform="translate(0 -11.002)" fill="#263238"/>
          </g>
        </g>
      </g>
    </g>
  </g>
</svg>
