<svg xmlns="http://www.w3.org/2000/svg" xmlns:xlink="http://www.w3.org/1999/xlink" width="217.061" height="226.469" viewBox="0 0 217.061 226.469">
  <defs>
    <clipPath id="clip-path">
      <rect id="Rectángulo_291369" data-name="Rectángulo 291369" width="217.061" height="218.361" fill="#fff"/>
    </clipPath>
    <clipPath id="clip-path-2">
      <rect id="Rectángulo_291420" data-name="Rectángulo 291420" width="18.697" height="12.924" fill="none"/>
    </clipPath>
    <clipPath id="clip-path-3">
      <rect id="Rectángulo_291421" data-name="Rectángulo 291421" width="9.434" height="30.201" fill="#0b3e69"/>
    </clipPath>
    <clipPath id="clip-path-4">
      <rect id="Rectángulo_291423" data-name="Rectángulo 291423" width="6.14" height="18.884" fill="none"/>
    </clipPath>
    <clipPath id="clip-path-5">
      <rect id="Rectángulo_291424" data-name="Rectángulo 291424" width="9.811" height="1.547" fill="none"/>
    </clipPath>
    <clipPath id="clip-path-6">
      <rect id="Rectángulo_291425" data-name="Rectángulo 291425" width="2.592" height="6.833" fill="none"/>
    </clipPath>
  </defs>
  <g id="Grupo_871319" data-name="Grupo 871319" transform="translate(-336 -847.998)">
    <g id="Grupo_870715" data-name="Grupo 870715" transform="translate(336 847.998)">
      <g id="Grupo_870714" data-name="Grupo 870714" clip-path="url(#clip-path)">
        <path id="Trazado_215321" data-name="Trazado 215321" d="M16.525,106.239C43.655,84.483-3.326,49.372,7.076,14.646s44.729.976,63.2,18.084,40.116-13.5,54.465-14.322,6.274,12.556,12.746,29.885,54.177,2.938,73.3,19.675-11.344,52.357-13.909,73.6,30.376,45.273,9.271,76.8L101.3,217.738c-10.55-3.262-17.432-5.847-17.432-5.847C-14.283,169.253-10.6,128,16.525,106.239" transform="translate(0 0)" fill="#fff"/>
      </g>
    </g>
    <g id="Grupo_870801" data-name="Grupo 870801" transform="translate(9789 11182.724)">
      <path id="Trazado_215271" data-name="Trazado 215271" d="M219.189,582.957c0,3.333-43.005,6.035-96.055,6.035s-96.054-2.7-96.054-6.035,43.03-3.722,96.079-3.722,96.03.389,96.03,3.722" transform="translate(-9457.912 -10697.248)" fill="#033f71" opacity="0.395"/>
      <path id="Trazado_263911" data-name="Trazado 263911" d="M139.874,232.6s-4.586-3.2-6.692-2.619-4.811,3.54-4.811,3.54,5.345-1.538,6.958-1.218a29.835,29.835,0,0,0,4.545.3" transform="translate(-9501.325 -10425.11)" fill="#359547"/>
      <path id="Trazado_263912" data-name="Trazado 263912" d="M152.475,238c-.667,1.511-1.82,2.772-2.465,4.293a7.243,7.243,0,0,0-.032,5.508,9.923,9.923,0,0,0,2.339-4.691,25.66,25.66,0,0,0,.534-4.9Z" transform="translate(-9512.382 -10429.354)" fill="#359547"/>
      <path id="Trazado_263913" data-name="Trazado 263913" d="M144.32,236.846c.211-.618-4.983-.348-6.638,1.654s-3.309,4.18-1.916,9.231c0,0,3.135-5.475,3.135-5.394s5-4.273,5.419-5.492" transform="translate(-9504.929 -10428.593)" fill="#359547"/>
      <path id="Trazado_263914" data-name="Trazado 263914" d="M154.381,236.035c-.481.187,4.237,1.623,6.413,1.8a6.625,6.625,0,0,0,3.493-.551s-3.162-3.865-9.906-1.248" transform="translate(-9514.95 -10427.846)" fill="#359547"/>
      <path id="Trazado_263915" data-name="Trazado 263915" d="M204.551,277.033s2.271-.923,2.91-.284,3.266,4.117,5.75,4.33c0,0-2.272-4.827-4.33-5.607-1.354-.514-4.33,1.561-4.33,1.561" transform="translate(-9541.285 -10448.966)" fill="#e0e0e0"/>
      <path id="Trazado_263916" data-name="Trazado 263916" d="M200.381,273.761a4.767,4.767,0,0,0-.946-2.6c-.855-.9-3.948-1.51-3.948-1.51a12.029,12.029,0,0,0,2.255,2.654,12.738,12.738,0,0,0,2.639,1.458" transform="translate(-9536.531 -10445.955)" fill="#e0e0e0"/>
      <path id="Trazado_263917" data-name="Trazado 263917" d="M200.983,278.092a3.334,3.334,0,0,0-2.7,1.954,16.029,16.029,0,0,0-1.632,4.3c.093-.165,2.984-1.43,3.744-3.03a6.688,6.688,0,0,0,.589-3.22" transform="translate(-9537.136 -10450.384)" fill="#e0e0e0"/>
      <path id="Trazado_263918" data-name="Trazado 263918" d="M206.531,278.092s.284,3.766.923,4.4a13.529,13.529,0,0,1,1.561,2.981s1.42-3.407.639-5.04-3.123-2.346-3.123-2.346" transform="translate(-9542.324 -10450.384)" fill="#e0e0e0"/>
      <path id="Trazado_263919" data-name="Trazado 263919" d="M172.394,293.388c-.182.273-3.826,3.1-4.373,4.464s-.091,3.462,0,4.1,3.28-.82,3.826-3.279a28.389,28.389,0,0,0,.547-5.284" transform="translate(-9521.985 -10458.407)" fill="#359547"/>
      <path id="Trazado_263920" data-name="Trazado 263920" d="M179,288.937c0,.455.055,4.92,1.228,6.477a20.9,20.9,0,0,0,3.347,3.213s.771-5.643-.856-7.386a8.791,8.791,0,0,0-3.718-2.3" transform="translate(-9527.884 -10456.072)" fill="#359547"/>
      <path id="Trazado_263921" data-name="Trazado 263921" d="M169.519,290.485c-.266-.063-3.562-.374-5.129,1.5A17.43,17.43,0,0,0,161.944,296s4.984-2.473,5.9-3.567,1.676-1.944,1.676-1.944" transform="translate(-9518.936 -10456.854)" fill="#359547"/>
      <path id="Trazado_263922" data-name="Trazado 263922" d="M182.645,285.742a2.591,2.591,0,0,1,2.823-.073c1.482.922,3.943,4.5,3.943,4.5s-3.012-.2-4.6-1.7a10.43,10.43,0,0,1-2.166-2.728" transform="translate(-9529.794 -10454.153)" fill="#e0e0e0"/>
      <path id="Trazado_263923" data-name="Trazado 263923" d="M168.086,285.141a11.1,11.1,0,0,0-3.371-1.987c-1.458-.361-5.739.706-5.739.706a7.666,7.666,0,0,0,4.965,1.281,16.231,16.231,0,0,1,4.145,0" transform="translate(-9517.379 -10453)" fill="#359547"/>
      <path id="Trazado_263924" data-name="Trazado 263924" d="M164.126,322.215s-1.367,2.642,0,4.1a12.1,12.1,0,0,1,2.1,4.372s2.36-2.277,1.175-4.828a8.273,8.273,0,0,0-3.279-3.644" transform="translate(-9519.761 -10473.529)" fill="#359547"/>
      <path id="Trazado_263925" data-name="Trazado 263925" d="M156.735,322.335c-.364.182-2.733,3.371-2.915,5.648s-.364,6.195,0,5.921,3.007-2.733,3.735-5.1-.82-6.468-.82-6.468" transform="translate(-9514.563 -10473.592)" fill="#359547"/>
      <path id="Trazado_263926" data-name="Trazado 263926" d="M148.258,321.8c-.364.091-3.826-.547-5.739,1.913a30.286,30.286,0,0,0-3.371,6.013s5.011-2.563,6.195-3.969,2.915-3.957,2.915-3.957" transform="translate(-9506.978 -10473.305)" fill="#359547"/>
      <path id="Trazado_263927" data-name="Trazado 263927" d="M198.923,312.613a9.788,9.788,0,0,0,0,5.831A26.447,26.447,0,0,0,201.148,323s1.542-5.466.543-6.924-2.768-3.462-2.768-3.462" transform="translate(-9538.091 -10468.492)" fill="#e0e0e0"/>
      <path id="Trazado_263928" data-name="Trazado 263928" d="M200.634,311.733c.369.342,4.64,6.475,7.545,7.023s.455-.232.455-.232-.915-4.134-2.216-5.845-5.783-.946-5.783-.946" transform="translate(-9539.23 -10467.94)" fill="#e0e0e0"/>
      <path id="Trazado_263929" data-name="Trazado 263929" d="M199.265,308.429a47.364,47.364,0,0,1,4.386-2.745c1.261-.571,5.309.177,5.309.177s-4.951,2.577-6.141,2.3-3.553.781-3.553.781" transform="translate(-9538.513 -10464.745)" fill="#e0e0e0"/>
      <path id="Trazado_263930" data-name="Trazado 263930" d="M219.668,248.96s-2.733,2.895-2.37,5.157a26.666,26.666,0,0,0,1.169,4.433l1.2-3.981Z" transform="translate(-9547.955 -10435.103)" fill="#e0e0e0"/>
      <path id="Trazado_263931" data-name="Trazado 263931" d="M222.923,247.743s-.633,4.433.633,6.242,2.986,5.247,3.166,4.976a4.854,4.854,0,0,0,.9-5.971,17.167,17.167,0,0,0-4.7-5.247" transform="translate(-9550.84 -10434.463)" fill="#e0e0e0"/>
      <path id="Trazado_263932" data-name="Trazado 263932" d="M214.371,248.972s-4.363-1.267-4.991.814-1.17,3.89-1.17,3.89a17.06,17.06,0,0,1,3.08-2.543,32.081,32.081,0,0,0,3.081-2.161" transform="translate(-9543.206 -10434.908)" fill="#e0e0e0"/>
      <path id="Trazado_263933" data-name="Trazado 263933" d="M180,248.246s.13-.118.355-.31c1.03-.879,4.042-3.3,5.561-2.927a32.156,32.156,0,0,1,4.4,1.6s-6.594,3.427-10.317,1.638" transform="translate(-9528.408 -10433.009)" fill="#e0e0e0"/>
      <path id="Trazado_263934" data-name="Trazado 263934" d="M175.5,251.555c.013-.329-1.983-.859-3.735.95a7.579,7.579,0,0,0-2.024,2.921s5.637-.749,5.759-3.87" transform="translate(-9523.027 -10436.287)" fill="#359547"/>
      <path id="Trazado_263935" data-name="Trazado 263935" d="M180.049,252.692s-2,2.307-.466,4.569,2.87,4.433,2.87,4.433a7.319,7.319,0,0,0,0-4.5,16.16,16.16,0,0,0-2.4-4.5" transform="translate(-9527.884 -10437.06)" fill="#359547"/>
      <path id="Trazado_263936" data-name="Trazado 263936" d="M190.483,259.636c-.09-.551.639-5.068-5.338-4.622H184.6s2.859,4.614,3.512,6.062a6.263,6.263,0,0,0,1.85,2.533c.7.633.613-3.423.522-3.973" transform="translate(-9530.819 -10438.262)" fill="#e0e0e0"/>
      <path id="Trazado_263937" data-name="Trazado 263937" d="M197.177,307.791a5.2,5.2,0,0,0-1.418-3.858c-.092-.1-.224-.2-.345-.141a.322.322,0,0,0-.145.212,3.308,3.308,0,0,0,.334,2.484,8.229,8.229,0,0,0,1.617,1.986" transform="translate(-9536.356 -10463.857)" fill="#e0e0e0"/>
      <path id="Trazado_263938" data-name="Trazado 263938" d="M157.779,315.995a10.19,10.19,0,0,0-4.843-4.431.7.7,0,0,0-.406-.082.535.535,0,0,0-.367.482,1.743,1.743,0,0,0,.462,1.208,8.482,8.482,0,0,0,5.382,3.219" transform="translate(-9513.801 -10467.895)" fill="#359547"/>
      <path id="Trazado_263939" data-name="Trazado 263939" d="M195.769,306.93c0,.02-.308.019-.856.087a9.54,9.54,0,0,0-2.256.581,12.937,12.937,0,0,0-3.007,1.695,31.344,31.344,0,0,0-3.18,2.821c-2.172,2.111-4.084,4.073-5.411,5.547-.665.736-1.191,1.342-1.553,1.762l-.42.482a.113.113,0,1,1-.034-.028c.087-.117.216-.29.388-.508.343-.437.852-1.06,1.5-1.81,1.3-1.5,3.2-3.488,5.374-5.6a29.711,29.711,0,0,1,3.213-2.827,12.582,12.582,0,0,1,3.072-1.677,8.785,8.785,0,0,1,2.3-.521,5.648,5.648,0,0,1,.641-.021.873.873,0,0,1,.223.018" transform="translate(-9527.846 -10465.5)" fill="#267134"/>
      <path id="Trazado_263940" data-name="Trazado 263940" d="M166.62,326.589c-.035.023-.39-.593-1.167-1.42a9.9,9.9,0,0,0-7.949-3.121c-1.131.077-1.811.287-1.821.246a1.96,1.96,0,0,1,.471-.16,8.233,8.233,0,0,1,1.337-.239,9.5,9.5,0,0,1,8.074,3.17,8.308,8.308,0,0,1,.818,1.084,1.917,1.917,0,0,1,.236.439" transform="translate(-9515.651 -10473.336)" fill="#267134"/>
      <path id="Trazado_263941" data-name="Trazado 263941" d="M179.19,251.794a.575.575,0,0,1,0,.13c-.008.1-.019.223-.032.38-.034.348-.083.837-.144,1.46-.128,1.267-.313,3.1-.516,5.368-.4,4.534-.877,10.812-.868,17.758s.509,13.225.861,17.764c.184,2.258.334,4.091.438,5.375.048.623.086,1.113.113,1.462.01.158.018.283.024.381a.065.065,0,1,1-.022,0c-.012-.1-.027-.222-.045-.379-.037-.348-.088-.836-.154-1.458-.128-1.267-.307-3.1-.507-5.37-.392-4.536-.9-10.817-.926-17.776s.489-13.24.932-17.772c.223-2.267.431-4.1.585-5.363l.185-1.455.054-.377a.573.573,0,0,1,.026-.128" transform="translate(-9527.048 -10436.589)" fill="#267134"/>
      <path id="Trazado_263942" data-name="Trazado 263942" d="M193.009,277.5a3.636,3.636,0,0,1-.636.1c-.41.044-1,.124-1.73.24a32.128,32.128,0,0,0-10.806,3.784c-.641.363-1.154.67-1.5.891a3.69,3.69,0,0,1-.557.321,3.6,3.6,0,0,1,.51-.392c.335-.244.837-.572,1.471-.954a28.8,28.8,0,0,1,10.861-3.8c.734-.1,1.331-.155,1.745-.173a3.641,3.641,0,0,1,.643-.012" transform="translate(-9527.242 -10450.07)" fill="#e0e0e0"/>
      <path id="Trazado_263943" data-name="Trazado 263943" d="M163.113,252.624a1.076,1.076,0,0,1-.058-.243l-.122-.7a10.157,10.157,0,0,0-.219-1.1c-.11-.424-.194-.918-.378-1.439q-.124-.4-.26-.825c-.088-.288-.221-.572-.335-.875-.22-.61-.536-1.227-.851-1.883a24.776,24.776,0,0,0-2.6-3.951,30.642,30.642,0,0,0-6.366-5.766c-.445-.327-.879-.577-1.244-.821s-.692-.434-.958-.591l-.609-.37a1.1,1.1,0,0,1-.205-.142,1.042,1.042,0,0,1,.227.1l.63.335c.273.146.607.327.98.561s.813.476,1.266.8a29.113,29.113,0,0,1,6.45,5.757,24.061,24.061,0,0,1,2.61,4,20.336,20.336,0,0,1,.84,1.909c.112.307.242.6.327.887l.249.836a14.512,14.512,0,0,1,.349,1.457,9.024,9.024,0,0,1,.184,1.115c.033.289.06.523.082.709a1.066,1.066,0,0,1,.014.249" transform="translate(-9512.096 -10427.209)" fill="#267134"/>
      <path id="Trazado_263944" data-name="Trazado 263944" d="M200.167,248.521a1.1,1.1,0,0,1-.229.1l-.669.252c-.584.211-1.423.531-2.452.943a70.663,70.663,0,0,0-15.141,8.332c-.9.648-1.619,1.186-2.109,1.566l-.57.43a.126.126,0,1,1-.028-.034l.546-.463c.474-.4,1.18-.958,2.07-1.624a63.312,63.312,0,0,1,15.176-8.352c1.038-.4,1.887-.694,2.48-.88l.683-.213a1.074,1.074,0,0,1,.242-.06" transform="translate(-9527.771 -10434.87)" fill="#e0e0e0"/>
      <path id="Trazado_263945" data-name="Trazado 263945" d="M176.3,377.138h-17.16l-1.794-20.965h20.965Z" transform="translate(-9516.524 -10491.342)" fill="#eae4c6"/>
      <rect id="Rectángulo_291408" data-name="Rectángulo 291408" width="23.686" height="3.224" transform="translate(-9360.504 -10135.17)" fill="#033f71"/>
      <path id="Trazado_263946" data-name="Trazado 263946" d="M177.948,362.849c0,.06-5.3.108-11.829.108s-11.83-.049-11.83-.108,5.3-.108,11.83-.108,11.829.048,11.829.108" transform="translate(-9514.92 -10494.788)" fill="#ebebeb"/>
      <path id="Trazado_263962" data-name="Trazado 263962" d="M285.574,156.547l-98.067-.052A5.491,5.491,0,0,1,182.019,151L182.1,5.488A5.491,5.491,0,0,1,187.59,0l98.068.052a5.49,5.49,0,0,1,5.488,5.494l-.077,145.513a5.491,5.491,0,0,1-5.494,5.488" transform="translate(-9529.467 -10304.504)" fill="#263238"/>
      <rect id="Rectángulo_291417" data-name="Rectángulo 291417" width="102.172" height="130.692" transform="translate(-9344.173 -10293.661)" fill="#fff"/>
      <path id="Trazado_263963" data-name="Trazado 263963" d="M296.274,308.067a4.184,4.184,0,1,1-4.182-4.187,4.184,4.184,0,0,1,4.182,4.187" transform="translate(-9585.012 -10463.911)" fill="#455a64"/>
      <path id="Trazado_263964" data-name="Trazado 263964" d="M294.59,11.262,262.9,11.246a.578.578,0,0,1-.578-.578v-.573a.577.577,0,0,1,.578-.577l31.689.017a.578.578,0,0,1,.578.578v.573a.578.578,0,0,1-.578.578" transform="translate(-9571.593 -10309.496)" fill="#455a64"/>
      <path id="Trazado_263965" data-name="Trazado 263965" d="M393.312,154.581h0a1.228,1.228,0,0,1-1.227-1.229l.049-92.785a1.228,1.228,0,0,1,2.456,0l-.049,92.785a1.228,1.228,0,0,1-1.228,1.227" transform="translate(-9639.662 -10335.632)" fill="#e0e0e0"/>
      <path id="Trazado_263966" data-name="Trazado 263966" d="M294.66,45.145c0,.068-9.479.119-21.169.113s-21.171-.067-21.171-.135S261.8,45,273.491,45.01s21.169.067,21.169.135" transform="translate(-9566.345 -10328.114)" fill="#263238"/>
      <path id="Trazado_263967" data-name="Trazado 263967" d="M209.706,44.191a.96.96,0,0,1,.137-.01l.379-.014,1.4-.035-.044.045q-.008-.466-.017-1.014c0-.189-.017-.365,0-.585a.544.544,0,0,1,.475-.437c.227,0,.423-.015.67,0a.551.551,0,0,1,.465.548c.005.473.01.967.016,1.479l-.073-.072,1.763-.018-.076.077c-.006-.71-.012-1.445-.019-2.2,0-.188,0-.375,0-.56a.561.561,0,0,0-.245-.411l-.77-.76-.744-.735-.36-.356c-.125-.12-.22-.242-.361-.271a.465.465,0,0,0-.4.076c-.105.088-.22.217-.328.322l-.634.638c-.4.413-.814.792-1.114,1.146a1.244,1.244,0,0,0-.089.654c0,.218,0,.425,0,.62q-.005.568-.009,1c0,.252-.007.463-.009.641a1.959,1.959,0,0,1-.01.232,1.4,1.4,0,0,1-.013-.211c-.005-.175-.011-.382-.019-.63q-.011-.436-.024-1.009-.006-.3-.012-.635,0-.17-.006-.348a.739.739,0,0,1,.1-.372c.328-.4.716-.755,1.117-1.181l.628-.643c.114-.111.2-.221.341-.338a.609.609,0,0,1,.519-.1.959.959,0,0,1,.427.305l.362.355.746.732.773.759a.717.717,0,0,1,.292.517q0,.28,0,.563c.005.753.01,1.487.015,2.2v.077h-.077l-1.764.01h-.073v-.073c0-.512,0-1.006-.006-1.479a.418.418,0,0,0-.349-.421c-.2-.011-.442,0-.638,0a.425.425,0,0,0-.375.337c-.017.174,0,.383-.009.562q0,.547,0,1.014v.045h-.044l-1.423-.014-.37-.008a.577.577,0,0,1-.121-.008" transform="translate(-9543.95 -10324.806)" fill="#263238"/>
      <path id="Trazado_263968" data-name="Trazado 263968" d="M371.857,39.422a.069.069,0,0,0-.054-.025l-4.156-.022h-1.22l-.359,0-.032-.238-.063-.468a.07.07,0,0,0-.069-.06h-.018l-1.137.006c-.091,0-.151,0-.151.075s.059.072.15.077l1.058.022.588,4.556a.07.07,0,0,0,.069.061l3.395.017,1.275-.006c.108,0,.163,0,.163-.075s-.054-.072-.162-.077l-4.553-.061-.108-.807,4.785.066h0a.071.071,0,0,0,.069-.058l.354-1.9.189-1.025a.071.071,0,0,0-.015-.057m-5.768.1,5.555.072-.492,2.665-3.41-.016h-1.014l-.273,0Z" transform="translate(-9625.243 -10324.759)" fill="#263238"/>
      <path id="Trazado_263969" data-name="Trazado 263969" d="M369.961,50.444a.545.545,0,0,0-.192-.318.561.561,0,0,0-.537-.1.571.571,0,0,0-.01,1.077.556.556,0,0,0,.192.035.566.566,0,0,0,.348-.119.544.544,0,0,0,.2-.316.407.407,0,0,0,.007-.131.412.412,0,0,0-.005-.132m-.671.477a.375.375,0,0,1,.007-.7.373.373,0,0,1,.129-.023.381.381,0,0,1,.229.076.406.406,0,0,1,.146.21.665.665,0,0,1,.017.08l0,.012,0,.012a.729.729,0,0,1-.019.08.408.408,0,0,1-.151.209.382.382,0,0,1-.359.046" transform="translate(-9627.47 -10330.732)" fill="#263238"/>
      <path id="Trazado_263970" data-name="Trazado 263970" d="M376.37,50.5a.544.544,0,0,0-.193-.318.565.565,0,0,0-.537-.1.571.571,0,0,0-.01,1.077.561.561,0,0,0,.539-.085.54.54,0,0,0,.2-.316.387.387,0,0,0,.007-.132.427.427,0,0,0,0-.131m-.672.477a.375.375,0,0,1,.008-.7.371.371,0,0,1,.129-.023.382.382,0,0,1,.228.076.4.4,0,0,1,.146.211.578.578,0,0,1,.018.08l0,.012,0,.012a.685.685,0,0,1-.019.08.4.4,0,0,1-.151.209.381.381,0,0,1-.359.046" transform="translate(-9630.832 -10330.76)" fill="#263238"/>
      <path id="Trazado_263971" data-name="Trazado 263971" d="M241.027,267.038c0,.674-.488,1.08-1.293,1.08h-.85v1h-.335l0-3.164h1.184c.8,0,1.292.407,1.292,1.085m-.334,0c0-.506-.334-.8-.967-.8h-.841v1.582h.841c.633,0,.967-.289.967-.786" transform="translate(-9559.12 -10444.015)" fill="#263238"/>
      <path id="Trazado_263972" data-name="Trazado 263972" d="M247.354,267.612v2.377h-.307v-.434a.947.947,0,0,1-.854.456.921.921,0,0,1-1-1.022v-1.378h.321v1.347a.665.665,0,0,0,.714.764.773.773,0,0,0,.809-.863v-1.247Z" transform="translate(-9562.604 -10444.885)" fill="#263238"/>
      <path id="Trazado_263973" data-name="Trazado 263973" d="M252.832,267.577v.311c-.028,0-.055,0-.077,0a.769.769,0,0,0-.8.876v1.211h-.321v-2.377h.308v.465a.9.9,0,0,1,.891-.483" transform="translate(-9565.984 -10444.867)" fill="#263238"/>
      <path id="Trazado_263974" data-name="Trazado 263974" d="M254.82,268.784a1.17,1.17,0,0,1,1.226-1.206,1.038,1.038,0,0,1,.93.471l-.24.163a.809.809,0,0,0-.691-.353.927.927,0,0,0,0,1.853.8.8,0,0,0,.692-.348l.239.163a1.047,1.047,0,0,1-.931.47,1.174,1.174,0,0,1-1.224-1.212" transform="translate(-9567.656 -10444.868)" fill="#263238"/>
      <path id="Trazado_263975" data-name="Trazado 263975" d="M262.787,267.54v1.378h-.32v-1.347a.663.663,0,0,0-.714-.759.779.779,0,0,0-.832.858v1.248H260.6l0-3.354h.321v1.392a1,1,0,0,1,.891-.433.91.91,0,0,1,.976,1.017" transform="translate(-9570.687 -10443.812)" fill="#263238"/>
      <path id="Trazado_263976" data-name="Trazado 263976" d="M268.612,268.507v1.473H268.3v-.37a.894.894,0,0,1-.818.393c-.538,0-.868-.281-.867-.692,0-.366.235-.673.918-.673h.755v-.145c0-.406-.23-.628-.673-.628a1.214,1.214,0,0,0-.791.28l-.145-.24a1.51,1.51,0,0,1,.967-.32.845.845,0,0,1,.962.923m-.321.759v-.388h-.745c-.461,0-.61.18-.61.425,0,.276.222.447.6.448a.761.761,0,0,0,.755-.483" transform="translate(-9573.846 -10444.871)" fill="#263238"/>
      <path id="Trazado_263977" data-name="Trazado 263977" d="M271.953,269.711l.145-.253a1.436,1.436,0,0,0,.845.267c.452,0,.637-.153.638-.388,0-.62-1.541-.132-1.541-1.072,0-.388.335-.677.941-.677a1.614,1.614,0,0,1,.84.222l-.14.258a1.219,1.219,0,0,0-.7-.2c-.429,0-.62.167-.62.393,0,.642,1.541.159,1.541,1.073,0,.411-.362.677-.981.677a1.587,1.587,0,0,1-.967-.294" transform="translate(-9576.644 -10444.872)" fill="#263238"/>
      <path id="Trazado_263978" data-name="Trazado 263978" d="M279.1,268.9h-1.988a.879.879,0,0,0,.935.827.936.936,0,0,0,.727-.311l.181.208a1.256,1.256,0,0,1-2.164-.824,1.145,1.145,0,0,1,1.162-1.206,1.132,1.132,0,0,1,1.152,1.207c0,.027,0,.063,0,.1m-1.988-.241H278.8a.844.844,0,0,0-1.685,0" transform="translate(-9579.182 -10444.874)" fill="#263238"/>
      <path id="Trazado_263979" data-name="Trazado 263979" d="M288.568,267.633l-.9,2.377h-.3l-.749-1.949-.751,1.948h-.3l-.894-2.378h.307l.745,2.021.764-2.02h.276l.758,2.021.756-2.02Z" transform="translate(-9583.313 -10444.896)" fill="#263238"/>
      <path id="Trazado_263980" data-name="Trazado 263980" d="M295.312,268.522v1.473H295v-.37a.894.894,0,0,1-.818.393c-.537,0-.867-.281-.867-.692,0-.366.236-.673.918-.673h.755v-.145c0-.406-.23-.629-.672-.629a1.214,1.214,0,0,0-.792.28l-.145-.24a1.511,1.511,0,0,1,.967-.32.845.845,0,0,1,.963.923m-.321.758v-.388h-.746c-.461,0-.61.18-.61.425,0,.276.222.447.6.448a.761.761,0,0,0,.755-.484" transform="translate(-9587.851 -10444.879)" fill="#263238"/>
      <path id="Trazado_263981" data-name="Trazado 263981" d="M298.651,269.725l.145-.253a1.433,1.433,0,0,0,.845.267c.452,0,.637-.153.637-.388,0-.619-1.541-.132-1.54-1.072,0-.388.335-.677.941-.677a1.614,1.614,0,0,1,.84.222l-.14.258a1.222,1.222,0,0,0-.7-.2c-.429,0-.62.167-.62.393,0,.642,1.541.159,1.541,1.073,0,.411-.362.677-.981.677a1.587,1.587,0,0,1-.967-.294" transform="translate(-9590.648 -10444.88)" fill="#263238"/>
      <path id="Trazado_263982" data-name="Trazado 263982" d="M305.793,269.729l.145-.253a1.433,1.433,0,0,0,.845.267c.452,0,.637-.153.637-.388,0-.62-1.541-.132-1.54-1.072,0-.388.335-.677.941-.677a1.614,1.614,0,0,1,.84.222l-.14.258a1.221,1.221,0,0,0-.7-.2c-.429,0-.619.167-.619.393,0,.642,1.541.159,1.541,1.073,0,.411-.362.678-.981.677a1.587,1.587,0,0,1-.967-.294" transform="translate(-9594.395 -10444.882)" fill="#263238"/>
      <path id="Trazado_263983" data-name="Trazado 263983" d="M313.256,267.646v2.377h-.307v-.434a.945.945,0,0,1-.854.456.921.921,0,0,1-1-1.022v-1.378h.321v1.347a.665.665,0,0,0,.714.764.773.773,0,0,0,.81-.863v-1.247Z" transform="translate(-9597.174 -10444.903)" fill="#263238"/>
      <path id="Trazado_263984" data-name="Trazado 263984" d="M317.032,268.817a1.17,1.17,0,0,1,1.226-1.206,1.038,1.038,0,0,1,.93.471l-.24.163a.808.808,0,0,0-.691-.353.927.927,0,0,0,0,1.853.8.8,0,0,0,.692-.347l.239.163a1.047,1.047,0,0,1-.931.47,1.174,1.174,0,0,1-1.224-1.212" transform="translate(-9600.291 -10444.885)" fill="#263238"/>
      <path id="Trazado_263985" data-name="Trazado 263985" d="M322.3,268.82a1.17,1.17,0,0,1,1.225-1.206,1.038,1.038,0,0,1,.931.471l-.24.163a.809.809,0,0,0-.691-.353.927.927,0,0,0,0,1.853.8.8,0,0,0,.692-.348l.239.163a1.047,1.047,0,0,1-.931.47,1.174,1.174,0,0,1-1.224-1.212" transform="translate(-9603.054 -10444.887)" fill="#263238"/>
      <path id="Trazado_263986" data-name="Trazado 263986" d="M329.876,268.923h-1.988a.879.879,0,0,0,.935.827.936.936,0,0,0,.727-.311l.181.208a1.257,1.257,0,0,1-2.165-.824,1.145,1.145,0,0,1,1.162-1.206,1.132,1.132,0,0,1,1.151,1.207c0,.027,0,.063,0,.1m-1.988-.241h1.686a.845.845,0,0,0-1.686,0" transform="translate(-9605.816 -10444.888)" fill="#263238"/>
      <path id="Trazado_263987" data-name="Trazado 263987" d="M333.119,269.743l.145-.253a1.437,1.437,0,0,0,.845.267c.452,0,.637-.153.637-.388,0-.619-1.541-.132-1.54-1.072,0-.388.335-.678.941-.678a1.614,1.614,0,0,1,.84.222l-.14.258a1.222,1.222,0,0,0-.7-.2c-.429,0-.619.167-.619.393,0,.642,1.541.159,1.541,1.073,0,.411-.362.677-.981.677a1.587,1.587,0,0,1-.967-.294" transform="translate(-9608.729 -10444.889)" fill="#263238"/>
      <path id="Trazado_263988" data-name="Trazado 263988" d="M337.769,269.746l.145-.253a1.433,1.433,0,0,0,.845.267c.452,0,.637-.153.637-.388,0-.619-1.541-.132-1.54-1.072,0-.388.335-.677.941-.677a1.615,1.615,0,0,1,.84.222l-.14.258a1.218,1.218,0,0,0-.7-.2c-.429,0-.619.166-.619.392,0,.642,1.541.159,1.541,1.073,0,.411-.362.677-.981.677a1.587,1.587,0,0,1-.967-.294" transform="translate(-9611.169 -10444.892)" fill="#263238"/>
      <path id="Trazado_263989" data-name="Trazado 263989" d="M343.071,266.279v.28h.732v.271h-.723v2.106h-.321v-2.106h-.425v-.271h.425v-.294a.654.654,0,0,1,.718-.7.753.753,0,0,1,.475.15l-.108.24a.54.54,0,0,0-.353-.118c-.275,0-.42.154-.42.447" transform="translate(-9613.563 -10443.81)" fill="#263238"/>
      <path id="Trazado_263990" data-name="Trazado 263990" d="M348.455,267.665v2.377h-.307v-.434a.945.945,0,0,1-.854.455.921.921,0,0,1-1-1.022v-1.378h.321v1.347a.665.665,0,0,0,.714.764.773.773,0,0,0,.81-.863v-1.247Z" transform="translate(-9615.638 -10444.914)" fill="#263238"/>
      <rect id="Rectángulo_291418" data-name="Rectángulo 291418" width="0.321" height="3.354" transform="translate(-9266.283 -10178.224)" fill="#263238"/>
      <path id="Trazado_263991" data-name="Trazado 263991" d="M252.558,248.615h-1.705v-.809h4.366v.809h-1.705v4.337h-.956Z" transform="translate(-9565.574 -10434.497)" fill="#ff725e"/>
      <path id="Trazado_263992" data-name="Trazado 263992" d="M265.232,250.363v2.249h-.919V250.48c0-.7-.345-1.036-.933-1.036a1.043,1.043,0,0,0-1.1,1.184v1.984h-.919v-5.454h.919v1.985a1.749,1.749,0,0,1,1.308-.5,1.534,1.534,0,0,1,1.639,1.72" transform="translate(-9571.089 -10434.156)" fill="#ff725e"/>
      <path id="Trazado_263993" data-name="Trazado 263993" d="M274.932,251.949v2.3h-.868v-.478a1.392,1.392,0,0,1-1.235.529c-.9,0-1.463-.492-1.463-1.176,0-.654.441-1.169,1.632-1.169h1.015V251.9c0-.537-.324-.852-.978-.852a1.942,1.942,0,0,0-1.19.389l-.36-.669a2.76,2.76,0,0,1,1.661-.485c1.132,0,1.787.537,1.787,1.669m-.919,1.074v-.456h-.948c-.625,0-.794.235-.794.522,0,.331.28.544.75.544a1,1,0,0,0,.992-.61" transform="translate(-9576.336 -10435.794)" fill="#ff725e"/>
      <path id="Trazado_263994" data-name="Trazado 263994" d="M285.2,252v2.249h-.919v-2.132c0-.7-.345-1.036-.934-1.036a1.043,1.043,0,0,0-1.1,1.184v1.984h-.918v-3.925h.875v.507a1.708,1.708,0,0,1,1.353-.551A1.534,1.534,0,0,1,285.2,252" transform="translate(-9581.566 -10435.795)" fill="#ff725e"/>
      <path id="Trazado_263995" data-name="Trazado 263995" d="M293.53,250.928l-.684.647v1.036h-.919v-5.455h.919v3.293l1.9-1.764h1.1l-1.64,1.646,1.794,2.279H294.89Z" transform="translate(-9587.121 -10434.156)" fill="#ff725e"/>
      <path id="Trazado_263996" data-name="Trazado 263996" d="M308.9,250.373l-1.838,4.242a1.523,1.523,0,0,1-1.515,1.161,1.626,1.626,0,0,1-1.051-.36l.368-.677a1,1,0,0,0,.676.272c.323,0,.514-.155.691-.544l.066-.155-1.712-3.94h.956l1.235,2.9,1.242-2.9Z" transform="translate(-9593.714 -10435.843)" fill="#ff725e"/>
      <path id="Trazado_263997" data-name="Trazado 263997" d="M314.048,252.288a2.093,2.093,0,1,1,2.088,2.014,1.976,1.976,0,0,1-2.088-2.014m3.257,0a1.167,1.167,0,1,0-1.169,1.228,1.143,1.143,0,0,0,1.169-1.228" transform="translate(-9598.726 -10435.795)" fill="#ff725e"/>
      <path id="Trazado_263998" data-name="Trazado 263998" d="M328.468,250.373V254.3h-.875v-.5a1.6,1.6,0,0,1-1.265.551,1.553,1.553,0,0,1-1.691-1.735v-2.242h.919v2.117c0,.713.338,1.051.919,1.051a1.034,1.034,0,0,0,1.073-1.183v-1.985Z" transform="translate(-9604.28 -10435.843)" fill="#ff725e"/>
      <path id="Trazado_263999" data-name="Trazado 263999" d="M334.872,252.431a.569.569,0,0,1,.6-.566.561.561,0,0,1,.581.566.567.567,0,0,1-.581.573.575.575,0,0,1-.6-.573m.051-4.624h1.088l-.184,3.44H335.1Z" transform="translate(-9609.648 -10434.497)" fill="#ff725e"/>
      <path id="Trazado_264000" data-name="Trazado 264000" d="M301.516,75.253l-1.388,19.665a6.131,6.131,0,0,1-12.234-.833c.123-1.872.234-3.4.234-3.4s-4.76-.74-4.819-5.5c-.034-2.749.44-8.987.847-13.767a6.242,6.242,0,0,1,6.222-5.711h2.875a8.809,8.809,0,0,1,8.263,9.551" transform="translate(-9582.6 -10338.969)" fill="#ffbe9d"/>
      <path id="Trazado_264001" data-name="Trazado 264001" d="M293.354,116.219a11.5,11.5,0,0,0,6.2-1.832s-1.533,3.463-6.283,3.034Z" transform="translate(-9587.825 -10364.509)" fill="#eb996e"/>
      <path id="Trazado_264002" data-name="Trazado 264002" d="M286.959,86.489c.084.088.6-.292,1.331-.29s1.267.368,1.347.278c.039-.039-.047-.2-.281-.37a1.867,1.867,0,0,0-1.078-.332,1.794,1.794,0,0,0-1.059.342c-.225.173-.3.333-.26.373" transform="translate(-9584.51 -10349.499)" fill="#263238"/>
      <path id="Trazado_264003" data-name="Trazado 264003" d="M300.685,90.868a.68.68,0,0,0,.656.686.651.651,0,0,0,.7-.613.68.68,0,0,0-.655-.686.651.651,0,0,0-.7.613" transform="translate(-9591.715 -10351.849)" fill="#263238"/>
      <path id="Trazado_264004" data-name="Trazado 264004" d="M286.949,90.868a.681.681,0,0,0,.656.686.651.651,0,0,0,.7-.613.68.68,0,0,0-.655-.686.651.651,0,0,0-.7.613" transform="translate(-9584.51 -10351.849)" fill="#263238"/>
      <path id="Trazado_264005" data-name="Trazado 264005" d="M301.818,86.7c.084.088.6-.292,1.331-.29s1.267.368,1.347.278c.039-.039-.046-.2-.281-.37a1.866,1.866,0,0,0-1.078-.332,1.793,1.793,0,0,0-1.06.342c-.224.173-.3.333-.26.373" transform="translate(-9592.304 -10349.607)" fill="#263238"/>
      <path id="Trazado_264006" data-name="Trazado 264006" d="M294.3,92.727a4.848,4.848,0,0,0-1.188-.214c-.187-.019-.364-.056-.4-.184a.95.95,0,0,1,.125-.553l.552-1.422a24.43,24.43,0,0,0,1.241-3.72,24.469,24.469,0,0,0-1.537,3.612c-.185.5-.361.975-.529,1.431a1.077,1.077,0,0,0-.1.733.469.469,0,0,0,.307.273,1.274,1.274,0,0,0,.317.044,4.733,4.733,0,0,0,1.2,0" transform="translate(-9587.39 -10349.949)" fill="#263238"/>
      <path id="Trazado_264007" data-name="Trazado 264007" d="M298.313,100.517c-.119-.007-.12.787-.8,1.351s-1.525.476-1.531.587c-.011.05.188.154.546.164a1.979,1.979,0,0,0,1.278-.445,1.722,1.722,0,0,0,.62-1.132c.03-.332-.059-.529-.113-.524" transform="translate(-9589.248 -10357.232)" fill="#263238"/>
      <path id="Trazado_264008" data-name="Trazado 264008" d="M301.923,81.3c.072.2.8.1,1.661.208.86.086,1.552.337,1.666.159.05-.085-.07-.272-.35-.465a2.91,2.91,0,0,0-2.534-.28c-.315.127-.474.283-.443.377" transform="translate(-9592.362 -10346.864)" fill="#263238"/>
      <path id="Trazado_264009" data-name="Trazado 264009" d="M286.712,81.8c.129.166.633-.006,1.239-.014.606-.029,1.119.112,1.237-.062.052-.084-.029-.251-.253-.408a1.792,1.792,0,0,0-1.995.062c-.214.171-.284.342-.228.423" transform="translate(-9584.376 -10347.015)" fill="#263238"/>
      <path id="Trazado_264010" data-name="Trazado 264010" d="M318.028,93.14c.081-.035,3.27-.967,3.166,2.287s-3.349,2.478-3.352,2.385.186-4.672.186-4.672" transform="translate(-9600.716 -10353.284)" fill="#ffbe9d"/>
      <path id="Trazado_264011" data-name="Trazado 264011" d="M320.012,97.786c.015-.01.056.042.15.088a.568.568,0,0,0,.424.022,1.4,1.4,0,0,0,.689-1.238,1.874,1.874,0,0,0-.133-.817.653.653,0,0,0-.412-.449.288.288,0,0,0-.339.145c-.047.09-.028.155-.046.16s-.068-.057-.038-.19a.362.362,0,0,1,.135-.2.428.428,0,0,1,.316-.073.8.8,0,0,1,.576.523,1.926,1.926,0,0,1,.167.913,1.473,1.473,0,0,1-.872,1.379.607.607,0,0,1-.515-.1c-.1-.084-.113-.157-.1-.163" transform="translate(-9601.853 -10354.46)" fill="#eb996e"/>
      <path id="Trazado_264012" data-name="Trazado 264012" d="M305.526,78a1.709,1.709,0,0,0-1.567.8c-.212.464-.258.991-.469,1.456a1.151,1.151,0,0,1-1.185.768,1,1,0,0,1-.678-.743,2.753,2.753,0,0,1-.01-1.05c.192-1.519.512-3.027.572-4.557a7.82,7.82,0,0,0-.96-4.425,4.277,4.277,0,0,0-3.807-2.139c-1.012.081-1.939.609-2.944.75a3.975,3.975,0,0,1-3.3-1.1c-.109-.108-.618-.444-.618-.444a1.874,1.874,0,0,1,.342-1.006c1.993-1.844,5.585-2.358,8.218-1.7a9.5,9.5,0,0,1,6.234,4.989c1.133,2.467.8,5.9.173,8.4" transform="translate(-9586.403 -10338.254)" fill="#263238"/>
      <path id="Trazado_264013" data-name="Trazado 264013" d="M283.491,73.646a3.107,3.107,0,0,0,2.586,1.673,8.576,8.576,0,0,0,3.176-.463,24.822,24.822,0,0,1,4.891-.722c.161.005.354,0,.44-.135.113-.181-.068-.4-.236-.531-1.419-1.112-4.848-1.793-6.649-1.868a5.3,5.3,0,0,0-4.666,2.214" transform="translate(-9582.455 -10342.061)" fill="#263238"/>
      <path id="Trazado_264014" data-name="Trazado 264014" d="M284.981,68.974a6.1,6.1,0,0,1,3.545-1.6,14.406,14.406,0,0,1,14.411,8,16.294,16.294,0,0,0,.741-3.768,9.264,9.264,0,0,0-6.51-8.546s-8.936-3.411-12.186,5.913" transform="translate(-9583.478 -10337.265)" fill="#ff725e"/>
      <g id="Grupo_870787" data-name="Grupo 870787" transform="translate(-9298.496 -10274.812)" opacity="0.4">
        <g id="Grupo_870786" data-name="Grupo 870786">
          <g id="Grupo_870785" data-name="Grupo 870785" clip-path="url(#clip-path-2)">
            <path id="Trazado_264015" data-name="Trazado 264015" d="M284.981,68.974a5.8,5.8,0,0,1,3.971-1.8,15.3,15.3,0,0,1,13.985,8.2,16.294,16.294,0,0,0,.741-3.768,9.264,9.264,0,0,0-6.51-8.546s-8.936-3.411-12.186,5.913" transform="translate(-284.981 -62.453)"/>
          </g>
        </g>
      </g>
      <path id="Trazado_264016" data-name="Trazado 264016" d="M295.693,74.656a20.917,20.917,0,0,0-7.309-6.838A45.909,45.909,0,0,0,277.5,63.383a7.107,7.107,0,0,0-3.007-.316,2.711,2.711,0,0,0-2.23,1.825c-.311,1.233,1.878,3.136,2.906,3.885a33.715,33.715,0,0,0,3.126,1.846s-.029-2.3,3.633-2.759c4.993-.631,13.92,6.92,13.768,6.792" transform="translate(-9576.788 -10337.556)" fill="#ff725e"/>
      <path id="Trazado_264017" data-name="Trazado 264017" d="M299.99,66.707a13.081,13.081,0,0,0-6.9-1.675,3.316,3.316,0,0,1,1.058-.145,9.552,9.552,0,0,1,4.966,1.206,3.292,3.292,0,0,1,.873.613" transform="translate(-9587.732 -10338.538)" fill="#fff"/>
      <path id="Trazado_264018" data-name="Trazado 264018" d="M299.3,231.734c0,.069-12.172.124-27.183.124s-27.185-.055-27.185-.124,12.169-.123,27.185-.123,27.183.055,27.183.123" transform="translate(-9562.468 -10426.001)" fill="#263238"/>
      <path id="Trazado_264019" data-name="Trazado 264019" d="M229.834,143.772l-7,3.165-10.861-8.853-3.309,5.24s6.184,7.155,8.476,9.586,3.819,3.728,5.625,3.5,12.12-5.093,12.12-5.093-2.428-7.234-5.052-7.54" transform="translate(-9543.444 -10376.939)" fill="#ffbe9d"/>
      <path id="Trazado_264020" data-name="Trazado 264020" d="M188.536,128.693a4.7,4.7,0,0,0,2.256.96c.892-.065,4.272-.082,4.524-.064s3.549,1.811,3.549,1.811l2.414,2.322-3.79,5.269s-.626-.719-1.052-.665a49.1,49.1,0,0,1-6.417-.659c-.783-.266-1.787-.421-2.049-.9s-.322-.825.4-1.451a1.188,1.188,0,0,1-.264-1.666s-1.085-.793-.7-1.527c0,0-.616-.254-.715-.641a4.179,4.179,0,0,1,.043-1.222l1.555-.483s-.469-.54.244-1.081" transform="translate(-9531.899 -10372.013)" fill="#ffbe9d"/>
      <path id="Trazado_264021" data-name="Trazado 264021" d="M188.662,131c0-.019.073-.032.2-.069a2.315,2.315,0,0,1,.58-.118,1.423,1.423,0,0,1,.844.329.981.981,0,0,1,.323,1.068.766.766,0,0,1-.423.455,2.61,2.61,0,0,1-.507.145l-.835.173a2.532,2.532,0,0,1-.785.1,2.545,2.545,0,0,1,.744-.269l.823-.225c.312-.078.657-.151.749-.459a.766.766,0,0,0-.24-.815,1.353,1.353,0,0,0-.7-.326,4.275,4.275,0,0,0-.557.039c-.14.008-.217-.01-.217-.026" transform="translate(-9532.636 -10373.124)" fill="#eb996e"/>
      <path id="Trazado_264022" data-name="Trazado 264022" d="M191.53,133.836a1.069,1.069,0,0,1,.364-.1,5.666,5.666,0,0,1,1.025-.116,2.667,2.667,0,0,1,1.5.388,1.282,1.282,0,0,1,.567.775.89.89,0,0,1-.388.965,2.409,2.409,0,0,1-.986.2l-.891.07-1.511.1a7.775,7.775,0,0,1-1.4.033,7.866,7.866,0,0,1,1.382-.208l1.506-.157.89-.085a2.31,2.31,0,0,0,.881-.174.649.649,0,0,0,.276-.7,1.069,1.069,0,0,0-.458-.636,2.6,2.6,0,0,0-1.376-.4c-.847-.015-1.382.09-1.386.042" transform="translate(-9533.556 -10374.597)" fill="#eb996e"/>
      <path id="Trazado_264023" data-name="Trazado 264023" d="M195.129,138.081c.006-.012.1.014.2.147a.77.77,0,0,1,.089.672,1.158,1.158,0,0,1-.734.686,3.946,3.946,0,0,1-1.18.156c-1.636.077-2.935.4-2.953.326a8.216,8.216,0,0,1,2.941-.573,4.258,4.258,0,0,0,1.117-.125,1.013,1.013,0,0,0,.645-.53.719.719,0,0,0-.007-.564c-.06-.127-.128-.18-.116-.2" transform="translate(-9533.941 -10376.936)" fill="#eb996e"/>
      <path id="Trazado_264024" data-name="Trazado 264024" d="M206.289,139.3a1.621,1.621,0,0,1-.687.265,5.006,5.006,0,0,1-3.469-.465c-.4-.22-.609-.413-.592-.436a7.012,7.012,0,0,0,4.748.636" transform="translate(-9539.707 -10377.241)" fill="#eb996e"/>
      <path id="Trazado_264025" data-name="Trazado 264025" d="M200.128,134.7c.032-.063.369.056.786,0s.721-.232.766-.176-.237.369-.739.423-.854-.2-.813-.251" transform="translate(-9538.964 -10375.069)" fill="#eb996e"/>
      <path id="Trazado_264026" data-name="Trazado 264026" d="M199.33,143.67a2.4,2.4,0,0,1,2.076-1.937,10.438,10.438,0,0,0-1.186.81,10.286,10.286,0,0,0-.889,1.127" transform="translate(-9538.54 -10378.845)" fill="#eb996e"/>
      <path id="Trazado_264027" data-name="Trazado 264027" d="M171.173,174.589h20.65l3.831,30.2H167.141Z" transform="translate(-9521.661 -10396.089)" fill="#0e5b9b"/>
      <path id="Trazado_264028" data-name="Trazado 264028" d="M219.058,174.589h2.389l7.045,30.2h-5.6Z" transform="translate(-9548.896 -10396.089)" fill="#ff725e"/>
      <g id="Grupo_870790" data-name="Grupo 870790" transform="translate(-9329.838 -10221.499)">
        <g id="Grupo_870789" data-name="Grupo 870789">
          <g id="Grupo_870788" data-name="Grupo 870788" clip-path="url(#clip-path-3)">
            <path id="Trazado_264029" data-name="Trazado 264029" d="M219.058,174.589h2.389l7.045,30.2h-5.6Z" transform="translate(-219.058 -174.589)" fill="#0b3e69"/>
          </g>
        </g>
      </g>
      <path id="Trazado_264030" data-name="Trazado 264030" d="M193.094,141.538c0-.014.06-.034.167-.009a.621.621,0,0,1,.36.281.767.767,0,0,1,.066.683,1.155,1.155,0,0,1-.56.611,2.3,2.3,0,0,1-1.049.206l.091-.061c-.271.52-.594.749-.618.719s.217-.31.427-.808l.023-.055.068-.006a2.5,2.5,0,0,0,.943-.215,1,1,0,0,0,.462-.474.614.614,0,0,0-.007-.516c-.138-.295-.384-.321-.374-.357" transform="translate(-9534.465 -10378.739)" fill="#eb996e"/>
      <path id="Trazado_264031" data-name="Trazado 264031" d="M186.651,160.472a2.915,2.915,0,0,1,.045-.612c.045-.393.125-.958.24-1.655.225-1.393.6-3.307,1.048-5.411s.85-4.01,1.119-5.393c.126-.654.232-1.2.316-1.638a2.914,2.914,0,0,1,.14-.6,2.9,2.9,0,0,1-.045.613c-.044.392-.125.958-.239,1.654-.225,1.394-.6,3.307-1.048,5.412s-.85,4.008-1.119,5.391l-.316,1.638a2.882,2.882,0,0,1-.14.6" transform="translate(-9531.893 -10380.653)" fill="#0b3e69"/>
      <path id="Trazado_264032" data-name="Trazado 264032" d="M204.479,158.161a4.109,4.109,0,0,1-.228-.694l-.534-1.917c-.441-1.622-1.033-3.866-1.671-6.348s-1.2-4.734-1.6-6.367l-.457-1.936a4.115,4.115,0,0,1-.135-.718,4.146,4.146,0,0,1,.228.7c.138.5.318,1.141.534,1.917.441,1.621,1.032,3.865,1.671,6.348s1.2,4.733,1.6,6.365l.458,1.936a4.117,4.117,0,0,1,.135.719" transform="translate(-9538.82 -10378.039)" fill="#0b3e69"/>
      <path id="Trazado_264033" data-name="Trazado 264033" d="M232.717,234.639a5.891,5.891,0,0,1-.994-.7c-.594-.454-1.4-1.094-2.289-1.813l-.447-.365.18-.028c-.555.838-1.056,1.572-1.423,2.092a4.6,4.6,0,0,1-.629.809,4.6,4.6,0,0,1,.493-.9c.331-.544.807-1.294,1.355-2.137l.074-.114.106.086.449.363c.884.719,1.677,1.381,2.243,1.87a5.913,5.913,0,0,1,.883.831" transform="translate(-9553.121 -10425.938)" fill="#263238"/>
      <path id="Trazado_264034" data-name="Trazado 264034" d="M221.693,174.589c.068-.011,1.136,6.076,2.386,13.6s2.209,13.627,2.142,13.638-1.136-6.075-2.386-13.6-2.209-13.625-2.141-13.636" transform="translate(-9550.277 -10396.088)" fill="#263238"/>
      <path id="Trazado_264035" data-name="Trazado 264035" d="M195.3,187.9a5.142,5.142,0,0,1-.482.457,8.521,8.521,0,0,1-1.575,1.072,9.362,9.362,0,0,1-2.851.979,8.426,8.426,0,0,1-3.977-.232,4.906,4.906,0,0,1-2-1.216,3.767,3.767,0,0,1-1.087-2.284,2.962,2.962,0,0,1,1.029-2.484,2.363,2.363,0,0,1,1.339-.558,2.768,2.768,0,0,1,1.457.3,3.469,3.469,0,0,1,1.169.972,3.95,3.95,0,0,1,.666,1.4,6.954,6.954,0,0,1-.011,3.154,10.671,10.671,0,0,1-3.242,5.685,9.763,9.763,0,0,1-2.83,1.817,7.009,7.009,0,0,1-3.221.55,5.471,5.471,0,0,1-2.939-1.138,4.159,4.159,0,0,1-1.572-2.57,3.9,3.9,0,0,1,.555-2.813,2.651,2.651,0,0,1,2.352-1.271,1.724,1.724,0,0,1,1.164.627,2.574,2.574,0,0,1,.528,1.152,4.111,4.111,0,0,1-.272,2.322,6.209,6.209,0,0,1-2.648,2.951,9.267,9.267,0,0,1-2.835,1.025,14.533,14.533,0,0,1-1.889.241c-.217.012-.383.02-.494.021a.846.846,0,0,1-.169,0,.883.883,0,0,1,.167-.022l.492-.046a16.63,16.63,0,0,0,1.874-.285,9.353,9.353,0,0,0,2.784-1.05,6.088,6.088,0,0,0,2.555-2.9,3.945,3.945,0,0,0,.248-2.218,2.383,2.383,0,0,0-.493-1.063,1.519,1.519,0,0,0-1.033-.551,2.448,2.448,0,0,0-2.151,1.187,3.679,3.679,0,0,0-.511,2.653,3.929,3.929,0,0,0,1.493,2.423,5.238,5.238,0,0,0,2.812,1.082,8.074,8.074,0,0,0,5.864-2.308,10.452,10.452,0,0,0,3.172-5.551,6.735,6.735,0,0,0,.02-3.044,3.718,3.718,0,0,0-.622-1.321,3.241,3.241,0,0,0-1.087-.91,2.54,2.54,0,0,0-1.336-.284,2.142,2.142,0,0,0-1.218.5,2.756,2.756,0,0,0-.964,2.3,3.577,3.577,0,0,0,1.02,2.167,4.728,4.728,0,0,0,1.915,1.183,8.336,8.336,0,0,0,3.9.261,9.446,9.446,0,0,0,2.828-.928,9.184,9.184,0,0,0,1.588-1.025c.174-.13.293-.245.38-.315a.865.865,0,0,1,.134-.1" transform="translate(-9523.93 -10400.832)" fill="#fff"/>
      <path id="Trazado_264036" data-name="Trazado 264036" d="M266.971,130.592h-3.723c-1.2.42-10.866,8.645-10.866,8.645l5.464,8.585,7.084-4.142Z" transform="translate(-9566.377 -10373.01)" fill="#455a64"/>
      <path id="Trazado_264037" data-name="Trazado 264037" d="M269.294,125.889l8.225-3.122s1.2,2.521,4.863,1.981a26.769,26.769,0,0,0,7.985-3.122s6.3,3.6,8.164,5.1-1.5,32.959-1.5,32.959l-.841,9.425s.66.48.66,2.1.06,2.7.06,2.7H264.327s-.8-3.782-.2-5.283a19.547,19.547,0,0,1,1.591-3l.51-14.528.18-12.968Z" transform="translate(-9572.423 -10368.306)" fill="#455a64"/>
      <path id="Trazado_264038" data-name="Trazado 264038" d="M325,132.36s2.629.742,3.408,4.642.638,18.788.638,18.788l-14.682-3.18s1.991-6.25,1.991-6.675,4.041-10.493,4.183-10.706S325,132.36,325,132.36" transform="translate(-9598.891 -10373.937)" fill="#455a64"/>
      <path id="Trazado_264039" data-name="Trazado 264039" d="M268.583,143.473c.068,0,.163,2.6.21,5.813s.031,5.816-.038,5.817-.162-2.6-.21-5.814-.031-5.815.038-5.816" transform="translate(-9574.841 -10379.766)" fill="#263238"/>
      <path id="Trazado_264040" data-name="Trazado 264040" d="M318.718,146.408a2.115,2.115,0,0,1-.055.517c-.051.33-.136.805-.251,1.391-.23,1.171-.588,2.781-1.051,4.543s-.944,3.34-1.32,4.472c-.188.566-.348,1.022-.465,1.335a2.115,2.115,0,0,1-.206.477,2.092,2.092,0,0,1,.115-.507l.39-1.356c.333-1.144.785-2.726,1.248-4.484s.846-3.357,1.119-4.517q.193-.807.328-1.373a2.145,2.145,0,0,1,.15-.5" transform="translate(-9599.416 -10381.305)" fill="#263238"/>
      <path id="Trazado_264041" data-name="Trazado 264041" d="M319.121,145.745a18.21,18.21,0,0,1-.034,3,18.15,18.15,0,0,1-.281,2.983,36.281,36.281,0,0,1,.316-5.98" transform="translate(-9601.198 -10380.958)" fill="#263238"/>
      <path id="Trazado_264042" data-name="Trazado 264042" d="M304.862,155.952a40.243,40.243,0,0,1-6.3,0,40.233,40.233,0,0,1,6.3,0" transform="translate(-9590.6 -10386.247)" fill="#fff"/>
      <path id="Trazado_264043" data-name="Trazado 264043" d="M274.842,187.544l16.245-1.953,2.562-10.285,9.089,1.968s-3.594,14.278-7.3,15.658-22.032-.952-22.032-.952Z" transform="translate(-9577.406 -10396.465)" fill="#ffbe9d"/>
      <path id="Trazado_264044" data-name="Trazado 264044" d="M257.612,199.754a19.276,19.276,0,0,0-2.706-.916c-.754-.112-1.642.053-1.866.416l-4.384,2.541s-3.239-.307-3.547.419c0,0-2.066-.587-2.4-.168,0,0-1.034.335-.866.81s3.91,1.787,3.91,1.787l5.138.531a12.4,12.4,0,0,1,2.764-1.145,13.483,13.483,0,0,1,2.328.184c-.066-.021,3,.345,3,.345a4.8,4.8,0,0,0,.877-2.511c.251-1.843,0-2.234,0-2.234Z" transform="translate(-9560.838 -10408.79)" fill="#ffbe9d"/>
      <path id="Trazado_264045" data-name="Trazado 264045" d="M267.612,202.007c0,.012-.139.02-.319-.125s-.339-.435-.623-.629a1.637,1.637,0,0,0-.561-.17,1.3,1.3,0,0,1-.7-.308,1.257,1.257,0,0,1-.377-.77,1.091,1.091,0,0,1,.273-.884,1.78,1.78,0,0,1,1.634-.45,2.893,2.893,0,0,1,1.226.628,5.525,5.525,0,0,1,.648.646c.14.163.209.26.2.271-.031.033-.357-.321-.952-.779a2.893,2.893,0,0,0-1.162-.542,1.587,1.587,0,0,0-1.408.394.985.985,0,0,0,.08,1.321c.312.325.849.237,1.2.5a5.157,5.157,0,0,1,.591.7c.14.149.26.174.254.2" transform="translate(-9573.007 -10408.7)" fill="#eb996e"/>
      <path id="Trazado_264046" data-name="Trazado 264046" d="M260.148,203.893c0,.04-.247.027-.594.184a9.209,9.209,0,0,1-1.4.663,3.991,3.991,0,0,1-1.564-.122,5.177,5.177,0,0,1-.625-.092c-.008-.03.241-.111.646-.081a5.394,5.394,0,0,0,1.488.054c.542-.14,1-.48,1.4-.587.4-.127.663-.046.654-.019" transform="translate(-9568.254 -10411.435)" fill="#eb996e"/>
      <path id="Trazado_264047" data-name="Trazado 264047" d="M256.207,207.17c.007.014-.1.087-.3.194a4.655,4.655,0,0,1-.9.343,8.783,8.783,0,0,1-3.157.183c-.612-.077-1.19-.17-1.718-.249a5.4,5.4,0,0,1-1.4-.313.877.877,0,0,1-.419-.4.727.727,0,0,1-.062-.434c.053-.249.211-.306.209-.294.018.016-.1.1-.113.306a.693.693,0,0,0,.461.668,6.107,6.107,0,0,0,1.358.245l1.709.228a10.024,10.024,0,0,0,3.092-.106c.777-.169,1.219-.407,1.238-.367" transform="translate(-9564.205 -10412.668)" fill="#eb996e"/>
      <path id="Trazado_264048" data-name="Trazado 264048" d="M313.454,201.523a9.873,9.873,0,0,0-2.549-3.763,5.3,5.3,0,0,1,2.549,3.763" transform="translate(-9597.075 -10408.242)" fill="#eb996e"/>
      <path id="Trazado_264049" data-name="Trazado 264049" d="M60.761,318.284l-.621,31.739,7.687.824,5.281-32.315-4.15-5.219Z" transform="translate(-9465.531 -10468.858)" fill="#ffbe9d"/>
      <path id="Trazado_264050" data-name="Trazado 264050" d="M68.769,388.646l0,.518s8.745,3.63,8.819,5.3l-17.444-.291V388.36a10.766,10.766,0,0,0,8.629.286" transform="translate(-9465.532 -10508.227)" fill="#848484"/>
      <path id="Trazado_264051" data-name="Trazado 264051" d="M60.14,399.045l.08-1.4,16.69.789s.771.351.674.9Z" transform="translate(-9465.532 -10513.101)" fill="#263238"/>
      <path id="Trazado_264052" data-name="Trazado 264052" d="M44.949,116.074a3.832,3.832,0,0,0-2.4-3.385l-1.609.923A3.879,3.879,0,0,0,39,118.319a4.588,4.588,0,0,0-1.47,6.295,3.072,3.072,0,0,0-1.473,2.91c.019,1.15.387,2.267.491,3.413.079.885,0,1.785.163,2.658a2.708,2.708,0,0,0,1.461,2.094,2.368,2.368,0,0,0,2.53-.724,4.886,4.886,0,0,0,1.069-2.546c.434-2.656-.13-5.431.539-8.038a26.176,26.176,0,0,1,1.677-4.062,8.773,8.773,0,0,0,.965-4.246" transform="translate(-9452.897 -10363.618)" fill="#263238"/>
      <path id="Trazado_264053" data-name="Trazado 264053" d="M47.538,110.022a5.128,5.128,0,0,1-4.287-7.889,1.336,1.336,0,0,1,.585-.564c.541-.214,1.1.225,1.519.631l3.008,2.931" transform="translate(-9456.258 -10357.754)" fill="#263238"/>
      <path id="Trazado_264054" data-name="Trazado 264054" d="M47.856,92.94a9.677,9.677,0,0,1-4.693-6.011c-.659-2.411.1-7.294.751-9.706.792-2.937,2.012.842,3.011,1.151a1.945,1.945,0,0,1,1.19,1.343,5.745,5.745,0,0,1,.137,1.855q-.2,5.684-.4,11.368" transform="translate(-9456.492 -10344.431)" fill="#263238"/>
      <path id="Trazado_264055" data-name="Trazado 264055" d="M62.77,59.918c3.778-2.03,6.809-.831,8.282.322a9.215,9.215,0,0,1,2.9,4.7c.541,1.791.778,3.659,1.217,5.478a22.5,22.5,0,0,1,.581,3.183c.217,1.557.145,4.336-.652,5.691a9.346,9.346,0,0,1-2.855,3.293,1.876,1.876,0,0,1-1.511.445,1.834,1.834,0,0,1-.858-.784,72.89,72.89,0,0,1-9.549-19.093" transform="translate(-9465.631 -10335.36)" fill="#263238"/>
      <path id="Trazado_264056" data-name="Trazado 264056" d="M54.715,67.4l6.543-2.637,1.713.191c3.853,0,6.531,4.232,6.571,7.353a55.466,55.466,0,0,1-.576,10.26c-1.083,5.144-5.091,5.6-5.091,5.6s.047,1.4.088,3.13a5.446,5.446,0,1,1-10.89.149l-.082-22.283A1.826,1.826,0,0,1,54.715,67.4" transform="translate(-9461.781 -10338.476)" fill="#ffbe9d"/>
      <path id="Trazado_264057" data-name="Trazado 264057" d="M82.826,87.149a.666.666,0,0,1-.675.639.637.637,0,0,1-.655-.634.666.666,0,0,1,.674-.639.637.637,0,0,1,.657.634" transform="translate(-9476.734 -10349.888)" fill="#263238"/>
      <path id="Trazado_264058" data-name="Trazado 264058" d="M82.032,83.506c-.087.083-.572-.315-1.288-.349s-1.258.3-1.331.206c-.036-.04.056-.193.293-.348a1.831,1.831,0,0,1,1.071-.272,1.76,1.76,0,0,1,1.019.387c.212.18.278.341.236.377" transform="translate(-9475.638 -10347.906)" fill="#263238"/>
      <path id="Trazado_264059" data-name="Trazado 264059" d="M75.7,89.536a4.763,4.763,0,0,1,1.173-.152c.184-.01.358-.037.4-.16a.932.932,0,0,0-.1-.548L76.7,87.258a24.016,24.016,0,0,1-1.031-3.7,23.957,23.957,0,0,1,1.327,3.608l.447,1.426a1.058,1.058,0,0,1,.059.722.46.46,0,0,1-.314.252,1.239,1.239,0,0,1-.312.028,4.669,4.669,0,0,1-1.178-.058" transform="translate(-9473.673 -10348.336)" fill="#263238"/>
      <path id="Trazado_264060" data-name="Trazado 264060" d="M68.325,111.569a13.208,13.208,0,0,1-6.851-2.2s1.67,3.687,6.884,3.462Z" transform="translate(-9466.231 -10361.875)" fill="#eb996e"/>
      <path id="Trazado_264061" data-name="Trazado 264061" d="M72.391,98.717a1.308,1.308,0,0,0-1.153-.609,1.037,1.037,0,0,0-.841.4.91.91,0,0,0-.051.97.933.933,0,0,0,.977.383,2.367,2.367,0,0,0,.946-.516.731.731,0,0,0,.21-.218.56.56,0,0,0-.088-.413" transform="translate(-9470.824 -10355.969)" fill="#eb996e"/>
      <path id="Trazado_264062" data-name="Trazado 264062" d="M71.1,96.952c.116,0,.079.776.716,1.361s1.468.541,1.469.649c.009.049-.192.142-.542.134a1.937,1.937,0,0,1-1.229-.5,1.687,1.687,0,0,1-.551-1.138c-.013-.326.083-.514.136-.507" transform="translate(-9471.211 -10355.362)" fill="#263238"/>
      <path id="Trazado_264063" data-name="Trazado 264063" d="M82.033,79.255c-.134.156-.619-.037-1.211-.075-.591-.058-1.1.055-1.207-.121-.047-.085.04-.244.268-.387a1.757,1.757,0,0,1,1.948.158c.2.178.261.348.2.425" transform="translate(-9475.741 -10345.655)" fill="#263238"/>
      <path id="Trazado_264064" data-name="Trazado 264064" d="M67.661,87.106a.666.666,0,0,0,.634.68.637.637,0,0,0,.694-.591.666.666,0,0,0-.633-.68.638.638,0,0,0-.695.592" transform="translate(-9469.477 -10349.887)" fill="#263238"/>
      <path id="Trazado_264065" data-name="Trazado 264065" d="M64.833,83.421c.081.088.59-.279,1.307-.268s1.237.376,1.316.289c.039-.038-.044-.2-.27-.366a1.83,1.83,0,0,0-1.052-.339,1.756,1.756,0,0,0-1.042.322c-.223.166-.3.322-.259.362" transform="translate(-9467.988 -10347.905)" fill="#263238"/>
      <path id="Trazado_264066" data-name="Trazado 264066" d="M65.482,78.6c.124.164.619,0,1.213,0,.593-.021,1.095.123,1.212-.046.052-.082-.025-.246-.243-.4a1.757,1.757,0,0,0-1.954.036c-.212.165-.283.331-.228.411" transform="translate(-9468.324 -10345.353)" fill="#263238"/>
      <path id="Trazado_264067" data-name="Trazado 264067" d="M59.567,63.183a6.365,6.365,0,0,0-5.614.639,7.335,7.335,0,0,0-2.635,4.527,15.962,15.962,0,0,0,.574,6.085c2.682-3.454,5.442-7.44,8.03-10.965Z" transform="translate(-9460.845 -10337.45)" fill="#263238"/>
      <path id="Trazado_264068" data-name="Trazado 264068" d="M70.2,60.2c9.088-1.281,8.249,12.465,8.249,12.465-.909-5.064-7.958-10.363-7.958-10.363l-1.433-.242Z" transform="translate(-9470.21 -10336.041)" fill="#263238"/>
      <path id="Trazado_264069" data-name="Trazado 264069" d="M50.021,90.818c.019-.386-.382-1.319-.761-1.4-1.01-.21-2.85-.22-3,2.366-.2,3.534,3.389,3.006,3.4,2.905.009-.079.292-2.54.356-3.873" transform="translate(-9458.249 -10351.367)" fill="#ffbe9d"/>
      <path id="Trazado_264070" data-name="Trazado 264070" d="M50.642,94.527c-.015-.012-.065.039-.171.081a.616.616,0,0,1-.461-.017,1.527,1.527,0,0,1-.628-1.407,2.027,2.027,0,0,1,.223-.872.71.71,0,0,1,.489-.446.314.314,0,0,1,.354.189c.042.1.016.171.034.178s.079-.055.059-.2a.391.391,0,0,0-.126-.23.466.466,0,0,0-.335-.109.865.865,0,0,0-.674.512,2.1,2.1,0,0,0-.27.973,1.6,1.6,0,0,0,.812,1.577.66.66,0,0,0,.569-.062c.115-.081.137-.159.126-.166" transform="translate(-9459.759 -10352.604)" fill="#eb996e"/>
      <path id="Trazado_264071" data-name="Trazado 264071" d="M44.62,66.357a12.778,12.778,0,0,1,4.862-5.89,8.649,8.649,0,0,1,3.792-1.609,4.373,4.373,0,0,1,3.791,1.273l.256.261a75.182,75.182,0,0,1-4.676,9.621c-.739,1.185-1.058,5.22-1.236,6.605-.609,4.73-3.2,6.755-3.2,6.755-5.6,0-4.5-14.593-3.592-17.016" transform="translate(-9457.003 -10335.36)" fill="#263238"/>
      <path id="Trazado_264072" data-name="Trazado 264072" d="M47.666,105.431a1.571,1.571,0,0,1-.7-.222,4.764,4.764,0,0,1-2.336-2.564,1.584,1.584,0,0,1-.156-.714,8.965,8.965,0,0,0,1.266,2.049,8.922,8.922,0,0,0,1.923,1.451" transform="translate(-9457.311 -10357.975)" fill="#455a64"/>
      <path id="Trazado_264073" data-name="Trazado 264073" d="M47.138,116.991a2.7,2.7,0,0,1-2.388-1.793,14.038,14.038,0,0,0,1.073,1.058,13.543,13.543,0,0,0,1.315.735" transform="translate(-9457.454 -10364.933)" fill="#455a64"/>
      <path id="Trazado_264074" data-name="Trazado 264074" d="M43.438,126.182c-.056.04-.379-.317-.723-.8s-.578-.9-.522-.941.379.317.723.8.578.9.522.941" transform="translate(-9456.113 -10369.782)" fill="#455a64"/>
      <path id="Trazado_264075" data-name="Trazado 264075" d="M39.952,138.18c-.051.045-.3-.156-.558-.449s-.424-.567-.372-.612.3.156.558.449.423.567.372.612" transform="translate(-9454.449 -10376.429)" fill="#455a64"/>
      <path id="Trazado_264076" data-name="Trazado 264076" d="M43.257,75.436a4.654,4.654,0,0,1,.669-.392c.22-.116.487-.261.787-.448s.653-.378,1.017-.633a24.474,24.474,0,0,0,2.491-1.869,24.149,24.149,0,0,0,4.925-5.785,24.462,24.462,0,0,0,1.448-2.757c.194-.4.329-.779.463-1.1s.238-.612.318-.848a4.75,4.75,0,0,1,.28-.723,4.607,4.607,0,0,1-.188.753c-.065.242-.153.534-.279.867s-.247.719-.432,1.126a22.161,22.161,0,0,1-1.413,2.806,22.943,22.943,0,0,1-4.973,5.841,22.229,22.229,0,0,1-2.544,1.843c-.373.248-.734.432-1.043.606s-.583.311-.811.414a4.626,4.626,0,0,1-.713.306" transform="translate(-9456.675 -10336.438)" fill="#455a64"/>
      <path id="Trazado_264077" data-name="Trazado 264077" d="M51.584,82.591c.012.012-.08.131-.26.336s-.452.492-.806.827A17.4,17.4,0,0,1,44,87.607c-.465.148-.846.252-1.113.307a1.394,1.394,0,0,1-.42.065c-.01-.039.569-.2,1.476-.537A20.8,20.8,0,0,0,50.4,83.624c.732-.632,1.153-1.061,1.183-1.034" transform="translate(-9456.258 -10347.828)" fill="#455a64"/>
      <path id="Trazado_264078" data-name="Trazado 264078" d="M79.383,75.038a6.331,6.331,0,0,1,.145-.774,13.144,13.144,0,0,0,.234-2.121,12.334,12.334,0,0,0-6.743-11.476,13.122,13.122,0,0,0-1.967-.828,6.223,6.223,0,0,1-.747-.25.647.647,0,0,1,.2.027c.131.029.328.058.571.131a11.142,11.142,0,0,1,2.018.764A12.137,12.137,0,0,1,79.937,72.15a11.139,11.139,0,0,1-.315,2.135c-.056.249-.125.435-.164.563a.639.639,0,0,1-.076.191" transform="translate(-9470.863 -10335.761)" fill="#455a64"/>
      <path id="Trazado_264079" data-name="Trazado 264079" d="M177.758,159.687a1.143,1.143,0,0,0-.159,1.1,1.815,1.815,0,0,0,.706.72,6.3,6.3,0,0,0,1.169-1.673" transform="translate(-9527.107 -10388.271)" fill="#eb996e"/>
      <path id="Trazado_264080" data-name="Trazado 264080" d="M173.189,158.424a1.143,1.143,0,0,0-.428,1.03,1.818,1.818,0,0,0,.506.873A6.319,6.319,0,0,0,174.814,159" transform="translate(-9524.604 -10387.609)" fill="#eb996e"/>
      <path id="Trazado_264081" data-name="Trazado 264081" d="M75.055,125.447s15.638,12.306,18.456,12.709,16.01-1.195,21.422-1.364l.768,4.541s-14.945,5.074-20.379,5.275a19.972,19.972,0,0,1-8.554-1.266L76.606,134.936Z" transform="translate(-9473.355 -10370.311)" fill="#ffbe9d"/>
      <path id="Trazado_264082" data-name="Trazado 264082" d="M158.209,148.729s6.982-1,8.067-.452a40.692,40.692,0,0,1,4.2,3.177s1.037,2.925.384,3.062-1.332-.948-1.332-.948l-.882-1.628-3.9-.949-6.473.573Z" transform="translate(-9516.977 -10382.201)" fill="#ffbe9d"/>
      <path id="Trazado_264083" data-name="Trazado 264083" d="M157.993,155.768a10.334,10.334,0,0,0,3.863,1.293c1.269-.035,2.721-1.024,3.814-.873s3.358.326,3.634-.065a.862.862,0,0,0-.019-1.2,16.193,16.193,0,0,0-3.525-1.054,5.289,5.289,0,0,1-1.958-.9l-7.687.847-.436,2.4Z" transform="translate(-9515.648 -10384.746)" fill="#ffbe9d"/>
      <path id="Trazado_264084" data-name="Trazado 264084" d="M167.541,152.77a1.266,1.266,0,0,1,.4-.03,6.147,6.147,0,0,1,1.09.132,30.733,30.733,0,0,1,3.43,1.088,10.855,10.855,0,0,0,1.9.449,1.588,1.588,0,0,1,.85.329.905.905,0,0,1,.284.759.819.819,0,0,1-.319.583.877.877,0,0,1-.463.176c-.276.016-.406-.086-.4-.094a1.987,1.987,0,0,0,.386,0,.73.73,0,0,0,.374-1.269,1.42,1.42,0,0,0-.747-.258,9.953,9.953,0,0,1-1.946-.439c-1.339-.449-2.5-.945-3.392-1.153-.883-.233-1.456-.226-1.454-.272" transform="translate(-9521.871 -10384.627)" fill="#eb996e"/>
      <path id="Trazado_264085" data-name="Trazado 264085" d="M175.968,154.15a2.184,2.184,0,0,1-1.129-.569c-.558-.437-.87-.926-.818-.965s.439.355.971.771,1.006.7.976.764" transform="translate(-9525.268 -10384.561)" fill="#eb996e"/>
      <path id="Trazado_264086" data-name="Trazado 264086" d="M31.083,320.528l-14.171,6.311,1.7,7.566s17.822-5.311,23.667-6.492c5.829-1.178,15.276-2.684,17.945-8.338Z" transform="translate(-9442.855 -10472.145)" fill="#ffbe9d"/>
      <path id="Trazado_264087" data-name="Trazado 264087" d="M15.023,341.907l-.494.134s-1.138,9.29-2.707,9.8L7.474,335.155l5.534-1.541a10.638,10.638,0,0,0,2.015,8.293" transform="translate(-9437.904 -10479.509)" fill="#848484"/>
      <path id="Trazado_264088" data-name="Trazado 264088" d="M7.474,336.532l1.35-.293,3.674,16.1s-.13.827-.675.88Z" transform="translate(-9437.904 -10480.886)" fill="#263238"/>
      <path id="Trazado_264089" data-name="Trazado 264089" d="M65.3,320.032a2.036,2.036,0,0,1-.151.4,4.551,4.551,0,0,1-.679,1.014,15.768,15.768,0,0,1-3.5,2.788,16.239,16.239,0,0,1-2.806,1.315,31.027,31.027,0,0,1-3.418.956c-2.417.61-5.068,1.305-7.85,2.04L32.654,332.3l-4.329,1.1-1.181.282a2.761,2.761,0,0,1-.416.082,2.711,2.711,0,0,1,.4-.13l1.17-.327,4.308-1.179c3.639-.99,8.667-2.361,14.233-3.833,2.783-.735,5.437-1.423,7.858-2.022a31.623,31.623,0,0,0,3.4-.928,16.511,16.511,0,0,0,6.3-3.973,5.418,5.418,0,0,0,.9-1.348" transform="translate(-9448.004 -10472.384)" fill="#eb996e"/>
      <path id="Trazado_264090" data-name="Trazado 264090" d="M52.959,190.26l.319,2.791s-4.907,9.276-4.907,14.254-2.264,44.6-2.264,44.6,26.622,1.515,29.436-1.082l2.813-2.6,9.523-2.6L73.022,191.415v-2.9Z" transform="translate(-9458.17 -10403.392)" fill="#263238"/>
      <path id="Trazado_264091" data-name="Trazado 264091" d="M98.824,220.436a.391.391,0,0,1,.026.109c.014.088.032.194.053.325l.178,1.251c.155,1.109.375,2.675.644,4.6.555,3.883,1.382,9.24,2.448,15.13s2.176,11.2,3.019,15.029l1.012,4.535.272,1.234.065.322a.38.38,0,0,1,.013.112.411.411,0,0,1-.038-.106l-.089-.317-.317-1.223c-.272-1.063-.646-2.607-1.089-4.518-.888-3.823-2.022-9.128-3.092-15.023s-1.867-11.259-2.378-15.15c-.256-1.946-.448-3.522-.567-4.614l-.132-1.257c-.011-.132-.021-.239-.028-.328a.377.377,0,0,1,0-.113" transform="translate(-9485.822 -10420.139)" fill="#455a64"/>
      <path id="Trazado_264092" data-name="Trazado 264092" d="M58.61,230.874a1.7,1.7,0,0,1,.111.314c.069.232.158.535.271.911l.982,3.355c.84,2.83,2.056,6.722,3.542,10.971s2.966,8.052,4.074,10.787l1.324,3.235.357.881a1.642,1.642,0,0,1,.109.314,1.691,1.691,0,0,1-.155-.294l-.4-.863c-.344-.751-.823-1.846-1.4-3.206-1.15-2.72-2.655-6.516-4.146-10.772s-2.679-8.16-3.476-11c-.4-1.422-.708-2.577-.907-3.378l-.226-.924a1.678,1.678,0,0,1-.062-.327" transform="translate(-9464.729 -10425.614)" fill="#455a64"/>
      <path id="Trazado_264093" data-name="Trazado 264093" d="M82.092,197.367a4.992,4.992,0,0,1-.8.1c-.515.048-1.262.1-2.185.158-1.847.112-4.4.212-7.226.224s-5.381-.068-7.228-.165c-.924-.048-1.671-.1-2.186-.14a4.977,4.977,0,0,1-.8-.091,4.994,4.994,0,0,1,.8-.005l2.188.061c1.848.052,4.4.1,7.221.092s5.371-.084,7.218-.151l2.188-.079a4.983,4.983,0,0,1,.8,0" transform="translate(-9466.334 -10408.031)" fill="#455a64"/>
      <path id="Trazado_264094" data-name="Trazado 264094" d="M57.973,120.678c-.128-.3,9.443,7.331,10.646,11.048s1.407,14.442,1.407,14.442l.673,6.886L51.589,154.4l-.513-1.349-1.412-3.837L47.7,143.422s-4.71-7.315-5.645-10.467a12.4,12.4,0,0,1,.764-7.92l4.324-4.878Z" transform="translate(-9455.847 -10367.534)" fill="#92bfb1"/>
      <path id="Trazado_264095" data-name="Trazado 264095" d="M52.481,117.5s-1.059-1.967-.406-2.824c.52-.681,9.72.173,11.6.571,1.1.233-.02,2.692-.02,2.692Z" transform="translate(-9461.189 -10364.524)" fill="#92bfb1"/>
      <g id="Grupo_870794" data-name="Grupo 870794" transform="translate(-9407.89 -10237.758)">
        <g id="Grupo_870793" data-name="Grupo 870793" clip-path="url(#clip-path-4)">
          <path id="Trazado_264096" data-name="Trazado 264096" d="M59.58,140.392c.8,2.075-.33,8.517-.505,10.051a25.827,25.827,0,0,1-1.056,4.5A2.533,2.533,0,0,0,58,157.026c.627.972,2.243.7,3.025,1.548a7.546,7.546,0,0,1-4.7.545,1.26,1.26,0,0,1-.745-.36,1.34,1.34,0,0,1-.23-.6,17.876,17.876,0,0,1-.221-6.853c.433-2.259,2.589-7.684,4.4-9.1" transform="translate(-54.887 -140.392)"/>
        </g>
      </g>
      <path id="Trazado_264097" data-name="Trazado 264097" d="M62.772,146.376a8.193,8.193,0,0,1-2.435,4.055c-.055-.049.637-.857,1.3-1.976s1.062-2.1,1.131-2.079" transform="translate(-9465.633 -10381.288)" fill="#263238"/>
      <path id="Trazado_264098" data-name="Trazado 264098" d="M64.168,120.688a1.614,1.614,0,0,1-.437.121c-.284.064-.7.135-1.216.2a22.756,22.756,0,0,1-8.1-.407c-.507-.121-.913-.233-1.19-.326a1.636,1.636,0,0,1-.423-.164c.011-.038.633.122,1.649.319a28.163,28.163,0,0,0,8.041.4c1.03-.094,1.665-.191,1.673-.152" transform="translate(-9461.684 -10367.511)" fill="#263238"/>
      <path id="Trazado_264099" data-name="Trazado 264099" d="M89.087,150.178c-.042-.014.125-.526.254-1.377a10.345,10.345,0,0,0-1.151-6.491c-.414-.755-.747-1.179-.712-1.206.013-.01.107.087.265.273a6.6,6.6,0,0,1,.6.845,9.361,9.361,0,0,1,1.172,6.608,6.519,6.519,0,0,1-.272,1,1.128,1.128,0,0,1-.155.348" transform="translate(-9479.871 -10378.522)" fill="#263238"/>
      <g id="Grupo_870797" data-name="Grupo 870797" transform="translate(-9408.194 -10247.17)">
        <g id="Grupo_870796" data-name="Grupo 870796" clip-path="url(#clip-path-5)">
          <path id="Trazado_264100" data-name="Trazado 264100" d="M58.991,121.265a33.154,33.154,0,0,1-4.745-.673,12.593,12.593,0,0,0,7.314,1.466,3.868,3.868,0,0,0,2.5-1.074,12.628,12.628,0,0,1-5.067.281" transform="translate(-54.246 -120.592)"/>
        </g>
      </g>
      <g id="Grupo_870800" data-name="Grupo 870800" transform="translate(-9392.662 -10232.991)">
        <g id="Grupo_870799" data-name="Grupo 870799" clip-path="url(#clip-path-6)">
          <path id="Trazado_264101" data-name="Trazado 264101" d="M86.916,157.251a8.407,8.407,0,0,0,2.231-6.833A9.488,9.488,0,0,1,89.5,152.9a4.2,4.2,0,0,1-.667,2.747,3.4,3.4,0,0,1-1.917,1.6" transform="translate(-86.916 -150.418)"/>
        </g>
      </g>
      <path id="Trazado_264102" data-name="Trazado 264102" d="M48,130.349a4.759,4.759,0,0,0-6.79.638c-.068.089-.134.18-.2.273-.992,1.488-3.729,24.666-2.638,27.443s2.678,2.579,2.678,2.579A70.433,70.433,0,0,0,53.38,160.01c5.157-1.19,10.908-3.144,10.908-3.144l-.953-5.614s-12.628,1.672-16.1,1.276l1.325-11.284s3.017-3.677,2.151-7.049A7.817,7.817,0,0,0,48,130.349" transform="translate(-9453.982 -10372.288)" fill="#ffbe9d"/>
      <path id="Trazado_264103" data-name="Trazado 264103" d="M99.522,164.308l2.834-1.906,2.041-1.721a2.315,2.315,0,0,1-.384,1.813c-.635.96-1.7,2.4-1.7,2.4Z" transform="translate(-9486.19 -10388.793)" fill="#ffbe9d"/>
      <path id="Trazado_264104" data-name="Trazado 264104" d="M101.583,162.948c-.024-.02.159-.218.358-.629a2.759,2.759,0,0,0,.184-1.819l.169.051-2.029,1.734,0,0-.006,0-.152.1-1.789,1.19a17.142,17.142,0,0,1-1.492.922,10.484,10.484,0,0,1-1.438.744,10.381,10.381,0,0,1,1.346-.893c.431-.251.919-.589,1.46-.966l1.774-1.2.151-.1-.01.008,2.051-1.707.134-.111.036.162a2.741,2.741,0,0,1-.278,1.935,2.211,2.211,0,0,1-.321.444c-.087.091-.137.135-.146.128" transform="translate(-9484.02 -10388.581)" fill="#eb996e"/>
      <path id="Trazado_264105" data-name="Trazado 264105" d="M97.369,166.448c.1-.192,7.551-8.5,9.388-10.546a.8.8,0,0,1,1.182,1.064l-9.547,10.616Z" transform="translate(-9485.061 -10386.148)" fill="#263238"/>
      <path id="Trazado_264106" data-name="Trazado 264106" d="M100.609,169.1c.306-.414-.152-1.226-.573-1.449s-2.108.709-2.108.709l-.611.055s-3.274-.663-3.383-.609a10.572,10.572,0,0,0-2.365,1.425,4.468,4.468,0,0,0-.862,1.012,3.563,3.563,0,0,1-2.289,1.354l1.389,5.642s3.044-.716,3.275-.718,2.779-.208,3.118-.264a8.46,8.46,0,0,0,2.869-1.316c1.091-.812.582-1.5.582-1.5,1.13-.766.25-1.529.25-1.529l.316-.539a.977.977,0,0,0-.478-1.336,8.359,8.359,0,0,0,.871-.935" transform="translate(-9480.365 -10392.433)" fill="#ffbe9d"/>
      <path id="Trazado_264107" data-name="Trazado 264107" d="M109.3,173.4c-.019-.062.338-.224.742-.475s.712-.494.759-.448-.2.377-.639.643-.846.339-.862.281" transform="translate(-9491.318 -10394.977)" fill="#eb996e"/>
      <path id="Trazado_264108" data-name="Trazado 264108" d="M111.3,177.031c-.04-.049.076-.211.26-.361s.364-.233.4-.184-.076.21-.259.361-.365.233-.4.184" transform="translate(-9492.366 -10397.076)" fill="#eb996e"/>
      <path id="Trazado_264109" data-name="Trazado 264109" d="M110.6,179.9c-.006-.064.184-.133.406-.218s.41-.158.448-.106-.111.223-.367.32-.483.067-.487,0" transform="translate(-9492.003 -10398.696)" fill="#eb996e"/>
      <path id="Trazado_264110" data-name="Trazado 264110" d="M104.605,169.123a6.318,6.318,0,0,1-1.724.244,11.557,11.557,0,0,1-1.733.093,4.279,4.279,0,0,1,1.714-.34,6.131,6.131,0,0,1,1.744,0" transform="translate(-9487.043 -10393.192)" fill="#eb996e"/>
      <path id="Trazado_264111" data-name="Trazado 264111" d="M54.636,178.029a8.662,8.662,0,0,1-1.267,1.627,8.663,8.663,0,0,1-1.452,1.464,8.673,8.673,0,0,1,1.267-1.628,8.669,8.669,0,0,1,1.452-1.464" transform="translate(-9461.217 -10397.892)" fill="#eb996e"/>
      <path id="Trazado_264112" data-name="Trazado 264112" d="M53.048,137c-.024-.005.034-.253.077-.706a6.128,6.128,0,0,0-.091-1.906,6.995,6.995,0,0,0-3.877-4.676,4.534,4.534,0,0,0-3.347-.218,3.748,3.748,0,0,0-2.176,1.663,6.269,6.269,0,0,0-.68,1.782,5.554,5.554,0,0,1-.166.691.524.524,0,0,1,0-.185,5.077,5.077,0,0,1,.068-.525,5.785,5.785,0,0,1,.624-1.852,3.653,3.653,0,0,1,.874-1.049,4.358,4.358,0,0,1,1.381-.741,4.71,4.71,0,0,1,3.516.207,6.685,6.685,0,0,1,2.751,2.232,6.583,6.583,0,0,1,1.2,2.637,5.656,5.656,0,0,1,.015,1.953,4.214,4.214,0,0,1-.112.519c-.032.117-.052.177-.061.175" transform="translate(-9456.427 -10372.187)" fill="#263238"/>
      <path id="Trazado_264113" data-name="Trazado 264113" d="M115.441,98.533H95.947A1.449,1.449,0,0,0,94.5,99.982v18.892a1.449,1.449,0,0,0,1.449,1.45h7.177l2.8,3.973,2.433-3.973h7.08a1.449,1.449,0,0,0,1.449-1.45V99.982a1.449,1.449,0,0,0-1.449-1.449" transform="translate(-9483.555 -10356.191)" fill="#fafafa"/>
      <path id="Trazado_264114" data-name="Trazado 264114" d="M115.3,98.419a1.155,1.155,0,0,1,.573.1,1.471,1.471,0,0,1,.914,1.339c.008,1.48.02,3.621.035,6.314s.017,5.962.027,9.657q0,1.386.005,2.853a1.575,1.575,0,0,1-.673,1.364,1.558,1.558,0,0,1-.757.269c-.271.013-.513,0-.774.008l-6.43.008.1-.056-2.43,3.975-.1.156-.106-.15-2.805-3.972.1.052H97.951c-.784-.006-1.538.012-2.334-.013a1.567,1.567,0,0,1-1.054-.6,1.686,1.686,0,0,1-.328-1.149q0-2.274,0-4.477c0-2.935,0-5.766.007-8.463q0-2.022.005-3.941,0-.961.006-1.893A1.554,1.554,0,0,1,95.4,98.371a3.75,3.75,0,0,1,.914-.053h.876l1.7,0,3.2.008,9.66.039,2.627.023.683.012c.154,0,.232.013.232.013s-.079.009-.232.013l-.683.012-2.627.023-9.66.039-3.2.008-1.7,0h-.876a3.632,3.632,0,0,0-.861.049,1.344,1.344,0,0,0-.991,1.238v1.883q0,1.917.005,3.941c0,2.7,0,5.528.007,8.463q0,2.2,0,4.477a1.434,1.434,0,0,0,.277,1,1.323,1.323,0,0,0,.889.506c.738.021,1.534.006,2.3.01h5.1l.037.052,2.8,3.974-.2.007,2.436-3.971.035-.056h.065l6.43.008c.253,0,.521.007.757,0a1.345,1.345,0,0,0,.653-.229,1.362,1.362,0,0,0,.585-1.188q0-1.466.005-2.853c.01-3.695.02-6.952.027-9.657s.025-4.834.033-6.314a1.428,1.428,0,0,0-.307-.88,1.484,1.484,0,0,0-.545-.423,1.87,1.87,0,0,0-.558-.133" transform="translate(-9483.415 -10356.077)" fill="#263238"/>
      <path id="Trazado_264115" data-name="Trazado 264115" d="M114.619,120.326a.8.8,0,0,1-.133.009l-.383.009-1.418.016-4.759.021h-.039l-.006-.039c-.036-.252-.073-.518-.111-.788-.319-2.308-.6-4.368-.79-5.714l.028.024-1.267-.011-.337-.007a.592.592,0,0,1-.116-.008.707.707,0,0,1,.116-.008l.337-.008,1.267-.015h.025l0,.025c.193,1.345.49,3.4.822,5.709.038.27.076.537.111.788l-.044-.039,4.759.008,1.418.012.383.008a.783.783,0,0,1,.133.008" transform="translate(-9489.215 -10364.203)" fill="#263238"/>
      <path id="Trazado_264116" data-name="Trazado 264116" d="M107.781,120.37a.086.086,0,0,1-.073-.074l-.893-6.443-1.507-.018c-.135,0-.2-.006-.2-.09s.068-.094.2-.1l.338-.008,1.293-.015a.086.086,0,0,1,.087.074l.922,6.411,6.447.027c.156,0,.214.006.217.092v0c0,.086-.06.088-.216.093l-.384.009-1.418.016-4.8.021h-.012" transform="translate(-9489.12 -10364.108)" fill="#263238"/>
      <path id="Trazado_264117" data-name="Trazado 264117" d="M109.794,120.086a.118.118,0,0,1,.034,0l.1,0,.383-.008,1.432-.015,4.939-.023-.042.036c.145-.832.3-1.731.465-2.661.084-.479.166-.949.245-1.4l.044.052-5.821-.007-1.724-.011-.464-.007-.12,0a.021.021,0,1,1,0-.009l.12,0,.464-.009,1.723-.016,5.821-.023h.053l-.009.053-.244,1.4c-.164.93-.322,1.829-.468,2.66l-.006.036h-.036l-4.939-.009-1.432-.01-.383-.007-.1,0a.118.118,0,0,1-.034,0" transform="translate(-9491.278 -10365.341)" fill="#263238"/>
      <path id="Trazado_264118" data-name="Trazado 264118" d="M109.7,120.078c-.038-.005-.09-.023-.089-.088,0-.083.087-.087.115-.089l.485-.012,1.433-.014,4.831-.023.665-3.8-7.976-.029c-.039,0-.126-.006-.124-.093s.083-.086.122-.088l.588-.013,2.939-.021,4.66-.019a.086.086,0,0,1,.085.1l-.728,4.146a.087.087,0,0,1-.085.072l-6.892-.03-.028,0" transform="translate(-9491.184 -10365.245)" fill="#263238"/>
      <path id="Trazado_264119" data-name="Trazado 264119" d="M112.835,130.575c-.008,0-.009-.059-.038-.159a.672.672,0,0,0-.246-.347.641.641,0,0,0-.6-.082.631.631,0,1,0,.6,1.1.668.668,0,0,0,.245-.348c.029-.1.029-.16.038-.159a.343.343,0,0,1,0,.168.664.664,0,0,1-.241.39.7.7,0,0,1-.666.111.708.708,0,0,1,0-1.335.7.7,0,0,1,.667.109.664.664,0,0,1,.242.389.34.34,0,0,1,0,.168" transform="translate(-9492.448 -10372.63)" fill="#263238"/>
      <path id="Trazado_264120" data-name="Trazado 264120" d="M111.954,131.267a.852.852,0,0,1-.153-.038.794.794,0,0,1,0-1.5.783.783,0,0,1,.749.125.755.755,0,0,1,.271.44.572.572,0,0,1,.009.183.581.581,0,0,1-.008.184.756.756,0,0,1-.271.441.785.785,0,0,1-.6.163m.2-1.325a.544.544,0,0,0-.27,1.047.555.555,0,0,0,.519-.072.582.582,0,0,0,.215-.3.95.95,0,0,0,.026-.115c0-.006,0-.012,0-.02s0-.014,0-.019a1.034,1.034,0,0,0-.026-.115.586.586,0,0,0-.214-.3.556.556,0,0,0-.249-.1" transform="translate(-9492.354 -10372.533)" fill="#263238"/>
      <path id="Trazado_264121" data-name="Trazado 264121" d="M121.9,130.562c-.008,0-.009-.059-.038-.159a.673.673,0,0,0-.246-.347.641.641,0,0,0-.6-.082.629.629,0,0,0,0,1.18.64.64,0,0,0,.6-.084.671.671,0,0,0,.245-.348c.029-.1.029-.16.038-.159a.343.343,0,0,1,0,.168.667.667,0,0,1-.241.39.7.7,0,0,1-.666.111.708.708,0,0,1,0-1.335.7.7,0,0,1,.667.109.666.666,0,0,1,.242.389.34.34,0,0,1,0,.168" transform="translate(-9497.201 -10372.623)" fill="#263238"/>
      <path id="Trazado_264122" data-name="Trazado 264122" d="M121.013,131.253a.768.768,0,0,1-.153-.038.794.794,0,0,1,0-1.5.782.782,0,0,1,.748.125.754.754,0,0,1,.271.44,2.028,2.028,0,0,1,0,.367.753.753,0,0,1-.271.442.784.784,0,0,1-.6.163m.2-1.325a.543.543,0,0,0-.269,1.047.553.553,0,0,0,.519-.071.584.584,0,0,0,.214-.3.93.93,0,0,0,.026-.115l0-.02,0-.02a.953.953,0,0,0-.026-.115.585.585,0,0,0-.214-.3.549.549,0,0,0-.25-.1" transform="translate(-9497.105 -10372.526)" fill="#263238"/>
      <path id="Trazado_264123" data-name="Trazado 264123" d="M126.611,115.04a2.244,2.244,0,1,1-2.244-2.244,2.244,2.244,0,0,1,2.244,2.244" transform="translate(-9498.047 -10363.674)" fill="#00f3be"/>
      <path id="Trazado_264124" data-name="Trazado 264124" d="M124.144,116.533l.336-.336.648.576,1.271-1.224.312.336-1.631,1.535Z" transform="translate(-9499.106 -10365.118)" fill="#fff"/>
    </g>
  </g>
</svg>
