<svg xmlns="http://www.w3.org/2000/svg" xmlns:xlink="http://www.w3.org/1999/xlink" width="334.927" height="259.24" viewBox="0 0 334.927 259.24">
  <defs>
    <clipPath id="clip-path">
      <rect id="Rectángulo_291369" data-name="Rectángulo 291369" width="252.116" height="258.24" fill="#fff"/>
    </clipPath>
    <clipPath id="clip-path-2">
      <rect id="Rectángulo_291707" data-name="Rectángulo 291707" width="334.927" height="225.502" fill="none"/>
    </clipPath>
    <clipPath id="clip-path-4">
      <rect id="Rectángulo_291701" data-name="Rectángulo 291701" width="12.92" height="17.445" fill="none"/>
    </clipPath>
    <clipPath id="clip-path-5">
      <rect id="Rectángulo_291702" data-name="Rectángulo 291702" width="27.91" height="12.045" fill="none"/>
    </clipPath>
    <clipPath id="clip-path-6">
      <rect id="Rectángulo_291703" data-name="Rectángulo 291703" width="127.881" height="81.27" fill="#7a7e9a"/>
    </clipPath>
    <clipPath id="clip-path-7">
      <rect id="Rectángulo_291704" data-name="Rectángulo 291704" width="42.403" height="36.722" fill="none"/>
    </clipPath>
  </defs>
  <g id="Grupo_872341" data-name="Grupo 872341" transform="translate(-213.007 -6024.629)">
    <g id="Grupo_870715" data-name="Grupo 870715" transform="translate(254.412 6024.629)">
      <g id="Grupo_870714" data-name="Grupo 870714" clip-path="url(#clip-path)">
        <path id="Trazado_215321" data-name="Trazado 215321" d="M19.194,125.641C50.705,99.911-3.863,58.389,8.219,17.32s51.953,1.154,73.407,21.387,46.595-15.966,63.261-16.938,7.287,14.849,14.8,35.343,62.926,3.474,85.14,23.269-13.176,61.918-16.155,87.037,35.281,53.541,10.768,90.822L117.665,257.5c-12.253-3.857-20.248-6.914-20.248-6.914C-16.59,200.163-12.317,151.371,19.194,125.641" transform="translate(0 0)" fill="#fff"/>
      </g>
    </g>
    <g id="Grupo_871480" data-name="Grupo 871480" transform="translate(213.007 6058.368)">
      <g id="Grupo_871479" data-name="Grupo 871479" clip-path="url(#clip-path-2)">
        <g id="Grupo_871476" data-name="Grupo 871476">
          <g id="Grupo_871475" data-name="Grupo 871475" clip-path="url(#clip-path-2)">
            <path id="Trazado_265741" data-name="Trazado 265741" d="M263.458,43.688l-.728,58.582c-.124,9.962,1.73,24.621,17.49,24.1,13.639-1.485,17.257-14.4,17.364-23.693.05-4.41.1-8.087.136-8.54,0,0,14.931-1.217,16.191-15.965.609-7.126.668-21.907.567-35.279a27.568,27.568,0,0,0-25.57-27.271l-1.424-.1c-15.422-.225-24.229,12.748-24.026,28.171" transform="translate(-112.439 -6.64)" fill="#ffbe9d"/>
            <path id="Trazado_265742" data-name="Trazado 265742" d="M309.834,147.657a35.754,35.754,0,0,1-18.8-7.085s3.9,11.124,18.727,10.87Z" transform="translate(-124.553 -60.161)" fill="#eb996e"/>
            <path id="Trazado_265743" data-name="Trazado 265743" d="M302.336,71.987c-.293.3-2-1.073-4.467-1.139-2.467-.1-4.315,1.146-4.575.828-.128-.141.177-.686.983-1.252a6.185,6.185,0,0,1,3.673-1.042,5.966,5.966,0,0,1,3.545,1.289c.743.62.985,1.183.841,1.316" transform="translate(-125.51 -29.692)" fill="#263238"/>
            <path id="Trazado_265744" data-name="Trazado 265744" d="M305.222,81.414a2,2,0,0,1-2.07,1.871,1.912,1.912,0,0,1-1.924-1.948,2,2,0,0,1,2.068-1.873,1.914,1.914,0,0,1,1.925,1.949" transform="translate(-128.917 -34.009)" fill="#263238"/>
            <path id="Trazado_265745" data-name="Trazado 265745" d="M319.942,89.788a15.034,15.034,0,0,1,3.733-.4c.583-.017,1.14-.092,1.266-.48a2.956,2.956,0,0,0-.261-1.745q-.663-2.161-1.391-4.536c-1.92-6.453-3.265-11.742-3-11.818s2.028,5.1,3.948,11.548q.69,2.385,1.317,4.557a3.369,3.369,0,0,1,.134,2.3,1.457,1.457,0,0,1-1.014.777,3.953,3.953,0,0,1-.994.065,14.793,14.793,0,0,1-3.734-.268" transform="translate(-136.926 -30.306)" fill="#263238"/>
            <path id="Trazado_265746" data-name="Trazado 265746" d="M300.4,56.313c-.239.548-2.217.136-4.585.257-2.371.072-4.316.644-4.591.117-.121-.252.247-.757,1.053-1.246a7.472,7.472,0,0,1,3.468-.975,7.394,7.394,0,0,1,3.523.691c.835.422,1.237.9,1.133,1.156" transform="translate(-124.627 -23.307)" fill="#263238"/>
            <path id="Trazado_265747" data-name="Trazado 265747" d="M341.525,64.27c-.259.447-2.187-.049-4.524-.121-2.336-.114-4.276.227-4.522-.24-.108-.223.277-.624,1.091-.978a8.16,8.16,0,0,1,3.456-.571,8.425,8.425,0,0,1,3.436.846c.8.419,1.177.851,1.063,1.064" transform="translate(-142.284 -26.685)" fill="#263238"/>
            <path id="Trazado_265748" data-name="Trazado 265748" d="M256.975,83.481c-.244-.127-9.923-3.74-10.338,6.374s9.826,8.445,9.855,8.155.482-14.529.482-14.529" transform="translate(-105.549 -35.415)" fill="#ffbe9d"/>
            <path id="Trazado_265749" data-name="Trazado 265749" d="M255.484,96.46c-.043-.034-.181.116-.485.24a1.762,1.762,0,0,1-1.319-.027c-1.053-.436-1.883-2.169-1.857-3.994a5.834,5.834,0,0,1,.6-2.5,2.039,2.039,0,0,1,1.381-1.3.9.9,0,0,1,1.02.526c.124.288.051.487.1.507.027.026.224-.161.16-.582a1.123,1.123,0,0,0-.372-.65,1.331,1.331,0,0,0-.964-.3,2.477,2.477,0,0,0-1.9,1.492,5.987,5.987,0,0,0-.726,2.794c-.019,2.041.947,3.99,2.392,4.473a1.888,1.888,0,0,0,1.622-.2c.323-.237.386-.462.352-.481" transform="translate(-107.471 -37.824)" fill="#eb996e"/>
            <path id="Trazado_265750" data-name="Trazado 265750" d="M311.764,111.356c.11-.256-1.871-.849-3.265-2.708a11.352,11.352,0,0,1-1.4-2.642c-.3-.734-.519-1.195-.628-1.161s-.078.529.085,1.328a7.459,7.459,0,0,0,1.3,2.959,6.046,6.046,0,0,0,2.584,1.978c.772.313,1.294.332,1.321.246" transform="translate(-131.135 -44.87)" fill="#263238"/>
            <path id="Trazado_265751" data-name="Trazado 265751" d="M324.319,23.014a2.392,2.392,0,0,0-1.122-1.4,7.35,7.35,0,0,0-3.77-.611,21.3,21.3,0,0,1-11.091-3.371,49.613,49.613,0,0,0-5.161-6.255c-4.47-4.609-8.148-7.746-11.953-9.278C286.3.123,278.072-.68,272.94.666S263.2,6.175,262.487,11.432c-2.878-2.433-7.2-2.412-10.7-1l-.089-.038c-3.9,1.391-6.121,5.515-7.272,9.5s-1.642,8.237-3.75,11.8c-.44.746-.965,1.639-.579,2.416a1.646,1.646,0,0,0,1.724.75,4.822,4.822,0,0,0,1.816-.822q-.653,1.563-1.305,3.127a9.226,9.226,0,0,0,4.246-.284,90.63,90.63,0,0,0,2.776,10.5c1.632,0,3.125.112,4.131,1.016,1.367,1.229,1.979,3.542,4.251,2.664,1.155-.447,2.21-2.872,2.6-4.05a57.555,57.555,0,0,0,2.492-24.363,18.5,18.5,0,0,1,5.712-4.123l-.174.157c4.121-1.432,8.784-2.84,12.694-.9,3.033,1.5,4.816,4.648,7.085,7.16a23.154,23.154,0,0,0,16.5,7.623c.218,4.152-.13,10.022.088,14.174l3.493-6.652,0,.033c.286-.487.522-.978.751-1.47l.078-.149v-.018a25.746,25.746,0,0,1,1.168-2.362l.039.035a2.594,2.594,0,0,0,3.791-3.47,5.85,5.85,0,0,0-1.254-1.26,4.1,4.1,0,0,0,3.91,1.014,3.22,3.22,0,0,0,2.278-3.184,2.739,2.739,0,0,0-1.632-2.2,9.251,9.251,0,0,0,5.26-1.16c1.039-.593,2.058-1.567,1.706-2.874" transform="translate(-102.697 0)" fill="#263238"/>
            <path id="Trazado_265752" data-name="Trazado 265752" d="M271.26,22.946a12.687,12.687,0,0,0-1.48,1.353,10.577,10.577,0,0,0-2.264,4.9,18.561,18.561,0,0,0-.377,3.749c-.006,1.359.1,2.813.207,4.347a38.9,38.9,0,0,1,.11,4.838,17.046,17.046,0,0,1-.332,2.552,5.322,5.322,0,0,1-1.041,2.476,2.225,2.225,0,0,1-2.082.7,3.312,3.312,0,0,1-1.873-1.058,7.654,7.654,0,0,1-1.422-3.751l.31.037a12.348,12.348,0,0,1-1.8,3.091,4.391,4.391,0,0,1-2.87,1.563,2.837,2.837,0,0,1-1.521-.266,2.458,2.458,0,0,1-1.033-1.018,2.528,2.528,0,0,1-.313-1.308A1.837,1.837,0,0,1,253.957,44l.157.14a9.516,9.516,0,0,1-3.169,2.378,8.495,8.495,0,0,1-.982.381,1.633,1.633,0,0,1-.352.088,1.784,1.784,0,0,1,.333-.142c.219-.09.545-.221.952-.428A9.8,9.8,0,0,0,253.954,44l.157.14a1.891,1.891,0,0,0-.1,2.192,2.213,2.213,0,0,0,.934.9,2.571,2.571,0,0,0,1.379.224,4.119,4.119,0,0,0,2.664-1.485,12.172,12.172,0,0,0,1.728-3.024l.212-.473.1.511a7.4,7.4,0,0,0,1.353,3.584,2.98,2.98,0,0,0,1.677.947,1.878,1.878,0,0,0,1.77-.593,5.037,5.037,0,0,0,.961-2.316,16.908,16.908,0,0,0,.331-2.5,39.483,39.483,0,0,0-.091-4.8c-.095-1.532-.195-2.993-.176-4.37a18.5,18.5,0,0,1,.424-3.8,10.434,10.434,0,0,1,2.4-4.936,5.981,5.981,0,0,1,1.579-1.264" transform="translate(-106.827 -9.82)" fill="#455a64"/>
            <path id="Trazado_265753" data-name="Trazado 265753" d="M333.47,31.1s-.037.039-.118.1l-.368.269a4.974,4.974,0,0,1-.625.4,7.867,7.867,0,0,1-.9.472,13.077,13.077,0,0,1-6.314,1.136,16.715,16.715,0,0,1-8.9-3.287,28.965,28.965,0,0,1-7.649-8.816c-1.073-1.786-1.948-3.618-2.912-5.309a19.556,19.556,0,0,0-3.3-4.491A10.068,10.068,0,0,0,298.135,9a7.216,7.216,0,0,0-2.241-.258,7.935,7.935,0,0,0-2.052.394,8.538,8.538,0,0,0-4.74,4.011,10.288,10.288,0,0,0-.762,2.212.53.53,0,0,1,.012-.155c.019-.122.042-.271.07-.451a7.4,7.4,0,0,1,.56-1.666,8.4,8.4,0,0,1,1.651-2.239,8.635,8.635,0,0,1,3.13-1.942,8.119,8.119,0,0,1,2.118-.43,7.468,7.468,0,0,1,2.332.248,10.317,10.317,0,0,1,4.4,2.627,19.709,19.709,0,0,1,3.369,4.552c.976,1.7,1.851,3.53,2.914,5.3a28.969,28.969,0,0,0,7.539,8.735,16.611,16.611,0,0,0,8.732,3.3,13.287,13.287,0,0,0,6.244-1.015A20.811,20.811,0,0,0,333.47,31.1" transform="translate(-123.4 -3.625)" fill="#455a64"/>
            <path id="Trazado_265754" data-name="Trazado 265754" d="M357.887,36.7a2.337,2.337,0,0,1-.53.368,11.437,11.437,0,0,1-1.566.8,15.25,15.25,0,0,1-2.48.815,16.064,16.064,0,0,1-6.366.2,15.3,15.3,0,0,1-2.527-.654,11.462,11.462,0,0,1-1.614-.694,2.316,2.316,0,0,1-.551-.333c.029-.058.843.36,2.242.8a17.47,17.47,0,0,0,2.5.572,17.226,17.226,0,0,0,6.244-.2,17.393,17.393,0,0,0,2.459-.731c1.368-.523,2.155-.994,2.187-.938" transform="translate(-146.475 -15.706)" fill="#455a64"/>
            <path id="Trazado_265755" data-name="Trazado 265755" d="M341.713,73.614c-.293.3-2-1.073-4.467-1.139-2.467-.1-4.316,1.146-4.575.828-.128-.141.177-.686.983-1.252a6.189,6.189,0,0,1,3.673-1.042,5.97,5.97,0,0,1,3.545,1.29c.743.62.985,1.182.841,1.316" transform="translate(-142.362 -30.388)" fill="#263238"/>
            <path id="Trazado_265756" data-name="Trazado 265756" d="M341.107,82.669a2,2,0,0,1-2.07,1.871,1.912,1.912,0,0,1-1.924-1.948,2,2,0,0,1,2.068-1.873,1.914,1.914,0,0,1,1.925,1.949" transform="translate(-144.275 -34.546)" fill="#263238"/>
            <path id="Trazado_265757" data-name="Trazado 265757" d="M481.129,174.134a4.072,4.072,0,0,0-4.1-4.286c-1.56-2.049-3.315-1.3-3.315-1.3l-6.63,4.472c-.975,1.677-7.409,8.012-7.409,8.012-1.755-1.3-1.755-3.913-3.858-7.081s-6.867-2.795-6.867-2.795,3.705,8.385,4.1,13.6-2.848,19.769-2.848,19.769l18.744,5.268s1.183-7.983,3.283-8.627c2.528-.776,3.934-4.505,3.934-4.505,2.733-5.536,8.281-13.581,9.061-17.68s-4.1-4.844-4.1-4.844" transform="translate(-192.14 -72.076)" fill="#ffbe9d"/>
            <path id="Trazado_265758" data-name="Trazado 265758" d="M236.713,162.217c11.939,7.5,23.971,10.325,36.156,5.466l18.318,4.679L309.209,292.77l-105.667.918,5.206-27.966,13.1-100.48Z" transform="translate(-87.11 -69.424)" fill="#58907e"/>
            <path id="Trazado_265759" data-name="Trazado 265759" d="M356.76,179.952s14.247,5.916,19.685,16.279,14.177,39.452,14.177,39.452l16.1-29.565,29.878,7.638s-22.239,61.343-27.822,66.928c-6.113,6.114-22.77,12.279-30.927,7.521s-9.816-22.817-9.816-22.817Z" transform="translate(-152.683 -77.014)" fill="#58907e"/>
            <path id="Trazado_265760" data-name="Trazado 265760" d="M358.366,250.119c-.082,0-.149-5.348-.149-11.943s.066-11.946.149-11.946.149,5.347.149,11.946-.066,11.943-.149,11.943" transform="translate(-153.307 -96.82)" fill="#263238"/>
            <path id="Trazado_265761" data-name="Trazado 265761" d="M365.07,191.98a17.884,17.884,0,0,1-.7,1.972c-.448,1.209-1.043,2.888-1.626,4.766s-1.038,3.6-1.35,4.852a17.691,17.691,0,0,1-.542,2.02,2.059,2.059,0,0,1,.056-.561c.053-.358.148-.872.28-1.506.261-1.267.688-3,1.271-4.893s1.216-3.561,1.715-4.755c.251-.6.463-1.075.62-1.4a2.03,2.03,0,0,1,.272-.494" transform="translate(-154.433 -82.162)" fill="#263238"/>
            <path id="Trazado_265762" data-name="Trazado 265762" d="M187.577,212.384l3.306-45.369s-24.872,2.308-33.1,19.855c-6.936,14.787-26.081,59.276-28.131,65.362-6.013,17.859,3.381,42.412,42.108,40.99l4.415-24.279Z" transform="translate(-54.773 -71.478)" fill="#58907e"/>
            <path id="Trazado_265763" data-name="Trazado 265763" d="M183.478,346.859a2.838,2.838,0,0,1,.2-.435l.632-1.221,2.372-4.464.792-1.477a4.382,4.382,0,0,1,1.138-1.462,3.092,3.092,0,0,1,1.913-.55,8.709,8.709,0,0,1,2.062.334,21.152,21.152,0,0,1,4.162,1.574,11.031,11.031,0,0,1,2,1.273l.23.2a.749.749,0,0,1,.2.307,2.586,2.586,0,0,1,.126.625,9.732,9.732,0,0,1,.027,1.232c-.06,1.64-.264,3.221-.469,4.745s-.442,2.987-.676,4.379c-.468,2.785-.936,5.283-1.337,7.38l-.972,4.96q-.166.847-.265,1.348a3.832,3.832,0,0,1-.1.47,2.344,2.344,0,0,1,.041-.479c.041-.312.112-.771.211-1.359l.879-4.978c.375-2.1.821-4.6,1.274-7.386.225-1.392.452-2.854.657-4.374s.4-3.1.46-4.714a9.594,9.594,0,0,0-.026-1.193,2.278,2.278,0,0,0-.108-.55.437.437,0,0,0-.118-.193l-.219-.191a10.81,10.81,0,0,0-1.941-1.241,21.162,21.162,0,0,0-4.1-1.568,8.5,8.5,0,0,0-2-.338,2.847,2.847,0,0,0-1.762.487,4.168,4.168,0,0,0-1.083,1.375l-.809,1.466-2.455,4.418-.681,1.194a2.875,2.875,0,0,1-.255.407" transform="translate(-78.523 -144.334)" fill="#263238"/>
            <path id="Trazado_265764" data-name="Trazado 265764" d="M152.038,316.364a1.078,1.078,0,0,1,.292-.009l.835.032c.724.035,1.772.1,3.065.217a39.809,39.809,0,0,1,4.517.657,23.117,23.117,0,0,1,5.312,1.76,20.828,20.828,0,0,1,4.673,3.084,12.486,12.486,0,0,1,2.837,3.585,7.944,7.944,0,0,1,.86,2.959,5.27,5.27,0,0,1,.017.839,1.071,1.071,0,0,1-.025.291c-.033,0-.021-.4-.108-1.117a8.331,8.331,0,0,0-.932-2.875,12.633,12.633,0,0,0-2.832-3.477,21.207,21.207,0,0,0-4.621-3.02,23.7,23.7,0,0,0-5.24-1.76,43.94,43.94,0,0,0-4.481-.716c-1.286-.146-2.33-.24-3.052-.311l-.831-.088a1.075,1.075,0,0,1-.288-.05" transform="translate(-65.068 -135.39)" fill="#263238"/>
            <path id="Trazado_265765" data-name="Trazado 265765" d="M194.752,312.367a10.875,10.875,0,0,1-.619,1.785c-.426,1.086-1.061,2.567-1.789,4.189l-1.867,4.149a13.232,13.232,0,0,1-.813,1.7,10.718,10.718,0,0,1,.618-1.785c.426-1.086,1.061-2.568,1.789-4.19l1.867-4.149a13,13,0,0,1,.813-1.7" transform="translate(-81.17 -133.684)" fill="#263238"/>
            <path id="Trazado_265766" data-name="Trazado 265766" d="M222.511,240.333c-.082,0-.149-2.876-.149-6.422s.066-6.423.149-6.423.149,2.875.149,6.423-.066,6.422-.149,6.422" transform="translate(-95.165 -97.359)" fill="#263238"/>
            <g id="Grupo_871465" data-name="Grupo 871465" transform="translate(96.434 194.388)" opacity="0.3">
              <g id="Grupo_871464" data-name="Grupo 871464">
                <g id="Grupo_871463" data-name="Grupo 871463" clip-path="url(#clip-path-4)">
                  <path id="Trazado_265767" data-name="Trazado 265767" d="M181.5,339.822c-6.543,2.282-10.966,8.219-12.752,14.914a2.312,2.312,0,0,0,.157,2.086,1.647,1.647,0,0,0,2.054.168,4.8,4.8,0,0,0,1.456-1.678,171.834,171.834,0,0,0,9.084-15.491" transform="translate(-168.583 -339.822)"/>
                </g>
              </g>
            </g>
            <g id="Grupo_871468" data-name="Grupo 871468" transform="translate(80.586 178.465)" opacity="0.3">
              <g id="Grupo_871467" data-name="Grupo 871467">
                <g id="Grupo_871466" data-name="Grupo 871466" clip-path="url(#clip-path-5)">
                  <path id="Trazado_265768" data-name="Trazado 265768" d="M161.529,314.965a26.377,26.377,0,0,0-11.263-2.954,17.106,17.106,0,0,0-4.553.4c-2.042.429-4.39,1.461-4.836,2.928,4.7-1.471,11.609-.5,16.416.549a17.635,17.635,0,0,1,11.494,8.144,16.394,16.394,0,0,0-7.258-9.067" transform="translate(-140.877 -311.986)"/>
                </g>
              </g>
            </g>
            <path id="Trazado_265769" data-name="Trazado 265769" d="M209.109,204.075a3.66,3.66,0,0,1-.228-.716c-.122-.466-.321-1.134-.591-1.951a31.491,31.491,0,0,0-6.759-11.487c-.582-.633-1.07-1.131-1.417-1.464a3.661,3.661,0,0,1-.515-.547,3.635,3.635,0,0,1,.594.462c.373.308.886.787,1.492,1.4a28.351,28.351,0,0,1,6.807,11.568c.247.83.416,1.511.5,1.987a3.634,3.634,0,0,1,.115.743" transform="translate(-85.422 -80.42)" fill="#263238"/>
            <path id="Trazado_265770" data-name="Trazado 265770" d="M211.134,331.214,183.42,264.347c-1.265-3.051.322-5.525,3.544-5.525h5.576c2.276,0,3.826-1.253,3.972-3.21l.185-2.459c.148-1.956,1.7-3.21,3.978-3.21h26.5a9.273,9.273,0,0,1,6.135,2.714l2.151,2.084a9.268,9.268,0,0,0,6.13,2.714h33.746a9.416,9.416,0,0,1,8.059,5.525l27.474,68.232Z" transform="translate(-78.312 -106.969)" fill="#ff725e"/>
            <g id="Grupo_871471" data-name="Grupo 871471" transform="translate(104.672 142.975)">
              <g id="Grupo_871470" data-name="Grupo 871470">
                <g id="Grupo_871469" data-name="Grupo 871469" clip-path="url(#clip-path-6)">
                  <path id="Trazado_265771" data-name="Trazado 265771" d="M211.134,331.214,183.42,264.347c-1.265-3.051.322-5.525,3.544-5.525h5.576c2.276,0,3.826-1.253,3.972-3.21l.185-2.459c.148-1.956,1.7-3.21,3.978-3.21h26.5a9.273,9.273,0,0,1,6.135,2.714l2.151,2.084a9.268,9.268,0,0,0,6.13,2.714h33.746a9.416,9.416,0,0,1,8.059,5.525l27.474,68.232Z" transform="translate(-182.985 -249.944)" fill="#7a7e9a"/>
                </g>
              </g>
            </g>
            <path id="Trazado_265772" data-name="Trazado 265772" d="M216.254,318.094,205.8,277.681c-.688-2.661,1.055-5.331,3.48-5.331h81.93a3.736,3.736,0,0,1,3.489,3.01l15.215,60.828c.668,2.671-.4,4.273-2.828,4.242l-82.434.026a3.739,3.739,0,0,1-3.443-2.986Z" transform="translate(-88.013 -116.558)" fill="#e0e0e0"/>
            <path id="Trazado_265773" data-name="Trazado 265773" d="M230.747,338.081l-4.453-63.642a3.9,3.9,0,0,1,3.893-4.176h84.889v67.818Z" transform="translate(-96.844 -115.665)" fill="#ebebeb"/>
            <path id="Trazado_265774" data-name="Trazado 265774" d="M232.425,339.537l10.1-65.61a4.7,4.7,0,0,1,4.616-3.664h85.875a4.642,4.642,0,0,1,4.335,6.467l-18.543,60.043Z" transform="translate(-99.471 -115.665)" fill="#fafafa"/>
            <path id="Trazado_265775" data-name="Trazado 265775" d="M232.195,342.8l20.827-61.448a6.166,6.166,0,0,1,5.792-4.272h88.529a4.326,4.326,0,0,1,3.954,5.74l-19.371,60.009Z" transform="translate(-99.373 -118.581)" fill="#7a7e9a"/>
            <g id="Grupo_871474" data-name="Grupo 871474" transform="translate(134.628 187.522)" opacity="0.3">
              <g id="Grupo_871473" data-name="Grupo 871473">
                <g id="Grupo_871472" data-name="Grupo 871472" clip-path="url(#clip-path-7)">
                  <path id="Trazado_265776" data-name="Trazado 265776" d="M276.349,354.226s-3.342.153-4.883.258a45.492,45.492,0,0,1-21.511-3.816c-2.083-.928-4.286-2.238-4.917-4.43-.705-2.455.884-5.01,2.822-6.673s4.295-2.848,5.978-4.77,2.479-5.032.821-6.974l-.458.335c-1.2,3.034-4.533,4.5-7.294,6.234A25.743,25.743,0,0,0,236.1,348.52c-.972,3.181-1.232,6.892.7,9.6,1.369,1.923,3.609,3.016,5.822,3.837,6.7,2.484,13.856,2.576,21,2.584,2.257,0,9.183-.093,9.183-.093,2.178-.593,2.9-1.726,4.207-3.563,1.2-1.687.94-5.339-.656-6.661" transform="translate(-235.352 -327.821)"/>
                </g>
              </g>
            </g>
            <path id="Trazado_265777" data-name="Trazado 265777" d="M263.638,353.13l-23.09-3.472-8.965-5.158a4.045,4.045,0,0,1-2.06-3.257c0-.025,0-.051,0-.076a4.092,4.092,0,0,1,2.537-3.908c2.844-1.2,7.349-2.793,9.271-6.158,2.761-4.838,0-5.841,0-5.841l-19.282,7.707-13.649,9.29-2.746,15.491,19.045,6.22s21.222,1.2,27.077.539,5.856-3.385,5.856-3.385c1.087-.34,3.286-2.27,3.285-4.069,2.842-2.666,2.726-3.924,2.726-3.924" transform="translate(-88.013 -139.203)" fill="#ffbe9d"/>
            <path id="Trazado_265778" data-name="Trazado 265778" d="M255.395,385.631a4.567,4.567,0,0,1,.951.182c.6.146,1.481.34,2.568.557a54.287,54.287,0,0,0,17.233.673c1.1-.132,1.991-.257,2.605-.356a4.6,4.6,0,0,1,.962-.108,4.5,4.5,0,0,1-.934.257c-.606.146-1.493.313-2.6.481a46.909,46.909,0,0,1-17.328-.676c-1.086-.253-1.957-.489-2.55-.681a4.6,4.6,0,0,1-.911-.329" transform="translate(-109.302 -165.037)" fill="#eb996e"/>
            <path id="Trazado_265779" data-name="Trazado 265779" d="M259.08,379.391a4.777,4.777,0,0,1,.966.184c.613.149,1.5.342,2.61.554a56.064,56.064,0,0,0,8.728.965,59.256,59.256,0,0,0,8.776-.4c1.117-.135,2.021-.263,2.643-.364a4.76,4.76,0,0,1,.976-.11,4.722,4.722,0,0,1-.948.26c-.616.148-1.515.319-2.634.489a49.663,49.663,0,0,1-8.825.52A47.427,47.427,0,0,1,262.6,380.4c-1.1-.249-1.99-.484-2.592-.679a4.67,4.67,0,0,1-.926-.332" transform="translate(-110.879 -162.367)" fill="#eb996e"/>
            <path id="Trazado_265780" data-name="Trazado 265780" d="M453.388,182.144l-41.025,8.1a5.232,5.232,0,0,1-6.147-4.119L395,129.343a5.232,5.232,0,0,1,4.119-6.147l26.019-5.139,24.24,16.78L457.507,176a5.232,5.232,0,0,1-4.119,6.147" transform="translate(-169.006 -50.525)" fill="#ebebeb"/>
            <path id="Trazado_265781" data-name="Trazado 265781" d="M447.761,118.057l3.156,15.981a4.867,4.867,0,0,0,5.717,3.832L472,134.837Z" transform="translate(-191.629 -50.525)" fill="#f5f5f5"/>
            <path id="Trazado_265782" data-name="Trazado 265782" d="M454.13,147.955a5.411,5.411,0,0,0,5.228,4.319,5.063,5.063,0,0,0,.527.014c2.078-.037,15.75-.3,15.69-.6-.065-.328-.848-4.294-.848-4.294l-15.366,3.035s-3.863.627-5.231-2.473" transform="translate(-194.355 -63.08)" fill="#e0e0e0"/>
            <path id="Trazado_265783" data-name="Trazado 265783" d="M453.279,182.031s.074-.025.221-.065a4.461,4.461,0,0,0,.646-.211,5.193,5.193,0,0,0,3.246-5.533c-.3-1.662-.709-3.577-1.13-5.723-1.71-8.592-4.158-20.891-7.114-35.75l.051.078-24.251-16.765.109.022-15.013,2.97-7.853,1.552L400.2,123a13.362,13.362,0,0,0-1.96.463,5.085,5.085,0,0,0-2.841,2.66,5.018,5.018,0,0,0-.412,2.719c.145.921.358,1.864.533,2.79q.55,2.789,1.093,5.539,1.085,5.5,2.137,10.83c1.4,7.1,2.749,13.948,4.035,20.473q.963,4.893,1.877,9.534l.9,4.568q.221,1.124.439,2.231a12.077,12.077,0,0,0,.523,2.146,5.125,5.125,0,0,0,2.99,2.854,5.071,5.071,0,0,0,2.035.3,19.51,19.51,0,0,0,2.032-.346l7.746-1.52,23.378-4.569,6.359-1.228,1.655-.312c.373-.069.566-.1.566-.1s-.189.047-.56.126l-1.649.341-6.348,1.282-23.359,4.662-7.742,1.539a19.456,19.456,0,0,1-2.063.355,5.307,5.307,0,0,1-2.13-.3,5.369,5.369,0,0,1-3.137-2.985,12.19,12.19,0,0,1-.541-2.191l-.443-2.23q-.445-2.248-.906-4.566-.918-4.635-1.889-9.532c-1.291-6.523-2.647-13.371-4.052-20.469q-1.053-5.325-2.141-10.829l-1.094-5.538c-.176-.936-.385-1.849-.536-2.811a5.315,5.315,0,0,1,.436-2.88,5.383,5.383,0,0,1,3.007-2.816,13.583,13.583,0,0,1,2.007-.476l1.993-.394,7.854-1.55L425,117.8l.059-.011.05.034,24.23,16.8.041.029.01.049c2.915,14.868,5.326,27.174,7.011,35.771.412,2.151.808,4.057,1.1,5.736a5.253,5.253,0,0,1-1.179,4.052,5.192,5.192,0,0,1-2.162,1.531,3.887,3.887,0,0,1-.655.193c-.149.034-.226.047-.226.047" transform="translate(-168.897 -50.412)" fill="#263238"/>
            <path id="Trazado_265784" data-name="Trazado 265784" d="M472,134.837a2.019,2.019,0,0,1-.389.108l-1.126.251-4.154.868-6.168,1.25-3.649.721a5.022,5.022,0,0,1-5.225-2.535,5.807,5.807,0,0,1-.61-1.906l-.712-3.648c-.446-2.318-.848-4.411-1.188-6.18-.323-1.736-.586-3.152-.776-4.172l-.2-1.137a2.023,2.023,0,0,1-.049-.4,2,2,0,0,1,.108.388c.063.287.147.661.251,1.126l.869,4.153,1.25,6.168c.232,1.162.476,2.381.729,3.644a5.519,5.519,0,0,0,.583,1.821,4.741,4.741,0,0,0,4.917,2.389l3.644-.7,6.18-1.187,4.172-.775,1.137-.2a2.021,2.021,0,0,1,.4-.049" transform="translate(-191.627 -50.525)" fill="#263238"/>
            <path id="Trazado_265785" data-name="Trazado 265785" d="M435.136,143.251c.016.081-4.817,1.1-10.793,2.284s-10.836,2.072-10.852,1.992,4.816-1.1,10.794-2.284,10.835-2.072,10.851-1.991" transform="translate(-176.963 -61.305)" fill="#263238"/>
            <path id="Trazado_265786" data-name="Trazado 265786" d="M448.158,153.643c.016.081-7.116,1.558-15.928,3.3s-15.971,3.087-15.987,3.006,7.114-1.557,15.929-3.3,15.969-3.086,15.985-3.005" transform="translate(-178.14 -65.754)" fill="#263238"/>
            <path id="Trazado_265787" data-name="Trazado 265787" d="M450.911,167.58c.016.081-7.116,1.558-15.928,3.3s-15.971,3.087-15.987,3.006,7.114-1.557,15.929-3.3,15.969-3.086,15.985-3.005" transform="translate(-179.319 -71.718)" fill="#263238"/>
            <path id="Trazado_265788" data-name="Trazado 265788" d="M421.749,187.821c-.016-.081,7.116-1.558,15.928-3.3s15.971-3.087,15.987-3.006-7.114,1.557-15.929,3.3-15.969,3.086-15.985,3.005" transform="translate(-180.497 -77.683)" fill="#263238"/>
            <path id="Trazado_265789" data-name="Trazado 265789" d="M456.416,195.454c.016.081-7.116,1.558-15.928,3.3s-15.971,3.087-15.987,3.006,7.114-1.557,15.929-3.3,15.969-3.086,15.985-3.005" transform="translate(-181.675 -83.648)" fill="#263238"/>
            <path id="Trazado_265790" data-name="Trazado 265790" d="M459.168,209.391c.016.081-7.116,1.558-15.928,3.3s-15.971,3.087-15.987,3.006,7.114-1.557,15.929-3.3,15.969-3.086,15.985-3.005" transform="translate(-182.853 -89.612)" fill="#263238"/>
            <path id="Trazado_265791" data-name="Trazado 265791" d="M427.028,206.894l-30.108,5.946a2.415,2.415,0,0,1-2.837-1.9l-2.157-10.919a2.415,2.415,0,0,1,1.9-2.837l30.108-5.946a2.414,2.414,0,0,1,2.837,1.9l2.157,10.918a2.416,2.416,0,0,1-1.9,2.837" transform="translate(-167.714 -81.825)" fill="#00f3be"/>
            <path id="Trazado_265792" data-name="Trazado 265792" d="M407.832,207.98l2.687-.53a3.03,3.03,0,1,1,1.169,5.916L409,213.9Zm3.567,4.275a1.873,1.873,0,1,0-.725-3.668l-1.25.247.725,3.668Z" transform="translate(-174.541 -88.746)" fill="#fff"/>
            <path id="Trazado_265793" data-name="Trazado 265793" d="M420.357,208.509a3.305,3.305,0,1,1,3.842,2.42,3.122,3.122,0,0,1-3.842-2.42m5.088-1.005a1.887,1.887,0,1,0-1.477,2.258,1.84,1.84,0,0,0,1.477-2.258" transform="translate(-179.874 -87.621)" fill="#fff"/>
            <path id="Trazado_265794" data-name="Trazado 265794" d="M432.824,206.049a3.321,3.321,0,0,1,5.249-3.127l-.719.985a1.94,1.94,0,0,0-1.625-.4,1.93,1.93,0,1,0,.748,3.786,1.924,1.924,0,0,0,1.349-.995l1.04.637a3.316,3.316,0,0,1-6.042-.888" transform="translate(-185.209 -86.57)" fill="#fff"/>
            <path id="Trazado_265795" data-name="Trazado 265795" d="M481.772,154.468s3.03-3.836,5.363-1.691,1.661,3.249-.558,6.64c0,0,4.953-.26,3.365,4.827,0,0,4.935-.546,4.461,3.617,0,0,3.727,3.647,1.789,6s-8.967,6.594-10.743,5.864-1.789-3.244-1.789-3.244-2.112-.951-2.695-2.064.418-2.673.418-2.673-1.781-1.819-2.222-2.326.241-2.868.241-2.868l2.842-2.758s-3.914,1.7-4.729,1.053-1.735-1.21-.862-2.393a39.618,39.618,0,0,1,3.978-3.831Z" transform="translate(-203.843 -65.105)" fill="#ffbe9d"/>
            <path id="Trazado_265796" data-name="Trazado 265796" d="M489.855,188.54a13.5,13.5,0,0,1,1.283-1.558,14.983,14.983,0,0,1,3.616-3.312,34.88,34.88,0,0,0,4.064-2.612,19.16,19.16,0,0,0,1.385-1.426,3.611,3.611,0,0,1-1.163,1.674,24.01,24.01,0,0,1-4.035,2.763,18.186,18.186,0,0,0-3.622,3.138,6.368,6.368,0,0,1-1.528,1.332" transform="translate(-209.643 -76.877)" fill="#eb996e"/>
            <path id="Trazado_265797" data-name="Trazado 265797" d="M485.061,181.537a38.05,38.05,0,0,1,4.062-4.387c1.173-1.147,2.178-2.262,3.043-2.945a3.661,3.661,0,0,1,1.523-.9c.034.064-.534.408-1.3,1.151-.783.723-1.745,1.867-2.93,3.028a38.031,38.031,0,0,1-4.395,4.053" transform="translate(-207.592 -74.167)" fill="#eb996e"/>
            <path id="Trazado_265798" data-name="Trazado 265798" d="M486.689,169.08a17.445,17.445,0,0,1,2.277-2.2,29.389,29.389,0,0,0,2.007-2.395,4.749,4.749,0,0,1-1.677,2.732,7.949,7.949,0,0,1-2.607,1.86" transform="translate(-208.287 -70.396)" fill="#eb996e"/>
            <path id="Trazado_265799" data-name="Trazado 265799" d="M481.658,154.371a1.255,1.255,0,0,1-.05.284c-.051.212-.116.478-.2.808l-.8,3.085-.007.029-.025.022c-.572.5-1.214,1.081-1.908,1.734a16.9,16.9,0,0,0-2.113,2.257,1.181,1.181,0,0,0-.215.717,1.137,1.137,0,0,0,.381.669,7.754,7.754,0,0,0,.7.576,1.054,1.054,0,0,0,.789.156,15.152,15.152,0,0,0,3.839-1.19l.916-.379-.707.691-2.833,2.768.043-.061a3.613,3.613,0,0,0-.146,2.879,8.036,8.036,0,0,0,2.242,2.285l.192.145-.155.183c-.618.73-1.057,1.886-.248,2.6a10.52,10.52,0,0,0,2.684,1.836l-.333.185,0-.055s0-.026,0-.015v0c.059.069-.132-.164.136.2.638-.3.185-.124.324-.174h0v0l0,.108,0,.232a4.41,4.41,0,0,0,.043.466,3.64,3.64,0,0,0,.246.9,2.374,2.374,0,0,0,.5.753,1.406,1.406,0,0,0,.734.422,4.467,4.467,0,0,0,1.872-.369,16.641,16.641,0,0,0,1.86-.836,30.636,30.636,0,0,0,3.309-2,19.28,19.28,0,0,0,2.894-2.375,2.342,2.342,0,0,0,.752-1.49,3.621,3.621,0,0,0-.3-1.667,9.475,9.475,0,0,0-1.948-2.83l-.07-.074.005-.109a3.565,3.565,0,0,0-.168-1.627,2.415,2.415,0,0,0-1-1.179,5.334,5.334,0,0,0-3.054-.585l-.285.018.068-.281c.075-.309.164-.614.227-.919a5.145,5.145,0,0,0,.071-.91,2.528,2.528,0,0,0-.511-1.611,3.714,3.714,0,0,0-2.948-1.154h-.332l.177-.269a27.531,27.531,0,0,0,1.595-2.6,3.822,3.822,0,0,0,.406-1.288,2.112,2.112,0,0,0-.254-1.2,5.353,5.353,0,0,0-1.557-1.692,2.288,2.288,0,0,0-1.852-.189,6.2,6.2,0,0,0-2.3,1.442c-.234.213-.4.389-.515.5a1.127,1.127,0,0,1-.178.171.8.8,0,0,1,.14-.2,6.811,6.811,0,0,1,.483-.542,7.524,7.524,0,0,1,.888-.783,4.717,4.717,0,0,1,1.43-.772,2.488,2.488,0,0,1,2.027.171l.474.347.428.41a4.888,4.888,0,0,1,.778,1.007,2.391,2.391,0,0,1,.3,1.354,4.093,4.093,0,0,1-.417,1.4,27.309,27.309,0,0,1-1.587,2.656l-.154-.268a5.175,5.175,0,0,1,1.726.246,3.192,3.192,0,0,1,1.539,1.021,2.912,2.912,0,0,1,.606,1.835,5.573,5.573,0,0,1-.07.988c-.065.324-.154.645-.233.972l-.216-.263a5.7,5.7,0,0,1,3.321.625,2.846,2.846,0,0,1,1.18,1.383,4,4,0,0,1,.2,1.836l-.065-.183a9.865,9.865,0,0,1,2.059,2.973,4.062,4.062,0,0,1,.342,1.885,2.922,2.922,0,0,1-.275.968,4.224,4.224,0,0,1-.6.794,19.614,19.614,0,0,1-2.965,2.444,30.838,30.838,0,0,1-3.361,2.035,17,17,0,0,1-1.913.859,4.811,4.811,0,0,1-2.1.391,2.336,2.336,0,0,1-1.6-1.455,4.067,4.067,0,0,1-.277-1.014,4.592,4.592,0,0,1-.047-.516l0-.26.007-.137,0-.027v-.007c.139-.051-.314.125.326-.177.268.363.077.132.136.2v.019l0,.046-.006.066-.031.345-.3-.161a10.872,10.872,0,0,1-2.814-1.945,2.207,2.207,0,0,1-.482-.772,1.822,1.822,0,0,1-.039-.914,3.5,3.5,0,0,1,.773-1.514l.037.327a8.351,8.351,0,0,1-2.366-2.451,3.009,3.009,0,0,1-.261-1.679,5.328,5.328,0,0,1,.417-1.567l.014-.033.029-.029L482,163.556l.209.312a15.258,15.258,0,0,1-3.966,1.184,1.393,1.393,0,0,1-1.022-.237,7.908,7.908,0,0,1-.721-.611,1.445,1.445,0,0,1-.463-.867,1.475,1.475,0,0,1,.271-.908,16.545,16.545,0,0,1,2.195-2.284c.709-.645,1.363-1.21,1.949-1.7l-.032.051q.572-1.961.9-3.074l.244-.789a1.064,1.064,0,0,1,.1-.26" transform="translate(-203.728 -65.022)" fill="#eb996e"/>
          </g>
        </g>
        <g id="Grupo_871478" data-name="Grupo 871478">
          <g id="Grupo_871477" data-name="Grupo 871477" clip-path="url(#clip-path-2)">
            <path id="Trazado_265800" data-name="Trazado 265800" d="M91.962,166.983h-35.3a4.416,4.416,0,0,1-4.416-4.417V113.713a4.416,4.416,0,0,1,4.416-4.417H79.051l17.327,17.859v35.411a4.415,4.415,0,0,1-4.415,4.417" transform="translate(-22.362 -46.776)" fill="#ebebeb"/>
            <path id="Trazado_265801" data-name="Trazado 265801" d="M99.1,109.3v13.749a4.107,4.107,0,0,0,4.107,4.108l13.221,0Z" transform="translate(-42.413 -46.776)" fill="#f5f5f5"/>
            <path id="Trazado_265802" data-name="Trazado 265802" d="M99.416,135.442a4.567,4.567,0,0,0,3.623,4.431,4.177,4.177,0,0,0,.434.1c1.726.309,13.09,2.33,13.09,2.069v-3.695H103.342s-3.3-.113-3.926-2.9" transform="translate(-42.547 -57.965)" fill="#e0e0e0"/>
            <path id="Trazado_265803" data-name="Trazado 265803" d="M91.849,166.87c0-.021.264.006.762-.09a4.425,4.425,0,0,0,2-.933,4.366,4.366,0,0,0,1.581-3.116c.023-1.424,0-3.077,0-4.922-.013-7.4-.031-17.981-.053-30.767l.035.087-17.34-17.847.1.043-12.917,0H57.55a11.344,11.344,0,0,0-1.7.062,4.268,4.268,0,0,0-2.772,1.729A4.21,4.21,0,0,0,52.3,113.3c-.031.783-.009,1.6-.015,2.4q0,2.4,0,4.765,0,4.731,0,9.317c0,6.108-.007,12-.009,17.612q0,4.21-.006,8.2,0,1.994,0,3.929l0,1.919a10.185,10.185,0,0,0,.082,1.859,4.3,4.3,0,0,0,3.629,3.416,16.369,16.369,0,0,0,1.737.046l6.662.01,20.105.047,5.466.027,1.422.015c.32.005.485.015.485.015s-.165.01-.485.015l-1.422.014-5.466.028-20.105.047-6.662.01a16.345,16.345,0,0,1-1.769-.044,4.488,4.488,0,0,1-1.721-.6,4.546,4.546,0,0,1-2.119-3,10.277,10.277,0,0,1-.09-1.907l0-1.919q0-1.935,0-3.929,0-3.988-.007-8.2c0-5.613-.005-11.5-.009-17.612q0-4.581,0-9.317,0-2.366,0-4.765c.007-.8-.017-1.592.016-2.417a4.5,4.5,0,0,1,.836-2.325,4.565,4.565,0,0,1,2.966-1.849,11.454,11.454,0,0,1,1.744-.066h8.471l12.917,0H79l.042.043,17.314,17.872.035.036v.05c-.022,12.786-.04,23.37-.053,30.767-.012,1.848,0,3.491-.031,4.93a4.44,4.44,0,0,1-1.644,3.167,4.384,4.384,0,0,1-2.044.912,3.3,3.3,0,0,1-.575.052c-.129,0-.194,0-.194,0" transform="translate(-22.249 -46.663)" fill="#263238"/>
            <path id="Trazado_265804" data-name="Trazado 265804" d="M116.317,127.155a1.439,1.439,0,0,1-.34.03l-.974.028-3.581.047-5.311.031-3.14,0a4.26,4.26,0,0,1-3.934-2.969,4.919,4.919,0,0,1-.193-1.685c0-1.087.006-2.136.009-3.137.012-1.99.022-3.787.031-5.311.02-1.482.036-2.7.047-3.581.011-.4.021-.718.028-.974a1.451,1.451,0,0,1,.03-.339,1.478,1.478,0,0,1,.03.339c.007.255.017.578.028.974.011.885.027,2.1.047,3.581.009,1.524.02,3.322.032,5.311,0,1,.005,2.05.009,3.137a4.651,4.651,0,0,0,.184,1.6A3.982,3.982,0,0,0,102.98,127l3.132.015,5.311.033L115,127.1l.974.028a1.454,1.454,0,0,1,.34.03" transform="translate(-42.301 -46.776)" fill="#263238"/>
            <path id="Trazado_265805" data-name="Trazado 265805" d="M84,130.634c0,.082-4.169.149-9.311.149s-9.311-.066-9.311-.149,4.168-.149,9.311-.149,9.311.066,9.311.149" transform="translate(-27.981 -55.844)" fill="#263238"/>
            <path id="Trazado_265806" data-name="Trazado 265806" d="M92.838,142.624c0,.082-6.147.149-13.728.149s-13.729-.066-13.729-.149,6.146-.149,13.729-.149,13.728.066,13.728.149" transform="translate(-27.981 -60.975)" fill="#263238"/>
            <path id="Trazado_265807" data-name="Trazado 265807" d="M92.838,154.615c0,.082-6.147.149-13.728.149s-13.729-.066-13.729-.149,6.146-.149,13.729-.149,13.728.066,13.728.149" transform="translate(-27.981 -66.107)" fill="#263238"/>
            <path id="Trazado_265808" data-name="Trazado 265808" d="M92.838,166.6c0,.082-6.147.149-13.728.149s-13.729-.066-13.729-.149,6.146-.149,13.729-.149,13.728.066,13.728.149" transform="translate(-27.981 -71.239)" fill="#263238"/>
            <path id="Trazado_265809" data-name="Trazado 265809" d="M92.838,178.6c0,.083-6.147.149-13.728.149s-13.729-.066-13.729-.149,6.146-.148,13.729-.148,13.728.066,13.728.148" transform="translate(-27.981 -76.37)" fill="#263238"/>
            <path id="Trazado_265810" data-name="Trazado 265810" d="M92.838,190.586c0,.082-6.147.149-13.728.149s-13.729-.066-13.729-.149,6.146-.149,13.729-.149,13.728.066,13.728.149" transform="translate(-27.981 -81.502)" fill="#263238"/>
            <path id="Trazado_265811" data-name="Trazado 265811" d="M65.977,183.417H40.828A2.415,2.415,0,0,1,38.413,181v-8.641a2.415,2.415,0,0,1,2.415-2.415H65.977a2.415,2.415,0,0,1,2.414,2.415V181a2.416,2.416,0,0,1-2.415,2.415" transform="translate(-16.44 -72.733)" fill="#00f3be"/>
            <path id="Trazado_265812" data-name="Trazado 265812" d="M55.631,179.46c0,1.134-.851,1.84-2.21,1.84H52.4v1.4H51.218v-5.089h2.2c1.36,0,2.21.706,2.21,1.847m-1.193,0c0-.559-.363-.887-1.083-.887H52.4v1.767h.959c.72,0,1.083-.327,1.083-.88" transform="translate(-21.92 -76.014)" fill="#fff"/>
            <path id="Trazado_265813" data-name="Trazado 265813" d="M60.393,177.615h2.312a2.556,2.556,0,1,1,0,5.088H60.393Zm2.254,4.121a1.58,1.58,0,1,0,0-3.155H61.571v3.155Z" transform="translate(-25.847 -76.014)" fill="#fff"/>
            <path id="Trazado_265814" data-name="Trazado 265814" d="M72.068,178.559V179.9h2.356v.945H72.068V182.7H70.89v-5.089h3.846v.945Z" transform="translate(-30.339 -76.014)" fill="#fff"/>
            <path id="Trazado_265815" data-name="Trazado 265815" d="M52.977,308.173H18.058a4.369,4.369,0,0,1-4.369-4.369V255.471a4.369,4.369,0,0,1,4.369-4.369H40.2L57.346,268.77V303.8a4.369,4.369,0,0,1-4.369,4.369" transform="translate(-5.859 -107.465)" fill="#ebebeb"/>
            <path id="Trazado_265816" data-name="Trazado 265816" d="M60.041,251.1v13.6a4.064,4.064,0,0,0,4.063,4.064l13.079,0Z" transform="translate(-25.696 -107.464)" fill="#f5f5f5"/>
            <path id="Trazado_265817" data-name="Trazado 265817" d="M60.352,276.968a4.518,4.518,0,0,0,3.584,4.383,4.109,4.109,0,0,0,.43.1c1.708.305,12.95,2.305,12.95,2.047V279.84H64.237s-3.266-.112-3.885-2.872" transform="translate(-25.829 -118.535)" fill="#e0e0e0"/>
            <path id="Trazado_265818" data-name="Trazado 265818" d="M52.864,308.06c0-.021.262.006.755-.089a4.373,4.373,0,0,0,1.981-.923,4.319,4.319,0,0,0,1.564-3.082c.022-1.409,0-3.045,0-4.87-.013-7.318-.031-17.788-.053-30.438l.035.087L39.989,251.089l.1.043-12.779,0H18.931a11.181,11.181,0,0,0-1.677.061,4.224,4.224,0,0,0-2.741,1.71,4.164,4.164,0,0,0-.773,2.149c-.031.775-.009,1.584-.015,2.37q0,2.374,0,4.715,0,4.681,0,9.217c0,6.043-.006,11.872-.009,17.425q0,4.164-.006,8.114,0,1.974,0,3.888,0,.957,0,1.9a10.016,10.016,0,0,0,.081,1.838,4.252,4.252,0,0,0,3.589,3.378,16.171,16.171,0,0,0,1.718.046l6.591.01L45.571,308l5.408.027,1.406.015c.317.005.479.015.479.015s-.162.01-.479.015l-1.406.014-5.408.028-19.891.048-6.591.01a16.281,16.281,0,0,1-1.75-.043,4.444,4.444,0,0,1-1.7-.6,4.5,4.5,0,0,1-2.1-2.965,10.254,10.254,0,0,1-.089-1.886q0-.942,0-1.9,0-1.914,0-3.888,0-3.945-.006-8.114c0-5.553-.006-11.382-.009-17.425q0-4.532,0-9.217,0-2.341,0-4.715c.007-.8-.017-1.575.015-2.391a4.469,4.469,0,0,1,.828-2.3,4.521,4.521,0,0,1,2.935-1.83,11.287,11.287,0,0,1,1.725-.065h8.381l12.779,0h.061l.042.043,17.129,17.681.035.036v.05c-.022,12.65-.04,23.12-.053,30.438-.011,1.829,0,3.454-.03,4.877a4.393,4.393,0,0,1-1.627,3.133,4.333,4.333,0,0,1-2.022.9,3.272,3.272,0,0,1-.569.051c-.128,0-.193,0-.193,0" transform="translate(-5.746 -107.352)" fill="#263238"/>
            <path id="Trazado_265819" data-name="Trazado 265819" d="M77.072,268.77a1.409,1.409,0,0,1-.336.03l-.963.028-3.543.047-5.255.031-3.107,0a4.216,4.216,0,0,1-3.893-2.939,4.862,4.862,0,0,1-.192-1.668c0-1.075.006-2.113.009-3.1.012-1.968.023-3.747.032-5.255.019-1.466.035-2.666.047-3.543.011-.391.021-.71.028-.963a1.423,1.423,0,0,1,.03-.336,1.448,1.448,0,0,1,.03.336c.007.253.017.571.028.963.012.877.028,2.077.047,3.543.009,1.508.02,3.287.032,5.255,0,.99.006,2.028.009,3.1a4.6,4.6,0,0,0,.182,1.579,3.937,3.937,0,0,0,3.619,2.736l3.1.015,5.255.033,3.543.047.963.029a1.45,1.45,0,0,1,.336.03" transform="translate(-25.584 -107.464)" fill="#263238"/>
            <path id="Trazado_265820" data-name="Trazado 265820" d="M45.1,272.21c0,.082-4.125.149-9.211.149s-9.212-.066-9.212-.149,4.123-.149,9.212-.149,9.211.066,9.211.149" transform="translate(-11.419 -116.435)" fill="#263238"/>
            <path id="Trazado_265821" data-name="Trazado 265821" d="M53.844,284.072c0,.082-6.081.149-13.582.149s-13.583-.066-13.583-.149,6.08-.149,13.583-.149,13.582.066,13.582.149" transform="translate(-11.418 -121.511)" fill="#263238"/>
            <path id="Trazado_265822" data-name="Trazado 265822" d="M53.844,295.935c0,.082-6.081.149-13.582.149s-13.583-.066-13.583-.149,6.08-.149,13.583-.149,13.582.066,13.582.149" transform="translate(-11.418 -126.588)" fill="#263238"/>
            <path id="Trazado_265823" data-name="Trazado 265823" d="M53.844,307.8c0,.082-6.081.149-13.582.149s-13.583-.066-13.583-.149,6.08-.149,13.583-.149,13.582.066,13.582.149" transform="translate(-11.418 -131.665)" fill="#263238"/>
            <path id="Trazado_265824" data-name="Trazado 265824" d="M53.844,319.66c0,.082-6.081.149-13.582.149s-13.583-.066-13.583-.149,6.08-.149,13.583-.149,13.582.066,13.582.149" transform="translate(-11.418 -136.742)" fill="#263238"/>
            <path id="Trazado_265825" data-name="Trazado 265825" d="M53.844,331.522c0,.082-6.081.149-13.582.149s-13.583-.066-13.583-.149,6.08-.149,13.583-.149,13.582.066,13.582.149" transform="translate(-11.418 -141.818)" fill="#263238"/>
            <path id="Trazado_265826" data-name="Trazado 265826" d="M27.244,324.431H2.415A2.415,2.415,0,0,1,0,322.016v-8.5A2.415,2.415,0,0,1,2.415,311.1H27.244a2.415,2.415,0,0,1,2.415,2.415v8.5a2.415,2.415,0,0,1-2.415,2.415" transform="translate(0 -133.144)" fill="#00f3be"/>
            <path id="Trazado_265827" data-name="Trazado 265827" d="M17.03,320.522c0,1.122-.842,1.82-2.187,1.82H13.829v1.388H12.664V318.7h2.179c1.345,0,2.187.7,2.187,1.826m-1.18,0c0-.554-.359-.877-1.071-.877h-.95v1.748h.95c.712,0,1.071-.324,1.071-.87" transform="translate(-5.42 -136.393)" fill="#fff"/>
            <path id="Trazado_265828" data-name="Trazado 265828" d="M26.108,320.522c0,1.122-.841,1.82-2.187,1.82H22.907v1.388H21.742V318.7h2.179c1.345,0,2.187.7,2.187,1.826m-1.179,0c0-.554-.36-.877-1.073-.877h-.949v1.748h.949c.712,0,1.073-.324,1.073-.87" transform="translate(-9.305 -136.393)" fill="#fff"/>
            <path id="Trazado_265829" data-name="Trazado 265829" d="M31.2,319.645H29.588V318.7h4.387v.949H32.364v4.085H31.2Z" transform="translate(-12.663 -136.393)" fill="#fff"/>
            <path id="Trazado_265830" data-name="Trazado 265830" d="M173.194,67.077H138.5a4.341,4.341,0,0,1-4.341-4.341V14.711A4.341,4.341,0,0,1,138.5,10.37h22l17.033,17.556v34.81a4.341,4.341,0,0,1-4.341,4.341" transform="translate(-57.415 -4.438)" fill="#ebebeb"/>
            <path id="Trazado_265831" data-name="Trazado 265831" d="M180.214,10.37V23.886a4.037,4.037,0,0,0,4.037,4.038l13,0Z" transform="translate(-77.127 -4.438)" fill="#f5f5f5"/>
            <path id="Trazado_265832" data-name="Trazado 265832" d="M180.523,36.072a4.489,4.489,0,0,0,3.561,4.356,4.192,4.192,0,0,0,.427.1c1.7.3,12.868,2.29,12.868,2.034V38.926h-13s-3.245-.111-3.86-2.854" transform="translate(-77.258 -15.438)" fill="#e0e0e0"/>
            <path id="Trazado_265833" data-name="Trazado 265833" d="M173.082,66.965c0-.021.26.005.75-.089a4.345,4.345,0,0,0,1.968-.918,4.291,4.291,0,0,0,1.554-3.062c.022-1.4,0-3.025,0-4.839-.013-7.272-.031-17.675-.053-30.244l.035.086L160.287,10.358l.1.043-12.7,0h-8.327a11.117,11.117,0,0,0-1.666.061,4.2,4.2,0,0,0-2.723,1.7,4.134,4.134,0,0,0-.768,2.135c-.031.769-.009,1.574-.015,2.355q0,2.358,0,4.684,0,4.651,0,9.158c0,6-.006,11.8-.009,17.314q0,4.137-.006,8.062,0,1.96,0,3.862,0,.951,0,1.886a9.99,9.99,0,0,0,.08,1.826,4.224,4.224,0,0,0,3.565,3.356,16.108,16.108,0,0,0,1.707.045l6.55.01,19.763.047,5.374.028,1.4.014c.315.005.476.015.476.015s-.161.01-.476.015l-1.4.014-5.374.028-19.763.047-6.55.01a16.221,16.221,0,0,1-1.738-.043,4.423,4.423,0,0,1-1.693-.593,4.474,4.474,0,0,1-2.084-2.947,10.131,10.131,0,0,1-.089-1.875l0-1.886q0-1.9,0-3.862,0-3.92-.006-8.062c0-5.518-.006-11.31-.009-17.314q0-4.5,0-9.158,0-2.326,0-4.684c.007-.791-.016-1.565.015-2.376a4.435,4.435,0,0,1,.823-2.286,4.494,4.494,0,0,1,2.917-1.819,11.294,11.294,0,0,1,1.715-.065h8.327l12.7,0h.061l.042.043,17.02,17.569.035.037v.05c-.022,12.569-.04,22.972-.053,30.244-.011,1.817,0,3.432-.031,4.846a4.362,4.362,0,0,1-1.617,3.114,4.3,4.3,0,0,1-2.01.9,3.214,3.214,0,0,1-.565.051c-.128,0-.192,0-.192,0" transform="translate(-57.303 -4.326)" fill="#263238"/>
            <path id="Trazado_265834" data-name="Trazado 265834" d="M197.134,27.926a1.431,1.431,0,0,1-.333.03l-.958.028-3.52.047-5.221.031-3.087,0a4.191,4.191,0,0,1-3.869-2.921,4.827,4.827,0,0,1-.19-1.657c0-1.069.006-2.1.009-3.084.012-1.956.023-3.723.032-5.221.019-1.456.035-2.648.047-3.52.011-.388.021-.705.028-.956a1.435,1.435,0,0,1,.03-.334,1.4,1.4,0,0,1,.03.334c.007.251.017.568.028.956.012.872.028,2.064.048,3.52.009,1.5.02,3.266.032,5.221,0,.984.006,2.015.009,3.084a4.577,4.577,0,0,0,.181,1.568,3.912,3.912,0,0,0,3.6,2.718l3.079.015,5.221.033,3.52.047.958.029a1.432,1.432,0,0,1,.333.03" transform="translate(-77.014 -4.438)" fill="#263238"/>
            <path id="Trazado_265835" data-name="Trazado 265835" d="M165.372,31.343c0,.082-4.1.149-9.152.149s-9.154-.066-9.154-.149,4.1-.149,9.154-.149,9.152.066,9.152.149" transform="translate(-62.94 -13.35)" fill="#263238"/>
            <path id="Trazado_265836" data-name="Trazado 265836" d="M174.057,43.13c0,.082-6.043.149-13.495.149s-13.5-.066-13.5-.149,6.041-.149,13.5-.149,13.495.066,13.495.149" transform="translate(-62.94 -18.395)" fill="#263238"/>
            <path id="Trazado_265837" data-name="Trazado 265837" d="M174.057,54.917c0,.082-6.043.149-13.495.149s-13.5-.066-13.5-.149,6.041-.149,13.5-.149,13.495.066,13.495.149" transform="translate(-62.94 -23.439)" fill="#263238"/>
            <path id="Trazado_265838" data-name="Trazado 265838" d="M174.057,66.7c0,.082-6.043.149-13.495.149s-13.5-.066-13.5-.149,6.041-.149,13.5-.149,13.495.066,13.495.149" transform="translate(-62.94 -28.484)" fill="#263238"/>
            <path id="Trazado_265839" data-name="Trazado 265839" d="M174.057,78.491c0,.082-6.043.149-13.495.149s-13.5-.066-13.5-.149,6.041-.149,13.5-.149,13.495.066,13.495.149" transform="translate(-62.94 -33.528)" fill="#263238"/>
            <path id="Trazado_265840" data-name="Trazado 265840" d="M174.057,90.278c0,.082-6.043.149-13.495.149s-13.5-.066-13.5-.149,6.041-.149,13.5-.149,13.495.066,13.495.149" transform="translate(-62.94 -38.573)" fill="#263238"/>
            <path id="Trazado_265841" data-name="Trazado 265841" d="M147.61,83.232H122.97a2.415,2.415,0,0,1-2.415-2.415V72.406a2.415,2.415,0,0,1,2.415-2.415h24.64a2.415,2.415,0,0,1,2.415,2.415v8.412a2.415,2.415,0,0,1-2.415,2.415" transform="translate(-51.594 -29.954)" fill="#00f3be"/>
            <path id="Trazado_265842" data-name="Trazado 265842" d="M135.874,82.522l-1.208-1.737-1.187,1.737h-1.329L134,79.977l-1.758-2.459h1.315l1.151,1.623,1.13-1.623h1.25l-1.744,2.416,1.866,2.588Z" transform="translate(-56.556 -33.175)" fill="#fff"/>
            <path id="Trazado_265843" data-name="Trazado 265843" d="M141.794,77.518h1.158v4.061h2.509v.943h-3.667Z" transform="translate(-60.684 -33.175)" fill="#fff"/>
            <path id="Trazado_265844" data-name="Trazado 265844" d="M148.6,81.965l.393-.872a2.945,2.945,0,0,0,1.651.522c.686,0,.965-.229.965-.537,0-.936-2.909-.293-2.909-2.151,0-.851.686-1.559,2.108-1.559a3.359,3.359,0,0,1,1.737.443l-.357.879A2.828,2.828,0,0,0,150.8,78.3c-.686,0-.951.257-.951.572,0,.922,2.909.286,2.909,2.123,0,.837-.693,1.551-2.123,1.551a3.564,3.564,0,0,1-2.037-.579" transform="translate(-63.598 -33.111)" fill="#fff"/>
            <path id="Trazado_265845" data-name="Trazado 265845" d="M547.909,319.622h-35.25a4.41,4.41,0,0,1-4.41-4.41V266.422a4.411,4.411,0,0,1,4.41-4.411h22.355l17.3,17.836v35.364a4.41,4.41,0,0,1-4.41,4.41" transform="translate(-217.517 -112.133)" fill="#ebebeb"/>
            <path id="Trazado_265846" data-name="Trazado 265846" d="M555.039,262.011v13.732a4.1,4.1,0,0,0,4.1,4.1l13.2,0Z" transform="translate(-237.541 -112.133)" fill="#f5f5f5"/>
            <path id="Trazado_265847" data-name="Trazado 265847" d="M555.353,288.122a4.561,4.561,0,0,0,3.617,4.425,4.179,4.179,0,0,0,.434.1c1.724.308,13.073,2.327,13.073,2.066v-3.69h-13.2s-3.3-.113-3.921-2.9" transform="translate(-237.675 -123.308)" fill="#e0e0e0"/>
            <path id="Trazado_265848" data-name="Trazado 265848" d="M547.8,319.509c0-.021.264.006.762-.09a4.409,4.409,0,0,0,2-.932,4.358,4.358,0,0,0,1.579-3.111c.023-1.423,0-3.074,0-4.917-.013-7.387-.031-17.956-.053-30.725l.035.086L534.8,262l.1.043-12.9,0-6.748,0h-1.712a11.253,11.253,0,0,0-1.693.062,4.266,4.266,0,0,0-2.768,1.726,4.21,4.21,0,0,0-.78,2.17c-.031.782-.009,1.6-.015,2.393q0,2.4,0,4.759,0,4.725,0,9.3c0,6.1-.006,11.984-.009,17.589q0,4.2-.006,8.191,0,1.992,0,3.924,0,.965,0,1.916a10.1,10.1,0,0,0,.082,1.856,4.3,4.3,0,0,0,3.624,3.411,16.336,16.336,0,0,0,1.734.046l6.654.01,20.079.047,5.459.027,1.42.015c.32.005.483.015.483.015s-.164.01-.483.015l-1.42.014-5.459.028-20.079.047-6.654.01a16.45,16.45,0,0,1-1.766-.043,4.5,4.5,0,0,1-1.719-.6,4.544,4.544,0,0,1-2.116-2.993,10.247,10.247,0,0,1-.09-1.9q0-.951,0-1.916,0-1.932,0-3.924,0-3.983-.006-8.191c0-5.605-.006-11.489-.009-17.589q0-4.575,0-9.3,0-2.363,0-4.759c.007-.8-.017-1.59.016-2.413a4.5,4.5,0,0,1,.835-2.322,4.563,4.563,0,0,1,2.962-1.847,11.489,11.489,0,0,1,1.741-.066H522l12.9,0h.061l.042.044L552.3,279.648l.035.037v.05c-.022,12.769-.039,23.339-.052,30.725-.012,1.847,0,3.487-.031,4.923a4.435,4.435,0,0,1-1.642,3.163,4.372,4.372,0,0,1-2.042.911,3.288,3.288,0,0,1-.574.052c-.129,0-.195,0-.195,0" transform="translate(-217.404 -112.021)" fill="#263238"/>
            <path id="Trazado_265849" data-name="Trazado 265849" d="M572.232,279.846a1.374,1.374,0,0,1-.339.03l-.972.028-3.576.047-5.3.031-3.136,0a4.255,4.255,0,0,1-3.929-2.965,4.921,4.921,0,0,1-.193-1.683c0-1.086.006-2.134.009-3.134.012-1.987.023-3.783.032-5.3.019-1.48.036-2.691.047-3.576.011-.4.021-.718.028-.972a1.485,1.485,0,0,1,.03-.34,1.46,1.46,0,0,1,.03.34c.008.255.017.577.028.972.011.884.027,2.1.047,3.576.01,1.522.02,3.317.032,5.3,0,1,.006,2.048.009,3.134a4.624,4.624,0,0,0,.184,1.593,3.974,3.974,0,0,0,3.654,2.763l3.128.015,5.3.033,3.576.047.972.029a1.55,1.55,0,0,1,.339.029" transform="translate(-237.43 -112.133)" fill="#263238"/>
            <path id="Trazado_265850" data-name="Trazado 265850" d="M539.961,283.32c0,.082-4.164.149-9.3.149s-9.3-.066-9.3-.149,4.163-.149,9.3-.149,9.3.066,9.3.149" transform="translate(-223.129 -121.189)" fill="#263238"/>
            <path id="Trazado_265851" data-name="Trazado 265851" d="M548.784,295.295c0,.082-6.139.149-13.71.149s-13.712-.066-13.712-.149,6.138-.149,13.712-.149,13.71.066,13.71.149" transform="translate(-223.129 -126.314)" fill="#263238"/>
            <path id="Trazado_265852" data-name="Trazado 265852" d="M548.784,307.269c0,.082-6.139.149-13.71.149s-13.712-.066-13.712-.149,6.138-.149,13.712-.149,13.71.066,13.71.149" transform="translate(-223.129 -131.439)" fill="#263238"/>
            <path id="Trazado_265853" data-name="Trazado 265853" d="M548.784,319.244c0,.082-6.139.149-13.71.149s-13.712-.066-13.712-.149,6.138-.149,13.712-.149,13.71.066,13.71.149" transform="translate(-223.129 -136.564)" fill="#263238"/>
            <path id="Trazado_265854" data-name="Trazado 265854" d="M548.784,331.219c0,.082-6.139.149-13.71.149s-13.712-.066-13.712-.149,6.138-.149,13.712-.149,13.71.066,13.71.149" transform="translate(-223.129 -141.689)" fill="#263238"/>
            <path id="Trazado_265855" data-name="Trazado 265855" d="M548.784,345.988c0,.082-6.139.149-13.71.149s-13.712-.066-13.712-.149,6.137-.149,13.712-.149,13.71.066,13.71.149" transform="translate(-223.129 -148.01)" fill="#263238"/>
            <path id="Trazado_265856" data-name="Trazado 265856" d="M521.955,336.034h-25.11a2.415,2.415,0,0,1-2.415-2.415V325a2.415,2.415,0,0,1,2.415-2.415h25.11A2.415,2.415,0,0,1,524.37,325v8.623a2.415,2.415,0,0,1-2.415,2.415" transform="translate(-211.602 -138.056)" fill="#00f3be"/>
            <path id="Trazado_265857" data-name="Trazado 265857" d="M500.495,330.25H502.8a2.554,2.554,0,1,1,0,5.084h-2.309Zm2.251,4.117a1.579,1.579,0,1,0,0-3.152h-1.075v3.152Z" transform="translate(-214.198 -141.338)" fill="#fff"/>
            <path id="Trazado_265858" data-name="Trazado 265858" d="M510.419,332.726a2.786,2.786,0,1,1,2.781,2.629,2.63,2.63,0,0,1-2.781-2.629m4.372,0a1.591,1.591,0,1,0-1.591,1.627,1.551,1.551,0,0,0,1.591-1.627" transform="translate(-218.445 -141.273)" fill="#fff"/>
            <path id="Trazado_265859" data-name="Trazado 265859" d="M521.131,332.726A2.8,2.8,0,0,1,525.982,331l-.755.7a1.637,1.637,0,0,0-1.278-.6,1.627,1.627,0,0,0,0,3.254,1.621,1.621,0,0,0,1.278-.6l.755.7a2.794,2.794,0,0,1-4.851-1.721" transform="translate(-223.03 -141.273)" fill="#fff"/>
            <path id="Trazado_265860" data-name="Trazado 265860" d="M533.583,335.334l-1.227-1.765-1.206,1.765H529.8l1.881-2.586-1.786-2.5h1.336L532.4,331.9l1.147-1.649h1.271l-1.772,2.455,1.9,2.629Z" transform="translate(-226.74 -141.338)" fill="#fff"/>
          </g>
        </g>
      </g>
    </g>
  </g>
</svg>
