<svg xmlns="http://www.w3.org/2000/svg" width="63" height="63" viewBox="0 0 63 63">
  <g id="Grupo_872348" data-name="Grupo 872348" transform="translate(-4745 9316.881)">
    <path id="Trazado_266341" data-name="Trazado 266341" d="M31.5,0A31.5,31.5,0,1,1,0,31.5,31.5,31.5,0,0,1,31.5,0Z" transform="translate(4745 -9316.881)" fill="#00f3be" opacity="0.632"/>
    <path id="Trazado_266396" data-name="Trazado 266396" d="M18.857,15.37a4.924,4.924,0,0,1-.769,2.739,5.6,5.6,0,0,1-2.117,1.9,6.164,6.164,0,0,1,2.417,2.043,5.273,5.273,0,0,1,.894,3.069,5.582,5.582,0,0,1-1.97,4.512,8.182,8.182,0,0,1-5.427,1.655A8.331,8.331,0,0,1,6.406,29.63a5.542,5.542,0,0,1-2.007-4.5,5.339,5.339,0,0,1,.879-3.032,5.977,5.977,0,0,1,2.49-2.08,5.633,5.633,0,0,1-2.139-1.9,4.889,4.889,0,0,1-.776-2.739,5.473,5.473,0,0,1,1.89-4.395,7.6,7.6,0,0,1,5.1-1.611,7.643,7.643,0,0,1,5.127,1.611A5.473,5.473,0,0,1,18.857,15.37Zm-4.526,9.36A2.816,2.816,0,0,0,13.65,22.7a2.372,2.372,0,0,0-1.794-.71,2.4,2.4,0,0,0-1.8.71,2.8,2.8,0,0,0-.688,2.029,2.821,2.821,0,0,0,.7,2.014,2.388,2.388,0,0,0,1.824.74,2.3,2.3,0,0,0,1.772-.732A2.872,2.872,0,0,0,14.331,24.73Zm-2.49-11.558a1.824,1.824,0,0,0-1.516.652,2.829,2.829,0,0,0-.52,1.809,3,3,0,0,0,.527,1.846,1.819,1.819,0,0,0,1.553.7,1.745,1.745,0,0,0,1.516-.7,3.093,3.093,0,0,0,.505-1.846,2.835,2.835,0,0,0-.52-1.8A1.849,1.849,0,0,0,11.841,13.173Z" transform="translate(4765 -9302.881)" fill="#12263f"/>
  </g>
</svg>
