<svg xmlns="http://www.w3.org/2000/svg" width="63" height="63" viewBox="0 0 63 63">
  <g id="Grupo_872349" data-name="Grupo 872349" transform="translate(-5025 9316.971)">
    <path id="Trazado_266343" data-name="Trazado 266343" d="M31.5,0A31.5,31.5,0,1,1,0,31.5,31.5,31.5,0,0,1,31.5,0Z" transform="translate(5025 -9316.971)" fill="#00f3be" opacity="0.632"/>
    <path id="Trazado_266397" data-name="Trazado 266397" d="M14.2,22.753a5.214,5.214,0,0,1-3.574,1.436,5.771,5.771,0,0,1-4.6-1.963,7.733,7.733,0,0,1-1.7-5.244,7.87,7.87,0,0,1,.952-3.809A7.144,7.144,0,0,1,7.952,10.39a7.288,7.288,0,0,1,3.8-1.025,7.075,7.075,0,0,1,3.816,1.062,7.15,7.15,0,0,1,2.659,3,10.315,10.315,0,0,1,.981,4.475v1.89a12.821,12.821,0,0,1-1.384,6.123A9.556,9.556,0,0,1,13.877,29.9,12.336,12.336,0,0,1,7.9,31.293H7.593V27.338l.938-.015Q13.628,27.074,14.2,22.753Zm-2.241-2.124a2.4,2.4,0,0,0,2.314-1.392V17.187a5.332,5.332,0,0,0-.688-3.032,2.159,2.159,0,0,0-1.86-.981A2.041,2.041,0,0,0,9.98,14.286a4.946,4.946,0,0,0-.7,2.7A4.435,4.435,0,0,0,10,19.64,2.3,2.3,0,0,0,11.958,20.629Z" transform="translate(5045 -9302.971)" fill="#12263f"/>
  </g>
</svg>
