<svg xmlns="http://www.w3.org/2000/svg" width="238.511" height="307.085" viewBox="0 0 238.511 307.085">
  <g id="Grupo_871035" data-name="Grupo 871035" transform="translate(-579.236 -4808.116)">
    <path id="Trazado_208561" data-name="Trazado 208561" d="M444.139,582.249a101.305,101.305,0,0,0-8-6.868c-2.222-1.441-7.208-3.424-9.07-3.6s-10.572,2.343-10.572,2.343-12.854-1.142-15.016.36-1.983,3.064-1.081,4.205,4.384.781,8.229.841a19.27,19.27,0,0,1,4.865.42l-5.586,5.947,14.476,4.024,8.83-.33,3.184,4Z" transform="translate(193.49 4362)" fill="#bc8382"/>
    <path id="Trazado_208562" data-name="Trazado 208562" d="M400.069,568.815l.349,12.809.62,1.592,6.318,7.7,15.416-1.017-12.281-4.785-4.367-3.318-1.688-5.473s.524-8.443-4.367-7.511" transform="translate(193.49 4362)" fill="#bc8382"/>
    <path id="Trazado_208563" data-name="Trazado 208563" d="M401.152,583.509H397.4s-4.9-8.056-9.382-5.32l1.031,1.592a2.78,2.78,0,0,0-3.3.784l12.357,10.84h.568l13.167-.848Z" transform="translate(193.49 4362)" fill="#bc8382"/>
    <path id="Trazado_208564" data-name="Trazado 208564" d="M403.388,585.958a7.408,7.408,0,0,1-1.063.045,6.975,6.975,0,0,0-2.6.523l-.126.057-.082-.115c-.38-.538-.851-1.117-1.335-1.72l-2.665-3.29a10.409,10.409,0,0,1-1.059-1.4,7.494,7.494,0,0,1,1.249,1.242c.727.806,1.708,1.941,2.75,3.231.487.608.947,1.186,1.334,1.76l-.207-.058a6.326,6.326,0,0,1,2.743-.427,2.949,2.949,0,0,1,1.062.156" transform="translate(193.49 4362)" fill="#263238"/>
    <path id="Trazado_208565" data-name="Trazado 208565" d="M430.1,578.511a20.237,20.237,0,0,0-8.146,4.634,4.353,4.353,0,0,1,.912-1.068,13.507,13.507,0,0,1,5.85-3.327,4.323,4.323,0,0,1,1.384-.239" transform="translate(193.49 4362)" fill="#263238"/>
    <path id="Trazado_208566" data-name="Trazado 208566" d="M417.781,575.193a99.485,99.485,0,0,1-3.6,4.294,12.7,12.7,0,0,1,3.6-4.294" transform="translate(193.49 4362)" fill="#263238"/>
    <path id="Trazado_208567" data-name="Trazado 208567" d="M404.908,587.749a1.868,1.868,0,0,1-.295-.293c-.206-.231-.47-.524-.8-.887l-1.241-1.417-.772-.889a9.662,9.662,0,0,1-.835-1.041,5.429,5.429,0,0,1-.878-2.933c-.021-1.092-.044-2.256-.067-3.481-.041-2.457-.085-5.154-.132-7.99l0-.156.146-.02.408-.056a2.988,2.988,0,0,1,2.492.884,5.473,5.473,0,0,1,1.192,2.25,14.8,14.8,0,0,1,.464,4.616l-.007-.056c.626,2.077,1.183,3.926,1.652,5.484l-.041-.059,3.174,2.48.842.679a.189.189,0,1,1-.04.053l-.88-.629-3.24-2.4-.029-.022-.012-.037-1.725-5.462-.007-.024v-.032a14.7,14.7,0,0,0-.48-4.5,5.162,5.162,0,0,0-1.115-2.1,2.632,2.632,0,0,0-2.209-.777l-.374.051.143-.175c.036,2.836.071,5.533.1,7.991.1,2.432-.278,4.75.831,6.285a9.829,9.829,0,0,0,.8,1.031l.752.906,1.2,1.456.745.928a1.874,1.874,0,0,1,.241.339" transform="translate(193.49 4362)" fill="#263238"/>
    <path id="Trazado_208568" data-name="Trazado 208568" d="M398.672,591.405a1.039,1.039,0,0,1-.656-.188,7.015,7.015,0,0,1-1.45-1.157,40.126,40.126,0,0,1-3.872-4.682c-1.4-1.917-2.581-3.706-3.412-5.017-.415-.655-.742-1.192-.959-1.568a2.46,2.46,0,0,1-.306-.6,2.585,2.585,0,0,1,.421.529l1.052,1.506c.883,1.273,2.1,3.037,3.489,4.946a53.2,53.2,0,0,0,3.765,4.715,8.6,8.6,0,0,0,1.342,1.215,5,5,0,0,0,.586.305" transform="translate(193.49 4362)" fill="#263238"/>
    <path id="Trazado_208569" data-name="Trazado 208569" d="M421.164,583.138l-6.8-.459-2.034-5.574-.375-3.747a3.571,3.571,0,0,0-3.556-3.25h-.065l.382,9.186,1.4,5.706,5.527,3.261H422.4Z" transform="translate(193.49 4362)" fill="#bc8382"/>
    <path id="Trazado_208570" data-name="Trazado 208570" d="M421.164,583.138l-6.8-.459-2.034-5.574-.375-3.747a3.571,3.571,0,0,0-3.556-3.25h-.065l.382,9.186,1.4,5.706,5.527,3.261" transform="translate(193.49 4362)" fill="#bc8382"/>
    <path id="Trazado_208571" data-name="Trazado 208571" d="M415.638,588.261a2.189,2.189,0,0,1-.4-.194l-1.113-.618-4.078-2.341-.045-.026-.013-.052c-.411-1.636-.9-3.567-1.43-5.7l0-.015V579.3c-.12-2.761-.256-5.885-.4-9.185l-.008-.175.179-.009c.062,0,.131,0,.2,0a3.735,3.735,0,0,1,3.5,2.872,8.089,8.089,0,0,1,.152,1.122q.053.546.1,1.08.1,1.066.2,2.08l-.009-.039c.744,2.075,1.418,3.955,2,5.585l-.112-.084,4.973.393,1.351.125a2.426,2.426,0,0,1,.47.068,2.275,2.275,0,0,1-.475.005l-1.355-.057-4.981-.279-.082,0-.03-.08c-.6-1.623-1.3-3.495-2.063-5.562l-.007-.018,0-.021q-.105-1.012-.215-2.079-.054-.532-.111-1.079a7.655,7.655,0,0,0-.148-1.074,3.391,3.391,0,0,0-3.176-2.6c-.062,0-.123-.006-.182,0l.171-.184c.131,3.3.255,6.425.364,9.187l0-.031c.51,2.136.973,4.073,1.364,5.714l-.057-.078,4.021,2.438,1.079.675a2.14,2.14,0,0,1,.363.255" transform="translate(193.49 4362)" fill="#263238"/>
    <path id="Trazado_208572" data-name="Trazado 208572" d="M588.148,741.983c.013.276-53.427-2.831-53.427-2.831l-7.568-15.133-6.062,15.133H481.359l-.365-10.046,45.686-25.528,35.965,14.2,25.04,13.893Z" transform="translate(193.49 4362)"/>
    <rect id="Rectángulo_38746" data-name="Rectángulo 38746" width="107.154" height="38.423" transform="translate(674.484 5065.578)" fill="none"/>
    <path id="Trazado_208573" data-name="Trazado 208573" d="M491.436,550.792s-4.242,0-12.454,24.338L465,606.1l-19.339-26.645L429.4,594.369s16.857,30.789,22.34,38.23c6.016,8.166,24.145,9.995,32.242-4.836,6.838-12.525,19.589-37.472,19.589-37.472Z" transform="translate(193.49 4362)" fill="#455a64"/>
    <path id="Trazado_208575" data-name="Trazado 208575" d="M564.02,531.688l7.468,9.591,31.364,13.461-14.28,58.35-6.844,42.834L596.853,737.1,538.149,735l-11.127-26.232-8.114,26.285H479.139l1.941-18.107,9.212-68.672v-97.1l29.678-9.894,8.645-12.578Z" transform="translate(193.49 4362)" fill="#455a64"/>
    <path id="Trazado_208576" data-name="Trazado 208576" d="M528.615,619.326a4.822,4.822,0,0,0,.6-.758l1.611-2.255,5.813-8.369,18.945-27.771,13.919-20.643.09-.132-.053-.149-2.42-6.791-.17.348,5.7-1.973.171-.059-.023-.175c-.382-2.887-.688-5.2-.91-6.879-.11-.74-.2-1.34-.271-1.819a2.523,2.523,0,0,0-.134-.621,2.58,2.58,0,0,0,.014.635c.041.483.093,1.087.157,1.832.173,1.686.411,4.006.708,6.9l.148-.234-5.734,1.873-.261.085.09.263c.719,2.093,1.5,4.372,2.339,6.819l.037-.28c-4.065,5.97-8.867,13.026-14.01,20.581-7.307,10.859-13.92,20.689-18.766,27.892-2.336,3.535-4.243,6.42-5.618,8.5l-1.5,2.332a4.807,4.807,0,0,0-.48.842" transform="translate(193.49 4362)" fill="#263238"/>
    <path id="Trazado_208577" data-name="Trazado 208577" d="M519.969,541.279a2.3,2.3,0,0,0-.47.405l-1.273,1.258-4.7,4.807-.176.18.2.157,2.261,1.731-.04-.369-2.758,3.152-.092.106.028.14c1.454,7.227,3.32,16.508,5.353,26.617,2.427,11.671,4.623,22.231,6.236,29.989.818,3.76,1.487,6.835,1.973,9.071.234,1.005.424,1.819.573,2.458a3.927,3.927,0,0,0,.249.847,3.943,3.943,0,0,0-.1-.876c-.114-.647-.258-1.471-.437-2.487-.429-2.247-1.02-5.338-1.742-9.118-1.558-7.769-3.68-18.344-6.024-30.032-2.094-10.1-4.017-19.366-5.515-26.584l-.063.245,2.708-3.2.178-.21-.218-.16-2.295-1.686.028.336,4.544-4.95,1.187-1.34a2.338,2.338,0,0,0,.379-.491" transform="translate(193.49 4362)" fill="#263238"/>
    <path id="Trazado_208578" data-name="Trazado 208578" d="M510.6,553.1s4.3-3.486,5.379-3.483l-2.734,3.174s.8,3.857,1.121,5.4c4.119,19.722,8.306,41.188,12.425,60.909-5.6-19.487-10.737-40.05-14.883-59.9-.407-1.949-1.308-6.106-1.308-6.106" transform="translate(193.49 4362)"/>
    <rect id="Rectángulo_38747" data-name="Rectángulo 38747" width="16.191" height="69.488" transform="translate(704.085 4911.614)" fill="none"/>
    <path id="Trazado_208580" data-name="Trazado 208580" d="M466.482,626.783a9.858,9.858,0,0,0,.8-3.036,35.317,35.317,0,0,0,.351-7.563,33.07,33.07,0,0,0-1.257-7.47,8.38,8.38,0,0,0-1.246-2.884,26.06,26.06,0,0,0,.72,3.023,46.354,46.354,0,0,1,1.014,7.376c.384,5.831-.6,10.511-.377,10.554" transform="translate(193.49 4362)" fill="#263238"/>
    <path id="Trazado_208581" data-name="Trazado 208581" d="M481.08,716.943a1.3,1.3,0,0,0,.083-.341c.045-.269.1-.6.171-1.011q.216-1.423.593-3.912c.493-3.467,1.2-8.4,2.064-14.51,1.692-12.374,4.036-29.514,6.679-48.846l0-.028v-.028c-.039-3.034-.08-6.238-.121-9.489-.328-21.734-.625-41.406-.84-55.714-.144-7.08-.261-12.83-.343-16.874-.056-1.945-.1-3.478-.132-4.584-.022-.486-.039-.878-.053-1.19a1.6,1.6,0,0,0-.045-.4,1.711,1.711,0,0,0-.034.41c-.006.314-.013.708-.022,1.2,0,1.108-.007,2.645-.013,4.6.024,4.047.057,9.8.1,16.886.158,14.3.374,33.967.613,55.693.044,3.248.087,6.45.127,9.482l0-.055c-2.544,19.346-4.8,36.5-6.429,48.88l-1.833,14.541q-.291,2.5-.459,3.93l-.1,1.021a1.278,1.278,0,0,0-.01.35" transform="translate(193.49 4362)" fill="#263238"/>
    <path id="Trazado_208582" data-name="Trazado 208582" d="M526.425,709.642a3.9,3.9,0,0,0,.027-.9c-.018-.668-.042-1.516-.071-2.56-.075-2.323-.178-5.512-.3-9.407-.227-7.944-.355-18.922-.158-31.046s.641-23.1.978-31.042c.163-3.9.3-7.084.393-9.407.032-1.043.058-1.891.078-2.559a3.851,3.851,0,0,0-.025-.9,4,4,0,0,0-.13.886c-.058.667-.132,1.511-.222,2.552-.179,2.217-.4,5.427-.638,9.4-.477,7.938-1,18.917-1.2,31.058s.017,23.13.384,31.077c.181,3.974.37,7.187.548,9.405.089,1.041.16,1.886.216,2.552a3.945,3.945,0,0,0,.128.887" transform="translate(193.49 4362)" fill="#263238"/>
    <path id="Trazado_208583" data-name="Trazado 208583" d="M562.655,531.146l1.365,11.823-36.323,77.7-5.565-37.649,1.354-37.937,4.928-13.938Z" transform="translate(193.49 4362)" fill="#f5f5f5"/>
    <path id="Trazado_208584" data-name="Trazado 208584" d="M541.349,548.883a27.273,27.273,0,0,0,1.816,3.943c1.207,2.414,2.931,5.759,4.914,9.522l.243.461.352-.385,1.58-1.727c3.237-3.549,6.136-6.789,8.208-9.159A34.819,34.819,0,0,0,561.7,547.6a34.555,34.555,0,0,0-3.626,3.586c-2.17,2.28-5.131,5.464-8.368,9.013l-1.574,1.731.594.075c-2.005-3.752-3.808-7.054-5.131-9.407a27.207,27.207,0,0,0-2.247-3.714" transform="translate(193.49 4362)" fill="#263238"/>
    <path id="Trazado_208585" data-name="Trazado 208585" d="M524.76,543.321c-.2.059.933,4.4,2.524,9.7.091.3.18.6.266.883l.169.557.435-.392c1.86-1.677,3.735-2.993,4.992-4.04a8.371,8.371,0,0,0,1.925-1.815,12.258,12.258,0,0,0-2.225,1.415,53.25,53.25,0,0,0-5.194,3.9l.6.165c-.083-.283-.172-.582-.263-.885-1.59-5.3-3.036-9.543-3.232-9.484" transform="translate(193.49 4362)" fill="#263238"/>
    <path id="Trazado_208586" data-name="Trazado 208586" d="M535.072,548.211l5.613.523,2.391,4.561-4.828,6.261h-5.517l-1.874-8.224Z" transform="translate(193.49 4362)" fill="#99c8f2"/>
    <path id="Trazado_208587" data-name="Trazado 208587" d="M538.248,559.557s2.814,13.066,2.394,19.775-.6,15.557-.6,15.557L527.7,620.67l-3.7-24.882s5.138-26.519,6.864-30.619a23.677,23.677,0,0,0,1.874-5.612Z" transform="translate(193.49 4362)" fill="#99c8f2"/>
    <path id="Trazado_208588" data-name="Trazado 208588" d="M532.741,559.353c-.033.2,1.2.562,2.775.642s2.838-.149,2.827-.35-1.26-.307-2.789-.389-2.781-.108-2.813.1" transform="translate(193.49 4362)" fill="#263238"/>
    <path id="Trazado_208589" data-name="Trazado 208589" d="M532.85,550.05c-.148.141,1.289,1.9,3.211,3.93s3.6,3.563,3.749,3.422-1.289-1.9-3.212-3.93-3.6-3.562-3.748-3.422" transform="translate(193.49 4362)" fill="#263238"/>
    <path id="Trazado_208590" data-name="Trazado 208590" d="M560.207,551.125s-11.891,14.634-12.25,14.514l-4.341-12.486,4.788,9.023,13.872-15.207Z" transform="translate(193.49 4362)"/>
    <rect id="Rectángulo_38748" data-name="Rectángulo 38748" width="18.66" height="18.671" transform="translate(737.106 4908.969)" fill="none"/>
    <path id="Trazado_208591" data-name="Trazado 208591" d="M563.585,501.2a108.576,108.576,0,0,0,4.947-18.079c.958-6.182.849-12.641-1.259-18.532-.319-.893-3.063-6.891-4.008-6.809-.675.058.992,5.643.644,6.224-3.324,5.55-4.291,12.262-3.851,18.716a84.744,84.744,0,0,0,3.527,18.48" transform="translate(193.49 4362)" fill="#263238"/>
    <path id="Trazado_208592" data-name="Trazado 208592" d="M562.935,533.571l1.559-56.227c.7-15.675-7.835-29.148-23.523-29.416l-1.452.06a28.05,28.05,0,0,0-26.875,26.922c-.532,13.589-.947,28.611-.557,35.874.808,15.035,15.949,16.752,15.949,16.752.034,0,.045,1.332.036,5.75l8.894,15.127Z" transform="translate(193.49 4362)" fill="#bc8382"/>
    <path id="Trazado_208593" data-name="Trazado 208593" d="M528.036,527.537a36.363,36.363,0,0,0,19.347-6.6s-4.245,11.5-19.311,10.77Z" transform="translate(193.49 4362)" fill="#a36d6d"/>
    <path id="Trazado_208594" data-name="Trazado 208594" d="M519.583,487.472a2.15,2.15,0,0,0,2.161,2.082,2.056,2.056,0,0,0,2.134-2.029,2.151,2.151,0,0,0-2.159-2.083,2.058,2.058,0,0,0-2.136,2.03" transform="translate(193.49 4362)" fill="#263238"/>
    <path id="Trazado_208595" data-name="Trazado 208595" d="M516.117,481.421c.278.269,1.855-1,4.168-1.092,2.308-.123,4.053,1,4.292.7.118-.13-.174-.625-.935-1.132a5.9,5.9,0,0,0-3.451-.909,5.668,5.668,0,0,0-3.3,1.218c-.688.575-.908,1.092-.771,1.212" transform="translate(193.49 4362)" fill="#263238"/>
    <path id="Trazado_208596" data-name="Trazado 208596" d="M540.333,487.472a2.15,2.15,0,0,0,2.161,2.082,2.056,2.056,0,0,0,2.134-2.029,2.151,2.151,0,0,0-2.159-2.083,2.058,2.058,0,0,0-2.136,2.03" transform="translate(193.49 4362)" fill="#263238"/>
    <path id="Trazado_208597" data-name="Trazado 208597" d="M538.8,481.021c.279.269,1.858-1,4.169-1.092,2.307-.122,4.053,1,4.292.7.118-.131-.171-.625-.935-1.132a5.9,5.9,0,0,0-3.451-.91,5.672,5.672,0,0,0-3.3,1.219c-.686.575-.907,1.091-.772,1.211" transform="translate(193.49 4362)" fill="#263238"/>
    <path id="Trazado_208598" data-name="Trazado 208598" d="M531.241,499.126a15.288,15.288,0,0,0-3.782-.522c-.594-.037-1.157-.131-1.273-.53a3.013,3.013,0,0,1,.322-1.766q.744-2.177,1.56-4.567c2.16-6.5,3.7-11.834,3.435-11.919s-2.227,5.115-4.386,11.615q-.778,2.4-1.486,4.591a3.422,3.422,0,0,0-.21,2.329,1.479,1.479,0,0,0,1.006.823,3.978,3.978,0,0,0,1.008.1,15.063,15.063,0,0,0,3.806-.152" transform="translate(193.49 4362)" fill="#263238"/>
    <path id="Trazado_208599" data-name="Trazado 208599" d="M537.752,473.821c.338.577,2.556-.136,5.284-.307,2.726-.227,5.023.157,5.274-.463.109-.295-.374-.808-1.355-1.246a9.208,9.208,0,0,0-8.044.587c-.907.576-1.31,1.153-1.159,1.429" transform="translate(193.49 4362)" fill="#263238"/>
    <path id="Trazado_208600" data-name="Trazado 208600" d="M515.73,474.629c.495.512,2.364-.083,4.627-.168,2.261-.152,4.191.243,4.618-.318.186-.272-.129-.79-.98-1.265a7.283,7.283,0,0,0-3.785-.762,7.191,7.191,0,0,0-3.665,1.153c-.785.561-1.034,1.109-.815,1.36" transform="translate(193.49 4362)" fill="#263238"/>
    <path id="Trazado_208601" data-name="Trazado 208601" d="M563.726,488.533c.252-.121,10.21-3.484,10.306,6.814s-10.262,8.27-10.283,7.975-.023-14.789-.023-14.789" transform="translate(193.49 4362)" fill="#bc8382"/>
    <path id="Trazado_208602" data-name="Trazado 208602" d="M566.859,499.392c.045-.033.18.124.485.26a1.8,1.8,0,0,0,1.341.015c1.084-.409,1.984-2.145,2.017-4a5.942,5.942,0,0,0-.526-2.563,2.075,2.075,0,0,0-1.363-1.365.913.913,0,0,0-1.054.5c-.135.289-.068.494-.122.512-.029.026-.223-.17-.144-.6a1.143,1.143,0,0,1,.4-.649,1.351,1.351,0,0,1,.99-.272,2.523,2.523,0,0,1,1.889,1.579,6.091,6.091,0,0,1,.648,2.865c-.046,2.075-1.09,4.027-2.575,4.471a1.921,1.921,0,0,1-1.643-.257c-.321-.252-.378-.481-.342-.5" transform="translate(193.49 4362)" fill="#263238"/>
    <path id="Trazado_208603" data-name="Trazado 208603" d="M519.3,457.847c-1.667-.919,3.332-6.319,7.426-8.179,6.189-2.812,15.641-4.547,21.349-2.931,6.873,1.945,12.583,5.36,16.037,11.613a40.512,40.512,0,0,1,4.558,20.679,12.307,12.307,0,0,1-1.448,6.292c-1.437,2.278-4.2,3.713-4.074,6.854a4.315,4.315,0,0,1-1.067,3.144c-1.884,2.006-4.19.124-5.251-1.764-2.265-4.033-2.52-8.848-2.722-13.469-.143-3.284-.278-6.639.646-9.794.5-1.717,1.312-3.339,1.719-5.081a6.186,6.186,0,0,0-.733-5.141,6.416,6.416,0,0,0-.837-.846,10.739,10.739,0,0,0-10.655-2.022c-5.8,2.055-15.7,5.124-18.288,3.158-3.722-2.83-4.613-4.676-4.613-4.676Z" transform="translate(193.49 4362)" fill="#263238"/>
    <path id="Trazado_208604" data-name="Trazado 208604" d="M538.5,500.558c-.354-.022-.369,2.342-2.4,4.012s-4.548,1.4-4.568,1.728c-.033.149.559.462,1.624.5a5.892,5.892,0,0,0,3.812-1.309,5.13,5.13,0,0,0,1.861-3.365c.095-.988-.166-1.575-.328-1.562" transform="translate(193.49 4362)" fill="#263238"/>
    <path id="Trazado_208605" data-name="Trazado 208605" d="M583.007,729.913a28.86,28.86,0,0,0-4.2,5.411c-1.034,2.163-2.478,11.337-2.478,11.337s1.776,1.39,4.425-3.585a44.124,44.124,0,0,0,3.351-7.43Z" transform="translate(193.49 4362)" fill="#bc8382"/>
    <path id="Trazado_208606" data-name="Trazado 208606" d="M579.887,746.861l2.945-16.745,9.75-10.724,19.689,2.694-3.406,21s-4.719,8.066-6.473,9.417-4.369-.429-4.369-.429c-2.024,2.1-6.07.375-6.07.375-2.569,2.05-5.326-.914-5.326-.914s-3.345,2.028-4.613,1.6A2.582,2.582,0,0,1,580.821,752a7.3,7.3,0,0,1-.934-5.137" transform="translate(193.49 4362)" fill="#bc8382"/>
    <path id="Trazado_208607" data-name="Trazado 208607" d="M600.449,748.056c-.18-.1-.835.692-1.463,1.777s-.99,2.05-.81,2.154.835-.691,1.463-1.777.99-2.05.81-2.154" transform="translate(193.49 4362)" fill="#263238"/>
    <path id="Trazado_208608" data-name="Trazado 208608" d="M595.211,746.76c-.2-.068-.829,1.279-1.676,2.884s-1.595,2.888-1.423,3.016,1.217-1,2.09-2.666,1.2-3.172,1.009-3.234" transform="translate(193.49 4362)" fill="#263238"/>
    <path id="Trazado_208609" data-name="Trazado 208609" d="M589.084,746.1c-.209-.043-.626,1.2-1.221,2.668s-1.141,2.659-.96,2.773,1.042-.943,1.659-2.493.721-2.912.522-2.948" transform="translate(193.49 4362)" fill="#263238"/>
    <path id="Trazado_208610" data-name="Trazado 208610" d="M582.031,735.4c-.205-.034-.9,2.777-1.549,6.279s-1.011,6.371-.806,6.407.9-2.775,1.549-6.28,1.011-6.372.806-6.406" transform="translate(193.49 4362)" fill="#263238"/>
    <path id="Trazado_208611" data-name="Trazado 208611" d="M601.412,744.769c-.074.064.01.329.328.62a2.358,2.358,0,0,0,3.111-.032c.313-.3.391-.564.316-.626-.155-.138-.864.473-1.873.474-1.008.019-1.73-.577-1.882-.436" transform="translate(193.49 4362)" fill="#263238"/>
    <path id="Trazado_208612" data-name="Trazado 208612" d="M595.055,744.548c-.066.07.063.336.433.614a2.982,2.982,0,0,0,3.387-.009c.368-.28.495-.547.429-.617-.146-.155-.967.413-2.124.4-1.155.024-1.98-.54-2.125-.383" transform="translate(193.49 4362)" fill="#263238"/>
    <path id="Trazado_208613" data-name="Trazado 208613" d="M583.523,740.97c-.053-.106-.562.359-.227,1.165a3.622,3.622,0,0,0,2.252,1.694,4.4,4.4,0,0,0,2.777-.083c.673-.264.981-.6.93-.68-.086-.184-1.627.609-3.494.041a4.065,4.065,0,0,1-2-1.225c-.331-.46-.157-.861-.242-.912" transform="translate(193.49 4362)" fill="#263238"/>
    <path id="Trazado_208614" data-name="Trazado 208614" d="M388.748,552.06l-.1-2.73,17.75,8.01,21.78-19.32,1.144,4.2a1.99,1.99,0,0,1-.434,1.847L408.59,566.9a4.069,4.069,0,0,1-5.823.264L390.3,555.468a4.906,4.906,0,0,1-1.548-3.408" transform="translate(193.49 4362)" fill="#99c8f2"/>
    <path id="Trazado_208615" data-name="Trazado 208615" d="M388.748,552.06l-.1-2.73,17.75,8.01,21.78-19.32,1.144,4.2a1.99,1.99,0,0,1-.434,1.847L408.59,566.9a4.069,4.069,0,0,1-5.823.264L390.3,555.468a4.906,4.906,0,0,1-1.548-3.408" transform="translate(193.49 4362)"/>
    <rect id="Rectángulo_38749" data-name="Rectángulo 38749" width="40.743" height="30.24" transform="translate(582.143 4900.02)" fill="none"/>
    <path id="Trazado_208616" data-name="Trazado 208616" d="M388.986,548.118l3.778-4.128a1.514,1.514,0,0,1,2.071-.153l9.55,7.761a1.514,1.514,0,0,0,2.1-.181l15.3-17.574a1.513,1.513,0,0,1,2.2-.084l3.724,3.67a1.514,1.514,0,0,1,.068,2.084l-19.838,22.308a3.67,3.67,0,0,1-5.148.333L389.11,550.283a1.514,1.514,0,0,1-.124-2.165" transform="translate(193.49 4362)" fill="#00f3be"/>
    <path id="Trazado_208617" data-name="Trazado 208617" d="M403.366,552.644a3.4,3.4,0,0,1-.523-.361l-1.371-1.05c-1.152-.895-2.734-2.144-4.471-3.535l-1.267-1.017-.6-.485a1.782,1.782,0,0,0-.6-.349,1.609,1.609,0,0,0-1.248.111,3.465,3.465,0,0,0-.844.785l-1.174,1.268a3.3,3.3,0,0,1-.454.444,3.247,3.247,0,0,1,.387-.5c.292-.345.668-.787,1.118-1.317l.374-.433a1.851,1.851,0,0,1,.5-.412,1.8,1.8,0,0,1,1.4-.146,1.993,1.993,0,0,1,.676.38l.605.481,1.27,1.013c1.737,1.391,3.3,2.66,4.428,3.588l1.326,1.108a3.358,3.358,0,0,1,.466.431" transform="translate(193.49 4362)" fill="#fff"/>
    <path id="Trazado_208618" data-name="Trazado 208618" d="M407.513,552.692c-.049-.042,3.247-3.99,7.36-8.818s7.488-8.711,7.537-8.669-3.246,3.989-7.361,8.819-7.487,8.71-7.536,8.668" transform="translate(193.49 4362)" fill="#fff"/>
    <path id="Trazado_208574" data-name="Trazado 208574" d="M592.559,655.875l-9.192-65.2,19.2-35.939a16.281,16.281,0,0,1,5.705,10.545c1.954,16.359,15.449,78.178,15.987,88.218l-6.84,69.286-30.91-4.228Z" transform="translate(193.49 4362)" fill="#455a64"/>
    <path id="Trazado_208579" data-name="Trazado 208579" d="M617.519,722.73a2.575,2.575,0,0,0-.555-.122l-1.635-.267-6.26-.933-22.7-3.213.266.336c1.252-12.752,2.821-28.729,4.521-46.034.55-5.728,1.086-11.31,1.6-16.645l.005-.046-.007-.045c-2.6-17.233-4.865-32.3-6.5-43.122-.834-5.334-1.505-9.621-1.977-12.638q-.357-2.146-.564-3.387c-.066-.352-.119-.638-.163-.874a1.076,1.076,0,0,0-.077-.294,1.009,1.009,0,0,0,.01.3c.026.238.057.528.1.883l.438,3.407c.42,3.025,1.015,7.322,1.757,12.67L592,655.87l0-.09-1.616,16.643c-1.642,17.311-3.159,33.293-4.369,46.049l-.029.3.295.038,22.741,2.947,6.282.767,1.647.178a2.617,2.617,0,0,0,.568.03" transform="translate(193.49 4362)" fill="#263238"/>
  </g>
</svg>
