<svg xmlns="http://www.w3.org/2000/svg" width="232.976" height="285.911" viewBox="0 0 232.976 285.911">
  <g id="Grupo_870944" data-name="Grupo 870944" transform="translate(-884.05 -4394.313)">
    <path id="Trazado_208367" data-name="Trazado 208367" d="M921.5,236.423s4.21-7.094.508-16.658-46.718-63.321-46.718-63.321-16,13.1-15.124,28.291l9.1,14.48,24.984,28.753Z" transform="translate(193.49 4362)" fill="#ffc09d"/>
    <path id="Trazado_208368" data-name="Trazado 208368" d="M871,269.1l25.492-45.1s24.476,11.985,25.014,12.419-25.627,32-43.21,45.02l-6.321-3.271Z" transform="translate(193.49 4362)" fill="#ffc09d"/>
    <path id="Trazado_208369" data-name="Trazado 208369" d="M759.444,116.984s6.963-2.066,11.375-6.338S784.377,92.1,784.377,92.1c-1.325-3.372-5.192-2.036-10.776,2.084-7.213,5.322-24.93-3.954-25.65-3.647-.954.407-8.308,18.143-8.308,18.143L751.674,120.2Z" transform="translate(193.49 4362)" fill="#ffc09d"/>
    <path id="Trazado_208370" data-name="Trazado 208370" d="M751.371,91.77s-2.531,5.557-.825,7.829c1.535,2.044,4.023,1.733,5.669-.055,0,0-1.549,3.012,1.564,4.04s5.306-1.894,5.306-1.894.447,1.512,3.357.945,4.891-4.2,4.891-4.2A6.615,6.615,0,0,0,777.8,97.2c2.939-2.605,4.2-8.348,3.681-10.045-.088-.289-.519-3.883-3.692-3.376s-3.938,1.443-3.938,1.443-2.067-2.572-7.171.944c0,0-2.935-3.09-7.4.777,0,0-6.376-.684-8.681.8a10.647,10.647,0,0,0-3.467,4.033" transform="translate(193.49 4362)" fill="#ffc09d"/>
    <path id="Trazado_208371" data-name="Trazado 208371" d="M747.128,91.781a2.847,2.847,0,0,1,.4-.907,10.425,10.425,0,0,1,1.718-2.273,6.878,6.878,0,0,1,1.672-1.264,8.288,8.288,0,0,1,2.407-.645,28.326,28.326,0,0,1,5.987-.061l-.24.075a8.065,8.065,0,0,1,3.534-1.931,4.81,4.81,0,0,1,4.345,1.134l-.485-.05a11.726,11.726,0,0,1,3.5-1.73,4.228,4.228,0,0,1,4.205.837l-.639,0a4.923,4.923,0,0,1,1.912-1.055,13.821,13.821,0,0,1,2.019-.5,3.7,3.7,0,0,1,2.272.2,3.5,3.5,0,0,1,1.616,1.694,8.715,8.715,0,0,1,.64,2.174,8.583,8.583,0,0,1-.1,2.286,16.828,16.828,0,0,1-1.351,4.324,9.227,9.227,0,0,1-3.765,4.365,7.091,7.091,0,0,1-5.59.386l.533-.195a10.123,10.123,0,0,1-3.876,3.941,5.715,5.715,0,0,1-2.671.585,2.514,2.514,0,0,1-2.455-1.361l.692.125a6.443,6.443,0,0,1-2.526,1.894,4.535,4.535,0,0,1-3.019.154,3.067,3.067,0,0,1-2.211-1.871,3.705,3.705,0,0,1,.287-2.707l.52.363a4.6,4.6,0,0,1-3.029,1.529,3.479,3.479,0,0,1-2.785-1.188,3.634,3.634,0,0,1-.887-2.466,9.347,9.347,0,0,1,.24-2.145,16.768,16.768,0,0,1,.911-2.806,3.411,3.411,0,0,1,.47-.914c.081.028-.541,1.318-1.034,3.789a9.351,9.351,0,0,0-.154,2.059,3.182,3.182,0,0,0,.826,2.139,2.95,2.95,0,0,0,2.376.957,4.02,4.02,0,0,0,2.595-1.387l1.356-1.5L756.5,99.69a3.085,3.085,0,0,0-.211,2.193,2.382,2.382,0,0,0,1.764,1.4,4.577,4.577,0,0,0,4.718-1.829l.426-.534.266.659a1.84,1.84,0,0,0,1.714.775,4.893,4.893,0,0,0,2.285-.517,9.36,9.36,0,0,0,3.494-3.611l.183-.312.35.118a6.269,6.269,0,0,0,4.866-.359,8.4,8.4,0,0,0,3.378-3.968,16.009,16.009,0,0,0,1.282-4.089,6.025,6.025,0,0,0-.448-3.94,2.636,2.636,0,0,0-1.2-1.3,2.843,2.843,0,0,0-1.757-.135,12.938,12.938,0,0,0-1.9.458,4.635,4.635,0,0,0-1.543.783l-.334.315-.306-.318a3.52,3.52,0,0,0-3.365-.587,11.046,11.046,0,0,0-3.271,1.582l-.254.168-.231-.219a4.123,4.123,0,0,0-3.66-.971,7.472,7.472,0,0,0-3.262,1.728l-.1.086-.135-.011c-4.27-.367-8.115-.366-9.759,1.595a16.265,16.265,0,0,0-2.356,2.928" transform="translate(193.49 4362)" fill="#ff9b6c"/>
    <path id="Trazado_208372" data-name="Trazado 208372" d="M771.832,102.667c-.013.281-4.261-.364-9.131,1.249-4.9,1.539-7.964,4.546-8.14,4.326-.073-.073.583-.923,1.929-2.008a19.154,19.154,0,0,1,12.6-4.068,6.388,6.388,0,0,1,2.738.5" transform="translate(193.49 4362)" fill="#ff9b6c"/>
    <path id="Trazado_208373" data-name="Trazado 208373" d="M756.071,99.721c-.1-.091.433-.732,1.145-1.818a21.691,21.691,0,0,0,2.112-4.617,10.1,10.1,0,0,0,.665-2.64,8.848,8.848,0,0,0-.166-2.2c-.2-1.24-1.192-1.4-1.112-1.548.013-.05.235-.079.618.066a1.969,1.969,0,0,1,1.095,1.316,7.517,7.517,0,0,1,.376,2.416,9.255,9.255,0,0,1-.649,2.9,15.285,15.285,0,0,1-2.436,4.678c-.882,1.044-1.57,1.525-1.648,1.448" transform="translate(193.49 4362)" fill="#ff9b6c"/>
    <path id="Trazado_208374" data-name="Trazado 208374" d="M763.086,101.69a10.987,10.987,0,0,1,.957-2.25c.614-1.362,1.3-3.306,2.053-5.487a11.877,11.877,0,0,0,.84-5.591c-.183-1.45-.575-2.316-.442-2.375.083-.048.692.731,1.057,2.268a10.572,10.572,0,0,1-.623,5.992,33.155,33.155,0,0,1-2.328,5.474c-.763,1.336-1.424,2.035-1.514,1.969" transform="translate(193.49 4362)" fill="#ff9b6c"/>
    <path id="Trazado_208375" data-name="Trazado 208375" d="M770.5,99.573c-.174-.147,1.855-2.956,3.266-7a9.133,9.133,0,0,0,.492-5.174c-.288-1.327-.753-2.083-.63-2.158.075-.061.751.588,1.232,1.993a8.463,8.463,0,0,1-.268,5.649,22.261,22.261,0,0,1-2.517,4.98c-.827,1.176-1.488,1.778-1.575,1.706" transform="translate(193.49 4362)" fill="#ff9b6c"/>
    <path id="Trazado_208376" data-name="Trazado 208376" d="M830.593,45.4c4.482-4.834,15.42-3.994,17.983-.759a8.351,8.351,0,0,1,10.9,3.74l11.619,2.661c1.982.453,4.055.953,5.57,2.31s2.2,3.864.928,5.448c4.091,1.106,5.64,7.229,2.567,10.148a4.413,4.413,0,0,1-.718,6.379,44.158,44.158,0,0,1,7.375,13.04c.71,1.978,1.271,4.18.523,6.142s-3.354,3.292-5.044,2.047a5.165,5.165,0,0,1,.19,5.58c1.969.068,2.526,3.119,1.159,4.537s-3.568,1.548-5.539,1.483-4.1-.188-5.73.921a1.792,1.792,0,0,0,.63,1.256,8.1,8.1,0,0,1,1.7,11.052c-.237.327-.461.627-.656.9-1.157,1.608-3.995,3.063-5.761,3.963-4.477,2.279-7.125,1.814-12.1,2.484,1.325,3.22-6.821,10.245-15.995,3.173-18.49,4.774-31.8,6.526-50.9,6.391-2.724-.021-6-.42-7.18-2.874a6.761,6.761,0,0,1-6.206-2.1,19.949,19.949,0,0,1-3.6-5.794,11.868,11.868,0,0,1-8.438-10.778,14.676,14.676,0,0,1-5.432-10.488,8.608,8.608,0,0,1-4.823-11.67,51.979,51.979,0,0,1,5.823-16.02c-3.117-.705-4.251-4.929-2.938-7.843s4.172-4.768,6.886-6.458c-2.341.6-4.349-2.354-3.769-4.7s2.709-3.948,4.794-5.171a43.949,43.949,0,0,1,9.72-4.223c1.151-4.1,6.452-8.73,10.32-10.515,15.6-7.195,26.5-8.948,46.145,5.739" transform="translate(193.49 4362)" fill="#263238"/>
    <path id="Trazado_208377" data-name="Trazado 208377" d="M787.065,74.57c1.342-10.679,9.261-23.39,19.873-21.6l32.831,10.5A6.3,6.3,0,0,1,845,70.2l-5.567,71.4a19.638,19.638,0,0,1-39.213-1.9c.092-4.911.15-8.6.147-8.577,0,0-13.555-3.125-15.282-21.171-.859-8.975.493-23.518,1.984-35.381" transform="translate(193.49 4362)" fill="#ffc09d"/>
    <path id="Trazado_208378" data-name="Trazado 208378" d="M793.06,90.942a2.3,2.3,0,0,0,2.066,2.45,2.2,2.2,0,0,0,2.491-1.92,2.3,2.3,0,0,0-2.063-2.45,2.2,2.2,0,0,0-2.494,1.92" transform="translate(193.49 4362)" fill="#263238"/>
    <path id="Trazado_208379" data-name="Trazado 208379" d="M789.755,82.346c.265.317,2.081-.86,4.547-.7,2.466.124,4.2,1.506,4.483,1.22.14-.125-.117-.683-.869-1.305a6.3,6.3,0,0,0-3.565-1.347,6.056,6.056,0,0,0-3.643.931c-.794.535-1.085,1.059-.953,1.2" transform="translate(193.49 4362)" fill="#263238"/>
    <path id="Trazado_208380" data-name="Trazado 208380" d="M815.8,91.15a2.3,2.3,0,0,0,2.066,2.45,2.2,2.2,0,0,0,2.491-1.92,2.3,2.3,0,0,0-2.064-2.451A2.2,2.2,0,0,0,815.8,91.15" transform="translate(193.49 4362)" fill="#263238"/>
    <path id="Trazado_208381" data-name="Trazado 208381" d="M813.966,84.312c.266.316,2.085-.86,4.548-.7,2.466.124,4.2,1.5,4.483,1.22.139-.126-.114-.683-.869-1.306a6.3,6.3,0,0,0-3.565-1.347,6.063,6.063,0,0,0-3.643.931c-.792.535-1.085,1.059-.954,1.2" transform="translate(193.49 4362)" fill="#263238"/>
    <path id="Trazado_208382" data-name="Trazado 208382" d="M803.88,102.045c.02-.139-1.5-.5-3.961-.972-.625-.1-1.214-.266-1.293-.7a3.218,3.218,0,0,1,.536-1.841q1.031-2.23,2.16-4.679c3.011-6.666,5.232-12.164,4.963-12.283s-2.929,5.188-5.939,11.855c-.727,1.645-1.422,3.212-2.084,4.713a3.653,3.653,0,0,0-.481,2.451,1.587,1.587,0,0,0,.979.985,4.293,4.293,0,0,0,1.06.215c2.492.29,4.042.4,4.06.258" transform="translate(193.49 4362)" fill="#263238"/>
    <path id="Trazado_208383" data-name="Trazado 208383" d="M800.363,131.121a45.55,45.55,0,0,0,24.329-4.9s-6.569,11.915-24.35,9.131Z" transform="translate(193.49 4362)" fill="#ff9b6c"/>
    <path id="Trazado_208384" data-name="Trazado 208384" d="M813.508,74.092c.2.685,2.684.521,5.555,1.049,2.882.471,5.163,1.463,5.584.885.189-.277-.178-.932-1.081-1.64a9.828,9.828,0,0,0-8.487-1.475c-1.089.363-1.656.856-1.571,1.181" transform="translate(193.49 4362)" fill="#263238"/>
    <path id="Trazado_208385" data-name="Trazado 208385" d="M791.15,73.913c.4.587,2.134.112,4.178.211,2.048.028,3.75.611,4.184.05.193-.274-.045-.852-.768-1.429a6.057,6.057,0,0,0-6.738-.21c-.758.53-1.031,1.092-.856,1.378" transform="translate(193.49 4362)" fill="#263238"/>
    <path id="Trazado_208386" data-name="Trazado 208386" d="M778.877,83.024a12.278,12.278,0,0,1,3.1-7.651,45.672,45.672,0,0,0,3.37-3.144c2.06-2.609,1.839-6.285,2.748-9.482a13.522,13.522,0,0,1,8.528-8.944c3.378-1.14,7.177-.912,10.354-2.528,2.349-1.195,4.159-3.307,6.573-4.361,4.7-2.052,10.076.437,14.438,3.14.815,3.515-1.454,6.506-3.639,9.378a12.512,12.512,0,0,1-9.289,4.854c-2.8.12-6.049-.568-8.049,1.391-2.1,2.061-1.367,5.77-3.107,8.145-2.487,3.394-7.989,1.991-11.658,4.052-2.833,1.592-4.071,4.927-5.532,7.829s-3.96,5.912-7.2,5.7a36.627,36.627,0,0,1-.636-8.38" transform="translate(193.49 4362)" fill="#263238"/>
    <path id="Trazado_208387" data-name="Trazado 208387" d="M817.3,55.608a71.394,71.394,0,0,1,26.878,5.335c2.534,1.041,5.151,2.353,6.565,4.7,1.243,2.063,1.353,4.6,1.282,7.008-.22,7.539-3.418,16.717-6.415,23.639l-9.516,5.472c-7.222-1.843-3.673-14.306-3.213-20.575a14.822,14.822,0,0,1-8.427-13.237A16.407,16.407,0,0,1,817.3,55.608" transform="translate(193.49 4362)" fill="#263238"/>
    <path id="Trazado_208388" data-name="Trazado 208388" d="M837.763,94.907c.321-3.827,5.039-4.488,8.3-2.456,1.789,1.116,3.113,3.283,2.808,7.347-.812,10.838-11.525,7.787-11.521,7.475,0-.194.041-7.885.416-12.366" transform="translate(193.49 4362)" fill="#ffc09d"/>
    <path id="Trazado_208389" data-name="Trazado 208389" d="M840.965,103.414c.05-.03.179.148.487.318a1.9,1.9,0,0,0,1.409.135c1.177-.336,2.277-2.081,2.476-4.03a6.249,6.249,0,0,0-.326-2.743,2.184,2.184,0,0,0-1.311-1.555.964.964,0,0,0-1.153.432c-.168.294-.116.515-.174.53-.033.024-.219-.2-.1-.642a1.207,1.207,0,0,1,.477-.646,1.425,1.425,0,0,1,1.064-.2,2.66,2.66,0,0,1,1.847,1.828,6.424,6.424,0,0,1,.428,3.07c-.233,2.179-1.5,4.138-3.1,4.474a2.028,2.028,0,0,1-1.705-.417c-.316-.294-.355-.539-.316-.557" transform="translate(193.49 4362)" fill="#ff9b6c"/>
    <path id="Trazado_208390" data-name="Trazado 208390" d="M846.17,110.312a9.121,9.121,0,0,0,1.743-.082,6.4,6.4,0,0,0,1.909-.541l-.129-.067a5.4,5.4,0,0,0,8.533,3.578l-.184-.035a2.239,2.239,0,0,0,1.406.974,3.091,3.091,0,0,0,1.76-.116,2.838,2.838,0,0,0,1.434-1.123,3.783,3.783,0,0,0,.582-1.777,5.543,5.543,0,0,0-1.118-3.639,16.286,16.286,0,0,0-2.811-2.836l-.023.251a3.824,3.824,0,0,0,1.767-2.541,5.577,5.577,0,0,0-.253-3.205,8.6,8.6,0,0,0-1.851-2.74,25.767,25.767,0,0,0-2.529-2.219l.012.245a4.069,4.069,0,0,0,1.125-3.129,5.872,5.872,0,0,0-1.169-3.244,14.533,14.533,0,0,0-5.226-3.787l.084.189a7.2,7.2,0,0,0-7.669-9.032l.164.189a6.213,6.213,0,0,0-1.374-5.306,6.126,6.126,0,0,0-4.543-2.332l.133.139a6.1,6.1,0,0,0-2.379-4.774,5.962,5.962,0,0,0-4.513-1.333l.122.108a5.965,5.965,0,0,0-.831-2.8,7.66,7.66,0,0,0-1.612-2.02,6.223,6.223,0,0,0-3.682-1.666l-.406-.036c-.132,0-.26.016-.383.023a5.573,5.573,0,0,0-.688.067,7.462,7.462,0,0,0-1.042.274l-.61.248a1.3,1.3,0,0,0-.2.093,1.165,1.165,0,0,0,.214-.065l.617-.22a8.067,8.067,0,0,1,1.036-.242,5.574,5.574,0,0,1,.679-.053c.122,0,.247-.017.376-.015l.4.041a6.139,6.139,0,0,1,3.58,1.675,7.521,7.521,0,0,1,1.556,1.988,5.791,5.791,0,0,1,.785,2.7v.125l.122-.017a5.747,5.747,0,0,1,4.329,1.312,5.847,5.847,0,0,1,2.261,4.576l0,.137.136,0a5.857,5.857,0,0,1,4.323,2.246,5.924,5.924,0,0,1,1.3,5.049l-.052.21.216-.021a6.891,6.891,0,0,1,7.321,8.641l-.034.128.117.061a14.233,14.233,0,0,1,5.111,3.693,5.542,5.542,0,0,1,1.1,3.059,3.747,3.747,0,0,1-1.025,2.882l-.134.129.146.116c1.745,1.386,3.5,2.848,4.287,4.82a5.25,5.25,0,0,1,.244,3.019,3.511,3.511,0,0,1-1.613,2.343l-.191.108.168.143a16.028,16.028,0,0,1,2.768,2.773,5.258,5.258,0,0,1,1.077,3.446,2.911,2.911,0,0,1-1.826,2.668,2.384,2.384,0,0,1-2.856-.739l-.072-.117-.112.082a5.252,5.252,0,0,1-5.475.421,5.318,5.318,0,0,1-2.729-3.822l-.018-.122-.111.055a6.255,6.255,0,0,1-1.853.544,9.051,9.051,0,0,1-1.714.1,6.658,6.658,0,0,1-2.637-.553,2.5,2.5,0,0,1-1.236-1.086c-.167-.338-.191-.544-.211-.537a.619.619,0,0,0,.029.144,1.463,1.463,0,0,0,.138.415,2.508,2.508,0,0,0,1.238,1.149" transform="translate(193.49 4362)" fill="#455a64"/>
    <path id="Trazado_208391" data-name="Trazado 208391" d="M883.625,97.093a3.721,3.721,0,0,0,.42-.648,5.585,5.585,0,0,0,.612-2.138,5.471,5.471,0,0,0-.83-3.419,5.761,5.761,0,0,0-3.888-2.569l.09.131a7.44,7.44,0,0,0-.888-5.371,7.273,7.273,0,0,0-2.085-2.293,17.263,17.263,0,0,0-2.943-1.449,5.928,5.928,0,0,1-1.407-.869,3.677,3.677,0,0,1-.967-1.352c-.465-1.048-.6-2.28-1.188-3.411A6.6,6.6,0,0,0,864,70.315l.184.186a8.693,8.693,0,0,0-9.46-10.018l.178.182a7.633,7.633,0,0,0-11.747-7.339l.174.019a10.439,10.439,0,0,0-3.75-2.378,15.671,15.671,0,0,0-3.878-.961,18.193,18.193,0,0,0-6.441.324,12.977,12.977,0,0,0-3.849,1.521,7.52,7.52,0,0,0-.893.626c-.2.149-.29.234-.29.234.018.024.411-.3,1.226-.788a13.387,13.387,0,0,1,3.841-1.438,18.27,18.27,0,0,1,6.377-.257,15.513,15.513,0,0,1,3.814.973,10.215,10.215,0,0,1,3.645,2.336l.078.082.1-.062a7.339,7.339,0,0,1,11.274,7.067l-.024.2.2-.021a8.377,8.377,0,0,1,9.106,9.644l-.035.217.218-.03a6.29,6.29,0,0,1,6.231,3.214c.561,1.057.7,2.281,1.188,3.386a3.986,3.986,0,0,0,1.049,1.453,6.216,6.216,0,0,0,1.479.908,17.2,17.2,0,0,1,2.907,1.411,7.006,7.006,0,0,1,2.021,2.2,7.227,7.227,0,0,1,.9,5.193l-.025.114.114.018a5.592,5.592,0,0,1,3.778,2.447,5.38,5.38,0,0,1,.855,3.318,5.731,5.731,0,0,1-.549,2.118c-.221.453-.379.667-.365.676" transform="translate(193.49 4362)" fill="#455a64"/>
    <path id="Trazado_208392" data-name="Trazado 208392" d="M779.8,98.278a1.063,1.063,0,0,0,.057-.889,2.113,2.113,0,0,0-.619-.909,3.7,3.7,0,0,0-1.329-.7,6.346,6.346,0,0,1-1.682-.736,3.364,3.364,0,0,1-1.192-1.762,6.611,6.611,0,0,1-.231-2.488c.053-.895.21-1.84.227-2.855.056-2.058-.78-4.162-1.271-6.438a9.027,9.027,0,0,1-.086-3.57,4.345,4.345,0,0,1,2.02-3.018,16.275,16.275,0,0,1,3.825-1.225,6.565,6.565,0,0,0,1.959-.872,4.368,4.368,0,0,0,1.4-1.692,21.146,21.146,0,0,0,1.214-4.252,7.24,7.24,0,0,1,.786-2.045,3.326,3.326,0,0,1,1.624-1.375,12.163,12.163,0,0,1,3.009-.359,4.7,4.7,0,0,0,1.527-.356,2.986,2.986,0,0,0,1.216-.992,10.521,10.521,0,0,0,1.183-2.753,6.674,6.674,0,0,1,1.4-2.425,6.544,6.544,0,0,1,4.763-2.18,6.731,6.731,0,0,1,4.578,1.746l.142.132.083-.175a10.331,10.331,0,0,1,6.538-5.453,9.508,9.508,0,0,1,3.631-.252,8.671,8.671,0,0,1,2.967.879,7.635,7.635,0,0,1,3.12,2.968,7.5,7.5,0,0,1,.521,1.03l.124.269c.029.06.046.091.05.089a.366.366,0,0,0-.029-.1l-.1-.279a6.5,6.5,0,0,0-.487-1.056,7.583,7.583,0,0,0-3.119-3.072,8.8,8.8,0,0,0-3.018-.931,9.686,9.686,0,0,0-3.716.226,10.562,10.562,0,0,0-6.735,5.556l.225-.043a7.009,7.009,0,0,0-4.773-1.841,6.844,6.844,0,0,0-5,2.269,7,7,0,0,0-1.472,2.531A10.4,10.4,0,0,1,792,61.552a3.176,3.176,0,0,1-2.51,1.215,12.217,12.217,0,0,0-3.093.377,3.645,3.645,0,0,0-1.79,1.512,7.555,7.555,0,0,0-.825,2.137,21.035,21.035,0,0,1-1.184,4.188,4.065,4.065,0,0,1-1.3,1.576,6.257,6.257,0,0,1-1.863.83,16.365,16.365,0,0,0-3.893,1.266,4.177,4.177,0,0,0-1.445,1.4,5.512,5.512,0,0,0-.7,1.822,9.262,9.262,0,0,0,.1,3.684c.513,2.311,1.348,4.38,1.306,6.379-.009.991-.157,1.937-.2,2.845a6.792,6.792,0,0,0,.265,2.558,3.522,3.522,0,0,0,1.276,1.833,6.366,6.366,0,0,0,1.733.73,3.615,3.615,0,0,1,1.3.65,2.073,2.073,0,0,1,.621.856,1.329,1.329,0,0,1,.006.868" transform="translate(193.49 4362)" fill="#455a64"/>
    <path id="Trazado_208393" data-name="Trazado 208393" d="M759.028,81.116a1.158,1.158,0,0,0,.115-.2c.078-.151.179-.351.309-.6.274-.551.663-1.334,1.159-2.334s1.08-2.274,1.891-3.654a9.662,9.662,0,0,1,3.7-3.833c.886-.461,1.9-.758,2.931-1.194a6.792,6.792,0,0,0,1.5-.842,3.727,3.727,0,0,0,1.131-1.4c.534-1.117.571-2.394,1-3.551a3.069,3.069,0,0,1,1.07-1.465,5.851,5.851,0,0,1,1.757-.778,11.135,11.135,0,0,0,1.932-.7,3.486,3.486,0,0,0,1.508-1.51,15.884,15.884,0,0,0,1-4.193,5.216,5.216,0,0,1,.754-1.979,2.709,2.709,0,0,1,1.741-1.1c1.432-.273,2.957.25,4.55.027a3.826,3.826,0,0,0,2.106-1.07,9.866,9.866,0,0,0,1.383-1.845,20.8,20.8,0,0,1,1.223-1.851,4.2,4.2,0,0,1,1.619-1.338,6.369,6.369,0,0,1,4.1.1,9.569,9.569,0,0,0,4.116.428,11.024,11.024,0,0,0,3.612-1.572,18.628,18.628,0,0,1,3.223-1.718,11.192,11.192,0,0,1,6.442-.1,12.015,12.015,0,0,1,4.728,2.537,13.425,13.425,0,0,1,2.579,3.16,15.176,15.176,0,0,1,1.087,2.353c.1.265.18.474.24.632a1.37,1.37,0,0,0,.093.213,1.162,1.162,0,0,0-.06-.223c-.053-.161-.122-.374-.21-.645a13.983,13.983,0,0,0-1.039-2.394,13.278,13.278,0,0,0-2.568-3.234,12.137,12.137,0,0,0-4.787-2.624,11.4,11.4,0,0,0-6.6.064,18.86,18.86,0,0,0-3.281,1.727,10.763,10.763,0,0,1-3.518,1.523,9.31,9.31,0,0,1-3.985-.435,13.639,13.639,0,0,0-2.106-.4,4.143,4.143,0,0,0-3.942,1.742,20.526,20.526,0,0,0-1.245,1.88A9.621,9.621,0,0,1,788.95,50.5a3.486,3.486,0,0,1-1.926.981c-1.484.22-3.008-.307-4.564-.024a3.046,3.046,0,0,0-1.943,1.236,5.534,5.534,0,0,0-.805,2.1,15.86,15.86,0,0,1-.961,4.111,3.184,3.184,0,0,1-1.375,1.383,11.031,11.031,0,0,1-1.877.686,6.075,6.075,0,0,0-1.842.828,3.356,3.356,0,0,0-1.167,1.6c-.443,1.224-.475,2.487-.976,3.536a4.436,4.436,0,0,1-2.482,2.122c-1,.435-2.029.74-2.938,1.221a9.812,9.812,0,0,0-3.751,3.946c-.8,1.4-1.357,2.674-1.848,3.693-.472,1.011-.842,1.8-1.1,2.36-.117.259-.209.464-.279.618a1.267,1.267,0,0,0-.085.215" transform="translate(193.49 4362)" fill="#455a64"/>
    <path id="Trazado_208394" data-name="Trazado 208394" d="M770.769,69.958a.887.887,0,0,0-.2-.038,1.214,1.214,0,0,0-.579.119,2.326,2.326,0,0,0-1.113,1.9,5.779,5.779,0,0,0,.2,1.626,6.662,6.662,0,0,1,.249,1.883,4.181,4.181,0,0,1-.8,1.991c-.433.647-.98,1.28-1.426,2.051a3.113,3.113,0,0,0-.317,2.727c.33.93.988,1.714,1.3,2.659a4.046,4.046,0,0,1-.347,2.981c-.439.985-1.059,1.936-1.493,3.03a4.876,4.876,0,0,0-.378,1.756,4.415,4.415,0,0,0,.381,1.8,20.959,20.959,0,0,0,2.01,3.129,4.988,4.988,0,0,1,1.088,3.456,16.478,16.478,0,0,1-1.375,3.639,5.642,5.642,0,0,0-.437,1.988,4.487,4.487,0,0,0,.475,1.959,16.591,16.591,0,0,0,2.288,3.109,8.792,8.792,0,0,1,1.844,3.1,26.53,26.53,0,0,0,1.069,3.4,3.938,3.938,0,0,0,1.078,1.392,5.035,5.035,0,0,0,1.522.766,13.411,13.411,0,0,1,1.495.562,5.351,5.351,0,0,1,1.239.875,11.04,11.04,0,0,1,1.738,2.352c.485.816.934,1.619,1.442,2.34a7.439,7.439,0,0,0,3.732,2.846,7.99,7.99,0,0,0,3.538.4,7.089,7.089,0,0,0,2.174-.6,5.3,5.3,0,0,0,.687-.379,8.253,8.253,0,0,1-2.874.847,7.962,7.962,0,0,1-3.463-.446,7.264,7.264,0,0,1-3.6-2.8c-.492-.712-.931-1.511-1.413-2.336a11.268,11.268,0,0,0-1.768-2.42,5.631,5.631,0,0,0-1.3-.931,13.575,13.575,0,0,0-1.524-.582,4.744,4.744,0,0,1-1.433-.725,3.645,3.645,0,0,1-.989-1.291,26.56,26.56,0,0,1-1.042-3.362,9.114,9.114,0,0,0-1.9-3.213,16.467,16.467,0,0,1-2.241-3.045,4.174,4.174,0,0,1-.442-1.817,5.366,5.366,0,0,1,.415-1.868,16.383,16.383,0,0,0,1.393-3.717,4.134,4.134,0,0,0-.232-1.973,7.977,7.977,0,0,0-.912-1.7,21.043,21.043,0,0,1-1.99-3.074,4.123,4.123,0,0,1-.36-1.673A4.578,4.578,0,0,1,766.536,91c.412-1.056,1.026-2.008,1.474-3.022a4.32,4.32,0,0,0,.342-3.185c-.347-1.01-1.01-1.787-1.321-2.659a2.868,2.868,0,0,1,.281-2.527c.422-.746.962-1.385,1.4-2.049a4.358,4.358,0,0,0,.807-2.1,6.74,6.74,0,0,0-.279-1.93,5.729,5.729,0,0,1-.23-1.582,2.279,2.279,0,0,1,1.015-1.854,1.405,1.405,0,0,1,.747-.14" transform="translate(193.49 4362)" fill="#455a64"/>
    <path id="Trazado_208395" data-name="Trazado 208395" d="M883.359,96.734a4.047,4.047,0,0,0,.862-.069,5.942,5.942,0,0,0,2.3-.941,5.788,5.788,0,0,0,2.344-3.156,6.1,6.1,0,0,0-.792-5.139,15.412,15.412,0,0,0-2.129-2.268,7.316,7.316,0,0,1-1.984-2.617,4.789,4.789,0,0,1,.231-3.444c.437-1.156,1.093-2.279,1.514-3.561a10.646,10.646,0,0,0-7.767-13.7l.094.257a5.409,5.409,0,0,0,.983-2.354,6.806,6.806,0,0,0-.114-2.585,7.485,7.485,0,0,0-1.045-2.406,8.874,8.874,0,0,0-1.806-1.941,16.8,16.8,0,0,0-7.086-3.017,25.416,25.416,0,0,0-7.291-.449l.171.156a7.71,7.71,0,0,0-4.236-6.753,7.852,7.852,0,0,0-3.8-.805,12.681,12.681,0,0,0-3.577.875,7.17,7.17,0,0,1-1.68.355,4.382,4.382,0,0,1-1.631-.2,13.369,13.369,0,0,1-2.846-1.45,11.624,11.624,0,0,0-2.719-1.306,9.438,9.438,0,0,0-2.736-.417,9.123,9.123,0,0,0-4.529,1.145,9.414,9.414,0,0,0-2.682,2.243,8.929,8.929,0,0,0-1.175,1.847,4.923,4.923,0,0,0-.284.7c.015.006.1-.238.333-.677a9.565,9.565,0,0,1,1.208-1.8,9.44,9.44,0,0,1,2.675-2.175A9,9,0,0,1,838.621,40a9.249,9.249,0,0,1,2.672.428,11.426,11.426,0,0,1,2.661,1.3,13.484,13.484,0,0,0,2.894,1.491,4.646,4.646,0,0,0,1.724.22,7.441,7.441,0,0,0,1.744-.359,12.5,12.5,0,0,1,3.508-.849,7.569,7.569,0,0,1,3.654.786,7.411,7.411,0,0,1,4.052,6.49l0,.17.17-.014a25.2,25.2,0,0,1,7.2.453,16.528,16.528,0,0,1,6.945,2.954,8.5,8.5,0,0,1,1.739,1.868,7.131,7.131,0,0,1,1,2.3,6.475,6.475,0,0,1,.111,2.458,5.072,5.072,0,0,1-.919,2.21l-.149.2.243.055a10.354,10.354,0,0,1,7.568,13.293c-.4,1.244-1.052,2.369-1.495,3.552a5.036,5.036,0,0,0-.215,3.627,7.506,7.506,0,0,0,2.059,2.7,15.248,15.248,0,0,1,2.115,2.22,5.934,5.934,0,0,1,.807,4.972,5.694,5.694,0,0,1-2.25,3.109,6.094,6.094,0,0,1-2.249.977c-.554.11-.853.109-.851.127" transform="translate(193.49 4362)" fill="#263238"/>
    <path id="Trazado_208396" data-name="Trazado 208396" d="M767.079,62.431a1.013,1.013,0,0,0,.035-.207c.017-.154.04-.355.069-.608.062-.556.149-1.34.259-2.339s.29-2.253.59-3.67a21.017,21.017,0,0,1,1.519-4.656,13.912,13.912,0,0,1,3.543-4.692,10.278,10.278,0,0,1,2.814-1.666,29.815,29.815,0,0,1,3.391-.912,9.825,9.825,0,0,0,3.45-1.456,15.523,15.523,0,0,0,2.816-2.7c.86-1,1.68-2.058,2.63-3.01a11.07,11.07,0,0,1,3.3-2.347,19.592,19.592,0,0,1,7.87-1.527,51.017,51.017,0,0,1,7.54.442,38.684,38.684,0,0,1,12.207,3.645,27.41,27.41,0,0,1,7,4.987c.355.366.683.679.946.971l.642.758.4.462a.891.891,0,0,0,.146.151.984.984,0,0,0-.119-.171l-.376-.484-.621-.781c-.256-.3-.578-.622-.928-1a26.733,26.733,0,0,0-6.98-5.106,38.434,38.434,0,0,0-12.272-3.737,50.629,50.629,0,0,0-7.588-.465,19.845,19.845,0,0,0-8,1.552,11.358,11.358,0,0,0-3.393,2.414c-.97.972-1.792,2.037-2.644,3.032a15.323,15.323,0,0,1-2.75,2.653,9.565,9.565,0,0,1-3.344,1.419,29.582,29.582,0,0,0-3.421.936,10.525,10.525,0,0,0-2.886,1.727,14.094,14.094,0,0,0-3.578,4.8,20.827,20.827,0,0,0-1.488,4.718c-.286,1.43-.433,2.676-.538,3.693s-.161,1.811-.2,2.348c-.016.254-.028.456-.037.612a.981.981,0,0,0,0,.209" transform="translate(193.49 4362)" fill="#263238"/>
    <path id="Trazado_208397" data-name="Trazado 208397" d="M849.152,144.28c-.946-.608-13.509-3.221-13.509-3.221l-30.295.789-10.85,2s-2.01,33.662-1.709,34.27,14.313,12.158,14.9,12.766,29.537-9.119,29.537-9.119l19.089-34.245Z" transform="translate(193.49 4362)" fill="#ffc09d"/>
    <path id="Trazado_208398" data-name="Trazado 208398" d="M841.539,142.329c1.52,0,25.876,5.1,32.753,10.937C881.581,159.454,899.51,185,899.51,185l-33.55,20.82-1.98,31.055s10.338,40.246,12.161,54.532c0,0-77.317,61.607-118.828-1.921,0,0,10.63-30.8,14.97-40.936.851-1.988-8.224-33.038-8.181-41.219.07-13.156,3.825-39.216,3.825-39.216l13.388-22.735,19.434-3.047s-4.564,13.925,11.324,16.531c16.3,2.672,29.466-16.531,29.466-16.531" transform="translate(193.49 4362)" fill="#4888be"/>
    <path id="Trazado_208399" data-name="Trazado 208399" d="M873.278,275.946a5.92,5.92,0,0,1-1.045.541l-3.07,1.4c-2.686,1.163-6.615,2.763-11.577,4.452a145.85,145.85,0,0,1-17.759,4.828,123.937,123.937,0,0,1-22.376,2.7,104.99,104.99,0,0,1-40.259-6.394c-2.422-1.006-4.59-1.975-6.5-2.8a21.054,21.054,0,0,1-2.6-1.279l-2.14-1.172-2.943-1.645a5.775,5.775,0,0,1-.995-.625,6.064,6.064,0,0,1,1.083.47l3.015,1.5,2.166,1.1a21.726,21.726,0,0,0,2.621,1.208l6.514,2.664a108.186,108.186,0,0,0,40.015,6.1,127.523,127.523,0,0,0,22.241-2.613,155.648,155.648,0,0,0,17.725-4.624c4.968-1.606,8.92-3.113,11.642-4.177l3.129-1.241a5.893,5.893,0,0,1,1.117-.378" transform="translate(193.49 4362)" fill="#fff"/>
    <path id="Trazado_208400" data-name="Trazado 208400" d="M867.185,176.005a11.234,11.234,0,0,1,.11,2.272c.014,1.461,0,3.575-.053,6.186-.1,5.223-.344,12.436-.786,20.394s-1,15.158-1.481,20.359c-.241,2.6-.459,4.7-.635,6.154a11.128,11.128,0,0,1-.361,2.245,11.393,11.393,0,0,1,.019-2.274c.094-1.631.213-3.7.355-6.173.323-5.387.75-12.5,1.222-20.36.4-7.864.767-14.977,1.044-20.366.133-2.473.244-4.543.332-6.175a11.243,11.243,0,0,1,.234-2.262" transform="translate(193.49 4362)" fill="#263238"/>
    <path id="Trazado_208401" data-name="Trazado 208401" d="M772.96,169.09c.141.065-1,2.635-2.473,6.92a110.268,110.268,0,0,0-4.267,17.145,91.25,91.25,0,0,0-1.257,17.6c.17,4.524.827,7.265.673,7.3a8.521,8.521,0,0,1-.557-1.9,43.144,43.144,0,0,1-.739-5.359,78.582,78.582,0,0,1,1.009-17.782A92.226,92.226,0,0,1,769.9,175.8c.833-2.123,1.538-3.829,2.117-4.967a8.535,8.535,0,0,1,.944-1.742" transform="translate(193.49 4362)" fill="#263238"/>
    <path id="Trazado_208402" data-name="Trazado 208402" d="M866.4,198.837a4.421,4.421,0,0,1-1.019.046l-2.915-.039-10.714-.319-35.334-1.315c-13.8-.5-26.3-.841-35.343-1.035l-10.713-.231-2.914-.092a4.478,4.478,0,0,1-1.015-.092,4.4,4.4,0,0,1,1.016-.086l2.914-.074c2.531-.05,6.194-.066,10.721-.049,9.052.034,21.559.277,35.365.777s26.291,1.106,35.329,1.574l10.7.6,2.908.205a4.4,4.4,0,0,1,1.012.132" transform="translate(193.49 4362)" fill="#fff"/>
    <path id="Trazado_208403" data-name="Trazado 208403" d="M891.23,174.53a19.536,19.536,0,0,1-3.478,2.066l-8.556,4.63-8.52,4.7a19.475,19.475,0,0,1-3.618,1.81,17.481,17.481,0,0,1,3.3-2.347c2.106-1.341,5.071-3.108,8.415-4.936s6.433-3.366,8.7-4.413a17.485,17.485,0,0,1,3.758-1.509" transform="translate(193.49 4362)" fill="#fff"/>
    <path id="Trazado_208404" data-name="Trazado 208404" d="M863.847,239.678c0,.244-20.845.441-46.553.441s-46.558-.2-46.558-.441,20.841-.441,46.558-.441,46.553.2,46.553.441" transform="translate(193.49 4362)" fill="#fff"/>
    <path id="Trazado_208405" data-name="Trazado 208405" d="M849.057,146.613a2.8,2.8,0,0,1-.335.735c-.238.472-.629,1.145-1.155,2a43.751,43.751,0,0,1-5.2,6.726,39.833,39.833,0,0,1-9.993,7.71,33.669,33.669,0,0,1-14.9,4.023,28.648,28.648,0,0,1-15-3.578,26.3,26.3,0,0,1-9.111-8.719,23.049,23.049,0,0,1-3.152-7.9,16.423,16.423,0,0,1-.272-2.3,2.723,2.723,0,0,1,.005-.808c.1-.009.146,1.1.6,3.036a24.435,24.435,0,0,0,3.341,7.639,26.272,26.272,0,0,0,8.986,8.349,28.3,28.3,0,0,0,14.576,3.4,33.509,33.509,0,0,0,14.547-3.859,40.728,40.728,0,0,0,9.925-7.425,50.68,50.68,0,0,0,5.363-6.483c1.14-1.635,1.709-2.585,1.776-2.546" transform="translate(193.49 4362)" fill="#fff"/>
    <path id="Trazado_208406" data-name="Trazado 208406" d="M840.505,258.452s10.722-2.894,11.8-2.285S861.391,261,861.391,261a41.178,41.178,0,0,0,3.779,4.094s2.748,2.608,4.645,2.694a8.387,8.387,0,0,0,3.013-.324l6.329,12.966s-3.315,4.276-5.641,4.235-15.25-5.474-15.25-5.474l-3.122-.68s-11.722,1.694-12.68-1.832l-.109-1,11.516-2.254,4.382.255-7.763-2s-10.976.534-12.011.355-2.354-1.634-2.015-2.542l2.265-.533s-2.661-1.447-2.742-3.036l10.146-2.747s-6.546-2.439-5.628-4.715" transform="translate(193.49 4362)" fill="#ffc09d"/>
    <path id="Trazado_208407" data-name="Trazado 208407" d="M837.525,268.912a4.28,4.28,0,0,0,.932-.233c.59-.173,1.448-.409,2.513-.686,2.13-.553,5.09-1.254,8.371-1.982a10.751,10.751,0,0,1,1.191-.23,3.63,3.63,0,0,1,1.128.079c.73.2,1.474.456,2.156.684,1.373.469,2.594.938,3.6,1.373a25.838,25.838,0,0,1,2.331,1.137,5.3,5.3,0,0,0,.841.459,2.875,2.875,0,0,0-.742-.617,17.452,17.452,0,0,0-2.289-1.287c-1-.479-2.22-.985-3.6-1.481-.7-.246-1.4-.5-2.195-.725a4.079,4.079,0,0,0-1.275-.1,10.556,10.556,0,0,0-1.255.238c-3.287.729-6.243,1.484-8.358,2.123-1.058.32-1.906.606-2.482.835a3.336,3.336,0,0,0-.872.41" transform="translate(193.49 4362)" fill="#ff9b6c"/>
    <path id="Trazado_208408" data-name="Trazado 208408" d="M845.881,263.662c.039.071.811-.373,2.162-.787a12.164,12.164,0,0,1,10.495,1.549c1.174.787,1.784,1.436,1.842,1.378a5.817,5.817,0,0,0-1.645-1.654,11.378,11.378,0,0,0-10.8-1.594,5.826,5.826,0,0,0-2.054,1.108" transform="translate(193.49 4362)" fill="#ff9b6c"/>
    <path id="Trazado_208409" data-name="Trazado 208409" d="M753.989,118.036,727.4,141.129,773.241,157.1l-16.5,25.6S707.987,164.5,700.219,161.14c-7.174-3.1-12.827-11.679-7.653-21.488,6.3-11.941,49.725-33.355,49.725-33.355Z" transform="translate(193.49 4362)" fill="#ffc09d"/>
    <path id="Trazado_208410" data-name="Trazado 208410" d="M709.8,151.034c-.066-.233,4.528-1.344,9.547-4.163,5.044-2.777,8.41-6.1,8.574-5.915a9.784,9.784,0,0,1-2.11,2.262,34.291,34.291,0,0,1-12.976,7.217,9.791,9.791,0,0,1-3.035.6" transform="translate(193.49 4362)" fill="#ff9b6c"/>
    <path id="Trazado_208411" data-name="Trazado 208411" d="M748.031,142.692l-11.118,37.569s20.4,12.257,60.325,13.125l-15.748-41.08Z" transform="translate(193.49 4362)" fill="#4888be"/>
    <path id="Trazado_208412" data-name="Trazado 208412" d="M763.378,163.129c-.252-.087-2.17,5.305-5.367,11.566-3.171,6.277-6.392,11.006-6.173,11.158a13.848,13.848,0,0,0,2.341-2.946,70.909,70.909,0,0,0,8.2-16.149,13.843,13.843,0,0,0,1-3.629" transform="translate(193.49 4362)" fill="#fff"/>
    <path id="Trazado_208413" data-name="Trazado 208413" d="M810.733,110.414c0,.391-2.667.708-5.956.708s-5.956-.317-5.956-.708,2.666-.708,5.956-.708,5.956.317,5.956.708" transform="translate(193.49 4362)" fill="#263238"/>
  </g>
</svg>
