<svg xmlns="http://www.w3.org/2000/svg" xmlns:xlink="http://www.w3.org/1999/xlink" width="297.038" height="279.257" viewBox="0 0 297.038 279.257">
  <defs>
    <clipPath id="clip-path">
      <rect id="Rectángulo_291550" data-name="Rectángulo 291550" width="30.778" height="16.686" fill="none"/>
    </clipPath>
    <clipPath id="clip-path-2">
      <rect id="Rectángulo_291551" data-name="Rectángulo 291551" width="28.231" height="12.844" fill="none"/>
    </clipPath>
    <clipPath id="clip-path-3">
      <rect id="Rectángulo_291552" data-name="Rectángulo 291552" width="46.041" height="79.635" fill="none"/>
    </clipPath>
    <clipPath id="clip-path-4">
      <rect id="Rectángulo_291553" data-name="Rectángulo 291553" width="16.272" height="26.642" fill="none"/>
    </clipPath>
  </defs>
  <g id="Grupo_872334" data-name="Grupo 872334" transform="translate(7461 7359.958)">
    <path id="Trazado_264824" data-name="Trazado 264824" d="M259.086,49.852l-1.907-29.765,5.3-7.7L272.954.019s2.18-.506,1.187,3.746-6.619,11.917-6.619,11.917l6.387-5.177,3.451-.143,5.572,10.295s-3.545,1.689-5.476.257l-2.445,3.812,3.661-.364,4.493,1.9-2.112,5.468L278.736,37.9s-.212,12.553-2.688,14.146l-2.476,1.593Z" transform="translate(-7447.127 -7359.959)" fill="#ffbe9d"/>
    <path id="Trazado_264825" data-name="Trazado 264825" d="M141.524,99.254s27.573-4.964,29.667-4.7,27.874,10.65,30.343,11.589,41.956,6.94,41.956,6.94l22.226-66.9,18.044.461S273.027,113.59,269.6,123.107s-3.858,15.786-7.6,17.678-14.4,4.417-24.5,3.794-51.778-9.311-51.778-9.311Z" transform="translate(-7453.366 -7357.468)" fill="#ffbe9d"/>
    <path id="Trazado_264826" data-name="Trazado 264826" d="M280.507,16.324c.025,0,.036.246-.181.608a2.231,2.231,0,0,1-1.454.975,3.2,3.2,0,0,1-2.525-.7,8.076,8.076,0,0,1-1.97-2.524l.419.069c-.2.185-.414.388-.625.6-1.687,1.733-3.151,3.395-4.28,4.528a8.638,8.638,0,0,1-1.953,1.712,20.7,20.7,0,0,1,1.667-1.975c1.054-1.2,2.462-2.891,4.177-4.651.215-.217.435-.427.65-.622l.253-.23.165.3a8.115,8.115,0,0,0,1.8,2.409,2.9,2.9,0,0,0,2.161.723,2.177,2.177,0,0,0,1.354-.728c.242-.288.3-.5.345-.491" transform="translate(-7446.547 -7359.198)" fill="#eb996e"/>
    <path id="Trazado_264827" data-name="Trazado 264827" d="M275.668,27.077c-.026-.086.57-.35,1.521-.69l.446-.159-.182.463a6.667,6.667,0,0,0-.574,2.248,2.236,2.236,0,0,0,1.207,2.14c.613.3,1.071.109,1.1.195.052.038-.424.425-1.242.165a2.366,2.366,0,0,1-1.13-.849,2.653,2.653,0,0,1-.481-1.662,5.636,5.636,0,0,1,.724-2.422l.262.3a4.363,4.363,0,0,1-1.648.27" transform="translate(-7446.13 -7358.544)" fill="#eb996e"/>
    <path id="Trazado_264828" data-name="Trazado 264828" d="M270.175,45.87c-.053-.021.255-.7.541-1.992a13.254,13.254,0,0,0,0-5.543,12.759,12.759,0,0,0-1.329-3.587,14.164,14.164,0,0,0-2.746-3.426,13.964,13.964,0,0,1-3.161-3.893c-.755-1.626-.853-3.469-1.543-5.079-.6-1.385-1.837-2.632-3.242-2.556l.254-.291c.452,6.1.851,11.468,1.142,15.413.117,1.872.212,3.4.283,4.55a10.807,10.807,0,0,1,.037,1.654,10.587,10.587,0,0,1-.228-1.639c-.113-1.144-.262-2.67-.446-4.536-.339-3.942-.8-9.305-1.328-15.4l-.023-.274.278-.017a3.3,3.3,0,0,1,2.309.855,5.687,5.687,0,0,1,1.464,2.017c.739,1.753.827,3.571,1.53,5.077A13.678,13.678,0,0,0,267,30.963a14.4,14.4,0,0,1,2.789,3.569,13.133,13.133,0,0,1,1.136,9.4,9.341,9.341,0,0,1-.5,1.462,2,2,0,0,1-.246.481" transform="translate(-7447.062 -7358.92)" fill="#eb996e"/>
    <path id="Trazado_264829" data-name="Trazado 264829" d="M276.628,19.308a8.81,8.81,0,0,1-1.591,2.638A8.831,8.831,0,0,1,273,24.261a8.816,8.816,0,0,1,1.592-2.638,8.817,8.817,0,0,1,2.034-2.314" transform="translate(-7446.274 -7358.918)" fill="#eb996e"/>
    <path id="Trazado_264832" data-name="Trazado 264832" d="M105.72,106.761c1.057-8.417-7.118-28.123-9.544-36.252a16.281,16.281,0,0,1-12.068,3.139q-1.347,10.788-2.693,21.574c-.26,2.083-2.646,15.156-4.122,16.65" transform="translate(-7456.831 -7356.156)" fill="#263238"/>
    <path id="Trazado_264833" data-name="Trazado 264833" d="M83.061,50.226c-.126-.968-2-3.974-.725-8.986,1.619-6.346,3.187-12.37,7.556-17.2S97.2,15.728,102.026,13.33a22.46,22.46,0,0,1,8.571-2.3,7.318,7.318,0,0,1,2.067-3.459,26.5,26.5,0,0,0-19.922,5.082c-8.723,6.44-16.632,16.524-18.873,28.785a30.034,30.034,0,0,0,2.062,16.931Z" transform="translate(-7457.039 -7359.567)" fill="#e8505b"/>
    <path id="Trazado_264889" data-name="Trazado 264889" d="M91.984,107.411l10.108-2.723,35.956-6.641,17.782,5.014s-17.754,18.788-25.362,20.224c-16.263,3.071-38.485-15.873-38.485-15.873" transform="translate(-7456.038 -7354.67)" fill="#ffbe9d"/>
    <path id="Trazado_264890" data-name="Trazado 264890" d="M176.455,90.814l-31.042,5.618s-5.663,38.052-49.079,11.18c0,0-20.537-.939-27.965,9.251C62.961,124.282,48.7,161.733,48.7,161.733l28.725,23.936,3.595,18.5s-15.807,32.3-15.047,42.6c0,0,39.339,31.065,66.494,27.273S173.739,257,173.739,257l12.119-123.2,22.391,6.353,3.245-36.548Z" transform="translate(-7458.373 -7355.061)" fill="#41846f"/>
    <path id="Trazado_264891" data-name="Trazado 264891" d="M103.576,215.187a4.734,4.734,0,0,1-1.11-.353c-.7-.256-1.7-.675-2.92-1.233a61.732,61.732,0,0,1-17.152-11.838c-.954-.94-1.7-1.726-2.189-2.293a4.815,4.815,0,0,1-.724-.912c.065-.061,1.215,1.126,3.18,2.923a74.845,74.845,0,0,0,17.055,11.77c2.377,1.2,3.894,1.854,3.861,1.936" transform="translate(-7456.713 -7349.249)" fill="#263238"/>
    <path id="Trazado_264892" data-name="Trazado 264892" d="M123.428,176.455a5.856,5.856,0,0,1-.78,1.171,20.627,20.627,0,0,1-2.621,2.808,23.022,23.022,0,0,1-23.8,4.354,20.589,20.589,0,0,1-3.444-1.7,5.8,5.8,0,0,1-1.144-.819,44.6,44.6,0,0,0,4.723,2.154,23.6,23.6,0,0,0,23.414-4.283,44.678,44.678,0,0,0,3.655-3.686" transform="translate(-7456.057 -7350.441)" fill="#263238"/>
    <g id="Grupo_871039" data-name="Grupo 871039" transform="translate(-7377.356 -7150.894)" opacity="0.3">
      <g id="Grupo_871038" data-name="Grupo 871038" transform="translate(0 0)">
        <g id="Grupo_871037" data-name="Grupo 871037" clip-path="url(#clip-path)">
          <path id="Trazado_264893" data-name="Trazado 264893" d="M79.363,198.365c2.021,3.667,5.524,5.769,8.933,8.2,5.12,3.653,10.494,7.412,16.712,8.354a6.678,6.678,0,0,0,3.067-.095,2.9,2.9,0,0,0,2.035-2.13,3.094,3.094,0,0,0-2-3.083,10.724,10.724,0,0,0-3.887-.594c-9.531-.434-18.31-5.757-24.858-10.652" transform="translate(-79.362 -198.365)"/>
        </g>
      </g>
    </g>
    <g id="Grupo_871042" data-name="Grupo 871042" transform="translate(-7362.604 -7171.3)" opacity="0.3">
      <g id="Grupo_871041" data-name="Grupo 871041" transform="translate(0 0)">
        <g id="Grupo_871040" data-name="Grupo 871040" clip-path="url(#clip-path-2)">
          <path id="Trazado_264894" data-name="Trazado 264894" d="M93.359,183.475c3.26,2.881,6.728,5.662,10.794,7.21s8.864,1.713,12.606-.506,5.951-7.172,4.246-11.176c-7.624,6.6-17.716,7.536-27.295,4.383" transform="translate(-93.36 -179.003)"/>
        </g>
      </g>
    </g>
    <path id="Trazado_264895" data-name="Trazado 264895" d="M70.67,152.536c.15-.026,1.586,7.31,3.209,16.386s2.817,16.457,2.669,16.484-1.586-7.309-3.209-16.387-2.818-16.456-2.669-16.483" transform="translate(-7457.188 -7351.731)" fill="#263238"/>
    <path id="Trazado_264896" data-name="Trazado 264896" d="M130.765,170.812a9.272,9.272,0,0,1-2.812,1.438,9.28,9.28,0,0,1-3.018.93,9.255,9.255,0,0,1,2.812-1.438,9.279,9.279,0,0,1,3.018-.93" transform="translate(-7454.261 -7350.747)" fill="#263238"/>
    <g id="Grupo_871045" data-name="Grupo 871045" transform="translate(-7325.071 -7240.699)" opacity="0.3">
      <g id="Grupo_871044" data-name="Grupo 871044" transform="translate(0 0)">
        <g id="Grupo_871043" data-name="Grupo 871043" clip-path="url(#clip-path-3)">
          <path id="Trazado_264897" data-name="Trazado 264897" d="M130.872,113.156c-1.094,7.051-2.19,14.162-1.831,21.288s2.288,14.361,6.683,19.983c3.44,4.4,8.169,7.568,12.455,11.15s8.346,7.92,9.613,13.36c.806,3.459.411,7.066.4,10.617,0,1.416.53,3.309,1.946,3.236a2.6,2.6,0,0,0,1.313-.591,32.324,32.324,0,0,0,7.99-44.5c-7.615-11.207-21.988-17.33-27.075-29.888" transform="translate(-128.972 -113.156)"/>
        </g>
      </g>
    </g>
    <path id="Trazado_264898" data-name="Trazado 264898" d="M180.877,111.512c.151.016-.282,5.455-.969,12.148s-1.364,12.108-1.515,12.093.284-5.454.969-12.149,1.364-12.108,1.515-12.092" transform="translate(-7451.379 -7353.944)" fill="#263238"/>
    <path id="Trazado_264899" data-name="Trazado 264899" d="M184.837,132.834a6.267,6.267,0,0,1-.3.787,7.628,7.628,0,0,1-1.408,2.035,13.034,13.034,0,0,1-8.64,3.577c-4.123.394-9.237-.65-14.947.786A29.788,29.788,0,0,0,136.6,172.742a21.67,21.67,0,0,0,1.66,6.309,11.668,11.668,0,0,0,4.153,5.128,9.5,9.5,0,0,0,6.582,1.3,15.041,15.041,0,0,0,6.5-2.694,20.048,20.048,0,0,0,7.6-12.3,20.507,20.507,0,0,0-2.43-14.866,20.051,20.051,0,0,0-5.389-5.734,22.509,22.509,0,0,0-7.27-3.378,20.129,20.129,0,0,0-12.1.526,26.242,26.242,0,0,0-3.757,1.78c-4.849,2.809-8.753,6.85-12.724,10.615-3.929,3.81-8.249,7.3-13.248,9.318a19.035,19.035,0,0,1-7.805,1.478,15.054,15.054,0,0,1-7.437-2.307,20.161,20.161,0,0,1-8.53-12.121c-2.457-9.586,1.493-19.981,9.019-24.678a10.7,10.7,0,0,1,6.217-1.64,8.422,8.422,0,0,1,5.56,2.692,6.157,6.157,0,0,1,1.38,5.706,8.6,8.6,0,0,1-3.205,4.7,12.934,12.934,0,0,1-4.991,2.161,20.994,20.994,0,0,1-2.588.4c-.858.071-1.707.072-2.542.11a28.677,28.677,0,0,1-9.267-1.571,33.131,33.131,0,0,1-7.345-3.608,33.543,33.543,0,0,1-5.264-4.431,27.428,27.428,0,0,1-5.365-7.82,19.252,19.252,0,0,1-.926-2.293c-.191-.524-.274-.8-.274-.8s.119.26.327.777a21.88,21.88,0,0,0,.974,2.265,27.852,27.852,0,0,0,5.418,7.72,33.694,33.694,0,0,0,5.256,4.36,32.936,32.936,0,0,0,7.3,3.535,28.422,28.422,0,0,0,9.168,1.513c.824-.041,1.663-.045,2.508-.118a20.951,20.951,0,0,0,2.543-.4,12.565,12.565,0,0,0,4.84-2.111,8.2,8.2,0,0,0,3.042-4.489,5.742,5.742,0,0,0-1.3-5.329,8,8,0,0,0-5.278-2.534,10.255,10.255,0,0,0-5.95,1.592c-7.306,4.571-11.19,14.794-8.761,24.161a19.657,19.657,0,0,0,8.317,11.8A14.523,14.523,0,0,0,98.4,169.7a18.489,18.489,0,0,0,7.584-1.446c4.9-1.975,9.161-5.416,13.072-9.215,3.962-3.756,7.886-7.831,12.828-10.7a26.751,26.751,0,0,1,3.842-1.818,20.454,20.454,0,0,1,4.1-1.033,20.747,20.747,0,0,1,8.318.492,23.058,23.058,0,0,1,7.448,3.465,20.587,20.587,0,0,1,5.531,5.895,21.03,21.03,0,0,1,2.485,15.253,20.543,20.543,0,0,1-7.819,12.6,15.546,15.546,0,0,1-6.727,2.773,9.987,9.987,0,0,1-6.912-1.385,12.13,12.13,0,0,1-4.32-5.342,22.067,22.067,0,0,1-1.683-6.446,30.121,30.121,0,0,1,23.318-33.076c5.787-1.422,10.923-.339,15-.7a13.017,13.017,0,0,0,8.577-3.441,8.415,8.415,0,0,0,1.789-2.746" transform="translate(-7457.611 -7353.231)" fill="#fafafa"/>
    <path id="Trazado_264900" data-name="Trazado 264900" d="M189.58,98.155a6.432,6.432,0,0,1-1.135.97,21.1,21.1,0,0,1-3.49,2.1,23.347,23.347,0,0,1-25.348-3.2,21.188,21.188,0,0,1-2.86-2.9,6.435,6.435,0,0,1-.858-1.222,41.2,41.2,0,0,0,3.964,3.823,23.825,23.825,0,0,0,24.938,3.144,41.4,41.4,0,0,0,4.789-2.719" transform="translate(-7452.591 -7354.894)" fill="#fafafa"/>
    <path id="Trazado_264901" data-name="Trazado 264901" d="M203.193,116.827c.038.1-1.25.569-3.114,1.714A22.881,22.881,0,0,0,197,120.823a25.32,25.32,0,0,0-3.173,3.44,25,25,0,0,0-2.405,4.014,22.7,22.7,0,0,0-1.325,3.593c-.572,2.111-.661,3.48-.765,3.471a3.232,3.232,0,0,1,0-.964,7.881,7.881,0,0,1,.12-1.126,13.366,13.366,0,0,1,.273-1.476,20.337,20.337,0,0,1,1.239-3.709,21.534,21.534,0,0,1,5.71-7.625,20.12,20.12,0,0,1,3.207-2.234,13.4,13.4,0,0,1,1.338-.679,8.086,8.086,0,0,1,1.047-.431,3.262,3.262,0,0,1,.927-.27" transform="translate(-7450.789 -7353.658)" fill="#fafafa"/>
    <path id="Trazado_264902" data-name="Trazado 264902" d="M61.235,170.24c-.092.006-.2-1.344-.587-3.486a40.711,40.711,0,0,0-6.33-15.626c-1.215-1.806-2.075-2.852-2.006-2.911.03-.025.271.213.686.666a24.08,24.08,0,0,1,1.637,2.023,34.961,34.961,0,0,1,6.4,15.787,24.066,24.066,0,0,1,.232,2.592,3.2,3.2,0,0,1-.028.956" transform="translate(-7458.178 -7351.964)" fill="#fafafa"/>
    <path id="Trazado_264903" data-name="Trazado 264903" d="M173.535,209.768c-.032.034-.371-.392-1.2-.983a10.382,10.382,0,0,0-4.036-1.725,14.6,14.6,0,0,0-6.911.377,25.933,25.933,0,0,0-8.076,4.467c-2.753,2.076-5.514,4.7-8.9,7.015a24.7,24.7,0,0,1-5.627,2.942,16.055,16.055,0,0,1-6.683.864,16.8,16.8,0,0,1-12.321-6.91,17.006,17.006,0,0,1-2.067-14.974,12.162,12.162,0,0,1,4.618-6.361,6.471,6.471,0,0,1,3.778-1.093,5.3,5.3,0,0,1,3.491,1.687,4.424,4.424,0,0,1,1.317,3.574,4.09,4.09,0,0,1-2.272,2.961c-2.263,1.153-4.7,1.08-6.959,1.351a69.192,69.192,0,0,1-24.133-2.571A68.473,68.473,0,0,1,82.468,194c-1.665-.992-2.945-1.783-3.774-2.38-.4-.276-.717-.494-.954-.659a2.186,2.186,0,0,1-.315-.24,2.152,2.152,0,0,1,.347.194l.982.613c.848.565,2.143,1.325,3.819,2.286a70.78,70.78,0,0,0,15.095,6.2,69.545,69.545,0,0,0,23.99,2.441c2.243-.269,4.685-.236,6.748-1.309a3.569,3.569,0,0,0,1.994-2.574,3.9,3.9,0,0,0-1.181-3.128,4.759,4.759,0,0,0-3.13-1.517,5.942,5.942,0,0,0-3.455,1.012,11.631,11.631,0,0,0-4.393,6.078,16.489,16.489,0,0,0,1.988,14.489,16.312,16.312,0,0,0,11.922,6.714,15.609,15.609,0,0,0,6.482-.816,24.32,24.32,0,0,0,5.531-2.864c3.353-2.27,6.131-4.874,8.918-6.948a26.056,26.056,0,0,1,8.224-4.452,14.681,14.681,0,0,1,7.041-.291,10.168,10.168,0,0,1,4.058,1.844,6.92,6.92,0,0,1,.865.779,2.06,2.06,0,0,1,.265.294" transform="translate(-7456.824 -7349.671)" fill="#fafafa"/>
    <path id="Trazado_264904" data-name="Trazado 264904" d="M94.374,238.293a8.676,8.676,0,0,1-.418-1.51c-.248-.975-.631-2.378-1.2-4.079a45.774,45.774,0,0,0-6.507-12.335,43.777,43.777,0,0,0-5.114-5.75,27.946,27.946,0,0,0-4.928-3.869,11.2,11.2,0,0,0-3.916-1.477c-.984-.149-1.546-.1-1.548-.154a1.162,1.162,0,0,1,.4-.07,6.008,6.008,0,0,1,1.172.012,10.534,10.534,0,0,1,4.08,1.35,26.652,26.652,0,0,1,5.083,3.837,41.758,41.758,0,0,1,5.209,5.792,42.686,42.686,0,0,1,6.435,12.542,38.366,38.366,0,0,1,1.044,4.154,8.613,8.613,0,0,1,.21,1.557" transform="translate(-7457.185 -7348.684)" fill="#fafafa"/>
    <path id="Trazado_264905" data-name="Trazado 264905" d="M167.011,233.432c-.007.114-2.146-.11-5.583.112a42.779,42.779,0,0,0-5.978.832,42.474,42.474,0,0,0-13.644,5.5,42.878,42.878,0,0,0-4.884,3.548c-2.63,2.224-4.014,3.867-4.1,3.79a7.888,7.888,0,0,1,.941-1.176,16,16,0,0,1,1.2-1.294c.493-.482,1.03-1.058,1.7-1.614a38.715,38.715,0,0,1,4.868-3.681,40.351,40.351,0,0,1,13.811-5.567,38.639,38.639,0,0,1,6.06-.723c.866-.065,1.654-.022,2.343-.017a15.9,15.9,0,0,1,1.765.1,7.854,7.854,0,0,1,1.494.195" transform="translate(-7453.835 -7347.384)" fill="#fafafa"/>
    <path id="Trazado_264906" data-name="Trazado 264906" d="M26.169,99.959s8.3,7.075,9.505,12.638c.533,2.462,4.684,21.244,4.684,21.244l-18.916,6.265a11.466,11.466,0,0,0-4.624-6.885c-3.749-2.356-13.624-9.251-13.624-9.251L.142,99.9l8.366-7.424.174-12.335a4.154,4.154,0,0,1,3.807,3.724c.606,3.627,4.29,9.866,4.29,9.866Z" transform="translate(-7460.992 -7355.636)" fill="#ffbe9d"/>
    <path id="Trazado_264907" data-name="Trazado 264907" d="M20.352,137.358s9.722,72.683,12.273,81.215c2.654,8.874,9.66,14.72,17.309,14.082a18.539,18.539,0,0,0,15.742-12.122c2.152-5.7,12.035-38.048,12.035-38.048L54.138,162.6l-5.657,16.126-9.214-47.633Z" transform="translate(-7459.902 -7352.888)" fill="#ffbe9d"/>
    <path id="Trazado_264908" data-name="Trazado 264908" d="M27.653,120.471a11.243,11.243,0,0,1-3.445-5.136,16.428,16.428,0,0,1-.96-4.3,4.91,4.91,0,0,1,.037-1.822c.184-.018.263,2.775,1.438,5.929a29.883,29.883,0,0,0,2.931,5.328" transform="translate(-7459.749 -7354.068)" fill="#eb996e"/>
    <path id="Trazado_264909" data-name="Trazado 264909" d="M10.318,78.548,7.762,114.4l14.2,9.472,1.336-1L25.594,89.1,12.825,78.443Z" transform="translate(-7460.582 -7355.728)" fill="#263238"/>
    <path id="Trazado_264910" data-name="Trazado 264910" d="M13.98,82.633l-.707,12.139,8.752,6.623.767-11.363Z" transform="translate(-7460.284 -7355.501)" fill="#fff"/>
    <path id="Trazado_264911" data-name="Trazado 264911" d="M11.878,104.03c-.017-.007.014-.119.094-.327a4.083,4.083,0,0,1,.5-.837,5.464,5.464,0,0,1,3.029-1.849,5.214,5.214,0,0,1,5.01,1.372,5.062,5.062,0,0,1,1.543,2.783,6.131,6.131,0,0,1-.211,3.407,4.731,4.731,0,0,1-2.3,2.542,5.513,5.513,0,0,1-3.153.455,5.526,5.526,0,0,1-4.4-2.809,6.453,6.453,0,0,1-.558-3.514,2.249,2.249,0,0,1,.446-1.226,8.416,8.416,0,0,0-.233,1.247,6.674,6.674,0,0,0,.691,3.318,5.169,5.169,0,0,0,4.11,2.481,5.049,5.049,0,0,0,2.852-.434,4.226,4.226,0,0,0,2.029-2.256,5.667,5.667,0,0,0,.2-3.1,4.567,4.567,0,0,0-1.365-2.525,4.836,4.836,0,0,0-4.571-1.361A5.507,5.507,0,0,0,12.633,103c-.54.61-.709,1.05-.755,1.027" transform="translate(-7460.386 -7354.521)" fill="#455a64"/>
    <path id="Trazado_264912" data-name="Trazado 264912" d="M23.18,122.876a6.2,6.2,0,0,1-1-.606l-2.7-1.825-9.347-6.5-.116-.081.009-.143c.2-3.011.419-6.3.649-9.759.484-7.052.953-13.434,1.318-18.051.191-2.243.347-4.089.463-5.465.061-.592.112-1.081.154-1.484a1.887,1.887,0,0,1,.091-.515,1.881,1.881,0,0,1,.02.523c-.014.4-.031.9-.051,1.491-.073,1.377-.171,3.228-.289,5.477-.268,4.624-.676,11.008-1.159,18.06l-.69,9.757-.106-.224,9.233,6.664,2.617,1.942a6.264,6.264,0,0,1,.9.741" transform="translate(-7460.459 -7355.728)" fill="#455a64"/>
    <path id="Trazado_264913" data-name="Trazado 264913" d="M8.515,91.866l10.762-.447s.438,4.145-1.989,4.831l-8.576.355,5.452,1.411,8.041,6.8s-2.116,2.544-4.008,2.037-5.638-3.391-5.638-3.391l-4.592,2.062,6.7.891,6.075,8.286s-3.1,1.3-4.67.193a16.123,16.123,0,0,1-3.19-3.61l-3.945.748-.265,10.536-5.473.793L.019,107.856l1.117-2.737L.148,99.29Z" transform="translate(-7460.999 -7355.028)" fill="#ffbe9d"/>
    <path id="Trazado_264914" data-name="Trazado 264914" d="M14.165,97.752a29.313,29.313,0,0,1-4.516-.926l.232-.069-3.267,3.619c-1.77,1.93-3.395,3.656-4.591,4.886A13.971,13.971,0,0,1,0,107.177,14.034,14.034,0,0,1,1.737,105c1.124-1.3,2.7-3.065,4.473-4.995l3.324-3.565.1-.105.134.037a29.574,29.574,0,0,1,4.4,1.381" transform="translate(-7461 -7354.763)" fill="#eb996e"/>
    <path id="Trazado_264915" data-name="Trazado 264915" d="M1.926,111.117c-.065-.03.09-.553.488-1.334a20.993,20.993,0,0,1,1.84-2.859,15,15,0,0,1,1.181-1.474,2.673,2.673,0,0,1,1.4-.815,1.656,1.656,0,0,1,1.092.141c.23.134.3.265.281.289a2.291,2.291,0,0,0-1.283-.053c-.789.189-1.459,1.166-2.235,2.239-1.608,2.082-2.649,3.914-2.769,3.867" transform="translate(-7460.897 -7354.317)" fill="#eb996e"/>
    <path id="Trazado_264916" data-name="Trazado 264916" d="M47.168,195.149a12.392,12.392,0,0,1-.268-2.758c-.078-1.709-.1-4.071-.063-6.675.036-2.5.07-4.767.1-6.664a15.693,15.693,0,0,1,.12-2.764,12.4,12.4,0,0,1,.268,2.759c.078,1.708.1,4.07.063,6.676-.036,2.5-.07,4.765-.1,6.662a15.683,15.683,0,0,1-.12,2.764" transform="translate(-7458.475 -7350.45)" fill="#eb996e"/>
    <path id="Trazado_264917" data-name="Trazado 264917" d="M111.419,8.69a2.836,2.836,0,0,1-.64.065l-1.828.087a33.972,33.972,0,0,0-6.6,1.156,27.984,27.984,0,0,0-8.847,4.375,39.441,39.441,0,0,0-4.422,3.848,37.982,37.982,0,0,0-4.137,4.743,54.8,54.8,0,0,0-6.193,10.47,29.585,29.585,0,0,0-1.718,5.007,18.547,18.547,0,0,0-.476,4.57,24.728,24.728,0,0,0,.8,6.634,10.217,10.217,0,0,0,.644,1.7c.185.373.316.549.3.561a5.1,5.1,0,0,1-1.151-2.193,23.242,23.242,0,0,1-.98-6.693,18.626,18.626,0,0,1,.422-4.675,29.289,29.289,0,0,1,1.7-5.107,53.542,53.542,0,0,1,6.217-10.6,37.86,37.86,0,0,1,4.2-4.8,38.9,38.9,0,0,1,4.5-3.874,27.688,27.688,0,0,1,9.039-4.34,30.928,30.928,0,0,1,6.69-1c.8-.009,1.42.007,1.839.016a2.822,2.822,0,0,1,.64.045" transform="translate(-7456.892 -7359.494)" fill="#263238"/>
    <path id="Trazado_264918" data-name="Trazado 264918" d="M156.4,42.394c1.135,8.173-3.107,15.517-9.475,16.4s-12.45-5.025-13.585-13.2,3.107-15.517,9.475-16.4,12.45,5.025,13.585,13.2" transform="translate(-7453.817 -7358.389)" fill="#e8505b"/>
    <path id="Trazado_264919" data-name="Trazado 264919" d="M152.86,50.165c-.095-.038.506-1.267.862-3.4a16.217,16.217,0,0,0-.763-8.258,13.933,13.933,0,0,0-5.045-6.518,22.82,22.82,0,0,0-3.1-1.616,2.659,2.659,0,0,1,.937.193,10.043,10.043,0,0,1,2.371,1.1,13.49,13.49,0,0,1,5.346,6.649,15.46,15.46,0,0,1,.631,8.522,12.744,12.744,0,0,1-.783,2.487,2.845,2.845,0,0,1-.461.838" transform="translate(-7453.188 -7358.321)" fill="#fff"/>
    <path id="Trazado_264920" data-name="Trazado 264920" d="M157.38,97.994a17.674,17.674,0,0,1,1.072-1.627,39.617,39.617,0,0,0,2.671-4.561,21.239,21.239,0,0,0,2.181-7.435,15.918,15.918,0,0,0-2.117-9.1,58.219,58.219,0,0,0-5.644-7.753,47.538,47.538,0,0,1-4.6-6.428,17.928,17.928,0,0,1-1.929-4.978c-.1-.624-.139-1.114-.174-1.443a1.735,1.735,0,0,1-.02-.5,14.987,14.987,0,0,1,.4,1.9,19.5,19.5,0,0,0,2.057,4.83,51.111,51.111,0,0,0,4.658,6.3A55.385,55.385,0,0,1,161.666,75a16.216,16.216,0,0,1,2.141,9.412,20.957,20.957,0,0,1-2.338,7.564,32.958,32.958,0,0,1-2.844,4.511c-.374.5-.682.884-.9,1.136s-.333.379-.348.368" transform="translate(-7452.973 -7357.038)" fill="#263238"/>
    <path id="Trazado_264921" data-name="Trazado 264921" d="M84.529,99.092c-.659,8.057,5.881,14.75,8.413,22.428A24.042,24.042,0,0,1,84.2,147.951c7.9,1.366,16-3.656,19.787-10.718s2.872-15.737.831-23.487-2.679-10.366-2.679-10.366" transform="translate(-7456.458 -7354.614)" fill="#263238"/>
    <path id="Trazado_264922" data-name="Trazado 264922" d="M108.539,11.8s.98-6.782,8-5.431,18.074,4,24.007,15.546,12.229,41.081,12.4,42.305,7.1,48.327,10.915,54.181c3.535,5.431,8.1,6.654,8.1,6.654s-7.059,4.969-14.715-1.946-22.087-35.545-22.087-35.545Z" transform="translate(-7455.145 -7359.625)" fill="#263238"/>
    <path id="Trazado_264923" data-name="Trazado 264923" d="M85.029,36.1l-1.321-5.379L114.77,17.252c9.768-3.307,22.841,4.29,25.731,14.188,3.21,11,6.7,24.553,7.245,33.173,1.1,17.335-11.247,22.349-11.247,22.349l3.663,16.632-36.911,8.785Z" transform="translate(-7456.485 -7359.071)" fill="#ffbe9d"/>
    <path id="Trazado_264924" data-name="Trazado 264924" d="M137.293,41.941c-.2.339-2.1-.5-4.409.027-2.313.491-3.742,2.06-4.056,1.834-.152-.1.006-.664.624-1.367a6.032,6.032,0,0,1,3.169-1.815,5.8,5.8,0,0,1,3.587.328c.833.386,1.188.838,1.085.993" transform="translate(-7454.054 -7357.775)" fill="#263238"/>
    <path id="Trazado_264925" data-name="Trazado 264925" d="M115.528,48.277c-.2.339-2.1-.5-4.409.027-2.313.491-3.741,2.06-4.057,1.834-.151-.1,0-.663.624-1.367a6.032,6.032,0,0,1,3.169-1.815,5.809,5.809,0,0,1,3.588.328c.83.386,1.187.838,1.085.993" transform="translate(-7455.228 -7357.434)" fill="#263238"/>
    <path id="Trazado_264926" data-name="Trazado 264926" d="M126.183,58.865a15.7,15.7,0,0,1,3.6-1.52c.577-.194,1.109-.436,1.117-.861a3.08,3.08,0,0,0-.786-1.66q-1.314-1.954-2.754-4.1c-3.86-5.85-6.795-10.714-6.559-10.867s3.558,4.463,7.419,10.314q1.405,2.169,2.685,4.143a3.5,3.5,0,0,1,.826,2.246,1.519,1.519,0,0,1-.776,1.081,4.158,4.158,0,0,1-.971.364c-2.313.652-3.764.99-3.8.86" transform="translate(-7454.484 -7357.809)" fill="#263238"/>
    <path id="Trazado_264927" data-name="Trazado 264927" d="M135.045,83.441a45.42,45.42,0,0,1-24.34-.847s8.288,10.449,25.267,5.023Z" transform="translate(-7455.028 -7355.504)" fill="#eb996e"/>
    <path id="Trazado_264928" data-name="Trazado 264928" d="M126.506,63.431a4.266,4.266,0,0,0-4.079-.707,3.9,3.9,0,0,0-2.308,2,2.471,2.471,0,0,0,.436,2.8,2.864,2.864,0,0,0,3.2.084,8.952,8.952,0,0,0,2.557-2.425,2.613,2.613,0,0,0,.506-.832.792.792,0,0,0-.2-.859" transform="translate(-7454.534 -7356.588)" fill="#e8505b"/>
    <path id="Trazado_264929" data-name="Trazado 264929" d="M119.807,60.858c.371-.106.939,2.4,3.485,3.7s5.153.422,5.251.768c.071.149-.485.62-1.606.9a6.4,6.4,0,0,1-4.352-.5,5.573,5.573,0,0,1-2.761-3.137c-.332-1.027-.192-1.711-.017-1.735" transform="translate(-7454.547 -7356.676)" fill="#263238"/>
    <path id="Trazado_264930" data-name="Trazado 264930" d="M113.548,36.8c-.086.68-2.46.9-5.1,1.835-2.655.883-4.663,2.168-5.148,1.685-.221-.233.027-.91.774-1.717a9.415,9.415,0,0,1,7.805-2.681c1.086.177,1.7.558,1.666.878" transform="translate(-7455.432 -7358.026)" fill="#263238"/>
    <path id="Trazado_264931" data-name="Trazado 264931" d="M133.928,32.1c-.289.616-2,.429-3.922.834-1.933.337-3.454,1.147-3.951.682-.222-.23-.085-.813.511-1.469a5.806,5.806,0,0,1,6.343-1.22c.8.387,1.141.878,1.019,1.174" transform="translate(-7454.206 -7358.316)" fill="#263238"/>
    <path id="Trazado_264932" data-name="Trazado 264932" d="M95.275,55.834c9.042-7.424,13.5-22.656,18.254-33.345,1.054-2.368,2.128-5,1.357-7.478-.8-2.573-3.495-4.217-6.177-4.47a15.387,15.387,0,0,0-7.789,1.776A39.906,39.906,0,0,0,79.672,37.11c-.98,3.4-.393,10.889,2.471,12.967,3.141,2.277,6.953.348,10.017,2.727" transform="translate(-7456.726 -7359.393)" fill="#263238"/>
    <path id="Trazado_264933" data-name="Trazado 264933" d="M141.476,77.08c6.065,6.836,10.831,17.27,10.724,26.409-.1,8.445-2.937,17.55,1.18,24.925,3.706,6.638,11.795,9.4,17.045,14.9,6.06,6.341,7.761,16.06,5.653,24.574s-7.6,15.885-14.183,21.682a22.6,22.6,0,0,0-6.218-24.389c-4.283-3.7-9.849-5.639-14.219-9.238-6.342-5.223-9.529-13.49-10.413-21.658s.271-16.4,1.19-24.565,2.22-17.646.409-25.66c3.511-.545,6.646-3.363,8.831-6.974" transform="translate(-7453.948 -7355.801)" fill="#263238"/>
    <path id="Trazado_264934" data-name="Trazado 264934" d="M114.359,12.6a11.955,11.955,0,0,1,.231,1.849,17.934,17.934,0,0,1,.116,2.184c0,.853.057,1.826-.039,2.9q-.049.809-.1,1.685c-.041.585-.145,1.188-.22,1.816-.13,1.261-.426,2.58-.706,3.975a49.25,49.25,0,0,1-2.965,8.755,49.254,49.254,0,0,1-4.683,7.973c-.872,1.125-1.676,2.213-2.545,3.135-.426.467-.813.94-1.229,1.354l-1.206,1.18c-.748.774-1.521,1.37-2.167,1.927a18.128,18.128,0,0,1-1.727,1.341,12.066,12.066,0,0,1-1.549,1.035,12.121,12.121,0,0,1,1.419-1.2,21.58,21.58,0,0,0,1.659-1.4c.622-.575,1.37-1.186,2.094-1.971l1.17-1.194c.4-.417.78-.894,1.194-1.363.845-.925,1.627-2.013,2.478-3.133a51.254,51.254,0,0,0,4.593-7.9,51.3,51.3,0,0,0,2.972-8.643c.29-1.376.6-2.679.747-3.924.084-.62.2-1.215.25-1.794s.094-1.133.138-1.666c.119-1.061.092-2.027.119-2.873a21.328,21.328,0,0,0-.023-2.173,12.118,12.118,0,0,1-.017-1.861" transform="translate(-7455.845 -7359.279)" fill="#263238"/>
    <path id="Trazado_264935" data-name="Trazado 264935" d="M106.6,140.107a3.732,3.732,0,0,1,.188-.714c.13-.464.379-1.129.614-2.013A52.566,52.566,0,0,0,109,129.826a51.3,51.3,0,0,0-2.819-25.026,120.01,120.01,0,0,0-6.12-12.636A76.005,76.005,0,0,1,95.3,81.676a29.538,29.538,0,0,1-1.634-7.594,16.772,16.772,0,0,1-.055-2.113,3.894,3.894,0,0,1,.038-.736c.063,0,.043,1.017.23,2.829a31.532,31.532,0,0,0,1.786,7.485,80.153,80.153,0,0,0,4.845,10.38,114.066,114.066,0,0,1,6.187,12.676,50.348,50.348,0,0,1,2.69,25.278,46.775,46.775,0,0,1-1.773,7.562c-.268.877-.551,1.533-.715,1.987a3.676,3.676,0,0,1-.292.677" transform="translate(-7455.951 -7356.117)" fill="#263238"/>
    <path id="Trazado_264936" data-name="Trazado 264936" d="M89.014,49.637a9.832,9.832,0,0,1,1.2-1.167c.4-.356.89-.8,1.431-1.336s1.189-1.118,1.842-1.823c1.351-1.364,2.871-3.074,4.463-5.048a72.271,72.271,0,0,0,4.732-6.753,72.339,72.339,0,0,0,3.852-7.292c1.03-2.318,1.859-4.451,2.458-6.275.329-.9.554-1.742.781-2.471s.4-1.363.538-1.883a9.786,9.786,0,0,1,.489-1.6,9.872,9.872,0,0,1-.281,1.653c-.1.53-.243,1.176-.449,1.915s-.4,1.591-.708,2.508A59.651,59.651,0,0,1,107,26.423a66.709,66.709,0,0,1-3.845,7.373,66.548,66.548,0,0,1-4.807,6.783,59.769,59.769,0,0,1-4.583,5.006c-.676.691-1.342,1.258-1.91,1.774s-1.075.939-1.5,1.273a9.656,9.656,0,0,1-1.343,1" transform="translate(-7456.199 -7359.205)" fill="#455a64"/>
    <path id="Trazado_264937" data-name="Trazado 264937" d="M82.205,48.19a1.308,1.308,0,0,1-.073-.455,5.2,5.2,0,0,1,.107-1.317A8.174,8.174,0,0,1,84.7,42.27,39.45,39.45,0,0,1,90.574,38.2,51.38,51.38,0,0,0,97.4,32.866a52.273,52.273,0,0,0,9.771-12.3c1.009-1.751,1.723-3.225,2.211-4.246a10.735,10.735,0,0,1,.779-1.581,10.88,10.88,0,0,1-.584,1.667,43.157,43.157,0,0,1-2.068,4.349,48.991,48.991,0,0,1-9.736,12.517,48.939,48.939,0,0,1-6.927,5.358,42.3,42.3,0,0,0-5.885,3.928,8.29,8.29,0,0,0-2.516,3.913,11.125,11.125,0,0,0-.242,1.723" transform="translate(-7456.57 -7359.164)" fill="#455a64"/>
    <path id="Trazado_264938" data-name="Trazado 264938" d="M90.469,148.919a4.311,4.311,0,0,1,.58-.529c.192-.17.446-.359.718-.617l.918-.905a21,21,0,0,0,4.292-6.922A29.885,29.885,0,0,0,98.8,128.014a54.788,54.788,0,0,0-3.065-14.558c-1.674-5.04-3.553-9.757-4.916-14.178a56.583,56.583,0,0,1-2.51-12.015A31.35,31.35,0,0,1,88.66,79a20.706,20.706,0,0,1,.526-2.19,4.281,4.281,0,0,1,.248-.744c.064.017-.263,1.05-.563,2.97a33.351,33.351,0,0,0-.172,8.2,58.32,58.32,0,0,0,2.607,11.9c1.381,4.388,3.272,9.094,4.955,14.157a54.173,54.173,0,0,1,3.049,14.711,29.783,29.783,0,0,1-1.972,12.094,20.385,20.385,0,0,1-4.5,6.93l-.962.878c-.286.247-.552.425-.757.581a4.192,4.192,0,0,1-.648.443" transform="translate(-7456.243 -7355.856)" fill="#455a64"/>
    <path id="Trazado_264939" data-name="Trazado 264939" d="M80.962,107.661a5.891,5.891,0,0,1,.228-1.279c.21-.924.47-2.077.78-3.445.658-2.907,1.518-6.934,2.311-11.41s1.365-8.555,1.744-11.512c.179-1.391.329-2.563.449-3.5a5.932,5.932,0,0,1,.226-1.281,5.878,5.878,0,0,1-.013,1.3c-.041.834-.134,2.039-.276,3.526-.281,2.973-.8,7.072-1.589,11.564s-1.719,8.516-2.475,11.406c-.376,1.445-.7,2.61-.951,3.407a5.87,5.87,0,0,1-.434,1.226" transform="translate(-7456.633 -7355.901)" fill="#455a64"/>
    <path id="Trazado_264940" data-name="Trazado 264940" d="M98.063,60.4c1.135,8.173-3.107,15.517-9.475,16.4-4.8.666-9.259-2.819-11.738-7.936A23.886,23.886,0,0,1,75,63.6c-1.822-8.049,3.107-15.517,9.475-16.4s12.45,5.025,13.585,13.2" transform="translate(-7456.975 -7357.417)" fill="#e8505b"/>
    <path id="Trazado_264941" data-name="Trazado 264941" d="M90.051,60.911c1.978,7.273.313,14.06-3.72,15.157s-8.906-3.91-10.885-11.183-.313-14.06,3.72-15.157,8.907,3.91,10.885,11.183" transform="translate(-7456.975 -7357.285)" fill="#e8505b"/>
    <g id="Grupo_871048" data-name="Grupo 871048" transform="translate(-7382.363 -7307.709)" opacity="0.3">
      <g id="Grupo_871047" data-name="Grupo 871047" transform="translate(0 0)">
        <g id="Grupo_871046" data-name="Grupo 871046" clip-path="url(#clip-path-4)">
          <path id="Trazado_264942" data-name="Trazado 264942" d="M90.051,60.911c1.978,7.273.313,14.06-3.72,15.157s-8.906-3.91-10.885-11.183-.313-14.06,3.72-15.157,8.907,3.91,10.885,11.183" transform="translate(-74.612 -49.576)"/>
        </g>
      </g>
    </g>
    <path id="Trazado_264943" data-name="Trazado 264943" d="M88.071,47.266a19.852,19.852,0,0,0-2.939-.044A14.722,14.722,0,0,0,78.7,49.95a10.873,10.873,0,0,0-3.5,5.937c-.443,1.767-.486,2.913-.58,2.908a2.2,2.2,0,0,1-.054-.807,13.409,13.409,0,0,1,1.29-5.3,9.057,9.057,0,0,1,2.513-3.173A13.781,13.781,0,0,1,85.1,46.835,7.733,7.733,0,0,1,87.305,47a2.038,2.038,0,0,1,.766.265" transform="translate(-7456.978 -7357.434)" fill="#263238"/>
    <path id="Trazado_264944" data-name="Trazado 264944" d="M77.371,50.516c-.009-.014.092-.1.309-.236a4.149,4.149,0,0,1,1.029-.424,5.685,5.685,0,0,1,4.029.412A10.419,10.419,0,0,1,87.105,54.4a25.612,25.612,0,0,1,3.042,6.715,18.664,18.664,0,0,1,.7,7.345,12.576,12.576,0,0,1-2.059,5.664,4.8,4.8,0,0,1-3.417,2.136,3.136,3.136,0,0,1-1.116-.054c-.248-.063-.368-.126-.363-.141a5.393,5.393,0,0,0,1.447-.017,4.685,4.685,0,0,0,3.126-2.14,12.562,12.562,0,0,0,1.879-5.507,18.692,18.692,0,0,0-.724-7.137,26.2,26.2,0,0,0-2.943-6.6,10.239,10.239,0,0,0-4.114-4.058,5.67,5.67,0,0,0-3.8-.551,10.548,10.548,0,0,0-1.387.452" transform="translate(-7456.827 -7357.28)" fill="#263238"/>
    <path id="Trazado_264945" data-name="Trazado 264945" d="M95.594,67.91c-.095-.027.338-1.29.534-3.4a17.685,17.685,0,0,0-5.709-14.826c-1.561-1.433-2.729-2.079-2.676-2.164a2.826,2.826,0,0,1,.848.4,14.375,14.375,0,0,1,2.084,1.474,16.832,16.832,0,0,1,5.839,15.162,14.32,14.32,0,0,1-.556,2.492,2.8,2.8,0,0,1-.364.864" transform="translate(-7456.267 -7357.396)" fill="#fff"/>
    <path id="Trazado_264946" data-name="Trazado 264946" d="M63.769,66.238a62.519,62.519,0,0,1-8.278.069,62.4,62.4,0,0,1-8.264-.48,62.5,62.5,0,0,1,8.278-.069,62.423,62.423,0,0,1,8.264.48" transform="translate(-7458.453 -7356.416)" fill="#263238"/>
    <path id="Trazado_264947" data-name="Trazado 264947" d="M62.1,72.3a25.416,25.416,0,0,1-4.264,3.1,25.5,25.5,0,0,1-4.564,2.643,25.47,25.47,0,0,1,4.264-3.1A25.543,25.543,0,0,1,62.1,72.3" transform="translate(-7458.126 -7356.06)" fill="#263238"/>
    <path id="Trazado_264948" data-name="Trazado 264948" d="M66.959,74.128A46.117,46.117,0,0,1,64.267,80.7a45.939,45.939,0,0,1-3.191,6.346,46.38,46.38,0,0,1,2.692-6.572,46.156,46.156,0,0,1,3.191-6.346" transform="translate(-7457.706 -7355.96)" fill="#263238"/>
    <path id="Trazado_264949" data-name="Trazado 264949" d="M188.584,25.056a22.809,22.809,0,0,1-3.21,1.017c-1.994.577-4.745,1.382-7.763,2.337s-5.731,1.882-7.695,2.558a23.084,23.084,0,0,1-3.209,1.017A18.449,18.449,0,0,1,169.78,30.6c1.933-.77,4.635-1.758,7.664-2.717s5.805-1.707,7.83-2.189a18.563,18.563,0,0,1,3.309-.642" transform="translate(-7452.008 -7358.608)" fill="#263238"/>
    <path id="Trazado_264950" data-name="Trazado 264950" d="M170.135,14.735a48.638,48.638,0,0,1-3.461,6.43,48.859,48.859,0,0,1-3.934,6.154,48.738,48.738,0,0,1,3.461-6.432,48.83,48.83,0,0,1,3.934-6.152" transform="translate(-7452.222 -7359.164)" fill="#263238"/>
    <path id="Trazado_264951" data-name="Trazado 264951" d="M180.654,40.013a34.3,34.3,0,0,1-6.09-.613,34.136,34.136,0,0,1-6.011-1.156,34.429,34.429,0,0,1,6.09.613,34.394,34.394,0,0,1,6.011,1.156" transform="translate(-7451.908 -7357.898)" fill="#263238"/>
  </g>
</svg>
