<svg id="Grupo_870970" data-name="Grupo 870970" xmlns="http://www.w3.org/2000/svg" xmlns:xlink="http://www.w3.org/1999/xlink" width="273.672" height="271.155" viewBox="0 0 273.672 271.155">
  <defs>
    <clipPath id="clip-path">
      <rect id="Rectángulo_291513" data-name="Rectángulo 291513" width="273.672" height="271.155" fill="none"/>
    </clipPath>
    <clipPath id="clip-path-4">
      <rect id="Rectángulo_291508" data-name="Rectángulo 291508" width="32.44" height="37.361" fill="none"/>
    </clipPath>
    <clipPath id="clip-path-5">
      <rect id="Rectángulo_291509" data-name="Rectángulo 291509" width="19.71" height="53.04" fill="none"/>
    </clipPath>
    <clipPath id="clip-path-6">
      <rect id="Rectángulo_291510" data-name="Rectángulo 291510" width="29.093" height="17.896" fill="none"/>
    </clipPath>
    <clipPath id="clip-path-7">
      <rect id="Rectángulo_291511" data-name="Rectángulo 291511" width="31.022" height="24.197" fill="none"/>
    </clipPath>
  </defs>
  <g id="Grupo_870969" data-name="Grupo 870969" clip-path="url(#clip-path)">
    <g id="Grupo_870954" data-name="Grupo 870954">
      <g id="Grupo_870953" data-name="Grupo 870953" clip-path="url(#clip-path)">
        <path id="Trazado_264551" data-name="Trazado 264551" d="M293.191,30.249A30.249,30.249,0,1,0,323.44,0a30.249,30.249,0,0,0-30.249,30.249" transform="translate(-100.756)" fill="#fafafa"/>
        <path id="Trazado_264552" data-name="Trazado 264552" d="M294.689,78.305c-.005.031.324.05.858.268a3.964,3.964,0,0,1,1.81,1.553,3.766,3.766,0,0,1,.559,1.547,3.273,3.273,0,0,1-.327,1.833,3.585,3.585,0,0,1-6.712-.4,3.283,3.283,0,0,1-.108-1.859,3.763,3.763,0,0,1,.738-1.47,3.965,3.965,0,0,1,1.98-1.328c.555-.154.885-.135.883-.165a.774.774,0,0,0-.236-.019,1.478,1.478,0,0,0-.287.015,2.3,2.3,0,0,0-.388.064,4.024,4.024,0,0,0-2.915,2.848,3.493,3.493,0,0,0,.089,2,4.088,4.088,0,0,0,1.254,1.819,3.612,3.612,0,0,0,4.474.265,4.081,4.081,0,0,0,1.459-1.658,3.492,3.492,0,0,0,.326-1.974,4.026,4.026,0,0,0-2.559-3.173,2.3,2.3,0,0,0-.378-.109,1.418,1.418,0,0,0-.283-.049.781.781,0,0,0-.236-.009" transform="translate(-99.81 -26.896)" fill="#263238"/>
        <path id="Trazado_264553" data-name="Trazado 264553" d="M286.251,91.27c0,.015.162.025.428.134a1.981,1.981,0,0,1,.9.775,1.872,1.872,0,0,1,.278.771,1.63,1.63,0,0,1-.163.915,1.789,1.789,0,0,1-3.349-.2,1.645,1.645,0,0,1-.054-.928,1.892,1.892,0,0,1,.368-.733,1.977,1.977,0,0,1,.988-.663c.277-.077.441-.067.44-.082a.342.342,0,0,0-.117-.01.758.758,0,0,0-.143.007,1.141,1.141,0,0,0-.194.032,2.009,2.009,0,0,0-1.455,1.421,1.743,1.743,0,0,0,.045,1,2.037,2.037,0,0,0,.625.908,1.8,1.8,0,0,0,2.233.132,2.033,2.033,0,0,0,.728-.828,1.736,1.736,0,0,0,.162-.985,2.007,2.007,0,0,0-1.277-1.583,1.179,1.179,0,0,0-.188-.054.713.713,0,0,0-.141-.024.376.376,0,0,0-.118,0" transform="translate(-97.642 -31.358)" fill="#263238"/>
        <path id="Trazado_264554" data-name="Trazado 264554" d="M293.364,32.6s0-.166,0-.49l-.026-1.433q-.01-.474-.022-1.055c.009-.389.058-.812.089-1.271s.075-.954.116-1.482a5.168,5.168,0,0,1,.108-.812l.154-.858a28.733,28.733,0,0,1,2.7-8.241,29.973,29.973,0,0,1,6.951-9.1l1.219-1.066c.432-.334.889-.645,1.34-.974l.685-.491a5.863,5.863,0,0,1,.71-.468l1.5-.867c.253-.144.5-.3.761-.437l.807-.368,1.637-.746c.557-.234,1.147-.4,1.727-.61l.879-.3c.148-.048.293-.105.443-.146l.457-.106a27.865,27.865,0,0,1,3.75-.734c.643-.073,1.288-.187,1.945-.228l1.989-.053c.333,0,.669-.032,1-.013l1.01.075c.675.058,1.358.083,2.039.169a31.751,31.751,0,0,1,4.082.859l1.021.286c.17.05.343.093.512.148l.5.194,2.006.782c.658.293,1.3.645,1.95.967.322.172.662.314.97.512l.933.591a33.8,33.8,0,0,1,3.618,2.619l1.651,1.556.415.391c.13.139.253.286.379.428l.756.863.76.866.679.937.679.944.341.473c.1.165.2.335.3.5l1.18,2.03q.49,1.072.985,2.152a32.043,32.043,0,0,1,2.281,9.316,32.057,32.057,0,0,1-.805,9.561q-.321,1.144-.639,2.279-.428,1.1-.852,2.19l-.215.543-.263.521-.524,1.038-.526,1.031-.616.975-.614.97-.308.482-.35.451-1.39,1.794a33.838,33.838,0,0,1-3.169,3.15l-.83.728c-.274.244-.588.436-.879.656-.6.42-1.172.866-1.777,1.258l-1.861,1.084-.462.269c-.158.081-.322.15-.482.225l-.964.441a31.679,31.679,0,0,1-3.9,1.482c-.659.19-1.33.321-1.988.483l-.986.231c-.329.07-.665.094-1,.143l-1.973.256c-.654.061-1.31.049-1.957.077a27.968,27.968,0,0,1-3.819-.144l-.468-.033c-.155-.018-.308-.052-.461-.076l-.915-.159c-.605-.116-1.214-.191-1.8-.335L314.8,59l-.854-.238-.82-.314-1.613-.625a5.922,5.922,0,0,1-.774-.352l-.752-.379c-.5-.255-1-.491-1.475-.755l-1.37-.864a29.973,29.973,0,0,1-8.277-7.908c-.246-.345-.5-.679-.728-1.016l-.608-1.041-.586-1c-.093-.165-.2-.322-.278-.489l-.23-.5-.873-1.895c-.261-.61-.435-1.219-.64-1.779q-.147-.423-.285-.824a5.075,5.075,0,0,1-.233-.786l-.344-1.445c-.1-.449-.217-.859-.286-1.241q-.078-.577-.142-1.046-.129-.928-.2-1.42c-.046-.32-.077-.483-.077-.483s.012.165.048.486.1.8.17,1.425q.058.471.129,1.05c.065.383.175.8.273,1.247l.332,1.453a5.164,5.164,0,0,0,.228.79l.28.829c.2.564.373,1.177.631,1.791l.866,1.907.228.5c.082.168.184.326.277.493l.583,1.009.607,1.049c.23.341.481.677.727,1.025a30.032,30.032,0,0,0,8.3,7.984l1.376.874c.48.266.983.505,1.483.763l.756.384a5.917,5.917,0,0,0,.778.356l1.622.634c.274.105.547.217.825.318l.86.242,1.745.49c.591.147,1.2.224,1.814.342l.921.163c.155.025.308.059.465.077l.471.035a28.084,28.084,0,0,0,3.849.153c.652-.027,1.313-.014,1.972-.074l1.989-.255c.333-.049.671-.073,1-.142l.995-.231c.663-.163,1.34-.294,2.005-.485A32,32,0,0,0,335.9,57.8l.973-.444c.161-.075.328-.145.487-.226l.466-.271,1.878-1.091c.611-.394,1.192-.844,1.794-1.267.294-.222.61-.416.887-.662l.838-.734a34.041,34.041,0,0,0,3.2-3.175l1.4-1.809.353-.455.311-.486.62-.979.622-.983.532-1.04.53-1.048.265-.525.217-.548.86-2.209.646-2.3a32.3,32.3,0,0,0,.814-9.65,32.279,32.279,0,0,0-2.3-9.4q-.5-1.09-1-2.171l-1.192-2.049c-.1-.169-.195-.342-.3-.507l-.343-.478-.686-.952-.686-.945-.767-.875-.763-.87c-.129-.144-.252-.291-.383-.431l-.419-.394L343.1,7.248a34.08,34.08,0,0,0-3.654-2.64l-.941-.595c-.312-.2-.654-.343-.979-.516-.66-.324-1.3-.678-1.968-.973l-2.024-.787-.5-.195c-.17-.056-.345-.1-.516-.148l-1.03-.287a31.832,31.832,0,0,0-4.117-.86c-.687-.086-1.376-.11-2.056-.168L324.29.005c-.339-.018-.677.011-1.013.015l-2,.056c-.662.043-1.312.158-1.961.233a28.08,28.08,0,0,0-3.778.748l-.46.108c-.152.042-.3.1-.447.148l-.885.3c-.584.21-1.177.382-1.739.619l-1.647.755-.812.372c-.26.142-.512.3-.766.442l-1.5.878a5.948,5.948,0,0,0-.713.473l-.688.5c-.454.333-.913.647-1.347.984L303.3,7.712a30.033,30.033,0,0,0-6.959,9.174,28.623,28.623,0,0,0-2.667,8.292q-.076.443-.148.862a5.188,5.188,0,0,0-.1.816q-.055.8-.1,1.487c-.027.461-.072.885-.077,1.275.013.389.025.742.036,1.057.023.625.041,1.1.053,1.435s.028.488.028.488" transform="translate(-100.775 0)" fill="#263238"/>
        <rect id="Rectángulo_291505" data-name="Rectángulo 291505" width="21.566" height="4.812" transform="translate(213.358 36.172) rotate(-45)" fill="#f52e11"/>
        <rect id="Rectángulo_291506" data-name="Rectángulo 291506" width="4.813" height="21.566" transform="translate(213.358 24.326) rotate(-45)" fill="#f52e11"/>
      </g>
    </g>
    <g id="Grupo_870968" data-name="Grupo 870968">
      <g id="Grupo_870967" data-name="Grupo 870967" clip-path="url(#clip-path)">
        <path id="Trazado_264555" data-name="Trazado 264555" d="M163.309,120.982l-7.993-37.166c-11.084,16.969-8.114,59.392-11.143,74.353s-10.85,25.921-15.359,40.5c-1.962,6.347-4.38,12.6-5.417,19.157s-.566,13.636,2.923,19.29l1.7-5.2c.29,4.35,3.769,8.045,7.865,9.539s8.666,1.1,12.87-.053a25.92,25.92,0,0,0,9.212-4.414c6.011-4.726,8.788-12.58,9.438-20.2s-.524-15.259-.908-22.895c-.616-12.23,5.826-27.752,6.281-39.991s-5.127-21.476-9.468-32.927" transform="translate(-42.239 -28.804)" fill="#263238"/>
        <path id="Trazado_264556" data-name="Trazado 264556" d="M233.967,88.676c-1.056-11.722-7.253-23.123-17.179-29.448s-23.508-6.959-33.443-.65c-6.317,4.012-10.859,10.452-13.471,17.464s-1.478,12.822-1.418,20.3c.032,3.877.524,14.3,3.871,16.258l52.22,9.366c6.688-9.684,10.477-21.573,9.421-33.3" transform="translate(-57.789 -18.61)" fill="#263238"/>
        <path id="Trazado_264557" data-name="Trazado 264557" d="M171.265,93.325c.52-10.223,11.4-20.557,21.6-19.6L225.949,79.6l-.042,5.5-1.747,94.684s-24.034,1.962-36.4,3.029l.105-36.784s-13.077-2.01-15.987-19.005c-1.447-8.452-1.189-22.342-.61-33.7" transform="translate(-58.698 -25.314)" fill="#a57867"/>
        <path id="Trazado_264558" data-name="Trazado 264558" d="M181.559,120.066a2.184,2.184,0,0,0,2.132,2.178,2.088,2.088,0,0,0,2.227-2,2.184,2.184,0,0,0-2.129-2.179,2.091,2.091,0,0,0-2.23,2" transform="translate(-62.393 -40.574)" fill="#263238"/>
        <path id="Trazado_264559" data-name="Trazado 264559" d="M178.315,113.588c.274.281,1.914-.963,4.264-.985,2.347-.055,4.086,1.132,4.337.841.124-.129-.158-.639-.916-1.177a6,6,0,0,0-3.477-1.026,5.75,5.75,0,0,0-3.389,1.14c-.716.563-.955,1.081-.82,1.207" transform="translate(-61.266 -38.228)" fill="#263238"/>
        <path id="Trazado_264560" data-name="Trazado 264560" d="M215.553,120.066a2.184,2.184,0,0,0,2.132,2.178,2.089,2.089,0,0,0,2.227-2,2.185,2.185,0,0,0-2.13-2.179,2.09,2.09,0,0,0-2.23,2" transform="translate(-74.075 -40.574)" fill="#263238"/>
        <path id="Trazado_264561" data-name="Trazado 264561" d="M212.308,113.591c.274.282,1.916-.962,4.264-.985,2.347-.056,4.086,1.132,4.338.841.123-.129-.156-.639-.917-1.177a5.986,5.986,0,0,0-3.476-1.026,5.758,5.758,0,0,0-3.39,1.139c-.714.563-.954,1.081-.82,1.207" transform="translate(-72.948 -38.229)" fill="#263238"/>
        <path id="Trazado_264562" data-name="Trazado 264562" d="M196.507,131.27a15.564,15.564,0,0,0-3.825-.643c-.6-.054-1.17-.167-1.276-.576a3.048,3.048,0,0,1,.379-1.783q.819-2.189,1.72-4.59c2.386-6.536,4.1-11.906,3.841-12s-2.413,5.127-4.8,11.663q-.859,2.417-1.644,4.617a3.472,3.472,0,0,0-.283,2.359,1.506,1.506,0,0,0,1,.865,4.072,4.072,0,0,0,1.021.129,15.3,15.3,0,0,0,3.868-.041" transform="translate(-65.466 -38.378)" fill="#263238"/>
        <path id="Trazado_264563" data-name="Trazado 264563" d="M196.746,180.639a45.082,45.082,0,0,0,23.312-6.4s-5.782,12.009-23.425,10.661Z" transform="translate(-67.573 -59.878)" fill="#7c5246"/>
        <path id="Trazado_264564" data-name="Trazado 264564" d="M211.165,109.032c.5.46,2.443-.89,5.043-1.865,2.581-1.028,4.926-1.336,4.986-2.013.018-.319-.6-.673-1.685-.809a9.343,9.343,0,0,0-7.641,2.954c-.711.828-.932,1.509-.7,1.732" transform="translate(-72.538 -35.842)" fill="#263238"/>
        <path id="Trazado_264565" data-name="Trazado 264565" d="M179.1,106.167c.328.661,2.4.723,4.693,1.41,2.316.621,4.122,1.657,4.734,1.262.275-.2.129-.8-.568-1.549a7.966,7.966,0,0,0-3.544-2.018,7.833,7.833,0,0,0-4.051-.137c-.972.272-1.4.715-1.263,1.03" transform="translate(-61.539 -36.06)" fill="#263238"/>
        <path id="Trazado_264566" data-name="Trazado 264566" d="M196.031,148.346l5.8-1.781a3.436,3.436,0,0,1,2.528-.11,2.564,2.564,0,0,1,1.187,1.733c.174.7.194,1.433.36,2.136.216.918.64,2,.008,2.7a2.318,2.318,0,0,1-1.506.561l-5.62.666a4.352,4.352,0,0,1-2.153-.108,2.924,2.924,0,0,1-1.575-1.911,8.656,8.656,0,0,1-.248-2.538A2.166,2.166,0,0,1,195,148.62a.744.744,0,0,1,.932-.362" transform="translate(-66.948 -50.26)" fill="#7c5246"/>
        <path id="Trazado_264567" data-name="Trazado 264567" d="M204.6,147.339a1.615,1.615,0,0,0-.393-1.237,1.194,1.194,0,0,0-.954-.135,16.676,16.676,0,0,0-2.42.648l-5.32,1.717-.033.211a1.571,1.571,0,0,0,.387,1.631,2.1,2.1,0,0,0,1.528.547,6.262,6.262,0,0,0,1.661.055c1.493-.446,3.013-.8,4.506-1.242a1.689,1.689,0,0,0,.85-.585,3.277,3.277,0,0,0,.189-1.611" transform="translate(-67.145 -50.149)" fill="#fff"/>
        <path id="Trazado_264568" data-name="Trazado 264568" d="M196.937,154.348a1.953,1.953,0,0,0,.359,1.381c.247.218.457.5.786.487a21.74,21.74,0,0,0,2.733.037c1.814-.357,3.9-.815,5.71-1.172l.26-.276c.267-.48-.54-1.829-.912-2.232a2.218,2.218,0,0,0-1.475-.64,6.6,6.6,0,0,0-1.635.149l-4.575.806a1.234,1.234,0,0,0-1.25,1.46" transform="translate(-67.676 -52.209)" fill="#fff"/>
        <path id="Trazado_264569" data-name="Trazado 264569" d="M196.587,153.886a27.777,27.777,0,0,0,3.861-.123c1.184-.144,2.578-.428,4.128-.782a2.512,2.512,0,0,0,.993-.385,1.071,1.071,0,0,0,.326-.886,5.1,5.1,0,0,0-.218-1.231q-.162-.642-.329-1.3a6.015,6.015,0,0,0-.941-2.346,1.8,1.8,0,0,0-1.918-.647c-.725.143-1.462.417-2.139.607l-1.89.562a22.122,22.122,0,0,1-3.788.962,22.072,22.072,0,0,1,3.64-1.422l1.864-.642c.681-.215,1.36-.5,2.2-.687a2.843,2.843,0,0,1,1.363.02,2.4,2.4,0,0,1,1.195.828A6.409,6.409,0,0,1,206.007,149c.113.452.226.9.335,1.34a5.42,5.42,0,0,1,.223,1.369,1.715,1.715,0,0,1-.587,1.4,3.023,3.023,0,0,1-1.269.492,33.33,33.33,0,0,1-4.212.647,8.058,8.058,0,0,1-3.909-.358" transform="translate(-66.9 -49.999)" fill="#263238"/>
        <path id="Trazado_264570" data-name="Trazado 264570" d="M182.276,64.145C176,68.392,171.667,75.388,169.563,83.053l1.034,6.3c1.468-3.049,1.652-6.317,4.659-9.445,2.021-2.1,5.754-4.078,9.723-5.088,11.346-2.888,15.168-7.007,20.179-14.419-7.348-1.841-16.61-.5-22.882,3.744" transform="translate(-58.271 -20.48)" fill="#263238"/>
        <path id="Trazado_264571" data-name="Trazado 264571" d="M242.625,76.593c-1.487-4.995-5.91-8.69-10.764-10.587s-10.151-2.261-15.355-2.545L212.4,69.783c-2.59,3.7-1.1,9.017,1.883,12.406s7.123,5.48,10.767,8.143,7.037,6.386,7.24,10.893c.106,2.357-.629,4.95.645,6.935,1.486,2.316,5.164.1,7.276-1.659a9.252,9.252,0,0,0,3.042-7.2c.023-2.751-.715-3.481-.8-6.231-.163-5.522,1.745-11.184.169-16.478" transform="translate(-72.535 -21.809)" fill="#263238"/>
        <path id="Trazado_264572" data-name="Trazado 264572" d="M151.162,159.885a1.317,1.317,0,0,1-.184-.168c-.114-.117-.292-.284-.526-.5-.464-.443-1.237-.975-2.184-1.752a8.829,8.829,0,0,1-2.407-3.71,10.822,10.822,0,0,1-.663-5.816,9.018,9.018,0,0,1,1.293-3.187,15.84,15.84,0,0,1,2.408-2.839c1.839-1.8,4.124-3.35,5.943-5.555a10.389,10.389,0,0,0,2.093-3.773,6.946,6.946,0,0,0-.257-4.41c-1.156-2.888-3.7-5.085-5.44-7.942a11.418,11.418,0,0,1-1.63-4.67,16.788,16.788,0,0,1,.171-4.8,42.158,42.158,0,0,1,2.711-8.624,95.983,95.983,0,0,1,7.075-13.546c2.288-3.7,4.273-6.609,5.644-8.618l1.595-2.3.423-.593a1.287,1.287,0,0,1,.154-.2,1.372,1.372,0,0,1-.125.215l-.394.612-1.541,2.337c-1.337,2.031-3.29,4.958-5.549,8.67a98.267,98.267,0,0,0-6.99,13.539,42.188,42.188,0,0,0-2.672,8.559,16.5,16.5,0,0,0-.163,4.7,11.074,11.074,0,0,0,1.586,4.533c1.7,2.8,4.255,5,5.459,8a7.272,7.272,0,0,1,.26,4.619,10.674,10.674,0,0,1-2.165,3.887c-1.864,2.243-4.166,3.792-5.989,5.559a15.615,15.615,0,0,0-2.382,2.776,8.79,8.79,0,0,0-1.277,3.09,10.678,10.678,0,0,0,.6,5.7,8.769,8.769,0,0,0,2.316,3.678c.92.781,1.693,1.341,2.142,1.8a7.408,7.408,0,0,1,.663.719" transform="translate(-49.846 -26.421)" fill="#263238"/>
        <path id="Trazado_264573" data-name="Trazado 264573" d="M233.107,118.864a7.548,7.548,0,0,0,.989-1.653,4.816,4.816,0,0,0,.249-2.214,10.052,10.052,0,0,0-.847-2.865c-.445-1.024-1.029-2.1-1.65-3.271a18.456,18.456,0,0,0-2.277-3.5,42.975,42.975,0,0,0-7.135-6.431,40.712,40.712,0,0,1-7.15-6.526,16.071,16.071,0,0,1-2.223-3.616,13.53,13.53,0,0,1-.988-3.564,9.933,9.933,0,0,1,.642-5.267,6.337,6.337,0,0,1,1.007-1.675,15.311,15.311,0,0,0-.885,1.726,10.071,10.071,0,0,0-.526,5.183,13.536,13.536,0,0,0,1.009,3.483,15.991,15.991,0,0,0,2.209,3.532,41.45,41.45,0,0,0,7.113,6.454,42.158,42.158,0,0,1,7.169,6.5,18.514,18.514,0,0,1,2.284,3.571c.608,1.17,1.184,2.264,1.621,3.308a10.007,10.007,0,0,1,.815,2.941,4.862,4.862,0,0,1-.315,2.281l-.186.411c-.066.124-.145.231-.209.334a2.664,2.664,0,0,1-.368.494,2.86,2.86,0,0,1-.35.366" transform="translate(-72.847 -26.901)" fill="#263238"/>
        <path id="Trazado_264574" data-name="Trazado 264574" d="M204.408,151.416a11.4,11.4,0,0,1-6.815,1.251c0-.1,1.565-.08,3.443-.431s3.332-.916,3.372-.82" transform="translate(-67.903 -52.031)" fill="#263238"/>
        <path id="Trazado_264575" data-name="Trazado 264575" d="M170.837,94.507a3.493,3.493,0,0,1-.116-.555c-.073-.364-.15-.907-.225-1.609a27.088,27.088,0,0,1,.056-5.973,28.254,28.254,0,0,1,2.407-8.521,27.908,27.908,0,0,1,6.4-8.737,28.21,28.21,0,0,1,9.221-5.684,11.827,11.827,0,0,1,4.673-.887,9.124,9.124,0,0,1,3.992,1.122,3.691,3.691,0,0,1,1.315,1.277,3.981,3.981,0,0,1,.469,1.565,5.108,5.108,0,0,1-.4,2.549,3.647,3.647,0,0,1-.954,1.321,2.086,2.086,0,0,1-.468.322c-.012-.017.158-.118.421-.373A3.771,3.771,0,0,0,198.508,69a5.051,5.051,0,0,0,.329-2.476,3.812,3.812,0,0,0-.467-1.475,3.483,3.483,0,0,0-1.252-1.18,8.958,8.958,0,0,0-3.882-1.046,11.629,11.629,0,0,0-4.548.9,28.254,28.254,0,0,0-9.1,5.641,27.952,27.952,0,0,0-6.344,8.618,28.589,28.589,0,0,0-2.451,8.418,28.884,28.884,0,0,0-.164,5.932c.054.7.11,1.244.16,1.611a3.464,3.464,0,0,1,.049.564" transform="translate(-58.544 -21.489)" fill="#455a64"/>
        <path id="Trazado_264576" data-name="Trazado 264576" d="M215.888,54.351a1.685,1.685,0,0,1,.337.475,7.826,7.826,0,0,1,.653,1.448,8.426,8.426,0,0,1-1.072,7.814A12.226,12.226,0,0,1,214.3,65.9a9.456,9.456,0,0,1-1.208,1.027,1.721,1.721,0,0,1-.5.293c-.035-.048.645-.517,1.538-1.488a13.746,13.746,0,0,0,1.418-1.818,9.428,9.428,0,0,0,1.2-2.527,9.591,9.591,0,0,0-.091-5.04c-.371-1.262-.816-1.965-.76-2" transform="translate(-73.056 -18.678)" fill="#455a64"/>
        <path id="Trazado_264577" data-name="Trazado 264577" d="M28.653,260.54s2.893,19.96,3.616,23.142,6.509,18.98,14.464,20.683,13.741-3.471,16.489-7.087,32.447-32.45,32.447-32.45l-14.557-18.61-25.555,27.05a11.6,11.6,0,0,1-7.088-3.471c-2.893-3.183-5.351-13.307-5.351-13.307Z" transform="translate(-9.847 -84.614)" fill="#a57867"/>
        <path id="Trazado_264578" data-name="Trazado 264578" d="M72.471,309.819a5.928,5.928,0,0,1,.379-.866,21.481,21.481,0,0,0,.929-2.387,19.35,19.35,0,0,0-1.93-16.221,21.393,21.393,0,0,0-1.464-2.1,5.966,5.966,0,0,1-.572-.753,4.348,4.348,0,0,1,.673.667,16.662,16.662,0,0,1,1.567,2.059,18.675,18.675,0,0,1,1.954,16.427,16.688,16.688,0,0,1-1.04,2.369,4.318,4.318,0,0,1-.5.807" transform="translate(-23.991 -98.797)" fill="#7c5246"/>
        <path id="Trazado_264579" data-name="Trazado 264579" d="M34.406,235.178s1.069-5.7.445-8.9a54.7,54.7,0,0,1-.979-10.506c.178-1.87.469-11.942-1.689-13.353-2.459-1.609-4.772-.683-5.218,5.727s.5,9.228-.839,11.187-1.6,3.027-2.582,2.493-2.493-.534-5.163-2.76a51.007,51.007,0,0,1-7.123-7.657c-.471-.734-1.344-3.165-2.745-4.6a2.448,2.448,0,0,0-4.2,1.775A14.725,14.725,0,0,0,6,214.433c2.849,5.876,6.31,9.058,7.39,10.6,1.024,1.458,1.691,1.514.089,2.671s-4.185-.261-5.7-.976-2.493-1.25-2.493-1.25-.59-2.89-2.681-3.246A1.99,1.99,0,0,0,.471,223.5a7.338,7.338,0,0,0-.366,3.763c.356,1.6,1.065,3.455,2.838,4.3,1.524.728,3.71,1.584,6.68,2.79a33.516,33.516,0,0,0,5.169,1.461c.265.056.8,1.078.541,1.156a18.646,18.646,0,0,1-3.827-.118,5.062,5.062,0,0,0-1.92-1.642c-1.42-.517-2.724.064-2.838,1.132-.184,1.719,1.2,5.479,2.245,6.088a5.617,5.617,0,0,0,2.08.441c1.336.267,5.234.83,5.234.83a52.542,52.542,0,0,0,3.664,6.848c.9,1.22,6.333,1.636,6.333,1.636s.089,2.136,2.76,1.336,3.027-2.226,3.027-2.226,3.6-2.035,2.849-4.4-.861-9.575-.534-11.716" transform="translate(0 -69.323)" fill="#a57867"/>
        <path id="Trazado_264580" data-name="Trazado 264580" d="M38.444,249.126a1.905,1.905,0,0,1-.3-.5,13.057,13.057,0,0,1-.624-1.456,18.68,18.68,0,0,1-.7-10.322,13.049,13.049,0,0,1,.421-1.527,1.916,1.916,0,0,1,.224-.537c.056.017-.18.807-.408,2.111a21.294,21.294,0,0,0,.7,10.2c.4,1.26.744,2.012.69,2.036" transform="translate(-12.51 -80.683)" fill="#7c5246"/>
        <path id="Trazado_264581" data-name="Trazado 264581" d="M47.028,217.958a3.389,3.389,0,0,1-3.822-1.363,12.5,12.5,0,0,0,1.8,1,12.424,12.424,0,0,0,2.023.368" transform="translate(-14.846 -74.431)" fill="#7c5246"/>
        <path id="Trazado_264582" data-name="Trazado 264582" d="M13.789,219.518a8.909,8.909,0,0,0,1.066-1.493,3.272,3.272,0,0,0,.352-1.208c.022-.32-.041-.52.008-.543.033-.021.19.165.234.536a2.533,2.533,0,0,1-.287,1.367c-.473,1.011-1.34,1.445-1.373,1.342" transform="translate(-4.738 -74.323)" fill="#7c5246"/>
        <path id="Trazado_264583" data-name="Trazado 264583" d="M5.841,242.786a11.976,11.976,0,0,0,1.263-3.67,11.964,11.964,0,0,0-.311-3.869,2.764,2.764,0,0,1,.461,1.08,7.367,7.367,0,0,1,.19,2.832,7.37,7.37,0,0,1-.888,2.7,2.742,2.742,0,0,1-.715.931" transform="translate(-2.005 -80.843)" fill="#7c5246"/>
        <path id="Trazado_264584" data-name="Trazado 264584" d="M50.6,270.375a3.405,3.405,0,0,1,0,1.21,5.663,5.663,0,0,1-.284,1.3,3.214,3.214,0,0,1-.916,1.382,2.8,2.8,0,0,1-.8.371c-.258.085-.507.155-.744.219l-1.261.322a6.308,6.308,0,0,1-1.171.263,3.217,3.217,0,0,1,1.1-.494c.352-.12.775-.249,1.242-.393A6.317,6.317,0,0,0,49.172,274a4.192,4.192,0,0,0,1.182-2.455,5.669,5.669,0,0,1,.244-1.174" transform="translate(-15.607 -92.915)" fill="#7c5246"/>
        <path id="Trazado_264585" data-name="Trazado 264585" d="M43.082,273.93a4.143,4.143,0,0,1-.354.677c-.236.428-.555,1.059-.921,1.855s-.777,1.758-1.325,2.793a5.48,5.48,0,0,1-1.07,1.534,1.83,1.83,0,0,1-.942.455,1.773,1.773,0,0,1-1.06-.2,2.541,2.541,0,0,1-1.258-1.6,4.638,4.638,0,0,1-.047-1.874c.2-1.162.459-2.165.645-3.026l.479-2.024a3.322,3.322,0,0,1,.221-.732,3.322,3.322,0,0,1-.091.76c-.1.555-.226,1.239-.373,2.046-.153.86-.392,1.892-.568,3.021a4.392,4.392,0,0,0,.058,1.743,2.225,2.225,0,0,0,1.091,1.386,1.383,1.383,0,0,0,1.626-.2A5.333,5.333,0,0,0,40.2,279.1c.555-1.009.986-1.962,1.385-2.747a18.038,18.038,0,0,1,1.025-1.819,2.714,2.714,0,0,1,.468-.608" transform="translate(-12.382 -93.4)" fill="#7c5246"/>
        <path id="Trazado_264586" data-name="Trazado 264586" d="M13.135,252.255c-.005-.037.366-.115.929.066a3.479,3.479,0,0,1,1.762,1.393,5.58,5.58,0,0,1,1.093,2.922,23.8,23.8,0,0,0-1.377-2.732,3.8,3.8,0,0,0-1.565-1.357c-.493-.222-.844-.236-.842-.291" transform="translate(-4.514 -86.671)" fill="#7c5246"/>
        <path id="Trazado_264587" data-name="Trazado 264587" d="M19.846,255.253c.01.091-.589.226-1.336.164s-1.316-.289-1.291-.378.606-.019,1.319.037,1.3.08,1.307.177" transform="translate(-5.917 -87.63)" fill="#7c5246"/>
        <path id="Trazado_264588" data-name="Trazado 264588" d="M30.727,270.786a6.377,6.377,0,0,1-.8-.83c-.482-.517-1.177-1.205-1.979-1.926A23.88,23.88,0,0,0,25.8,266.3c-.575-.408-.975-.576-.96-.625a2.287,2.287,0,0,1,1.089.421,14.214,14.214,0,0,1,2.243,1.681,9.822,9.822,0,0,1,2.55,3.011" transform="translate(-8.538 -91.296)" fill="#7c5246"/>
        <path id="Trazado_264589" data-name="Trazado 264589" d="M322.058,236.428l28.695,26.606c1.07.216,11.063-7.608,12.589-11.529s2.48-5.771,2.48-5.771l15.068,7.382s-5.341,16.021-8.774,22.316-5.722,13.542-11.826,15.068-10.681-.381-14.5-3.624-32.044-24.6-32.044-24.6Z" transform="translate(-107.821 -81.249)" fill="#a57867"/>
        <path id="Trazado_264590" data-name="Trazado 264590" d="M373.97,187.215a2.171,2.171,0,0,0-3.231.843c-.527,1.145-.681,2.957.648,5.709,2.795,5.782,3.444,4.1,5.179,7.573a52.806,52.806,0,0,1,4.047,10.118c.964,3.565,1.156,4.529,1.156,4.529a20.349,20.349,0,0,1-3.565.482c-1.446,0-5.493-1.252-5.589,1.06a3.958,3.958,0,0,0,3.662,4.529,17.958,17.958,0,0,0,5.493,0s1.156,4.722,3.373,6.649,8,4.529,10.118,4.337a17.429,17.429,0,0,0,5.081-1.756s.6.214.6-3.158a38.612,38.612,0,0,0-2.795-12.624c-1.445-3.18-3.372-6.649-4.24-9.636s3.662-10.408,3.662-10.408l-.1-1.445-4.529-13.684s-3.469-.578-3.758,2.6l-.309-3.752-5.184-6.27s-3.084.868-.964,5.011l1.542,3.18v6.649L383.7,194.5a4.439,4.439,0,0,0-2.024,3.084,68.266,68.266,0,0,1-5.274-7.573,8.111,8.111,0,0,0-2.428-2.794" transform="translate(-127.273 -59.422)" fill="#a57867"/>
        <path id="Trazado_264591" data-name="Trazado 264591" d="M389.549,205.8a9.169,9.169,0,0,0-.767.678,5.112,5.112,0,0,0-1.119,2.428v-.032c.121,1.464.227,3.273.306,5.226.083,2.453.158,4.671.217,6.39q.033,1.137.056,1.936a2.863,2.863,0,0,1-.02.713,2.881,2.881,0,0,1-.113-.7c-.05-.456-.107-1.116-.165-1.933-.116-1.633-.217-3.893-.317-6.388-.078-1.952-.16-3.758-.242-5.221v-.02l0-.012a4.953,4.953,0,0,1,1.279-2.493,2.874,2.874,0,0,1,.627-.467c.161-.079.249-.115.255-.1" transform="translate(-133.126 -70.722)" fill="#7c5246"/>
        <path id="Trazado_264592" data-name="Trazado 264592" d="M392.531,233.623a3.447,3.447,0,0,1-.969.9,13.68,13.68,0,0,1-2.795,1.526,20.073,20.073,0,0,1-3.024.977,4.345,4.345,0,0,1-1.3.2c-.025-.1,1.928-.557,4.195-1.5a19.341,19.341,0,0,0,2.791-1.41,9.572,9.572,0,0,1,1.1-.7" transform="translate(-132.114 -80.284)" fill="#7c5246"/>
        <path id="Trazado_264593" data-name="Trazado 264593" d="M396.237,252.664c-.053.032-.392-.528-1.1-1.295A10.763,10.763,0,0,0,388,247.94c-1.039-.07-1.689.016-1.7-.046,0-.023.156-.062.45-.112a6.755,6.755,0,0,1,1.258-.084,9.835,9.835,0,0,1,7.311,3.511,6.784,6.784,0,0,1,.721,1.034c.144.261.214.409.194.421" transform="translate(-132.755 -85.122)" fill="#7c5246"/>
        <path id="Trazado_264594" data-name="Trazado 264594" d="M396.976,223.979a8.23,8.23,0,0,0,.114-.921,5.87,5.87,0,0,0-.587-2.43,11.914,11.914,0,0,1-1.263-3.605,6.911,6.911,0,0,1,1.114-4.533,6.778,6.778,0,0,1,.794-.969,1.793,1.793,0,0,1,1.121-.62.952.952,0,0,1,.645.218,1.756,1.756,0,0,1,.4.48c.194.345.338.669.5.994.616,1.294,1.115,2.484,1.506,3.494s.671,1.84.852,2.418a4.641,4.641,0,0,1,.24.91,5.393,5.393,0,0,1-.366-.866c-.219-.562-.534-1.377-.95-2.372s-.937-2.168-1.565-3.447c-.158-.315-.318-.658-.494-.964a.87.87,0,0,0-.747-.532,1.5,1.5,0,0,0-.894.525,6.6,6.6,0,0,0-.751.918,6.7,6.7,0,0,0-1.086,4.312,12.336,12.336,0,0,0,1.173,3.544,5.608,5.608,0,0,1,.5,2.53,2.794,2.794,0,0,1-.141.692c-.055.152-.1.226-.106.222" transform="translate(-135.812 -72.476)" fill="#7c5246"/>
        <path id="Trazado_264595" data-name="Trazado 264595" d="M399.533,185.275a6.976,6.976,0,0,0-.518,2.416,8.673,8.673,0,0,0,.389,2.65c.291.96.8,2,1.107,3.16a6.422,6.422,0,0,1,.155,3.389,10,10,0,0,1-1.261,2.459,5.4,5.4,0,0,0-.736,1.645c-.088.417-.069.66-.1.662a1.467,1.467,0,0,1-.03-.685,4.881,4.881,0,0,1,.658-1.744,10.64,10.64,0,0,0,1.166-2.417,6.288,6.288,0,0,0-.179-3.219c-.3-1.137-.788-2.15-1.08-3.164a8.362,8.362,0,0,1-.328-2.746,5.25,5.25,0,0,1,.41-1.819,1.775,1.775,0,0,1,.349-.587" transform="translate(-136.952 -63.67)" fill="#7c5246"/>
        <path id="Trazado_264596" data-name="Trazado 264596" d="M366.634,292.735a2.36,2.36,0,0,1-.459-.517,10.424,10.424,0,0,1-.994-1.6,12.036,12.036,0,0,1-1.268-6.057,10.417,10.417,0,0,1,2.3-5.735,13.6,13.6,0,0,1,1.25-1.409,2.491,2.491,0,0,1,.525-.449c.045.042-.662.729-1.581,2a10.779,10.779,0,0,0-2.15,5.61,12.63,12.63,0,0,0,1.145,5.933c.659,1.426,1.288,2.188,1.235,2.226" transform="translate(-125.053 -95.179)" fill="#7c5246"/>
        <path id="Trazado_264597" data-name="Trazado 264597" d="M399.444,260.746a3.437,3.437,0,0,1-1.6.009,8.891,8.891,0,0,1-3.544-1.521,25.489,25.489,0,0,1-2.953-2.466,2.55,2.55,0,0,1-.675-.979c-.089-.274-.056-.437-.039-.436s.043.151.162.387a2.866,2.866,0,0,0,.717.853c.75.616,1.766,1.521,2.98,2.36a9.93,9.93,0,0,0,3.4,1.566c.941.213,1.552.171,1.554.229" transform="translate(-134.235 -87.752)" fill="#7c5246"/>
        <path id="Trazado_264598" data-name="Trazado 264598" d="M395.082,206.407c-.057.077-.561-.2-1.176-.549s-1.114-.633-1.078-.722.612.065,1.246.425,1.063.773,1.008.847" transform="translate(-134.996 -70.487)" fill="#7c5246"/>
        <path id="Trazado_264599" data-name="Trazado 264599" d="M379.925,205.152c.043-.007.15.305.2.837a3.8,3.8,0,0,1-.371,2.057,2.6,2.6,0,0,1-1.63,1.322c-.546.128-.882-.014-.87-.047.006-.057.334-.012.8-.184a2.668,2.668,0,0,0,1.4-1.249,4.416,4.416,0,0,0,.433-1.893,3.1,3.1,0,0,1,.044-.843" transform="translate(-129.643 -70.501)" fill="#7c5246"/>
        <path id="Trazado_264600" data-name="Trazado 264600" d="M262.422,110.292a.7.7,0,0,1,.035-.177c.035-.134.081-.3.137-.511l.539-1.958a29.446,29.446,0,0,0,1.175-7.33,14.047,14.047,0,0,0-.874-5.007,9.773,9.773,0,0,0-3.418-4.617c-1.684-1.193-3.848-1.706-5.958-2.574a8.561,8.561,0,0,1-2.963-1.873,5.368,5.368,0,0,1-1.431-3.311,12.287,12.287,0,0,1,.4-3.58c.259-1.149.581-2.258.752-3.368a14.631,14.631,0,0,0-.4-6.407,14.871,14.871,0,0,0-2.658-5.182,13.211,13.211,0,0,0-1.843-1.909,13.7,13.7,0,0,0-1.99-1.431A15.337,15.337,0,0,0,236.9,58.9a16.464,16.464,0,0,0-2.023.024l-.526.045a.711.711,0,0,1-.18,0,11.091,11.091,0,0,1,2.734-.2,15.14,15.14,0,0,1,7.145,2.081,13.684,13.684,0,0,1,2.037,1.438,13.316,13.316,0,0,1,1.893,1.932,15.077,15.077,0,0,1,2.74,5.272,14.885,14.885,0,0,1,.431,6.548c-.345,2.258-1.282,4.5-1.144,6.868a5.027,5.027,0,0,0,1.338,3.1,8.254,8.254,0,0,0,2.845,1.8c2.069.86,4.261,1.38,6.01,2.626a10.034,10.034,0,0,1,3.5,4.774,14.188,14.188,0,0,1,.849,5.108,28.2,28.2,0,0,1-1.288,7.364c-.249.847-.457,1.5-.6,1.942l-.169.5a.7.7,0,0,1-.069.167" transform="translate(-80.473 -20.194)" fill="#263238"/>
        <path id="Trazado_264601" data-name="Trazado 264601" d="M233.787,202.148l-33.671-8.5c.045,10.128-2.98,21.738-19.841,21.313-15.822-.4-18.227-20.7-18.227-20.7l-33.184,7.157a26.493,26.493,0,0,0-13.684,7.744L95.744,232.133l15.935,30.13,17.046-13.388,1.369.156,6.061,44.244L131.111,337.7H231.389l-11.577-42.684,10.059-47.7,13.315,9.459c7.712-8.454,19.841-24.3,19.841-24.3L240.2,206.624a11.046,11.046,0,0,0-6.416-4.476" transform="translate(-32.903 -66.549)" fill="#00c496"/>
        <path id="Trazado_264602" data-name="Trazado 264602" d="M141.418,256.612a2.734,2.734,0,0,1,.083-.486c.076-.347.177-.8.3-1.377.14-.6.3-1.326.464-2.18s.379-1.819.547-2.9c.186-1.078.387-2.258.547-3.534.194-1.271.324-2.639.478-4.075.259-2.878.436-6.052.439-9.388-.016-3.336-.205-6.51-.476-9.388-.161-1.436-.3-2.8-.495-4.073-.165-1.275-.37-2.455-.561-3.532-.171-1.08-.391-2.045-.558-2.9s-.331-1.583-.473-2.178l-.308-1.375a2.705,2.705,0,0,1-.085-.486,2.6,2.6,0,0,1,.152.469q.141.515.371,1.361c.161.591.348,1.318.53,2.169s.422,1.814.609,2.894c.207,1.077.426,2.258.6,3.535.211,1.272.358,2.642.528,4.082.288,2.885.488,6.071.5,9.419,0,3.347-.19,6.533-.467,9.419-.164,1.441-.305,2.811-.511,4.084-.173,1.278-.389,2.459-.591,3.537-.182,1.081-.415,2.046-.6,2.9s-.362,1.58-.522,2.171l-.365,1.363a2.7,2.7,0,0,1-.15.469" transform="translate(-48.566 -71.734)" fill="#00c496"/>
        <path id="Trazado_264603" data-name="Trazado 264603" d="M214.227,322.1c-.383.855-3.074.6-7.094-.634a89.539,89.539,0,0,1-28.405-15.752c-3.18-2.755-4.818-4.9-4.3-5.682,1.084-1.575,10.239,2.879,21.094,8.878,10.834,6.028,19.463,11.436,18.7,13.189" transform="translate(-59.911 -102.998)" fill="#00c496"/>
        <path id="Trazado_264604" data-name="Trazado 264604" d="M140.9,250.747a1.538,1.538,0,0,1-.123-.352l-.287-1.025c-.237-.893-.6-2.18-1.063-3.763-.929-3.168-2.353-7.5-4.248-12.171s-3.911-8.764-5.458-11.681c-.772-1.459-1.412-2.632-1.866-3.437l-.511-.934a1.532,1.532,0,0,1-.158-.338,1.517,1.517,0,0,1,.217.3l.566.9c.489.784,1.163,1.941,1.964,3.389a110.773,110.773,0,0,1,9.725,23.9c.437,1.595.763,2.894.96,3.8.091.421.165.766.224,1.041a1.5,1.5,0,0,1,.056.368" transform="translate(-43.707 -74.588)" fill="#263238"/>
        <path id="Trazado_264605" data-name="Trazado 264605" d="M238.24,196.379a.907.907,0,0,1,.036.2l.072.586a16.108,16.108,0,0,1,.095,2.268,20.5,20.5,0,0,1-.4,3.574,22.454,22.454,0,0,1-9.405,13.913,26.437,26.437,0,0,1-14.371,4.382c-5.38.065-10.637-1.284-14.388-4.17a20.892,20.892,0,0,1-4.523-4.844,29.556,29.556,0,0,1-2.749-5.077,57.5,57.5,0,0,1-2.6-7.927c-.235-.937-.419-1.674-.551-2.2-.054-.238-.1-.427-.132-.575a.1.1,0,1,1,.033-.009l.165.567c.146.522.351,1.252.612,2.181a62.176,62.176,0,0,0,2.694,7.868,29.73,29.73,0,0,0,2.761,5.012,20.728,20.728,0,0,0,4.48,4.753c3.686,2.818,8.874,4.144,14.192,4.081a26.269,26.269,0,0,0,14.2-4.3,22.47,22.47,0,0,0,9.394-13.691,21.34,21.34,0,0,0,.458-3.538,18.806,18.806,0,0,0-.031-2.259c-.015-.243-.028-.437-.037-.587a.9.9,0,0,1,0-.2" transform="translate(-65.047 -67.461)" fill="#263238"/>
        <path id="Trazado_264606" data-name="Trazado 264606" d="M176.8,251.251a10.086,10.086,0,0,0-2.114-3.481,4.08,4.08,0,0,0-3.738-1.195c-1.319.344-2.421,1.556-3.779,1.424-1.807-.176-2.549-2.511-4.172-3.323a2.891,2.891,0,0,0-3.962,2.1,3.375,3.375,0,0,0-1.561,2.029,1.7,1.7,0,0,0,1.111,2.132c1.137.206,2.115-1.119,3.259-.96,1.279.177,1.607,1.931,2.661,2.677,1.233.874,2.917.1,4.222-.662s3.022-1.5,4.216-.568a5.725,5.725,0,0,1,1.268,2.012c.376.706,1.055,1.4,1.846,1.283a1.591,1.591,0,0,0,1.2-1.485,4.32,4.32,0,0,0-.456-1.987" transform="translate(-54.095 -83.998)" fill="#fff"/>
        <path id="Trazado_264607" data-name="Trazado 264607" d="M218.695,388.055a10.1,10.1,0,0,0-2.114-3.481,4.081,4.081,0,0,0-3.738-1.195c-1.319.345-2.421,1.557-3.779,1.424-1.807-.177-2.549-2.511-4.172-3.323a2.89,2.89,0,0,0-3.962,2.106,3.368,3.368,0,0,0-1.561,2.028,1.7,1.7,0,0,0,1.111,2.131c1.137.207,2.115-1.118,3.259-.96,1.279.178,1.607,1.931,2.661,2.677,1.233.874,2.917.1,4.222-.662s3.022-1.5,4.216-.569a5.737,5.737,0,0,1,1.268,2.012c.376.707,1.055,1.4,1.846,1.283a1.59,1.59,0,0,0,1.2-1.485,4.329,4.329,0,0,0-.456-1.987" transform="translate(-68.491 -131.011)" fill="#fff"/>
        <path id="Trazado_264608" data-name="Trazado 264608" d="M114.745,279.643a6.857,6.857,0,0,0,1.77,2.123,2.77,2.77,0,0,0,2.629.425c.851-.364,1.468-1.289,2.392-1.337,1.23-.064,1.963,1.428,3.135,1.81a1.961,1.961,0,0,0,2.447-1.812,2.288,2.288,0,0,0,.843-1.519,1.151,1.151,0,0,0-.96-1.318c-.783-.024-1.306.964-2.09.972-.876.01-1.273-1.133-2.055-1.528-.916-.462-1.968.226-2.767.87s-1.878,1.308-2.772.807a3.9,3.9,0,0,1-1.054-1.223,1.365,1.365,0,0,0-1.368-.675,1.08,1.08,0,0,0-.655,1.117,2.939,2.939,0,0,0,.507,1.288" transform="translate(-39.258 -95.261)" fill="#fff"/>
        <path id="Trazado_264609" data-name="Trazado 264609" d="M227.509,318.921a6.848,6.848,0,0,0-1.435-2.362,2.768,2.768,0,0,0-2.536-.811c-.9.234-1.643,1.056-2.564.966-1.226-.119-1.156-1.436-2.258-1.987l-4.262,2.3c-.165.589.093,1.573.694,1.683.771.14,1.435-.759,2.212-.651.868.121,1.09,1.31,1.806,1.817.837.593,1.98.068,2.865-.45s2.051-1.015,2.861-.386a3.891,3.891,0,0,1,.86,1.365c.255.48.716.952,1.253.871a1.08,1.08,0,0,0,.814-1.008,2.943,2.943,0,0,0-.31-1.349" transform="translate(-73.681 -108.157)" fill="#fff"/>
        <path id="Trazado_264610" data-name="Trazado 264610" d="M169.909,198.536c-.372.9-.463,2.367-1.037,3.156s-1.67.051-2.522,1.182A13.847,13.847,0,0,0,166,214.7c.622,1.4,1.794,2.851,3.315,2.715a3.745,3.745,0,0,0,1.966-.984c1.78-1.471,3.266-3.867,2.388-6-.47-1.143-1.516-1.935-2.22-2.95s-.954-2.613.043-3.343c1.136-.832,3.049.076,4-.96s-.1-2.874.685-4.038c.815-1.218,2.432-1.922,3.643-2.747Z" transform="translate(-56.649 -67.489)" fill="#fff"/>
        <path id="Trazado_264611" data-name="Trazado 264611" d="M234.464,243.877a3.311,3.311,0,0,0-3.868,1.411c-.494.745-.906,1.751-1.794,1.859-.341.042-.685-.072-1.029-.061a2.347,2.347,0,0,0-1.857,1.642,11.071,11.071,0,0,1-1,2.413c-.515.707-1.5.045-2.258,1.059a12.4,12.4,0,0,0-.312,10.584c.556,1.249,1.605,2.552,2.967,2.43a3.346,3.346,0,0,0,1.76-.881c1.594-1.317,2.924-3.462,2.138-5.374a15.448,15.448,0,0,0-1.988-2.641c-.631-.91-.854-2.339.039-2.993,1.017-.746,2.73.068,3.583-.86s-.085-2.573.613-3.615c.729-1.09,2.512-.608,3.595-1.347,1.231-.841.782-3.029-.585-3.626" transform="translate(-76.052 -83.738)" fill="#fff"/>
        <path id="Trazado_264612" data-name="Trazado 264612" d="M183.964,344.085A3.311,3.311,0,0,0,180.1,345.5c-.494.745-.906,1.752-1.794,1.859-.342.042-.685-.072-1.029-.061a2.347,2.347,0,0,0-1.857,1.642,11.071,11.071,0,0,1-1,2.413c-.515.707-1.5.045-2.258,1.059a12.393,12.393,0,0,0-.312,10.584c.556,1.249,1.605,2.552,2.967,2.43a3.346,3.346,0,0,0,1.76-.881c1.594-1.317,2.924-3.462,2.138-5.374a15.447,15.447,0,0,0-1.988-2.641c-.631-.91-.853-2.339.039-2.993,1.017-.746,2.73.068,3.583-.86s-.085-2.573.613-3.615c.729-1.09,2.512-.608,3.595-1.347,1.232-.841.782-3.029-.585-3.626" transform="translate(-58.698 -118.175)" fill="#fff"/>
        <path id="Trazado_264613" data-name="Trazado 264613" d="M297.41,240.155a3.31,3.31,0,0,0,2.59,3.2c.865.226,1.951.289,2.341,1.094.15.31.154.671.276.992a2.346,2.346,0,0,0,2.155,1.224,11.051,11.051,0,0,1,2.608.167c.836.257.528,1.4,1.733,1.792a12.4,12.4,0,0,0,10.113-3.139c1-.932,1.893-2.347,1.336-3.6a3.352,3.352,0,0,0-1.4-1.378c-1.762-1.08-4.224-1.642-5.777-.278a15.431,15.431,0,0,0-1.854,2.737c-.656.892-1.936,1.567-2.844.935-1.034-.719-.821-2.6-1.976-3.11s-2.406.916-3.618.594c-1.267-.337-1.389-2.18-2.441-2.964-1.2-.892-3.118.244-3.24,1.73" transform="translate(-102.203 -81.827)" fill="#fff"/>
        <path id="Trazado_264614" data-name="Trazado 264614" d="M182.433,296a2.537,2.537,0,0,0-2.961-1.473c-1.866.536-2.718,3.107-4.647,3.322-1.281.142-2.71-.836-3.771-.1-.611.422-.813,1.275-1.431,1.687a1.71,1.71,0,0,1-2.256-.6,2.893,2.893,0,0,1-.169-2.5,9.005,9.005,0,0,1,2.432-3.275c.447-.442,1.034-.92,1.632-.73.347.11.588.422.905.6.972.551,2.236-.436,2.387-1.544s-.4-1.794-.973-2.756a7.034,7.034,0,0,0-2.605-1.716,2.4,2.4,0,0,0-2.767.908c-.255.468-.288,1.036-.559,1.5-.753,1.279-2.687.981-4.006,1.661a2.915,2.915,0,0,0-.291,4.747,8.828,8.828,0,0,0-1.192,4.48,3.454,3.454,0,0,0,2.807,3.278c.786.067,1.579-.23,2.356-.093a6.142,6.142,0,0,1,2.324,1.387,2.328,2.328,0,0,0,2.534.412c1.14-.756.894-2.988,2.237-3.249,1.177-.228,2.441,1.468,3.34.674.548-.484.237-1.407.523-2.08.444-1.041,1.928-.956,2.944-1.454a2.537,2.537,0,0,0,1.207-3.08" transform="translate(-55.722 -98.562)" fill="#fff"/>
        <path id="Trazado_264615" data-name="Trazado 264615" d="M262.711,350.3a2.537,2.537,0,0,0-2.961-1.473c-1.865.536-2.718,3.107-4.647,3.322-1.281.142-2.71-.836-3.771-.1-.611.422-.813,1.275-1.431,1.687a1.711,1.711,0,0,1-2.256-.6,2.893,2.893,0,0,1-.169-2.5,9,9,0,0,1,2.432-3.275c.447-.442,1.034-.92,1.632-.73.347.11.588.422.905.6.972.551,2.237-.436,2.388-1.544s-.4-1.794-.973-2.756a7.029,7.029,0,0,0-2.605-1.716,2.4,2.4,0,0,0-2.767.908c-.255.468-.288,1.036-.559,1.5-.753,1.278-2.687.981-4.006,1.661a2.915,2.915,0,0,0-.291,4.747,8.834,8.834,0,0,0-1.192,4.48,3.454,3.454,0,0,0,2.807,3.278c.786.067,1.579-.23,2.356-.093a6.143,6.143,0,0,1,2.324,1.387,2.328,2.328,0,0,0,2.533.412c1.14-.756.894-2.988,2.237-3.249,1.177-.228,2.441,1.468,3.34.674.548-.484.237-1.407.523-2.08.444-1.041,1.928-.956,2.944-1.454a2.537,2.537,0,0,0,1.207-3.08" transform="translate(-83.309 -117.222)" fill="#fff"/>
        <path id="Trazado_264616" data-name="Trazado 264616" d="M269.032,392.271a2.5,2.5,0,0,0,2.509-2.591c-.1-1.2-1.065-2.449-.427-3.466.517-.821,1.757-.839,2.417-1.55.975-1.052.21-3.026,1.245-4.02a3.008,3.008,0,0,1,2.168-.546c.9.009,1.975.118,2.4.913a1.857,1.857,0,0,1-.582,2.124,12.772,12.772,0,0,1-2.012,1.246,2.556,2.556,0,0,0-1.361,1.833,5.1,5.1,0,0,0,.7,2.124c.28.7.253,1.69-.436,2a5.784,5.784,0,0,0-.873.268c-.357.232-.416.718-.578,1.112-.519,1.269-2.123,1.609-3.483,1.773a2.454,2.454,0,0,1-1-.018.837.837,0,0,1-.63-.7c-.013-.336.364-.657.666-.51" transform="translate(-92.454 -130.621)" fill="#fff"/>
        <path id="Trazado_264617" data-name="Trazado 264617" d="M159.874,401.634c-.322-1.013-1.514-1.143-2.5-1.153a3.012,3.012,0,0,0-2.168.547c-1.035.994-.27,2.967-1.246,4.02a2.231,2.231,0,0,1-.659.461,4.586,4.586,0,0,0-2.386,2.8l-.137.469h5.866c-.279-.7-.881-1.432-.828-2.184a2.556,2.556,0,0,1,1.361-1.833,6.95,6.95,0,0,0,2.451-1.752,1.625,1.625,0,0,0,.243-1.378" transform="translate(-51.816 -137.626)" fill="#fff"/>
        <path id="Trazado_264618" data-name="Trazado 264618" d="M121.592,235.89c-.423-.795-1.5-.9-2.4-.913a3.008,3.008,0,0,0-2.168.547c-1.035.994-.27,2.967-1.246,4.02-.659.711-1.9.729-2.416,1.55-.639,1.015.326,2.27.426,3.466.131,1.476-.6,1.9-1.777,2.266a.7.7,0,0,0-.672.818.837.837,0,0,0,.629.7,2.454,2.454,0,0,0,1,.017c1.361-.163,2.965-.5,3.484-1.772.161-.394.22-.88.577-1.113a5.78,5.78,0,0,1,.873-.268c.69-.305.716-1.294.437-2a5.094,5.094,0,0,1-.706-2.124A2.561,2.561,0,0,1,119,239.26a12.74,12.74,0,0,0,2.012-1.246,1.856,1.856,0,0,0,.582-2.124" transform="translate(-38.263 -80.75)" fill="#fff"/>
        <g id="Grupo_870957" data-name="Grupo 870957" transform="translate(159.284 199.079)" opacity="0.3">
          <g id="Grupo_870956" data-name="Grupo 870956">
            <g id="Grupo_870955" data-name="Grupo 870955" clip-path="url(#clip-path-4)">
              <path id="Trazado_264619" data-name="Trazado 264619" d="M245.946,307.839a24.584,24.584,0,0,0-3.2,14.027,6.219,6.219,0,0,0,.647,2.635,2.542,2.542,0,0,0,2.2,1.38c1.6-.075,2.7-2.078,4.3-1.951a2.431,2.431,0,0,1,1.88,1.507,9.04,9.04,0,0,1,.561,2.455,23.113,23.113,0,0,0,2.5,7.511c1.252,2.326,3.122,4.574,5.7,5.141,2.929.643,5.965-1.145,7.675-3.608s2.369-5.486,2.951-8.428q2.472-12.512,3.951-25.194Z" transform="translate(-242.683 -303.314)"/>
            </g>
          </g>
        </g>
        <g id="Grupo_870960" data-name="Grupo 870960" transform="translate(184.858 132.134)" opacity="0.3">
          <g id="Grupo_870959" data-name="Grupo 870959">
            <g id="Grupo_870958" data-name="Grupo 870958" clip-path="url(#clip-path-5)">
              <path id="Trazado_264620" data-name="Trazado 264620" d="M290.209,217.431c0-3.62.534-7.312-.374-10.816a6.824,6.824,0,0,0-7.328-5.288,65.339,65.339,0,0,0,1.505,28.077c2.075,7.714,5.458,15.187,5.893,23.164l2.93,1.789c.195-1.235.725-3.167.92-4.4a8.053,8.053,0,0,0,7.6.379c-5.5-10.332-11.138-21.2-11.147-32.9" transform="translate(-281.646 -201.318)"/>
            </g>
          </g>
        </g>
        <path id="Trazado_264621" data-name="Trazado 264621" d="M247.687,249.371a1.146,1.146,0,0,1-.159-.165l-.44-.507c-.383-.45-.943-1.118-1.634-2a35.411,35.411,0,0,1-2.345-3.355,18.9,18.9,0,0,1-2.176-4.971,12.478,12.478,0,0,1-.4-3.145,13.762,13.762,0,0,1,.469-3.4c.278-1.153.646-2.317.928-3.534a12.041,12.041,0,0,0,.364-3.793,14.67,14.67,0,0,0-.971-3.895c-.494-1.288-1.1-2.57-1.664-3.9a20.024,20.024,0,0,1-1.365-4.212,16.106,16.106,0,0,1-.156-4.562,55,55,0,0,1,1.922-8.743,43.831,43.831,0,0,0,1.361-8.165A66.438,66.438,0,0,0,240.7,177c-.57-3.967-1.134-7.165-1.471-9.383-.176-1.108-.3-1.97-.378-2.555-.037-.278-.066-.5-.088-.666a1.15,1.15,0,0,1-.018-.229,1.172,1.172,0,0,1,.053.224c.03.167.07.385.121.662.105.6.253,1.455.442,2.543.377,2.211.977,5.4,1.579,9.371a65.338,65.338,0,0,1,.8,14.069,43.764,43.764,0,0,1-1.351,8.229,55.324,55.324,0,0,0-1.905,8.689,15.831,15.831,0,0,0,.15,4.466,19.755,19.755,0,0,0,1.34,4.144c.561,1.324,1.165,2.61,1.661,3.916a14.906,14.906,0,0,1,.98,3.985,12.315,12.315,0,0,1-.385,3.888c-.291,1.229-.666,2.392-.946,3.531a13.549,13.549,0,0,0-.48,3.338,12.317,12.317,0,0,0,.369,3.085,18.9,18.9,0,0,0,2.106,4.93,37.175,37.175,0,0,0,2.287,3.374c.673.9,1.216,1.577,1.581,2.041l.414.528a1.173,1.173,0,0,1,.133.188" transform="translate(-81.805 -56.417)" fill="#263238"/>
        <path id="Trazado_264622" data-name="Trazado 264622" d="M227.446,295.306a1.66,1.66,0,0,1-.234.314l-.723.858c-.313.373-.7.822-1.187,1.319s-1.006,1.086-1.643,1.682-1.311,1.271-2.089,1.939c-.755.693-1.616,1.372-2.511,2.1a57.638,57.638,0,0,1-12.863,7.648c-1.067.439-2.074.87-3.044,1.2-.959.365-1.869.652-2.7.909-.827.276-1.595.459-2.262.641s-1.248.316-1.726.413l-1.1.225a1.671,1.671,0,0,1-.388.055,1.765,1.765,0,0,1,.373-.123l1.082-.287c.472-.116,1.047-.265,1.707-.468s1.421-.4,2.24-.687c.824-.27,1.727-.57,2.676-.944.962-.343,1.96-.781,3.017-1.225a60.686,60.686,0,0,0,12.8-7.608c.9-.716,1.758-1.384,2.518-2.065.783-.655,1.477-1.3,2.108-1.9.645-.581,1.183-1.154,1.673-1.64s.9-.917,1.227-1.276l.769-.814a1.7,1.7,0,0,1,.286-.269" transform="translate(-67.004 -101.483)" fill="#263238"/>
        <path id="Trazado_264623" data-name="Trazado 264623" d="M306.593,213c.093.019-1.576,8.6-3.725,19.167s-3.969,19.119-4.061,19.1,1.576-8.6,3.726-19.168,3.968-19.117,4.061-19.1" transform="translate(-102.684 -73.198)" fill="#263238"/>
        <g id="Grupo_870963" data-name="Grupo 870963" transform="translate(130.158 195.139)" opacity="0.3">
          <g id="Grupo_870962" data-name="Grupo 870962">
            <g id="Grupo_870961" data-name="Grupo 870961" clip-path="url(#clip-path-6)">
              <path id="Trazado_264624" data-name="Trazado 264624" d="M198.307,314.857s13.183,1.527,18.763-1.8a21.875,21.875,0,0,0,10.33-15.746s-11.717,13.78-29.093,17.546" transform="translate(-198.307 -297.311)"/>
            </g>
          </g>
        </g>
        <g id="Grupo_870966" data-name="Grupo 870966" transform="translate(124.942 132.154)" opacity="0.3">
          <g id="Grupo_870965" data-name="Grupo 870965">
            <g id="Grupo_870964" data-name="Grupo 870964" clip-path="url(#clip-path-7)">
              <path id="Trazado_264625" data-name="Trazado 264625" d="M190.36,201.347c1.283,4.893,2.838,9.784,5.524,14.071s6.626,7.958,11.458,9.457,10.576.5,14.04-3.186c-8.632,2.039-23.444,4.285-31.022-20.341" transform="translate(-190.36 -201.347)"/>
            </g>
          </g>
        </g>
        <path id="Trazado_264626" data-name="Trazado 264626" d="M279.949,181.629s-.077-.072-.215-.224l-.605-.682a20.764,20.764,0,0,1-4.043-8.032,20.4,20.4,0,0,1-.6-3.416,19.645,19.645,0,0,1,0-3.89,35.816,35.816,0,0,1,2.274-8.595c1.046-2.994,2.119-6.306,1.868-9.887a18.212,18.212,0,0,0-3.929-10.265,55.919,55.919,0,0,0-4.13-4.267,16.813,16.813,0,0,1-3.695-4.931,15.759,15.759,0,0,1-1.311-6.023,44.989,44.989,0,0,1,.3-5.973c.2-1.945.429-3.85.524-5.721a35.638,35.638,0,0,0-.146-5.484,44.813,44.813,0,0,0-2.238-9.892,63.467,63.467,0,0,0-3.473-8.15c-2.461-4.837-4.849-8.537-6.462-11.107l-1.88-2.95-.484-.77c-.108-.175-.156-.269-.156-.269s.068.081.184.249l.513.752,1.934,2.915a124.1,124.1,0,0,1,6.565,11.07,62.911,62.911,0,0,1,3.527,8.168,44.866,44.866,0,0,1,2.283,9.952,35.829,35.829,0,0,1,.159,5.533c-.093,1.886-.318,3.8-.517,5.738a44.832,44.832,0,0,0-.3,5.927,15.451,15.451,0,0,0,1.282,5.893,16.514,16.514,0,0,0,3.624,4.833,55.687,55.687,0,0,1,4.151,4.3,18.5,18.5,0,0,1,3.983,10.457,18.3,18.3,0,0,1-.468,5.251,43.826,43.826,0,0,1-1.447,4.747,35.833,35.833,0,0,0-2.3,8.525,19.529,19.529,0,0,0-.027,3.847,20.408,20.408,0,0,0,.567,3.388,21.279,21.279,0,0,0,2,5.123,22.941,22.941,0,0,0,1.916,2.913l.578.7c.129.16.188.247.188.247" transform="translate(-86.448 -24.434)" fill="#263238"/>
        <path id="Trazado_264627" data-name="Trazado 264627" d="M275.231,211.581a9.2,9.2,0,0,0,9.925,2.6c-4.6-3.838-7.518-9.371-9.263-15.1s-2.415-11.72-3.225-17.654c-2.976-21.8-12.355-53.841-14.436-77.6L239.408,144.7c1.553,9.392,7.866,25.856,4.011,33.847s-3.83,22.708-2.708,31.508c1.006,7.89,7.4,13.56,6,21.39-.751,4.207-3.328,7.831-4.884,11.81s-1.821,9.1,1.359,11.955c.8-2.738,1.687-5.627,3.811-7.53s5.909-2.246,7.589.059c2.31,3.169-.973,8.178,1.271,11.394,1.065,1.526,3.061,2.09,4.917,2.215,6.9.461,13.556-3.883,17.065-9.84s4.21-13.24,3.271-20.09-3.4-13.386-5.884-19.838" transform="translate(-82.273 -35.68)" fill="#263238"/>
        <path id="Trazado_264628" data-name="Trazado 264628" d="M261.59,169.306a105.425,105.425,0,0,0-.215-10.944,19.384,19.384,0,0,0-3.766-10.127c-2.043-2.528-4.93-4.264-6.991-6.777-3.024-3.689,1.772-11.271,2.169-16.025s-3.737-6.779-2.148-11.275l-8.872,8.251c-2.882,10.556-4.294,22.278-1.262,32.792s10.551,20.72,9.654,31.626c-.444,5.4-1.98,10.693-2.064,16.111s1.651,11.325,6.193,14.281c3.15-7.058,6.334-14.226,7.467-21.871,1.275-8.6-.109-17.347-.165-26.041" transform="translate(-82.067 -39.231)" fill="#263238"/>
        <path id="Trazado_264629" data-name="Trazado 264629" d="M253.462,232.084s-.066-.093-.179-.282-.285-.484-.5-.847a22.565,22.565,0,0,1-1.53-3.453,26.93,26.93,0,0,1-1.22-5.848,36.451,36.451,0,0,1,.154-7.912,54.138,54.138,0,0,1,2.094-9.361c1.023-3.3,2.337-6.74,3.693-10.366a102.372,102.372,0,0,0,3.744-11.533,47.636,47.636,0,0,0,1.113-6.3,42.9,42.9,0,0,0,.165-6.584,44.07,44.07,0,0,0-8.1-23.412c-2.217-3.166-4.535-6.043-6.33-9a28.376,28.376,0,0,1-2.248-4.468,20.655,20.655,0,0,1-1.19-4.46c-.413-2.92-.326-5.583-.445-7.9a15.756,15.756,0,0,0-1.132-5.8,14.272,14.272,0,0,0-1.906-3.226c-.269-.335-.477-.59-.625-.755s-.211-.259-.211-.259a11.066,11.066,0,0,1,.89.971,13.74,13.74,0,0,1,1.975,3.217,15.74,15.74,0,0,1,1.2,5.84c.137,2.325.069,4.987.494,7.874a23.436,23.436,0,0,0,3.441,8.816c1.791,2.933,4.113,5.8,6.346,8.97a44.2,44.2,0,0,1,8.185,23.575,42.907,42.907,0,0,1-.167,6.636,47.693,47.693,0,0,1-1.126,6.347,101.709,101.709,0,0,1-3.774,11.564c-1.365,3.626-2.688,7.059-3.718,10.341a54.288,54.288,0,0,0-2.125,9.307,36.685,36.685,0,0,0-.2,7.864,27.3,27.3,0,0,0,1.157,5.824,24.238,24.238,0,0,0,1.464,3.463c.2.369.356.655.467.862s.15.3.15.3" transform="translate(-82.067 -37.909)" fill="#455a64"/>
        <path id="Trazado_264630" data-name="Trazado 264630" d="M263.636,166.408a1.866,1.866,0,0,1-.018-.291c0-.207-.011-.491-.019-.854a24.3,24.3,0,0,0-.341-3.261,26.877,26.877,0,0,0-1.462-4.968,47.78,47.78,0,0,0-3.057-6.153l-4.224-7.2c-1.508-2.6-3.147-5.358-4.707-8.359a50.5,50.5,0,0,1-3.985-9.831,33.55,33.55,0,0,1-1-5.534c-.188-1.9-.236-3.828-.251-5.778a78.138,78.138,0,0,0-.5-11.33,20.861,20.861,0,0,0-3.784-9.688,21.268,21.268,0,0,0-7.548-5.668c-2.682-1.33-5.286-2.377-7.54-3.6a20.872,20.872,0,0,1-5.562-4.075A12.821,12.821,0,0,1,216.9,75.39a9.114,9.114,0,0,1-.553-3.242,5.938,5.938,0,0,1,.064-.854A1.892,1.892,0,0,1,216.46,71c.028,0-.053.394-.041,1.143a9.393,9.393,0,0,0,.608,3.2,12.833,12.833,0,0,0,2.747,4.339,20.882,20.882,0,0,0,5.536,3.993c2.247,1.2,4.849,2.231,7.553,3.557a21.477,21.477,0,0,1,7.669,5.727,21.124,21.124,0,0,1,3.867,9.83,77.791,77.791,0,0,1,.509,11.378c.015,1.945.062,3.867.248,5.747a33.268,33.268,0,0,0,.989,5.48,50.564,50.564,0,0,0,3.941,9.775c1.548,2.994,3.175,5.758,4.673,8.361l4.189,7.228a47.111,47.111,0,0,1,3.024,6.2,26.365,26.365,0,0,1,1.416,5.015,22.218,22.218,0,0,1,.278,3.282c-.007.364-.011.648-.015.856a1.857,1.857,0,0,1-.016.291" transform="translate(-74.349 -24.401)" fill="#455a64"/>
      </g>
    </g>
  </g>
</svg>
