<svg xmlns="http://www.w3.org/2000/svg" width="294.737" height="237.929" viewBox="0 0 294.737 237.929">
  <g id="Grupo_870945" data-name="Grupo 870945" transform="translate(-1122.073 -4423.648)">
    <path id="Trazado_208414" data-name="Trazado 208414" d="M987.763,217.109a102.77,102.77,0,0,0-8.111-6.961c-2.252-1.461-7.3-3.47-9.192-3.652s-10.714,2.374-10.714,2.374-13.028-1.157-15.22.365-2.009,3.1-1.1,4.262,4.444.791,8.341.852a19.53,19.53,0,0,1,4.931.426L951.04,220.8l14.671,4.079,8.949-.335,3.228,4.057Z" transform="translate(193.49 4362)" fill="#ffc09d"/>
    <path id="Trazado_208415" data-name="Trazado 208415" d="M943.1,203.494l.354,12.982.628,1.613,6.4,7.807,15.624-1.03-12.447-4.85-4.425-3.363-1.711-5.547s.531-8.556-4.426-7.612" transform="translate(193.49 4362)" fill="#ffc09d"/>
    <path id="Trazado_208416" data-name="Trazado 208416" d="M944.2,218.386h-3.8s-4.964-8.165-9.508-5.392l1.045,1.613a2.819,2.819,0,0,0-3.346.8l12.524,10.986h.576l13.344-.86Z" transform="translate(193.49 4362)" fill="#ffc09d"/>
    <path id="Trazado_208417" data-name="Trazado 208417" d="M946.463,220.868a7.3,7.3,0,0,1-1.077.046,7.081,7.081,0,0,0-2.637.529l-.127.058-.083-.117c-.386-.544-.863-1.131-1.353-1.743l-2.7-3.334a10.41,10.41,0,0,1-1.073-1.422,7.635,7.635,0,0,1,1.265,1.258c.738.817,1.731,1.967,2.787,3.274.494.617.96,1.2,1.353,1.785l-.21-.059a6.4,6.4,0,0,1,2.779-.433,2.974,2.974,0,0,1,1.077.158" transform="translate(193.49 4362)" fill="#ff9b6c"/>
    <path id="Trazado_208418" data-name="Trazado 208418" d="M973.531,213.32a20.523,20.523,0,0,0-8.255,4.7,4.35,4.35,0,0,1,.924-1.082,13.692,13.692,0,0,1,5.929-3.372,4.428,4.428,0,0,1,1.4-.242" transform="translate(193.49 4362)" fill="#ff9b6c"/>
    <path id="Trazado_208419" data-name="Trazado 208419" d="M961.05,209.958a101.2,101.2,0,0,1-3.646,4.352,12.858,12.858,0,0,1,3.646-4.352" transform="translate(193.49 4362)" fill="#ff9b6c"/>
    <path id="Trazado_208420" data-name="Trazado 208420" d="M948,222.683a1.925,1.925,0,0,1-.3-.3l-.8-.9-1.259-1.437-.782-.9a9.847,9.847,0,0,1-.847-1.055,5.509,5.509,0,0,1-.889-2.973c-.021-1.107-.044-2.286-.068-3.527-.041-2.491-.086-5.224-.134-8.1l0-.158.147-.021.414-.056a3.021,3.021,0,0,1,2.525.9,5.542,5.542,0,0,1,1.209,2.28,14.965,14.965,0,0,1,.469,4.678l-.006-.057c.634,2.1,1.2,3.979,1.674,5.558l-.042-.06,3.217,2.514.854.688a1.653,1.653,0,0,1,.282.257,1.624,1.624,0,0,1-.323-.2l-.892-.638-3.283-2.427-.03-.022-.012-.038-1.748-5.535-.008-.025V211.1a14.886,14.886,0,0,0-.486-4.56,5.236,5.236,0,0,0-1.13-2.132,2.666,2.666,0,0,0-2.238-.786l-.38.051.145-.178c.037,2.875.072,5.608.1,8.1.1,2.465-.283,4.815.841,6.37a10.1,10.1,0,0,0,.808,1.045l.761.918L947,221.4l.754.941a1.873,1.873,0,0,1,.245.343" transform="translate(193.49 4362)" fill="#ff9b6c"/>
    <path id="Trazado_208421" data-name="Trazado 208421" d="M941.683,226.389a1.06,1.06,0,0,1-.665-.19,7.1,7.1,0,0,1-1.469-1.174,40.322,40.322,0,0,1-3.924-4.745c-1.416-1.942-2.616-3.755-3.459-5.084-.421-.664-.751-1.208-.972-1.589a2.462,2.462,0,0,1-.309-.613,2.7,2.7,0,0,1,.426.537l1.066,1.526c.895,1.291,2.126,3.078,3.536,5.013a54.094,54.094,0,0,0,3.816,4.779,8.706,8.706,0,0,0,1.36,1.231,5.232,5.232,0,0,0,.594.309" transform="translate(193.49 4362)" fill="#ff9b6c"/>
    <path id="Trazado_208422" data-name="Trazado 208422" d="M964.478,218.01l-6.894-.465-2.061-5.649-.379-3.8a3.621,3.621,0,0,0-3.6-3.294h-.067l.387,9.311,1.416,5.782,5.6,3.305h6.849Z" transform="translate(193.49 4362)" fill="#ffc09d"/>
    <path id="Trazado_208423" data-name="Trazado 208423" d="M964.478,218.01l-6.894-.465-2.061-5.649-.379-3.8a3.621,3.621,0,0,0-3.6-3.294h-.067l.387,9.311,1.416,5.782,5.6,3.305" transform="translate(193.49 4362)" fill="#ffc09d"/>
    <path id="Trazado_208424" data-name="Trazado 208424" d="M958.878,223.2a2.088,2.088,0,0,1-.4-.2l-1.127-.626-4.134-2.372-.045-.026-.013-.053c-.416-1.658-.908-3.616-1.45-5.775l0-.015v-.017c-.122-2.8-.26-5.964-.405-9.309l-.008-.178.182-.008c.062,0,.132,0,.2,0a3.784,3.784,0,0,1,3.55,2.911,8.014,8.014,0,0,1,.154,1.137q.054.554.107,1.094.105,1.081.2,2.108l-.009-.039,2.029,5.66-.113-.085,5.04.4,1.37.127a2.424,2.424,0,0,1,.475.069,2.317,2.317,0,0,1-.48.005l-1.375-.058-5.047-.282-.084-.005-.03-.08c-.61-1.646-1.314-3.543-2.091-5.638l-.007-.018,0-.022q-.106-1.024-.218-2.106-.055-.54-.112-1.094a7.83,7.83,0,0,0-.15-1.088,3.438,3.438,0,0,0-3.219-2.637c-.063,0-.125-.005-.185,0l.174-.186c.133,3.345.258,6.512.369,9.311l0-.031c.517,2.165.985,4.128,1.382,5.79l-.058-.078,4.075,2.47,1.094.684a2.118,2.118,0,0,1,.368.259" transform="translate(193.49 4362)" fill="#ff9b6c"/>
    <path id="Trazado_208425" data-name="Trazado 208425" d="M1112.146,108.167c-5.91-22.52-11.364-48.727-44.291-46.371,0,0-20.291,3.9-29.927,18.879-5.669,8.809-10.579,46.782-11.556,76.773v.015c-.04,1.222.468,9.734.434,10.929l87.158,7.255h15.7a154.281,154.281,0,0,0-5.718-31.343c-4.6-15.012-9.71-28.165-11.8-36.137" transform="translate(193.49 4362)" fill="#263238"/>
    <path id="Trazado_208426" data-name="Trazado 208426" d="M1063.474,70.377l2.06-1.963,22.261,8.971a6.212,6.212,0,0,1,5.867,6.016l-.195,72.53c.028,4.919-.957,9.178-3.927,13.1l-3.126,4.128c-7.129,9.411-21.793,8.636-27.436-1.733a7.852,7.852,0,0,1-.787-1.876,14.472,14.472,0,0,1-.332-1.622c-.662-5.836-.7-10.9-.7-10.9-.4-6.407-.528-9.036-.529-8.976,0,0-13.634-1.567-17.32-19.069-1.833-8.7-1.487-20.678-.972-32.463.713-16.31,12.026-26.163,25.136-26.147" transform="translate(193.49 4362)" fill="#ffc09d"/>
    <path id="Trazado_208427" data-name="Trazado 208427" d="M1069.2,108.159a2.266,2.266,0,0,0,2.3,2.174,2.165,2.165,0,0,0,2.23-2.156,2.266,2.266,0,0,0-2.293-2.175,2.168,2.168,0,0,0-2.233,2.157" transform="translate(193.49 4362)" fill="#263238"/>
    <path id="Trazado_208428" data-name="Trazado 208428" d="M1045.961,108.766a2.265,2.265,0,0,0,2.3,2.173,2.165,2.165,0,0,0,2.23-2.156,2.267,2.267,0,0,0-2.293-2.175,2.168,2.168,0,0,0-2.233,2.158" transform="translate(193.49 4362)" fill="#263238"/>
    <path id="Trazado_208429" data-name="Trazado 208429" d="M1040.666,101.185c.3.281,1.946-1.073,4.381-1.189,2.431-.151,4.28,1.013,4.529.7.124-.138-.189-.657-.995-1.184a6.224,6.224,0,0,0-3.644-.927,5.982,5.982,0,0,0-3.469,1.315c-.719.613-.947,1.159-.8,1.284" transform="translate(193.49 4362)" fill="#263238"/>
    <path id="Trazado_208430" data-name="Trazado 208430" d="M1064.815,100.356c.323.249,1.828-1.268,4.237-1.632,2.4-.4,4.361.567,4.577.232.108-.151-.253-.635-1.112-1.076a6.216,6.216,0,0,0-3.72-.548A5.978,5.978,0,0,0,1065.481,99c-.651.682-.822,1.249-.666,1.359" transform="translate(193.49 4362)" fill="#263238"/>
    <path id="Trazado_208431" data-name="Trazado 208431" d="M1056.868,119.16c.005-.139-1.522-.324-3.99-.515-.625-.034-1.22-.127-1.346-.546a3.172,3.172,0,0,1,.323-1.864l1.6-4.826c2.215-6.868,3.786-12.5,3.509-12.59s-2.3,5.41-4.514,12.278q-.8,2.54-1.522,4.851a3.6,3.6,0,0,0-.2,2.456,1.565,1.565,0,0,0,1.068.858,4.208,4.208,0,0,0,1.064.093c2.474.01,4.006-.056,4.008-.195" transform="translate(193.49 4362)" fill="#263238"/>
    <path id="Trazado_208432" data-name="Trazado 208432" d="M1056.631,148.056a44.94,44.94,0,0,0,23.311-7.487s-5.328,12.511-23.068,11.745Z" transform="translate(193.49 4362)" fill="#ff9b6c"/>
    <path id="Trazado_208433" data-name="Trazado 208433" d="M1064.477,124.111a4.012,4.012,0,0,0-2.84-1.345c-1.532-.088-2.609.105-3.427,1.307a2.5,2.5,0,0,0-.171,1.967c.178.281.045.287.318.485a9.106,9.106,0,0,0,3.307,1.445,2.95,2.95,0,0,0,3.152-.967,2.542,2.542,0,0,0-.339-2.892" transform="translate(193.49 4362)" fill="#ff9b6c"/>
    <path id="Trazado_208434" data-name="Trazado 208434" d="M1064.23,89.172c.312.623,2.411-.017,4.984-.063,2.572-.1,4.732.412,4.977-.226.106-.305-.343-.866-1.262-1.375a7.73,7.73,0,0,0-3.848-.867,7.437,7.437,0,0,0-3.741,1.088c-.862.56-1.249,1.146-1.11,1.443" transform="translate(193.49 4362)" fill="#263238"/>
    <path id="Trazado_208435" data-name="Trazado 208435" d="M1041.017,96.78c.456.531,2.1-.126,4.12-.255,2.011-.2,3.743.185,4.107-.413.159-.29-.138-.83-.911-1.316a5.978,5.978,0,0,0-6.629.538c-.684.6-.889,1.186-.687,1.446" transform="translate(193.49 4362)" fill="#263238"/>
    <path id="Trazado_208436" data-name="Trazado 208436" d="M1093.218,114.354s-9.37,2.266-22.668-26.372c-4.527-9.748-13.319-19.569-13.319-19.569l8.249-1.19s24.59,6.928,25,7.238,6.2,12.718,6.2,12.718Z" transform="translate(193.49 4362)" fill="#263238"/>
    <path id="Trazado_208437" data-name="Trazado 208437" d="M1090.145,113.208c-.062-1.314,1.3-4.487,2.588-4.755,3.438-.714,9.7-.749,10.2,8.048.682,12.024-11.531,10.229-11.572,9.885-.031-.268-.995-8.641-1.212-13.178" transform="translate(193.49 4362)" fill="#ffc09d"/>
    <path id="Trazado_208438" data-name="Trazado 208438" d="M1094.773,121.622c.05-.042.217.135.581.277a2.1,2.1,0,0,0,1.568-.057c1.243-.538,2.2-2.615,2.134-4.786a6.95,6.95,0,0,0-.756-2.967,2.42,2.42,0,0,0-1.667-1.517,1.07,1.07,0,0,0-1.205.643c-.142.346-.052.582-.115.605-.031.033-.268-.186-.2-.688a1.345,1.345,0,0,1,.431-.781,1.583,1.583,0,0,1,1.141-.371,2.951,2.951,0,0,1,2.294,1.74,7.134,7.134,0,0,1,.916,3.31c.061,2.428-1.051,4.765-2.761,5.367a2.252,2.252,0,0,1-1.935-.21c-.388-.275-.467-.541-.426-.565" transform="translate(193.49 4362)" fill="#ff9b6c"/>
    <path id="Trazado_208439" data-name="Trazado 208439" d="M1066.028,124.6c-.036.308-2.091.263-4.53.735-2.445.448-4.342,1.237-4.488.963-.15-.238,1.653-1.528,4.289-2.016,2.633-.5,4.782.042,4.729.318" transform="translate(193.49 4362)" fill="#263238"/>
    <path id="Trazado_208440" data-name="Trazado 208440" d="M1160,217.788s10.071-8.627,12.99-8.857,10.594,1.2,10.594,1.2,4.849.042,7.258-.259a18.442,18.442,0,0,1,7.567.368c.727.222,1.636,2.03-.5,3.261-.905.521-9.711,1.117-9.711,1.117l22.034,6.293-2.863,2.361a2.236,2.236,0,0,1-1.346.511L1174.3,224.9l-1.453,3.546Z" transform="translate(193.49 4362)" fill="#ffc09d"/>
    <path id="Trazado_208441" data-name="Trazado 208441" d="M1184.051,217.793h10.291s3.609-4.793,4.915-6.789c1.141-1.746,2.517-2.259,3.718-1.847a1.368,1.368,0,0,1,.73.627,1.424,1.424,0,0,1,.019,1.375L1199.2,219.6l2.371-.8s4.751-4.652,5.672-5.727,4.3-5.606,7.3-2.3l-4.147,4.608,4.147-2.918s3.3-2.842,5.068.537l-12.331,10.4" transform="translate(193.49 4362)" fill="#ffc09d"/>
    <path id="Trazado_208442" data-name="Trazado 208442" d="M1173.339,213.531a2.249,2.249,0,0,1,.411-.141,6.026,6.026,0,0,1,1.224-.282,9.842,9.842,0,0,1,4.623.481,16.187,16.187,0,0,1,2.967,1.366c.508.3,1.025.627,1.542.988l.781.557a8.359,8.359,0,0,0,.76.52c2.6.2,5.585.378,8.706.6l-.145.061c.961-1.144,1.913-2.389,2.832-3.691.359-.506.7-1.017,1.036-1.526s.645-1.033,1.012-1.52a8.244,8.244,0,0,1,1.211-1.346,3.79,3.79,0,0,1,.748-.517,1.581,1.581,0,0,1,.945-.209l-.06,0a2.161,2.161,0,0,1,1.623.39,1.794,1.794,0,0,1,.539,1.539l0,.028-.016.03-4.989,8.948.01-.025a3.143,3.143,0,0,1-1.815,1.92,5.451,5.451,0,0,1-1.938.41,12.2,12.2,0,0,1-1.23-.011,2.183,2.183,0,0,1-.422-.041,2.124,2.124,0,0,1,.423-.022c.278-.007.69-.006,1.22-.049a5.517,5.517,0,0,0,1.873-.449,2.973,2.973,0,0,0,1.669-1.818l0-.013.006-.012c1.3-2.386,2.975-5.462,4.9-9l-.019.058a1.47,1.47,0,0,0-.433-1.24,1.828,1.828,0,0,0-1.368-.3l-.015,0-.046-.007a1.378,1.378,0,0,0-.7.185,3.415,3.415,0,0,0-.678.474,7.92,7.92,0,0,0-1.155,1.291c-.679.956-1.308,2.033-2.04,3.041-.926,1.312-1.88,2.558-2.857,3.714l-.057.067-.088-.006c-3.143-.231-6.067-.41-8.754-.648a5.448,5.448,0,0,1-.867-.579l-.771-.559c-.508-.363-1.016-.69-1.513-.993a16.411,16.411,0,0,0-2.9-1.383,10.05,10.05,0,0,0-4.531-.575,7.138,7.138,0,0,0-1.223.22,2.293,2.293,0,0,1-.429.079" transform="translate(193.49 4362)" fill="#ff9b6c"/>
    <path id="Trazado_208443" data-name="Trazado 208443" d="M1214.539,210.773a2.572,2.572,0,0,1-.4.567c-.276.349-.685.846-1.195,1.454-1.021,1.218-2.449,2.883-4.043,4.708-1.621,1.8-2.969,3.552-4.154,4.636a9.677,9.677,0,0,1-1.485,1.181,1.832,1.832,0,0,1-.633.293,4.624,4.624,0,0,1,.555-.408,12.909,12.909,0,0,0,1.386-1.246c1.123-1.114,2.426-2.877,4.055-4.682,1.6-1.828,3.058-3.471,4.128-4.647.535-.588.973-1.06,1.282-1.381a2.683,2.683,0,0,1,.506-.475" transform="translate(193.49 4362)" fill="#ff9b6c"/>
    <path id="Trazado_208444" data-name="Trazado 208444" d="M1208.894,211.255a10.289,10.289,0,0,1-1.25,1.471c-.805.876-1.934,2.068-3.2,3.37-1.036,1.069-2,2.044-2.773,2.808l-.027.026-.03.01a10.988,10.988,0,0,1-2.548.658,4.172,4.172,0,0,1,.66-.272l1.8-.657-.057.036c.74-.795,1.686-1.789,2.722-2.857,1.263-1.3,2.422-2.468,3.273-3.3a10.468,10.468,0,0,1,1.431-1.294" transform="translate(193.49 4362)" fill="#ff9b6c"/>
    <path id="Trazado_208445" data-name="Trazado 208445" d="M1125.862,166.6s14.79,3.811,16.24,23.912c.827,11.453-5.268,48.241-5.268,48.241l21.841-22.431,19.464,13.544s-26.48,32.377-32.591,37.244-15.843,12.7-19.012,12.062-3.169-15.236-3.169-15.236V183.31Z" transform="translate(193.49 4362)" fill="#025fb7"/>
    <path id="Trazado_208446" data-name="Trazado 208446" d="M1019.541,169.061s-13.159,4.326-12.622,30.027.116,34.355.116,34.355l-19.719-20.869-16.381,18.068s18.326,27.227,31.151,40.459c12.084,12.469,22.826,1.641,26.317-7.125,2.829-7.1,5.1-34.1,5.1-34.1Z" transform="translate(193.49 4362)" fill="#025fb7"/>
    <path id="Trazado_208447" data-name="Trazado 208447" d="M1127.012,212.9c1.187-7.52,1.5-15.718-1.93-22.62-8.433,20.843-8.053,44.773-5.035,66.856l6.684,19.1c4.209-12.8.206-26.434.3-39.815.052-7.6-1.205-16-.018-23.522" transform="translate(193.49 4362)"/>
    <rect id="Rectángulo_38740" data-name="Rectángulo 38740" width="10.57" height="85.957" transform="translate(1311.58 4552.283)" fill="none"/>
    <path id="Trazado_208448" data-name="Trazado 208448" d="M1016.8,185.427s8.8,59.16,10.5,64.34,1.7,20.447,1.7,20.447-9.233,17.185-9.8,29.134l111.174.229-7.224-49.09a83.27,83.27,0,0,1-.164-9.32c.467-8.645,1.135-27.191,3.613-38.588,2.88-13.253-1-35.933-1-35.933l-33.208-8.179c-7.86,11.294-27.47,11.446-35.2,0l-37.478,10.594Z" transform="translate(193.49 4362)" fill="#025fb7"/>
    <path id="Trazado_208449" data-name="Trazado 208449" d="M1125.333,248.137a2.067,2.067,0,0,1,.331-.527c.232-.326.581-.786,1.021-1.348a30.947,30.947,0,0,1,3.816-4.085,19.775,19.775,0,0,1,4.707-3.022c.654-.292,1.191-.51,1.571-.636a2.08,2.08,0,0,1,.6-.169,30.981,30.981,0,0,0-6.646,4.1,40,40,0,0,0-3.854,3.976,16.873,16.873,0,0,1-1.547,1.714" transform="translate(193.49 4362)" fill="#263238"/>
    <path id="Trazado_208450" data-name="Trazado 208450" d="M1022.388,246.885c-.067.019-.326-1.2-1.166-3.009a17.8,17.8,0,0,0-11.456-9.717c-1.919-.534-3.167-.59-3.159-.659a3.538,3.538,0,0,1,.873.018,15.033,15.033,0,0,1,2.35.4,17.112,17.112,0,0,1,11.623,9.858,15.166,15.166,0,0,1,.775,2.254,3.621,3.621,0,0,1,.16.859" transform="translate(193.49 4362)" fill="#263238"/>
    <path id="Trazado_208451" data-name="Trazado 208451" d="M1023.1,214.828a1.789,1.789,0,0,1-.5-.274c-.313-.193-.75-.5-1.277-.89a31.045,31.045,0,0,1-3.818-3.431,45.18,45.18,0,0,1-3.293-3.935,11.5,11.5,0,0,1-1.193-1.757,13.742,13.742,0,0,1,1.392,1.6c.834,1.007,1.986,2.4,3.353,3.845a42.78,42.78,0,0,0,3.716,3.479,18.309,18.309,0,0,1,1.623,1.362" transform="translate(193.49 4362)" fill="#263238"/>
    <path id="Trazado_208452" data-name="Trazado 208452" d="M1100.7,246.849a.552.552,0,0,1-.09.136l-.293.378c-.268.324-.634.828-1.172,1.419a46.632,46.632,0,0,1-4.813,4.757,64.7,64.7,0,0,1-8.113,5.909,111.894,111.894,0,0,1-10.807,5.849c-3.934,1.879-7.736,3.544-11.177,5.091s-6.524,2.972-9.072,4.252-4.576,2.381-5.958,3.177c-.7.388-1.222.716-1.589.92l-.417.235a.551.551,0,0,1-.149.069.589.589,0,0,1,.129-.1l.4-.265c.355-.225.869-.572,1.557-.978,1.362-.835,3.375-1.975,5.914-3.283s5.613-2.766,9.05-4.327,7.232-3.238,11.159-5.113a116.981,116.981,0,0,0,10.788-5.806,67.22,67.22,0,0,0,8.122-5.822,51.547,51.547,0,0,0,4.873-4.657c.553-.575.934-1.064,1.22-1.372l.32-.356c.074-.078.114-.117.119-.113" transform="translate(193.49 4362)" fill="#263238"/>
    <path id="Trazado_208453" data-name="Trazado 208453" d="M1019.461,298.418a.6.6,0,0,1,0-.146c.005-.112.012-.252.019-.43.025-.4.06-.956.1-1.671a41.7,41.7,0,0,1,1.255-6.184,102.525,102.525,0,0,1,8.558-20.4l-.02.091c-.442-6.438-1.109-13.626-1.879-21.187-1.466-14.277-3.005-27.179-4.128-36.516-.565-4.653-1.023-8.425-1.342-11.056-.154-1.29-.274-2.3-.358-3.006-.036-.331-.064-.59-.085-.784a1.539,1.539,0,0,1-.017-.268,1.507,1.507,0,0,1,.053.264l.121.778c.1.705.242,1.712.424,3,.346,2.627.842,6.394,1.455,11.042,1.187,9.33,2.766,22.229,4.233,36.511.77,7.563,1.426,14.756,1.848,21.2l0,.047-.023.044a105.552,105.552,0,0,0-8.654,20.3,44.783,44.783,0,0,0-1.341,6.143q-.1,1.068-.154,1.662l-.046.428a.625.625,0,0,1-.024.145" transform="translate(193.49 4362)" fill="#263238"/>
    <path id="Trazado_208454" data-name="Trazado 208454" d="M1127.972,186.81a1.679,1.679,0,0,1,.012.293c0,.211,0,.5,0,.861-.009.756.012,1.874-.059,3.309-.079,2.875-.375,7.027-.884,12.141s-1.247,11.188-2,17.938-1.5,14.182-1.732,22.009a121.672,121.672,0,0,0,1.517,21.991c.989,6.717,2.153,12.724,3.056,17.782.919,5.055,1.595,9.16,1.976,12.009.208,1.422.323,2.532.406,3.284.037.363.067.647.088.856a1.647,1.647,0,0,1,.018.293,1.71,1.71,0,0,1-.054-.288c-.031-.209-.072-.491-.124-.852-.1-.749-.244-1.855-.47-3.273-.425-2.841-1.137-6.935-2.089-11.984-.933-5.051-2.125-11.054-3.133-17.779a120.378,120.378,0,0,1-1.549-22.048c.238-7.847,1-15.288,1.764-22.037s1.537-12.819,2.071-17.927.875-9.251,1-12.12c.093-1.434.093-2.549.125-3.305.013-.365.025-.65.032-.86a1.686,1.686,0,0,1,.024-.293" transform="translate(193.49 4362)" fill="#263238"/>
    <path id="Trazado_208455" data-name="Trazado 208455" d="M1021.891,199.483a132.868,132.868,0,0,0,6.445,56.094Z" transform="translate(193.49 4362)"/>
    <rect id="Rectángulo_38741" data-name="Rectángulo 38741" width="7.14" height="56.094" transform="translate(1214.69 4561.482)" fill="none"/>
    <path id="Trazado_208456" data-name="Trazado 208456" d="M1090.659,265.025c-8.424,7.738-16.876,14.35-27.238,18.033,7.812.664,15.693-2.323,21.733-7.322s10.335-10.269,13.1-17.6Z" transform="translate(193.49 4362)"/>
    <rect id="Rectángulo_38742" data-name="Rectángulo 38742" width="34.84" height="25.019" transform="translate(1256.91 4620.131)" fill="none"/>
    <path id="Trazado_208457" data-name="Trazado 208457" d="M1081.064,273.548c-.066-.074,5.175-4.881,11.7-10.736s11.878-10.544,11.944-10.47-5.174,4.879-11.705,10.736-11.877,10.543-11.943,10.47" transform="translate(193.49 4362)" fill="#263238"/>
    <path id="Trazado_208458" data-name="Trazado 208458" d="M1099.7,128.374a4.3,4.3,0,1,1-4.3-4.3,4.3,4.3,0,0,1,4.3,4.3" transform="translate(193.49 4362)" fill="#455a64"/>
    <path id="Trazado_208459" data-name="Trazado 208459" d="M1125.288,184.862q-1.9-15.761-3.8-31.521l-27.2-8.209a271.251,271.251,0,0,1-8.532,58.017,75.565,75.565,0,0,0,31.208,3.248q.695-7.614,1.39-15.228,1.019,5.739,2.039,11.478c2.854-1.6,4.537-4.785,5.107-8.008a33.378,33.378,0,0,0-.213-9.777" transform="translate(193.49 4362)" fill="#263238"/>
    <path id="Trazado_208460" data-name="Trazado 208460" d="M1104,206.483s.021-.136.079-.4.153-.657.268-1.156c.243-1.028.595-2.521,1.048-4.439.889-3.859,2.207-9.439,3.489-16.4a177.165,177.165,0,0,0,2.961-24.662,106.822,106.822,0,0,0-2.744-30.187,75.748,75.748,0,0,0-12.61-27.439c-.71-.926-1.385-1.863-2.146-2.711s-1.444-1.74-2.221-2.529l-1.13-1.2-1.153-1.143c-.752-.766-1.539-1.475-2.293-2.19-3.053-2.826-6.036-5.309-8.7-7.641s-5.052-4.478-7.023-6.492c-.5-.494-.955-1-1.408-1.475s-.876-.939-1.265-1.4l-1.13-1.312-.967-1.236c-.629-.768-1.106-1.51-1.546-2.134s-.779-1.173-1.044-1.623-.462-.779-.606-1.02-.2-.354-.2-.354.083.111.228.335l.635,1c.274.443.614.99,1.07,1.6s.933,1.35,1.569,2.109q.462.579.977,1.222l1.138,1.3c.391.457.814.921,1.272,1.386s.911.971,1.414,1.461c1.98,2,4.369,4.129,7.047,6.442s5.668,4.791,8.738,7.614c.758.715,1.548,1.423,2.307,2.19q.575.568,1.16,1.144l1.137,1.2c.783.791,1.486,1.676,2.239,2.536s1.446,1.791,2.163,2.721a75.735,75.735,0,0,1,12.693,27.551,106.428,106.428,0,0,1,2.725,30.286,174.244,174.244,0,0,1-3.04,24.694c-1.316,6.965-2.672,12.538-3.6,16.389-.471,1.924-.849,3.415-1.113,4.424-.131.495-.231.876-.3,1.147s-.115.388-.115.388" transform="translate(193.49 4362)" fill="#455a64"/>
    <rect id="Rectángulo_38743" data-name="Rectángulo 38743" width="17.673" height="56.573" transform="translate(1168.825 4508.006)" fill="none"/>
    <path id="Trazado_208461" data-name="Trazado 208461" d="M936.653,146.006h38.682l7.177,56.573H929.1Z" transform="translate(195.901 4360.285)" fill="#99c8f2"/>
    <path id="Trazado_208463" data-name="Trazado 208463" d="M975.335,146.006h4.475l13.2,56.573h-10.5Z" transform="translate(195.901 4360.285)"/>
    <path id="Trazado_208464" data-name="Trazado 208464" d="M993.008,202.579a11.01,11.01,0,0,1-1.862-1.3c-1.112-.85-2.629-2.049-4.286-3.4l-.838-.684.336-.052c-1.04,1.569-1.978,2.944-2.667,3.918a8.623,8.623,0,0,1-1.179,1.516,8.605,8.605,0,0,1,.924-1.684c.621-1.019,1.511-2.425,2.538-4l.139-.213.2.161c.271.218.553.447.841.68,1.657,1.347,3.141,2.587,4.2,3.5a11.035,11.035,0,0,1,1.655,1.556" transform="translate(195.901 4360.285)" fill="#263238"/>
    <path id="Trazado_208465" data-name="Trazado 208465" d="M977.685,146.006c.126-.021,2.127,11.383,4.469,25.467s4.138,25.525,4.012,25.546-2.127-11.38-4.47-25.47-4.137-25.522-4.011-25.543" transform="translate(195.901 4360.285)" fill="#263238"/>
    <path id="Trazado_208466" data-name="Trazado 208466" d="M977.592,162.064a9.8,9.8,0,0,1-.9.857,16,16,0,0,1-2.951,2.007,17.531,17.531,0,0,1-5.339,1.835,15.8,15.8,0,0,1-7.451-.434,9.175,9.175,0,0,1-3.74-2.278,7.063,7.063,0,0,1-2.037-4.279,5.553,5.553,0,0,1,1.928-4.653,4.432,4.432,0,0,1,2.508-1.045,5.185,5.185,0,0,1,2.728.567,6.506,6.506,0,0,1,2.191,1.821,7.411,7.411,0,0,1,1.247,2.627,13.023,13.023,0,0,1-.021,5.907,19.994,19.994,0,0,1-6.074,10.649,18.271,18.271,0,0,1-5.3,3.4,13.121,13.121,0,0,1-6.033,1.029,10.239,10.239,0,0,1-5.506-2.132,7.788,7.788,0,0,1-2.944-4.813,7.291,7.291,0,0,1,1.039-5.269,4.969,4.969,0,0,1,4.406-2.38,3.227,3.227,0,0,1,2.181,1.175,4.831,4.831,0,0,1,.989,2.158,7.715,7.715,0,0,1-.51,4.349,11.633,11.633,0,0,1-4.96,5.527,17.361,17.361,0,0,1-5.31,1.92,27.055,27.055,0,0,1-3.539.45c-.407.024-.718.038-.927.041a1.661,1.661,0,0,1-.316-.005,1.561,1.561,0,0,1,.314-.043l.921-.086a31.043,31.043,0,0,0,3.51-.534,17.472,17.472,0,0,0,5.215-1.967,11.4,11.4,0,0,0,4.787-5.424,7.382,7.382,0,0,0,.464-4.155,4.46,4.46,0,0,0-.922-1.991,2.843,2.843,0,0,0-1.935-1.032,4.585,4.585,0,0,0-4.029,2.223,6.888,6.888,0,0,0-.957,4.97,7.355,7.355,0,0,0,2.8,4.539,9.808,9.808,0,0,0,5.267,2.026c3.926.308,7.926-1.536,10.984-4.323a19.575,19.575,0,0,0,5.942-10.4,12.6,12.6,0,0,0,.037-5.7,6.955,6.955,0,0,0-1.164-2.473,6.078,6.078,0,0,0-2.037-1.705,4.765,4.765,0,0,0-2.5-.532,4.009,4.009,0,0,0-2.28.942,5.156,5.156,0,0,0-1.8,4.309,6.7,6.7,0,0,0,1.911,4.061,8.858,8.858,0,0,0,3.587,2.215,15.611,15.611,0,0,0,7.3.489,17.662,17.662,0,0,0,5.3-1.739,17.169,17.169,0,0,0,2.976-1.92c.325-.244.549-.458.711-.589a1.55,1.55,0,0,1,.25-.2" transform="translate(195.901 4360.285)" fill="#fff"/>
    <path id="Trazado_208467" data-name="Trazado 208467" d="M945.915,148.17s-2.461-20.1,10.573-20.1,11.975,21.361,11.975,21.361" transform="translate(195.901 4360.285)" fill="none" stroke="#015e59" stroke-linecap="round" stroke-linejoin="round" stroke-width="2"/>
    <rect id="Rectángulo_38744" data-name="Rectángulo 38744" width="17.67" height="56.574" transform="translate(1399.14 4513.708)" fill="none"/>
    <path id="Trazado_208468" data-name="Trazado 208468" d="M1166.969,151.708h38.682l7.177,56.573h-53.413Z" transform="translate(193.484 4357.572)" fill="#ffc631"/>
    <path id="Trazado_208470" data-name="Trazado 208470" d="M1205.651,151.708h4.475l13.2,56.573h-10.5Z" transform="translate(193.484 4357.572)"/>
    <path id="Trazado_208471" data-name="Trazado 208471" d="M1223.324,208.282a10.96,10.96,0,0,1-1.862-1.3c-1.112-.85-2.629-2.049-4.286-3.4l-.838-.684.336-.052c-1.041,1.569-1.978,2.944-2.667,3.918a8.623,8.623,0,0,1-1.179,1.516,8.61,8.61,0,0,1,.924-1.684c.621-1.019,1.511-2.425,2.538-4l.139-.213.2.161.841.68c1.657,1.347,3.141,2.587,4.2,3.5a11.029,11.029,0,0,1,1.655,1.556" transform="translate(193.484 4357.572)" fill="#263238"/>
    <path id="Trazado_208472" data-name="Trazado 208472" d="M1208,151.708c.126-.021,2.127,11.383,4.469,25.467s4.138,25.525,4.012,25.546-2.127-11.38-4.47-25.47-4.137-25.522-4.011-25.543" transform="translate(193.484 4357.572)" fill="#263238"/>
    <path id="Trazado_208473" data-name="Trazado 208473" d="M1207.908,167.766a9.8,9.8,0,0,1-.9.857,16,16,0,0,1-2.951,2.007,17.532,17.532,0,0,1-5.339,1.835,15.8,15.8,0,0,1-7.451-.434,9.184,9.184,0,0,1-3.741-2.278,7.067,7.067,0,0,1-2.036-4.279,5.551,5.551,0,0,1,1.928-4.653,4.431,4.431,0,0,1,2.508-1.045,5.185,5.185,0,0,1,2.728.567,6.508,6.508,0,0,1,2.191,1.821,7.411,7.411,0,0,1,1.247,2.627,13.023,13.023,0,0,1-.021,5.907,19.993,19.993,0,0,1-6.074,10.649,18.261,18.261,0,0,1-5.3,3.4,13.114,13.114,0,0,1-6.032,1.029,10.239,10.239,0,0,1-5.506-2.132,7.787,7.787,0,0,1-2.944-4.813,7.291,7.291,0,0,1,1.039-5.269,4.969,4.969,0,0,1,4.406-2.38,3.222,3.222,0,0,1,2.18,1.175,4.823,4.823,0,0,1,.99,2.158,7.716,7.716,0,0,1-.51,4.349,11.63,11.63,0,0,1-4.961,5.527,17.346,17.346,0,0,1-5.309,1.92,27.051,27.051,0,0,1-3.539.45c-.407.024-.718.038-.927.041a1.659,1.659,0,0,1-.316-.005,1.56,1.56,0,0,1,.314-.043l.921-.086a31.072,31.072,0,0,0,3.51-.534,17.472,17.472,0,0,0,5.215-1.967,11.4,11.4,0,0,0,4.787-5.424,7.383,7.383,0,0,0,.464-4.155,4.46,4.46,0,0,0-.922-1.991,2.843,2.843,0,0,0-1.935-1.032,4.585,4.585,0,0,0-4.029,2.223,6.888,6.888,0,0,0-.957,4.97,7.355,7.355,0,0,0,2.8,4.539,9.807,9.807,0,0,0,5.267,2.026c3.926.308,7.926-1.536,10.984-4.323a19.576,19.576,0,0,0,5.942-10.4,12.6,12.6,0,0,0,.037-5.7,6.953,6.953,0,0,0-1.164-2.473,6.076,6.076,0,0,0-2.037-1.7,4.765,4.765,0,0,0-2.5-.532,4.01,4.01,0,0,0-2.28.942,5.156,5.156,0,0,0-1.805,4.309,6.7,6.7,0,0,0,1.911,4.061,8.859,8.859,0,0,0,3.587,2.215,15.611,15.611,0,0,0,7.3.489,17.659,17.659,0,0,0,5.3-1.739,17.112,17.112,0,0,0,2.975-1.92c.326-.244.55-.458.712-.589a1.549,1.549,0,0,1,.25-.195" transform="translate(193.484 4357.572)" fill="#fff"/>
    <path id="Trazado_208474" data-name="Trazado 208474" d="M1176.231,153.872s-2.461-20.1,10.573-20.1,11.975,21.361,11.975,21.361" transform="translate(193.484 4357.572)" fill="none" stroke="#99771d" stroke-linecap="round" stroke-linejoin="round" stroke-width="2"/>
  </g>
</svg>
