<svg xmlns="http://www.w3.org/2000/svg" width="171.625" height="289.594" viewBox="0 0 171.625 289.594">
  <g id="Grupo_872333" data-name="Grupo 872333" transform="translate(-213.987 -4394.842)">
    <path id="Trazado_208198" data-name="Trazado 208198" d="M141.205,58.057a27.917,27.917,0,0,1,9.2,24.135c-.549,4.32-1.987,9.211.672,12.659,2.632,3.414,8.121,3.588,10.632,7.092,2.957,4.124.029,9.9.915,14.9a10.046,10.046,0,0,0,10.307,7.977,39.193,39.193,0,0,1-19.827,7.474q-2.545-3.621-5.091-7.239c1.94,2.541,1.2,6.407-.915,8.8s-5.26,3.606-8.352,4.422a49.744,49.744,0,0,1-43.2-9.21" transform="translate(193.49 4362)" fill="#263238"/>
    <path id="Trazado_208199" data-name="Trazado 208199" d="M57.8,92.382c1.249-3.271,3.223-6.263,4.121-9.648,1.931-7.274-1.245-15.724,2.645-22.167,2.769-4.586,8.29-6.627,13.48-7.952s10.745-2.391,14.741-5.957c2.932-2.616,4.709-6.329,7.631-8.955,4.165-3.741,10.1-4.788,15.693-4.857,5.749-.072,11.648.769,16.679,3.552s9.08,7.741,9.721,13.455c.313,2.785-.168,5.665.573,8.369.814,2.973,3,5.362,4.284,8.165a14.744,14.744,0,0,1-4.546,17.473l-41.839,48.9c-8.42,2.718-28.264-2.039-34.355-8.456S54.645,100.648,57.8,92.382" transform="translate(193.49 4362)" fill="#263238"/>
    <path id="Trazado_208200" data-name="Trazado 208200" d="M142.1,77.351c-1.057-11.62-9.166-25.687-20.73-24.137L85.407,63.374a6.828,6.828,0,0,0-5.914,7.092l6.3,87.223-.249.061s8.88,24.42,32.624,16.283c4.708-1.613,6.742-6.86,7.546-12.224l.06-13.8c-.113-7.053-.194-9.944-.188-9.878,0,0,14.8-2.883,17.344-22.371,1.264-9.691.339-25.5-.835-38.408" transform="translate(193.49 4362)" fill="#ffc09d"/>
    <path id="Trazado_208201" data-name="Trazado 208201" d="M110.353,95.2a2.488,2.488,0,0,1-2.329,2.577A2.381,2.381,0,0,1,105.4,95.6a2.489,2.489,0,0,1,2.327-2.578,2.382,2.382,0,0,1,2.63,2.173" transform="translate(193.49 4362)" fill="#263238"/>
    <path id="Trazado_208202" data-name="Trazado 208202" d="M136.115,94.351a2.488,2.488,0,0,1-2.33,2.577,2.38,2.38,0,0,1-2.627-2.172,2.49,2.49,0,0,1,2.327-2.579,2.383,2.383,0,0,1,2.63,2.174" transform="translate(193.49 4362)" fill="#263238"/>
    <path id="Trazado_208203" data-name="Trazado 208203" d="M139.919,85.98c-.291.441-2.528-1.13-5.436-.851-2.909.23-4.858,2.169-5.217,1.784-.175-.169.088-.941.933-1.814a6.595,6.595,0,0,1,8.5-.746c.979.715,1.362,1.428,1.217,1.627" transform="translate(193.49 4362)" fill="#263238"/>
    <path id="Trazado_208204" data-name="Trazado 208204" d="M112.971,87.76c-.361.4-2.551-1.357-5.662-1.377-3.11-.067-5.4,1.628-5.737,1.217-.165-.183.2-.909,1.2-1.676a7.539,7.539,0,0,1,4.594-1.475,7.35,7.35,0,0,1,4.5,1.6c.953.8,1.277,1.53,1.1,1.71" transform="translate(193.49 4362)" fill="#263238"/>
    <path id="Trazado_208205" data-name="Trazado 208205" d="M122.858,106.5c-.016-.151,1.64-.485,4.327-.905.682-.09,1.325-.244,1.428-.713a3.487,3.487,0,0,0-.513-2.015q-1.034-2.453-2.167-5.149c-3.014-7.335-5.216-13.373-4.92-13.492s2.981,5.73,6,13.063c.726,1.811,1.421,3.535,2.082,5.185a3.959,3.959,0,0,1,.43,2.674,1.717,1.717,0,0,1-1.1,1.031,4.606,4.606,0,0,1-1.157.193c-2.71.222-4.393.281-4.408.128" transform="translate(193.49 4362)" fill="#263238"/>
    <path id="Trazado_208206" data-name="Trazado 208206" d="M125.589,138.13a49.373,49.373,0,0,1-26.177-6.209s6.91,13.436,26.278,11.08Z" transform="translate(193.49 4362)" fill="#ff9b6c"/>
    <path id="Trazado_208207" data-name="Trazado 208207" d="M121.906,112.98a4.83,4.83,0,0,0-4.375-1.672,4.408,4.408,0,0,0-3,1.717,2.791,2.791,0,0,0-.124,3.2,3.239,3.239,0,0,0,3.535.79,10.144,10.144,0,0,0,3.366-2.137,2.957,2.957,0,0,0,.742-.814.891.891,0,0,0-.032-1" transform="translate(193.49 4362)" fill="#ff725e"/>
    <path id="Trazado_208208" data-name="Trazado 208208" d="M115.03,108.567c.435-.037.521,2.869,3.066,4.863s5.63,1.588,5.664,1.993c.046.182-.674.584-1.981.656a7.235,7.235,0,0,1-4.723-1.5,6.3,6.3,0,0,1-2.385-4.082c-.144-1.212.16-1.941.359-1.93" transform="translate(193.49 4362)" fill="#263238"/>
    <path id="Trazado_208209" data-name="Trazado 208209" d="M113.161,80.538c-.244.735-2.927.465-6.057.931-3.141.4-5.649,1.392-6.084.751-.194-.307.228-1,1.233-1.738A10.656,10.656,0,0,1,111.5,79.2c1.167.433,1.763.989,1.659,1.338" transform="translate(193.49 4362)" fill="#263238"/>
    <path id="Trazado_208210" data-name="Trazado 208210" d="M137.685,75.106c-.521.623-2.647.051-5.183.091-2.536-.037-4.67.539-5.182-.083-.225-.3.1-.921,1.018-1.524a7.945,7.945,0,0,1,4.185-1.113,7.85,7.85,0,0,1,4.167,1.107c.913.6,1.224,1.218.995,1.522" transform="translate(193.49 4362)" fill="#263238"/>
    <path id="Trazado_208211" data-name="Trazado 208211" d="M77.446,65.771c1.919-2.66,5.2-3.916,8.31-4.946a178.365,178.365,0,0,1,41.488-8.431c1.6,2.961-.2,6.8-2.936,8.761s-6.158,2.626-9.367,3.65-6.526,2.681-7.976,5.72c-1.542,3.234-.568,7.2-1.945,10.5-2.37,5.688-10.542,7.16-12.879,12.861-1.768,4.312.545,9.108.955,13.751a16.652,16.652,0,0,1-17.262,18.136q-.217-24.995-.437-49.988c-.03-3.47.019-7.2,2.049-10.019" transform="translate(193.49 4362)" fill="#263238"/>
    <path id="Trazado_208212" data-name="Trazado 208212" d="M41.918,106.108c2.739-2.223,6.129-4.1,7.34-7.41,1.763-4.827-1.891-10.779.862-15.118,2.511-3.958,9.312-3.419,11.665-7.472,1.837-3.166.051-6.135.828-8.956s4.948-5.125,7.835-4.642l21.081,34c1.567,11.135,3.4,17.112.715,23.45-1.472,3.476-3.335,6.844-4.027,10.555s.055,7.992,3,10.351c-13.619.4-25.986-7.324-37.4-14.764l-12.08-7.875a9.1,9.1,0,0,1-3.277-3.014c-1.675-3.1.716-6.879,3.455-9.1" transform="translate(193.49 4362)" fill="#263238"/>
    <path id="Trazado_208213" data-name="Trazado 208213" d="M53.643,122.757a6.423,6.423,0,0,0,1.436.349,12.383,12.383,0,0,0,4.24-.092,13.117,13.117,0,0,0,6.051-2.885,12.883,12.883,0,0,0,4.268-7.74,13.284,13.284,0,0,0-.19-5.226A21.243,21.243,0,0,0,67.176,102a20.015,20.015,0,0,1-2.343-5.359,6.747,6.747,0,0,1,1.008-5.717c1.315-1.594,3.628-1.886,5.8-2.639a6.217,6.217,0,0,0,3-2,6.08,6.08,0,0,0,1.107-3.512c.093-2.485-.854-4.808-1.2-7.142a7.734,7.734,0,0,1,.148-3.467,4.84,4.84,0,0,1,2.093-2.655c2.027-1.3,4.537-1.4,6.953-1.5a14.728,14.728,0,0,0,7.093-1.715,13.2,13.2,0,0,0,5.04-4.953,21.733,21.733,0,0,0,2.084-6.416,30.415,30.415,0,0,1,1.629-6.034,13.574,13.574,0,0,1,3.426-4.654,15.254,15.254,0,0,1,17.912-1.628,18.571,18.571,0,0,1,5.03,4.236,24.621,24.621,0,0,1,3,4.786,1.3,1.3,0,0,0-.112-.358c-.094-.229-.205-.585-.421-1.018a17.827,17.827,0,0,0-2.232-3.605,18.479,18.479,0,0,0-5.046-4.424,15.939,15.939,0,0,0-8.557-2.339,16.194,16.194,0,0,0-10.009,3.856,14.2,14.2,0,0,0-3.633,4.869,30.866,30.866,0,0,0-1.705,6.164,21.127,21.127,0,0,1-2.027,6.19,12.451,12.451,0,0,1-4.758,4.65A13.966,13.966,0,0,1,83.7,67.221c-2.391.1-5.075.169-7.345,1.619a5.646,5.646,0,0,0-2.418,3.082,8.49,8.49,0,0,0-.174,3.82c.379,2.472,1.292,4.721,1.2,7.005a5.317,5.317,0,0,1-.944,3.074,5.472,5.472,0,0,1-2.642,1.751c-1.035.378-2.139.617-3.211,1.012a6.456,6.456,0,0,0-2.887,1.869,7.428,7.428,0,0,0-1.131,6.331,20.5,20.5,0,0,0,2.451,5.534,20.789,20.789,0,0,1,2.253,4.994,12.766,12.766,0,0,1,.229,4.989,12.474,12.474,0,0,1-4.006,7.494,12.963,12.963,0,0,1-5.821,2.917,14.7,14.7,0,0,1-5.615.045" transform="translate(193.49 4362)" fill="#455a64"/>
    <path id="Trazado_208214" data-name="Trazado 208214" d="M36.69,98.491a2.863,2.863,0,0,0-.5,1.087,4.868,4.868,0,0,0,.417,3.393,5.175,5.175,0,0,0,1.647,1.91,5.4,5.4,0,0,0,2.86.914,6.783,6.783,0,0,0,6.128-3.483,9.1,9.1,0,0,0,1.169-4.088,12.654,12.654,0,0,0-.735-4.53c-.933-2.989-2.747-5.945-2.622-9.379a6.276,6.276,0,0,1,1.8-4.587c1.269-1.166,3.151-1.374,5.006-1.3,1.863.028,3.877.366,5.905-.321a5.112,5.112,0,0,0,2.514-1.916,7.279,7.279,0,0,0,1.139-2.945,24.015,24.015,0,0,0-.195-6.056,13.258,13.258,0,0,1,.588-5.575,14.131,14.131,0,0,1,6.72-7.977c3.027-1.63,6.439-1.654,9.513-1.688a27.794,27.794,0,0,0,8.655-.934,18.254,18.254,0,0,0,9.806-7.64,12.892,12.892,0,0,0,1.825-4.226,24.929,24.929,0,0,1-2.084,4.059,18.113,18.113,0,0,1-3.566,3.942,17.708,17.708,0,0,1-6.147,3.331,27.63,27.63,0,0,1-8.491.812c-3.072.01-6.61-.013-9.849,1.7a14.825,14.825,0,0,0-7.118,8.379,14.03,14.03,0,0,0-.637,5.885,23.685,23.685,0,0,1,.2,5.859A5.066,5.066,0,0,1,57.5,77.367c-1.747.609-3.709.324-5.618.287-1.883-.071-4.036.131-5.534,1.513a6.991,6.991,0,0,0-2.026,5.13,13.334,13.334,0,0,0,.995,5.115c.582,1.57,1.246,3.033,1.733,4.488a12.112,12.112,0,0,1,.748,4.3,8.555,8.555,0,0,1-1.045,3.836,6.315,6.315,0,0,1-5.628,3.318,5.037,5.037,0,0,1-2.664-.785,4.906,4.906,0,0,1-1.584-1.74,4.847,4.847,0,0,1-.535-3.214c.155-.751.386-1.1.346-1.123" transform="translate(193.49 4362)" fill="#263238"/>
    <path id="Trazado_208215" data-name="Trazado 208215" d="M179.282,113.6a5.382,5.382,0,0,1-.218,3.546,4.683,4.683,0,0,1-2.96,2.722,4.909,4.909,0,0,1-4.913-1.6,4.51,4.51,0,0,1-1.028-2.9,9.381,9.381,0,0,1,.688-3.409c.833-2.262,2.424-4.69,2.346-7.695a10.963,10.963,0,0,0-3.743-8.043,12.86,12.86,0,0,0-4.12-2.434,18.9,18.9,0,0,0-4.8-.931,25.391,25.391,0,0,1-4.667-.72,6.243,6.243,0,0,1-3.54-2.448,7.676,7.676,0,0,1-1.123-4.079,15.308,15.308,0,0,1,.556-4.167c.688-2.684,1.629-5.28,1.605-7.879a12.045,12.045,0,0,0-2.1-6.71,15.544,15.544,0,0,0-4.238-3.952,29.21,29.21,0,0,1-3.416-2.615,9.087,9.087,0,0,1-2.083-2.965c-.013,0,0,.085.046.241a3.893,3.893,0,0,0,.239.678A7.244,7.244,0,0,0,143.4,60.5a26.8,26.8,0,0,0,3.373,2.755,15.4,15.4,0,0,1,4.033,3.9,11.548,11.548,0,0,1,1.909,6.4c0,2.448-.928,4.965-1.655,7.7a15.915,15.915,0,0,0-.606,4.362,8.4,8.4,0,0,0,1.233,4.493,7.016,7.016,0,0,0,3.959,2.774,25.78,25.78,0,0,0,4.816.754,18.2,18.2,0,0,1,4.608.884,12.109,12.109,0,0,1,3.874,2.274,10.253,10.253,0,0,1,3.528,7.472c.106,2.75-1.373,5.081-2.233,7.458a9.913,9.913,0,0,0-.682,3.652,5.072,5.072,0,0,0,1.212,3.245,5.369,5.369,0,0,0,5.462,1.666,5.18,5.18,0,0,0,3.388-5.786,2.861,2.861,0,0,0-.333-.906" transform="translate(193.49 4362)" fill="#263238"/>
    <path id="Trazado_208216" data-name="Trazado 208216" d="M73.039,58.314c-1.3,4.308-5.112,7.307-7.61,11.05-3.523,5.278-4.333,11.9-4.41,18.242.18-2.99-1.018-5.867-1.6-8.805A21.722,21.722,0,0,1,74.007,53.9" transform="translate(193.49 4362)" fill="#263238"/>
    <path id="Trazado_208217" data-name="Trazado 208217" d="M81.354,152.336c2.552-.715-12.619,5.083-12.93,5.183l13.548,22.065L134.5,190.76l19.762-32.107-39.94-11.913Z" transform="translate(193.49 4362)" fill="#ffc09d"/>
    <path id="Trazado_208218" data-name="Trazado 208218" d="M157.1,226.939,189.1,213.176s-12.163-42.25-15.363-46.73S137.5,151.712,137.5,151.712s-11.419,19.047-30.944,20.328-26.927-.747-30.768-17.71c0,0-32.695,7.546-35.256,10.427S20.745,215.1,20.745,215.1s33.927,9.6,35.207,10.243,3.521,50.891,3.521,50.891-15.154,39.164-15.766,46.206l124.3-.319-12.831-74.053Z" transform="translate(193.49 4362)" fill="#455a64"/>
    <path id="Trazado_208219" data-name="Trazado 208219" d="M46.4,188.832a10.425,10.425,0,0,1,.509,1.509c.31,1.053.723,2.456,1.222,4.155,1.012,3.514,2.379,8.375,3.862,13.752l2.072,7.587c.307,1.167.629,2.272.89,3.323s.461,2.031.637,2.93c.348,1.8.588,3.258.753,4.267a10.846,10.846,0,0,1,.21,1.577,1.389,1.389,0,0,1-.124-.4l-.263-1.148c-.228-1.074-.53-2.5-.9-4.235-.195-.891-.417-1.866-.688-2.9-.292-1.037-.6-2.139-.927-3.3-.651-2.337-1.362-4.9-2.109-7.581-1.483-5.38-2.8-10.258-3.732-13.795-.442-1.715-.806-3.13-1.08-4.194a10.391,10.391,0,0,1-.335-1.553" transform="translate(193.49 4362)" fill="#263238"/>
    <path id="Trazado_208220" data-name="Trazado 208220" d="M122.375,254.806a2.149,2.149,0,0,1-.365.355l-1.106.948c-.962.822-2.391,1.967-4.189,3.34a145.5,145.5,0,0,1-30.462,17.8c-2.079.892-3.778,1.575-4.965,2.01l-1.369.5a2.094,2.094,0,0,1-.489.144,2.142,2.142,0,0,1,.455-.231l1.336-.578c1.165-.486,2.842-1.214,4.9-2.143a170.8,170.8,0,0,0,15.672-8.076,170.819,170.819,0,0,0,14.726-9.69c1.819-1.337,3.276-2.441,4.272-3.218l1.16-.88a2.112,2.112,0,0,1,.424-.283" transform="translate(193.49 4362)" fill="#263238"/>
    <path id="Trazado_208221" data-name="Trazado 208221" d="M147.52,238.008c-6.048-7.194-14.5-11.973-23.188-15.547-8.82-3.627-18.5-6.192-27.857-4.357-8.632,1.693-16.087,6.929-23.2,12.1a29.044,29.044,0,0,0-6.423,5.738,27.752,27.752,0,0,0-3.83,8.472c-2.43,7.7-2.207,16.656-3.889,24.55l.067,1.4c1.629.495,2.356-.261,3.852-1.073,8.92-4.841,12.535-17.492,22.382-19.952a46.606,46.606,0,0,1,5.475-.732,31.085,31.085,0,0,0,13.3-5.091c1.611-1.079,3.25-2.34,5.185-2.477,2.043-.145,3.926.995,5.71,2a58.614,58.614,0,0,0,16.58,6.281,5.329,5.329,0,0,1,2.211.813,5.233,5.233,0,0,1,1.473,2.561c2.173,6.255,4.936,12.395,9.088,17.553s9.816,9.3,16.291,10.682c-1.294-15.169-3.426-31.276-13.223-42.929" transform="translate(193.49 4362)"/>
    <rect id="Rectángulo_38730" data-name="Rectángulo 38730" width="101.612" height="63.442" transform="translate(252.622 4579.495)" fill="none"/>
    <path id="Trazado_208222" data-name="Trazado 208222" d="M87,284.184c6.87,2.385,18.306-.738,24.658-4.279s11.87-11.186,13.453-18.284C114.406,268.577,98.666,279,87,284.184" transform="translate(193.49 4362)"/>
    <rect id="Rectángulo_38731" data-name="Rectángulo 38731" width="38.111" height="23.4" transform="translate(280.489 4623.62)" fill="none"/>
    <path id="Trazado_208223" data-name="Trazado 208223" d="M51.55,207.2c-1.479-4.615-2.583-9.548-4.062-14.164h-.169a45.948,45.948,0,0,0,.044,17.092,26.818,26.818,0,0,0,8.592,14.627A132.335,132.335,0,0,0,51.55,207.2" transform="translate(193.49 4362)"/>
    <rect id="Rectángulo_38732" data-name="Rectángulo 38732" width="9.416" height="31.719" transform="translate(240.029 4555.034)" fill="none"/>
    <path id="Trazado_208224" data-name="Trazado 208224" d="M45.8,176.327a22.547,22.547,0,0,1-2.116-5.274,22.544,22.544,0,0,1-1.177-5.56c.132-.026.708,2.442,1.62,5.425s1.8,5.357,1.673,5.409" transform="translate(193.49 4362)" fill="#263238"/>
    <path id="Trazado_208225" data-name="Trazado 208225" d="M165.7,175.954c.126.019-1.447,10.951-3.513,24.413s-3.844,24.365-3.971,24.345,1.446-10.948,3.513-24.415,3.845-24.362,3.971-24.343" transform="translate(193.49 4362)" fill="#263238"/>
    <path id="Trazado_208226" data-name="Trazado 208226" d="M72.1,159.166H128.5l10.463,82.474H61.091Z" transform="translate(193.49 4362)" fill="#05b48e"/>
    <path id="Trazado_208227" data-name="Trazado 208227" d="M128.5,159.166h6.524l19.239,82.474h-15.3Z" transform="translate(193.49 4362)" fill="#027d77"/>
    <path id="Trazado_208228" data-name="Trazado 208228" d="M128.5,159.166h6.524l19.239,82.474h-15.3Z" transform="translate(193.49 4362)"/>
    <rect id="Rectángulo_38733" data-name="Rectángulo 38733" width="25.764" height="82.474" transform="translate(321.986 4521.166)" fill="none"/>
    <path id="Trazado_208229" data-name="Trazado 208229" d="M154.26,241.64a16.064,16.064,0,0,1-2.714-1.9c-1.623-1.239-3.834-2.987-6.25-4.951l-1.222-1,.492-.076c-1.518,2.287-2.884,4.291-3.888,5.712a12.563,12.563,0,0,1-1.72,2.21,12.6,12.6,0,0,1,1.347-2.455c.905-1.486,2.2-3.535,3.7-5.835l.2-.31.289.234,1.226.992c2.416,1.964,4.58,3.771,6.125,5.106a16.163,16.163,0,0,1,2.412,2.268" transform="translate(193.49 4362)" fill="#263238"/>
    <path id="Trazado_208230" data-name="Trazado 208230" d="M131.922,159.166c.184-.031,3.1,16.594,6.515,37.127s6.033,37.21,5.848,37.241-3.1-16.59-6.515-37.13-6.032-37.208-5.848-37.238" transform="translate(193.49 4362)" fill="#263238"/>
    <path id="Trazado_208231" data-name="Trazado 208231" d="M131.786,182.576a14.056,14.056,0,0,1-1.315,1.249,23.26,23.26,0,0,1-4.3,2.927,25.585,25.585,0,0,1-7.784,2.674,23.007,23.007,0,0,1-10.861-.633,13.375,13.375,0,0,1-5.453-3.321,10.283,10.283,0,0,1-2.969-6.238,8.089,8.089,0,0,1,2.81-6.782,6.457,6.457,0,0,1,3.656-1.524,7.558,7.558,0,0,1,3.978.827,9.485,9.485,0,0,1,3.193,2.655,10.771,10.771,0,0,1,1.818,3.829,18.975,18.975,0,0,1-.03,8.611,29.141,29.141,0,0,1-8.855,15.525,26.645,26.645,0,0,1-7.727,4.962,19.164,19.164,0,0,1-8.795,1.5,14.932,14.932,0,0,1-8.026-3.109,11.357,11.357,0,0,1-4.293-7.016,10.643,10.643,0,0,1,1.515-7.682,7.245,7.245,0,0,1,6.424-3.469,4.7,4.7,0,0,1,3.179,1.712,7.048,7.048,0,0,1,1.442,3.147,11.239,11.239,0,0,1-.743,6.34,16.959,16.959,0,0,1-7.232,8.057,25.305,25.305,0,0,1-7.74,2.8,39.45,39.45,0,0,1-5.16.656c-.593.035-1.045.056-1.35.06a2.3,2.3,0,0,1-.461-.008,2.3,2.3,0,0,1,.457-.061l1.343-.126a45.264,45.264,0,0,0,5.117-.779,25.5,25.5,0,0,0,7.6-2.867,16.63,16.63,0,0,0,6.979-7.908,10.777,10.777,0,0,0,.676-6.057,6.525,6.525,0,0,0-1.345-2.9,4.148,4.148,0,0,0-2.82-1.5,6.683,6.683,0,0,0-5.874,3.241,10.05,10.05,0,0,0-1.4,7.245,10.735,10.735,0,0,0,4.079,6.617,14.3,14.3,0,0,0,7.679,2.954c5.724.449,11.555-2.239,16.013-6.3a28.538,28.538,0,0,0,8.662-15.158,18.392,18.392,0,0,0,.055-8.314,10.173,10.173,0,0,0-1.7-3.607,8.865,8.865,0,0,0-2.97-2.485,6.938,6.938,0,0,0-3.648-.775,5.856,5.856,0,0,0-3.324,1.372,7.525,7.525,0,0,0-2.632,6.283,9.767,9.767,0,0,0,2.786,5.92,12.936,12.936,0,0,0,5.23,3.23,22.764,22.764,0,0,0,10.646.712,25.759,25.759,0,0,0,7.724-2.534,25.073,25.073,0,0,0,4.337-2.8c.474-.357.8-.669,1.038-.86a2.347,2.347,0,0,1,.364-.284" transform="translate(193.49 4362)" fill="#fff"/>
    <path id="Trazado_208232" data-name="Trazado 208232" d="M85.607,162.322s-3.587-29.305,15.413-29.305,17.458,31.14,17.458,31.14" transform="translate(193.49 4362)" fill="none" stroke="#015e59" stroke-linecap="round" stroke-linejoin="round" stroke-width="2"/>
    <path id="Trazado_208233" data-name="Trazado 208233" d="M27.66,217.06c-.02-.006-6.172,35.715-6.971,41.788s.844,19.9,5.8,24.057,9.121,5.2,12.637,4.563,14.544-12.146,18.7-16.781S82.84,228.519,82.84,228.519l-19.264-8.566-11.262,13.66,2.541-8.654Z" transform="translate(193.49 4362)" fill="#ffc09d"/>
    <path id="Trazado_208234" data-name="Trazado 208234" d="M52.67,233.182a7.472,7.472,0,0,1-.75,1.1c-.563.752-1.29,1.726-2.165,2.9-.925,1.215-2.038,2.655-3.33,4.21a49.918,49.918,0,0,1-4.486,4.827,31.3,31.3,0,0,1-5.4,3.789c-1.734,1.033-3.288,1.964-4.511,2.862a24.107,24.107,0,0,0-3.629,3.3c-.013-.009.048-.111.176-.3a7.9,7.9,0,0,1,.6-.784,16.531,16.531,0,0,1,2.656-2.479,51.064,51.064,0,0,1,4.486-2.964,32.7,32.7,0,0,0,5.31-3.766,54.145,54.145,0,0,0,4.471-4.76c1.305-1.533,2.442-2.949,3.4-4.137l2.281-2.8a7.169,7.169,0,0,1,.892-.985" transform="translate(193.49 4362)" fill="#ff9b6c"/>
    <path id="Trazado_208235" data-name="Trazado 208235" d="M67.913,214.987s6.01-5.051,7.9-3.581,2,2.826,1.214,3.844-5.334,6.788-5.334,6.788l3.358,3.171,5.974-1.95,2.563-.612s6.144.145,4.838,4.272c0,0,6.355-2.025,7.5-2.12,1.756-.146,6.179-.586,5.549,1.7a5,5,0,0,1-3.089,3.1s2.829.9,1.133,3.39a7.426,7.426,0,0,1-4.029,3.029l-10.012,4.011a5.408,5.408,0,0,1-3.825.075L78.5,238.99,72.281,241.7s-12.548-3.618-14.357-14.583l1.634-3.4,1.068-2.008s-1.48-9.357-1.5-10.622c-.012-.884-1.8-4.933-2.873-7.293a1.435,1.435,0,0,1,1.529-2.013,9.349,9.349,0,0,1,4.494,2.339c4.315,3.652,4.85,7.394,4.85,7.394l.912,3.679" transform="translate(193.49 4362)" fill="#ffc09d"/>
    <path id="Trazado_208236" data-name="Trazado 208236" d="M63.664,219.2c-.021-.031.42-.34,1.137-.994s1.68-1.673,2.916-2.91c.617-.621,1.352-1.245,2.143-1.9a13.118,13.118,0,0,1,2.753-1.836,4.9,4.9,0,0,1,1.772-.467,3.442,3.442,0,0,1,.962.08,1.994,1.994,0,0,1,.49.155,3.515,3.515,0,0,1,.426.261,2.681,2.681,0,0,1,.729.724,1.583,1.583,0,0,1,.179.507l.135.459a1.91,1.91,0,0,1,.093,1.078,8.205,8.205,0,0,1-.339.958,14.745,14.745,0,0,1-2.116,3.305,28.213,28.213,0,0,1-2.444,2.694,16.973,16.973,0,0,1-4.983,3.6,4.937,4.937,0,0,1-4.1-.06,3.133,3.133,0,0,1-.908-.685,1.023,1.023,0,0,1-.231-.32,4.388,4.388,0,0,0,5.122.78,17.252,17.252,0,0,0,4.818-3.6,28.79,28.79,0,0,0,2.39-2.671,14.629,14.629,0,0,0,2.05-3.211,7.977,7.977,0,0,0,.322-.908,1.537,1.537,0,0,0-.091-.838l-.137-.468a1.159,1.159,0,0,0-.129-.4,2.323,2.323,0,0,0-.609-.6,3.024,3.024,0,0,0-.37-.228,1.546,1.546,0,0,0-.391-.123,3.011,3.011,0,0,0-.85-.076,4.516,4.516,0,0,0-1.628.417,13.077,13.077,0,0,0-2.69,1.752c-.8.638-1.533,1.236-2.157,1.837-1.253,1.2-2.251,2.208-3.019,2.816a11.251,11.251,0,0,1-.9.673,1.354,1.354,0,0,1-.344.193" transform="translate(193.49 4362)" fill="#ff9b6c"/>
    <path id="Trazado_208237" data-name="Trazado 208237" d="M68.041,215.2a7.356,7.356,0,0,1-2.5.217,7.344,7.344,0,0,1-2.5-.218,7.359,7.359,0,0,1,2.5-.217,7.34,7.34,0,0,1,2.5.218" transform="translate(193.49 4362)" fill="#ff9b6c"/>
    <path id="Trazado_208238" data-name="Trazado 208238" d="M71.092,227.028a2.131,2.131,0,0,1,.446-.22l1.309-.554,4.844-1.96c1.024-.4,2.142-.878,3.4-1.242a9.52,9.52,0,0,1,4.175-.356,6.054,6.054,0,0,1,2.168.778,2.784,2.784,0,0,1,1.482,1.937,2.672,2.672,0,0,1-1.08,2.285,8.454,8.454,0,0,1-2.274,1.15L76.727,232.3a26.076,26.076,0,0,1-3.957,1.305,8.058,8.058,0,0,1-3.653.029,3.742,3.742,0,0,1-2.416-1.776,5.5,5.5,0,0,1-.634-2.184,10.331,10.331,0,0,1-.037-1.428,1.933,1.933,0,0,1,.048-.495c.044,0,0,.688.157,1.9a5.52,5.52,0,0,0,.675,2.082,3.5,3.5,0,0,0,2.283,1.6,7.834,7.834,0,0,0,3.5-.083,26.468,26.468,0,0,0,3.887-1.326l8.827-3.488a8.145,8.145,0,0,0,2.161-1.082,2.257,2.257,0,0,0,.929-1.9,2.391,2.391,0,0,0-1.275-1.63,5.7,5.7,0,0,0-2.018-.737,9.245,9.245,0,0,0-4.012.308c-1.237.34-2.357.795-3.39,1.182l-4.894,1.831-1.339.477a2.115,2.115,0,0,1-.477.139" transform="translate(193.49 4362)" fill="#ff9b6c"/>
    <path id="Trazado_208239" data-name="Trazado 208239" d="M88.576,226.981a1.924,1.924,0,0,1,.425-.2l1.252-.5A30.455,30.455,0,0,1,95,224.8a15.115,15.115,0,0,1,3.436-.323,10.171,10.171,0,0,1,1.936.211,1.784,1.784,0,0,1,.941.564,1.716,1.716,0,0,1,.372,1.072,2.618,2.618,0,0,1-.984,1.995,12.766,12.766,0,0,1-1.861,1.271,32.211,32.211,0,0,1-4.2,2.068,83.68,83.68,0,0,1-8.569,2.81l-3.775,1.084a33.707,33.707,0,0,1-3.33.855,6.369,6.369,0,0,1-2.859-.085,4.155,4.155,0,0,1-1.844-1.126,2.849,2.849,0,0,1-.683-1.181,1.363,1.363,0,0,1-.066-.47,3.384,3.384,0,0,0,.87,1.533,4.079,4.079,0,0,0,1.79,1.01,6.218,6.218,0,0,0,2.738.016c1.014-.189,2.1-.551,3.282-.9l3.764-1.122c2.649-.794,5.576-1.623,8.517-2.829a32.617,32.617,0,0,0,4.154-2.032,12.533,12.533,0,0,0,1.8-1.213,2.213,2.213,0,0,0,.861-1.679,1.259,1.259,0,0,0-1.014-1.275,10.075,10.075,0,0,0-1.846-.218,15.142,15.142,0,0,0-3.366.264,35.511,35.511,0,0,0-4.748,1.33l-1.278.425a1.919,1.919,0,0,1-.456.122" transform="translate(193.49 4362)" fill="#ff9b6c"/>
    <path id="Trazado_208240" data-name="Trazado 208240" d="M133.827,232.5s21.968,55.438,34.372,56.891c13.215,1.548,26.035-10.163,23.629-30.382-.923-7.757-6.333-44.281-6.333-44.281l-27.5,11.827L165.3,241.7l-10.837-16.917Z" transform="translate(193.49 4362)" fill="#ffc09d"/>
    <path id="Trazado_208241" data-name="Trazado 208241" d="M183.594,269.918c-.046,0-.018-.71-.084-1.984a22.088,22.088,0,0,0-.849-5.3,13.973,13.973,0,0,0-4.176-6.61c-1.1-.987-2.516-1.781-3.731-2.925a38.627,38.627,0,0,1-3.594-3.645,123.192,123.192,0,0,1-10.428-14.538c-1.22-1.936-2.185-3.516-2.848-4.61l-.754-1.266a2.108,2.108,0,0,1-.236-.458,2.19,2.19,0,0,1,.315.408l.828,1.219c.736,1.123,1.742,2.657,2.971,4.529a139.305,139.305,0,0,0,10.5,14.41,39.527,39.527,0,0,0,3.545,3.611c1.182,1.124,2.566,1.9,3.715,2.946a14.115,14.115,0,0,1,4.208,6.837,20.422,20.422,0,0,1,.714,5.388c.006.642-.014,1.14-.04,1.476a2.139,2.139,0,0,1-.056.513" transform="translate(193.49 4362)" fill="#ff9b6c"/>
    <path id="Trazado_208242" data-name="Trazado 208242" d="M146.256,203.6c1.174,1.956,3.839,7.982,3.839,7.982s7.148,10.243,6.8,17c-.068,1.311-4.191,4-4.191,4s-13.041,9.781-16.171,10.433-7.825-2.348-8.347-2.478-18.131-11.349-18.22-12.933a3.318,3.318,0,0,1,1.9-3.411l19.969-1.132,9.492-7.434-.421-5.518" transform="translate(193.49 4362)" fill="#ffc09d"/>
    <path id="Trazado_208243" data-name="Trazado 208243" d="M145.251,223.217a7.939,7.939,0,0,1-1.075.8l-3.014,2.041c-1.292.854-2.771,1.862-4.531,2.98a3.588,3.588,0,0,1-1.617.233c-.529.009-1.069.033-1.619.062-1.1.059-2.238.156-3.407.253a59.9,59.9,0,0,1-6.626.3,6.838,6.838,0,0,1-2.881-.627,2.542,2.542,0,0,1-1.472-2.1,2.983,2.983,0,0,1,.686-2.016,4.059,4.059,0,0,1,1.251-.992,5.17,5.17,0,0,1,.926-.379.954.954,0,0,1,.341-.071c.015.039-.452.168-1.184.6a4.09,4.09,0,0,0-1.143,1,2.761,2.761,0,0,0-.571,1.843,2.224,2.224,0,0,0,1.332,1.8,6.588,6.588,0,0,0,2.723.546,65.729,65.729,0,0,0,6.582-.328c1.168-.1,2.312-.192,3.421-.245.554-.027,1.1-.047,1.635-.052a3.278,3.278,0,0,0,1.445-.177l4.541-2.879,3.092-1.926a7.725,7.725,0,0,1,1.165-.656" transform="translate(193.49 4362)" fill="#ff9b6c"/>
    <path id="Trazado_208244" data-name="Trazado 208244" d="M145.92,232.829a1.437,1.437,0,0,1-.394.112l-1.143.238-4.219.794L133.9,235.1l-3.7.648c-.644.1-1.286.244-1.982.312a3.4,3.4,0,0,1-2.1-.413c-.631-.368-1.144-.8-1.7-1.179s-1.1-.75-1.649-1.089a21.921,21.921,0,0,0-3.308-1.7c-1.092-.451-2.205-.72-3.205-1.146a8.787,8.787,0,0,1-2.518-1.638c-.679-.617-1.257-1.187-1.755-1.725a2.651,2.651,0,0,1-.793-1.7,1.527,1.527,0,0,1,.415-1.111.727.727,0,0,1,.357-.212c.011.019-.125.075-.293.271a1.5,1.5,0,0,0-.31,1.047c.014,1.03,1.269,2.006,2.581,3.2a8.626,8.626,0,0,0,2.454,1.537c.969.4,2.085.654,3.215,1.107a21.809,21.809,0,0,1,3.383,1.711c.56.342,1.118.71,1.674,1.1s1.1.827,1.665,1.155c1.138.706,2.523.238,3.8.06l3.708-.623,6.283-1.031,4.242-.658,1.158-.157a1.466,1.466,0,0,1,.408-.026" transform="translate(193.49 4362)" fill="#ff9b6c"/>
    <path id="Trazado_208245" data-name="Trazado 208245" d="M140.468,239.056a7.181,7.181,0,0,1-1.8.54,40.338,40.338,0,0,1-4.47.747,36.267,36.267,0,0,1-4.532.246,2.741,2.741,0,0,1-1.819-.511,7.585,7.585,0,0,0,1.822.2c1.14-.051,2.737-.178,4.481-.369s3.32-.437,4.459-.618a9.261,9.261,0,0,1,1.86-.238" transform="translate(193.49 4362)" fill="#ff9b6c"/>
    <path id="Trazado_208246" data-name="Trazado 208246" d="M153.8,230.434c.016,0,0,.107-.04.3a4.019,4.019,0,0,1-.305.819,6.063,6.063,0,0,1-2.228,2.294,9.938,9.938,0,0,1-2.012.94c-.363.128-.691.289-.79.618s-.122.823-.282,1.255a4.737,4.737,0,0,1-1.68,2.322,7.557,7.557,0,0,1-2.837,1.12,12.551,12.551,0,0,0-2.8.828c-.8.44-1.609.968-2.361,1.412-.384.228-.73.457-1.14.662a3.716,3.716,0,0,1-1.239.32,6.4,6.4,0,0,1-2.226-.244,17.974,17.974,0,0,1-2.967-1.166,5.751,5.751,0,0,1-1.028-.55,5.509,5.509,0,0,1,1.1.385,22.993,22.993,0,0,0,2.975,1.014,6.263,6.263,0,0,0,2.107.179,3.375,3.375,0,0,0,1.1-.306c.338-.174.711-.424,1.085-.653.764-.465,1.508-.968,2.389-1.459a12.566,12.566,0,0,1,2.9-.874,7.232,7.232,0,0,0,2.674-1.035,4.348,4.348,0,0,0,1.543-2.091c.155-.4.156-.787.3-1.258a1.487,1.487,0,0,1,1.046-.842,9.954,9.954,0,0,0,1.969-.857,6.277,6.277,0,0,0,2.24-2.1c.37-.636.46-1.047.5-1.035" transform="translate(193.49 4362)" fill="#ff9b6c"/>
    <path id="Trazado_208247" data-name="Trazado 208247" d="M143.685,213.614a62.1,62.1,0,0,1-5.779,4.9,62.252,62.252,0,0,1-6.069,4.541,62.292,62.292,0,0,1,5.78-4.9,62.109,62.109,0,0,1,6.068-4.54" transform="translate(193.49 4362)" fill="#ff9b6c"/>
    <path id="Trazado_208248" data-name="Trazado 208248" d="M148.086,207.987c-.489-.737-1.3-5.088-1.741-7.643a1.436,1.436,0,0,0-2.4-.8,9.348,9.348,0,0,0-2.39,4.466c-1.5,5.45.165,8.841.165,8.841" transform="translate(193.49 4362)" fill="#ffc09d"/>
  </g>
</svg>
