<svg xmlns="http://www.w3.org/2000/svg" xmlns:xlink="http://www.w3.org/1999/xlink" width="293.842" height="306.321" viewBox="0 0 293.842 306.321">
  <defs>
    <clipPath id="clip-path">
      <rect id="Rectángulo_291548" data-name="Rectángulo 291548" width="264.502" height="269.083" fill="none"/>
    </clipPath>
    <clipPath id="clip-path-3">
      <rect id="Rectángulo_291539" data-name="Rectángulo 291539" width="14.403" height="18.392" fill="none"/>
    </clipPath>
    <clipPath id="clip-path-4">
      <rect id="Rectángulo_291540" data-name="Rectángulo 291540" width="3.186" height="38.637" fill="none"/>
    </clipPath>
    <clipPath id="clip-path-5">
      <rect id="Rectángulo_291541" data-name="Rectángulo 291541" width="9.134" height="19.015" fill="none"/>
    </clipPath>
    <clipPath id="clip-path-6">
      <rect id="Rectángulo_291542" data-name="Rectángulo 291542" width="26.604" height="7.723" fill="none"/>
    </clipPath>
    <clipPath id="clip-path-7">
      <rect id="Rectángulo_291543" data-name="Rectángulo 291543" width="13.692" height="17.107" fill="none"/>
    </clipPath>
    <clipPath id="clip-path-8">
      <rect id="Rectángulo_291544" data-name="Rectángulo 291544" width="26.67" height="13.556" fill="none"/>
    </clipPath>
    <clipPath id="clip-path-9">
      <rect id="Rectángulo_291545" data-name="Rectángulo 291545" width="22.01" height="10.525" fill="none"/>
    </clipPath>
    <clipPath id="clip-path-10">
      <rect id="Rectángulo_291546" data-name="Rectángulo 291546" width="18.129" height="25.847" fill="none"/>
    </clipPath>
    <clipPath id="clip-path-11">
      <rect id="Rectángulo_291549" data-name="Rectángulo 291549" width="87.907" height="74.477" fill="none"/>
    </clipPath>
  </defs>
  <g id="Grupo_871036" data-name="Grupo 871036" transform="translate(-180.158 -3620.148)">
    <g id="Grupo_871031" data-name="Grupo 871031" transform="translate(209.498 3657.387)">
      <g id="Grupo_871030" data-name="Grupo 871030" clip-path="url(#clip-path)">
        <g id="Grupo_871029" data-name="Grupo 871029">
          <g id="Grupo_871028" data-name="Grupo 871028" clip-path="url(#clip-path)">
            <path id="Trazado_264728" data-name="Trazado 264728" d="M164.425,74.931C165.367,68.013,173.041,62,170.5,55.5c-1.7-4.361-7.351-6.15-9.1-10.493-1.211-3.008-.262-6.619-1.738-9.506-2.018-3.947-7.471-4.688-10.409-8.008-2.023-2.287-2.607-5.522-4.369-8.017s-5.961-3.855-7.663-1.32l17.592,49.5c2.639,12.244,3.9,24.518,6.535,36.761,3.71,1.834,8.258-1.725,9.016-5.793s-1.03-8.137-2.821-11.868-3.676-7.724-3.118-11.825" transform="translate(-39.7 -4.86)" fill="#263238"/>
            <path id="Trazado_264729" data-name="Trazado 264729" d="M110.055,85.382l-20.64-54.12L80.5,19.632c-2.033-5.859-10.053-2.666-14.149,1.99s-3.13,17.729-1.969,23.821.618,7.663.131,13.845c-.656,8.344-6.07,16.49-3.748,24.531,1.635,5.663,6.735,9.613,9.41,14.865,3.342,6.562,2.58,14.379,3.983,21.608s6.923,15.026,14.226,14.084q-.311-3.065-.622-6.13c8.971,3.462,20.192-.6,24.863-9.008,5.689-10.233,1.6-22.916-2.567-33.855" transform="translate(-17.413 -4.761)" fill="#263238"/>
            <path id="Trazado_264730" data-name="Trazado 264730" d="M78.32,43.7a29.786,29.786,0,0,1,23.44-32.9l1.509-.317c16.478-2.462,27.773,10.157,29.778,26.7l15.19,88.08H109.556l-5.919-29.14s-16.159.848-19.633-14.758C82.328,73.82,80.137,58.019,78.32,43.7" transform="translate(-22.59 -2.942)" fill="#ffbe9d"/>
            <path id="Trazado_264731" data-name="Trazado 264731" d="M113.853,126.917a38.777,38.777,0,0,0,19.243-10.3s-2.461,12.271-18.368,14.135Z" transform="translate(-32.94 -33.74)" fill="#eb996e"/>
            <path id="Trazado_264732" data-name="Trazado 264732" d="M88.376,74.16A2.282,2.282,0,0,0,91,75.962a2.184,2.184,0,0,0,1.881-2.5,2.284,2.284,0,0,0-2.625-1.8,2.186,2.186,0,0,0-1.883,2.5" transform="translate(-25.56 -20.725)" fill="#263238"/>
            <path id="Trazado_264733" data-name="Trazado 264733" d="M85.382,65.74c.338.233,1.767-1.374,4.174-1.872,2.4-.532,4.42.335,4.619-.014.1-.157-.292-.624-1.178-1.022a6.26,6.26,0,0,0-3.773-.35,6.015,6.015,0,0,0-3.246,1.854c-.62.722-.76,1.3-.6,1.4" transform="translate(-24.684 -18.037)" fill="#263238"/>
            <path id="Trazado_264734" data-name="Trazado 264734" d="M118.837,67.6a2.282,2.282,0,0,0,2.627,1.8,2.183,2.183,0,0,0,1.881-2.5,2.285,2.285,0,0,0-2.625-1.8,2.184,2.184,0,0,0-1.883,2.5" transform="translate(-34.373 -18.827)" fill="#263238"/>
            <path id="Trazado_264735" data-name="Trazado 264735" d="M118.77,59.4c.339.233,1.771-1.374,4.175-1.872,2.395-.532,4.419.335,4.619-.014.1-.157-.289-.625-1.178-1.022a6.26,6.26,0,0,0-3.773-.35A6.015,6.015,0,0,0,119.367,58c-.618.722-.76,1.3-.6,1.4" transform="translate(-34.344 -16.202)" fill="#263238"/>
            <path id="Trazado_264736" data-name="Trazado 264736" d="M109.112,80.2c-.017-.139-1.566-.085-4.052.114-.628.066-1.234.065-1.426-.332a3.2,3.2,0,0,1,.028-1.906q.4-2.409.835-5.056c1.126-7.185,1.8-13.04,1.514-13.084s-1.438,5.747-2.563,12.932c-.263,1.769-.515,3.455-.753,5.068a3.628,3.628,0,0,0,.187,2.476,1.571,1.571,0,0,0,1.2.686,4.255,4.255,0,0,0,1.073-.073c2.465-.38,3.978-.687,3.959-.824" transform="translate(-29.674 -17.34)" fill="#263238"/>
            <path id="Trazado_264737" data-name="Trazado 264737" d="M116.107,51.683c.547.454,2.5-1.058,5.166-2.214,2.64-1.21,5.072-1.656,5.1-2.366,0-.334-.665-.671-1.8-.755a9.771,9.771,0,0,0-7.82,3.489c-.7.9-.893,1.624-.642,1.845" transform="translate(-33.562 -13.404)" fill="#263238"/>
            <path id="Trazado_264738" data-name="Trazado 264738" d="M85.751,56.291c.3.641,2.075.456,4.064.886,2,.36,3.579,1.208,4.1.728.233-.237.095-.843-.521-1.527a6.026,6.026,0,0,0-6.576-1.3c-.829.4-1.188.9-1.063,1.212" transform="translate(-24.802 -15.8)" fill="#263238"/>
            <path id="Trazado_264739" data-name="Trazado 264739" d="M151.58,26.132s-.694-3.48-5.747-6.621L136.355,21.6c3.282,1.007,2.75,5.263,2.293,6.261-1.7,11.7,7.891,15.906,7.891,15.906l1.518,9.633c.131,2.507,1.451,4.275,3.912,3.773h0s1.287-7.732,1.343-10.8c.109-5.948.138-14.6-1.733-20.242" transform="translate(-39.45 -5.645)" fill="#263238"/>
            <path id="Trazado_264740" data-name="Trazado 264740" d="M155.515,64.58c.242-.171,10.084-5.434,11.985,5.334s-9.3,10.456-9.375,10.15-2.61-15.484-2.61-15.484" transform="translate(-44.994 -18.269)" fill="#ffbe9d"/>
            <path id="Trazado_264741" data-name="Trazado 264741" d="M161.232,77.045c.041-.043.21.1.553.188a1.906,1.906,0,0,0,1.407-.219c1.064-.618,1.7-2.593,1.413-4.543a6.3,6.3,0,0,0-1-2.593,2.2,2.2,0,0,0-1.665-1.19.97.97,0,0,0-1.016.709c-.091.327.015.529-.038.558-.026.033-.263-.139-.254-.6a1.207,1.207,0,0,1,.3-.749,1.433,1.433,0,0,1,.988-.457,2.677,2.677,0,0,1,2.254,1.323,6.471,6.471,0,0,1,1.181,2.887c.314,2.182-.439,4.408-1.916,5.133a2.042,2.042,0,0,1-1.766.018c-.381-.208-.48-.438-.446-.464" transform="translate(-46.474 -19.714)" fill="#eb996e"/>
            <path id="Trazado_264742" data-name="Trazado 264742" d="M135.333,21.929l-.018-.007c-.071.011-.139.031-.212.036Z" transform="translate(-39.088 -6.342)" fill="#263238"/>
            <path id="Trazado_264743" data-name="Trazado 264743" d="M131.643,26.3c-.844-2.632-.414-5.55-1.727-7.982s-4.033-5.386-6.66-6.247a18.567,18.567,0,0,0-5.575-1.034s0,.126-.055-.127c-.9-4.493-10.122-9.6-12.946-10.3C95.68-1.627,92.132,2.786,83.4,5.9S66.037,15.319,64.818,24.511a6.6,6.6,0,0,0,4.294.819,32.954,32.954,0,0,0-1.947,17.982c1,6.6,3.525,12.877,6.454,18.876C71.966,59,72.6,55.108,73.784,51.72s2.905-6.644,3.371-10.2c.691-5.288-.236-9.316,1.477-14.367,1.775-5.231,8.116-6.745,8.116-6.745,3.892.063,7.142-2.891,10.242-5.244a13.2,13.2,0,0,1,9.664-2.125c3.349.435,3.829,1.458,6.949,2.735a10.222,10.222,0,0,1,3.043,4.222c-.028,1.572.331,2.535-.085,4.052-1.6,5.83,1.968,12.087,6.955,15.5s11.117,4.624,17.056,5.754a81.635,81.635,0,0,1-8.929-19" transform="translate(-18.753 0)" fill="#263238"/>
            <path id="Trazado_264744" data-name="Trazado 264744" d="M166.536,107.649l-6.71-25.25a33.259,33.259,0,0,0-2.386-6.9,52.279,52.279,0,0,1-2.62-4.793,18.308,18.308,0,0,1-.869-7.292,30.774,30.774,0,0,0-.269-7.371,8.472,8.472,0,0,0-4.037-5.907l-7.476-.485c3.13,3.486,3.383,8.66,2.953,13.325s-1.361,9.468-.014,13.956c1.73,5.759,6.987,10.129,7.966,16.062.516,3.126-.235,6.3-.66,9.439s-.463,6.557,1.266,9.211a4.321,4.321,0,0,0,2.7,2.042,5.909,5.909,0,0,0,2.944-.5l5.314-1.876a2.457,2.457,0,0,0,1.9-3.664" transform="translate(-41.132 -14.366)" fill="#263238"/>
            <path id="Trazado_264745" data-name="Trazado 264745" d="M90.009,134.1s-.139.022-.414.045a3.539,3.539,0,0,1-1.2-.181,5.212,5.212,0,0,1-3.149-3.3,6.912,6.912,0,0,1-.171-3.376,13.367,13.367,0,0,1,1.378-3.786c.667-1.286,1.517-2.576,2.305-4a13.29,13.29,0,0,0,1.723-4.794c.48-3.581-.836-7.582-3.3-11-2.485-3.46-6.1-6.307-9.752-9.4a47.439,47.439,0,0,1-5.315-5.126,20.6,20.6,0,0,1-3.981-6.594,19.179,19.179,0,0,1-.841-7.93,46.867,46.867,0,0,1,1.644-8.051c.731-2.671,1.514-5.292,2.06-7.921a27.963,27.963,0,0,0,.64-7.854c-.442-5.187-2.415-9.905-3.4-14.612a23.335,23.335,0,0,1-.584-7,17.278,17.278,0,0,1,1.783-6.383,23.535,23.535,0,0,1,3.452-5.141A23.948,23.948,0,0,1,77.1,13.846a13.667,13.667,0,0,1,9.236-2.82,8.536,8.536,0,0,1,3.773,1.392,9.279,9.279,0,0,1,2.441,2.342,7.319,7.319,0,0,1,1.173,2.434,7.059,7.059,0,0,1,.206,1.067c.016.331.021.633.018.9q-.049.4-.087.7a4.7,4.7,0,0,1-.127.495c-.075.264-.123.4-.123.4s.023-.139.087-.405c.026-.134.083-.295.108-.5l.068-.7c0-.265-.014-.562-.036-.888a7.111,7.111,0,0,0-.22-1.048,7.266,7.266,0,0,0-1.184-2.379,9.174,9.174,0,0,0-2.422-2.278,8.361,8.361,0,0,0-3.7-1.334,13.474,13.474,0,0,0-9.063,2.827,23.79,23.79,0,0,0-4.158,3.821A23.329,23.329,0,0,0,69.7,22.968a16.987,16.987,0,0,0-1.735,6.275,23.044,23.044,0,0,0,.594,6.906c.988,4.667,2.975,9.389,3.433,14.656a28.326,28.326,0,0,1-.641,7.957c-.549,2.651-1.334,5.278-2.063,7.944a46.58,46.58,0,0,0-1.635,7.987,18.806,18.806,0,0,0,.818,7.778,20.26,20.26,0,0,0,3.906,6.484,47.253,47.253,0,0,0,5.268,5.1c3.641,3.089,7.27,5.961,9.78,9.476,2.487,3.476,3.817,7.55,3.31,11.215a11.951,11.951,0,0,1-.674,2.593,18.228,18.228,0,0,1-1.1,2.282c-.8,1.43-1.659,2.713-2.327,3.982a13.219,13.219,0,0,0-1.389,3.721,6.778,6.778,0,0,0,.134,3.3,5.159,5.159,0,0,0,3.037,3.277,4.005,4.005,0,0,0,1.594.207" transform="translate(-19.44 -3.171)" fill="#455a64"/>
            <path id="Trazado_264746" data-name="Trazado 264746" d="M107.046,3.293a1.762,1.762,0,0,1,.637.008,5.793,5.793,0,0,1,1.676.475,6.719,6.719,0,0,1,2.119,1.491,6.544,6.544,0,0,1,1.591,2.75,6.548,6.548,0,0,1,.036,3.178,6.717,6.717,0,0,1-1.061,2.364,5.785,5.785,0,0,1-1.2,1.264,1.744,1.744,0,0,1-.544.332,10.99,10.99,0,0,0,1.527-1.742,6.724,6.724,0,0,0,.885-5.3,6.722,6.722,0,0,0-3.465-4.1,10.93,10.93,0,0,0-2.2-.719" transform="translate(-30.97 -0.947)" fill="#455a64"/>
            <path id="Trazado_264747" data-name="Trazado 264747" d="M125.645,5.641a2.959,2.959,0,0,1,.63,1.215,6.689,6.689,0,0,1-1.252,6.287,2.959,2.959,0,0,1-1.048.881c-.041-.05.357-.385.844-1.043a7.332,7.332,0,0,0,1.205-6.053c-.2-.795-.436-1.257-.379-1.287" transform="translate(-35.868 -1.632)" fill="#455a64"/>
            <path id="Trazado_264748" data-name="Trazado 264748" d="M162.142,104.163c-.011-.031.374-.1,1.013-.435a5.7,5.7,0,0,0,2.182-2.216,7.933,7.933,0,0,0,.963-4.8,15.1,15.1,0,0,0-2.431-6.1,75.457,75.457,0,0,1-4.288-6.859,12.222,12.222,0,0,1-1.249-4.356,13.206,13.206,0,0,1,.551-4.772c.905-3.184,2.709-6.159,4.2-9.358a23.308,23.308,0,0,0,1.7-5.087,10.9,10.9,0,0,0-.176-5.425,9.025,9.025,0,0,0-3.165-4.36,26.228,26.228,0,0,0-4.622-2.74,44.488,44.488,0,0,1-4.609-2.514A12.462,12.462,0,0,1,148.6,41.62a15.65,15.65,0,0,1-1.913-4.407,38.428,38.428,0,0,1-.9-4.427,42.277,42.277,0,0,0-1.635-7.872,10.927,10.927,0,0,0-3.676-5.354,8.564,8.564,0,0,0-4.627-1.643,5.8,5.8,0,0,0-3.027.708,4.272,4.272,0,0,0-.684.454,1.769,1.769,0,0,1-.232.162,1.476,1.476,0,0,1,.208-.191,3.657,3.657,0,0,1,.669-.49,5.752,5.752,0,0,1,3.068-.787,8.636,8.636,0,0,1,4.743,1.618,11.094,11.094,0,0,1,3.8,5.434,42.01,42.01,0,0,1,1.691,7.913c.466,2.838,1.03,5.97,2.8,8.694a12.135,12.135,0,0,0,3.524,3.42,44.707,44.707,0,0,0,4.576,2.485,26.516,26.516,0,0,1,4.688,2.774,9.394,9.394,0,0,1,3.29,4.536,11.25,11.25,0,0,1,.185,5.609,23.576,23.576,0,0,1-1.733,5.167c-1.511,3.229-3.3,6.177-4.2,9.3a12.9,12.9,0,0,0-.554,4.651,11.917,11.917,0,0,0,1.2,4.25,77.157,77.157,0,0,0,4.234,6.854,15.225,15.225,0,0,1,2.413,6.209,8.038,8.038,0,0,1-1.044,4.894,5.665,5.665,0,0,1-2.272,2.209,4.32,4.32,0,0,1-.775.3,1.568,1.568,0,0,1-.273.069" transform="translate(-38.163 -5.142)" fill="#455a64"/>
            <path id="Trazado_264749" data-name="Trazado 264749" d="M158.38,102.09a2.4,2.4,0,0,1-.927-.183,4.03,4.03,0,0,1-1.993-1.8,5.511,5.511,0,0,1-.677-1.851,9.317,9.317,0,0,1-.063-2.34c.068-.837.219-1.719.36-2.652a26.02,26.02,0,0,0,.272-2.964,24.417,24.417,0,0,0-3.908-13.883,27.888,27.888,0,0,0-2.605-3.333,26.773,26.773,0,0,1-2.779-3.5,7.292,7.292,0,0,1-1.222-4.469,17.91,17.91,0,0,1,1.309-4.59,14.7,14.7,0,0,0,.652-2.261,8.193,8.193,0,0,0,.082-2.293,14.153,14.153,0,0,0-1.342-4.32c-.632-1.362-1.34-2.667-1.939-4a17.017,17.017,0,0,1-1.325-4.08,43.813,43.813,0,0,1-.468-7.881,31.536,31.536,0,0,0-.586-6.793,11.931,11.931,0,0,0-2.316-5.049,9.184,9.184,0,0,0-3.3-2.592,6.947,6.947,0,0,0-2.588-.624c-.613-.026-.937.033-.939.006a4.088,4.088,0,0,1,.941-.081,6.762,6.762,0,0,1,2.644.566,9.218,9.218,0,0,1,3.4,2.593,12.067,12.067,0,0,1,2.412,5.123,31.382,31.382,0,0,1,.637,6.849,44.092,44.092,0,0,0,.5,7.82c.453,2.735,1.964,5.258,3.258,7.992a14.451,14.451,0,0,1,1.379,4.434,8.538,8.538,0,0,1-.085,2.4,14.97,14.97,0,0,1-.666,2.32,17.691,17.691,0,0,0-1.291,4.493,6.932,6.932,0,0,0,1.163,4.251,26.652,26.652,0,0,0,2.736,3.455,27.937,27.937,0,0,1,2.626,3.381,24.534,24.534,0,0,1,3.884,14.077,25.874,25.874,0,0,1-.3,2.991c-.151.935-.309,1.809-.387,2.634a9.245,9.245,0,0,0,.031,2.293,5.406,5.406,0,0,0,.628,1.807,4.028,4.028,0,0,0,1.9,1.8,5.176,5.176,0,0,0,.9.252" transform="translate(-38.213 -5.948)" fill="#455a64"/>
            <path id="Trazado_264750" data-name="Trazado 264750" d="M120.641,97.886a4.415,4.415,0,0,0-4.809-2.6c-1.495.3-2.746,1.378-4.243,1.666l-.122.754,1.618,4.855a1.83,1.83,0,0,0,2.522,1.528,8.591,8.591,0,0,0,3.362-1,4.414,4.414,0,0,0,1.674-5.2" transform="translate(-32.249 -27.547)" fill="#eb996e"/>
            <path id="Trazado_264751" data-name="Trazado 264751" d="M114.285,104.281c-.011-.05.275-.161.8-.328a22.236,22.236,0,0,0,2.158-.768,6.215,6.215,0,0,0,2.589-1.944,3.8,3.8,0,0,0,.727-1.688,3.237,3.237,0,0,0-.322-1.9,3.813,3.813,0,0,0-3.045-2.084,5.4,5.4,0,0,0-3.144.666,7.247,7.247,0,0,1-2.225.8c-.574.064-.883-.058-.874-.1,0-.061.312-.043.819-.186a9.421,9.421,0,0,0,2.041-.986,5.679,5.679,0,0,1,3.453-.878,4.654,4.654,0,0,1,2.068.683,4.359,4.359,0,0,1,1.571,1.753,3.889,3.889,0,0,1,.375,2.338,4.38,4.38,0,0,1-.9,1.993,6.384,6.384,0,0,1-2.938,2.017,12.4,12.4,0,0,1-2.286.561c-.546.081-.852.1-.863.048" transform="translate(-32.099 -27.446)" fill="#263238"/>
            <path id="Trazado_264752" data-name="Trazado 264752" d="M107.054,142.231c.295.807,7.685,20.427,22.006,18s18.856-26.942,18.856-26.942l21.837,18.2L154.06,307.4H101.07l-10.6-100.833Z" transform="translate(-26.174 -38.563)" fill="#f9fbfc"/>
            <path id="Trazado_264753" data-name="Trazado 264753" d="M72.006,148.837s-25.49,5.5-29.152,9.993c-2.939,3.6-24.1,40.234-24.1,40.234L9.173,221.289s-7.137,4.078-8.36,8.972S.4,247.39,3.871,251.672c0,0,2.243,14.681,11.418,15.293s17.564-3.342,23.654-8.768c5.38-4.794,14.538-37.483,14.07-39.15Z" transform="translate(-0.08 -43.061)" fill="#031c31"/>
            <path id="Trazado_264754" data-name="Trazado 264754" d="M74.85,149.248l-1.632,61.2v96.926h28.949l1.458-93.67s6.38-52.807,5.564-57.5-6.435-23-6.435-23l-9.644,11.111Z" transform="translate(-21.183 -38.538)" fill="#031c31"/>
            <g id="Grupo_871006" data-name="Grupo 871006" transform="translate(29.663 179.983)" opacity="0.3">
              <g id="Grupo_871005" data-name="Grupo 871005">
                <g id="Grupo_871004" data-name="Grupo 871004" clip-path="url(#clip-path-3)">
                  <path id="Trazado_264755" data-name="Trazado 264755" d="M54.619,259.835A17.185,17.185,0,0,0,44.5,253.359c-.981-.208-2.27-.177-2.664.746a2.108,2.108,0,0,0,.682,2.1l1.254,1.509a22.706,22.706,0,0,1,6.909,13.93,12.261,12.261,0,0,0-4.509-13.56c3.953.795,6.967,3.9,9.711,6.856.712-1.694-.166-3.634-1.264-5.108" transform="translate(-41.738 -253.254)"/>
                </g>
              </g>
            </g>
            <g id="Grupo_871009" data-name="Grupo 871009" transform="translate(49.581 140.5)" opacity="0.3">
              <g id="Grupo_871008" data-name="Grupo 871008">
                <g id="Grupo_871007" data-name="Grupo 871007" clip-path="url(#clip-path-4)">
                  <path id="Trazado_264756" data-name="Trazado 264756" d="M72.347,197.7a68.879,68.879,0,0,0,.373,38.637c-.03-12.441.74-26.245-.373-38.637" transform="translate(-69.766 -197.698)"/>
                </g>
              </g>
            </g>
            <path id="Trazado_264757" data-name="Trazado 264757" d="M58.919,268.073c-.057.032-.48-.717-1.319-1.81a19.048,19.048,0,0,0-8.54-6.283c-1.293-.475-2.134-.657-2.121-.721a1.939,1.939,0,0,1,.6.067,11.956,11.956,0,0,1,1.6.407,17,17,0,0,1,8.665,6.376,12.046,12.046,0,0,1,.865,1.409,1.933,1.933,0,0,1,.243.556" transform="translate(-13.581 -75.006)" fill="#263238"/>
            <path id="Trazado_264758" data-name="Trazado 264758" d="M87.246,162.766a1.254,1.254,0,0,1-.334.108l-.972.239-3.58.847-11.807,2.816c-4.614,1.1-8.8,2.062-11.837,2.711-1.519.327-2.752.574-3.607.733l-.986.171a1.251,1.251,0,0,1-.349.035,1.3,1.3,0,0,1,.334-.108l.971-.239,3.58-.847,11.809-2.816c4.612-1.094,8.795-2.061,11.834-2.711,1.519-.326,2.753-.574,3.607-.733l.987-.171a1.251,1.251,0,0,1,.349-.035" transform="translate(-15.558 -47.09)" fill="#fff"/>
            <path id="Trazado_264759" data-name="Trazado 264759" d="M111.189,140.432a17.035,17.035,0,0,1-1.573,1.506c-.981.915-2.3,2.214-3.656,3.745s-2.479,3.006-3.265,4.094a17.2,17.2,0,0,1-1.3,1.748,10.092,10.092,0,0,1,1.084-1.9,37.339,37.339,0,0,1,6.963-7.886,10.165,10.165,0,0,1,1.748-1.31" transform="translate(-29.335 -40.629)" fill="#fff"/>
            <path id="Trazado_264760" data-name="Trazado 264760" d="M116.8,157.2a22.974,22.974,0,0,1-1.868,1.689c-1.163,1.028-2.734,2.487-4.364,4.2s-3,3.362-3.971,4.577a22.548,22.548,0,0,1-1.589,1.953,2.443,2.443,0,0,1,.333-.592c.232-.37.59-.89,1.049-1.519a48.606,48.606,0,0,1,8.373-8.82c.605-.491,1.106-.875,1.463-1.126a2.442,2.442,0,0,1,.574-.362" transform="translate(-30.381 -45.481)" fill="#fff"/>
            <path id="Trazado_264761" data-name="Trazado 264761" d="M106.446,203.184c.006.1-7.323.6-16.368,1.11s-16.384.842-16.39.741,7.321-.6,16.369-1.11,16.383-.843,16.388-.741" transform="translate(-21.32 -58.78)" fill="#fff"/>
            <path id="Trazado_264762" data-name="Trazado 264762" d="M102.531,245.227a6.4,6.4,0,0,1-1.1.18c-.711.094-1.743.205-3.02.321-2.554.233-6.093.454-10.006.509s-7.459-.074-10.018-.237c-1.28-.082-2.314-.164-3.027-.239a6.418,6.418,0,0,1-1.105-.15,6.4,6.4,0,0,1,1.115.006l3.03.121c2.558.1,6.094.18,10,.129s7.437-.234,9.991-.4l3.026-.2a6.358,6.358,0,0,1,1.114-.037" transform="translate(-21.483 -70.945)" fill="#fff"/>
            <path id="Trazado_264763" data-name="Trazado 264763" d="M102.81,293.645a7.076,7.076,0,0,1-1.172.047l-3.192.026c-2.694.029-6.415.126-10.516.392s-7.8.654-10.48.974l-3.168.388a7.075,7.075,0,0,1-1.168.105,7.124,7.124,0,0,1,1.146-.248c.742-.138,1.82-.312,3.155-.5,2.671-.387,6.378-.815,10.49-1.084s7.842-.323,10.54-.285c1.349.018,2.44.051,3.195.092a7.087,7.087,0,0,1,1.169.1" transform="translate(-21.154 -84.9)" fill="#fff"/>
            <path id="Trazado_264764" data-name="Trazado 264764" d="M102.533,355.959a7.4,7.4,0,0,1-1.125.387c-.365.117-.815.25-1.345.372s-1.129.291-1.805.407a39.2,39.2,0,0,1-4.772.648,40.359,40.359,0,0,1-11.739-.858,39.317,39.317,0,0,1-4.629-1.335c-.652-.213-1.22-.463-1.726-.665s-.933-.394-1.277-.564a7.376,7.376,0,0,1-1.057-.547,7.263,7.263,0,0,1,1.114.414c.352.148.783.325,1.3.5s1.082.414,1.735.61a44.027,44.027,0,0,0,4.616,1.249,42.865,42.865,0,0,0,11.643.851,43.85,43.85,0,0,0,4.748-.565c.675-.1,1.274-.245,1.805-.352s.986-.214,1.355-.31a7.391,7.391,0,0,1,1.163-.248" transform="translate(-21.137 -102.362)" fill="#fff"/>
            <path id="Trazado_264765" data-name="Trazado 264765" d="M36.962,275.166a2.986,2.986,0,0,1,.087.538c.018.178.056.4.07.658s.014.569.022.9a14.37,14.37,0,0,1-1.254,5.6,16.2,16.2,0,0,1-5.372,6.565,17.37,17.37,0,0,1-9.9,3.042,20.263,20.263,0,0,1-10.053-2.622,23.9,23.9,0,0,1-6.519-5.474,26.651,26.651,0,0,1-3.175-4.787C.557,278.98.331,278.5.2,278.174a3.014,3.014,0,0,1-.2-.508,2.958,2.958,0,0,1,.264.476c.155.32.4.784.725,1.377A28.845,28.845,0,0,0,4.238,284.2a24.123,24.123,0,0,0,6.486,5.346,20.128,20.128,0,0,0,9.885,2.55,17.177,17.177,0,0,0,9.709-2.951,16.128,16.128,0,0,0,5.329-6.394A14.8,14.8,0,0,0,37,277.262q.006-.5.011-.9c0-.259-.028-.478-.035-.655a3.049,3.049,0,0,1-.012-.545" transform="translate(0 -79.611)" fill="#fff"/>
            <path id="Trazado_264766" data-name="Trazado 264766" d="M33.734,310.034a4,4,0,0,1-.791.385,10.271,10.271,0,0,1-.961.377c-.381.131-.809.3-1.3.425a24.682,24.682,0,0,1-3.482.755,27.952,27.952,0,0,1-4.359.244,27.718,27.718,0,0,1-4.337-.5,24.617,24.617,0,0,1-3.433-.955c-.483-.156-.9-.348-1.273-.5a10.27,10.27,0,0,1-.937-.432,4.023,4.023,0,0,1-.768-.431c.031-.064,1.152.493,3.062,1.115a27.823,27.823,0,0,0,3.413.868,30.188,30.188,0,0,0,4.283.463,30.172,30.172,0,0,0,4.3-.213,28.06,28.06,0,0,0,3.457-.669c1.943-.51,3.1-1,3.121-.936" transform="translate(-3.499 -89.516)" fill="#fff"/>
            <path id="Trazado_264767" data-name="Trazado 264767" d="M59.232,279.1c-.072,0-.112-1.193-.485-3.074a24.3,24.3,0,0,0-.891-3.24,23.988,23.988,0,0,0-3.994-7.151,24.167,24.167,0,0,0-2.292-2.458c-1.405-1.3-2.4-1.966-2.362-2.025a3.666,3.666,0,0,1,.722.43,8.791,8.791,0,0,1,.8.574c.3.239.659.5,1.013.827a21.558,21.558,0,0,1,2.38,2.436,22.512,22.512,0,0,1,4.053,7.256,21.592,21.592,0,0,1,.826,3.3c.1.475.128.915.173,1.3a8.869,8.869,0,0,1,.068.984,3.679,3.679,0,0,1-.013.841" transform="translate(-14.236 -75.555)" fill="#fff"/>
            <path id="Trazado_264768" data-name="Trazado 264768" d="M69.3,241.684a21.639,21.639,0,0,0-4.062-2.8,21.654,21.654,0,0,0-4.716-1.452,4.162,4.162,0,0,1,1.474.058,11.988,11.988,0,0,1,6.345,3.076,4.194,4.194,0,0,1,.959,1.121" transform="translate(-17.51 -68.682)" fill="#fff"/>
            <path id="Trazado_264769" data-name="Trazado 264769" d="M64.22,205.032a5,5,0,0,1-.878-.441l-2.334-1.3c-1.97-1.1-4.7-2.593-7.765-4.162s-5.873-2.912-7.916-3.869l-2.418-1.135a4.936,4.936,0,0,1-.871-.455,5.063,5.063,0,0,1,.928.323c.588.229,1.433.58,2.469,1.028,2.073.9,4.907,2.207,7.977,3.779s5.787,3.106,7.726,4.264c.97.578,1.748,1.058,2.278,1.4a4.942,4.942,0,0,1,.8.564" transform="translate(-12.162 -56.032)" fill="#fff"/>
            <path id="Trazado_264770" data-name="Trazado 264770" d="M50.646,276.49c-.072-.006.055-1.162-.05-3.021a23.189,23.189,0,0,0-.423-3.234,22.887,22.887,0,0,0-2.913-7.4,23.181,23.181,0,0,0-1.9-2.655c-1.19-1.431-2.072-2.19-2.023-2.244a3.418,3.418,0,0,1,.645.5,8.589,8.589,0,0,1,.7.651c.261.267.574.558.874.922a20.559,20.559,0,0,1,1.987,2.644,21.527,21.527,0,0,1,2.958,7.511,20.635,20.635,0,0,1,.35,3.29c.028.47,0,.9-.011,1.27a8.449,8.449,0,0,1-.07.955,3.43,3.43,0,0,1-.13.807" transform="translate(-12.539 -74.627)" fill="#263238"/>
            <path id="Trazado_264771" data-name="Trazado 264771" d="M39.653,290.461a1.2,1.2,0,0,1-.215.267c-.154.163-.367.418-.678.71a21.674,21.674,0,0,1-2.784,2.3A23.639,23.639,0,0,1,13.184,296.2a21.593,21.593,0,0,1-3.211-1.656c-.366-.218-.63-.421-.814-.548a1.2,1.2,0,0,1-.267-.215,11.525,11.525,0,0,1,1.155.64,25.81,25.81,0,0,0,3.236,1.537,24.7,24.7,0,0,0,11.578,1.591,24.7,24.7,0,0,0,10.968-4.027,25.83,25.83,0,0,0,2.833-2.192,11.622,11.622,0,0,1,.991-.872" transform="translate(-2.572 -84.036)" fill="#263238"/>
            <path id="Trazado_264772" data-name="Trazado 264772" d="M73.131,197.48a.678.678,0,0,1,.025.183c.009.143.021.32.035.538q.035.754.1,2.069c.085,1.8.164,4.4.247,7.615.154,6.431.193,15.322.03,25.135s-.339,18.7-.385,25.13c-.02,3.193-.036,5.787-.048,7.616-.009.876-.016,1.568-.021,2.071-.006.218-.011.4-.014.539a.693.693,0,0,1-.018.183.673.673,0,0,1-.021-.183c-.006-.143-.013-.32-.022-.538-.011-.5-.028-1.195-.048-2.071-.039-1.8-.061-4.4-.07-7.618-.021-6.433.116-15.321.277-25.135s.165-18.694.078-25.125c-.054-3.192-.1-5.786-.129-7.615-.012-.876-.021-1.568-.028-2.071,0-.219,0-.4,0-.539a.7.7,0,0,1,.014-.184" transform="translate(-21.096 -57.135)" fill="#263238"/>
            <g id="Grupo_871012" data-name="Grupo 871012" transform="translate(77.704 118.169)" opacity="0.3">
              <g id="Grupo_871011" data-name="Grupo 871011">
                <g id="Grupo_871010" data-name="Grupo 871010" clip-path="url(#clip-path-5)">
                  <path id="Trazado_264773" data-name="Trazado 264773" d="M109.337,180.342c.516,1.38.952,2.544,1.468,3.924.189.505.55,1.115,1.08,1.014.33-.063.534-.387.7-.682a57.186,57.186,0,0,0,5.727-15.423,4.016,4.016,0,0,0,.1-1.74,1.434,1.434,0,0,0-1.168-1.156c-.836-.067-2.04,1.743-2.4,2.5-2.157,4.462-3.507,7.027-5.5,11.564" transform="translate(-109.337 -166.276)"/>
                </g>
              </g>
            </g>
            <path id="Trazado_264774" data-name="Trazado 264774" d="M115.784,160.523a4.208,4.208,0,0,0-1.47.532,7.908,7.908,0,0,0-2.609,3.408l-6.231,13.556-.24.523-.1-.568c-.276-1.52-.564-3.1-.858-4.713-1.243-6.971-2.367-13.28-3.19-17.894l-.925-5.43c-.1-.613-.174-1.105-.233-1.48a2.722,2.722,0,0,1-.057-.52,2.779,2.779,0,0,1,.13.507l.3,1.467c.254,1.318.607,3.155,1.04,5.409.851,4.609,2.013,10.911,3.3,17.875.292,1.615.577,3.195.852,4.715l-.344-.044c2.518-5.4,4.729-10.13,6.348-13.506a7.8,7.8,0,0,1,2.755-3.413,3.479,3.479,0,0,1,1.124-.4,1.889,1.889,0,0,1,.413-.019" transform="translate(-28.893 -42.801)" fill="#263238"/>
            <g id="Grupo_871015" data-name="Grupo 871015" transform="translate(7.003 209.426)" opacity="0.3">
              <g id="Grupo_871014" data-name="Grupo 871014">
                <g id="Grupo_871013" data-name="Grupo 871013" clip-path="url(#clip-path-6)">
                  <path id="Trazado_264775" data-name="Trazado 264775" d="M22.792,299.008a26.016,26.016,0,0,1-12.939-3.116,12.051,12.051,0,0,0,7.547,6.013A16.124,16.124,0,0,0,27.887,301a25.238,25.238,0,0,0,8.57-6.314,26.008,26.008,0,0,1-13.666,4.323" transform="translate(-9.853 -294.684)"/>
                </g>
              </g>
            </g>
            <path id="Trazado_264776" data-name="Trazado 264776" d="M170.115,247.712l3.206,57.414,43.573-.249s-5.6-63.531-5.6-64.142c0-.379,2.658-71.356,2.658-71.356-.728-14.764,1.6-28.074-.749-28.87-4.631-1.569-26.089-.618-26.089-.618l-15.9-15.309-1.589,3.656,2.648,13.677-.615,39.328c-.054-.642-1.546,66.47-1.546,66.47" transform="translate(-49.077 -36.044)" fill="#031c31"/>
            <path id="Trazado_264777" data-name="Trazado 264777" d="M226.174,146.624s10,3.077,15.837,19.942c3.489,10.092,12.168,60.3,12.168,60.3l26.554,10.163S273.086,262.5,263.25,265.5l-16.392-7.955s-11.366,1.448-15.3-4.125a64.342,64.342,0,0,1-6.537-12.48l-7.277-58.081Z" transform="translate(-62.998 -42.421)" fill="#031c31"/>
            <g id="Grupo_871018" data-name="Grupo 871018" transform="translate(125.169 116.321)" opacity="0.3">
              <g id="Grupo_871017" data-name="Grupo 871017">
                <g id="Grupo_871016" data-name="Grupo 871016" clip-path="url(#clip-path-7)">
                  <path id="Trazado_264778" data-name="Trazado 264778" d="M189.3,174.828a23.335,23.335,0,0,1,.123-11.153,22.82,22.82,0,0,0-1.943,14.295,13.978,13.978,0,0,1-5.844-9.24,4.75,4.75,0,0,0-.979-2.813c-.566-.546-1.637-.952-2.19-.393a3.871,3.871,0,0,0-1.2,1.873,12.281,12.281,0,0,0-.7,8.241,4,4,0,0,0,2.317,2.825c.96.282,1.995-.072,2.988.047A8.389,8.389,0,0,1,184.994,180a3.694,3.694,0,0,0,3.306.579,2.963,2.963,0,0,0,1.513-2.621,11.585,11.585,0,0,0-.514-3.133" transform="translate(-176.126 -163.675)"/>
                </g>
              </g>
            </g>
            <path id="Trazado_264779" data-name="Trazado 264779" d="M176.936,162.753a1.6,1.6,0,0,1,.1-.387,6.739,6.739,0,0,1,.459-1.062,3.717,3.717,0,0,1,1.216-1.4,1.82,1.82,0,0,1,2.347.371,5.815,5.815,0,0,1,1.017,2.841,13.915,13.915,0,0,0,5.777,9.426l-.279.2a14.039,14.039,0,0,1-.491-4.283,42.262,42.262,0,0,1,1.91-9.4,28.8,28.8,0,0,0,1.252-7.65,12.5,12.5,0,0,0-.971-5.1c-.512-1.125-.954-1.664-.914-1.691a7.2,7.2,0,0,1,1.045,1.631,12.182,12.182,0,0,1,1.1,5.155,28.267,28.267,0,0,1-1.185,7.741,43.13,43.13,0,0,0-1.87,9.323,13.782,13.782,0,0,0,.471,4.17l.139.492-.419-.291a14.072,14.072,0,0,1-5.849-9.68,5.665,5.665,0,0,0-.918-2.73,1.613,1.613,0,0,0-2.071-.366,3.684,3.684,0,0,0-1.2,1.3c-.495.863-.642,1.4-.677,1.387" transform="translate(-51.191 -41.841)" fill="#263238"/>
            <g id="Grupo_871021" data-name="Grupo 871021" transform="translate(127.861 179.258)" opacity="0.3">
              <g id="Grupo_871020" data-name="Grupo 871020">
                <g id="Grupo_871019" data-name="Grupo 871019" clip-path="url(#clip-path-8)">
                  <path id="Trazado_264780" data-name="Trazado 264780" d="M196.414,261.458,180.025,255.3l-.112.163a68.119,68.119,0,0,0,14,9.276c1.548.77,3.389,1.484,4.946.731a5.578,5.578,0,0,0,1.964-1.916,42.628,42.628,0,0,0,5.761-11.321c-3.037,3.563-10.169,9.224-10.169,9.224" transform="translate(-179.913 -252.234)"/>
                </g>
              </g>
            </g>
            <path id="Trazado_264781" data-name="Trazado 264781" d="M179.262,209.8s.162-.018.491-.034l1.465-.063,5.613-.212,20.278-.693.159-.006v.16c.009,8.78.019,19.267.031,30.571v.085l-.065.055L204.6,241.92l-8.308,7.108-.08.069-.1-.036-16.908-6.114-.108-.039v-.114c.006-9.834.011-18.078.015-23.881.025-2.879.045-5.152.059-6.725q.027-1.146.042-1.776c0-.2.022-.363.031-.463a.888.888,0,0,1,.017-.146c.007,1.4.067,13.5.163,32.99l-.108-.153,16.921,6.078-.18.033,8.3-7.113,2.631-2.252-.065.14c.011-11.3.021-21.79.031-30.571l.158.154-20.2.539-5.644.131-1.491.026c-.339,0-.522,0-.522,0" transform="translate(-51.817 -60.409)" fill="#263238"/>
            <path id="Trazado_264782" data-name="Trazado 264782" d="M231.106,183.234a.749.749,0,0,1,.006.193c0,.149-.011.334-.019.565-.026.524-.063,1.249-.109,2.169-.106,1.912-.256,4.629-.441,7.975-.37,6.733-.84,16.036-1.237,26.317s-.641,19.6-.79,26.34c-.072,3.349-.131,6.069-.173,7.984-.024.921-.044,1.647-.058,2.171-.01.23-.018.416-.025.564a.746.746,0,0,1-.021.193.759.759,0,0,1-.017-.193c0-.149-.007-.335-.012-.565,0-.525-.007-1.251-.011-2.172,0-1.886.014-4.615.055-7.987.082-6.744.286-16.061.682-26.349s.908-19.588,1.345-26.319c.217-3.366.409-6.088.559-7.969.075-.917.135-1.642.178-2.164.023-.23.041-.414.055-.563a.749.749,0,0,1,.032-.19" transform="translate(-66.023 -53.013)" fill="#263238"/>
            <path id="Trazado_264783" data-name="Trazado 264783" d="M234.636,270.627a6.1,6.1,0,0,1,.711-.823c.235-.26.531-.571.9-.908s.763-.744,1.249-1.141a33.614,33.614,0,0,1,3.514-2.655,34.716,34.716,0,0,1,9.8-4.447,33.529,33.529,0,0,1,4.312-.9c.618-.105,1.185-.14,1.681-.19s.923-.072,1.274-.077a6.177,6.177,0,0,1,1.088.006,6.151,6.151,0,0,1-1.078.138c-.348.028-.772.067-1.262.14s-1.051.122-1.662.242a37.573,37.573,0,0,0-4.258.967,36.893,36.893,0,0,0-9.7,4.406,37.577,37.577,0,0,0-3.531,2.569c-.493.38-.9.768-1.277,1.092s-.686.615-.936.858a6.129,6.129,0,0,1-.813.721" transform="translate(-67.884 -75.071)" fill="#263238"/>
            <path id="Trazado_264784" data-name="Trazado 264784" d="M258.619,292.858a1.677,1.677,0,0,1-.072-.4c-.026-.265-.1-.654-.114-1.16a19.99,19.99,0,0,1,.206-4.283,21.511,21.511,0,0,1,19.1-18.209,20.009,20.009,0,0,1,4.288,0c.5.04.89.131,1.153.17a1.66,1.66,0,0,1,.4.09c0,.034-.559-.044-1.562-.117a22.536,22.536,0,0,0-10.307,1.743,20.974,20.974,0,0,0-10.9,10.39,22.539,22.539,0,0,0-2.234,10.212c.025,1,.076,1.562.042,1.566" transform="translate(-74.759 -77.738)" fill="#263238"/>
            <g id="Grupo_871024" data-name="Grupo 871024" transform="translate(168.915 182.535)" opacity="0.3">
              <g id="Grupo_871023" data-name="Grupo 871023">
                <g id="Grupo_871022" data-name="Grupo 871022" clip-path="url(#clip-path-9)">
                  <path id="Trazado_264785" data-name="Trazado 264785" d="M246.692,257.989a16.135,16.135,0,0,0-9.011,9.383c6.922-3.571,13.934-7.174,21.52-8.931l.491.021a16.136,16.136,0,0,0-13-.473" transform="translate(-237.681 -256.846)"/>
                </g>
              </g>
            </g>
            <g id="Grupo_871027" data-name="Grupo 871027" transform="translate(198.674 197.228)" opacity="0.3">
              <g id="Grupo_871026" data-name="Grupo 871026">
                <g id="Grupo_871025" data-name="Grupo 871025" clip-path="url(#clip-path-10)">
                  <path id="Trazado_264786" data-name="Trazado 264786" d="M281.133,303.367c-2.163-5.8-2.313-12.6.87-17.916s9.57-8.762,15.68-7.756c-3.317,12.029-10.945,24.241-16.55,25.672" transform="translate(-279.554 -277.52)"/>
                </g>
              </g>
            </g>
            <path id="Trazado_264787" data-name="Trazado 264787" d="M188.039,159a2.9,2.9,0,0,1-.567-.486c-.347-.33-.841-.816-1.446-1.421-1.217-1.2-2.845-2.933-4.688-4.756a9.35,9.35,0,0,0-2.969-2.017,4.924,4.924,0,0,0-2.863-.222,3.74,3.74,0,0,0-1.727.9c-.335.328-.467.562-.5.543-.011-.006.013-.068.073-.182a2.379,2.379,0,0,1,.32-.461,3.622,3.622,0,0,1,1.768-1.051,5.052,5.052,0,0,1,3.047.157,9.3,9.3,0,0,1,3.1,2.067c1.87,1.849,3.449,3.594,4.624,4.844.581.629,1.046,1.142,1.362,1.5a2.906,2.906,0,0,1,.463.586" transform="translate(-50.133 -43.304)" fill="#fff"/>
            <path id="Trazado_264788" data-name="Trazado 264788" d="M175.032,130.591c.023.109-1.257.41-2.681,1.141s-2.431,1.572-2.505,1.49a7.751,7.751,0,0,1,5.187-2.63" transform="translate(-49.139 -37.775)" fill="#fff"/>
            <path id="Trazado_264789" data-name="Trazado 264789" d="M214.434,200.1c.009.1-9.468,1.08-21.166,2.184s-21.194,1.917-21.2,1.816,9.466-1.08,21.168-2.184,21.191-1.917,21.2-1.816" transform="translate(-49.782 -57.889)" fill="#fff"/>
            <path id="Trazado_264790" data-name="Trazado 264790" d="M247.059,181.991c.026.1-3.4,1.085-7.642,2.2s-7.712,1.942-7.738,1.843,3.4-1.084,7.643-2.2,7.711-1.942,7.736-1.843" transform="translate(-67.029 -52.651)" fill="#fff"/>
            <path id="Trazado_264791" data-name="Trazado 264791" d="M222.76,149.715a6.045,6.045,0,0,1-1.077.1l-2.94.164c-2.481.141-5.906.377-9.677.759s-7.174.845-9.633,1.207l-2.912.432a6.127,6.127,0,0,1-1.076.12,5.978,5.978,0,0,1,1.05-.262c.681-.146,1.67-.335,2.9-.549,2.452-.429,5.856-.931,9.637-1.317s7.215-.578,9.7-.652c1.244-.038,2.251-.053,2.947-.046a6.063,6.063,0,0,1,1.082.044" transform="translate(-56.546 -43.302)" fill="#fff"/>
            <path id="Trazado_264792" data-name="Trazado 264792" d="M189.158,246.071c-.1,0-.537-7.976-.972-17.822s-.7-17.836-.6-17.84.537,7.974.971,17.824.7,17.834.6,17.838" transform="translate(-54.266 -60.875)" fill="#fff"/>
            <path id="Trazado_264793" data-name="Trazado 264793" d="M205.449,246.63a1.439,1.439,0,0,1-.071-.371c-.035-.286-.079-.64-.131-1.071-.108-.931-.245-2.28-.4-3.948-.311-3.336-.677-7.951-.975-13.055s-.47-9.732-.55-13.081c-.04-1.675-.061-3.03-.063-3.968,0-.434,0-.79.006-1.079a1.446,1.446,0,0,1,.028-.377,1.457,1.457,0,0,1,.047.375c.017.289.038.645.063,1.077.045.99.106,2.33.18,3.962.146,3.346.361,7.967.658,13.069s.623,9.715.866,13.055c.117,1.63.212,2.969.283,3.956.025.434.045.79.063,1.077a1.46,1.46,0,0,1,0,.378" transform="translate(-58.807 -60.665)" fill="#fff"/>
            <path id="Trazado_264794" data-name="Trazado 264794" d="M255.889,240.24a6.086,6.086,0,0,1-1.08.058c-.694.006-1.7.048-2.933.136s-2.7.252-4.317.511a46.186,46.186,0,0,0-10.215,2.922c-1.509.635-2.843,1.266-3.936,1.849s-1.969,1.074-2.561,1.436a6.038,6.038,0,0,1-.947.521,6.031,6.031,0,0,1,.87-.643c.57-.4,1.427-.932,2.513-1.544a41.42,41.42,0,0,1,3.928-1.934,42.58,42.58,0,0,1,10.293-2.944,41.349,41.349,0,0,1,4.356-.436c1.245-.055,2.254-.057,2.949-.018a6.053,6.053,0,0,1,1.079.086" transform="translate(-66.515 -69.474)" fill="#fff"/>
            <path id="Trazado_264795" data-name="Trazado 264795" d="M211.039,293.662a1.912,1.912,0,0,1-.431.067l-1.242.121c-1.078.1-2.642.21-4.575.316-3.867.212-9.22.348-15.129.185s-11.249-.6-15.1-1.033c-1.925-.213-3.479-.411-4.55-.571l-1.232-.19a1.89,1.89,0,0,1-.426-.091,1.93,1.93,0,0,1,.436.017l1.241.121,4.559.454c3.85.362,9.181.755,15.081.923s11.242.069,15.108-.077l4.578-.2,1.245-.05a1.928,1.928,0,0,1,.436.007" transform="translate(-48.709 -84.614)" fill="#fff"/>
            <path id="Trazado_264796" data-name="Trazado 264796" d="M217.049,351.2a2.083,2.083,0,0,1-.441.1l-1.276.212c-1.109.182-2.719.407-4.714.65-3.988.49-9.523.992-15.654,1.193s-11.689.052-15.7-.179c-2.006-.114-3.627-.235-4.746-.344l-1.287-.13a2.07,2.07,0,0,1-.447-.071,2.148,2.148,0,0,1,.453,0l1.292.061c1.121.065,2.743.145,4.748.226,4.01.164,9.555.266,15.676.071s11.647-.661,15.637-1.084c2-.21,3.61-.4,4.724-.532l1.285-.144a2.064,2.064,0,0,1,.452-.026" transform="translate(-49.989 -101.607)" fill="#fff"/>
            <path id="Trazado_264797" data-name="Trazado 264797" d="M269.754,264.395a1.531,1.531,0,0,1-.36.137l-1.048.321-.758.224c-.274.09-.565.211-.881.328a22.156,22.156,0,0,0-2.12.863l-1.207.561c-.418.2-.828.453-1.266.69-.888.458-1.762,1.068-2.7,1.681a33.02,33.02,0,0,0-9.76,10.673c-.527.989-1.057,1.915-1.433,2.839-.2.458-.415.889-.575,1.323s-.307.852-.451,1.253a22.373,22.373,0,0,0-.672,2.188c-.087.326-.183.625-.248.907s-.107.537-.155.775c-.092.431-.166.786-.227,1.072a1.5,1.5,0,0,1-.1.371,1.457,1.457,0,0,1,.031-.382c.043-.29.1-.65.159-1.088.038-.241.08-.5.124-.786s.141-.59.22-.92a20.673,20.673,0,0,1,.624-2.221q.207-.61.433-1.271c.155-.441.367-.879.561-1.344a30.54,30.54,0,0,1,1.418-2.884,32.238,32.238,0,0,1,9.862-10.785,30.569,30.569,0,0,1,2.745-1.67c.446-.233.863-.484,1.288-.678l1.228-.544a20.885,20.885,0,0,1,2.156-.819c.322-.108.618-.22.9-.3l.772-.194,1.07-.255a1.46,1.46,0,0,1,.378-.065" transform="translate(-71.11 -76.494)" fill="#fff"/>
            <path id="Trazado_264798" data-name="Trazado 264798" d="M279.281,284.028a18,18,0,0,1-1.092-1.522,19.622,19.622,0,0,0-6.722-5.831,18.088,18.088,0,0,1-1.662-.866,6.464,6.464,0,0,1,1.778.631,16.543,16.543,0,0,1,6.821,5.916,6.454,6.454,0,0,1,.876,1.671" transform="translate(-78.06 -79.796)" fill="#fff"/>
            <path id="Trazado_264799" data-name="Trazado 264799" d="M286.666,286.222s-6.715-3.16-6.711-6.49c0-1.87,1.314-4.99,3.645-8.043a15.478,15.478,0,0,1,7.545-5.122l6.565.044s-.1-.516,1.755-4.541,5.161-5.367,6.813-10.115a61.968,61.968,0,0,0,2.684-9.445c.722-3.354,1.858-6.14,4.231-5.211s2.581,3.819,1.961,7.122-2.993,8.876-1.033,11.663,2.581,3.2,7.432,3.3,16.928-1.445,16.928-1.445,4.025-.723,4.541,1.342-6.3,4.128-6.3,4.128,8.67-3.1,8.773,1.342l-.516,1.652-10.941,4.025s5.47-1.136,6.606-.413,1.961,2.477,1.032,3.612-10.734,2.477-10.734,2.477l-8.051.206s-.309.826,1.755.93,7.845-.207,7.225,2.167-6.193,2.168-6.193,2.168-8.154-.413-10.115.207a104.039,104.039,0,0,1-11.457,2.787c-2.993.413-17.444,1.652-17.444,1.652" transform="translate(-80.997 -68.603)" fill="#ffbe9d"/>
            <path id="Trazado_264800" data-name="Trazado 264800" d="M302.077,292.447c-.018.014-.161-.137-.382-.441a6.675,6.675,0,0,1-.738-1.411,7.664,7.664,0,0,1-.088-5.2,12.934,12.934,0,0,1,1.348-2.555,9.724,9.724,0,0,0,1.033-2.046,5.222,5.222,0,0,0,.234-2.082,2.955,2.955,0,0,1,.016,2.158,8.986,8.986,0,0,1-.99,2.145,13.918,13.918,0,0,0-1.291,2.5,7.874,7.874,0,0,0-.015,4.988,18.481,18.481,0,0,0,.873,1.94" transform="translate(-86.928 -80.638)" fill="#eb996e"/>
            <path id="Trazado_264801" data-name="Trazado 264801" d="M327.379,267.387a4.167,4.167,0,0,1,.387,1.478,10.515,10.515,0,0,1-1.6,7.092,4.172,4.172,0,0,1-.985,1.168,13.183,13.183,0,0,0,2.2-9.738" transform="translate(-94.08 -77.36)" fill="#eb996e"/>
            <path id="Trazado_264802" data-name="Trazado 264802" d="M357.982,273.172c.019.1-3.423.874-7.689,1.728s-7.741,1.465-7.762,1.365,3.422-.874,7.689-1.728,7.741-1.465,7.762-1.365" transform="translate(-99.101 -79.031)" fill="#eb996e"/>
            <path id="Trazado_264803" data-name="Trazado 264803" d="M352,284.063a7.889,7.889,0,0,1-1.8.372,40.639,40.639,0,0,1-8.866.278,7.836,7.836,0,0,1-1.823-.259,10.71,10.71,0,0,1,1.837,0c1.131.028,2.692.048,4.415-.005s3.28-.172,4.407-.271a10.738,10.738,0,0,1,1.834-.112" transform="translate(-98.227 -82.18)" fill="#eb996e"/>
            <path id="Trazado_264804" data-name="Trazado 264804" d="M114.589,34.326a8.722,8.722,0,0,0,1.241-.228,3.009,3.009,0,0,0,1.47-4.8c-.466-.617-.935-.825-.9-.883a1.878,1.878,0,0,1,1.1.718,3.15,3.15,0,0,1-1.6,5.216,1.877,1.877,0,0,1-1.315-.023" transform="translate(-33.153 -8.22)" fill="#263238"/>
            <path id="Trazado_264805" data-name="Trazado 264805" d="M127.186,28.114a2.283,2.283,0,0,1-1.135.5,4.766,4.766,0,0,1-5.218-2.272,2.279,2.279,0,0,1-.407-1.172c.058-.019.209.426.628,1.033A5.01,5.01,0,0,0,126,28.357c.728-.106,1.158-.3,1.183-.243" transform="translate(-34.839 -7.282)" fill="#263238"/>
            <path id="Trazado_264806" data-name="Trazado 264806" d="M123.138,39.215c-.058.014-.148-.35-.457-.837a3.288,3.288,0,0,0-3.863-1.412c-.551.173-.854.393-.889.345-.028-.029.224-.335.8-.589a3.219,3.219,0,0,1,4.182,1.529c.274.564.27.961.229.965" transform="translate(-34.119 -10.547)" fill="#263238"/>
            <path id="Trazado_264807" data-name="Trazado 264807" d="M128.2,35.505c0,.038-.419.041-.942-.333a2.351,2.351,0,0,1,.454-4.107c.592-.251,1-.156.991-.119,0,.063-.377.071-.876.354a2.2,2.2,0,0,0-.405,3.669c.424.384.8.475.777.536" transform="translate(-36.527 -8.939)" fill="#263238"/>
            <path id="Trazado_264808" data-name="Trazado 264808" d="M5.185,177.623a3.292,3.292,0,0,0-1.627,2.026,3.056,3.056,0,0,0,.221,2l9.647,21.463,6.267,12.617,18.552-4.478-11.987-29.9s-.981-4.143-4.764-4.143H6.779a3.2,3.2,0,0,0-1.594.413" transform="translate(-1.006 -51.27)" fill="#455a64"/>
            <path id="Trazado_264809" data-name="Trazado 264809" d="M10.4,184.62H8a.97.97,0,1,1,0-1.941H10.4a.97.97,0,1,1,0,1.941" transform="translate(-2.032 -52.853)" fill="#fff"/>
            <path id="Trazado_264810" data-name="Trazado 264810" d="M8.649,194.791a6.424,6.424,0,0,0-1.2,4.6c.4,2.6.566,5.8.566,5.8s1.831,1.8,2.03,6.795-.4,7.994.8,10.392-1.73,16.587-1.73,16.587-2.394,2.2-1.731,3.6-.136,11.59,4.86,16.187l10.591,3s4.6-.4,6-4.4,0-16.587,0-16.587,4.689-2.151,6.742-5.872c0,0,7.5-5.256,9.246-6.619s2.8-6.991,2.6-8.042-3.338-1.291-3.338-1.291,1.621-4.635-1.5-7.007c0,0,.881-3.863-1.084-4.744a3.272,3.272,0,0,0-3.389.338s-3.525,3.728-6.033,4.744S24.35,217.618,23,216.805s-2.1-1.288-1.355-3.457,2.925-8.114,4.276-9.038,3.541-3.472,2.987-4.943-1.977-3.369-3.875-2.353-7.727,6.71-9.556,9.963l-.949,1.22Z" transform="translate(-2.103 -56.357)" fill="#ffbe9d"/>
            <path id="Trazado_264811" data-name="Trazado 264811" d="M51.077,218.482c.013,0,.021.065.026.188a2.476,2.476,0,0,1-.031.544,4.425,4.425,0,0,1-.764,1.846,9.248,9.248,0,0,1-2.084,2.1,34.379,34.379,0,0,1-3.007,1.975,42.085,42.085,0,0,1-5.848,2.888c-.775.311-1.414.53-1.857.675a2.716,2.716,0,0,1-.7.18c-.019-.053.943-.421,2.46-1.1a55.185,55.185,0,0,0,5.761-2.964c2.169-1.292,4.116-2.559,5.066-3.907a5.332,5.332,0,0,0,.983-2.427" transform="translate(-10.649 -63.211)" fill="#eb996e"/>
            <path id="Trazado_264812" data-name="Trazado 264812" d="M54.137,228.957a8.03,8.03,0,0,1-1.3,1.6,21.722,21.722,0,0,1-8.293,5.371,8,8,0,0,1-1.988.533,19.3,19.3,0,0,1,1.895-.777,26.461,26.461,0,0,0,8.2-5.312,19.171,19.171,0,0,1,1.485-1.411" transform="translate(-12.312 -66.241)" fill="#eb996e"/>
            <path id="Trazado_264813" data-name="Trazado 264813" d="M15.821,224.531a2.336,2.336,0,0,1-.878-1.457,10.419,10.419,0,0,1,.1-4.1,32.41,32.41,0,0,1,.878-3.984,6.545,6.545,0,0,1,.578-1.59,9.3,9.3,0,0,1-.325,1.654c-.227,1.013-.522,2.414-.766,3.976a11.975,11.975,0,0,0-.207,3.98,5.366,5.366,0,0,0,.624,1.516" transform="translate(-4.275 -61.742)" fill="#eb996e"/>
            <path id="Trazado_264814" data-name="Trazado 264814" d="M25.87,236.693c0,.046-.236.087-.594-.022a2.022,2.022,0,0,1-1.367-2.32c.078-.367.227-.551.269-.531a3.494,3.494,0,0,0,.292,1.763c.512.866,1.431,1.012,1.4,1.109" transform="translate(-6.906 -67.648)" fill="#eb996e"/>
            <path id="Trazado_264815" data-name="Trazado 264815" d="M34.146,244.456c0,.044-.279.132-.747.07a2.727,2.727,0,0,1-2.332-2.509c-.028-.47.08-.747.124-.739s.046.285.136.7a2.944,2.944,0,0,0,2.126,2.288c.412.119.689.129.693.186" transform="translate(-8.987 -69.806)" fill="#eb996e"/>
            <path id="Trazado_264816" data-name="Trazado 264816" d="M42.074,249.286c0,.043-.237.089-.6-.012a2.382,2.382,0,0,1-1.658-2.219c.007-.379.117-.592.16-.581a3.077,3.077,0,0,0,2.1,2.812" transform="translate(-11.519 -71.31)" fill="#eb996e"/>
            <path id="Trazado_264817" data-name="Trazado 264817" d="M33.728,260.118a4.578,4.578,0,0,1-1.285.553,23.576,23.576,0,0,1-6.615,1.2,4.553,4.553,0,0,1-1.4-.065c0-.111,2.119-.191,4.682-.664s4.578-1.134,4.615-1.028" transform="translate(-7.068 -75.254)" fill="#eb996e"/>
            <path id="Trazado_264818" data-name="Trazado 264818" d="M33.614,206.6a2.4,2.4,0,0,1-.2-.443l-.5-1.3-1.767-4.791c-1.472-4.092-3.48-9.677-5.7-15.846a7.22,7.22,0,0,0-2.576-3.806,7.718,7.718,0,0,0-4.241-.751l-7.572.086-5.106.026-1.389-.012a2.352,2.352,0,0,1-.484-.029,2.4,2.4,0,0,1,.483-.045l1.387-.058,5.1-.144,7.57-.165a16.257,16.257,0,0,1,2.21.063,5.322,5.322,0,0,1,2.228.721,7.534,7.534,0,0,1,2.731,3.984c2.216,6.2,4.184,11.815,5.6,15.889l1.656,4.83c.178.544.321.982.432,1.32a2.368,2.368,0,0,1,.127.468" transform="translate(-1.182 -51.88)" fill="#263238"/>
          </g>
        </g>
      </g>
    </g>
    <g id="Grupo_871033" data-name="Grupo 871033" transform="translate(180.158 3620.148)">
      <g id="Grupo_871032" data-name="Grupo 871032" transform="translate(0 0)" clip-path="url(#clip-path-11)">
        <path id="Trazado_264819" data-name="Trazado 264819" d="M67.2,43.725s.468.347,1.355,1.024l3.919,3L87.4,59.2l.512.392-.6-.247c-3.448-1.424-7.371-2.832-11.67-4.33s-8.978-3.091-13.861-5.1l.162-.091L58.2,74.21l-.041.266-.192-.189L41.072,57.715l.193.017-21.009,14.6-.333.231.083-.4C21.4,65.437,22.88,58.275,24.4,50.945l.14.186L.476,47.354,0,47.279l.417-.243,16.349-9.5,2.541-1.478-.054.247c-2.092-3.043-3.929-6.207-5.725-9.357s-3.509-6.314-5.171-9.469l-.27-.512.505.284L27.7,28l-.249.134q.482-7.008.948-13.79.207-3.39.411-6.72.085-1.664.17-3.314.031-.824.061-1.644l.016-.817,0-.4c0-.118-.026-.3-.014-.316l.2-.269.06.082L43.2,19.98l-.237,0L58.046.244,58.232,0l.049.3q2.172,13.514,3.926,24.42l-.116-.092,19.992-.625L82.258,24l-.106.139L71.068,38.685l-2.877,3.761c-.649.846-.991,1.28-.991,1.28s.312-.43.946-1.276l2.834-3.77L82.018,24.04l.069.133-19.981.677-.1,0-.016-.1Q60.215,13.839,58.02.345l.235.06L43.2,20.157l-.12.158-.117-.161L29.037,1.125l.257-.187a1.383,1.383,0,0,1,.075.495l0,.415-.015.825q-.031.822-.061,1.649-.083,1.651-.168,3.318-.2,3.331-.407,6.723-.462,6.781-.941,13.794l-.018.263-.231-.13L8.424,17.545l.235-.228q2.491,4.724,5.168,9.457c1.793,3.145,3.63,6.307,5.708,9.33l.106.154-.16.093-2.542,1.478L.589,47.333l-.06-.317L24.589,50.8l.173.027-.033.159C23.208,58.325,21.72,65.5,20.322,72.233l-.25-.166L41.092,57.482l.1-.071.09.088L58.16,74.091l-.233.077c1.369-8.833,2.645-17.066,3.78-24.384l.022-.149.14.058c4.87,2.013,9.546,3.607,13.839,5.124s8.219,2.929,11.668,4.366l-.085.146-14.9-11.555-3.878-3.018c-.873-.681-1.31-1.032-1.31-1.032" transform="translate(0 0)" fill="#263238"/>
        <path id="Trazado_264820" data-name="Trazado 264820" d="M55.68,40.689l.714,11.272a1.829,1.829,0,0,0,3.643.085l1.252-11.328a1.435,1.435,0,0,0-1.447-1.592l-2.749.038a1.435,1.435,0,0,0-1.412,1.526" transform="translate(-18.859 -13.252)" fill="#263238"/>
        <path id="Trazado_264821" data-name="Trazado 264821" d="M61.127,68.855a2.751,2.751,0,1,1-1.744-3.478,2.75,2.75,0,0,1,1.744,3.478" transform="translate(-18.889 -22.097)" fill="#263238"/>
        <path id="Trazado_264822" data-name="Trazado 264822" d="M68.672,40.689l.714,11.272a1.829,1.829,0,0,0,3.643.085l1.251-11.328a1.435,1.435,0,0,0-1.446-1.592l-2.75.038a1.435,1.435,0,0,0-1.412,1.526" transform="translate(-23.259 -13.252)" fill="#263238"/>
        <path id="Trazado_264823" data-name="Trazado 264823" d="M74.119,68.855a2.751,2.751,0,1,1-1.744-3.478,2.75,2.75,0,0,1,1.744,3.478" transform="translate(-23.289 -22.097)" fill="#263238"/>
      </g>
    </g>
  </g>
</svg>
