<svg xmlns="http://www.w3.org/2000/svg" width="185.627" height="306.168" viewBox="0 0 185.627 306.168">
  <g id="Grupo_870942" data-name="Grupo 870942" transform="translate(-429.759 -4394.841)">
    <path id="Trazado_208249" data-name="Trazado 208249" d="M384.907,200.313a17.218,17.218,0,0,1-1.423,2.817c-.923,1.708-2.161,4.085-3.393,6.774s-2.219,5.182-2.908,7a17.113,17.113,0,0,1-1.2,2.918,12.5,12.5,0,0,1,.741-3.076,61.933,61.933,0,0,1,6.341-13.857,12.486,12.486,0,0,1,1.843-2.573" transform="translate(193.49 4362)" fill="#ff9b6c"/>
    <path id="Trazado_208250" data-name="Trazado 208250" d="M372.714,129.673c10.206,1.166,16.36,11.468,18.444,21.944,1.219,6.132,4.8,35.721,4.8,35.721l1.969,10.839s1.649,37.287-6.26,41.448c-9.236,4.859-14.533-.47-17.574-4.379s-6.313-29.321-6.313-29.321l3.474-60.8Z" transform="translate(193.49 4362)" fill="#e2dcbf"/>
    <path id="Trazado_208251" data-name="Trazado 208251" d="M297.54,130.946c-1.333,0-26.206,1.777-31.98,28.427s-7.444,64-7.444,64l26.873,15.163,7.166-22.844Z" transform="translate(193.49 4362)" fill="#e2dcbf"/>
    <path id="Trazado_208252" data-name="Trazado 208252" d="M309.76,125.051l6.8-8.731,33.783-1.116,4.592,7.611,22.549,8.131.393,108.2,14.538,83.985s-3.991,12.024-29.4,11.535L355.477,292.7l-37-.87L316.8,339.01s-35.709-1.048-48.146-9.931c0,0,3.383-54.612,14.092-86.915,9.377-28.288,8.113-25.459,8.113-25.459l.808-84.8Z" transform="translate(193.49 4362)" fill="#e2dcbf"/>
    <path id="Trazado_208253" data-name="Trazado 208253" d="M297.942,132.1c-7.7,32.917-3.565,52.668-11.264,85.585l-2.93,21.462c8.044-3.591,12.494-12.2,12.417-21.009-.039-4.561-1.443-9.016-1.632-13.574-.426-10.292,5.268-19.726,7.869-29.693,3.682-14.113,1.032-29.259-4.46-42.771" transform="translate(193.49 4362)" fill="#d1cbac"/>
    <rect id="Rect치ngulo_38734" data-name="Rect치ngulo 38734" width="20.357" height="107.048" transform="translate(477.239 4494.095)" fill="none"/>
    <path id="Trazado_208254" data-name="Trazado 208254" d="M316.839,121.146s1.444,51.823,2.8,67.477c.54,6.244-1.157,103.212-1.157,103.212l37,.87-2.688-72.885c-.6-.049,0-52.974,0-52.974l-2.415-45.02-1.408,1.612c-8.784,8.288-23.818,5.946-32.043-2.869a2.91,2.91,0,0,0-.083.577" transform="translate(193.49 4362)" fill="#ebebeb"/>
    <path id="Trazado_208255" data-name="Trazado 208255" d="M316.114,148.122a33.521,33.521,0,0,1-1.243-5.068c-.338-1.653-.718-3.515-1.131-5.541a7.391,7.391,0,0,0-.917-2.966c-.582-.762-1.793-.377-2.975-.091a46.432,46.432,0,0,0-5.827,1.866l-.837.331.347-.824a39.91,39.91,0,0,1,4.043-7.363,12.185,12.185,0,0,1,2.077-2.532,26.536,26.536,0,0,1-1.689,2.786,49.711,49.711,0,0,0-3.733,7.4l-.491-.493a41.9,41.9,0,0,1,5.915-1.948,13.12,13.12,0,0,1,1.849-.37,2.2,2.2,0,0,1,1.919.729,7.533,7.533,0,0,1,1.047,3.341l.962,5.574a33.463,33.463,0,0,1,.684,5.173" transform="translate(193.49 4362)" fill="#263238"/>
    <path id="Trazado_208256" data-name="Trazado 208256" d="M355.1,123.438a4.734,4.734,0,0,1,.584,1.334,36.331,36.331,0,0,1,1.11,3.8,45.15,45.15,0,0,1,.983,5.8c.117,1.1.2,2.265.23,3.471l.017.912v.484a.967.967,0,0,1-.291.7.785.785,0,0,1-.879.074,2.055,2.055,0,0,1-.462-.347l-.7-.64-3.9-3.609.634-.19a15.631,15.631,0,0,0,.119,5.072c.21,1.56.421,2.95.515,4.117a7.093,7.093,0,0,1-.279,3.705,21.662,21.662,0,0,0-.2-3.65c-.16-1.141-.426-2.508-.687-4.076a15.34,15.34,0,0,1-.214-5.354l.128-.653.506.463,3.921,3.583.7.641a1.373,1.373,0,0,0,.279.222c.073-.017.037.152.044.1-.131-.076-.01-.058-.032-.2v-.433l-.01-.9c-.022-1.187-.085-2.332-.18-3.42a54.808,54.808,0,0,0-.8-5.748c-.631-3.251-1.262-5.215-1.137-5.255" transform="translate(193.49 4362)" fill="#263238"/>
    <path id="Trazado_208257" data-name="Trazado 208257" d="M289.839,42.295a19.119,19.119,0,0,1,21.818,2.867l-6.641,37.825a24.624,24.624,0,0,1-8.554,11.6,12.076,12.076,0,0,1,.467-10.248,18.188,18.188,0,0,1-5.979,3.413,16.019,16.019,0,0,1,4.379-9.438A20.3,20.3,0,0,1,280.14,62.149a19.693,19.693,0,0,1,9.7-19.854" transform="translate(193.49 4362)" fill="#263238"/>
    <path id="Trazado_208258" data-name="Trazado 208258" d="M317.07,58.962c1.1-2.9.671-6.142,1.106-9.218.958-6.773,6.408-12.209,12.715-14.858,5.867-2.463,13.038-1.936,20.113.341a27,27,0,0,1,12.652,8.221,21.273,21.273,0,0,1,3.934,19.1l-34.654-5c-3.24,2.688-6.558,5.421-10.491,6.923a7.163,7.163,0,0,1-3.615.58,3.226,3.226,0,0,1-2.7-2.22c-.318-1.311.458-2.6.938-3.863" transform="translate(193.49 4362)" fill="#263238"/>
    <path id="Trazado_208259" data-name="Trazado 208259" d="M338.607,33.144c-7.586-1.28-14.249,1.649-20.64,5.932a38.014,38.014,0,0,0-13.972,17.918c-2.92,7.559-3.65,18.491-1.389,26.272a23.561,23.561,0,0,0,14.858,15.973c10.434,3.684,22.487,3.235,31.305-3.45s13.85-17.725,14.26-28.783a36.549,36.549,0,0,0-5.813-21.728,27.843,27.843,0,0,0-18.609-12.134" transform="translate(193.49 4362)" fill="#263238"/>
    <path id="Trazado_208260" data-name="Trazado 208260" d="M350.655,115.648l-.281,6.179a20.56,20.56,0,0,1-31.757.713l-1.7-1.971-.671-63.278a5.648,5.648,0,0,1,5.265-5.536l30.241-6.447c9.632-.654,15.567,11.4,15.812,21.049.272,10.722.182,23.824-1.385,31.757-3.152,15.954-15.529,17.534-15.529,17.534" transform="translate(193.49 4362)" fill="#ffc09d"/>
    <path id="Trazado_208261" data-name="Trazado 208261" d="M361.175,78.785a2.059,2.059,0,0,1-2.063,2,1.969,1.969,0,0,1-2.052-1.935,2.061,2.061,0,0,1,2.061-2,1.97,1.97,0,0,1,2.054,1.936" transform="translate(193.49 4362)" fill="#263238"/>
    <path id="Trazado_208262" data-name="Trazado 208262" d="M364.474,72.542c-.265.259-1.781-.954-4-1.031-2.212-.109-3.88.969-4.11.689-.114-.124.165-.6.891-1.088a5.661,5.661,0,0,1,3.3-.884,5.427,5.427,0,0,1,3.168,1.156c.662.548.874,1.042.744,1.158" transform="translate(193.49 4362)" fill="#263238"/>
    <path id="Trazado_208263" data-name="Trazado 208263" d="M341.452,78.5a2.059,2.059,0,0,1-2.062,2,1.969,1.969,0,0,1-2.052-1.935,2.061,2.061,0,0,1,2.06-2,1.972,1.972,0,0,1,2.054,1.937" transform="translate(193.49 4362)" fill="#263238"/>
    <path id="Trazado_208264" data-name="Trazado 208264" d="M343.443,72.028c-.266.259-1.784-.953-4-1.031-2.211-.109-3.879.97-4.11.689-.112-.124.163-.6.893-1.087a5.647,5.647,0,0,1,3.3-.885A5.438,5.438,0,0,1,342.7,70.87c.659.549.873,1.043.744,1.158" transform="translate(193.49 4362)" fill="#263238"/>
    <path id="Trazado_208265" data-name="Trazado 208265" d="M350.109,88.865a14.713,14.713,0,0,1,3.622-.514c.567-.037,1.107-.129,1.217-.512a2.879,2.879,0,0,0-.315-1.69q-.72-2.083-1.511-4.37c-2.092-6.218-3.584-11.324-3.333-11.4s2.151,4.892,4.244,11.11q.752,2.3,1.439,4.393a3.273,3.273,0,0,1,.21,2.231,1.423,1.423,0,0,1-.961.792,3.829,3.829,0,0,1-.966.1,14.4,14.4,0,0,1-3.646-.132" transform="translate(193.49 4362)" fill="#263238"/>
    <path id="Trazado_208266" data-name="Trazado 208266" d="M350.655,115.648a44.725,44.725,0,0,1-21.278-7.057s4.986,11.313,21.106,10.415Z" transform="translate(193.49 4362)" fill="#ff9b6c"/>
    <path id="Trazado_208267" data-name="Trazado 208267" d="M344.012,64.71c-.241.594-2.442.225-5.051.441-2.616.163-4.739.845-5.064.292-.144-.264.242-.817,1.112-1.368a8.813,8.813,0,0,1,7.706-.559c.939.421,1.4.912,1.3,1.194" transform="translate(193.49 4362)" fill="#263238"/>
    <path id="Trazado_208268" data-name="Trazado 208268" d="M364.2,62.832c-.408.488-1.914-.091-3.749-.185-1.83-.157-3.4.211-3.738-.329-.148-.261.116-.756.813-1.206a5.435,5.435,0,0,1,6.033.413c.629.542.822,1.068.641,1.307" transform="translate(193.49 4362)" fill="#263238"/>
    <path id="Trazado_208269" data-name="Trazado 208269" d="M311.52,54.3c3.124-9.215,16.8-21.783,26.493-20.924l15.324,9.584a14.963,14.963,0,0,1-10.36,11.253c-2.756.783-6.06.951-7.733,3.277-1.709,2.374-.8,5.9-2.4,8.35-2.21,3.4-8.074,3.126-9.754,6.817-.733,1.612-.4,3.561-1.165,5.16-1.015,2.131-6.506,4.753-8.742,4s-2.171-4.586-2.869-6.606a10.622,10.622,0,0,1-.193-7.13c1.064-4.519-.094-9.382,1.4-13.779" transform="translate(193.49 4362)" fill="#263238"/>
    <path id="Trazado_208270" data-name="Trazado 208270" d="M319.788,83.833c.042-1.195-1.234-4.065-2.407-4.293-3.134-.61-8.824-.57-9.178,7.432-.483,10.94,10.6,9.168,10.633,8.856.026-.245.807-7.868.952-12" transform="translate(193.49 4362)" fill="#ffc09d"/>
    <path id="Trazado_208271" data-name="Trazado 208271" d="M315.677,91.535c-.046-.037-.2.125-.525.258a1.9,1.9,0,0,1-1.426-.033c-1.137-.475-2.029-2.353-2-4.328a6.306,6.306,0,0,1,.654-2.705,2.2,2.2,0,0,1,1.5-1.4.97.97,0,0,1,1.1.572c.133.312.054.528.111.548.029.03.243-.172.175-.627a1.22,1.22,0,0,0-.4-.705,1.443,1.443,0,0,0-1.042-.325,2.681,2.681,0,0,0-2.066,1.608,6.48,6.48,0,0,0-.8,3.02c-.027,2.208,1.01,4.32,2.571,4.847a2.044,2.044,0,0,0,1.756-.213c.351-.254.419-.5.382-.518" transform="translate(193.49 4362)" fill="#ff9b6c"/>
    <path id="Trazado_208272" data-name="Trazado 208272" d="M301.6,68.872a9.756,9.756,0,0,1-.414-3.283A24.1,24.1,0,0,1,306.2,50.64a9.838,9.838,0,0,1,2.309-2.37c.2.142-3.463,3.781-5.387,9.654-2.006,5.842-1.277,10.957-1.523,10.948" transform="translate(193.49 4362)" fill="#ff725e"/>
    <path id="Trazado_208273" data-name="Trazado 208273" d="M350.155,39.654c1.012,4.453,7.789,10.155,10.764,13.619,5.678,6.609,6.749,7.583,6.7,27.515a47.125,47.125,0,0,0,4.56-19.8,23.869,23.869,0,0,0-6.355-15.676,18.588,18.588,0,0,0-15.672-5.655" transform="translate(193.49 4362)" fill="#263238"/>
    <path id="Trazado_208274" data-name="Trazado 208274" d="M305.942,54.161a10.548,10.548,0,0,0,1.86.46,21.568,21.568,0,0,0,2.214.384c.87.112,1.856.283,2.96.34a52.528,52.528,0,0,0,7.757.071,59.117,59.117,0,0,0,9.393-1.442,59.2,59.2,0,0,0,9-3.057,52.418,52.418,0,0,0,6.849-3.645c.953-.559,1.75-1.166,2.469-1.667a21.7,21.7,0,0,0,1.787-1.362,10.855,10.855,0,0,0,1.438-1.266,10.706,10.706,0,0,0-1.591,1.063c-.493.365-1.1.8-1.841,1.266s-1.542,1.044-2.5,1.573a57.861,57.861,0,0,1-6.846,3.486,62.844,62.844,0,0,1-8.917,2.975,62.791,62.791,0,0,1-9.281,1.476,57.873,57.873,0,0,1-7.682.069c-1.1-.027-2.078-.165-2.946-.241s-1.612-.176-2.218-.273a11.045,11.045,0,0,0-1.9-.21" transform="translate(193.49 4362)" fill="#455a64"/>
    <path id="Trazado_208275" data-name="Trazado 208275" d="M304.811,62.008a5.056,5.056,0,0,0,1.269.309,31.352,31.352,0,0,0,3.528.444,43.862,43.862,0,0,0,22.8-4.5,31.132,31.132,0,0,0,3.1-1.75,5.055,5.055,0,0,0,1.057-.767c-.06-.1-1.645.861-4.351,2.1A49.3,49.3,0,0,1,309.634,62.3c-2.974-.12-4.8-.406-4.823-.293" transform="translate(193.49 4362)" fill="#455a64"/>
    <path id="Trazado_208276" data-name="Trazado 208276" d="M302.047,62.281a6.833,6.833,0,0,0-.369,1.647,43.108,43.108,0,0,0-.449,4.575,65.757,65.757,0,0,0,0,6.819,44.307,44.307,0,0,0,1.122,8.293A22.02,22.02,0,0,0,310.849,96a21.326,21.326,0,0,0,4.061,2.184,6.942,6.942,0,0,0,1.6.54,9.912,9.912,0,0,0-1.492-.777,25.643,25.643,0,0,1-3.893-2.333,20.2,20.2,0,0,1-4.653-4.782A22.212,22.212,0,0,1,303,83.452a47.151,47.151,0,0,1-1.157-8.166c-.165-2.541-.183-4.839-.144-6.766s.133-3.487.234-4.56a10.216,10.216,0,0,0,.111-1.679" transform="translate(193.49 4362)" fill="#455a64"/>
    <path id="Trazado_208277" data-name="Trazado 208277" d="M350.425,97.6a4.965,4.965,0,0,0-4.376-2.312,3.93,3.93,0,0,0-3.191,1.529,3.449,3.449,0,0,0-.194,3.682,3.537,3.537,0,0,0,3.709,1.455,8.968,8.968,0,0,0,3.589-1.96,2.767,2.767,0,0,0,.8-.828,2.124,2.124,0,0,0-.336-1.566" transform="translate(193.49 4362)" fill="#ff9b6c"/>
    <path id="Trazado_208278" data-name="Trazado 208278" d="M344.074,93.2c.443,0,.3,2.945,2.72,5.164s5.572,2.052,5.574,2.465c.033.187-.728.538-2.056.507a7.347,7.347,0,0,1-4.662-1.891,6.393,6.393,0,0,1-2.091-4.32c-.051-1.238.314-1.952.515-1.925" transform="translate(193.49 4362)" fill="#263238"/>
    <path id="Trazado_208279" data-name="Trazado 208279" d="M374.49,155.392a3.449,3.449,0,0,1,.375.773c.233.513.524,1.29.869,2.3a45.7,45.7,0,0,1,1.92,8.844,78.386,78.386,0,0,1,.311,13.416c-.259,5.047-.915,10.555-1.468,16.332a110.374,110.374,0,0,0-.586,16.3c.275,5.009.908,9.5,1.351,13.286.46,3.783.755,6.859.861,8.991.051,1.066.079,1.894.074,2.456a3.441,3.441,0,0,1-.041.858,3.425,3.425,0,0,1-.121-.85c-.06-.647-.134-1.454-.225-2.44-.2-2.118-.581-5.172-1.112-8.942-.515-3.771-1.209-8.265-1.527-13.317a105.52,105.52,0,0,1,.525-16.422c.555-5.793,1.231-11.285,1.529-16.3a82.961,82.961,0,0,0-.137-13.311,51.541,51.541,0,0,0-1.654-8.816c-.58-2.042-1.017-3.139-.944-3.167" transform="translate(193.49 4362)" fill="#263238"/>
    <path id="Trazado_208280" data-name="Trazado 208280" d="M382.92,185.914c0-4.818-.778-9.224-1.49-14.527-.616-4.582-3.274-9.34-6.4-14.554,0,0,2.632,11.645,2.608,17.752s.057,12.891-.808,18.937c-.591,4.134-.363,7.073-.867,11.219a43.165,43.165,0,0,0,.324,14.728c4.179-11.819,6.63-21.019,6.63-33.555" transform="translate(193.49 4362)" fill="#d1cbac"/>
    <rect id="Rect치ngulo_38735" data-name="Rect치ngulo 38735" width="7.888" height="62.636" transform="translate(568.522 4518.833)" fill="none"/>
    <path id="Trazado_208281" data-name="Trazado 208281" d="M404.005,205.313s-.639,20.427-4.757,26.578-11.9,13.924-21.373,7.252l-1.893-19.323s5.747-13.151,7.5-17.48c4.374-10.8,11.425-27.755,11.425-27.755l11.7,7.03Z" transform="translate(193.49 4362)" fill="#ffc09d"/>
    <path id="Trazado_208282" data-name="Trazado 208282" d="M393.993,172.2s.838-6.415,3.975-10.9,14.41-14.534,14.41-14.534c3.152.691,2.521,4.28-.318,9.771-3.667,7.094,6.985,21.372,6.816,22.048-.224.9-14.789,9.86-14.789,9.86l-11.833-7.468Z" transform="translate(193.49 4362)" fill="#ffc09d"/>
    <path id="Trazado_208283" data-name="Trazado 208283" d="M404.843,159.291a5.6,5.6,0,0,1,.833,2.337,17.03,17.03,0,0,1-1.807,11.662c-.766,1.337-1.424,2.032-1.5,1.976-.223-.127,1.986-3.249,2.651-7.769.733-4.508-.427-8.153-.177-8.206" transform="translate(193.49 4362)" fill="#ff9b6c"/>
    <path id="Trazado_208284" data-name="Trazado 208284" d="M417.306,175.754s-4.531,3.008-6.77,1.827c-2.013-1.063-2.09-3.295-.749-4.995,0,0-2.432,1.787-3.773-.807s.919-4.933.919-4.933-1.393-.18-1.3-2.819,3.009-4.894,3.009-4.894a5.893,5.893,0,0,1,.172-5.858c1.878-2.952,6.752-4.867,8.318-4.651.266.036,3.488-.09,3.488,2.772s-.715,3.668-.715,3.668,2.553,1.455.179,6.439c0,0,3.13,2.147.357,6.619,0,0,1.5,5.512.515,7.749a9.485,9.485,0,0,1-3.06,3.616" transform="translate(193.49 4362)" fill="#ffc09d"/>
    <path id="Trazado_208285" data-name="Trazado 208285" d="M417.893,179.487A14.661,14.661,0,0,0,420.134,177c1.492-1.721.951-5.1.027-8.8l-.03-.12.063-.107a6.657,6.657,0,0,0,1.059-3.109,3.663,3.663,0,0,0-1.366-3.076l-.23-.177.114-.252a9.861,9.861,0,0,0,.931-3.1,3.135,3.135,0,0,0-.986-2.869l-.331-.229.236-.346a4.12,4.12,0,0,0,.47-1.464,11.659,11.659,0,0,0,.135-1.731,2.171,2.171,0,0,0-1.67-2.394,6.9,6.9,0,0,0-1.755-.218,7.022,7.022,0,0,0-1.767.377,14.207,14.207,0,0,0-3.414,1.7,7.473,7.473,0,0,0-3.012,3.524,5.578,5.578,0,0,0,.368,4.324l.156.3-.254.211a8.317,8.317,0,0,0-2.682,3.576,4.355,4.355,0,0,0-.133,2.078,1.636,1.636,0,0,0,.915,1.393l.632.143-.42.462a4.065,4.065,0,0,0-.943,4.4,2.113,2.113,0,0,0,1.473,1.353,2.743,2.743,0,0,0,1.894-.493l1.56-1.022-1.158,1.438a3.57,3.57,0,0,0-.854,2.472,2.614,2.614,0,0,0,1.172,1.95,2.824,2.824,0,0,0,1.995.427,8.376,8.376,0,0,0,1.788-.423c2.1-.78,3.152-1.508,3.189-1.439a3.037,3.037,0,0,1-.737.543,14.939,14.939,0,0,1-2.339,1.2,8.493,8.493,0,0,1-1.855.514,3.253,3.253,0,0,1-2.3-.434,3.1,3.1,0,0,1-1.44-2.287,4.107,4.107,0,0,1,.92-2.883l.4.416a3.311,3.311,0,0,1-2.346.635,2.742,2.742,0,0,1-1.963-1.686,4.061,4.061,0,0,1-.29-2.682,5.756,5.756,0,0,1,1.313-2.493l.212.606a2.249,2.249,0,0,1-1.549-1.975,5.089,5.089,0,0,1,.139-2.435,9.007,9.007,0,0,1,2.923-3.968l-.1.508a6.323,6.323,0,0,1-.448-4.979,8.232,8.232,0,0,1,3.313-3.93,14.992,14.992,0,0,1,3.615-1.8,6.144,6.144,0,0,1,4-.156,3.119,3.119,0,0,1,1.722,1.186A3.29,3.29,0,0,1,421,151.63a12.315,12.315,0,0,1-.156,1.849,4.381,4.381,0,0,1-.662,1.834l-.094-.576a3.773,3.773,0,0,1,1.331,3.59,10.442,10.442,0,0,1-1.03,3.324l-.115-.43a4.292,4.292,0,0,1,1.611,3.67,7.17,7.17,0,0,1-1.2,3.382l.033-.226a25.206,25.206,0,0,1,.788,5.276,7.4,7.4,0,0,1-.23,2.208,6.1,6.1,0,0,1-.878,1.65,9.249,9.249,0,0,1-1.759,1.831,2.475,2.475,0,0,1-.743.475" transform="translate(193.49 4362)" fill="#ff9b6c"/>
    <path id="Trazado_208286" data-name="Trazado 208286" d="M409.651,172.739c-.08-.059.245-.734,1.038-1.658a13.556,13.556,0,0,1,3.772-2.8,8.256,8.256,0,0,1,2.464-.98,6.709,6.709,0,0,1,2.18-.007,1.762,1.762,0,0,1,1.314.783c.181.317.186.517.142.536-.121.092-.4-.755-1.518-.754a7.9,7.9,0,0,0-1.959.166,8.99,8.99,0,0,0-2.226.956,19.474,19.474,0,0,0-3.764,2.5c-.856.778-1.347,1.333-1.443,1.259" transform="translate(193.49 4362)" fill="#ff9b6c"/>
    <path id="Trazado_208287" data-name="Trazado 208287" d="M406.933,166.846c-.073-.072.448-.753,1.515-1.614a29.32,29.32,0,0,1,4.487-2.82,9.4,9.4,0,0,1,5.187-1.389,3.575,3.575,0,0,1,2.143.617c-.034.127-.851-.093-2.151-.049a10.6,10.6,0,0,0-4.8,1.528c-1.812.971-3.426,1.844-4.537,2.574s-1.766,1.239-1.849,1.153" transform="translate(193.49 4362)" fill="#ff9b6c"/>
    <path id="Trazado_208288" data-name="Trazado 208288" d="M407.753,160.03c-.2-.137,1.853-2.688,5.3-4.548a7.527,7.527,0,0,1,4.935-1.028c1.306.227,1.971.733,1.927.809-.05.122-.781-.179-1.988-.244a8.143,8.143,0,0,0-4.477,1.163c-3.353,1.808-5.54,3.984-5.7,3.848" transform="translate(193.49 4362)" fill="#ff9b6c"/>
    <path id="Trazado_208289" data-name="Trazado 208289" d="M256.965,213.716s.639,20.427,4.757,26.578,11.9,13.924,21.373,7.252l1.893-19.323s-5.747-13.151-7.5-17.48c-4.374-10.8-11.425-27.755-11.425-27.755l-11.7,7.03Z" transform="translate(193.49 4362)" fill="#ffc09d"/>
    <path id="Trazado_208290" data-name="Trazado 208290" d="M253.848,188.934s-7.136-4.432-8.781-6.288-5.908-8.628-8.8-10.452a2.047,2.047,0,0,1,3.1-1.676,23.145,23.145,0,0,1,7.6,5.479c1.3,1.626,2.392.5,2.322-1.014s-2.295-11.624-2.295-11.624-4.228-11.081-3.48-12.434a2.081,2.081,0,0,1,3.233-.445c.49.555,4.951,9.731,4.951,9.731l1.394,5.085s-3.342-16.2-2.421-17.578a1.794,1.794,0,0,1,2.861-.394c.776.587,2.179,7.753,2.179,7.753l2.559,9.505L256.292,146.2s.036-1.761,1.4-1.948,2.462,1.743,2.462,1.743l3.7,18.79s-1.594-10.489-.937-11.1c.88-.824,1.768-.66,2.153.12.784,1.588,2.57,10.987,2.57,10.987l-.554,18.2,2.6,8.737-14.615,2.3Z" transform="translate(193.49 4362)" fill="#ffc09d"/>
    <path id="Trazado_208291" data-name="Trazado 208291" d="M402.053,92.741c1.661-2.287,2.952-4.262,4.454-6.061a16.3,16.3,0,0,1,3.47-3.148c4.251-2.8,9.282-.431,9.96,4.664a17.921,17.921,0,0,1-2.213,10.617c-4.361,8.534-11.192,14.029-20.6,16.137a2.827,2.827,0,0,1-2.269-.416c-7.8-8.053-11.562-17.485-9.281-28.772a14.42,14.42,0,0,1,2.181-4.992c2.672-4,8.119-4.224,10.676-.15,1.612,2.57,3.447,10.761,3.625,12.121m-5.915-11.8a.549.549,0,0,0,.743-.491.221.221,0,0,0-.033-.133c-1.374-1.927-5.838-1.96-7.151-.044a.615.615,0,0,0-.092.25.552.552,0,0,0,.544.633,3.405,3.405,0,0,0,.616-.038,26.489,26.489,0,0,1,3.5-.643,5.255,5.255,0,0,1,1.871.466m-6.621,1.256-.419-.356a4.332,4.332,0,0,0-1.993,5.189.178.178,0,0,0,.332.016Z" transform="translate(193.49 4362)" fill="red"/>
    <path id="Trazado_208292" data-name="Trazado 208292" d="M396.881,80.448a.55.55,0,0,1-.744.491,5.25,5.25,0,0,0-1.87-.466,26.489,26.489,0,0,0-3.5.643,3.361,3.361,0,0,1-.612.038.554.554,0,0,1-.547-.637.616.616,0,0,1,.091-.246c1.313-1.916,5.777-1.883,7.151.044a.221.221,0,0,1,.033.133" transform="translate(193.49 4362)" fill="#fff"/>
    <path id="Trazado_208293" data-name="Trazado 208293" d="M389.517,82.195l-2.083,4.858a.175.175,0,0,1-.326-.015,4.334,4.334,0,0,1,1.99-5.2l.419.356" transform="translate(193.49 4362)" fill="#fff"/>
    <path id="Trazado_208294" data-name="Trazado 208294" d="M270.341,87.577c-.19-1.989-.431-3.638-.478-5.293a11.564,11.564,0,0,1,.365-3.29,4.434,4.434,0,0,1,7.455-2.192,12.667,12.667,0,0,1,3.8,6.657,20.819,20.819,0,0,1-3.357,18.184,2,2,0,0,1-1.4.841c-7.9-.612-14.3-3.847-18.376-10.891a10.187,10.187,0,0,1-1.181-3.663c-.458-3.369,2.322-6.035,5.582-5.074,2.055.606,6.86,4.084,7.59,4.721M261.687,84.1a.388.388,0,0,0,.164-.608.154.154,0,0,0-.079-.054c-1.629-.378-4.008,1.694-3.807,3.322a.435.435,0,0,0,.068.176.389.389,0,0,0,.584.08,2.306,2.306,0,0,0,.309-.308,18.68,18.68,0,0,1,1.553-1.979,3.709,3.709,0,0,1,1.208-.629m-2.917,3.763-.388.008a3.061,3.061,0,0,0,1.372,3.68.127.127,0,0,0,.184-.148Z" transform="translate(193.49 4362)" fill="red"/>
    <path id="Trazado_208295" data-name="Trazado 208295" d="M261.851,83.488a.388.388,0,0,1-.164.608,3.728,3.728,0,0,0-1.208.628,18.923,18.923,0,0,0-1.554,1.979,2.333,2.333,0,0,1-.306.307.392.392,0,0,1-.588-.081.457.457,0,0,1-.067-.173c-.2-1.629,2.178-3.7,3.807-3.323a.163.163,0,0,1,.08.055" transform="translate(193.49 4362)" fill="#fff"/>
    <path id="Trazado_208296" data-name="Trazado 208296" d="M258.77,87.859l1.17,3.547a.123.123,0,0,1-.179.144,3.061,3.061,0,0,1-1.379-3.683l.388-.008" transform="translate(193.49 4362)" fill="#fff"/>
    <path id="Trazado_208297" data-name="Trazado 208297" d="M371.442,249.093H301.685a4.569,4.569,0,0,1-4.569-4.569V239.3a4.569,4.569,0,0,1,4.569-4.569h69.757a4.569,4.569,0,0,1,4.569,4.569v5.223a4.569,4.569,0,0,1-4.569,4.569" transform="translate(193.49 4362)" fill="#039d95"/>
    <path id="Trazado_208298" data-name="Trazado 208298" d="M370.238,249.093H302.89l.131,1.846h67.086Z" transform="translate(193.49 4362)" fill="#5c7891"/>
    <path id="Trazado_208299" data-name="Trazado 208299" d="M303.02,250.939l3.758,52.976h59.571l3.757-52.976Z" transform="translate(193.49 4362)" fill="#039d95"/>
    <path id="Trazado_208300" data-name="Trazado 208300" d="M369.274,210.643c-2.27-2.351-5.525-3.139-9.166-2.219-5.527,1.4-10.814,4.572-15.716,9.435a58.779,58.779,0,0,0-4.925,5.6c1-7.443,4.854-14.156,10.581-17.841l-3.109-4.83a28.749,28.749,0,0,0-10.814,13.256,34.369,34.369,0,0,0-2.347,8.66,57.268,57.268,0,0,0-4.327-4.843c-4.9-4.863-10.189-8.037-15.716-9.435-3.641-.92-6.9-.132-9.165,2.219-2.6,2.694-3.435,7.055-2.177,11.38,1.652,5.682,5.746,9.536,12.168,11.455,4.772,1.426,10.159,1.629,15.027,1.739v68.7h13.95V235.233c5.052-.11,10.736-.258,15.744-1.755,6.422-1.919,10.516-5.773,12.168-11.455,1.258-4.325.424-8.686-2.176-11.38m-52.921,16.84c-4.376-1.308-6.9-3.6-7.952-7.207-.6-2.078-.328-4.252.671-5.287a2.4,2.4,0,0,1,1.811-.681,5.418,5.418,0,0,1,1.319.183c4.426,1.119,8.747,3.746,12.843,7.81a55.96,55.96,0,0,1,5.406,6.326c.087.118.175.237.262.357-4.722-.1-10.072-.22-14.36-1.5m49.089-7.207c-1.049,3.609-3.576,5.9-7.951,7.207-4.288,1.281-9.639,1.4-14.361,1.5q.131-.18.263-.357A55.857,55.857,0,0,1,348.8,222.3c4.1-4.064,8.417-6.691,12.843-7.81a5.4,5.4,0,0,1,1.318-.183,2.4,2.4,0,0,1,1.812.681c1,1.035,1.274,3.209.67,5.287" transform="translate(193.49 4362)" fill="#ffc631"/>
  </g>
</svg>
