<svg xmlns="http://www.w3.org/2000/svg" xmlns:xlink="http://www.w3.org/1999/xlink" width="252.116" height="322.963" viewBox="0 0 252.116 322.963">
  <defs>
    <clipPath id="clip-path">
      <rect id="Rectángulo_291369" data-name="Rectángulo 291369" width="252.116" height="258.24" fill="#fff"/>
    </clipPath>
    <clipPath id="clip-path-2">
      <rect id="Rectángulo_291736" data-name="Rectángulo 291736" width="201.034" height="269.379" fill="none"/>
    </clipPath>
    <clipPath id="clip-path-4">
      <rect id="Rectángulo_291710" data-name="Rectángulo 291710" width="28.396" height="242.75" fill="none"/>
    </clipPath>
    <clipPath id="clip-path-6">
      <rect id="Rectángulo_291714" data-name="Rectángulo 291714" width="27.587" height="4.666" fill="none"/>
    </clipPath>
    <clipPath id="clip-path-7">
      <rect id="Rectángulo_291716" data-name="Rectángulo 291716" width="59.069" height="45.898" fill="none"/>
    </clipPath>
    <clipPath id="clip-path-8">
      <rect id="Rectángulo_291717" data-name="Rectángulo 291717" width="42.778" height="33.446" fill="#bfbfbf"/>
    </clipPath>
    <clipPath id="clip-path-9">
      <rect id="Rectángulo_291720" data-name="Rectángulo 291720" width="42.987" height="37.059" fill="none"/>
    </clipPath>
    <clipPath id="clip-path-10">
      <rect id="Rectángulo_291723" data-name="Rectángulo 291723" width="31.44" height="4.665" fill="none"/>
    </clipPath>
    <clipPath id="clip-path-11">
      <rect id="Rectángulo_291725" data-name="Rectángulo 291725" width="28.668" height="4.666" fill="none"/>
    </clipPath>
    <clipPath id="clip-path-14">
      <rect id="Rectángulo_291729" data-name="Rectángulo 291729" width="5.481" height="19.719" fill="none"/>
    </clipPath>
    <clipPath id="clip-path-15">
      <rect id="Rectángulo_291730" data-name="Rectángulo 291730" width="28.344" height="18.332" fill="none"/>
    </clipPath>
    <clipPath id="clip-path-16">
      <rect id="Rectángulo_291731" data-name="Rectángulo 291731" width="32.409" height="3.304" fill="none"/>
    </clipPath>
    <clipPath id="clip-path-17">
      <rect id="Rectángulo_291732" data-name="Rectángulo 291732" width="36.169" height="17.317" fill="none"/>
    </clipPath>
    <clipPath id="clip-path-18">
      <rect id="Rectángulo_291733" data-name="Rectángulo 291733" width="19.989" height="22.771" fill="none"/>
    </clipPath>
    <clipPath id="clip-path-19">
      <rect id="Rectángulo_291734" data-name="Rectángulo 291734" width="21.289" height="7.176" fill="none"/>
    </clipPath>
  </defs>
  <g id="Grupo_872345" data-name="Grupo 872345" transform="translate(2497.588 5680.94)">
    <path id="Trazado_266392" data-name="Trazado 266392" d="M104.769,16.609h-4.228L99.8,19h-3.3L101.2,6.2h2.9L108.83,19h-3.313Zm-3.489-2.382h2.751l-1.38-4.438Zm14.1-2.057-.976-.07a1.752,1.752,0,0,0-1.793.879V19h-2.962V9.49h2.777l.1,1.222a2.294,2.294,0,0,1,2.083-1.4,2.888,2.888,0,0,1,.826.105Zm4.922,4.72a1.317,1.317,0,0,0,.967-.338,1.241,1.241,0,0,0,.334-.945h2.777a3.288,3.288,0,0,1-1.121,2.566,4.168,4.168,0,0,1-2.887,1,4.22,4.22,0,0,1-3.27-1.3,5.125,5.125,0,0,1-1.2-3.6v-.123a5.792,5.792,0,0,1,.532-2.544,3.872,3.872,0,0,1,1.534-1.7,4.573,4.573,0,0,1,2.373-.593,4.116,4.116,0,0,1,2.944,1.028,3.647,3.647,0,0,1,1.09,2.786H121.6A1.626,1.626,0,0,0,121.24,12a1.244,1.244,0,0,0-.967-.4q-1.151,0-1.345,1.468a10.357,10.357,0,0,0-.062,1.283,4.068,4.068,0,0,0,.343,1.986A1.187,1.187,0,0,0,120.3,16.891Zm8.227-6.381a3.251,3.251,0,0,1,4.8-.264A4.186,4.186,0,0,1,134.142,13v6h-2.971V13.067a1.674,1.674,0,0,0-.308-1.112,1.322,1.322,0,0,0-1.046-.356,1.424,1.424,0,0,0-1.292.58V19h-2.962V5.5h2.962ZM138.915,19h-2.971V9.49h2.971ZM135.768,7.038A1.322,1.322,0,0,1,136.225,6,1.943,1.943,0,0,1,138.6,6a1.322,1.322,0,0,1,.457,1.037,1.322,1.322,0,0,1-.457,1.037,1.943,1.943,0,0,1-2.373,0A1.322,1.322,0,0,1,135.768,7.038Zm8.763,8.438,1.5-5.985h3.12l-3.1,9.51h-3.023l-3.1-9.51h3.129Zm5-1.318a5.613,5.613,0,0,1,.554-2.536,3.96,3.96,0,0,1,1.591-1.709,4.791,4.791,0,0,1,2.435-.6,4.373,4.373,0,0,1,3.366,1.323,5.076,5.076,0,0,1,1.23,3.6v.105a4.925,4.925,0,0,1-1.235,3.529,4.384,4.384,0,0,1-3.344,1.305,4.434,4.434,0,0,1-3.261-1.217,4.761,4.761,0,0,1-1.327-3.3Zm2.962.185a3.538,3.538,0,0,0,.413,1.934,1.376,1.376,0,0,0,1.222.615q1.582,0,1.617-2.435v-.3q0-2.558-1.635-2.558-1.485,0-1.608,2.206Zm16.022,2.549a1.317,1.317,0,0,0,.967-.338,1.241,1.241,0,0,0,.334-.945h2.777a3.288,3.288,0,0,1-1.121,2.566,4.168,4.168,0,0,1-2.887,1,4.22,4.22,0,0,1-3.27-1.3,5.125,5.125,0,0,1-1.2-3.6v-.123a5.792,5.792,0,0,1,.532-2.544,3.872,3.872,0,0,1,1.534-1.7,4.573,4.573,0,0,1,2.373-.593,4.116,4.116,0,0,1,2.944,1.028,3.647,3.647,0,0,1,1.09,2.786h-2.777a1.626,1.626,0,0,0-.36-1.134,1.244,1.244,0,0,0-.967-.4q-1.151,0-1.345,1.468a10.357,10.357,0,0,0-.062,1.283,4.068,4.068,0,0,0,.343,1.986A1.187,1.187,0,0,0,168.516,16.891Zm9.932,2.285a4.889,4.889,0,0,1-3.542-1.305,4.507,4.507,0,0,1-1.354-3.4v-.246a5.84,5.84,0,0,1,.541-2.575,3.955,3.955,0,0,1,1.578-1.727,4.763,4.763,0,0,1,2.461-.611,4.117,4.117,0,0,1,3.164,1.244,4.887,4.887,0,0,1,1.16,3.467v1.151h-5.889a2.135,2.135,0,0,0,.694,1.257,2.066,2.066,0,0,0,1.389.457,2.662,2.662,0,0,0,2.2-.984l1.354,1.6a3.784,3.784,0,0,1-1.569,1.217A5.3,5.3,0,0,1,178.448,19.176Zm-.334-7.576q-1.3,0-1.547,1.723h2.988v-.229a1.467,1.467,0,0,0-.36-1.1A1.434,1.434,0,0,0,178.114,11.6Zm8.253-2.109.1,1.116a3.225,3.225,0,0,1,2.716-1.292,2.713,2.713,0,0,1,2.219.888,4.226,4.226,0,0,1,.76,2.672V19h-2.971V13a1.6,1.6,0,0,0-.29-1.059,1.342,1.342,0,0,0-1.055-.338,1.413,1.413,0,0,0-1.292.686V19H183.59V9.49Zm10.881-2.364V9.49h1.564v2.057h-1.564V15.9a1.111,1.111,0,0,0,.193.747,1.037,1.037,0,0,0,.765.211,4.345,4.345,0,0,0,.738-.053v2.118a5.466,5.466,0,0,1-1.67.255,3.1,3.1,0,0,1-2.259-.721,2.954,2.954,0,0,1-.729-2.188v-4.72h-1.213V9.49h1.213V7.126Zm8.481,5.045-.976-.07a1.752,1.752,0,0,0-1.793.879V19H200V9.49h2.777l.1,1.222a2.294,2.294,0,0,1,2.083-1.4,2.888,2.888,0,0,1,.826.105ZM211.89,19a3.344,3.344,0,0,1-.281-.853,2.754,2.754,0,0,1-2.285,1.028,3.374,3.374,0,0,1-2.285-.813,2.588,2.588,0,0,1-.94-2.043,2.66,2.66,0,0,1,1.143-2.338,5.821,5.821,0,0,1,3.322-.791h.914v-.5q0-1.316-1.134-1.316a.927.927,0,0,0-1.055,1.042h-2.962a2.655,2.655,0,0,1,1.173-2.239,4.931,4.931,0,0,1,2.993-.86,4.323,4.323,0,0,1,2.874.888,3.086,3.086,0,0,1,1.081,2.435v4.21a4.311,4.311,0,0,0,.4,2V19Zm-1.854-1.934a1.652,1.652,0,0,0,.918-.237,1.487,1.487,0,0,0,.523-.536V14.772h-.861q-1.547,0-1.547,1.389a.848.848,0,0,0,.272.655A.986.986,0,0,0,210.036,17.066ZM219.212,19h-2.971V5.5h2.971Z" transform="translate(-2524.896 -5377.153)" fill="#12263f"/>
    <g id="Grupo_870715" data-name="Grupo 870715" transform="translate(-2497.588 -5675.371)">
      <g id="Grupo_870714" data-name="Grupo 870714" clip-path="url(#clip-path)">
        <path id="Trazado_215321" data-name="Trazado 215321" d="M19.194,125.641C50.705,99.911-3.863,58.389,8.219,17.32s51.953,1.154,73.407,21.387,46.595-15.966,63.261-16.938,7.287,14.849,14.8,35.343,62.926,3.474,85.14,23.269-13.176,61.918-16.155,87.037,35.281,53.541,10.768,90.822L117.665,257.5c-12.253-3.857-20.248-6.914-20.248-6.914C-16.59,200.163-12.317,151.371,19.194,125.641" transform="translate(0 0)" fill="#fff"/>
      </g>
    </g>
    <g id="Grupo_871530" data-name="Grupo 871530" transform="translate(-2467.043 -5680.94)">
      <g id="Grupo_871529" data-name="Grupo 871529" clip-path="url(#clip-path-2)">
        <rect id="Rectángulo_291708" data-name="Rectángulo 291708" width="103.872" height="242.75" transform="translate(0 26.629)" fill="#455a64"/>
        <g id="Grupo_871485" data-name="Grupo 871485">
          <g id="Grupo_871484" data-name="Grupo 871484" clip-path="url(#clip-path-2)">
            <g id="Grupo_871483" data-name="Grupo 871483" transform="translate(0 26.629)" opacity="0.3">
              <g id="Grupo_871482" data-name="Grupo 871482">
                <g id="Grupo_871481" data-name="Grupo 871481" clip-path="url(#clip-path-4)">
                  <rect id="Rectángulo_291709" data-name="Rectángulo 291709" width="28.397" height="242.75"/>
                </g>
              </g>
            </g>
          </g>
        </g>
        <path id="Trazado_265862" data-name="Trazado 265862" d="M81.923,52.26l-.011-1.942L80.97,51.9h-.46l-.937-1.529v1.89h-.958V48.6h.853l1.288,2.115L82.012,48.6h.854l.01,3.665Z" transform="translate(-24.884 -15.382)" fill="#fff"/>
        <path id="Trazado_265863" data-name="Trazado 265863" d="M87.665,50.946V52.26H86.628V50.93l-1.4-2.335h1.094l.869,1.455.869-1.455h1.005Z" transform="translate(-26.978 -15.382)" fill="#fff"/>
        <path id="Trazado_265864" data-name="Trazado 265864" d="M94.492,49.4V50.2H96.11V51H94.492V52.26H93.455V48.6H96.33v.8Z" transform="translate(-29.581 -15.382)" fill="#fff"/>
        <rect id="Rectángulo_291712" data-name="Rectángulo 291712" width="1.037" height="3.665" transform="translate(67.234 33.213)" fill="#fff"/>
        <path id="Trazado_265865" data-name="Trazado 265865" d="M100.968,48.6h1.037v2.843h1.748v.822h-2.785Z" transform="translate(-31.96 -15.382)" fill="#fff"/>
        <path id="Trazado_265866" data-name="Trazado 265866" d="M108.582,51.459v.8H105.64V48.6h2.874v.8h-1.848v.618h1.629v.775h-1.629v.67Z" transform="translate(-33.438 -15.382)" fill="#fff"/>
        <g id="Grupo_871508" data-name="Grupo 871508">
          <g id="Grupo_871507" data-name="Grupo 871507" clip-path="url(#clip-path-2)">
            <path id="Trazado_265867" data-name="Trazado 265867" d="M110.41,51.9l.34-.765a2.306,2.306,0,0,0,1.21.362c.429,0,.6-.12.6-.3,0-.582-2.084-.157-2.084-1.519,0-.655.534-1.189,1.623-1.189a2.745,2.745,0,0,1,1.329.319l-.319.77a2.171,2.171,0,0,0-1.016-.282c-.435,0-.592.146-.592.329,0,.56,2.078.141,2.078,1.492,0,.639-.534,1.184-1.623,1.184a2.89,2.89,0,0,1-1.545-.4" transform="translate(-34.948 -15.348)" fill="#fff"/>
            <path id="Trazado_265868" data-name="Trazado 265868" d="M115.052,111.145s-.01-.306-.016-.884-.009-1.441-.016-2.555c-.008-2.242-.021-5.522-.037-9.713-.018-8.381-.044-20.4-.075-35l.144.144-67.759.033h-.005l.178-.178c-.006,17.239-.012,33.6-.016,48.155l-.161-.162,48.85.08,13.924.044,3.7.019.957.01c.215,0,.33.01.33.01s-.1.006-.312.01l-.939.01-3.67.019-13.888.044-48.956.08h-.162v-.162c0-14.558-.01-30.916-.016-48.155v-.178h.184l67.759.034h.144v.144c-.031,14.639-.057,26.69-.075,35.092-.016,4.178-.029,7.446-.037,9.681-.008,1.1-.013,1.947-.016,2.527s-.016.854-.016.854" transform="translate(-14.911 -19.882)" fill="#263238"/>
            <g id="Grupo_871488" data-name="Grupo 871488" transform="translate(53.102 72.709)" opacity="0.3">
              <g id="Grupo_871487" data-name="Grupo 871487">
                <g id="Grupo_871486" data-name="Grupo 871486" clip-path="url(#clip-path-6)">
                  <rect id="Rectángulo_291713" data-name="Rectángulo 291713" width="27.587" height="4.666" transform="translate(0.001)"/>
                </g>
              </g>
            </g>
            <path id="Trazado_265869" data-name="Trazado 265869" d="M103.257,89.5H89.041a1.7,1.7,0,0,1-1.7-1.7V77.7a1.7,1.7,0,0,1,1.7-1.7h14.216a1.7,1.7,0,0,1,1.7,1.7V87.8a1.7,1.7,0,0,1-1.7,1.7" transform="translate(-27.645 -24.055)" fill="#fff"/>
            <path id="Trazado_265870" data-name="Trazado 265870" d="M104.346,89.814a4.464,4.464,0,0,1-.636-.664c-.431-.5-.977-1.137-1.631-1.9l-1.112-1.319-.3-.358a.323.323,0,0,0-.3-.1c-.115.017-.179.1-.306.244l-.344.385L99,86.9a.771.771,0,0,1-.576.337.649.649,0,0,1-.364-.1.705.705,0,0,1-.146-.125l-.093-.107L96.284,85.13l-.778-.9-.38-.443a.3.3,0,0,0-.331-.1.3.3,0,0,0-.146.1l-.172.22-.339.437-.658.846L91.191,88.2l-1.568,1.947a4.626,4.626,0,0,1-.614.684,4.514,4.514,0,0,1,.5-.769l1.478-2.016,2.23-2.962c.211-.278.428-.562.648-.853l.335-.44.172-.225a.651.651,0,0,1,1.016-.011l.383.442.778.9,1.532,1.782c.208.3.448.288.662-.005l.724-.789.351-.38a.844.844,0,0,1,.487-.336.63.63,0,0,1,.582.206c.1.126.2.25.3.372l1.079,1.347,1.544,1.967a4.5,4.5,0,0,1,.529.752" transform="translate(-28.174 -26.372)" fill="#263238"/>
            <path id="Trazado_265871" data-name="Trazado 265871" d="M103.464,80.927c-.029,0-.04-.13-.113-.34a1.467,1.467,0,0,0-.541-.721,1.344,1.344,0,0,0-1.249-.157,1.3,1.3,0,0,0,0,2.435,1.345,1.345,0,0,0,1.249-.157,1.47,1.47,0,0,0,.54-.721c.072-.21.084-.34.113-.34s.057.131.021.373a1.453,1.453,0,0,1-.521.888,1.576,1.576,0,0,1-1.513.265,1.615,1.615,0,0,1,0-3.051,1.576,1.576,0,0,1,1.513.265,1.456,1.456,0,0,1,.521.888c.036.242,0,.374-.021.373" transform="translate(-31.769 -25.105)" fill="#263238"/>
            <g id="Grupo_871491" data-name="Grupo 871491" transform="translate(31.586 94.885)" opacity="0.4">
              <g id="Grupo_871490" data-name="Grupo 871490">
                <g id="Grupo_871489" data-name="Grupo 871489" clip-path="url(#clip-path-7)">
                  <rect id="Rectángulo_291715" data-name="Rectángulo 291715" width="59.069" height="45.898" transform="translate(0)"/>
                </g>
              </g>
            </g>
            <path id="Trazado_265872" data-name="Trazado 265872" d="M82.95,140.3H71.724l-.66-1.128a2.467,2.467,0,0,0-2.129-1.221H60.653A2.466,2.466,0,0,0,58.19,140.3H55.242a2.309,2.309,0,0,0-2.309,2.309v5.723H85.259V142.6A2.31,2.31,0,0,0,82.95,140.3" transform="translate(-16.755 -43.664)" fill="#e0e0e0"/>
            <path id="Trazado_265873" data-name="Trazado 265873" d="M91.624,140.3H80.4l-.66-1.128a2.467,2.467,0,0,0-2.129-1.221H69.327a2.467,2.467,0,0,0-2.464,2.349H63.916a2.309,2.309,0,0,0-2.309,2.309v5.723H93.933V142.6a2.31,2.31,0,0,0-2.309-2.309" transform="translate(-19.501 -43.664)" fill="#ebebeb"/>
            <path id="Trazado_265874" data-name="Trazado 265874" d="M102.9,140.3H91.67l-.66-1.128a2.467,2.467,0,0,0-2.129-1.221H80.6a2.467,2.467,0,0,0-2.464,2.349H75.188a2.309,2.309,0,0,0-2.309,2.309v5.723h32.326V142.6A2.31,2.31,0,0,0,102.9,140.3" transform="translate(-23.068 -43.664)" fill="#f5f5f5"/>
            <path id="Trazado_265875" data-name="Trazado 265875" d="M78.688,169.579V142.061a2.384,2.384,0,0,1,2.481-2.274h2.372a2.5,2.5,0,0,0,2.252-1.321l.51-1.012a2.5,2.5,0,0,1,2.253-1.321H99.811a2.532,2.532,0,0,1,2.136,1.117l.553.858a2.533,2.533,0,0,0,2.136,1.117h14.349a2.384,2.384,0,0,1,2.481,2.274v28.08Z" transform="translate(-24.907 -43.09)" fill="#ff725e"/>
            <g id="Grupo_871494" data-name="Grupo 871494" transform="translate(53.781 93.042)">
              <g id="Grupo_871493" data-name="Grupo 871493">
                <g id="Grupo_871492" data-name="Grupo 871492" clip-path="url(#clip-path-8)">
                  <path id="Trazado_265876" data-name="Trazado 265876" d="M78.688,169.579V142.061a2.384,2.384,0,0,1,2.481-2.274h2.372a2.5,2.5,0,0,0,2.252-1.321l.51-1.012a2.5,2.5,0,0,1,2.253-1.321H99.811a2.532,2.532,0,0,1,2.136,1.117l.553.858a2.533,2.533,0,0,0,2.136,1.117h14.349a2.384,2.384,0,0,1,2.481,2.274v28.08Z" transform="translate(-78.688 -136.132)" fill="#bfbfbf"/>
                </g>
              </g>
            </g>
            <path id="Trazado_265877" data-name="Trazado 265877" d="M91.84,140.7V118.955a3.244,3.244,0,0,1,3.244-3.244h34.622a3.244,3.244,0,0,1,3.244,3.244V140.1Z" transform="translate(-29.07 -36.626)" fill="#fff"/>
            <path id="Trazado_265878" data-name="Trazado 265878" d="M93.822,146.061V118.543a2.384,2.384,0,0,1,2.481-2.274h2.372a2.5,2.5,0,0,0,2.252-1.321l.51-1.012a2.5,2.5,0,0,1,2.253-1.32h11.256a2.532,2.532,0,0,1,2.136,1.117l.553.858a2.533,2.533,0,0,0,2.136,1.117h14.349a2.384,2.384,0,0,1,2.481,2.274v28.08Z" transform="translate(-29.698 -35.646)" fill="#bfbfbf"/>
            <path id="Trazado_265879" data-name="Trazado 265879" d="M93.757,145.982a1.92,1.92,0,0,1,.212-.01l.608-.01,2.344-.019,8.8-.044,30.818-.08-.162.162c0-4.6-.008-9.493-.012-14.6q0-3.826,0-7.8,0-1.986,0-4v-1.011a7.635,7.635,0,0,0-.029-.983,2.082,2.082,0,0,0-1.069-1.467,2.433,2.433,0,0,0-.83-.282,6.77,6.77,0,0,0-.917-.031h-5.6l-7.274,0h-.892a2.922,2.922,0,0,1-.928-.141,2.633,2.633,0,0,1-1.448-1.138l-.474-.737a2.183,2.183,0,0,0-.544-.594,2.465,2.465,0,0,0-1.514-.486l-6.731-.005-3.244,0c-.524.01-1.085-.023-1.569.02a2.435,2.435,0,0,0-1.318.6c-.722.622-.8,1.88-1.741,2.5a2.744,2.744,0,0,1-1.476.513l-1.482,0a14.112,14.112,0,0,0-1.425.029,2.39,2.39,0,0,0-1.209.542A2.093,2.093,0,0,0,93.955,118a7,7,0,0,0-.061,1.329q-.007,2.7-.013,5.184c-.029,6.608-.052,11.961-.068,15.677-.013,1.849-.023,3.29-.03,4.284-.005.482-.01.855-.013,1.122s-.013.391-.013.391-.009-.12-.013-.366-.008-.626-.013-1.1c-.008-.987-.017-2.417-.03-4.252-.016-3.725-.04-9.091-.068-15.716q-.006-2.494-.013-5.22a7.06,7.06,0,0,1,.064-1.4,2.372,2.372,0,0,1,.775-1.238,2.677,2.677,0,0,1,1.351-.612,14,14,0,0,1,1.469-.037l1.466-.007a2.447,2.447,0,0,0,1.314-.46c.835-.529.868-1.694,1.707-2.489a2.751,2.751,0,0,1,1.489-.685c.566-.049,1.068-.014,1.61-.026l3.244,0,6.731-.006a2.8,2.8,0,0,1,1.72.552,2.525,2.525,0,0,1,.627.681l.475.735a2.277,2.277,0,0,0,1.266,1,2.549,2.549,0,0,0,.821.124h.892l7.274,0h5.6a6.911,6.911,0,0,1,.969.034,2.78,2.78,0,0,1,.951.324,2.438,2.438,0,0,1,1.246,1.72,7.755,7.755,0,0,1,.033,1.041v1.011q0,2.017,0,4,0,3.972,0,7.8c0,5.1-.008,9.991-.012,14.6v.162h-.162l-30.924-.081-8.76-.043L94.539,146l-.589-.01a1.374,1.374,0,0,1-.193-.01" transform="translate(-29.632 -35.567)" fill="#263238"/>
            <path id="Trazado_265880" data-name="Trazado 265880" d="M118.235,116.165a29.169,29.169,0,0,1-4.544.178,29.169,29.169,0,0,1-4.544-.178,29.169,29.169,0,0,1,4.544-.178,29.169,29.169,0,0,1,4.544.178" transform="translate(-34.548 -36.713)" fill="#fff"/>
            <path id="Trazado_265881" data-name="Trazado 265881" d="M113.306,162.979V135.461a2.581,2.581,0,0,1,2.8-2.274h2.681a2.906,2.906,0,0,0,2.546-1.321l.575-1.012a2.9,2.9,0,0,1,2.546-1.321H137.18a2.983,2.983,0,0,1,2.414,1.117l.625.858a2.983,2.983,0,0,0,2.414,1.117H158.85a2.581,2.581,0,0,1,2.8,2.274v28.08Z" transform="translate(-35.865 -41.001)" fill="#bfbfbf"/>
            <path id="Trazado_265882" data-name="Trazado 265882" d="M113.241,162.9s.085-.007.241-.01l.691-.01,2.665-.02,9.982-.044,34.769-.08-.164.164c0-4.659-.007-9.547-.01-14.615q0-3.8,0-7.728,0-1.962,0-3.953c-.005-.654.012-1.348-.012-1.975a2.038,2.038,0,0,0-1.014-1.467,3.232,3.232,0,0,0-1.852-.439h-6.012l-7.811,0H142.8a3.6,3.6,0,0,1-1.91-.428,2.786,2.786,0,0,1-.772-.631c-.207-.265-.374-.509-.562-.762a2.6,2.6,0,0,0-1.342-1.081,4.568,4.568,0,0,0-1.755-.194l-1.817,0-3.572,0-6.867,0a3.049,3.049,0,0,0-1.487.474,2.319,2.319,0,0,0-.568.514,6.414,6.414,0,0,0-.412.675c-.138.237-.258.463-.41.707a2.5,2.5,0,0,1-.581.616,3.242,3.242,0,0,1-1.521.616c-1.083.07-2.085.016-3.1.031a2.833,2.833,0,0,0-2.45,1.164,2.08,2.08,0,0,0-.295,1.306q0,.711,0,1.407,0,1.392-.007,2.722c-.029,7.1-.053,12.843-.068,16.83-.013,1.986-.023,3.534-.03,4.6-.006.519-.01.919-.014,1.2s-.013.419-.013.419-.009-.129-.013-.393c0-.28-.008-.671-.014-1.18-.007-1.057-.017-2.594-.03-4.567-.016-4-.04-9.762-.068-16.88q0-1.339-.006-2.741,0-.7,0-1.416a2.373,2.373,0,0,1,.331-1.456,3.11,3.11,0,0,1,2.683-1.3c1-.016,2.059.029,3.061-.038a2.946,2.946,0,0,0,1.379-.562,3.476,3.476,0,0,0,.909-1.236,6.633,6.633,0,0,1,.435-.714,2.628,2.628,0,0,1,.64-.584,3.356,3.356,0,0,1,1.638-.528l6.885-.014,3.572,0h1.817a4.9,4.9,0,0,1,1.872.213,2.948,2.948,0,0,1,1.5,1.2c.182.245.37.515.549.743a2.432,2.432,0,0,0,.677.551,3.247,3.247,0,0,0,1.741.381h1.912l7.811,0h6.012a3.587,3.587,0,0,1,2.039.491,2.394,2.394,0,0,1,1.18,1.73c.028.707.008,1.344.014,2.016q0,1.99,0,3.953,0,3.924,0,7.728c0,5.067-.008,9.956-.01,14.615v.165h-.165l-34.877-.08-9.944-.044-2.631-.02-.673-.01a1.645,1.645,0,0,1-.221-.01" transform="translate(-35.8 -40.922)" fill="#263238"/>
            <path id="Trazado_265883" data-name="Trazado 265883" d="M141.865,133.626a50.786,50.786,0,0,1-6,.178,50.777,50.777,0,0,1-6-.178,50.777,50.777,0,0,1,6-.178,50.786,50.786,0,0,1,6,.178" transform="translate(-41.104 -42.24)" fill="#fff"/>
            <rect id="Rectángulo_291718" data-name="Rectángulo 291718" width="42.987" height="37.059" transform="translate(31.586 104.062)" fill="#455a64"/>
            <g id="Grupo_871497" data-name="Grupo 871497" transform="translate(31.586 104.062)" opacity="0.3">
              <g id="Grupo_871496" data-name="Grupo 871496">
                <g id="Grupo_871495" data-name="Grupo 871495" clip-path="url(#clip-path-9)">
                  <rect id="Rectángulo_291719" data-name="Rectángulo 291719" width="42.987" height="37.059" transform="translate(0)"/>
                </g>
              </g>
            </g>
            <rect id="Rectángulo_291721" data-name="Rectángulo 291721" width="67.765" height="48.155" transform="translate(74.574 94.282)" fill="#455a64"/>
            <path id="Trazado_265884" data-name="Trazado 265884" d="M176.793,186.02s-.01-.306-.016-.884-.009-1.441-.016-2.555c-.008-2.242-.021-5.522-.037-9.713-.018-8.381-.044-20.4-.075-35l.144.144-67.76.033h0l.178-.178c-.006,17.239-.012,33.6-.016,48.155l-.161-.162,48.85.081,13.925.043,3.7.019.957.01c.215,0,.33.01.33.01s-.1.006-.312.01l-.939.01-3.67.019-13.888.044-48.956.08h-.162v-.162c-.005-14.558-.01-30.916-.016-48.155v-.178h.183l67.76.034h.144v.144c-.031,14.639-.057,26.69-.075,35.092-.016,4.178-.029,7.446-.037,9.681-.008,1.1-.013,1.947-.016,2.527s-.016.854-.016.854" transform="translate(-34.454 -43.582)" fill="#263238"/>
            <g id="Grupo_871500" data-name="Grupo 871500" transform="translate(96.396 126.006)" opacity="0.3">
              <g id="Grupo_871499" data-name="Grupo 871499">
                <g id="Grupo_871498" data-name="Grupo 871498" clip-path="url(#clip-path-10)">
                  <rect id="Rectángulo_291722" data-name="Rectángulo 291722" width="31.44" height="4.666" transform="translate(0 -0.001)"/>
                </g>
              </g>
            </g>
            <path id="Trazado_265885" data-name="Trazado 265885" d="M165.561,171.435H151.345a1.7,1.7,0,0,1-1.7-1.7v-10.1a1.7,1.7,0,0,1,1.7-1.7h14.216a1.7,1.7,0,0,1,1.7,1.7v10.1a1.7,1.7,0,0,1-1.7,1.7" transform="translate(-47.366 -49.989)" fill="#fff"/>
            <path id="Trazado_265886" data-name="Trazado 265886" d="M155.106,163.784h3.605l.006,1.208h-.173a1.1,1.1,0,0,0-.485-.877,1.49,1.49,0,0,0-.673-.137v3.154a.61.61,0,0,0,.116.439.741.741,0,0,0,.481.109v.152h-2.134v-.152a.7.7,0,0,0,.466-.11.608.608,0,0,0,.116-.437v-3.154a1.528,1.528,0,0,0-.673.137,1.017,1.017,0,0,0-.485.877H155.1Z" transform="translate(-49.094 -51.843)" fill="#263238"/>
            <path id="Trazado_265887" data-name="Trazado 265887" d="M167.575,164.167a22.573,22.573,0,0,1-5.654,0,22.573,22.573,0,0,1,5.654,0" transform="translate(-51.253 -51.908)" fill="#263238"/>
            <path id="Trazado_265888" data-name="Trazado 265888" d="M167.741,167.865a22.575,22.575,0,0,1-5.654,0,22.571,22.571,0,0,1,5.654,0" transform="translate(-51.306 -53.078)" fill="#263238"/>
            <path id="Trazado_265889" data-name="Trazado 265889" d="M166.58,171.564a39.16,39.16,0,0,1-5.269.178,39.152,39.152,0,0,1-5.269-.178,39.152,39.152,0,0,1,5.269-.178,39.16,39.16,0,0,1,5.269.178" transform="translate(-49.392 -54.249)" fill="#263238"/>
            <path id="Trazado_265890" data-name="Trazado 265890" d="M115.052,264.492s-.01-.306-.016-.884-.009-1.441-.016-2.555c-.008-2.242-.021-5.522-.037-9.713-.018-8.381-.044-20.4-.075-35l.144.144-67.759.034h-.005l.178-.178c-.006,17.239-.012,33.6-.016,48.155l-.161-.162,48.85.081,13.924.043,3.7.019.957.01c.215,0,.33.01.33.01s-.1.006-.312.01l-.939.01-3.67.019-13.888.044-48.956.08h-.162v-.162c0-14.558-.01-30.916-.016-48.155v-.178h.184l67.759.034h.144v.144c-.031,14.639-.057,26.69-.075,35.092-.016,4.178-.029,7.446-.037,9.681-.008,1.1-.013,1.947-.016,2.527s-.016.854-.016.854" transform="translate(-14.911 -68.421)" fill="#263238"/>
            <g id="Grupo_871503" data-name="Grupo 871503" transform="translate(53.102 177.517)" opacity="0.3">
              <g id="Grupo_871502" data-name="Grupo 871502">
                <g id="Grupo_871501" data-name="Grupo 871501" clip-path="url(#clip-path-11)">
                  <rect id="Rectángulo_291724" data-name="Rectángulo 291724" width="28.667" height="4.666" transform="translate(0.001)"/>
                </g>
              </g>
            </g>
            <path id="Trazado_265891" data-name="Trazado 265891" d="M102.415,246.688H88.2a1.7,1.7,0,0,1-1.7-1.7v-10.1a1.7,1.7,0,0,1,1.7-1.7h14.216a1.7,1.7,0,0,1,1.7,1.7v10.1a1.7,1.7,0,0,1-1.7,1.7" transform="translate(-27.378 -73.809)" fill="#fff"/>
            <path id="Trazado_265892" data-name="Trazado 265892" d="M96.683,245.308a1.041,1.041,0,1,1-.446-1.4,1.04,1.04,0,0,1,.446,1.4" transform="translate(-29.981 -77.167)" fill="#263238"/>
            <path id="Trazado_265893" data-name="Trazado 265893" d="M97.47,243.225a5.9,5.9,0,0,1-.344-2.406,9.912,9.912,0,0,1,.118-2.419,7.054,7.054,0,0,1,.243,2.413,13.761,13.761,0,0,1-.017,2.413" transform="translate(-30.743 -75.461)" fill="#263238"/>
            <path id="Trazado_265894" data-name="Trazado 265894" d="M100.595,239.043a2.888,2.888,0,0,1-3.031-.073c-.281-.213-.357-.435-.319-.455s.181.109.457.24a3.3,3.3,0,0,0,1.145.3c.94.093,1.718-.125,1.748-.016" transform="translate(-30.778 -75.496)" fill="#263238"/>
            <path id="Trazado_265895" data-name="Trazado 265895" d="M101.534,246.2a1.041,1.041,0,1,1-.446-1.4,1.04,1.04,0,0,1,.446,1.4" transform="translate(-31.517 -77.449)" fill="#263238"/>
            <path id="Trazado_265896" data-name="Trazado 265896" d="M102.321,244.116a5.9,5.9,0,0,1-.344-2.406,9.912,9.912,0,0,1,.118-2.419,7.054,7.054,0,0,1,.243,2.413,13.762,13.762,0,0,1-.017,2.413" transform="translate(-32.279 -75.743)" fill="#263238"/>
            <path id="Trazado_265897" data-name="Trazado 265897" d="M100.706,240.24a2.715,2.715,0,0,1-3.24-.174c.051-.093.724.223,1.61.263.885.055,1.589-.187,1.629-.09" transform="translate(-30.85 -75.983)" fill="#263238"/>
            <path id="Trazado_265898" data-name="Trazado 265898" d="M115.052,341.176s-.01-.305-.016-.884-.009-1.441-.016-2.555c-.008-2.243-.021-5.522-.037-9.713-.018-8.381-.044-20.4-.075-35l.144.144-67.759.033h-.005l.178-.178c-.006,17.239-.012,33.6-.016,48.155l-.161-.162,48.85.081,13.924.043,3.7.019.957.01c.215,0,.33.01.33.01s-.1.006-.312.01l-.939.01-3.67.019-13.888.044-48.956.08h-.162v-.162c0-14.558-.01-30.916-.016-48.155v-.178h.184l67.759.034h.144v.144c-.031,14.639-.057,26.69-.075,35.092-.016,4.178-.029,7.446-.037,9.681-.008,1.1-.013,1.947-.016,2.527s-.016.854-.016.854" transform="translate(-14.911 -92.694)" fill="#263238"/>
            <g id="Grupo_871506" data-name="Grupo 871506" transform="translate(53.102 229.928)" opacity="0.3">
              <g id="Grupo_871505" data-name="Grupo 871505">
                <g id="Grupo_871504" data-name="Grupo 871504" clip-path="url(#clip-path-11)">
                  <rect id="Rectángulo_291726" data-name="Rectángulo 291726" width="28.667" height="4.666" transform="translate(0.001 0)"/>
                </g>
              </g>
            </g>
            <path id="Trazado_265899" data-name="Trazado 265899" d="M102.415,323.114H88.2a1.7,1.7,0,0,1-1.7-1.7v-10.1a1.7,1.7,0,0,1,1.7-1.7h14.216a1.7,1.7,0,0,1,1.7,1.7v10.1a1.7,1.7,0,0,1-1.7,1.7" transform="translate(-27.378 -98)" fill="#fff"/>
            <path id="Trazado_265900" data-name="Trazado 265900" d="M99.852,316.925l1.392.809a.406.406,0,0,1,.008.7l-1.4.856-1.36.834a.406.406,0,0,1-.619-.346l0-1.638,0-1.655a.407.407,0,0,1,.611-.353Z" transform="translate(-30.979 -100.047)" fill="#263238"/>
          </g>
        </g>
        <g id="Grupo_871528" data-name="Grupo 871528">
          <g id="Grupo_871527" data-name="Grupo 871527" clip-path="url(#clip-path-2)">
            <path id="Trazado_265901" data-name="Trazado 265901" d="M269.6,65.076c-1.024-18.3-9.2-26.816-11.6-41.122-1.2-7.18-.9-14.535-5.991-19.738A15.506,15.506,0,0,0,244.157.088a10.422,10.422,0,0,0-4.931.489c-2.411-.357-3.5-.474-5.192,0A13.852,13.852,0,0,0,227.917,4.3c-3.629,4.43-4.378,10.523-4.435,16.249A95.274,95.274,0,0,0,227.3,47.928a3.864,3.864,0,0,0,1.274,2.246,3.815,3.815,0,0,0,2.759.283,54.827,54.827,0,0,0,10.331-2.694,3.428,3.428,0,0,0,1.31-.722c.925-.943.535-2.5.112-3.75l9.275-7.932c-.617,5.518-2.392,10.846-3.178,16.342a46.236,46.236,0,0,0,1.462,19.693,30.019,30.019,0,0,1,10.939-.246c.875.141,2.286,7.022,3.059,6.591C265.978,77,269.681,66.6,269.6,65.076" transform="translate(-70.738 0)" fill="#263238"/>
            <path id="Trazado_265902" data-name="Trazado 265902" d="M238.109,6.462l2.632-.293,10.05,4.05a2.806,2.806,0,0,1,2.649,2.716l-.088,32.745a9.181,9.181,0,0,1-1.773,5.913l-1.412,1.864a7.412,7.412,0,0,1-12.386-.783,3.527,3.527,0,0,1-.355-.847,6.613,6.613,0,0,1-.15-.732,23.493,23.493,0,0,1-.316-4.919c-.179-2.892-.238-4.08-.239-4.052,0,0-6.155-.707-7.82-8.609-.828-3.929-.954-10.434-.886-15.759.062-4.793,4.175-11.3,10.093-11.294" transform="translate(-72.169 -1.953)" fill="#ffbe9d"/>
            <path id="Trazado_265903" data-name="Trazado 265903" d="M230.816,31.779a1.023,1.023,0,0,0,1.037.981.979.979,0,0,0,1.007-.974,1.022,1.022,0,0,0-1.035-.981.979.979,0,0,0-1.008.974" transform="translate(-73.06 -9.751)" fill="#263238"/>
            <path id="Trazado_265904" data-name="Trazado 265904" d="M245.774,30.844a1.023,1.023,0,0,0,1.037.981.979.979,0,0,0,1.007-.974,1.023,1.023,0,0,0-1.035-.981.978.978,0,0,0-1.008.974" transform="translate(-77.795 -9.455)" fill="#263238"/>
            <path id="Trazado_265905" data-name="Trazado 265905" d="M230.251,27.386c.133.127.878-.485,1.978-.537,1.1-.068,1.932.457,2.045.317.055-.063-.086-.3-.45-.535a2.809,2.809,0,0,0-1.645-.418,2.693,2.693,0,0,0-1.566.594c-.325.276-.428.523-.362.58" transform="translate(-72.876 -8.296)" fill="#263238"/>
            <path id="Trazado_265906" data-name="Trazado 265906" d="M245.51,26.529c.137.123.865-.51,1.962-.594,1.094-.1,1.944.4,2.052.257.054-.064-.092-.294-.465-.521a2.808,2.808,0,0,0-1.657-.37,2.7,2.7,0,0,0-1.548.639c-.316.286-.411.535-.345.59" transform="translate(-77.705 -8.005)" fill="#263238"/>
            <path id="Trazado_265907" data-name="Trazado 265907" d="M239.646,35.392a7.285,7.285,0,0,0-1.8-.232c-.282-.015-.55-.057-.608-.247a1.43,1.43,0,0,1,.146-.841l.722-2.179a36.768,36.768,0,0,0,1.584-5.684,36.874,36.874,0,0,0-2.038,5.543q-.359,1.146-.687,2.19a1.629,1.629,0,0,0-.091,1.109.706.706,0,0,0,.483.387,1.909,1.909,0,0,0,.48.042,7.149,7.149,0,0,0,1.81-.088" transform="translate(-74.956 -8.296)" fill="#263238"/>
            <path id="Trazado_265908" data-name="Trazado 265908" d="M240.8,57.167a20.293,20.293,0,0,0,10.524-3.38s-2.405,5.648-10.415,5.3Z" transform="translate(-76.222 -17.025)" fill="#eb996e"/>
            <path id="Trazado_265909" data-name="Trazado 265909" d="M241.79,43.1a1.984,1.984,0,0,1,1.739-.825,1.813,1.813,0,0,1,1.282.608,1.146,1.146,0,0,1,.153,1.305,1.33,1.33,0,0,1-1.423.437,4.179,4.179,0,0,1-1.447-.768,1.222,1.222,0,0,1-.33-.31.368.368,0,0,1-.019-.409" transform="translate(-76.503 -13.381)" fill="#eb996e"/>
            <path id="Trazado_265910" data-name="Trazado 265910" d="M244.2,40.521c-.179,0-.122,1.192-1.1,2.09s-2.255.83-2.256,1c-.013.076.295.218.832.206a2.981,2.981,0,0,0,1.887-.765A2.587,2.587,0,0,0,244.4,41.3c.021-.5-.127-.79-.208-.779" transform="translate(-76.233 -12.826)" fill="#263238"/>
            <path id="Trazado_265911" data-name="Trazado 265911" d="M245.509,20.639c.165.268,1.08-.1,2.232-.223,1.149-.148,2.137,0,2.222-.3.035-.141-.189-.376-.621-.569a3.47,3.47,0,0,0-1.759-.239,3.331,3.331,0,0,0-1.633.636c-.364.286-.514.565-.44.692" transform="translate(-77.705 -6.105)" fill="#263238"/>
            <path id="Trazado_265912" data-name="Trazado 265912" d="M229.9,21.262c.206.24.95-.057,1.86-.115.908-.09,1.69.083,1.854-.187.072-.131-.062-.375-.411-.595a2.7,2.7,0,0,0-2.993.243c-.309.273-.4.535-.31.653" transform="translate(-72.759 -6.338)" fill="#263238"/>
            <path id="Trazado_265913" data-name="Trazado 265913" d="M262.943,34.66c-.028-.593.587-2.026,1.169-2.147,1.551-.322,4.378-.338,4.6,3.633.308,5.429-5.206,4.618-5.224,4.463-.014-.121-.45-3.9-.547-5.95" transform="translate(-83.229 -10.251)" fill="#ffbe9d"/>
            <path id="Trazado_265914" data-name="Trazado 265914" d="M266,39.256c.023-.018.1.061.262.125a.946.946,0,0,0,.707-.026,2.34,2.34,0,0,0,.964-2.16,3.11,3.11,0,0,0-.342-1.34,1.09,1.09,0,0,0-.752-.685.483.483,0,0,0-.544.29c-.064.156-.023.262-.051.273s-.121-.084-.091-.311a.614.614,0,0,1,.194-.353.719.719,0,0,1,.515-.167,1.33,1.33,0,0,1,1.035.785,3.215,3.215,0,0,1,.414,1.495,2.461,2.461,0,0,1-1.246,2.423,1.018,1.018,0,0,1-.874-.1c-.175-.124-.211-.244-.192-.255" transform="translate(-84.195 -11.047)" fill="#eb996e"/>
            <path id="Trazado_265915" data-name="Trazado 265915" d="M254.054,17.291c.378-2.161-.434-5.2-1-7.313A7.946,7.946,0,0,0,249.8,5.71a13.237,13.237,0,0,0-8.187-2.476l-1.085.36c-1.605-.13-3.322.208-4.205,1.5l-.034.038V3.644a10.731,10.731,0,0,0-7.168,4.7,25.2,25.2,0,0,0-3.4,8.1A89.5,89.5,0,0,0,236.195,5.895c3.138,4.122,7.781,6.738,12.019,9.808a15.751,15.751,0,0,1,.937,6.234c-.024,5.328,1.13,10.147,1.547,15.472.239,3.065.216,5.691,3.356,5.423.41-9.824-1.688-15.882,0-25.541" transform="translate(-71.449 -1.02)" fill="#263238"/>
            <path id="Trazado_265916" data-name="Trazado 265916" d="M267.7,22.463a5.038,5.038,0,0,1-1.505.271,14.689,14.689,0,0,1-3.692-.146,16.946,16.946,0,0,1-3.548-1.023,5.419,5.419,0,0,1-1.366-.686c.046-.121,2.171.874,4.972,1.359a31.768,31.768,0,0,0,5.138.225" transform="translate(-81.536 -6.606)" fill="#455a64"/>
            <path id="Trazado_265917" data-name="Trazado 265917" d="M261.818,15.14a4.038,4.038,0,0,1-.868-.054c-.557-.053-1.358-.172-2.342-.355a40,40,0,0,1-7.494-2.21A39.922,39.922,0,0,1,244.2,8.887c-.834-.554-1.491-1.027-1.927-1.377a4.031,4.031,0,0,1-.66-.566,4.049,4.049,0,0,1,.741.453c.46.314,1.137.754,1.982,1.277a46.9,46.9,0,0,0,6.916,3.516,46.916,46.916,0,0,0,7.41,2.294c.971.214,1.763.37,2.312.464a4.057,4.057,0,0,1,.847.191" transform="translate(-76.477 -2.198)" fill="#455a64"/>
            <path id="Trazado_265918" data-name="Trazado 265918" d="M226.695,19.856a5.305,5.305,0,0,1-1.25,1.459,5.293,5.293,0,0,1-1.5,1.2,5.3,5.3,0,0,1,1.25-1.46,5.3,5.3,0,0,1,1.5-1.2" transform="translate(-70.884 -6.283)" fill="#455a64"/>
            <path id="Trazado_265919" data-name="Trazado 265919" d="M214.393,70.1c.6-1.057.146-5.392.146-5.392l-1.4,2.537a63.543,63.543,0,0,0-8.216,3.61c-1.719,1.2-4.039,6.272-4.039,6.272L186.562,95.294l-26.867-4.7-2.528,13.472,9.068,1.878,15.934,2.068c4.475.964,8.832,1.323,12.34-1.619l.241-.462c-1.266,18.111.477,38.079,1.073,56.225a9.758,9.758,0,0,0,.756,4.153c.912,1.791,4.3,2.73,6.3,2.469s1.361-1.538,1.785-3.5c.231-1.073-.772-2.562-.906-3.652q-2.928-23.642-5.855-47.284c-.065-.971-.131-1.872-.2-2.672-.688-8.334-.789-10.584-.421-14.4.57-5.9,13.021-20.011,17.111-27.169" transform="translate(-49.748 -20.482)" fill="#e0dcc9"/>
            <path id="Trazado_265920" data-name="Trazado 265920" d="M216.4,89.821a4.471,4.471,0,0,1-.409.818c-.288.51-.679,1.263-1.133,2.2a37.26,37.26,0,0,0-3.7,15.777c-.012,1.046,0,1.894.036,2.479a4.532,4.532,0,0,1,0,.914,4.479,4.479,0,0,1-.141-.9,24.812,24.812,0,0,1-.149-2.489,33.7,33.7,0,0,1,3.723-15.89,24.765,24.765,0,0,1,1.239-2.163,4.553,4.553,0,0,1,.528-.748" transform="translate(-66.757 -28.431)" fill="#263238"/>
            <g id="Grupo_871511" data-name="Grupo 871511" transform="translate(142.261 64.528)" opacity="0.3">
              <g id="Grupo_871510" data-name="Grupo 871510">
                <g id="Grupo_871509" data-name="Grupo 871509" clip-path="url(#clip-path-14)">
                  <path id="Trazado_265921" data-name="Trazado 265921" d="M213.627,94.413a31.543,31.543,0,0,0-4.953,9.86c-.921,3.578-.34,5.611-.423,9.374l2.156.485c-.48-6.741-.254-11.192,3.22-19.719" transform="translate(-208.146 -94.413)"/>
                </g>
              </g>
            </g>
            <path id="Trazado_265922" data-name="Trazado 265922" d="M215.011,96.049a1.3,1.3,0,0,1,.027-.353c.038-.228.062-.575.165-1a27.739,27.739,0,0,1,1.095-3.575,105.388,105.388,0,0,1,5.1-11.208c.629-1.217,1.252-2.4,1.867-3.513l.048-.087.1,0,2.262-.044-.148.234a2.265,2.265,0,0,0-.879-1l-.159-.1.119-.142a53.212,53.212,0,0,1,4.855-5.094c.631-.578,1.143-1.016,1.5-1.31a3.691,3.691,0,0,1,.566-.426,3.827,3.827,0,0,1-.5.5l-1.435,1.372a62.852,62.852,0,0,0-4.74,5.16l-.04-.239a2.579,2.579,0,0,1,1.016,1.131l.105.228-.252.007-2.262.058.148-.09c-.606,1.115-1.226,2.294-1.854,3.509-2.2,4.267-4.045,8.2-5.181,11.133a33.983,33.983,0,0,0-1.2,3.518c-.211.85-.3,1.33-.327,1.326" transform="translate(-68.056 -21.661)" fill="#263238"/>
            <path id="Trazado_265923" data-name="Trazado 265923" d="M254.219,343.167l8.812,14.185s-11.458,13.721-10.085,16.5l28.117-16.1L268.24,335.09Z" transform="translate(-80.029 -106.066)" fill="#ff725e"/>
            <path id="Trazado_265924" data-name="Trazado 265924" d="M279.021,358.579a1.323,1.323,0,0,1,1.544.856,1.272,1.272,0,0,1-.835,1.538,1.4,1.4,0,0,1-1.631-.914,1.32,1.32,0,0,1,1.046-1.5" transform="translate(-88.022 -113.49)" fill="#e0e0e0"/>
            <g id="Grupo_871514" data-name="Grupo 871514" transform="translate(172.69 249.454)" opacity="0.6">
              <g id="Grupo_871513" data-name="Grupo 871513">
                <g id="Grupo_871512" data-name="Grupo 871512" clip-path="url(#clip-path-15)">
                  <path id="Trazado_265925" data-name="Trazado 265925" d="M281.011,367.216l-1.382-2.234-26.442,16.27s-.94,1.262-.293,2.063Z" transform="translate(-252.667 -364.982)" fill="#fff"/>
                </g>
              </g>
            </g>
            <path id="Trazado_265926" data-name="Trazado 265926" d="M266.964,367.512c.083.135.805-.2,1.733-.141.93.031,1.619.426,1.714.3.111-.1-.563-.8-1.689-.85s-1.86.583-1.759.692" transform="translate(-84.499 -116.109)" fill="#263238"/>
            <path id="Trazado_265927" data-name="Trazado 265927" d="M263.673,371.943c.044.151.773.044,1.572.358.808.29,1.285.85,1.418.766.141-.052-.223-.911-1.225-1.282s-1.837.025-1.765.157" transform="translate(-83.459 -117.631)" fill="#263238"/>
            <path id="Trazado_265928" data-name="Trazado 265928" d="M263.054,377.81c.141-.042-.06-.837-.843-1.387s-1.6-.482-1.589-.334c-.013.157.635.322,1.271.783s1.017,1,1.161.938" transform="translate(-82.495 -119.01)" fill="#263238"/>
            <path id="Trazado_265929" data-name="Trazado 265929" d="M264.544,362.012c.129.092.651-.458,1.457-.85.8-.408,1.551-.493,1.556-.652.022-.145-.858-.315-1.8.159s-1.34,1.273-1.211,1.342" transform="translate(-83.729 -114.064)" fill="#263238"/>
            <path id="Trazado_265930" data-name="Trazado 265930" d="M249.332,355.256l.95,16.672s-16.627,6.565-16.752,9.664l32.393-.681-.415-26.038Z" transform="translate(-73.919 -112.328)" fill="#ff725e"/>
            <path id="Trazado_265931" data-name="Trazado 265931" d="M271.93,377.442a1.323,1.323,0,0,1,.947,1.491,1.272,1.272,0,0,1-1.469.951,1.4,1.4,0,0,1-.994-1.584,1.319,1.319,0,0,1,1.638-.82" transform="translate(-85.581 -119.457)" fill="#e0e0e0"/>
            <g id="Grupo_871517" data-name="Grupo 871517" transform="translate(159.594 265.959)" opacity="0.6">
              <g id="Grupo_871516" data-name="Grupo 871516">
                <g id="Grupo_871515" data-name="Grupo 871515" clip-path="url(#clip-path-16)">
                  <path id="Trazado_265932" data-name="Trazado 265932" d="M265.915,391.754l-.145-2.623-31,1.634s-1.429.658-1.245,1.67Z" transform="translate(-233.506 -389.131)" fill="#fff"/>
                </g>
              </g>
            </g>
            <path id="Trazado_265933" data-name="Trazado 265933" d="M257.266,379.529c.008.158.8.213,1.59.705.8.472,1.217,1.148,1.361,1.083.146-.034-.11-.975-1.076-1.553s-1.913-.379-1.875-.234" transform="translate(-81.432 -120.083)" fill="#263238"/>
            <path id="Trazado_265934" data-name="Trazado 265934" d="M252.338,381.732c-.033.154.658.409,1.209,1.066.571.642.721,1.362.879,1.352.149.022.239-.907-.462-1.711s-1.625-.858-1.626-.707" transform="translate(-79.873 -120.808)" fill="#263238"/>
            <path id="Trazado_265935" data-name="Trazado 265935" d="M249.029,386.518c.144.031.348-.764-.077-1.622s-1.171-1.187-1.235-1.054c-.087.132.4.587.741,1.3.354.7.413,1.367.571,1.379" transform="translate(-78.407 -121.489)" fill="#263238"/>
            <path id="Trazado_265936" data-name="Trazado 265936" d="M257.564,373.73c.069.143.79-.091,1.685-.049.9.023,1.6.309,1.678.172.09-.116-.6-.688-1.657-.722s-1.787.476-1.706.6" transform="translate(-81.525 -118.107)" fill="#263238"/>
            <path id="Trazado_265937" data-name="Trazado 265937" d="M220.98,173.2s-1.488,70.952-.148,75.863,28.762,55.133,28.762,55.133l16.547-8.125L244.2,243.045l4.843-68.177Z" transform="translate(-69.723 -54.823)" fill="#263238"/>
            <path id="Trazado_265938" data-name="Trazado 265938" d="M257.658,167.4s9.513,15.532,7.831,24.852c-.69,3.821-5.9,12.281-5.9,12.281l0,45.491,4.015,60.721h-19.29L236.038,257.2a43.772,43.772,0,0,1-4.018-9.153c-1.117-4.242-4.741-54.371-4.741-54.371l-5.771-20.389Z" transform="translate(-70.114 -52.988)" fill="#263238"/>
            <path id="Trazado_265939" data-name="Trazado 265939" d="M280.336,330.209a7.862,7.862,0,0,0,0,1.278c.026.822.084,2.009.167,3.477.166,2.934.456,6.983.8,11.452s.632,8.517.822,11.447c.094,1.413.171,2.583.23,3.471a7.709,7.709,0,0,0,.13,1.272,7.8,7.8,0,0,0,.025-1.278c-.008-.822-.042-2.011-.1-3.48-.118-2.937-.366-6.991-.7-11.462-.354-4.434-.674-8.447-.912-11.441-.12-1.411-.219-2.579-.295-3.467a7.809,7.809,0,0,0-.158-1.269" transform="translate(-88.729 -104.521)" fill="#455a64"/>
            <path id="Trazado_265940" data-name="Trazado 265940" d="M263.054,179.024a2.821,2.821,0,0,1-.516.586,11.606,11.606,0,0,1-1.655,1.34,13.176,13.176,0,0,1-13.447.789,11.582,11.582,0,0,1-1.8-1.137,2.829,2.829,0,0,1-.581-.522c.042-.057.892.669,2.495,1.43a13.608,13.608,0,0,0,13.194-.774c1.5-.943,2.263-1.764,2.311-1.712" transform="translate(-77.567 -56.666)" fill="#455a64"/>
            <path id="Trazado_265941" data-name="Trazado 265941" d="M230.19,199.913a1.274,1.274,0,0,1,.033.25c.016.184.036.427.062.735.049.669.119,1.619.207,2.832.17,2.481.414,6.034.715,10.415.617,8.793,1.393,20.948,2.566,34.342.161,1.825.343,3.624.552,5.386.114.88.208,1.76.4,2.588a21.953,21.953,0,0,0,.806,2.448c1.192,3.2,2.463,6.23,3.677,9.059l.009.02,0,.021c1.284,8.247,2.37,15.223,3.138,20.16l.935,5.72q.171.968.268,1.512c.073.336.119.511.109.517a4.641,4.641,0,0,1-.162-.505c-.076-.34-.194-.844-.318-1.5-.262-1.318-.606-3.254-1.027-5.708-.84-4.9-1.972-11.881-3.268-20.141l.012.04c-1.227-2.832-2.506-5.853-3.708-9.068a22.338,22.338,0,0,1-.818-2.476c-.2-.878-.3-1.753-.412-2.638q-.318-2.655-.556-5.4c-1.174-13.4-1.909-25.56-2.461-34.359-.252-4.384-.457-7.941-.6-10.424-.059-1.214-.107-2.165-.139-2.835-.011-.31-.02-.554-.027-.738a1.291,1.291,0,0,1,0-.252" transform="translate(-72.86 -63.279)" fill="#455a64"/>
            <path id="Trazado_265942" data-name="Trazado 265942" d="M232.048,67.42s-.205,3.114,2.321,3.114c3.555,0,11.01-6.861,11.01-6.861L231.008,97.927v41.451l-12.153,1.282s-1.424-.2-1.714-2.256c-.569-4.013-.487-11.329-.952-14.341-1.446-9.36-4.291-14.462-3.889-21.879.6-11.024,16.109-30.042,16.109-30.042Z" transform="translate(-67.187 -20.154)" fill="#fff"/>
            <path id="Trazado_265943" data-name="Trazado 265943" d="M249.832,57.4a93.253,93.253,0,0,1-6,9.718c-3.1,4.313-22.757,34.424-22.757,34.424l7.855,61.088.871,5.175a2.591,2.591,0,0,0,3.091,2.1L267.61,163.8a3.149,3.149,0,0,0,2.465-4.023l-15.5-43.56,10.012-38.666s-.368-5.628-6.466-11.341c-1.159-1.087-5.954-5.062-6.741-6.137Z" transform="translate(-69.976 -18.168)" fill="#e0dcc9"/>
            <g id="Grupo_871520" data-name="Grupo 871520" transform="translate(152.984 98.05)" opacity="0.3">
              <g id="Grupo_871519" data-name="Grupo 871519">
                <g id="Grupo_871518" data-name="Grupo 871518" clip-path="url(#clip-path-17)">
                  <path id="Trazado_265944" data-name="Trazado 265944" d="M224.416,147.981s15.982,12.673,23.764,12.793S260,154.3,260,154.3l-15.648.429-20.52-11.271Z" transform="translate(-223.834 -143.459)"/>
                </g>
              </g>
            </g>
            <path id="Trazado_265945" data-name="Trazado 265945" d="M207.321,113.983s14.423,9.526,17.082,11.333,15.246,9.111,16.888,9.638,11.819.6,13.7-2.863,3.128-10.84,3.128-10.84L260.568,86.7a13.9,13.9,0,0,0-2.483-9.034c-1.491-2.107-3.46-4.006-5.591-3.688-4.544.677-14.319,11.668-13.85,17.312s.484,21.369.484,21.369l-25.747-8.524Z" transform="translate(-65.623 -23.406)" fill="#e0dcc9"/>
            <path id="Trazado_265946" data-name="Trazado 265946" d="M257.978,79.363a8.041,8.041,0,0,1,.468.663,12.358,12.358,0,0,1,1.094,2.1,13.649,13.649,0,0,1,.945,3.69,28.236,28.236,0,0,1-.118,5.147c-.534,7.7-1.294,18.657-2.2,31.764v.015q-.393,2.208-.947,4.472a39.076,39.076,0,0,1-1.377,4.55,9.493,9.493,0,0,1-1.091,2.212,5.508,5.508,0,0,1-1.972,1.568,15.442,15.442,0,0,1-4.874,1.443,20.789,20.789,0,0,1-5.216.139,7.222,7.222,0,0,1-2.592-.7c-.8-.4-1.573-.837-2.358-1.269-3.128-1.746-6.285-3.582-9.472-5.478-3.816-2.215-7.363-4.719-10.89-7.024l-10.253-6.809-.137-.091.085-.139,6.068-10,.067-.11.121.042,25.733,8.728-.152.1c.526-6.421.944-11.53,1.232-15.047.15-1.742.266-3.089.345-4.014.042-.447.074-.79.1-1.035s.044-.35.044-.35,0,.12-.012.353-.037.589-.065,1.037l-.285,4.019c-.263,3.518-.646,8.629-1.126,15.052l-.011.149-.141-.048-25.761-8.643.188-.069-6.051,10.013-.051-.23,10.262,6.8c3.537,2.309,7.068,4.8,10.876,7.01,3.184,1.894,6.341,3.731,9.461,5.475.782.43,1.559.867,2.344,1.262a6.849,6.849,0,0,0,2.475.668,20.448,20.448,0,0,0,5.125-.133,15.1,15.1,0,0,0,4.767-1.4,5.167,5.167,0,0,0,1.86-1.467,9.231,9.231,0,0,0,1.051-2.132,38.833,38.833,0,0,0,1.374-4.509c.374-1.5.69-2.987.952-4.446v.015c.962-13.1,1.767-24.061,2.331-31.755a28.508,28.508,0,0,0,.16-5.119,13.8,13.8,0,0,0-.894-3.669,13.254,13.254,0,0,0-1.045-2.106c-.133-.232-.251-.4-.322-.513a1.26,1.26,0,0,1-.1-.176" transform="translate(-65.517 -25.121)" fill="#263238"/>
            <path id="Trazado_265947" data-name="Trazado 265947" d="M227.481,96.007a2.474,2.474,0,0,1,.311-.366l.932-1.008,3.432-3.712,5.13-5.484c1.965-2.037,4.065-4.329,6.544-6.506l-.02.257-.208-.232-1.732-1.919-.286-.317.427.022,3.214.168-.159.087,6.466-11.255,1.916-3.269.527-.869a1.56,1.56,0,0,1,.2-.29,1.47,1.47,0,0,1-.147.321l-.476.9-1.827,3.319-6.358,11.318-.052.092-.107,0-3.215-.16.141-.3,1.733,1.918.209.232.121.134-.14.123c-2.438,2.14-4.561,4.437-6.533,6.456l-5.184,5.43c-1.475,1.545-2.674,2.789-3.514,3.635-.422.422-.75.75-.981.963a2.432,2.432,0,0,1-.362.316" transform="translate(-72.005 -19.407)" fill="#263238"/>
            <g id="Grupo_871523" data-name="Grupo 871523" transform="translate(154.321 55.739)" opacity="0.3">
              <g id="Grupo_871522" data-name="Grupo 871522">
                <g id="Grupo_871521" data-name="Grupo 871521" clip-path="url(#clip-path-18)">
                  <path id="Trazado_265948" data-name="Trazado 265948" d="M225.792,104.324,245.344,85.89l-1.664-1.821h1.664l.437-2.516-1.1,1.936-3.215-.163,1.9,1.741-16.243,17.173Z" transform="translate(-225.791 -81.553)"/>
                </g>
              </g>
            </g>
            <path id="Trazado_265949" data-name="Trazado 265949" d="M243.855,183.4a2,2,0,0,1,.326-.084l.994-.216,3.775-.791,13.175-2.68.116-.023.063.1,3.631,5.911.135.219-.253.049-.429.082-19.216,3.607-.1.018-.033-.092c-.69-1.9-1.243-3.427-1.639-4.516l-.42-1.188a2.93,2.93,0,0,1-.126-.4,4.483,4.483,0,0,1,.185.426l.483,1.195,1.736,4.4-.131-.074,19.193-3.727.429-.081-.118.267-3.619-5.918.178.078-13.083,2.491-3.836.707-1.04.184a3.127,3.127,0,0,1-.377.055" transform="translate(-77.187 -56.85)" fill="#263238"/>
            <g id="Grupo_871526" data-name="Grupo 871526" transform="translate(166.885 127.123)" opacity="0.3">
              <g id="Grupo_871525" data-name="Grupo 871525">
                <g id="Grupo_871524" data-name="Grupo 871524" clip-path="url(#clip-path-19)">
                  <path id="Trazado_265950" data-name="Trazado 265950" d="M244.174,186l1.385,7.176,19.9-3.588-.558-1.665-18.655,3.562Z" transform="translate(-244.174 -185.996)"/>
                </g>
              </g>
            </g>
            <path id="Trazado_265951" data-name="Trazado 265951" d="M258.731,136.593c-.1.051-.927-1.59-2.414-3.266s-3-2.717-2.934-2.808a12.005,12.005,0,0,1,5.348,6.073" transform="translate(-80.203 -41.312)" fill="#263238"/>
            <path id="Trazado_265952" data-name="Trazado 265952" d="M148.16,104.5a54.777,54.777,0,0,1-6.98-4.9s-2.909-.914-4.238.914c0,0-3.075.852-3.49,1.423s-2.992,4.56-2.992,4.56,1.381,4.749,1.5,4.986c.25.519.807,1.07,1.279.5a1.041,1.041,0,0,0,.222-.681l0-.315.748-.525s.333,1.846,1.33,1.56a17.145,17.145,0,0,0,3.241-1.949s3.158,1.8,4.82,1.979a52.858,52.858,0,0,1,5.454,1.228l1.7-9.043Z" transform="translate(-41.295 -31.452)" fill="#ffbe9d"/>
            <path id="Trazado_265953" data-name="Trazado 265953" d="M134.079,112.775c.014.012-.12.128-.4.072a1.012,1.012,0,0,1-.713-.82,14.854,14.854,0,0,1,.017-3.469,32.815,32.815,0,0,1,.545-3.4,5.589,5.589,0,0,1,.374-1.378c.118.019-.273,2.165-.565,4.816a21.124,21.124,0,0,0-.124,3.383.884.884,0,0,0,.506.737c.208.085.346.031.354.06" transform="translate(-42.06 -32.849)" fill="#eb996e"/>
            <path id="Trazado_265954" data-name="Trazado 265954" d="M141.757,105.54a4,4,0,0,1-2.359,1.093l.143-.133c-.013.056-.027.116-.042.177a10.827,10.827,0,0,1-.821,2.639,10.9,10.9,0,0,1,.475-2.723c.015-.06.029-.12.043-.176l.028-.116.116-.018a18.32,18.32,0,0,0,2.417-.742" transform="translate(-43.889 -33.404)" fill="#eb996e"/>
            <path id="Trazado_265955" data-name="Trazado 265955" d="M144.861,106.1a2.442,2.442,0,0,0-2.738-.56l-.524.665-3.935,3.285a6.027,6.027,0,0,0-1.763,1.984,2.059,2.059,0,0,0,.411,2.446,2.347,2.347,0,0,0,2.789-.369c.786-.638,1.355-1.519,2.171-2.118,1.27-.933,3.117-1.187,3.9-2.555a2.443,2.443,0,0,0-.31-2.778" transform="translate(-42.948 -33.343)" fill="#ffbe9d"/>
            <path id="Trazado_265956" data-name="Trazado 265956" d="M141.816,104.643a2.185,2.185,0,0,1-.349,1.429,5.177,5.177,0,0,1-.99,1.272,12.1,12.1,0,0,1-1.541,1.2,9.734,9.734,0,0,0-2.6,2.233,8.592,8.592,0,0,0-.668,1.258,2.286,2.286,0,0,1,.459-1.4,5.664,5.664,0,0,1,1.053-1.218,15.592,15.592,0,0,1,1.558-1.168,14.632,14.632,0,0,0,1.519-1.145,5.6,5.6,0,0,0,1-1.158,7.24,7.24,0,0,0,.567-1.3" transform="translate(-42.938 -33.123)" fill="#eb996e"/>
            <path id="Trazado_265957" data-name="Trazado 265957" d="M173.645,123.27s.138-4.9,1.381-6.349,8.488-3.313,8.488-3.313l18.209,4.225-4.231,6.848-1.279-1.2s-5.728,1.725-8.558,1.1a31.983,31.983,0,0,1-4.969-1.519l-2.968.207s-2.139,2.208-2.83,2.208-1.45-.621-1.1-1.311l-.621-1.035s-1.242.759-1.518.138" transform="translate(-54.964 -35.96)" fill="#ffbe9d"/>
            <path id="Trazado_265958" data-name="Trazado 265958" d="M184.182,122.748a3.087,3.087,0,0,1-1.3.44,22.6,22.6,0,0,0-3.18.625,4.406,4.406,0,0,0-2.28,2.091,7.652,7.652,0,0,1-.688,1.171,3.981,3.981,0,0,1,.467-1.29,5.506,5.506,0,0,1,.828-1.261,3.851,3.851,0,0,1,1.549-1.044,15.082,15.082,0,0,1,3.264-.54c.827-.092,1.32-.243,1.34-.192" transform="translate(-55.939 -38.85)" fill="#eb996e"/>
            <path id="Trazado_265959" data-name="Trazado 265959" d="M182.4,117.427c.005.053-.578.15-1.477.465a16.544,16.544,0,0,0-1.549.625,7.769,7.769,0,0,0-1.723,1.023,3.957,3.957,0,0,0-.584.828c-.176.292-.333.581-.47.861a8.422,8.422,0,0,0-.591,1.545c-.241.914-.2,1.515-.264,1.516a3.147,3.147,0,0,1,.018-1.572,7.273,7.273,0,0,1,.539-1.629,9.9,9.9,0,0,1,.465-.9,4.02,4.02,0,0,1,.645-.914,7.232,7.232,0,0,1,1.83-1.059,12.131,12.131,0,0,1,1.608-.566,3.887,3.887,0,0,1,1.551-.225" transform="translate(-55.603 -37.163)" fill="#eb996e"/>
          </g>
        </g>
      </g>
    </g>
  </g>
</svg>
