<svg xmlns="http://www.w3.org/2000/svg" width="268.632" height="321.541" viewBox="0 0 268.632 321.541">
  <g id="Grupo_872336" data-name="Grupo 872336" transform="translate(7189.26 7468.418)">
    <path id="Trazado_264964" data-name="Trazado 264964" d="M98.808,126.6s18.079,25.794,21.206,38.785,8.215,72.977,8.215,72.977-25.87-12.676-35.889-7.825-41.251,10.739-55.865,7.825S0,239.137,0,239.137s3.662-41.283,5.613-55.183,12.628-52.978,12.628-52.978Z" transform="translate(-7048.857 -7386.014)" fill="#263238"/>
    <path id="Trazado_264970" data-name="Trazado 264970" d="M49.363,229.446c-.061.086.277.551,1.233.9a7.362,7.362,0,0,0,4.353.043,14.852,14.852,0,0,0,6.034-3.241,11.08,11.08,0,0,0,1.5-1.611,8.146,8.146,0,0,0,1.075-2.176,21.219,21.219,0,0,1,1.768-3.809,6.264,6.264,0,0,1,2.873-2.628,8.9,8.9,0,0,1,4.431-.3l2.755.4a17.816,17.816,0,0,0,3.229.216,11.918,11.918,0,0,0,3.526-.616,7.272,7.272,0,0,0,3.4-2.384,6.661,6.661,0,0,0,1.372-4.213,10.934,10.934,0,0,0-.91-3.86c-.911-2.207-2.019-4.1-2.384-5.839a5.853,5.853,0,0,1,1.222-4.854,28.769,28.769,0,0,1,4.634-4.694,22.1,22.1,0,0,0,5.108-5.952,11.179,11.179,0,0,0,1.374-4.068,7.89,7.89,0,0,0-.776-4.517,8.585,8.585,0,0,0-2.906-3.269,16.107,16.107,0,0,0-3.348-1.727,47.581,47.581,0,0,1-5.664-2.323,5.5,5.5,0,0,1-2.863-3.432,18.552,18.552,0,0,1-.385-5.174,24.068,24.068,0,0,0-.4-5.763,10.593,10.593,0,0,0-1.124-2.808,8.719,8.719,0,0,0-1.927-2.209,9.321,9.321,0,0,0-4.847-2.05,8.066,8.066,0,0,0-2.448.092c-.731.144-1.2.248-1.861.338-2.468.31-1.888-.077-3.472,1.045a9.141,9.141,0,0,0-2.94,3.153c-.454.86-.578,1.359-.459,1.431s.508-.264,1.147-.9a11.4,11.4,0,0,1,3.082-2.227c1.466-.728.378-.01,2.9-.108.593-.021,1.4-.119,1.994-.187a5.607,5.607,0,0,1,1.677.073,6.639,6.639,0,0,1,3.239,1.639,5.938,5.938,0,0,1,1.8,3.421,22.112,22.112,0,0,1,.084,4.946,21.06,21.06,0,0,0,.3,6.268,9.4,9.4,0,0,0,4.5,5.864,45.764,45.764,0,0,0,6.118,2.709c1.907.787,3.436,1.742,4.036,3.056.672,1.3.408,2.934-.558,4.657a18.284,18.284,0,0,1-4.188,4.779,31.629,31.629,0,0,0-5.316,5.486,11.533,11.533,0,0,0-1.806,3.838,9.386,9.386,0,0,0-.025,4.377c.66,2.716,1.95,4.682,2.7,6.5a7.225,7.225,0,0,1,.665,2.4,2.677,2.677,0,0,1-.5,1.717c-.632.953-2.26,1.517-3.944,1.61a39.467,39.467,0,0,1-5.464-.385,11.976,11.976,0,0,0-6.13.824A9.307,9.307,0,0,0,62.7,218.03a22.655,22.655,0,0,0-1.735,4.474,5.568,5.568,0,0,1-.606,1.59,9.222,9.222,0,0,1-1.04,1.331,14.65,14.65,0,0,1-4.882,3.378c-3.1,1.332-4.925.317-5.07.644" transform="translate(-7098.131 -7382.452)" fill="#455a64"/>
    <path id="Trazado_264971" data-name="Trazado 264971" d="M72.09,164.279c-1.116-.408-2.67,1.045-3.472,3.244s-.548,4.312.566,4.718,2.67-1.045,3.472-3.244.548-4.312-.566-4.718" transform="translate(-7106.263 -7372.532)" fill="#455a64"/>
    <path id="Trazado_264972" data-name="Trazado 264972" d="M70.24,170.063c-.667-.982-2.524-.883-4.145.22s-2.4,2.793-1.73,3.776,2.524.883,4.147-.221,2.4-2.793,1.729-3.774" transform="translate(-7096.972 -7369.163)" fill="#455a64"/>
    <path id="Trazado_264973" data-name="Trazado 264973" d="M71.47,183.373c1.052-.551.962-2.795-.2-5.01s-2.955-3.564-4.007-3.013-.962,2.793.2,5.009,2.957,3.566,4.005,3.015" transform="translate(-7102.669 -7365.362)" fill="#455a64"/>
    <path id="Trazado_264974" data-name="Trazado 264974" d="M72.3,187.884c1.185.059,2.242-1.768,2.361-4.083s-.75-4.24-1.935-4.3-2.242,1.766-2.359,4.081.748,4.241,1.933,4.3" transform="translate(-7111.441 -7362.579)" fill="#455a64"/>
    <path id="Trazado_264981" data-name="Trazado 264981" d="M32.942,148.834c.249.158,1.892-2.22,6.419-4.642a13.707,13.707,0,0,1,3.766-1.519,19.732,19.732,0,0,1,4.84-.454,25.777,25.777,0,0,1,5.575.738,6.918,6.918,0,0,1,4.116,3.417,7.588,7.588,0,0,1,.989,5.73,10.529,10.529,0,0,1-1.671,2.873c-.385.525-.8,1.085-1.208,1.71a10.384,10.384,0,0,0-1.1,2.182,8.023,8.023,0,0,0-.475,2.628,5.46,5.46,0,0,0,.839,2.986,5.53,5.53,0,0,0,2.422,2.021,15.73,15.73,0,0,0,2.346.773,7.373,7.373,0,0,1,1.672.6,4.491,4.491,0,0,1,1.225.974,6.345,6.345,0,0,1,1.466,3.109,7.616,7.616,0,0,1-.2,3.642,9.305,9.305,0,0,1-2.011,3.292,16.69,16.69,0,0,1-7.533,4.314,19.485,19.485,0,0,0-5.232,2.2,7.7,7.7,0,0,0-2.4,2.582,7.578,7.578,0,0,0-.92,3.424,24.362,24.362,0,0,0,.809,5.664,7.464,7.464,0,0,1,.03,4.056c-.787,2.253-3.767,3.881-6.285,3.655a9.046,9.046,0,0,1-6.536-4.514,12.959,12.959,0,0,1-1.61-3.992c-.371-1.491-.631-3.1-1.055-4.781a14.271,14.271,0,0,0-2.189-5.083,9.05,9.05,0,0,0-4.791-3.355c-3.578-1.024-6.787-.441-9.2-.87a8.608,8.608,0,0,1-3.277-1.166,3.079,3.079,0,0,1-1.451-2.151c-.376-1.633,1.251-3.708,2.807-5.666a26.755,26.755,0,0,0,2.293-3.244,9.59,9.59,0,0,0,1.321-4.028c.112-2.816-.773-4.948-.622-6.605a2.664,2.664,0,0,1,2.658-2.633,45.588,45.588,0,0,1,4.986.17,8.294,8.294,0,0,0,4.68-1,8.241,8.241,0,0,0,2.613-2.711,19.168,19.168,0,0,0,1.212-2.3c.56-1.266.8-1.946.677-2.026s-.629.472-1.426,1.591c-.4.553-.883,1.248-1.5,1.986a7.378,7.378,0,0,1-2.387,2,6.768,6.768,0,0,1-3.748.418,38.992,38.992,0,0,0-5.3-.522,5.479,5.479,0,0,0-3.391,1.248,5.3,5.3,0,0,0-1.8,3.512c-.251,2.556.543,4.763.315,6.62-.187,1.75-1.509,3.523-3.157,5.431A28.056,28.056,0,0,0,8.038,174.4a10.429,10.429,0,0,0-1.03,2.216,6.941,6.941,0,0,0-.223,2.736,6.724,6.724,0,0,0,2.882,4.694,12.1,12.1,0,0,0,4.727,1.872,33.86,33.86,0,0,0,4.685.366,15.358,15.358,0,0,1,3.985.561,5.021,5.021,0,0,1,2.7,1.945,10.454,10.454,0,0,1,1.471,3.693c.352,1.453.593,3.067,1,4.776a17.121,17.121,0,0,0,2.067,5.222,13.176,13.176,0,0,0,9.785,6.571,11.017,11.017,0,0,0,6.254-1.425,9.73,9.73,0,0,0,4.4-5,11.481,11.481,0,0,0,.15-6.4,22.212,22.212,0,0,1-.746-4.649,3.107,3.107,0,0,1,1.449-2.674,16.314,16.314,0,0,1,4.1-1.682,20.6,20.6,0,0,0,9.29-5.559,13.2,13.2,0,0,0,2.84-4.872,11.556,11.556,0,0,0,.225-5.606,10.2,10.2,0,0,0-2.511-4.971,8.231,8.231,0,0,0-2.3-1.733,10.914,10.914,0,0,0-2.475-.863,13.234,13.234,0,0,1-1.8-.525,1.865,1.865,0,0,1-.86-.629,2.9,2.9,0,0,1-.063-2.447c.535-1.938,2.863-3.87,3.784-6.982a10.583,10.583,0,0,0-1.582-8.26,9.69,9.69,0,0,0-6.11-4.494,26.953,26.953,0,0,0-6.2-.47,20.683,20.683,0,0,0-5.362.882,14.645,14.645,0,0,0-4.094,2.067,19.779,19.779,0,0,0-4.578,4.124c-.862,1.141-1.078,1.884-.964,1.945" transform="translate(-7000.031 -7377.422)" fill="#455a64"/>
    <path id="Trazado_264982" data-name="Trazado 264982" d="M19.288,159.99c-.132,1.18,1.22,2.3,3.018,2.5s3.365-.593,3.5-1.773-1.22-2.3-3.02-2.5-3.363.593-3.495,1.771" transform="translate(-6978.266 -7365.453)" fill="#455a64"/>
    <path id="Trazado_264983" data-name="Trazado 264983" d="M25.277,163.383c-1.152.287-1.644,2.291-1.1,4.477s1.92,3.726,3.072,3.439,1.644-2.291,1.1-4.479-1.922-3.724-3.072-3.437" transform="translate(-6988.748 -7362.093)" fill="#455a64"/>
    <path id="Trazado_264984" data-name="Trazado 264984" d="M30.348,161.757c.272,1.156,1.908,1.758,3.655,1.347s2.94-1.684,2.668-2.84-1.908-1.757-3.655-1.346-2.94,1.682-2.668,2.838" transform="translate(-7007.376 -7365.061)" fill="#455a64"/>
    <path id="Trazado_264985" data-name="Trazado 264985" d="M30.083,152.67a1.541,1.541,0,0,0-1.522.981,3.661,3.661,0,0,0,2.083,4.756,1.54,1.54,0,0,0,1.753-.452,2.753,2.753,0,0,0,.454-1.638,3.613,3.613,0,0,0-1.256-2.871,2.76,2.76,0,0,0-1.512-.776" transform="translate(-7000.181 -7369.048)" fill="#455a64"/>
    <path id="Trazado_264986" data-name="Trazado 264986" d="M26.184,151.042c-.971-.684-2.754.178-3.98,1.922s-1.435,3.713-.464,4.4,2.752-.177,3.98-1.922,1.435-3.713.464-4.4" transform="translate(-6982.303 -7370.256)" fill="#455a64"/>
    <path id="Trazado_264987" data-name="Trazado 264987" d="M15.786,65.929a30.714,30.714,0,0,1,13.027-5.874c8.324-1.753,42.224-.667,42.224-.667l28.6,3.693s15.375,5.489,19.751,24.45-1.517,76.645-1.517,76.645a29.747,29.747,0,0,0-1.856,8.02,1.735,1.735,0,0,1-.043.239,14.393,14.393,0,0,1-.229,3.858h-3.072c-4.66,3.589-12.542,7.249-12.542,7.249s-.83-3.01-2.514-7.249H33.44s-6.538,3.579-9.6-6.061-12.19-13.359-14.249-30.35,6.2-73.954,6.2-73.954" transform="translate(-7056.918 -7429.978)" fill="#001d36"/>
    <path id="Trazado_264988" data-name="Trazado 264988" d="M43.7,140.178a7.21,7.21,0,0,0-.319-1.308c-.112-.418-.264-.926-.479-1.5s-.424-1.248-.74-1.956a40.306,40.306,0,0,0-2.4-4.887,45.423,45.423,0,0,0-3.787-5.491,45.23,45.23,0,0,0-4.613-4.821,40.272,40.272,0,0,0-4.3-3.34c-.631-.452-1.243-.8-1.766-1.119s-.987-.578-1.375-.773a7.177,7.177,0,0,0-1.215-.576,7.535,7.535,0,0,0,1.124.736c.371.218.82.492,1.326.837s1.1.7,1.715,1.17a45.037,45.037,0,0,1,4.2,3.389,48.84,48.84,0,0,1,4.538,4.794,48.821,48.821,0,0,1,3.777,5.413,45.29,45.29,0,0,1,2.47,4.8c.333.693.566,1.35.8,1.917s.413,1.06.551,1.468a7.411,7.411,0,0,0,.5,1.25" transform="translate(-7001.822 -7393.952)" fill="#263238"/>
    <path id="Trazado_264989" data-name="Trazado 264989" d="M98.5,63.219A55.768,55.768,0,0,0,91.39,78.293c-2.7,8.956-21.17,63.124-21.17,63.124l24.836,19.19,8.02-6.561Z" transform="translate(-7139.631 -7427.268)" fill="#001d36"/>
    <path id="Trazado_264990" data-name="Trazado 264990" d="M37.715,112.656a2.5,2.5,0,0,0-1.345-.778,4.792,4.792,0,0,0-6.074,3.267A2.528,2.528,0,0,0,30.2,116.7c.081,0,.083-.591.411-1.445a4.813,4.813,0,0,1,5.669-3.051c.893.2,1.39.523,1.431.454" transform="translate(-7008.09 -7395.738)" fill="#263238"/>
    <path id="Trazado_264991" data-name="Trazado 264991" d="M35.207,106.014a3.565,3.565,0,0,0-1.558.617,8.345,8.345,0,0,0-3.967,6.787,3.562,3.562,0,0,0,.228,1.661c.081-.012,0-.642.107-1.639a9.248,9.248,0,0,1,3.815-6.528c.817-.578,1.4-.822,1.375-.9" transform="translate(-7004.835 -7399.418)" fill="#263238"/>
    <path id="Trazado_264992" data-name="Trazado 264992" d="M33.494,71.25a2.915,2.915,0,0,0-.292.522c-.2.4-.449.908-.763,1.54a18.358,18.358,0,0,0-1.02,2.523c-.178.5-.365,1.038-.568,1.6q-.228.877-.487,1.842A59.477,59.477,0,0,0,28.8,88.525c-.34,3.516-.462,7.4-.474,11.466.041,8.141.469,15.49.558,20.813.04,1.331.05,2.534.046,3.592s.013,1.968-.013,2.711c-.008.7-.017,1.273-.023,1.714a2.7,2.7,0,0,0,.025.6,2.881,2.881,0,0,0,.071-.594c.03-.442.066-1.01.112-1.714.054-.745.074-1.656.094-2.716s.041-2.265.025-3.6c0-5.334-.378-12.689-.419-20.811.012-4.058.119-7.924.434-11.423a62.537,62.537,0,0,1,1.459-9.2q.238-.966.452-1.839.28-.849.528-1.6a20.048,20.048,0,0,1,.936-2.536l.68-1.572a2.779,2.779,0,0,0,.206-.565" transform="translate(-7000.88 -7422.041)" fill="#263238"/>
    <path id="Trazado_264993" data-name="Trazado 264993" d="M17.015,113.591a5.942,5.942,0,0,0,1.017.611c.67.357,1.623.91,2.77,1.629a46.1,46.1,0,0,1,3.893,2.739,49.211,49.211,0,0,1,4.339,3.88,49.124,49.124,0,0,1,3.8,4.411A46.7,46.7,0,0,1,35.5,130.8c.7,1.162,1.235,2.123,1.578,2.8a5.819,5.819,0,0,0,.591,1.027,5.544,5.544,0,0,0-.424-1.108,30.044,30.044,0,0,0-1.456-2.887,39.862,39.862,0,0,0-2.6-4.035,45.383,45.383,0,0,0-3.812-4.482,45.255,45.255,0,0,0-4.411-3.893,39.761,39.761,0,0,0-3.985-2.678,30.639,30.639,0,0,0-2.861-1.509,5.625,5.625,0,0,0-1.1-.446" transform="translate(-6986.391 -7394.482)" fill="#263238"/>
    <path id="Trazado_264994" data-name="Trazado 264994" d="M82.013,155.2a.762.762,0,0,0-.089-.2c-.081-.152-.182-.337-.3-.565-.274-.492-.672-1.222-1.21-2.146-1.058-1.861-2.673-4.509-4.689-7.754a22.2,22.2,0,0,1-2.607-5.615,58.733,58.733,0,0,1-1.639-6.959,70.967,70.967,0,0,1-.918-7.85c-.137-2.734-.158-5.59-.122-8.5a148.646,148.646,0,0,1,3.469-29.6c.825-3.729,1.639-6.714,2.2-8.778q.426-1.5.675-2.367c.066-.249.121-.452.165-.619a.754.754,0,0,0,.041-.216.739.739,0,0,0-.087.2c-.056.163-.125.362-.21.606l-.763,2.344c-.617,2.049-1.482,5.025-2.353,8.755A141.63,141.63,0,0,0,69.963,115.6c-.036,2.925-.013,5.77.132,8.534a70.007,70.007,0,0,0,.951,7.9,57.835,57.835,0,0,0,1.694,7,22.288,22.288,0,0,0,2.7,5.672c2.055,3.231,3.708,5.843,4.816,7.673l1.284,2.1.345.541a.814.814,0,0,0,.13.177" transform="translate(-7118.118 -7420.231)" fill="#263238"/>
    <path id="Trazado_264995" data-name="Trazado 264995" d="M117.021,115.061c-3.246-10.9-13.765-14.843-20.323-19.2-4.6,3.873,3.984,8.943,6.229,10.794.8,8.454-12.77,1.147-14.265,1.316-.322.233-3.658-3.805-7.254-8.231-1.9-1.662-5.3.269-4.043,2.788-2.808-.175-2.813,2.48-1.18,5.625-.561,1.717-.928,6.146,1.238,8.126.081.325.505,7.479,2.637,9.57,12.913,7.929,32.6,12.94,32.6,12.94l81.538.565-11.289-26.741-65.863,2.452" transform="translate(-7238.773 -7406.018)" fill="#ffbe9d"/>
    <path id="Trazado_264996" data-name="Trazado 264996" d="M152.913,114.917c-.005.05-.353.045-.984-.007a14.178,14.178,0,0,1-2.63-.489A20.7,20.7,0,0,1,136.158,103.3a14.351,14.351,0,0,1-.918-2.513c-.155-.612-.216-.956-.168-.969.124-.036.512,1.3,1.54,3.257a22.6,22.6,0,0,0,12.834,10.86c2.1.69,3.483.852,3.467.981" transform="translate(-7296.505 -7403.445)" fill="#eb996e"/>
    <path id="Trazado_264997" data-name="Trazado 264997" d="M152.535,117.921a8.95,8.95,0,0,1-3.287-.637,19.043,19.043,0,0,1-11.454-10.891,8.917,8.917,0,0,1-.8-3.251c.124-.03.421,1.21,1.268,3.051a20.958,20.958,0,0,0,11.163,10.615c1.88.753,3.133.987,3.11,1.113" transform="translate(-7299.299 -7401.282)" fill="#eb996e"/>
    <path id="Trazado_264998" data-name="Trazado 264998" d="M151.767,119.509a10.483,10.483,0,0,1-2.823-.622,24.3,24.3,0,0,1-6.415-2.8,14.822,14.822,0,0,1-4.778-5.139,6.06,6.06,0,0,1-1.045-2.711c.1-.035.489.992,1.476,2.443a16.631,16.631,0,0,0,4.74,4.807,31.294,31.294,0,0,0,6.183,2.922,12.909,12.909,0,0,1,2.663,1.1" transform="translate(-7298.056 -7397.968)" fill="#eb996e"/>
    <path id="Trazado_264999" data-name="Trazado 264999" d="M133.8,123.341a6.633,6.633,0,0,1-2.268-2.41,12.114,12.114,0,0,1-1.8-7.763A13.959,13.959,0,0,1,131,108.92a11.425,11.425,0,0,0,1.012-3.3,5.51,5.51,0,0,0-.578-3.069c.028-.028.3.17.589.685a4.618,4.618,0,0,1,.5,2.419,10.769,10.769,0,0,1-.9,3.513,14.557,14.557,0,0,0-1.162,4.079,12.627,12.627,0,0,0,1.517,7.422c.976,1.735,1.923,2.582,1.834,2.671" transform="translate(-7268.497 -7401.668)" fill="#eb996e"/>
    <path id="Trazado_265000" data-name="Trazado 265000" d="M83.6,113.324h97.086a7.242,7.242,0,0,0,7.243-7.241v-3.535a7.242,7.242,0,0,0-7.243-7.243H83.6a7.242,7.242,0,0,0-7.241,7.243v3.535a7.242,7.242,0,0,0,7.241,7.241" transform="translate(-7234.615 -7406.382)" fill="#263238"/>
    <path id="Trazado_265001" data-name="Trazado 265001" d="M84.3,102.41h97.086a7.242,7.242,0,0,0,7.243-7.241V91.633a7.242,7.242,0,0,0-7.243-7.241H84.3a7.242,7.242,0,0,0-7.241,7.241v3.536A7.242,7.242,0,0,0,84.3,102.41" transform="translate(-7236.463 -7413.486)" fill="#263238"/>
    <path id="Trazado_265002" data-name="Trazado 265002" d="M172.808,95.4c0-.13-18.568-.238-41.467-.238s-41.472.107-41.472.238,18.564.238,41.472.238,41.467-.107,41.467-.238" transform="translate(-7241.799 -7406.476)" fill="#263238"/>
    <path id="Trazado_265003" data-name="Trazado 265003" d="M98.768,113.122a10.172,10.172,0,0,0,.745-2.475,30.529,30.529,0,0,0,.114-12.418,10.217,10.217,0,0,0-.7-2.488,21.6,21.6,0,0,0,.368,2.546,38.6,38.6,0,0,1-.114,12.3,21.577,21.577,0,0,0-.414,2.539" transform="translate(-7183.871 -7406.1)" fill="#fff"/>
    <path id="Trazado_265004" data-name="Trazado 265004" d="M108.991,113.577a11.407,11.407,0,0,0,.65-2.584,38.429,38.429,0,0,0,.116-12.818,11.363,11.363,0,0,0-.606-2.6,21.144,21.144,0,0,0,.272,2.641,51.143,51.143,0,0,1-.114,12.72,21.158,21.158,0,0,0-.319,2.635" transform="translate(-7210.774 -7406.204)" fill="#fff"/>
    <path id="Trazado_265005" data-name="Trazado 265005" d="M119.5,113.632a12,12,0,0,0,.555-2.617,47.636,47.636,0,0,0,.125-12.882,12.074,12.074,0,0,0-.505-2.627,19.574,19.574,0,0,0,.17,2.661c.132,1.638.258,3.9.236,6.406s-.2,4.766-.36,6.4a19.222,19.222,0,0,0-.221,2.658" transform="translate(-7238.429 -7406.251)" fill="#fff"/>
    <path id="Trazado_265006" data-name="Trazado 265006" d="M131.075,112.882a12.7,12.7,0,0,0,.4-2.5c.177-1.553.37-3.7.512-6.085s.206-4.542.216-6.105a12.846,12.846,0,0,0-.1-2.533,14.2,14.2,0,0,0-.241,2.521c-.1,1.717-.22,3.792-.353,6.089s-.267,4.368-.373,6.085a14.141,14.141,0,0,0-.061,2.531" transform="translate(-7269.165 -7406.155)" fill="#fff"/>
    <path id="Trazado_265007" data-name="Trazado 265007" d="M136.818,102.336a83.358,83.358,0,0,0,.4-8.859,82.957,82.957,0,0,0-.078-8.87,83.344,83.344,0,0,0-.4,8.86,83.422,83.422,0,0,0,.078,8.869" transform="translate(-7283.559 -7413.347)" fill="#fff"/>
    <path id="Trazado_265008" data-name="Trazado 265008" d="M125.043,102.2a11.637,11.637,0,0,0,.5-2.61A44.8,44.8,0,0,0,125.29,86.8a11.96,11.96,0,0,0-.6-2.589,19.1,19.1,0,0,0,.266,2.635c.188,1.621.39,3.865.439,6.349s-.066,4.735-.191,6.361a19.718,19.718,0,0,0-.165,2.645" transform="translate(-7252.339 -7413.603)" fill="#fff"/>
    <path id="Trazado_265009" data-name="Trazado 265009" d="M114.167,102.674a12.569,12.569,0,0,0,.4-2.686,49.981,49.981,0,0,0-.6-13.065,12.337,12.337,0,0,0-.644-2.636,20.03,20.03,0,0,0,.312,2.689c.22,1.653.469,3.942.588,6.483s.078,4.842.013,6.508a19.583,19.583,0,0,0-.063,2.708" transform="translate(-7222.42 -7413.556)" fill="#fff"/>
    <path id="Trazado_265010" data-name="Trazado 265010" d="M102.353,102.65a11.307,11.307,0,0,0,.665-2.6,36.455,36.455,0,0,0,0-12.93,11.523,11.523,0,0,0-.665-2.6,21.777,21.777,0,0,0,.333,2.656,47.386,47.386,0,0,1,0,12.824,22.121,22.121,0,0,0-.333,2.656" transform="translate(-7193.174 -7413.408)" fill="#fff"/>
    <path id="Trazado_265011" data-name="Trazado 265011" d="M89.99,102.072c.031.012.144-.215.324-.639a16.133,16.133,0,0,0,.641-1.836A24.521,24.521,0,0,0,91.2,86.882a16.337,16.337,0,0,0-.57-1.859,2.08,2.08,0,0,0-.3-.65c-.074.025.223.991.542,2.582a28.875,28.875,0,0,1-.239,12.557c-.38,1.578-.713,2.533-.641,2.561" transform="translate(-7161.094 -7413.499)" fill="#fff"/>
    <path id="Trazado_265012" data-name="Trazado 265012" d="M87.588,112.295a8.818,8.818,0,0,0,1.159-2.247,21.568,21.568,0,0,0,1.147-12.038,8.825,8.825,0,0,0-.713-2.425c-.076.021.165.954.383,2.481a25.257,25.257,0,0,1-1.133,11.865c-.5,1.459-.915,2.329-.844,2.364" transform="translate(-7155.492 -7406.202)" fill="#fff"/>
    <path id="Trazado_265013" data-name="Trazado 265013" d="M81.07,111.7a6.91,6.91,0,0,0,1.062-2.187,19.394,19.394,0,0,0,.979-5.785,37.2,37.2,0,0,0-.363-5.844,11.707,11.707,0,0,0-.439-2.382,12.83,12.83,0,0,0,.106,2.417,56.6,56.6,0,0,1,.223,5.8,23.116,23.116,0,0,1-.825,5.7c-.408,1.421-.811,2.253-.741,2.288" transform="translate(-7137.574 -7406.253)" fill="#fff"/>
    <path id="Trazado_265014" data-name="Trazado 265014" d="M82.531,84.392c-.076.041.429.958.981,2.534a19.585,19.585,0,0,1,1.052,6.392,28.127,28.127,0,0,1-.847,6.458,25.354,25.354,0,0,0-.646,2.648,2.2,2.2,0,0,0,.32-.664c.183-.437.406-1.085.65-1.9a23.682,23.682,0,0,0,1-6.546,17.5,17.5,0,0,0-1.21-6.51A12.767,12.767,0,0,0,82.948,85c-.243-.409-.39-.626-.418-.609" transform="translate(-7141.902 -7413.487)" fill="#fff"/>
    <path id="Trazado_265015" data-name="Trazado 265015" d="M93,89.636h71.841a5.358,5.358,0,0,0,5.359-5.359V81.662a5.358,5.358,0,0,0-5.359-5.359H93a5.359,5.359,0,0,0-5.359,5.359v2.615A5.359,5.359,0,0,0,93,89.636" transform="translate(-7235.514 -7418.751)" fill="#455a64"/>
    <path id="Trazado_265016" data-name="Trazado 265016" d="M93.514,81.56h71.841a5.358,5.358,0,0,0,5.359-5.359V73.586a5.358,5.358,0,0,0-5.359-5.359H93.514a5.358,5.358,0,0,0-5.357,5.359V76.2a5.358,5.358,0,0,0,5.357,5.359" transform="translate(-7236.88 -7424.008)" fill="#455a64"/>
    <path id="Trazado_265017" data-name="Trazado 265017" d="M158.752,76.31c0-.13-13.739-.238-30.685-.238s-30.687.107-30.687.238,13.737.238,30.687.238,30.685-.107,30.685-.238" transform="translate(-7240.146 -7418.902)" fill="#263238"/>
    <path id="Trazado_265018" data-name="Trazado 265018" d="M89.155,68.473a14.149,14.149,0,0,0,2.088,1.393l5.123,3.2,5.077,3.28a14.03,14.03,0,0,0,2.146,1.3,12.258,12.258,0,0,0-1.956-1.577c-1.25-.916-3.013-2.135-5.01-3.406s-3.848-2.349-5.209-3.092a12.193,12.193,0,0,0-2.258-1.1" transform="translate(-7171.403 -7423.852)" fill="#fff"/>
    <path id="Trazado_265019" data-name="Trazado 265019" d="M98.108,68.548c-.073.109,4.061,3.008,9.232,6.475s9.425,6.191,9.5,6.082-4.061-3.008-9.234-6.476-9.425-6.189-9.5-6.08" transform="translate(-7199.435 -7423.801)" fill="#fff"/>
    <path id="Trazado_265020" data-name="Trazado 265020" d="M110.139,68.548c-.073.109,4.061,3.008,9.232,6.475s9.425,6.191,9.5,6.082-4.061-3.008-9.234-6.476-9.425-6.189-9.5-6.08" transform="translate(-7231.327 -7423.801)" fill="#fff"/>
    <path id="Trazado_265021" data-name="Trazado 265021" d="M94.151,76.407c-.073.109,4.061,3.008,9.232,6.475s9.425,6.191,9.5,6.082-4.061-3.008-9.234-6.477-9.425-6.189-9.5-6.08" transform="translate(-7188.945 -7418.686)" fill="#fff"/>
    <path id="Trazado_265022" data-name="Trazado 265022" d="M107.949,76.407c-.073.109,4.063,3.008,9.233,6.475s9.425,6.191,9.5,6.082-4.061-3.008-9.232-6.477-9.425-6.189-9.5-6.08" transform="translate(-7225.522 -7418.686)" fill="#fff"/>
    <path id="Trazado_265023" data-name="Trazado 265023" d="M121.746,76.407c-.073.109,4.061,3.008,9.232,6.475s9.425,6.191,9.5,6.082-4.061-3.008-9.234-6.477-9.425-6.189-9.5-6.08" transform="translate(-7262.096 -7418.686)" fill="#fff"/>
    <path id="Trazado_265024" data-name="Trazado 265024" d="M122.17,68.548c-.073.109,4.061,3.008,9.232,6.475s9.425,6.191,9.5,6.082-4.061-3.008-9.234-6.476-9.425-6.189-9.5-6.08" transform="translate(-7263.22 -7423.801)" fill="#fff"/>
    <path id="Trazado_265025" data-name="Trazado 265025" d="M71.039,153.058c-18.977-10.766-49.3-34.884-49.3-34.884L30,101.447l40.787,20.384a42.2,42.2,0,0,1,20.115,21.582l4.839,11.67a29.582,29.582,0,0,1-24.706-2.026" transform="translate(-7052.26 -7402.385)" fill="#ffbe9d"/>
    <path id="Trazado_265026" data-name="Trazado 265026" d="M83.989,124.03h97.086a7.242,7.242,0,0,0,7.243-7.241v-3.535a7.242,7.242,0,0,0-7.241-7.243H83.989a7.242,7.242,0,0,0-7.241,7.243v3.535a7.242,7.242,0,0,0,7.241,7.241" transform="translate(-7235.649 -7399.414)" fill="#455a64"/>
    <path id="Trazado_265027" data-name="Trazado 265027" d="M81.477,106.184c0,.13,21.582.238,48.2.238s48.2-.107,48.2-.238-21.577-.238-48.2-.238-48.2.107-48.2.238" transform="translate(-7233.017 -7399.457)" fill="#263238"/>
    <path id="Trazado_265028" data-name="Trazado 265028" d="M80.9,121.334a1.083,1.083,0,0,0,.258-.017l.748-.1,2.869-.416,10.541-1.595c8.9-1.35,21.2-3.19,34.794-5.121s25.927-3.589,34.851-4.769l10.567-1.4,2.871-.4.745-.116a1.094,1.094,0,0,0,.253-.056,1.049,1.049,0,0,0-.258.008l-.751.068c-.693.076-1.658.178-2.882.31l-10.587,1.255c-8.936,1.1-21.27,2.7-34.875,4.632s-25.891,3.825-34.78,5.26c-4.415.733-8,1.326-10.518,1.743-1.212.215-2.168.385-2.854.505l-.741.144a1.014,1.014,0,0,0-.249.064" transform="translate(-7233.572 -7398.55)" fill="#263238"/>
    <path id="Trazado_265029" data-name="Trazado 265029" d="M115.272,106.046a8.864,8.864,0,0,0,1.413.411l3.885.966c3.282.807,7.814,1.933,12.8,3.259s9.475,2.6,12.724,3.533l3.852,1.095a8.648,8.648,0,0,0,1.43.345,8.8,8.8,0,0,0-1.375-.522c-.893-.309-2.2-.731-3.809-1.238-3.228-1.014-7.71-2.343-12.7-3.672s-9.537-2.4-12.842-3.127c-1.651-.362-2.991-.642-3.921-.819a8.715,8.715,0,0,0-1.453-.231" transform="translate(-7262.302 -7399.396)" fill="#263238"/>
    <path id="Trazado_265030" data-name="Trazado 265030" d="M174.219,129.851l-20.03,19.986-11.076-11.051,20.03-19.986Z" transform="translate(-7331.112 -7391.09)" fill="#455a64"/>
    <path id="Trazado_265031" data-name="Trazado 265031" d="M154.653,134.9l.261.789a4.547,4.547,0,0,0,2.151-1.146l.817,1.2.424-.431-.809-1.19c1.258-1.4,1.512-3.021.391-4.117-.984-.961-2.082-.446-3.119.116l-1.884-2.741a3.847,3.847,0,0,1,2.453-1.029l-.2-.82a4.352,4.352,0,0,0-2.693,1.189l-.817-1.2-.426.431.807,1.19c-1.326,1.436-1.631,3.074-.474,4.206.974.953,2.113.353,3.186-.241l1.9,2.775a3.923,3.923,0,0,1-1.968,1.019m2.671-4.2c.708.693.57,1.75-.279,2.755l-1.8-2.63c.792-.418,1.517-.678,2.083-.125m-5.247-.078c-.733-.72-.525-1.8.385-2.808l1.786,2.612c-.819.444-1.587.768-2.171.2" transform="translate(-7328.214 -7386.719)" fill="#fff"/>
    <path id="Trazado_265032" data-name="Trazado 265032" d="M142.024,130.345a7.226,7.226,0,0,0,3.14-.971,16.155,16.155,0,0,0,8.968-12.514,7.265,7.265,0,0,0-.091-3.284c-.139,0-.124,1.251-.51,3.188a17.671,17.671,0,0,1-8.652,12.075c-1.71.987-2.9,1.375-2.854,1.506" transform="translate(-7309.332 -7394.49)" fill="#263238"/>
    <path id="Trazado_265033" data-name="Trazado 265033" d="M143.582,123.679c.225.125,1.661-2.263,4.046-4.67,2.366-2.43,4.73-3.908,4.6-4.129-.089-.2-2.742.994-5.212,3.526-2.488,2.513-3.635,5.187-3.434,5.273" transform="translate(-7309.865 -7393.656)" fill="#263238"/>
    <path id="Trazado_265034" data-name="Trazado 265034" d="M174.982,103.814,154.952,123.8l-11.076-11.051,20.03-19.986Z" transform="translate(-7333.136 -7408.038)" fill="#455a64"/>
    <path id="Trazado_265035" data-name="Trazado 265035" d="M155.416,108.858l.261.791a4.55,4.55,0,0,0,2.151-1.147l.817,1.2.424-.433-.809-1.19c1.258-1.4,1.512-3.02.391-4.117-.984-.961-2.082-.444-3.119.117l-1.884-2.742a3.856,3.856,0,0,1,2.453-1.029l-.2-.819a4.352,4.352,0,0,0-2.693,1.189l-.817-1.2-.426.433.807,1.19c-1.326,1.436-1.631,3.072-.474,4.207.974.951,2.113.353,3.186-.243l1.9,2.777a3.92,3.92,0,0,1-1.968,1.017m2.671-4.2c.708.692.57,1.75-.279,2.754l-1.8-2.628c.792-.418,1.517-.68,2.083-.125m-5.247-.079c-.733-.718-.525-1.795.385-2.808l1.788,2.612c-.82.446-1.588.768-2.173.2" transform="translate(-7330.237 -7403.667)" fill="#fff"/>
    <path id="Trazado_265036" data-name="Trazado 265036" d="M142.787,104.309a7.283,7.283,0,0,0,3.14-.971,16.162,16.162,0,0,0,8.968-12.514,7.278,7.278,0,0,0-.089-3.284c-.14,0-.125,1.251-.512,3.188a17.672,17.672,0,0,1-8.652,12.073c-1.71.987-2.9,1.375-2.854,1.507" transform="translate(-7311.354 -7411.437)" fill="#263238"/>
    <path id="Trazado_265037" data-name="Trazado 265037" d="M144.345,97.642c.223.125,1.659-2.263,4.046-4.67,2.366-2.43,4.73-3.906,4.6-4.129-.089-.2-2.742.994-5.214,3.526-2.486,2.513-3.634,5.187-3.432,5.273" transform="translate(-7311.888 -7410.604)" fill="#263238"/>
    <path id="Trazado_265038" data-name="Trazado 265038" d="M107.207,109.912,91.9,95.833,74.45,88.483A4.03,4.03,0,0,0,75.46,93.2c2.315,2.4,6.825,5.139,8.5,6.429,1.6,1.227,3.048,2.412,2.145,4.959-.418,1.18-2.22,2.323-6.415,2.772s-13.635.007-14.234,2.551,2.4,3.143,2.4,3.143l12.44.75s2.544-.75,1.945,1.2a10.379,10.379,0,0,1-1.945,3.445s-15.885,7.642-16.933,10.338-.6,3.886,0,3.741,14.561-5.682,14.561-5.682-16.659,9.734-16.36,11.233.9,2.1,2.7,1.946,13.948-7.094,13.948-7.094-9.453,7.094-9.6,8.144,1.048,1.648,2.247,1.2,13.864-7.262,13.864-7.262l17.5-9.075Z" transform="translate(-7129.463 -7410.824)" fill="#ffbe9d"/>
    <path id="Trazado_265039" data-name="Trazado 265039" d="M82.859,111.721a6.9,6.9,0,0,0-1.289.6c-.82.428-2.019,1.071-3.521,1.945a70.227,70.227,0,0,0-11.792,8.426l-.125.114.012.182a2.555,2.555,0,0,0,1.166,2.128,3.275,3.275,0,0,0,2.5.043c1.5-.662,2.821-1.426,4.312-2.174l9.224-4.8-.474-.7c-1.108.939-2.283,1.935-3.474,2.942-2.1,1.785-4.154,3.53-6.126,5.205l-.107.091-.023.109a2.081,2.081,0,0,0-.069,1.106,1.177,1.177,0,0,0,.939.837,3.915,3.915,0,0,0,1.922-.231l.021-.007.03-.017,20.57-10.946,5.948-3.254a15.649,15.649,0,0,0,2.1-1.258,15.672,15.672,0,0,0-2.229,1.007c-1.522.763-3.558,1.785-6.06,3.038-5.248,2.708-12.436,6.412-20.711,10.678l.051-.021a3.246,3.246,0,0,1-1.463.191c-.206-.053-.267-.111-.3-.241a1.338,1.338,0,0,1,.064-.636l-.13.2,6.136-5.2,3.47-2.945,2.953-2.508-3.429,1.8-9.189,4.832c-1.44.74-2.892,1.573-4.192,2.169a2.583,2.583,0,0,1-1.907.03,1.843,1.843,0,0,1-.8-1.535l-.114.294a77.526,77.526,0,0,1,11.52-8.6l3.414-2.11a7.046,7.046,0,0,0,1.182-.786" transform="translate(-7134.4 -7395.7)" fill="#eb996e"/>
    <path id="Trazado_265040" data-name="Trazado 265040" d="M53.267,108.475a7.235,7.235,0,0,1,2.288,1.5,25.613,25.613,0,0,0,2.252,2.176,4.155,4.155,0,0,0,1.816.834c.712.121,1.382.013,1.91.155,1.019.229,1.445,1.694,2.239,2.589a10.82,10.82,0,0,0,2.3,2.191,5.307,5.307,0,0,0,2.633,1.2c.058-.127-.944-.579-2.262-1.684a12.185,12.185,0,0,1-2.039-2.186c-.338-.459-.617-.944-.958-1.516a2.864,2.864,0,0,0-1.7-1.43,19.752,19.752,0,0,0-1.988-.154,3.477,3.477,0,0,1-1.487-.644c-.888-.637-1.61-1.421-2.311-1.988a4.8,4.8,0,0,0-1.894-1.042c-.508-.122-.8-.045-.8,0" transform="translate(-7077.272 -7397.85)" fill="#eb996e"/>
    <path id="Trazado_265041" data-name="Trazado 265041" d="M92.05,24.31l.286-5.613L58.8,11.235C48.437,9.812,36.867,19.888,35.885,30.3c-1.09,11.573-1.965,25.748-.858,34.443,2.222,17.485,15.489,20.111,15.489,20.111l-.474,11.167A18.207,18.207,0,0,0,86.386,98.19Z" transform="translate(-7069.945 -7461.193)" fill="#ffbe9d"/>
    <path id="Trazado_265042" data-name="Trazado 265042" d="M63.211,31.711a2.233,2.233,0,0,0,2.082,2.318,2.134,2.134,0,0,0,2.362-1.94,2.233,2.233,0,0,0-2.078-2.32,2.137,2.137,0,0,0-2.366,1.941" transform="translate(-7092.635 -7449.046)" fill="#263238"/>
    <path id="Trazado_265043" data-name="Trazado 265043" d="M61.307,28.151c.267.3,2-.9,4.4-.819,2.4.048,4.122,1.337,4.393,1.05.132-.125-.134-.659-.883-1.241a6.144,6.144,0,0,0-3.507-1.2A5.882,5.882,0,0,0,62.2,26.954c-.756.543-1.022,1.062-.89,1.2" transform="translate(-7091.917 -7451.536)" fill="#263238"/>
    <path id="Trazado_265044" data-name="Trazado 265044" d="M49.673,31.949a2.233,2.233,0,0,0,2.082,2.318,2.134,2.134,0,0,0,2.362-1.94,2.232,2.232,0,0,0-2.08-2.32,2.136,2.136,0,0,0-2.364,1.941" transform="translate(-7056.747 -7448.892)" fill="#263238"/>
    <path id="Trazado_265045" data-name="Trazado 265045" d="M47.018,28.865c.267.3,2-.9,4.4-.817,2.4.046,4.124,1.336,4.393,1.05.132-.127-.13-.66-.883-1.243a6.122,6.122,0,0,0-3.5-1.2,5.884,5.884,0,0,0-3.513,1.014c-.753.543-1.022,1.063-.89,1.2" transform="translate(-7054.04 -7451.069)" fill="#263238"/>
    <path id="Trazado_265046" data-name="Trazado 265046" d="M62.953,46.491a15.952,15.952,0,0,0-3.878-.825c-.611-.081-1.187-.221-1.278-.642a3.123,3.123,0,0,1,.466-1.806l1.958-4.611c2.724-6.571,4.717-11.979,4.451-12.086s-2.689,5.129-5.413,11.7c-.657,1.621-1.284,3.165-1.882,4.644a3.545,3.545,0,0,0-.393,2.4,1.535,1.535,0,0,0,.981.928A4.1,4.1,0,0,0,59,46.362c2.43.208,3.939.264,3.952.129" transform="translate(-7079.241 -7451.157)" fill="#263238"/>
    <path id="Trazado_265047" data-name="Trazado 265047" d="M45.375,57.978a46.093,46.093,0,0,0,24.09-5.509s-6.255,12-24.214,9.848Z" transform="translate(-7064.798 -7434.266)" fill="#eb996e"/>
    <path id="Trazado_265048" data-name="Trazado 265048" d="M53.382,42.743a4.328,4.328,0,0,1,3.929-1.486A3.943,3.943,0,0,1,59.992,42.8a2.5,2.5,0,0,1,.1,2.868,2.905,2.905,0,0,1-3.173.7,9.088,9.088,0,0,1-3.011-1.927,2.666,2.666,0,0,1-.665-.731.8.8,0,0,1,.033-.893" transform="translate(-7068.835 -7441.591)" fill="#eb996e"/>
    <path id="Trazado_265049" data-name="Trazado 265049" d="M61.332,39.755c-.39-.035-.475,2.57-2.764,4.352s-5.053,1.408-5.085,1.771c-.041.162.6.525,1.773.594A6.5,6.5,0,0,0,59.5,45.14a5.651,5.651,0,0,0,2.151-3.653c.132-1.086-.139-1.742-.317-1.732" transform="translate(-7070.605 -7442.541)" fill="#263238"/>
    <path id="Trazado_265050" data-name="Trazado 265050" d="M45.923,24.531c.216.66,2.623.424,5.43.852,2.815.371,5.062,1.266,5.453.692.177-.276-.2-.9-1.1-1.562a9.555,9.555,0,0,0-8.291-1.177c-1.048.385-1.585.882-1.492,1.2" transform="translate(-7053.272 -7453.532)" fill="#e0e0e0"/>
    <path id="Trazado_265051" data-name="Trazado 265051" d="M61.515,23.222c.406.558,2.077.045,4.068.079,1.989-.035,3.662.48,4.066-.078.178-.272-.069-.827-.789-1.365a5.887,5.887,0,0,0-6.554,0c-.72.538-.969,1.093-.791,1.365" transform="translate(-7091.796 -7454.839)" fill="#e0e0e0"/>
    <path id="Trazado_265052" data-name="Trazado 265052" d="M35.8,21.761a10.82,10.82,0,0,1-3.861-11.289A12.338,12.338,0,0,1,40.586,2,14.4,14.4,0,0,1,52.613,4.4,4.551,4.551,0,0,1,56.06.225a8.375,8.375,0,0,1,5.663.741,14.913,14.913,0,0,1,7.191,7.107A9.188,9.188,0,0,1,85.09,9.245a29.281,29.281,0,0,0,1.491,3.615,4.555,4.555,0,0,0,3.769,1.834l0,.012c2.07.01,4.226,1.225,6.09,2.432A15.449,15.449,0,0,1,102.7,29.073c-.116,11.754-3.786,17.775-4.124,29.046a3.986,3.986,0,0,1-.48,2.158c-1.088,1.6-3.629.811-5.1-.439-3.586-3.038-5.418-7.687-6.321-12.3s-1.01-9.349-1.869-13.968q-.027-.156-.059-.327a12.77,12.77,0,0,0-2.333-5.285,33.705,33.705,0,0,1-4.254,2.547,13.865,13.865,0,0,1-16.015-3.7,20.345,20.345,0,0,1-13.072,4.32c-4.682-.139-9.288-1.157-12.788-4.269a6.508,6.508,0,0,1-1.946-2.988,1.985,1.985,0,0,1,1.464-2.11" transform="translate(-7075.478 -7468.418)" fill="#e0e0e0"/>
    <path id="Trazado_265053" data-name="Trazado 265053" d="M31,32.947c.233-.114,9.453-3.289,9.6,6.264s-9.475,7.73-9.494,7.455S31,32.947,31,32.947" transform="translate(-7012.414 -7447.36)" fill="#ffbe9d"/>
    <path id="Trazado_265054" data-name="Trazado 265054" d="M32.479,41.794c.041-.031.168.114.452.239a1.662,1.662,0,0,0,1.243,0c1-.385,1.829-2,1.849-3.723a5.485,5.485,0,0,0-.5-2.376,1.922,1.922,0,0,0-1.271-1.258.847.847,0,0,0-.976.471c-.124.269-.061.459-.111.477-.026.023-.208-.157-.137-.553a1.062,1.062,0,0,1,.367-.6,1.257,1.257,0,0,1,.916-.258,2.337,2.337,0,0,1,1.762,1.454,5.632,5.632,0,0,1,.617,2.653c-.031,1.927-.989,3.743-2.364,4.164a1.783,1.783,0,0,1-1.525-.229c-.3-.231-.353-.444-.32-.462" transform="translate(-7010.923 -7446.151)" fill="#eb996e"/>
    <path id="Trazado_265055" data-name="Trazado 265055" d="M46.98,7.806a13.951,13.951,0,0,1,3.455-.589,12.425,12.425,0,0,1,4.05.55,13.465,13.465,0,0,1,2.359.979A12.88,12.88,0,0,1,59.176,10.4a11.54,11.54,0,0,1,2.011,2.4,5.548,5.548,0,0,1,.858,3.175,2.4,2.4,0,0,1-.634,1.52,1.889,1.889,0,0,1-1.54.573,2.9,2.9,0,0,1-2.514-2.308,5.463,5.463,0,0,1,.849-3.781,8.842,8.842,0,0,1,2.93-2.955A10.7,10.7,0,0,1,69.647,7.8a8.2,8.2,0,0,1,3.759,2.3,4.275,4.275,0,0,1,1.213,3.868,3.086,3.086,0,0,1-3.105,2.065,3.477,3.477,0,0,1-3.181-1.856,4.767,4.767,0,0,1-.17-3.655,5.251,5.251,0,0,1,2.154-2.76,8.351,8.351,0,0,1,6.265-.951,11.1,11.1,0,0,1,4.8,2.381,12.087,12.087,0,0,1,2.622,3.132,13.637,13.637,0,0,1,1.281,3.259.873.873,0,0,0-.026-.231c-.026-.152-.063-.378-.13-.672a11.241,11.241,0,0,0-.964-2.447A12.024,12.024,0,0,0,81.557,9a11.284,11.284,0,0,0-4.9-2.508A8.673,8.673,0,0,0,70.1,7.44a5.658,5.658,0,0,0-2.336,2.953,5.206,5.206,0,0,0,.178,3.99A3.735,3.735,0,0,0,69.4,15.94a4.312,4.312,0,0,0,2.11.551,4.212,4.212,0,0,0,2.154-.578,3.071,3.071,0,0,0,1.4-1.811,3.8,3.8,0,0,0-.106-2.316,6.01,6.01,0,0,0-1.2-1.993,7.5,7.5,0,0,0-1.814-1.486c-.329-.216-.7-.365-1.045-.55-.367-.147-.741-.284-1.119-.408a11.139,11.139,0,0,0-8.9,1.274,9.292,9.292,0,0,0-3.069,3.117,5.877,5.877,0,0,0-.888,4.1,3.316,3.316,0,0,0,2.911,2.633,2.308,2.308,0,0,0,1.862-.7A2.807,2.807,0,0,0,62.439,16a5.938,5.938,0,0,0-.939-3.4,11.87,11.87,0,0,0-2.1-2.455,12.372,12.372,0,0,0-4.839-2.633,12.3,12.3,0,0,0-4.132-.48,12.072,12.072,0,0,0-1.511.177c-.429.106-.8.178-1.08.272-.262.092-.472.17-.644.231a.839.839,0,0,0-.215.094" transform="translate(-7083.477 -7464.357)" fill="#fff"/>
    <path id="Trazado_265056" data-name="Trazado 265056" d="M40.69,69.159c.054-.048-.17-.277-.239-.776a3.477,3.477,0,0,1,.525-2.062,13.172,13.172,0,0,0,.745-1.458,2.884,2.884,0,0,0,.117-2.045,6.045,6.045,0,0,1-.563-1.768c0-.477.542-.8,1.2-1.281a2.061,2.061,0,0,0,.806-1.1,1.9,1.9,0,0,0-.183-1.327,12.829,12.829,0,0,1-.939-1.712c-.264-1.03.487-2.078.857-2.991a3.075,3.075,0,0,0,.112-2.437c-.291-.556-.67-.632-.679-.591-.046.058.229.236.367.713a3,3,0,0,1-.353,2.06c-.211.413-.507.87-.763,1.418a3.079,3.079,0,0,0-.307,2.027,10.4,10.4,0,0,0,.944,1.872.975.975,0,0,1-.388,1.383c-.267.208-.594.406-.908.7A1.785,1.785,0,0,0,40.432,61a5.687,5.687,0,0,0,.655,2.07c.408,1.035-.279,2.088-.657,2.98a3.441,3.441,0,0,0-.305,2.41c.2.581.545.735.565.7" transform="translate(-7030.028 -7436.13)" fill="#eb996e"/>
    <path id="Trazado_265057" data-name="Trazado 265057" d="M42.237,66.7c.059.064.893-.786,1.136-2.6a6.476,6.476,0,0,0-.4-3.087,1.079,1.079,0,0,1,.211-1.237c.348-.367.962-.621,1.5-1.2a1.794,1.794,0,0,0,.461-1.149,3.428,3.428,0,0,0-.182-1.052,2.366,2.366,0,0,1-.149-1.511c.277-.939,1.068-1.714,1.383-2.605a2,2,0,0,0-.309-2.145c-.4-.393-.754-.33-.746-.286-.02.068.256.137.487.5a1.692,1.692,0,0,1,.008,1.7,21.877,21.877,0,0,0-1.582,2.612,3.12,3.12,0,0,0,.1,1.973c.178.6.221,1.04-.114,1.4-.343.395-.949.662-1.463,1.184a1.79,1.79,0,0,0-.51,1.038,2.4,2.4,0,0,0,.149,1.022,6.493,6.493,0,0,1,.551,2.8,16.5,16.5,0,0,1-.53,2.645" transform="translate(-7036.435 -7436.002)" fill="#eb996e"/>
    <path id="Trazado_265058" data-name="Trazado 265058" d="M52.382,39.433c.015.244.85.383,1.715.855.878.452,1.461,1.066,1.671.941.211-.1-.157-1.114-1.268-1.7s-2.156-.324-2.118-.1" transform="translate(-7062.928 -7442.921)" fill="#eb996e"/>
    <path id="Trazado_265059" data-name="Trazado 265059" d="M46.173,27.441c.084.1.578-.234,1.438-.55a6.329,6.329,0,0,1,6.567,1.2c.693.6,1.038,1.088,1.151,1.024.094-.046-.066-.665-.716-1.448a5.832,5.832,0,0,0-7.257-1.326c-.883.5-1.253,1.025-1.182,1.1" transform="translate(-7052.193 -7451.744)" fill="#eb996e"/>
    <path id="Trazado_265060" data-name="Trazado 265060" d="M45.046,30.748c-.1.208.814.759,2.032.528s1.877-1.063,1.709-1.222c-.162-.185-.9.211-1.866.376-.959.192-1.791.087-1.875.317" transform="translate(-7043.794 -7448.886)" fill="#eb996e"/>
    <path id="Trazado_265061" data-name="Trazado 265061" d="M45.022,31.5c-.028.243.8.527,1.707,1.038s1.593,1.053,1.785.9c.188-.132-.289-1.057-1.367-1.651s-2.112-.517-2.125-.287" transform="translate(-7043.509 -7448.025)" fill="#eb996e"/>
    <path id="Trazado_265062" data-name="Trazado 265062" d="M67.026,29.561c-.208.106.036.883.863,1.319s1.606.2,1.577-.026c-.013-.243-.583-.409-1.174-.733-.6-.307-1.058-.685-1.266-.56" transform="translate(-7100.632 -7449.193)" fill="#eb996e"/>
    <path id="Trazado_265063" data-name="Trazado 265063" d="M67.03,31.577c.041.234.779.3,1.646.144s1.539-.467,1.5-.7-.779-.3-1.648-.144-1.537.467-1.5.7" transform="translate(-7101.459 -7448.376)" fill="#eb996e"/>
    <path id="Trazado_265064" data-name="Trazado 265064" d="M60.954,26.642c.139.21,1.889-1,4.36-.9,2.475.033,4.159,1.329,4.307,1.128.069-.078-.251-.532-1-1.015A6.653,6.653,0,0,0,62,25.68c-.769.444-1.114.882-1.048.962" transform="translate(-7090.875 -7452.221)" fill="#eb996e"/>
    <path id="Trazado_265065" data-name="Trazado 265065" d="M77.592,59.85,54.151,79.071l-16.4-19.837L35,74.478l17.985,15.49L67.216,87.58,80.6,76.1Z" transform="translate(-7059.003 -7429.862)" fill="#fff"/>
  </g>
</svg>
