<svg xmlns="http://www.w3.org/2000/svg" xmlns:xlink="http://www.w3.org/1999/xlink" width="228.911" height="226.469" viewBox="0 0 228.911 226.469">
  <defs>
    <clipPath id="clip-path">
      <rect id="Rectángulo_291369" data-name="Rectángulo 291369" width="217.061" height="217.091" fill="#fff"/>
    </clipPath>
    <clipPath id="clip-path-2">
      <rect id="Rectángulo_291491" data-name="Rectángulo 291491" width="197.749" height="203.521" fill="none"/>
    </clipPath>
    <clipPath id="clip-path-6">
      <rect id="Rectángulo_291472" data-name="Rectángulo 291472" width="1.608" height="1.569" fill="none"/>
    </clipPath>
    <clipPath id="clip-path-7">
      <rect id="Rectángulo_291473" data-name="Rectángulo 291473" width="17.532" height="12.528" fill="none"/>
    </clipPath>
    <clipPath id="clip-path-8">
      <rect id="Rectángulo_291474" data-name="Rectángulo 291474" width="1.47" height="1.503" fill="none"/>
    </clipPath>
    <clipPath id="clip-path-9">
      <rect id="Rectángulo_291475" data-name="Rectángulo 291475" width="9.02" height="17.681" fill="none"/>
    </clipPath>
    <clipPath id="clip-path-11">
      <rect id="Rectángulo_291477" data-name="Rectángulo 291477" width="105.265" height="75.595" fill="none"/>
    </clipPath>
    <clipPath id="clip-path-12">
      <rect id="Rectángulo_291478" data-name="Rectángulo 291478" width="10.477" height="9.855" fill="none"/>
    </clipPath>
  </defs>
  <g id="Grupo_871317" data-name="Grupo 871317" transform="translate(-1037.839 -847.998)">
    <g id="Grupo_870717" data-name="Grupo 870717" transform="translate(1037.839 847.998)">
      <g id="Grupo_870714" data-name="Grupo 870714" clip-path="url(#clip-path)">
        <path id="Trazado_215321" data-name="Trazado 215321" d="M16.525,105.621c27.129-21.63-19.852-56.536-9.449-91.06s44.729.97,63.2,17.979S110.392,19.118,124.742,18.3s6.274,12.483,12.746,29.711,54.177,2.921,73.3,19.561-11.344,52.052-13.909,73.168,30.376,45.01,9.271,76.35l-104.846-.62c-10.55-3.243-17.432-5.813-17.432-5.813C-14.283,168.268-10.6,127.25,16.525,105.621" transform="translate(0 0)" fill="#fff"/>
      </g>
    </g>
    <g id="Grupo_870937" data-name="Grupo 870937" transform="translate(10479 10996.137)">
      <path id="Trazado_264543" data-name="Trazado 264543" d="M209.053,582.976c0,3.35-40.736,6.066-90.986,6.066s-90.986-2.716-90.986-6.066,40.759-3.741,91.01-3.741,90.963.391,90.963,3.741" transform="translate(-9427.479 -10510.712)" fill="#033f71" opacity="0.4"/>
      <g id="Grupo_870936" data-name="Grupo 870936" transform="translate(-9410 -10130.796)">
        <g id="Grupo_870935" data-name="Grupo 870935" clip-path="url(#clip-path-2)">
          <g id="Grupo_870907" data-name="Grupo 870907">
            <g id="Grupo_870906" data-name="Grupo 870906" clip-path="url(#clip-path-2)">
              <path id="Trazado_264419" data-name="Trazado 264419" d="M231.594,30.928a2.194,2.194,0,1,1,4.352.44,2.194,2.194,0,1,1-4.352-.44m7.416-1.517,1.746.176-6.653,7.9-1.746-.177Zm-4.531,1.808c.087-.861-.182-1.231-.594-1.272-.388-.039-.75.267-.837,1.128s.206,1.234.594,1.272c.412.042.75-.267.836-1.128m2.7,4.314a2.194,2.194,0,1,1,4.352.44,2.194,2.194,0,1,1-4.352-.44m2.885.292c.087-.861-.194-1.232-.594-1.273s-.749.267-.836,1.128.194,1.232.594,1.272.75-.267.837-1.128" transform="translate(-119.231 -14.819)" fill="#a0a0a0"/>
              <path id="Trazado_264420" data-name="Trazado 264420" d="M332.406,11.118c-.535-3.179.945-5.635,3.65-6.09s4.874,1.36,5.413,4.567-.918,5.631-3.623,6.085-4.907-1.384-5.44-4.563M339.684,9.9c-.394-2.343-1.66-3.563-3.361-3.278-1.673.281-2.494,1.882-2.1,4.2s1.688,3.559,3.361,3.278c1.7-.286,2.5-1.853,2.1-4.2m8.169-6.677L350,2.858l-10.05,21.76-2.146.36Zm-1.519,15.023c-.534-3.18.918-5.631,3.623-6.085s4.906,1.383,5.44,4.562-.946,5.635-3.65,6.09-4.878-1.388-5.413-4.567m7.251-1.219c-.389-2.315-1.688-3.558-3.361-3.277-1.7.286-2.5,1.853-2.1,4.2s1.66,3.564,3.361,3.278c1.673-.281,2.495-1.882,2.106-4.2" transform="translate(-171.09 -1.471)" fill="#a0a0a0"/>
              <path id="Trazado_264421" data-name="Trazado 264421" d="M25.713,150.525a3.2,3.2,0,1,1,5.819-2.6,3.2,3.2,0,1,1-5.819,2.6M29.57,148.8c-.514-1.151-1.122-1.423-1.673-1.177-.518.232-.753.881-.239,2.032s1.155,1.409,1.673,1.177c.551-.246.754-.881.24-2.032m4.414-5.568,2.334-1.043L33.64,157l-2.334,1.043Zm2.125,9.064a3.2,3.2,0,1,1,5.818-2.6,3.2,3.2,0,1,1-5.818,2.6m3.856-1.723c-.514-1.151-1.138-1.417-1.672-1.178s-.753.881-.24,2.032,1.138,1.416,1.673,1.177.753-.881.239-2.032" transform="translate(-13.044 -73.209)" fill="#a0a0a0"/>
              <path id="Trazado_264422" data-name="Trazado 264422" d="M386.62,235.412l2.465.678-11.476,9.732-2.465-.678Zm-11.02.376a3.2,3.2,0,1,1,2.151,4.163,3.133,3.133,0,0,1-2.151-4.163m4.074,1.12c.334-1.215.038-1.812-.544-1.972-.548-.151-1.142.2-1.476,1.417s0,1.822.543,1.972c.582.16,1.142-.2,1.476-1.417m2.829,6.853a3.2,3.2,0,1,1,2.151,4.163,3.124,3.124,0,0,1-2.151-4.163m4.074,1.12c.334-1.215.021-1.817-.543-1.972s-1.142.2-1.476,1.417-.021,1.817.544,1.972,1.141-.2,1.475-1.417" transform="translate(-193.15 -120.057)" fill="#a0a0a0"/>
              <path id="Trazado_264423" data-name="Trazado 264423" d="M206.579,122.208a1.4,1.4,0,1,1,1.445,1.54,1.419,1.419,0,0,1-1.445-1.54m2.1-.079c-.024-.647-.3-1-.751-.984-.431.016-.7.4-.675,1.038s.32,1,.751.985c.448-.017.7-.392.675-1.039m2.712-1.638.813-.031-3.745,5.955-.813.031Zm-.9,4.311a1.4,1.4,0,1,1,1.445,1.54,1.418,1.418,0,0,1-1.445-1.54m2.1-.079c-.024-.638-.312-1-.751-.985s-.7.391-.675,1.039.311,1,.751.985.7-.4.675-1.039" transform="translate(-106.36 -62.021)" fill="#a0a0a0"/>
              <path id="Trazado_264424" data-name="Trazado 264424" d="M393.83,122.8a1.4,1.4,0,1,1,1.445,1.54,1.419,1.419,0,0,1-1.445-1.54m2.1-.079c-.024-.647-.3-1-.751-.984-.431.016-.7.4-.675,1.038s.32,1,.751.985c.448-.017.7-.392.675-1.039m2.712-1.638.813-.031-3.745,5.955-.813.031Zm-.9,4.311a1.4,1.4,0,1,1,1.445,1.54,1.418,1.418,0,0,1-1.445-1.54m2.1-.079c-.024-.638-.312-1-.751-.985s-.7.392-.675,1.039.312,1,.751.985.7-.4.675-1.039" transform="translate(-202.77 -62.326)" fill="#a0a0a0"/>
              <path id="Trazado_264425" data-name="Trazado 264425" d="M235.272,81.818l3.811,2.084-3.811,2.084L233.187,89.8,231.1,85.986,227.293,83.9l3.811-2.084,2.084-3.811Z" transform="translate(-117.026 -40.163)" fill="#a0a0a0"/>
              <path id="Trazado_264426" data-name="Trazado 264426" d="M216.891,73.643l1.3.71-1.3.71-.71,1.3-.71-1.3-1.3-.71,1.3-.71.71-1.3Z" transform="translate(-110.271 -37.248)" fill="#a0a0a0"/>
              <path id="Trazado_264427" data-name="Trazado 264427" d="M190.788,143.471l1.3.71-1.3.71-.71,1.3-.71-1.3-1.3-.71,1.3-.71.71-1.3Z" transform="translate(-96.832 -73.2)" fill="#a0a0a0"/>
              <path id="Trazado_264428" data-name="Trazado 264428" d="M341.359,78.317,343.7,79.6l-2.342,1.281-1.281,2.342L338.8,80.878,336.456,79.6l2.342-1.281,1.281-2.342Z" transform="translate(-173.23 -39.117)" fill="#a0a0a0"/>
              <path id="Trazado_264429" data-name="Trazado 264429" d="M376.387,148.834l2.116,1.627-2.512.9-1.627,2.116-.9-2.512-2.116-1.627,2.512-.9,1.627-2.116Z" transform="translate(-191.194 -75.337)" fill="#a0a0a0"/>
              <path id="Trazado_264430" data-name="Trazado 264430" d="M304.449,107.34l1.636.895-1.636.895-.895,1.636-.895-1.636-1.636-.895,1.636-.895.895-1.636Z" transform="translate(-154.988 -54.424)" fill="#a0a0a0"/>
            </g>
          </g>
          <g id="Grupo_870909" data-name="Grupo 870909">
            <g id="Grupo_870908" data-name="Grupo 870908" clip-path="url(#clip-path-2)">
              <path id="Trazado_264431" data-name="Trazado 264431" d="M370.236,367.872a4.684,4.684,0,0,1,2.428,2.751,8.27,8.27,0,0,1,.323,3.726,14.6,14.6,0,0,1-3.127,6.791c-2.036-1.777-2.5-4.877-2.643-6.465-.22-2.509.907-7.177,3.02-6.8" transform="translate(-189.054 -189.395)" fill="#359547"/>
              <path id="Trazado_264432" data-name="Trazado 264432" d="M377.475,398.12a4,4,0,0,1,1.292-3.8,5.309,5.309,0,0,1,3.916-1.223,2.235,2.235,0,0,1,1.719.772,1.71,1.71,0,0,1,.026,1.732,3.467,3.467,0,0,1-1.283,1.264c-1.764,1.107-3.675,1.854-5.67,1.256" transform="translate(-194.302 -202.384)" fill="#359547"/>
              <path id="Trazado_264433" data-name="Trazado 264433" d="M372.187,408.068a2.811,2.811,0,0,1,.073-.5c.064-.349.147-.8.246-1.343a14.025,14.025,0,0,1,1.386-4.29,8.588,8.588,0,0,1,3.078-3.272,5.824,5.824,0,0,1,1.256-.555,3.5,3.5,0,0,1,.361-.092.371.371,0,0,1,.129-.018,9.147,9.147,0,0,0-1.681.772,8.871,8.871,0,0,0-2.989,3.251,15.1,15.1,0,0,0-1.418,4.229c-.123.563-.224,1.019-.3,1.332a2.641,2.641,0,0,1-.14.482" transform="translate(-191.626 -204.918)" fill="#263238"/>
              <path id="Trazado_264434" data-name="Trazado 264434" d="M372.24,375.379a1.018,1.018,0,0,1,.025.217c.01.161.022.368.037.623.029.541.061,1.325.092,2.294.063,1.938.112,4.616.1,7.573s-.085,5.637-.165,7.574c-.04.968-.078,1.752-.112,2.293-.017.256-.031.462-.042.623a1.034,1.034,0,0,1-.027.216.967.967,0,0,1-.009-.218c0-.162.005-.368.009-.624.014-.564.033-1.342.056-2.294.048-1.937.1-4.613.113-7.57s-.017-5.632-.048-7.57c-.015-.952-.027-1.73-.036-2.295,0-.256,0-.463,0-.624a1.025,1.025,0,0,1,.011-.218" transform="translate(-191.603 -193.271)" fill="#263238"/>
              <path id="Trazado_264435" data-name="Trazado 264435" d="M362.214,398.878a9.352,9.352,0,0,0-5.106-6.851A1.973,1.973,0,0,0,354.98,392a1.936,1.936,0,0,0-.161,2.121,7.991,7.991,0,0,0,7.347,4.961" transform="translate(-182.565 -201.67)" fill="#359547"/>
              <path id="Trazado_264436" data-name="Trazado 264436" d="M360.465,397.11a2.4,2.4,0,0,1,.432.189,4.392,4.392,0,0,1,.488.26c.183.114.4.226.621.39a8.234,8.234,0,0,1,.711.536,9.169,9.169,0,0,1,.757.687,10.391,10.391,0,0,1,1.438,1.847,10.176,10.176,0,0,1,.947,2.142,8.89,8.89,0,0,1,.239.995,7.557,7.557,0,0,1,.122.882,7,7,0,0,1,.034.733,4.278,4.278,0,0,1-.016.553,2.407,2.407,0,0,1-.052.469c-.04,0,.03-.673-.089-1.742a8.118,8.118,0,0,0-.142-.866,9.229,9.229,0,0,0-.251-.975,10.569,10.569,0,0,0-.944-2.1,10.807,10.807,0,0,0-1.4-1.825,9.788,9.788,0,0,0-.734-.689c-.233-.213-.474-.383-.689-.545-.875-.627-1.488-.906-1.47-.94" transform="translate(-185.592 -204.459)" fill="#263238"/>
            </g>
          </g>
          <g id="Grupo_870923" data-name="Grupo 870923">
            <g id="Grupo_870922" data-name="Grupo 870922" clip-path="url(#clip-path-2)">
              <path id="Trazado_264437" data-name="Trazado 264437" d="M116.489,69.022c.594,0,7.187,1.584,9.039,4.851S128.18,89.1,128.18,89.1s.533,8.412-.62,12.451c-1.168,4.094-4.927,23.88-6.323,27.906-1.791,5.164-4.331,13.687-4.331,13.687L95.2,127.732Z" transform="translate(-49.017 -35.537)" fill="#468b76"/>
              <path id="Trazado_264438" data-name="Trazado 264438" d="M134.687,30.339c-.937,2.027-.635,4.4-.084,6.565s1.34,4.31,1.324,6.543c-.023,3.281-.855,7.762-7.5,5.645-4.048-1.289-.325,10.724-2.512,14.367a6.153,6.153,0,0,1-1.569,1.949c-1.633,1.161-3.881.488-5.753-.225-.6-.228-1.28-.547-1.417-1.172a1.95,1.95,0,0,1,.12-.967l9.924-32.938" transform="translate(-60.317 -15.501)" fill="#263238"/>
              <path id="Trazado_264439" data-name="Trazado 264439" d="M120.184,41.738c3.811-.9,4.982-2.794,5.027-6.146l.058-4.264s4.218-.219,5.2-6.5a62.478,62.478,0,0,0,.641-12.36c-.245-3.768-4.16-10.411-7.913-10.006L112.89,7.477a2.21,2.21,0,0,0-1.972,2.245l.8,24.355" transform="translate(-57.108 -1.258)" fill="#ffbea9"/>
              <path id="Trazado_264440" data-name="Trazado 264440" d="M145.863,31.315a.805.805,0,0,1-.775.815.771.771,0,0,1-.832-.724.806.806,0,0,1,.774-.815.771.771,0,0,1,.833.725" transform="translate(-74.273 -15.749)" fill="#263238"/>
              <path id="Trazado_264441" data-name="Trazado 264441" d="M146.932,28.355c-.072.135-.78-.228-1.627-.041s-1.36.793-1.479.7c-.057-.042,0-.27.217-.549a2.037,2.037,0,0,1,1.151-.7,2,2,0,0,1,1.327.176c.311.166.446.355.41.416" transform="translate(-74.041 -14.272)" fill="#263238"/>
              <path id="Trazado_264442" data-name="Trazado 264442" d="M128.712,31.128a.806.806,0,0,1-.775.815.771.771,0,0,1-.832-.725.806.806,0,0,1,.774-.815.77.77,0,0,1,.832.725" transform="translate(-65.442 -15.653)" fill="#263238"/>
              <path id="Trazado_264443" data-name="Trazado 264443" d="M129.036,29.283c-.137.084-.634-.594-1.539-.855s-1.7.019-1.77-.125c-.033-.065.131-.242.485-.377a2.326,2.326,0,0,1,1.457-.042,2.255,2.255,0,0,1,1.184.823c.214.3.249.539.183.575" transform="translate(-64.731 -14.307)" fill="#263238"/>
              <path id="Trazado_264444" data-name="Trazado 264444" d="M138.77,34.545a5.714,5.714,0,0,1,1.407-.257c.221-.023.43-.068.468-.219a1.132,1.132,0,0,0-.149-.656l-.658-1.683a28.988,28.988,0,0,1-1.48-4.4,28.968,28.968,0,0,1,1.831,4.275l.631,1.694a1.282,1.282,0,0,1,.117.868.557.557,0,0,1-.363.325,1.5,1.5,0,0,1-.376.053,5.616,5.616,0,0,1-1.427.005" transform="translate(-71.231 -14.068)" fill="#263238"/>
              <path id="Trazado_264445" data-name="Trazado 264445" d="M131.567,59.75a15.978,15.978,0,0,1-8.416-2.225s2.108,4.484,8.393,3.883Z" transform="translate(-63.407 -29.618)" fill="#e4977c"/>
              <path id="Trazado_264446" data-name="Trazado 264446" d="M136,45.382a2.314,2.314,0,0,0-1.665-1.1.993.993,0,0,0-.977.544,1.571,1.571,0,0,0,.14,1.441,1.327,1.327,0,0,0,1.313.636A2.222,2.222,0,0,0,135.9,46.2a.783.783,0,0,0,.22-.311.533.533,0,0,0-.069-.455" transform="translate(-68.604 -22.798)" fill="#e4977c"/>
              <path id="Trazado_264447" data-name="Trazado 264447" d="M133.815,43.456c.141-.008.145.932.952,1.6s1.808.56,1.815.692c.013.059-.223.183-.646.2a2.343,2.343,0,0,1-1.516-.524,2.041,2.041,0,0,1-.737-1.34c-.037-.393.067-.626.132-.621" transform="translate(-68.825 -22.374)" fill="#263238"/>
              <path id="Trazado_264448" data-name="Trazado 264448" d="M129.894,21.747c-.108.226-.959.03-1.982.052-1.025,0-1.87.217-1.983-.006-.05-.107.114-.313.466-.507a3.446,3.446,0,0,1,3.021-.035c.357.186.525.389.478.5" transform="translate(-64.832 -10.77)" fill="#263238"/>
              <path id="Trazado_264449" data-name="Trazado 264449" d="M146.908,24.154c-.19.2-.931-.009-1.823-.02-.892-.036-1.648.13-1.821-.077-.076-.1.043-.3.374-.483a2.989,2.989,0,0,1,1.483-.32,2.928,2.928,0,0,1,1.453.4c.315.2.418.406.334.5" transform="translate(-73.75 -11.972)" fill="#263238"/>
              <path id="Trazado_264450" data-name="Trazado 264450" d="M79.295,35.34c1.37-2.214,5.792-7.521,7.357-11.176,1.117-2.608,1.958-11.759,4.34-16.469S96.179,1.079,98.931.338a6.329,6.329,0,0,1,6.06,1.376c1.243,1.112,1.667,4.348,1.667,4.348s-6.639,1.476-8.875,5.262a32.3,32.3,0,0,0-3.191,6.537l-.831,2.379s.778,4.6,1.064,6.881-.17,4.39-2.043,5.313L89.013,35.1s2.045,22.011,1.818,22.184c-.562.429-5.278-.522-9.543-1.5-.828-.19-1.28-7.956-1.28-7.956l-1.246,7.271-3.208-.731s.942-14.5,3.741-19.022" transform="translate(-38.9 -0.043)" fill="#263238"/>
              <path id="Trazado_264451" data-name="Trazado 264451" d="M135.9,6.682a5.394,5.394,0,0,1,5.51,3.887,54.382,54.382,0,0,1,1.118,7.541,45.618,45.618,0,0,0,.351-6.986A12.341,12.341,0,0,0,139.462,3.6c-1.892-1.729-3.488-2.54-6.871-2.334A5.96,5.96,0,0,1,134.8,3.158c.434.642.539,1.11,1.1,3.524" transform="translate(-68.267 -0.635)" fill="#263238"/>
              <path id="Trazado_264452" data-name="Trazado 264452" d="M110.751,35.436a1.905,1.905,0,0,0-2.788-1.621,2.612,2.612,0,0,0-1.107,2.627c.162,3.935,4.079,2.961,4.082,2.848,0-.07-.105-2.226-.187-3.853" transform="translate(-55.014 -17.288)" fill="#ffbea9"/>
              <path id="Trazado_264453" data-name="Trazado 264453" d="M110.74,39.108c-.018-.012-.066.051-.18.109a.683.683,0,0,1-.512.032,1.7,1.7,0,0,1-.848-1.489,2.262,2.262,0,0,1,.151-.989.792.792,0,0,1,.494-.548.349.349,0,0,1,.412.171c.057.108.035.187.057.194s.082-.07.043-.231a.438.438,0,0,0-.165-.24.517.517,0,0,0-.383-.084.964.964,0,0,0-.691.639,2.334,2.334,0,0,0-.193,1.107A1.78,1.78,0,0,0,110,39.435a.735.735,0,0,0,.622-.13c.118-.1.135-.191.121-.2" transform="translate(-56.08 -18.548)" fill="#e4977c"/>
              <path id="Trazado_264454" data-name="Trazado 264454" d="M88.165,11.137a28.31,28.31,0,0,0-4.829,11.455c-.462,2.588-.617,5.383-2.186,7.492-.825,1.109-2,1.961-2.61,3.2-.661,1.35-.563,3-1.337,4.286-.844,1.4-2.525,2.067-3.623,3.282-2.069,2.288-1.61,5.82-2.455,8.786A9.917,9.917,0,0,1,67.965,54.5c-.516.431-1.144.995-.952,1.639a1.531,1.531,0,0,0,.863.811c1.191.607,2.289,2.929,3.6,3.179.272-7.073,3.705-15.568,7.428-21.589,2.125-3.436,4.469-6.87,5.308-10.822.553-2.6.419-5.3.709-7.943s1.1-5.4,3.1-7.152" transform="translate(-34.484 -5.734)" fill="#263238"/>
              <path id="Trazado_264455" data-name="Trazado 264455" d="M106.059,28.919c-.049.059-.409-.108-.884-.635a4.953,4.953,0,0,1-1.138-2.759,5.072,5.072,0,0,1,.257-2.12,6.928,6.928,0,0,1,1.212-2.085,16.238,16.238,0,0,1,1.8-1.822c.654-.582,1.359-1.152,2.109-1.7a27.688,27.688,0,0,1,4.492-2.667c1.466-.69,2.806-1.133,3.846-1.633a8.707,8.707,0,0,0,2.265-1.455c.469-.433.695-.731.78-.684.067.034-.012.423-.408,1.006a6.892,6.892,0,0,1-2.217,1.922c-1.058.637-2.391,1.177-3.749,1.888a33.746,33.746,0,0,0-4.265,2.645c-.719.524-1.4,1.064-2.039,1.61a17.609,17.609,0,0,0-1.724,1.642,6.291,6.291,0,0,0-1.122,1.707,4.444,4.444,0,0,0-.344,1.7A5.369,5.369,0,0,0,105.577,28c.308.556.546.846.481.916" transform="translate(-53.554 -5.847)" fill="#263238"/>
              <path id="Trazado_264456" data-name="Trazado 264456" d="M108.782,32.835a.675.675,0,0,1-.195-.09,3.723,3.723,0,0,1-.516-.335,4.844,4.844,0,0,1-1.387-1.778,4.939,4.939,0,0,1-.336-3.315,6.69,6.69,0,0,1,2.358-3.331,34.621,34.621,0,0,1,3.353-2.339c1.063-.667,2.043-1.23,2.878-1.681s1.522-.792,2-1.018c.239-.114.427-.2.556-.252a.692.692,0,0,1,.2-.071,5.555,5.555,0,0,1-.714.411c-.465.252-1.139.617-1.959,1.086s-1.788,1.046-2.839,1.721a37.6,37.6,0,0,0-3.316,2.336,6.559,6.559,0,0,0-2.295,3.2,4.827,4.827,0,0,0,.274,3.182,5.031,5.031,0,0,0,1.286,1.776c.4.341.662.477.648.5" transform="translate(-54.679 -9.588)" fill="#455a64"/>
              <path id="Trazado_264457" data-name="Trazado 264457" d="M127.623.041a2.6,2.6,0,0,1,1.292.085,6.891,6.891,0,0,1,2.764,1.458,5.171,5.171,0,0,1,1.6,2.675,4.3,4.3,0,0,1,.118.945.836.836,0,0,1-.033.348c-.046,0-.04-.5-.258-1.247a5.425,5.425,0,0,0-1.6-2.531A7.581,7.581,0,0,0,128.867.3a11.8,11.8,0,0,0-1.244-.257" transform="translate(-65.709 0)" fill="#455a64"/>
              <path id="Trazado_264458" data-name="Trazado 264458" d="M105.577,44.273c.015.016-.182.184-.456.553a3.97,3.97,0,0,0-.726,1.765,3.8,3.8,0,0,0,.646,2.692,3.218,3.218,0,0,0,2.942,1.429,2.592,2.592,0,0,0,1.558-.745,3.02,3.02,0,0,0,.743-1.454,4.453,4.453,0,0,0-.244-2.784,2.6,2.6,0,0,0-1.338-1.3,4.085,4.085,0,0,0-.688-.175.453.453,0,0,1,.188-.016,1.828,1.828,0,0,1,.534.1,2.617,2.617,0,0,1,1.464,1.316,4.552,4.552,0,0,1,.311,2.914,3.226,3.226,0,0,1-.793,1.576,2.824,2.824,0,0,1-1.707.825,3.131,3.131,0,0,1-1.857-.368,3.7,3.7,0,0,1-1.306-1.18,3.931,3.931,0,0,1-.631-2.852,3.846,3.846,0,0,1,.825-1.8,3.281,3.281,0,0,1,.378-.385c.1-.078.149-.114.155-.108" transform="translate(-53.631 -22.775)" fill="#e0e0e0"/>
              <path id="Trazado_264459" data-name="Trazado 264459" d="M67.914,382.391l2.76-11.965L60.959,368.8v8.749l2.7,3.982Z" transform="translate(-31.386 -189.883)" fill="#ffbea9"/>
              <path id="Trazado_264460" data-name="Trazado 264460" d="M64.273,389.844l-.327.519s6.531,9.106,5.566,10.83L52.147,390.02l3.954-5.627a11.813,11.813,0,0,0,8.172,5.451" transform="translate(-26.849 -197.912)" fill="#a7a7a7"/>
              <g id="Grupo_870912" data-name="Grupo 870912" transform="translate(28.769 189.426)" opacity="0.6">
                <g id="Grupo_870911" data-name="Grupo 870911">
                  <g id="Grupo_870910" data-name="Grupo 870910" clip-path="url(#clip-path-6)">
                    <path id="Trazado_264461" data-name="Trazado 264461" d="M60.355,390.5a.843.843,0,0,0-1.011.494A.81.81,0,0,0,59.824,392a.889.889,0,0,0,1.068-.528.841.841,0,0,0-.616-.992" transform="translate(-59.302 -390.464)" fill="#fff"/>
                  </g>
                </g>
              </g>
              <g id="Grupo_870915" data-name="Grupo 870915" transform="translate(25.298 190.754)" opacity="0.6">
                <g id="Grupo_870914" data-name="Grupo 870914">
                  <g id="Grupo_870913" data-name="Grupo 870913" clip-path="url(#clip-path-7)">
                    <path id="Trazado_264462" data-name="Trazado 264462" d="M52.146,394.555,53.1,393.2l16.294,11.205s.557.834.119,1.322Z" transform="translate(-52.146 -393.202)" fill="#fff"/>
                  </g>
                </g>
              </g>
              <path id="Trazado_264463" data-name="Trazado 264463" d="M74.187,396.351c-.057.083-.506-.151-1.1-.147-.592-.012-1.044.217-1.1.133-.068-.066.385-.492,1.1-.485s1.165.432,1.1.5" transform="translate(-37.061 -203.812)" fill="#263238"/>
              <path id="Trazado_264464" data-name="Trazado 264464" d="M77.206,400.6c-.033.095-.493,0-1.012.176-.524.158-.846.5-.928.441-.088-.038.173-.572.822-.776s1.169.077,1.119.159" transform="translate(-38.743 -206.136)" fill="#263238"/>
              <path id="Trazado_264465" data-name="Trazado 264465" d="M78.5,405.552c-.089-.032.066-.531.583-.855s1.032-.254,1.022-.16-.415.184-.834.457-.681.6-.77.559" transform="translate(-40.404 -208.242)" fill="#263238"/>
              <path id="Trazado_264466" data-name="Trazado 264466" d="M21.346,240.794l8.706,1.166-3.351,9.6-9.337-3.21-.528-3.548Z" transform="translate(-8.668 -123.977)" fill="#ffbea9"/>
              <path id="Trazado_264467" data-name="Trazado 264467" d="M9.615,245.952l-.524-.222s-7.366,7.35-9.09,6.723l7.637-17.587,5.748,2.781a10.967,10.967,0,0,0-3.771,8.3" transform="translate(0 -120.925)" fill="#a7a7a7"/>
              <g id="Grupo_870918" data-name="Grupo 870918" transform="translate(9.28 116.827)" opacity="0.6">
                <g id="Grupo_870917" data-name="Grupo 870917">
                  <g id="Grupo_870916" data-name="Grupo 870916" clip-path="url(#clip-path-8)">
                    <path id="Trazado_264468" data-name="Trazado 264468" d="M20.589,241.677a.782.782,0,0,0-.6-.852.753.753,0,0,0-.85.591.826.826,0,0,0,.645.9.781.781,0,0,0,.816-.713" transform="translate(-19.128 -240.814)" fill="#fff"/>
                  </g>
                </g>
              </g>
              <g id="Grupo_870921" data-name="Grupo 870921" transform="translate(0 113.941)" opacity="0.6">
                <g id="Grupo_870920" data-name="Grupo 870920">
                  <g id="Grupo_870919" data-name="Grupo 870919" clip-path="url(#clip-path-9)">
                    <path id="Trazado_264469" data-name="Trazado 264469" d="M7.637,234.866l1.383.669L1.194,252.146s-.681.635-1.194.307Z" transform="translate(0 -234.866)" fill="#fff"/>
                  </g>
                </g>
              </g>
              <path id="Trazado_264470" data-name="Trazado 264470" d="M18.234,255.191c-.085-.04.063-.487-.03-1.029s-.356-.924-.288-.988c.051-.072.509.279.609.938s-.221,1.132-.292,1.079" transform="translate(-9.219 -130.347)" fill="#263238"/>
              <path id="Trazado_264471" data-name="Trazado 264471" d="M14.446,258.648c-.092-.017-.076-.452-.313-.9s-.584-.7-.543-.784c.022-.086.551.072.834.637s.1,1.083.022,1.049" transform="translate(-6.995 -132.291)" fill="#263238"/>
              <path id="Trazado_264472" data-name="Trazado 264472" d="M9.867,260.61c.016-.086.5-.019.871.406s.388.908.3.913-.231-.353-.544-.7-.656-.533-.627-.622" transform="translate(-5.079 -134.163)" fill="#263238"/>
              <path id="Trazado_264473" data-name="Trazado 264473" d="M90.179,213.26c-.773.382-10.5,37.876-13.56,39.422l-6.2,30.49a2.636,2.636,0,0,1,.423,1.974c-.141,1.339-.7,1.551-.7,1.551s-8.953,1.128-12.548-1.481a18.054,18.054,0,0,1,.635-2.89c.212-.212,1.058-24.391,3.243-30.031s5.075-23.475,4.794-27.07-1.269-11.984-1.058-14.663a25.2,25.2,0,0,1,1.128-5.357Z" transform="translate(-29.652 -105.654)" fill="#263238"/>
              <path id="Trazado_264474" data-name="Trazado 264474" d="M81.412,215.972s-3.3,22.607-6.144,26.284a10.51,10.51,0,0,1-7.643,3.93c-.921.155-34.423-12.237-34.423-12.237s-.545-9.124.545-10.486c0,0,3,.136,3.677,1.089L54.856,227l6.4-19.475Z" transform="translate(-17.025 -106.85)" fill="#263238"/>
              <path id="Trazado_264475" data-name="Trazado 264475" d="M109.2,224.851a2.273,2.273,0,0,1-.072.39l-.255,1.106c-.238.983-.573,2.363-.983,4.058-.859,3.442-2.036,8.156-3.337,13.363a105.8,105.8,0,0,1-3.973,13.194c-.651,1.641-1.251,2.938-1.7,3.818-.217.443-.409.775-.532,1a2.389,2.389,0,0,1-.2.341,2.267,2.267,0,0,1,.158-.364c.108-.236.285-.575.489-1.024.42-.891.994-2.2,1.621-3.839a116.643,116.643,0,0,0,3.9-13.191c1.328-5.2,2.53-9.908,3.408-13.345l1.061-4.038.3-1.095a2.4,2.4,0,0,1,.122-.377" transform="translate(-50.531 -115.769)" fill="#455a64"/>
              <path id="Trazado_264476" data-name="Trazado 264476" d="M71.761,215.006c.013,0-.019.117-.037.34a9.143,9.143,0,0,0-.029.978c.008.851.093,2.081.223,3.6.145,1.528.316,3.334.506,5.335.16,2.007.481,4.213.5,6.554a50.438,50.438,0,0,1-1.643,11.811l-.774,3.53-.208.961a1.731,1.731,0,0,1-.089.332,1.746,1.746,0,0,1,.039-.341l.162-.97c.149-.841.384-2.054.7-3.548a53.408,53.408,0,0,0,1.565-11.771c-.021-2.322-.333-4.519-.482-6.534l-.453-5.345c-.106-1.522-.165-2.76-.142-3.616a6.932,6.932,0,0,1,.076-.984,1.294,1.294,0,0,1,.087-.333" transform="translate(-36.149 -110.7)" fill="#455a64"/>
              <path id="Trazado_264477" data-name="Trazado 264477" d="M39.552,242.345a14.613,14.613,0,0,1-.421,1.5,27.032,27.032,0,0,0-1.062,7.374,14.605,14.605,0,0,1-.018,1.554,1.36,1.36,0,0,1-.077-.413c-.035-.267-.065-.657-.084-1.139a21.227,21.227,0,0,1,1.07-7.429c.154-.457.293-.822.4-1.069a1.346,1.346,0,0,1,.19-.375" transform="translate(-19.501 -124.776)" fill="#455a64"/>
              <path id="Trazado_264478" data-name="Trazado 264478" d="M22.5,259.42c0,.07-.042.127-.093.127s-.093-.057-.093-.127.042-.126.093-.126.093.056.093.126" transform="translate(-11.49 -133.502)" fill="#455a64"/>
              <path id="Trazado_264479" data-name="Trazado 264479" d="M59.363,363.188a15.306,15.306,0,0,1,1.767.25c1.087.172,2.592.387,4.261.557s3.188.258,4.288.307a15.486,15.486,0,0,1,1.781.108,1.774,1.774,0,0,1-.479.049c-.309.016-.755.024-1.307.021-1.1,0-2.63-.065-4.308-.234s-3.185-.415-4.268-.632c-.541-.108-.977-.206-1.276-.283a1.772,1.772,0,0,1-.459-.144" transform="translate(-30.564 -186.99)" fill="#455a64"/>
              <path id="Trazado_264480" data-name="Trazado 264480" d="M131.107,194.558c.107-.071,6.368,0,6.368,0s4.688-22.841,5.245-29.841S131.3,167.96,131.3,167.96Z" transform="translate(-67.503 -83.548)" fill="#468b76"/>
              <path id="Trazado_264481" data-name="Trazado 264481" d="M146.667,212.707a9.321,9.321,0,0,1,.4,3.073,2.492,2.492,0,0,1-.244.895,2.853,2.853,0,0,1-.775.807l-2.124,1.7c-.227.181-.555.366-.782.184a.62.62,0,0,1-.131-.588,4.676,4.676,0,0,1,.6-1.695l.756-3.173-.777-1.64Z" transform="translate(-73.626 -109.29)" fill="#ffbea9"/>
              <path id="Trazado_264482" data-name="Trazado 264482" d="M89.744,64.746s6.084,0,9.66,7.948c0,0,10.777,18.8,11.028,26.818,0,0-.125,11.905-2.13,18.923s-7.775,25.613-7.775,25.613-18.04-1.551-21.674-4.183S67.2,137.608,67.2,137.608s4.887-14.913,10.9-23.936,3.634-25.063,3.634-25.063-1.684-23.791,8.01-23.863" transform="translate(-34.598 -33.336)" fill="#468b76"/>
              <path id="Trazado_264483" data-name="Trazado 264483" d="M131.5,178.925a1.725,1.725,0,0,1,.292.007c.192.007.476.017.846.016.739,0,1.822-.043,3.181-.176l-.061.05c1.252-4.4,3.32-11.927,5.07-20.594a131.7,131.7,0,0,0,2.522-17.866c.129-2.306.129-4.177.087-5.467-.03-.63-.053-1.127-.07-1.486-.005-.158-.009-.286-.012-.388a.52.52,0,0,1,0-.133.5.5,0,0,1,.021.13l.037.386c.029.359.068.856.118,1.486.071,1.292.1,3.168-.008,5.481a123.412,123.412,0,0,1-2.452,17.906c-1.752,8.678-3.865,16.2-5.182,20.584l-.014.046-.047,0a29.116,29.116,0,0,1-3.2.111c-.371-.01-.656-.032-.848-.052a1.741,1.741,0,0,1-.289-.045" transform="translate(-67.705 -68.42)" fill="#263238"/>
              <path id="Trazado_264484" data-name="Trazado 264484" d="M135.143,71.761c.036-.678,6.683,9.743,8.418,20.742.624,3.956-.849,8.9-.849,8.9L130.24,73.405s4.574,4.485,4.9-1.645" transform="translate(-67.056 -36.931)" fill="#e0e0e0"/>
              <path id="Trazado_264485" data-name="Trazado 264485" d="M121.535,67.138a9.219,9.219,0,0,1,1.451,1.3,7.257,7.257,0,0,1,1.263,1.907c.378.81.705,1.767,1.1,2.805l.006.016v.018A9.024,9.024,0,0,0,125.884,76a20.433,20.433,0,0,0,1.354,2.963c1.108,2.007,2.306,4.207,3.462,6.55a133.921,133.921,0,0,1,5.82,13.535c.651,1.77,1.128,3.219,1.455,4.222l.359,1.16a2.657,2.657,0,0,1,.108.409,2.64,2.64,0,0,1-.157-.393l-.4-1.145c-.355-.992-.858-2.431-1.529-4.191-1.334-3.521-3.314-8.34-5.878-13.485-1.156-2.34-2.343-4.533-3.445-6.551a20.237,20.237,0,0,1-1.351-3,9.134,9.134,0,0,1-.512-2.882l.006.033c-.388-1.045-.7-2.005-1.062-2.808a7.343,7.343,0,0,0-1.2-1.9,13.58,13.58,0,0,0-1.008-1.024l-.276-.255c-.062-.059-.091-.09-.088-.094" transform="translate(-62.574 -34.567)" fill="#263238"/>
              <path id="Trazado_264486" data-name="Trazado 264486" d="M137.224,153.062c0-.011.1-.014.264.065a1.16,1.16,0,0,1,.51.545,1.29,1.29,0,0,1,.006,1.115,1.278,1.278,0,0,1-2.289-.228,1.289,1.289,0,0,1,.226-1.093,1.157,1.157,0,0,1,.606-.434c.173-.046.273-.022.272-.011a1.451,1.451,0,0,0-.732.547,1.14,1.14,0,0,0-.149.924,1.063,1.063,0,0,0,1.86.185,1.139,1.139,0,0,0,.035-.935,1.449,1.449,0,0,0-.61-.68" transform="translate(-69.854 -78.778)" fill="#263238"/>
              <path id="Trazado_264487" data-name="Trazado 264487" d="M98.365,156.036c-.008.02-.309-.112-.865-.3a6.914,6.914,0,0,0-1.03-.269,3.15,3.15,0,0,0-1.375.031,2.149,2.149,0,0,0-1.264,1,12.758,12.758,0,0,0-.79,1.793l-1.684,4.216c-.163.4-.324.8-.476,1.181l-.12-.172a14.688,14.688,0,0,1,7.175,1.662,13.245,13.245,0,0,1,1.868,1.177c.21.152.359.288.463.375s.154.138.149.145a6.506,6.506,0,0,1-.666-.444,16,16,0,0,0-1.891-1.1,15.068,15.068,0,0,0-7.091-1.561l-.192.006.071-.179.474-1.182,1.7-4.209a12.455,12.455,0,0,1,.829-1.817,2.615,2.615,0,0,1,.62-.691,2.333,2.333,0,0,1,.775-.372,3.235,3.235,0,0,1,1.448,0,6.238,6.238,0,0,1,1.037.315c.277.108.485.205.625.274a.866.866,0,0,1,.207.118" transform="translate(-46.635 -79.93)" fill="#263238"/>
              <path id="Trazado_264488" data-name="Trazado 264488" d="M148.095,106.608a.7.7,0,0,1,.013-.179c.018-.135.041-.3.069-.515.072-.474.17-1.128.294-1.949l1.112-6.95v.013c.057-1.447.127-3.028.16-4.7a25.473,25.473,0,0,0-.094-2.571c-.021-.438-.073-.879-.135-1.322s-.123-.892-.21-1.339a33.062,33.062,0,0,0-2.263-7.279,34.023,34.023,0,0,0-2.991-5.469,30.61,30.61,0,0,0-2.6-3.31c-.334-.369-.615-.635-.793-.828a2.449,2.449,0,0,1-.268-.3,2.386,2.386,0,0,1,.3.262c.189.181.483.437.829.8a27.517,27.517,0,0,1,2.673,3.277,32.9,32.9,0,0,1,3.057,5.477,32.536,32.536,0,0,1,2.3,7.327c.088.452.163.9.211,1.352s.114.894.135,1.338a25.241,25.241,0,0,1,.088,2.593c-.039,1.681-.118,3.261-.186,4.708v.013c-.495,2.853-.908,5.237-1.2,6.934l-.354,1.939-.1.509a.7.7,0,0,1-.046.173" transform="translate(-72.283 -35.994)" fill="#263238"/>
              <path id="Trazado_264489" data-name="Trazado 264489" d="M132.879,205.2c.253-.115,4.895,1.748,5.818,2.94a2.421,2.421,0,0,1,.6,1.816s-5.925-2.536-7.139-2.365-2.048,1.925-2.8.791-.867-1.271-.867-1.271Z" transform="translate(-66.156 -105.648)" fill="#ffbea9"/>
              <path id="Trazado_264490" data-name="Trazado 264490" d="M105.922,67.138c1.7,0,6.076,3.315,6.32,11.839.237,8.288-.3,23.265-.3,23.265l6.9,31.057c.2.3-6.708,3.958-9.755,3.174,0,0-7.948-28.031-8.629-31.487S98.3,85.437,98.868,81.81s-.316-14.656,7.054-14.672" transform="translate(-50.839 -34.567)" fill="#468b76"/>
              <path id="Trazado_264491" data-name="Trazado 264491" d="M120.6,203.04a.7.7,0,1,0,.122.109" transform="translate(-61.527 -104.483)" fill="#e0e0e0"/>
              <path id="Trazado_264492" data-name="Trazado 264492" d="M120.593,203.07c.01-.01.069.018.134.115a.71.71,0,0,1,.1.471.818.818,0,0,1-.4.61.822.822,0,0,1-1.123-1,.817.817,0,0,1,.559-.466.71.71,0,0,1,.479.039c.1.053.138.109.13.119a1.1,1.1,0,0,0-.556.012.669.669,0,0,0-.394.378.607.607,0,0,0,.8.708.667.667,0,0,0,.329-.436,1.1,1.1,0,0,0-.054-.554" transform="translate(-61.399 -104.405)" fill="#263238"/>
              <path id="Trazado_264493" data-name="Trazado 264493" d="M119.491,199.322a.591.591,0,1,0,.112,1.018.623.623,0,0,0-.112-1.018" transform="translate(-61.096 -102.603)" fill="#e0e0e0"/>
              <path id="Trazado_264494" data-name="Trazado 264494" d="M119.366,199.257c0-.013.064-.015.152.039a.6.6,0,0,1,.246.349.7.7,0,0,1-.125.638.712.712,0,0,1-1.213-.533.705.705,0,0,1,.385-.524.607.607,0,0,1,.424-.055c.1.029.137.074.131.086-.011.038-.219-.046-.465.124a.553.553,0,0,0-.244.392.495.495,0,0,0,.808.355.549.549,0,0,0,.124-.445c-.041-.3-.244-.392-.223-.426" transform="translate(-60.97 -102.538)" fill="#263238"/>
              <path id="Trazado_264495" data-name="Trazado 264495" d="M118.506,195.479a.591.591,0,1,0,.112,1.018.623.623,0,0,0-.112-1.018" transform="translate(-60.589 -100.625)" fill="#e0e0e0"/>
              <path id="Trazado_264496" data-name="Trazado 264496" d="M118.381,195.414c0-.013.064-.015.152.039a.6.6,0,0,1,.246.349.7.7,0,0,1-.125.638.712.712,0,0,1-1.213-.533.7.7,0,0,1,.385-.523.607.607,0,0,1,.424-.055c.1.029.137.074.131.086-.011.038-.219-.047-.465.124a.553.553,0,0,0-.244.392.495.495,0,0,0,.808.355.55.55,0,0,0,.124-.445c-.041-.3-.244-.392-.223-.426" transform="translate(-60.463 -100.559)" fill="#263238"/>
              <path id="Trazado_264497" data-name="Trazado 264497" d="M99.134,95.063s0,.1,0,.289-.017.474-.012.848c.006.746.029,1.846.1,3.264.131,2.837.406,6.945.813,12.035l.329,4q.09,1.044.184,2.128c.016.181.032.362.048.545l.024.272.057.265c.072.354.169.717.26,1.081.747,2.916,1.605,6.024,2.5,9.3l5.937,21.408-.11-.092a10.765,10.765,0,0,0,3.644-.336,19.21,19.21,0,0,0,6.025-2.814l-.049.129c-2.577-11.618-4.922-22.185-6.793-30.616l0-.013v-.013l.687-16.282c.088-1.925.156-3.428.2-4.458q.039-.756.06-1.163c.016-.262.031-.4.031-.4s0,.135,0,.4-.018.659-.032,1.164c-.034,1.031-.085,2.534-.15,4.46-.144,3.874-.349,9.448-.6,16.286l0-.025c1.885,8.428,4.249,18.99,6.847,30.6l.018.082-.067.046a19.409,19.409,0,0,1-6.112,2.857,11.013,11.013,0,0,1-3.729.342l-.086-.008-.023-.083-5.914-21.416c-.889-3.282-1.74-6.391-2.479-9.314-.09-.367-.185-.725-.26-1.1l-.057-.276-.024-.277q-.023-.274-.046-.545-.09-1.086-.176-2.129-.163-2.088-.313-4c-.384-5.093-.633-9.2-.734-12.044-.055-1.419-.063-2.522-.053-3.268,0-.373.028-.657.036-.848s.023-.288.023-.288" transform="translate(-51.009 -48.627)" fill="#263238"/>
            </g>
          </g>
          <g id="Grupo_870934" data-name="Grupo 870934">
            <g id="Grupo_870933" data-name="Grupo 870933" clip-path="url(#clip-path-2)">
              <path id="Trazado_264498" data-name="Trazado 264498" d="M272.454,156.4,248.268,138.72a8.436,8.436,0,0,0-6.694-1.448l-64.208,13.353a8.434,8.434,0,0,0-6.523,10.054l9.894,45.372a8.433,8.433,0,0,0,10.052,6.44l63.826-14.04a8.434,8.434,0,0,0,5.6-4.21l14.676-27.007a8.434,8.434,0,0,0-2.434-10.836M261.981,168a5.229,5.229,0,1,1-4.246-6.053A5.229,5.229,0,0,1,261.981,168" transform="translate(-87.861 -70.586)" fill="#ff725e"/>
              <g id="Grupo_870926" data-name="Grupo 870926" transform="translate(82.786 66.509)" opacity="0.4">
                <g id="Grupo_870925" data-name="Grupo 870925">
                  <g id="Grupo_870924" data-name="Grupo 870924" clip-path="url(#clip-path-11)">
                    <path id="Trazado_264499" data-name="Trazado 264499" d="M272.454,156.4,248.268,138.72a8.434,8.434,0,0,0-6.694-1.448l-64.208,13.353a8.434,8.434,0,0,0-6.523,10.054l9.893,45.372a8.434,8.434,0,0,0,10.052,6.44l63.826-14.04a8.434,8.434,0,0,0,5.6-4.21l14.676-27.007a8.434,8.434,0,0,0-2.434-10.836M262.027,167.95a5.288,5.288,0,0,1-6.122,4.295,5.23,5.23,0,1,1,1.972-10.273,5.049,5.049,0,0,1,4.15,5.978" transform="translate(-170.647 -137.095)"/>
                  </g>
                </g>
              </g>
              <path id="Trazado_264500" data-name="Trazado 264500" d="M268.053,153.331l-24.187-17.677a8.432,8.432,0,0,0-6.694-1.448l-64.208,13.352a8.435,8.435,0,0,0-6.523,10.054l9.893,45.372a8.434,8.434,0,0,0,10.052,6.44l63.826-14.04a8.434,8.434,0,0,0,5.6-4.21l14.676-27.007a8.434,8.434,0,0,0-2.434-10.836m-10.521,11.65a5.167,5.167,0,1,1-4.2-5.982,5.167,5.167,0,0,1,4.2,5.982" transform="translate(-85.595 -69.007)" fill="#ff725e"/>
              <path id="Trazado_264501" data-name="Trazado 264501" d="M285.279,96.355c-.041.015-2.092-5.525-4.581-12.371s-4.475-12.411-4.435-12.425,2.091,5.523,4.581,12.372,4.475,12.41,4.435,12.424" transform="translate(-142.238 -36.843)" fill="#263238"/>
              <path id="Trazado_264502" data-name="Trazado 264502" d="M325.224,47.533a.4.4,0,0,1-.008.095c-.01.07-.023.161-.039.274-.039.251-.1.6-.166,1.053-.149.924-.361,2.243-.623,3.868-.522,3.267-1.219,7.784-1.918,12.783s-1.267,9.536-1.661,12.822c-.194,1.635-.351,2.961-.461,3.891-.055.451-.1.805-.129,1.058l-.037.275a.461.461,0,0,1-.018.093.4.4,0,0,1,0-.1c.005-.07.013-.162.022-.276l.1-1.061c.089-.921.229-2.252.412-3.9.365-3.289.917-7.828,1.616-12.83s1.414-9.516,1.964-12.779c.275-1.631.505-2.951.672-3.861.083-.447.148-.8.2-1.048l.054-.272a.441.441,0,0,1,.024-.092" transform="translate(-164.841 -24.473)" fill="#263238"/>
              <path id="Trazado_264503" data-name="Trazado 264503" d="M359.554,86.2c.033.028-3.442,4.2-7.761,9.326s-7.848,9.254-7.881,9.226,3.442-4.2,7.762-9.327,7.847-9.253,7.88-9.225" transform="translate(-177.069 -44.381)" fill="#263238"/>
              <path id="Trazado_264504" data-name="Trazado 264504" d="M264.758,121.134c-.028.033-2.089-1.679-4.6-3.823s-4.529-3.909-4.5-3.942,2.088,1.679,4.6,3.823,4.529,3.909,4.5,3.942" transform="translate(-131.628 -58.37)" fill="#263238"/>
              <path id="Trazado_264505" data-name="Trazado 264505" d="M370.758,139.638c0,.043-2.718-.116-6.063-.356s-6.056-.468-6.053-.51,2.717.116,6.064.356,6.055.468,6.053.51" transform="translate(-184.653 -71.446)" fill="#263238"/>
              <path id="Trazado_264506" data-name="Trazado 264506" d="M204.684,212.49c.475,2.124-.935,3.729-4.165,4.452l-6.354,1.421-2.749-12.288,6-1.342c3.073-.687,4.939.241,5.367,2.154a3.027,3.027,0,0,1-1.028,3.068,3.11,3.11,0,0,1,2.926,2.535m-9.963-4.905.648,2.9,2.826-.632c1.387-.31,2.032-.97,1.816-1.936s-1.077-1.271-2.464-.961Zm7.034,5.246c-.231-1.036-1.131-1.35-2.606-1.021l-3.318.742.679,3.037,3.318-.742c1.474-.329,2.162-.963,1.926-2.017" transform="translate(-98.554 -105.294)" fill="#fff"/>
              <path id="Trazado_264507" data-name="Trazado 264507" d="M219.1,200.874l2.843-.636,2.23,9.97,6.162-1.378.518,2.317-9.005,2.014Z" transform="translate(-112.805 -103.096)" fill="#fff"/>
              <path id="Trazado_264508" data-name="Trazado 264508" d="M252.62,202.876l-5.705,1.276-.5,2.877-2.914.651,2.729-13.512,2.809-.628,8.242,11.059-2.985.668Zm-1.378-1.959-3-4.269-.9,5.141Z" transform="translate(-125.371 -99.647)" fill="#fff"/>
              <path id="Trazado_264509" data-name="Trazado 264509" d="M269.577,194.976c-.828-3.7,1.422-6.99,5.249-7.846a6.5,6.5,0,0,1,5.543,1.045l-1.449,2.094a4.053,4.053,0,0,0-3.411-.748,4.029,4.029,0,0,0,1.759,7.864,4.015,4.015,0,0,0,2.764-2.148l2.2,1.277a6.922,6.922,0,0,1-12.657-1.538" transform="translate(-138.708 -96.244)" fill="#fff"/>
              <path id="Trazado_264510" data-name="Trazado 264510" d="M301.182,188.314l-1.265,2.089.695,3.107-2.826.632-2.748-12.288,2.826-.632,1.284,5.74L303.3,180l3.16-.706-3.866,6.615,6.913,5.606-3.318.742Z" transform="translate(-151.905 -92.315)" fill="#fff"/>
              <path id="Trazado_264511" data-name="Trazado 264511" d="M230.137,184.474l.236-1.142a3.586,3.586,0,0,0,2.1.181c.816-.182,1.087-.529,1.005-.894-.249-1.114-3.539.425-4.033-1.785-.226-1.011.4-2.037,2.093-2.415a4.09,4.09,0,0,1,2.184.065l-.191,1.141a3.446,3.446,0,0,0-1.754-.1c-.816.182-1.062.559-.979.932.245,1.1,3.537-.433,4.026,1.752.222,1-.412,2.03-2.113,2.41a4.345,4.345,0,0,1-2.577-.147" transform="translate(-118.113 -91.803)" fill="#fff"/>
              <path id="Trazado_264512" data-name="Trazado 264512" d="M246.134,180.282l-2.763.619-.242,1.393-1.412.316,1.322-6.545,1.36-.3,3.992,5.357-1.445.323Zm-.668-.948-1.453-2.067-.434,2.489Z" transform="translate(-124.452 -90.493)" fill="#fff"/>
              <path id="Trazado_264513" data-name="Trazado 264513" d="M254.01,173.92l1.377-.308,1.08,4.829,2.985-.668.251,1.123-4.362.976Z" transform="translate(-130.781 -89.387)" fill="#fff"/>
              <path id="Trazado_264514" data-name="Trazado 264514" d="M270.286,174.628l.247,1.106-4.608,1.031-1.331-5.952,4.5-1.006.247,1.105-3.129.7.289,1.292,2.764-.618.24,1.071-2.764.618.308,1.377Z" transform="translate(-136.231 -87.428)" fill="#fff"/>
              <path id="Trazado_264515" data-name="Trazado 264515" d="M225.722,235.713l.578,2.586,4.529-1.013.406,1.817-4.529,1.013.8,3.565-2.265.506L223.05,234.4l7.395-1.654.406,1.817Z" transform="translate(-114.842 -119.835)" fill="#fff"/>
              <path id="Trazado_264516" data-name="Trazado 264516" d="M246.547,234.46l.45,2.013c-.185.027-.327.044-.5.082a1.893,1.893,0,0,0-1.53,2.544l.794,3.55-2.181.488-1.682-7.52,2.083-.466.222.992a3.109,3.109,0,0,1,2.339-1.683" transform="translate(-124.548 -120.716)" fill="#fff"/>
              <path id="Trazado_264517" data-name="Trazado 264517" d="M252.583,227.885a1.278,1.278,0,0,1,1.084-1.519,1.254,1.254,0,0,1,1.618.871,1.4,1.4,0,0,1-2.7.649m.772,2.205,2.181-.488,1.682,7.52-2.181.488Z" transform="translate(-130.031 -116.525)" fill="#fff"/>
              <path id="Trazado_264518" data-name="Trazado 264518" d="M270.107,222.742l2.32,10.372-2.083.465-.194-.866a2.964,2.964,0,0,1-2.129,1.5,3.97,3.97,0,0,1-1.732-7.745,2.962,2.962,0,0,1,2.454.405l-.816-3.648Zm-.66,7.09A1.976,1.976,0,1,0,268,232.343a1.952,1.952,0,0,0,1.449-2.512" transform="translate(-135.553 -114.683)" fill="#fff"/>
              <path id="Trazado_264519" data-name="Trazado 264519" d="M290.164,228.433l.96,4.291-2.041.456-.21-.937a2.527,2.527,0,0,1-2.058,1.562c-1.762.394-3.029-.35-3.319-1.65-.3-1.329.433-2.461,2.725-2.973l1.734-.388c-.21-.937-.891-1.357-2.065-1.094a3.7,3.7,0,0,0-2.011,1.184l-1.123-1.35A5.924,5.924,0,0,1,285.8,225.9c2.293-.513,3.859.253,4.368,2.531m-1.752,2.4-.172-.769-1.5.334c-1.02.228-1.257.678-1.145,1.181.122.545.664.805,1.434.634a1.646,1.646,0,0,0,1.379-1.38" transform="translate(-145.583 -116.231)" fill="#fff"/>
              <path id="Trazado_264520" data-name="Trazado 264520" d="M306.59,220.34l-1.612,8.741c-.321,1.98-1.233,2.756-2.589,3.059a3.423,3.423,0,0,1-2.251-.215l.45-1.729a1.978,1.978,0,0,0,1.336.2c.6-.134.877-.475,1.021-1.211l.013-.076-4.952-6.848,2.25-.5,3.252,4.63.984-5.577Z" transform="translate(-153.434 -113.446)" fill="#fff"/>
              <g id="Grupo_870929" data-name="Grupo 870929" transform="translate(93.131 84.182)" opacity="0.3">
                <g id="Grupo_870928" data-name="Grupo 870928">
                  <g id="Grupo_870927" data-name="Grupo 870927" clip-path="url(#clip-path-12)">
                    <path id="Trazado_264521" data-name="Trazado 264521" d="M192.049,177.546a2.06,2.06,0,1,1,2.5,1.839,2.083,2.083,0,0,1-2.5-1.839m3.008-.673c-.207-.927-.7-1.366-1.347-1.222-.618.138-.9.764-.7,1.679s.729,1.361,1.347,1.223c.642-.144.906-.752.7-1.68m3.48-3.088,1.166-.261-3.823,9.595-1.166.261Zm-.152,6.464a2.06,2.06,0,1,1,2.5,1.839,2.082,2.082,0,0,1-2.5-1.839m3.008-.673c-.2-.916-.717-1.363-1.347-1.222s-.906.752-.7,1.68.717,1.363,1.347,1.222.9-.764.7-1.68" transform="translate(-191.97 -173.525)" fill="#fff"/>
                  </g>
                </g>
              </g>
              <g id="Grupo_870932" data-name="Grupo 870932" transform="translate(141.306 75.589)" opacity="0.3">
                <g id="Grupo_870931" data-name="Grupo 870931">
                  <g id="Grupo_870930" data-name="Grupo 870930" clip-path="url(#clip-path-12)">
                    <path id="Trazado_264522" data-name="Trazado 264522" d="M291.354,159.833a2.06,2.06,0,1,1,2.5,1.839,2.084,2.084,0,0,1-2.5-1.839m3.009-.673c-.207-.928-.705-1.366-1.347-1.222-.618.138-.9.764-.7,1.68s.729,1.36,1.347,1.222c.642-.144.906-.752.7-1.68m3.479-3.088,1.166-.261-3.822,9.595-1.166.261Zm-.152,6.464a2.06,2.06,0,1,1,2.5,1.839,2.082,2.082,0,0,1-2.5-1.839m3.008-.673c-.2-.915-.717-1.363-1.347-1.222s-.905.752-.7,1.679.717,1.364,1.347,1.223.9-.764.7-1.68" transform="translate(-291.274 -155.812)" fill="#fff"/>
                  </g>
                </g>
              </g>
              <path id="Trazado_264523" data-name="Trazado 264523" d="M273.814,401.85a5.62,5.62,0,1,0,5.62-5.62,5.62,5.62,0,0,0-5.62,5.62" transform="translate(-140.978 -204.006)" fill="#263238"/>
              <path id="Trazado_264524" data-name="Trazado 264524" d="M279.087,404.565a3.062,3.062,0,1,0,3.062-3.062,3.062,3.062,0,0,0-3.062,3.062" transform="translate(-143.693 -206.721)" fill="#e0e0e0"/>
              <path id="Trazado_264525" data-name="Trazado 264525" d="M293.4,388.989v3.753l-8.715,7.02a3.351,3.351,0,0,1-1.34.577c-.649.069-1.256-.3-1.256-1.26,0-1.827,2.278-7.152,2.278-7.152h1.822v-2.938Z" transform="translate(-145.239 -200.278)" fill="#455a64"/>
              <path id="Trazado_264526" data-name="Trazado 264526" d="M284.354,408.189c-.024.016-.11-.22.139-.46a.573.573,0,0,1,.557-.109.6.6,0,0,1,0,1.139.573.573,0,0,1-.557-.109c-.249-.241-.163-.477-.139-.46.039-.006.047.189.247.318a.407.407,0,0,0,.369.033.378.378,0,0,0,0-.7.407.407,0,0,0-.369.033c-.2.129-.209.325-.247.318" transform="translate(-146.387 -209.855)" fill="#263238"/>
              <path id="Trazado_264527" data-name="Trazado 264527" d="M286.784,394.952a6.607,6.607,0,0,1,1.324-.082c.818-.014,1.949,0,3.2.027l3.192.1a7.178,7.178,0,0,1,1.322.1,6.594,6.594,0,0,1-1.324.081c-.818.014-1.949,0-3.2-.027l-3.192-.1a7.3,7.3,0,0,1-1.322-.1" transform="translate(-147.656 -203.303)" fill="#263238"/>
              <path id="Trazado_264528" data-name="Trazado 264528" d="M133.362,401.968a5.62,5.62,0,1,0,5.62-5.62,5.62,5.62,0,0,0-5.62,5.62" transform="translate(-68.664 -204.067)" fill="#263238"/>
              <path id="Trazado_264529" data-name="Trazado 264529" d="M138.634,404.683a3.062,3.062,0,1,0,3.062-3.062,3.062,3.062,0,0,0-3.062,3.062" transform="translate(-71.378 -206.782)" fill="#e0e0e0"/>
              <path id="Trazado_264530" data-name="Trazado 264530" d="M152.948,386.9v4.824l-8.715,7.021a3.352,3.352,0,0,1-1.34.576c-.65.069-1.256-.3-1.256-1.26,0-1.827,2.278-7.152,2.278-7.152h1.822V386.9Z" transform="translate(-72.924 -199.202)" fill="#455a64"/>
              <path id="Trazado_264531" data-name="Trazado 264531" d="M143.9,408.307c-.024.016-.11-.22.139-.46a.573.573,0,0,1,.557-.109.6.6,0,0,1,0,1.139.573.573,0,0,1-.557-.109c-.249-.241-.163-.477-.139-.46.039-.006.047.189.247.318a.406.406,0,0,0,.369.032.378.378,0,0,0,0-.7.408.408,0,0,0-.369.033c-.2.129-.209.325-.247.318" transform="translate(-74.073 -209.916)" fill="#263238"/>
              <path id="Trazado_264532" data-name="Trazado 264532" d="M146.331,395.07a6.609,6.609,0,0,1,1.324-.081c.818-.014,1.949,0,3.2.027l3.192.1a7.182,7.182,0,0,1,1.322.1,6.593,6.593,0,0,1-1.324.081c-.818.014-1.949,0-3.2-.027l-3.192-.1a7.294,7.294,0,0,1-1.322-.1" transform="translate(-75.341 -203.364)" fill="#263238"/>
              <path id="Trazado_264533" data-name="Trazado 264533" d="M178.711,281.1a3.937,3.937,0,0,1-3.719-2.661l-16.4-48.078,86.98,14.059-2,29.36a3.646,3.646,0,0,1-3.393,3.38l-61.223,3.932c-.084.005-.168.008-.252.008m-18.676-49.524,15.875,46.549a2.968,2.968,0,0,0,2.991,2l61.222-3.932a2.673,2.673,0,0,0,2.487-2.478l1.938-28.477Z" transform="translate(-81.656 -118.607)" fill="#455a64"/>
              <path id="Trazado_264534" data-name="Trazado 264534" d="M155.715,236.834l-3.639-2.773-3.592-10.454-3.15-1.824.486-.84,3.464,2.007,3.615,10.518,3.405,2.594Z" transform="translate(-74.827 -113.757)" fill="#455a64"/>
              <rect id="Rectángulo_291480" data-name="Rectángulo 291480" width="0.97" height="83.047" transform="matrix(0.136, -0.991, 0.991, 0.136, 80.632, 121.753)" fill="#455a64"/>
              <rect id="Rectángulo_291481" data-name="Rectángulo 291481" width="0.97" height="77.398" transform="matrix(0.059, -0.998, 0.998, 0.059, 85.507, 135.941)" fill="#455a64"/>
              <rect id="Rectángulo_291482" data-name="Rectángulo 291482" width="71.553" height="0.971" transform="translate(90.319 149.048) rotate(-1.518)" fill="#455a64"/>
              <rect id="Rectángulo_291483" data-name="Rectángulo 291483" width="68.059" height="0.97" transform="translate(93.447 157.774) rotate(-2.779)" fill="#455a64"/>
              <path id="Trazado_264535" data-name="Trazado 264535" d="M319.359,290.24l-.966-.082c.909-10.832,1.517-21.835,1.806-32.7l.97.026c-.29,10.885-.9,21.907-1.81,32.758" transform="translate(-163.93 -132.556)" fill="#455a64"/>
              <path id="Trazado_264536" data-name="Trazado 264536" d="M307.854,290.3l-.97-.007c0-.228.164-23.009.452-33.813l.97.026c-.287,10.795-.45,33.565-.452,33.794" transform="translate(-158.005 -132.056)" fill="#455a64"/>
              <rect id="Rectángulo_291484" data-name="Rectángulo 291484" width="0.971" height="35.698" transform="translate(142.248 122.689) rotate(-1.506)" fill="#455a64"/>
              <rect id="Rectángulo_291485" data-name="Rectángulo 291485" width="0.97" height="37.559" transform="translate(134.292 121.632) rotate(-4.239)" fill="#455a64"/>
              <rect id="Rectángulo_291486" data-name="Rectángulo 291486" width="0.971" height="40.143" transform="matrix(0.991, -0.133, 0.133, 0.991, 124.509, 119.909)" fill="#455a64"/>
              <rect id="Rectángulo_291487" data-name="Rectángulo 291487" width="0.971" height="43.066" transform="translate(113.886 117.971) rotate(-10.585)" fill="#455a64"/>
              <rect id="Rectángulo_291488" data-name="Rectángulo 291488" width="0.971" height="45.868" transform="translate(101.319 116.384) rotate(-14.222)" fill="#455a64"/>
              <rect id="Rectángulo_291489" data-name="Rectángulo 291489" width="0.97" height="52.565" transform="translate(85.586 113.87) rotate(-18.01)" fill="#455a64"/>
              <path id="Trazado_264537" data-name="Trazado 264537" d="M226.044,361.314h-.02l-79.336-1.295a1.214,1.214,0,0,1-1.192-1.243c.035-1.422.24-8.6.793-10.176.2-.562.526-1.5,13.7-7.962,1.308-.641,12.821-6.266,14.409-6.355,1.647-.092,16.276-.714,16.9-.741a1.213,1.213,0,1,1,.1,2.424c-.151.006-14.979.637-16.821.737-2.08.444-23.785,10.862-26.046,12.867a69.092,69.092,0,0,0-.575,8.043l78.108,1.274a1.213,1.213,0,0,1-.019,2.426" transform="translate(-74.911 -171.73)" fill="#455a64"/>
              <path id="Trazado_264538" data-name="Trazado 264538" d="M222.982,360.48l-10.075-.247a5.849,5.849,0,0,1-4.24-1.679,5.246,5.246,0,0,1-1.159-3.957,9.027,9.027,0,0,1,1.474-4.337l9.748-14.414.8.544-9.742,14.405a8.047,8.047,0,0,0-1.315,3.858,4.327,4.327,0,0,0,.913,3.253,4.926,4.926,0,0,0,3.555,1.357l10.062.247Z" transform="translate(-106.832 -172.916)" fill="#455a64"/>
              <path id="Trazado_264539" data-name="Trazado 264539" d="M191.79,274.8c-8.119-14.625-29.423-52.848-30.492-54.068-.648-.577-5.84-2.4-8.956-3.417l.3-.923c.845.274,8.285,2.707,9.323,3.636,1,.9,25.728,45.39,30.673,54.3Z" transform="translate(-78.436 -111.414)" fill="#455a64"/>
              <path id="Trazado_264540" data-name="Trazado 264540" d="M143.855,213.882l-5.344,3.247s-6.173-2.793-6.688-3.454-.662-3.118,1.469-3.58,10.562,3.788,10.562,3.788" transform="translate(-67.705 -108.153)" fill="#455a64"/>
              <path id="Trazado_264541" data-name="Trazado 264541" d="M135.742,213.432c-.014,0-.04-.091-.016-.259a1.006,1.006,0,0,1,.361-.616,1.093,1.093,0,0,1,1.05-.184,1.121,1.121,0,0,1,0,2.118,1.093,1.093,0,0,1-1.05-.184,1.006,1.006,0,0,1-.361-.616c-.024-.168,0-.26.016-.259s.029.09.079.235a1.015,1.015,0,0,0,.375.5.928.928,0,0,0,.863.108.9.9,0,0,0,0-1.681.928.928,0,0,0-.863.108,1.015,1.015,0,0,0-.375.5c-.05.145-.059.235-.079.235" transform="translate(-69.876 -109.313)" fill="#263238"/>
              <path id="Trazado_264542" data-name="Trazado 264542" d="M148,387.668c0-.07,17.729.158,39.591.508s39.592.691,39.591.761-17.725-.158-39.595-.508S148,387.737,148,387.668" transform="translate(-76.201 -199.591)" fill="#263238"/>
            </g>
          </g>
        </g>
      </g>
    </g>
  </g>
</svg>
